<?xml version="1.0" encoding="UTF-8"?><svg id="flagOfSaintHelier" xmlns="http://www.w3.org/2000/svg" width="1200" height="600"><g><rect width="1200" height="600" fill="#0000a8"/><path d="m508.552 79.48c36.313 37.867 37.351 67.858 37.351 67.858-91.261 1.917-158.093 76.573-163.409 81.786-5.316 5.213-8.6 0.18-8.6 0.18l-14.5-14.925s-5.017-3.295 0.179-8.628c5.196-5.333 90.126-81.007 91.081-161.535 0 0 20.15-1.166 57.897 35.264z" fill="#ffe800" stroke="#ffe800" stroke-width="1.088"/><path d="m691.448 79.48c-36.313 37.867-37.351 67.858-37.351 67.858 91.261 1.917 158.093 76.573 163.409 81.786 5.316 5.213 8.6 0.18 8.6 0.18l14.5-14.925s5.017-3.295-0.179-8.628c-5.196-5.333-90.126-81.007-91.081-161.535 0 0-20.15-1.166-57.897 35.264z" fill="#ffe800" stroke="#ffe800" stroke-width="1.088"/><g transform="matrix(1.086 0 0 1.089 229.991 -48.503)" fill="#ffe800" stroke="#ffe800" stroke-linecap="round" stroke-linejoin="round" stroke-width="2"><rect transform="rotate(-45)" x="-68.119" y="230.137" width="16.443" height="13.868"/><ellipse transform="matrix(0.767 0.752 -0.767 0.752 134.955 -104.867)" cx="196.817" cy="215.588" rx="4.291" ry="7.591"/></g><g transform="matrix(-1.086 0 0 1.089 970.009 -48.503)" fill="#ffe800" stroke="#ffe800" stroke-linecap="round" stroke-linejoin="round" stroke-width="2"><rect transform="rotate(-45)" x="-68.119" y="230.137" width="16.443" height="13.868"/><ellipse transform="matrix(0.767 0.752 -0.767 0.752 134.955 -104.867)" cx="196.817" cy="215.588" rx="4.291" ry="7.591"/></g><rect transform="matrix(0.707 -0.707 0.707 0.707 0 0)" x="121.942" y="439.342" width="18.887" height="469.07" ry="2.526" fill="#ffe800" stroke="#ffe800" stroke-linecap="round" stroke-linejoin="round" stroke-width="2.175"/><rect transform="matrix(-0.707 -0.707 -0.707 0.707 0 0)" x="-726.944" y="-409.544" width="18.887" height="469.07" ry="2.526" fill="#ffe800" stroke="#ffe800" stroke-linecap="round" stroke-linejoin="round" stroke-width="2.175"/><rect transform="rotate(-45)" x="141.771" y="706.602" width="6.343" height="21.375" fill="#0000a8"/><rect transform="rotate(-45)" x="114.371" y="706.669" width="6.343" height="21.375" fill="#0000a8"/></g></svg>