<?xml version="1.0" encoding="UTF-8"?>
<!DOCTYPE svg PUBLIC "-//W3C//DTD SVG 1.1//EN" "http://www.w3.org/Graphics/SVG/1.1/DTD/svg11.dtd">
<svg xmlns="http://www.w3.org/2000/svg" version="1.1" width="360px" height="216px" style="shape-rendering:geometricPrecision; text-rendering:geometricPrecision; image-rendering:optimizeQuality; fill-rule:evenodd; clip-rule:evenodd" xmlns:xlink="http://www.w3.org/1999/xlink">
<g><path style="opacity:1" fill="#008b44" d="M -0.5,-0.5 C 119.5,-0.5 239.5,-0.5 359.5,-0.5C 359.5,71.5 359.5,143.5 359.5,215.5C 239.5,215.5 119.5,215.5 -0.5,215.5C -0.5,143.5 -0.5,71.5 -0.5,-0.5 Z"/></g>
<g><path style="opacity:1" fill="#fbfcfb" d="M 169.5,23.5 C 211.026,21.8883 240.026,40.055 256.5,78C 265.965,112.478 257.965,142.145 232.5,167C 198.242,192.227 163.576,192.893 128.5,169C 98.3993,141.499 90.5659,108.666 105,70.5C 118.784,44.1959 140.284,28.5292 169.5,23.5 Z"/></g>
<g><path style="opacity:1" fill="#8b8197" d="M 189.5,60.5 C 183.887,61.7851 178.22,61.7851 172.5,60.5C 174.905,57.6804 175.571,54.6804 174.5,51.5C 175.556,44.1039 176.889,36.7705 178.5,29.5C 179.833,29.5 181.167,29.5 182.5,29.5C 183.766,38.8596 185.266,48.193 187,57.5C 188.045,58.3734 188.878,59.3734 189.5,60.5 Z"/></g>
<g><path style="opacity:1" fill="#a49ea9" d="M 169.5,60.5 C 167.393,61.4682 165.059,61.8016 162.5,61.5C 163.427,57.0525 164.76,52.7192 166.5,48.5C 167.815,52.4287 168.815,56.4287 169.5,60.5 Z"/></g>
<g><path style="opacity:1" fill="#aaa6ad" d="M 197.5,61.5 C 194.833,61.5 192.167,61.5 189.5,61.5C 189.5,61.1667 189.5,60.8333 189.5,60.5C 190.985,56.6096 192.485,52.6096 194,48.5C 195.327,52.808 196.493,57.1414 197.5,61.5 Z"/></g>
<g><path style="opacity:1" fill="#6f7cb6" d="M 174.5,51.5 C 175.571,54.6804 174.905,57.6804 172.5,60.5C 178.22,61.7851 183.887,61.7851 189.5,60.5C 189.5,60.8333 189.5,61.1667 189.5,61.5C 184.073,63.1457 178.406,64.1457 172.5,64.5C 164.223,60.425 161.223,63.0917 163.5,72.5C 163.167,72.5 162.833,72.5 162.5,72.5C 162.5,68.8333 162.5,65.1667 162.5,61.5C 165.059,61.8016 167.393,61.4682 169.5,60.5C 172.77,58.5546 174.437,55.5546 174.5,51.5 Z"/></g>
<g><path style="opacity:1" fill="#094cce" d="M 172.5,64.5 C 178.176,64.3339 183.843,64.5006 189.5,65C 187.19,65.4966 184.857,65.6633 182.5,65.5C 182.5,66.8333 182.5,68.1667 182.5,69.5C 184.833,69.5 187.167,69.5 189.5,69.5C 189.833,67.5 190.167,65.5 190.5,63.5C 192.78,63.2537 194.78,63.2537 196.5,63.5C 193.887,66.4177 193.887,69.251 196.5,72C 194.402,72.6776 192.402,72.5109 190.5,71.5C 187.183,70.8348 183.683,70.5014 180,70.5C 176.098,70.5123 172.598,71.179 169.5,72.5C 167.5,72.5 165.5,72.5 163.5,72.5C 161.223,63.0917 164.223,60.425 172.5,64.5 Z"/></g>
<g><path style="opacity:1" fill="#448de6" d="M 164.5,64.5 C 165.833,64.5 167.167,64.5 168.5,64.5C 168.5,66.8333 168.5,69.1667 168.5,71.5C 167.167,71.5 165.833,71.5 164.5,71.5C 164.5,69.1667 164.5,66.8333 164.5,64.5 Z"/></g>
<g><path style="opacity:1" fill="#479bec" d="M 191.5,64.5 C 192.693,64.9704 193.36,65.9704 193.5,67.5C 193.167,68.5 192.833,69.5 192.5,70.5C 191.534,68.604 191.201,66.604 191.5,64.5 Z"/></g>
<g><path style="opacity:1" fill="#a9c4ec" d="M 171.5,65.5 C 172.5,65.5 173.5,65.5 174.5,65.5C 174.5,66.8333 174.5,68.1667 174.5,69.5C 173.5,69.5 172.5,69.5 171.5,69.5C 171.5,68.1667 171.5,66.8333 171.5,65.5 Z"/></g>
<g><path style="opacity:1" fill="#a1bae9" d="M 175.5,65.5 C 177.5,65.5 179.5,65.5 181.5,65.5C 181.5,66.8333 181.5,68.1667 181.5,69.5C 179.5,69.5 177.5,69.5 175.5,69.5C 175.5,68.1667 175.5,66.8333 175.5,65.5 Z"/></g>
<g><path style="opacity:1" fill="#be8e1e" d="M 210.5,66.5 C 212.415,66.2155 214.081,66.5489 215.5,67.5C 214.264,69.0428 212.598,70.0428 210.5,70.5C 209.374,69.1916 209.374,67.8583 210.5,66.5 Z"/></g>
<g><path style="opacity:1" fill="#ed3f19" d="M 139.5,68.5 C 139.785,70.288 139.452,71.9547 138.5,73.5C 137.081,72.9953 136.415,71.9953 136.5,70.5C 136.821,68.9519 137.821,68.2852 139.5,68.5 Z"/></g>
<g><path style="opacity:1" fill="#c58d1f" d="M 148.5,66.5 C 149.412,67.7382 149.579,69.0715 149,70.5C 146.791,70.0108 144.958,69.0108 143.5,67.5C 144.919,66.5489 146.585,66.2155 148.5,66.5 Z"/></g>
<g><path style="opacity:1" fill="#ee4018" d="M 219.5,68.5 C 221.179,68.2852 222.179,68.9519 222.5,70.5C 222.5,71.1667 222.5,71.8333 222.5,72.5C 221.5,73.8333 220.5,73.8333 219.5,72.5C 219.5,71.1667 219.5,69.8333 219.5,68.5 Z"/></g>
<g><path style="opacity:1" fill="#eed21f" d="M 139.5,68.5 C 137.821,68.2852 136.821,68.9519 136.5,70.5C 134.795,72.1921 132.795,73.5254 130.5,74.5C 130.5,73.1667 129.833,72.5 128.5,72.5C 131.281,68.3532 134.947,67.0199 139.5,68.5 Z"/></g>
<g><path style="opacity:1" fill="#8ae0fb" d="M 190.5,71.5 C 183.687,72.4912 176.687,72.8245 169.5,72.5C 172.598,71.179 176.098,70.5123 180,70.5C 183.683,70.5014 187.183,70.8348 190.5,71.5 Z"/></g>
<g><path style="opacity:1" fill="#f1dc19" d="M 219.5,68.5 C 224.053,67.0199 227.719,68.3532 230.5,72.5C 229.167,72.5 228.5,73.1667 228.5,74.5C 226.468,73.9522 225.468,72.6188 225.5,70.5C 224.5,70.5 223.5,70.5 222.5,70.5C 222.179,68.9519 221.179,68.2852 219.5,68.5 Z"/></g>
<g><path style="opacity:1" fill="#ef4518" d="M 128.5,72.5 C 129.833,72.5 130.5,73.1667 130.5,74.5C 128.544,76.1751 127.211,75.8418 126.5,73.5C 127.167,73.1667 127.833,72.8333 128.5,72.5 Z"/></g>
<g><path style="opacity:1" fill="#ee501a" d="M 230.5,72.5 C 231.167,72.8333 231.833,73.1667 232.5,73.5C 231.789,75.8418 230.456,76.1751 228.5,74.5C 228.5,73.1667 229.167,72.5 230.5,72.5 Z"/></g>
<g><path style="opacity:1" fill="#329044" d="M 210.5,66.5 C 209.374,67.8583 209.374,69.1916 210.5,70.5C 212.598,70.0428 214.264,69.0428 215.5,67.5C 216.959,67.4326 218.292,67.7659 219.5,68.5C 219.5,69.8333 219.5,71.1667 219.5,72.5C 220.474,75.6537 222.474,76.6537 225.5,75.5C 224.007,74.8589 223.007,73.8589 222.5,72.5C 222.5,71.8333 222.5,71.1667 222.5,70.5C 223.5,70.5 224.5,70.5 225.5,70.5C 225.468,72.6188 226.468,73.9522 228.5,74.5C 230.456,76.1751 231.789,75.8418 232.5,73.5C 234.697,75.4251 237.031,77.0918 239.5,78.5C 239.494,81.8254 240.994,84.1587 244,85.5C 245.674,90.0826 246.841,94.7493 247.5,99.5C 247.43,102.825 246.096,103.825 243.5,102.5C 243.5,102.167 243.5,101.833 243.5,101.5C 244.118,99.5766 243.785,97.5766 242.5,95.5C 243.5,94.8333 244.5,94.1667 245.5,93.5C 242.522,92.6475 239.522,91.9808 236.5,91.5C 235.365,89.7868 233.698,89.1201 231.5,89.5C 230.596,88.791 230.263,87.791 230.5,86.5C 225.908,87.5967 223.574,85.5967 223.5,80.5C 220.234,80.5674 218.734,78.9008 219,75.5C 218.612,76.428 217.945,77.0946 217,77.5C 215.343,76.5159 213.677,75.5159 212,74.5C 211.833,74.8333 211.667,75.1667 211.5,75.5C 213.742,77.5388 216.242,79.2054 219,80.5C 220.879,82.5268 222.046,84.8602 222.5,87.5C 220.188,85.8545 218.188,83.8545 216.5,81.5C 215.583,82.1272 214.583,82.4606 213.5,82.5C 211.091,81.2993 209.091,79.6326 207.5,77.5C 207.923,75.2188 207.256,73.5521 205.5,72.5C 205.712,69.2876 207.379,67.2876 210.5,66.5 Z"/></g>
<g><path style="opacity:1" fill="#daea15" d="M 219.5,72.5 C 220.5,73.8333 221.5,73.8333 222.5,72.5C 223.007,73.8589 224.007,74.8589 225.5,75.5C 222.474,76.6537 220.474,75.6537 219.5,72.5 Z"/></g>
<g><path style="opacity:1" fill="#f2f4a7" d="M 119.5,78.5 C 119.441,81.7313 117.941,84.0646 115,85.5C 113.326,90.0826 112.159,94.7493 111.5,99.5C 110.353,95.3537 110.186,91.0204 111,86.5C 112.682,82.5815 115.515,79.9148 119.5,78.5 Z"/></g>
<g><path style="opacity:1" fill="#d7e1e0" d="M 152.5,77.5 C 153.833,79.1667 153.833,80.8333 152.5,82.5C 150.473,82.6621 148.473,82.4955 146.5,82C 148.66,80.668 150.66,79.168 152.5,77.5 Z"/></g>
<g><path style="opacity:1" fill="#edf2a2" d="M 239.5,78.5 C 242.702,80.2179 245.536,82.5513 248,85.5C 248.815,90.3522 248.648,95.0189 247.5,99.5C 246.841,94.7493 245.674,90.0826 244,85.5C 240.994,84.1587 239.494,81.8254 239.5,78.5 Z"/></g>
<g><path style="opacity:1" fill="#cbd8d0" d="M 207.5,77.5 C 209.091,79.6326 211.091,81.2993 213.5,82.5C 211.5,82.5 209.5,82.5 207.5,82.5C 207.5,80.8333 207.5,79.1667 207.5,77.5 Z"/></g>
<g><path style="opacity:1" fill="#3b8de4" d="M 189.5,61.5 C 192.167,61.5 194.833,61.5 197.5,61.5C 197.5,65.1667 197.5,68.8333 197.5,72.5C 200.167,72.5 202.833,72.5 205.5,72.5C 207.256,73.5521 207.923,75.2188 207.5,77.5C 207.5,79.1667 207.5,80.8333 207.5,82.5C 198.167,82.5 188.833,82.5 179.5,82.5C 170.5,82.5 161.5,82.5 152.5,82.5C 153.833,80.8333 153.833,79.1667 152.5,77.5C 153.451,76.0813 153.784,74.4147 153.5,72.5C 156.5,72.5 159.5,72.5 162.5,72.5C 159.613,72.9334 157.113,74.2667 155,76.5C 154.251,77.635 154.417,78.635 155.5,79.5C 156.386,78.675 156.719,77.675 156.5,76.5C 157.5,76.5 158.5,76.5 159.5,76.5C 159.942,81.6945 160.942,81.6945 162.5,76.5C 163.833,81.8333 165.167,81.8333 166.5,76.5C 167.852,77.5175 168.852,78.8508 169.5,80.5C 170.736,78.9665 171.236,77.2998 171,75.5C 170.667,75.8333 170.333,76.1667 170,76.5C 168.174,74.9262 166.007,74.0929 163.5,74C 165.708,73.8091 167.708,73.3091 169.5,72.5C 176.687,72.8245 183.687,72.4912 190.5,71.5C 192.402,72.5109 194.402,72.6776 196.5,72C 193.887,69.251 193.887,66.4177 196.5,63.5C 194.78,63.2537 192.78,63.2537 190.5,63.5C 190.167,65.5 189.833,67.5 189.5,69.5C 187.167,69.5 184.833,69.5 182.5,69.5C 182.5,68.1667 182.5,66.8333 182.5,65.5C 184.857,65.6633 187.19,65.4966 189.5,65C 183.843,64.5006 178.176,64.3339 172.5,64.5C 178.406,64.1457 184.073,63.1457 189.5,61.5 Z"/></g>
<g><path style="opacity:1" fill="#1f68d9" d="M 195.5,74.5 C 198.167,74.5 200.833,74.5 203.5,74.5C 203.34,76.1992 203.506,77.8659 204,79.5C 204.718,78.5494 205.551,78.3828 206.5,79C 205.095,80.2692 203.429,80.7692 201.5,80.5C 201.543,76.1074 201.043,75.7741 200,79.5C 199.517,78.552 199.351,77.552 199.5,76.5C 195.473,76.2808 194.806,77.4475 197.5,80C 196.004,80.5074 194.837,80.0074 194,78.5C 193,79.8333 192,79.8333 191,78.5C 190.667,79.1667 190.333,79.8333 190,80.5C 189.202,78.7412 189.369,77.0745 190.5,75.5C 191.716,76.0016 192.883,76.3349 194,76.5C 194.717,75.9558 195.217,75.2891 195.5,74.5 Z"/></g>
<g><path style="opacity:1" fill="#2774dd" d="M 162.5,72.5 C 162.833,72.5 163.167,72.5 163.5,72.5C 165.5,72.5 167.5,72.5 169.5,72.5C 167.708,73.3091 165.708,73.8091 163.5,74C 166.007,74.0929 168.174,74.9262 170,76.5C 170.333,76.1667 170.667,75.8333 171,75.5C 171.236,77.2998 170.736,78.9665 169.5,80.5C 168.852,78.8508 167.852,77.5175 166.5,76.5C 165.167,81.8333 163.833,81.8333 162.5,76.5C 160.942,81.6945 159.942,81.6945 159.5,76.5C 158.5,76.5 157.5,76.5 156.5,76.5C 156.719,77.675 156.386,78.675 155.5,79.5C 154.417,78.635 154.251,77.635 155,76.5C 157.113,74.2667 159.613,72.9334 162.5,72.5 Z"/></g>
<g><path style="opacity:1" fill="#f9f7f7" d="M 145.5,84.5 C 145.5,84.8333 145.5,85.1667 145.5,85.5C 146.32,87.1401 147.153,88.8068 148,90.5C 148.169,106.339 148.669,122.005 149.5,137.5C 149.5,137.833 149.5,138.167 149.5,138.5C 143.264,136.426 139.764,132.093 139,125.5C 138.565,112.788 137.731,100.122 136.5,87.5C 138.836,85.9962 140.669,83.9962 142,81.5C 143.039,82.7101 144.206,83.7101 145.5,84.5 Z"/></g>
<g><path style="opacity:1" fill="#f9f7f7" d="M 222.5,87.5 C 221.475,100.471 220.641,113.471 220,126.5C 219.219,131.778 216.385,135.445 211.5,137.5C 210.504,121.342 210.17,105.009 210.5,88.5C 211.529,86.4832 212.529,84.4832 213.5,82.5C 214.583,82.4606 215.583,82.1272 216.5,81.5C 218.188,83.8545 220.188,85.8545 222.5,87.5 Z"/></g>
<g><path style="opacity:1" fill="#338e44" d="M 148.5,66.5 C 151.621,67.2876 153.288,69.2876 153.5,72.5C 153.784,74.4147 153.451,76.0813 152.5,77.5C 150.66,79.168 148.66,80.668 146.5,82C 148.473,82.4955 150.473,82.6621 152.5,82.5C 161.5,82.5 170.5,82.5 179.5,82.5C 179.5,82.8333 179.5,83.1667 179.5,83.5C 179.167,83.5 178.833,83.5 178.5,83.5C 167.321,83.1721 156.321,83.5054 145.5,84.5C 144.206,83.7101 143.039,82.7101 142,81.5C 140.669,83.9962 138.836,85.9962 136.5,87.5C 136.954,84.8602 138.121,82.5268 140,80.5C 144.26,78.6221 148.094,76.1221 151.5,73C 150.833,72.8333 150.167,72.6667 149.5,72.5C 147.469,74.5224 145.135,76.1891 142.5,77.5C 141.833,76.5 141.167,75.5 140.5,74.5C 139.702,76.0777 139.202,77.7444 139,79.5C 137.933,80.1905 136.766,80.6905 135.5,81C 136.451,81.7175 136.617,82.5509 136,83.5C 134.667,84.8333 133.333,86.1667 132,87.5C 130.989,86.6634 129.822,86.33 128.5,86.5C 128.5,87.5 128.5,88.5 128.5,89.5C 125.654,89.0301 123.321,89.8634 121.5,92C 122.756,92.4169 123.423,93.2502 123.5,94.5C 122.7,99.4354 121.367,104.435 119.5,109.5C 119.249,106.091 119.583,102.758 120.5,99.5C 117.827,96.8074 116.16,97.4741 115.5,101.5C 115.672,102.492 115.338,103.158 114.5,103.5C 112.799,102.789 111.799,101.455 111.5,99.5C 112.159,94.7493 113.326,90.0826 115,85.5C 117.941,84.0646 119.441,81.7313 119.5,78.5C 121.969,77.0918 124.303,75.4251 126.5,73.5C 127.211,75.8418 128.544,76.1751 130.5,74.5C 132.795,73.5254 134.795,72.1921 136.5,70.5C 136.415,71.9953 137.081,72.9953 138.5,73.5C 139.452,71.9547 139.785,70.288 139.5,68.5C 140.708,67.7659 142.041,67.4326 143.5,67.5C 144.958,69.0108 146.791,70.0108 149,70.5C 149.579,69.0715 149.412,67.7382 148.5,66.5 Z"/></g>
<g><path style="opacity:1" fill="#068b44" d="M 178.5,83.5 C 178.5,93.8333 178.5,104.167 178.5,114.5C 168.833,114.5 159.167,114.5 149.5,114.5C 149.666,106.16 149.5,97.8267 149,89.5C 148.502,87.4556 147.335,86.1223 145.5,85.5C 145.5,85.1667 145.5,84.8333 145.5,84.5C 156.321,83.5054 167.321,83.1721 178.5,83.5 Z"/></g>
<g><path style="opacity:1" fill="#f6f608" d="M 179.5,82.5 C 188.833,82.5 198.167,82.5 207.5,82.5C 209.5,82.5 211.5,82.5 213.5,82.5C 212.529,84.4832 211.529,86.4832 210.5,88.5C 209.507,96.9839 209.174,105.651 209.5,114.5C 199.5,114.5 189.5,114.5 179.5,114.5C 179.5,104.167 179.5,93.8333 179.5,83.5C 179.5,83.1667 179.5,82.8333 179.5,82.5 Z"/></g>
<g><path style="opacity:1" fill="#f1d210" d="M 118.5,85.5 C 119.995,85.4148 120.995,86.0815 121.5,87.5C 119.821,88.782 117.987,89.782 116,90.5C 116.74,88.9492 117.573,87.2825 118.5,85.5 Z"/></g>
<g><path style="opacity:1" fill="#ebd312" d="M 238.5,85.5 C 239.496,85.4142 240.329,85.7476 241,86.5C 242.271,87.7046 242.937,89.0379 243,90.5C 241.013,89.782 239.179,88.782 237.5,87.5C 237.863,86.8165 238.196,86.1499 238.5,85.5 Z"/></g>
<g><path style="opacity:1" fill="#86534d" d="M 136.5,87.5 C 137.731,100.122 138.565,112.788 139,125.5C 139.764,132.093 143.264,136.426 149.5,138.5C 150.167,138.5 150.5,138.833 150.5,139.5C 144.491,139.334 138.491,139.501 132.5,140C 129.023,141.658 125.357,142.825 121.5,143.5C 124.431,141.752 127.264,139.752 130,137.5C 130.725,135.051 131.725,132.717 133,130.5C 133.23,117.167 133.064,103.834 132.5,90.5C 131.749,89.4265 130.749,89.2599 129.5,90C 127.34,91.332 125.34,92.832 123.5,94.5C 123.423,93.2502 122.756,92.4169 121.5,92C 123.321,89.8634 125.654,89.0301 128.5,89.5C 128.5,88.5 128.5,87.5 128.5,86.5C 129.822,86.33 130.989,86.6634 132,87.5C 133.333,86.1667 134.667,84.8333 136,83.5C 136.617,82.5509 136.451,81.7175 135.5,81C 136.766,80.6905 137.933,80.1905 139,79.5C 139.202,77.7444 139.702,76.0777 140.5,74.5C 141.167,75.5 141.833,76.5 142.5,77.5C 145.135,76.1891 147.469,74.5224 149.5,72.5C 150.167,72.6667 150.833,72.8333 151.5,73C 148.094,76.1221 144.26,78.6221 140,80.5C 138.121,82.5268 136.954,84.8602 136.5,87.5 Z"/></g>
<g><path style="opacity:1" fill="#846b5e" d="M 168.5,94.5 C 167.833,94.5 167.167,94.5 166.5,94.5C 167.156,91.185 168.823,88.5183 171.5,86.5C 172.583,87.365 172.749,88.365 172,89.5C 170.331,90.8463 169.164,92.513 168.5,94.5 Z"/></g>
<g><path style="opacity:1" fill="#626b4c" d="M 236.5,91.5 C 239.522,91.9808 242.522,92.6475 245.5,93.5C 244.5,94.1667 243.5,94.8333 242.5,95.5C 243.785,97.5766 244.118,99.5766 243.5,101.5C 242.833,100.5 242.167,99.5 241.5,98.5C 241.737,97.209 241.404,96.209 240.5,95.5C 239.167,94.1667 237.833,92.8333 236.5,91.5 Z"/></g>
<g><path style="opacity:1" fill="#79926e" d="M 145.5,85.5 C 147.335,86.1223 148.502,87.4556 149,89.5C 149.5,97.8267 149.666,106.16 149.5,114.5C 149.5,122.167 149.5,129.833 149.5,137.5C 148.669,122.005 148.169,106.339 148,90.5C 147.153,88.8068 146.32,87.1401 145.5,85.5 Z"/></g>
<g><path style="opacity:1" fill="#092363" d="M 166.5,94.5 C 167.167,94.5 167.833,94.5 168.5,94.5C 170.311,94.572 171.644,95.4053 172.5,97C 171.445,98.5072 170.445,100.007 169.5,101.5C 168.549,100.081 168.216,98.4147 168.5,96.5C 167.5,96.5 166.5,96.5 165.5,96.5C 165.5,98.1667 165.5,99.8333 165.5,101.5C 163.379,101.325 161.379,101.659 159.5,102.5C 157.692,102.509 156.025,102.009 154.5,101C 157.511,96.9949 161.511,94.8282 166.5,94.5 Z"/></g>
<g><path style="opacity:1" fill="#2d191f" d="M 197.5,95.5 C 200.89,95.5113 203.556,96.8446 205.5,99.5C 205.376,100.107 205.043,100.44 204.5,100.5C 202.231,98.6163 199.564,97.283 196.5,96.5C 196.624,95.8933 196.957,95.56 197.5,95.5 Z"/></g>
<g><path style="opacity:1" fill="#87524c" d="M 231.5,89.5 C 231.158,90.3382 230.492,90.6716 229.5,90.5C 228.5,89.1667 227.5,89.1667 226.5,90.5C 225.879,103.832 225.712,117.165 226,130.5C 227.275,132.717 228.275,135.051 229,137.5C 231.688,139.364 234.188,141.364 236.5,143.5C 232.643,142.825 228.977,141.658 225.5,140C 219.843,139.501 214.176,139.334 208.5,139.5C 208.5,138.833 208.833,138.5 209.5,138.5C 210.492,138.672 211.158,138.338 211.5,137.5C 216.385,135.445 219.219,131.778 220,126.5C 220.641,113.471 221.475,100.471 222.5,87.5C 222.046,84.8602 220.879,82.5268 219,80.5C 216.242,79.2054 213.742,77.5388 211.5,75.5C 211.667,75.1667 211.833,74.8333 212,74.5C 213.677,75.5159 215.343,76.5159 217,77.5C 217.945,77.0946 218.612,76.428 219,75.5C 218.734,78.9008 220.234,80.5674 223.5,80.5C 223.574,85.5967 225.908,87.5967 230.5,86.5C 230.263,87.791 230.596,88.791 231.5,89.5 Z"/></g>
<g><path style="opacity:1" fill="#5e6245" d="M 231.5,89.5 C 233.698,89.1201 235.365,89.7868 236.5,91.5C 235.761,91.369 235.094,91.5357 234.5,92C 237.302,94.3734 237.969,97.2068 236.5,100.5C 237.813,103.405 238.313,106.405 238,109.5C 235.928,104.796 234.928,99.7956 235,94.5C 233.539,92.5318 231.705,91.1984 229.5,90.5C 230.492,90.6716 231.158,90.3382 231.5,89.5 Z"/></g>
<g><path style="opacity:1" fill="#e0dbdb" d="M 197.5,95.5 C 196.957,95.56 196.624,95.8933 196.5,96.5C 199.564,97.283 202.231,98.6163 204.5,100.5C 201.833,101.833 199.167,103.167 196.5,104.5C 190.271,106.551 185.937,104.551 183.5,98.5C 184.574,96.7845 186.241,95.7845 188.5,95.5C 189.5,94.1667 190.5,92.8333 191.5,91.5C 191.289,93.0437 191.289,94.7103 191.5,96.5C 193.453,95.9756 195.12,94.9756 196.5,93.5C 197.298,93.9569 197.631,94.6236 197.5,95.5 Z"/></g>
<g><path style="opacity:1" fill="#aecca0" d="M 240.5,95.5 C 241.404,96.209 241.737,97.209 241.5,98.5C 240.761,98.369 240.094,98.5357 239.5,99C 241.646,101.357 241.979,103.857 240.5,106.5C 240.778,103.71 240.111,101.21 238.5,99C 238.808,97.5405 239.475,96.3739 240.5,95.5 Z"/></g>
<g><path style="opacity:1" fill="#ee3128" d="M 116.5,109.5 C 115.833,109.5 115.5,109.167 115.5,108.5C 114.962,106.883 114.629,105.216 114.5,103.5C 115.338,103.158 115.672,102.492 115.5,101.5C 116.648,100.105 117.648,100.272 118.5,102C 117.233,103.796 117.233,105.629 118.5,107.5C 118.145,108.522 117.478,109.189 116.5,109.5 Z"/></g>
<g><path style="opacity:1" fill="#f04c38" d="M 241.5,98.5 C 242.167,99.5 242.833,100.5 243.5,101.5C 243.5,101.833 243.5,102.167 243.5,102.5C 244.301,104.042 244.634,105.708 244.5,107.5C 242.577,110.218 241.244,109.884 240.5,106.5C 241.979,103.857 241.646,101.357 239.5,99C 240.094,98.5357 240.761,98.369 241.5,98.5 Z"/></g>
<g><path style="opacity:1" fill="#aebf95" d="M 119.5,109.5 C 118.5,109.833 117.833,110.5 117.5,111.5C 115.323,112.504 114.989,111.838 116.5,109.5C 117.478,109.189 118.145,108.522 118.5,107.5C 117.233,105.629 117.233,103.796 118.5,102C 117.648,100.272 116.648,100.105 115.5,101.5C 116.16,97.4741 117.827,96.8074 120.5,99.5C 119.583,102.758 119.249,106.091 119.5,109.5 Z"/></g>
<g><path style="opacity:1" fill="#6d5f63" d="M 169.5,101.5 C 167.283,103.08 164.616,104.08 161.5,104.5C 160.7,107.133 159.2,109.133 157,110.5C 156.5,110.167 156,109.833 155.5,109.5C 156.889,107.132 158.222,104.799 159.5,102.5C 161.379,101.659 163.379,101.325 165.5,101.5C 165.5,99.8333 165.5,98.1667 165.5,96.5C 166.5,96.5 167.5,96.5 168.5,96.5C 168.216,98.4147 168.549,100.081 169.5,101.5 Z"/></g>
<g><path style="opacity:1" fill="#382426" d="M 183.5,98.5 C 185.937,104.551 190.271,106.551 196.5,104.5C 195.027,107.247 192.694,108.081 189.5,107C 184.599,105.68 182.599,102.847 183.5,98.5 Z"/></g>
<g><path style="opacity:1" fill="#6c6e41" d="M 123.5,94.5 C 123.665,98.1817 123.499,101.848 123,105.5C 122.378,107.731 121.211,109.565 119.5,111C 121.616,112.171 122.282,113.671 121.5,115.5C 120.667,114.5 119.833,113.5 119,112.5C 116.602,116.402 116.102,116.068 117.5,111.5C 117.833,110.5 118.5,109.833 119.5,109.5C 121.367,104.435 122.7,99.4354 123.5,94.5 Z"/></g>
<g><path style="opacity:1" fill="#f6f50f" d="M 149.5,114.5 C 159.167,114.5 168.833,114.5 178.5,114.5C 178.829,127.011 178.495,139.345 177.5,151.5C 169.597,145.193 160.597,141.193 150.5,139.5C 150.5,138.833 150.167,138.5 149.5,138.5C 149.5,138.167 149.5,137.833 149.5,137.5C 149.5,129.833 149.5,122.167 149.5,114.5 Z"/></g>
<g><path style="opacity:1" fill="#66a92a" d="M 178.5,83.5 C 178.833,83.5 179.167,83.5 179.5,83.5C 179.5,93.8333 179.5,104.167 179.5,114.5C 179.5,126.833 179.5,139.167 179.5,151.5C 178.833,152.833 178.167,152.833 177.5,151.5C 178.495,139.345 178.829,127.011 178.5,114.5C 178.5,104.167 178.5,93.8333 178.5,83.5 Z"/></g>
<g><path style="opacity:1" fill="#098b45" d="M 179.5,114.5 C 189.5,114.5 199.5,114.5 209.5,114.5C 209.5,122.5 209.5,130.5 209.5,138.5C 208.833,138.5 208.5,138.833 208.5,139.5C 197.775,141.032 188.109,145.032 179.5,151.5C 179.5,139.167 179.5,126.833 179.5,114.5 Z"/></g>
<g><path style="opacity:1" fill="#359346" d="M 132.5,90.5 C 130.947,92.385 128.947,93.385 126.5,93.5C 125.839,96.4877 125.172,99.4877 124.5,102.5C 125.599,106.096 126.933,109.596 128.5,113C 127.263,116.778 125.429,120.278 123,123.5C 123.223,128.361 121.723,132.527 118.5,136C 114.326,135.989 112.326,133.823 112.5,129.5C 112.511,127.955 112.844,126.622 113.5,125.5C 113.312,127.103 113.812,128.437 115,129.5C 116.582,125.63 119.082,122.63 122.5,120.5C 122.167,119.5 121.5,118.833 120.5,118.5C 119.575,119.641 118.741,119.641 118,118.5C 116.641,119.365 115.474,120.365 114.5,121.5C 115.395,117.158 115.062,112.824 113.5,108.5C 113.97,107.537 114.637,107.537 115.5,108.5C 115.5,109.167 115.833,109.5 116.5,109.5C 114.989,111.838 115.323,112.504 117.5,111.5C 116.102,116.068 116.602,116.402 119,112.5C 119.833,113.5 120.667,114.5 121.5,115.5C 122.282,113.671 121.616,112.171 119.5,111C 121.211,109.565 122.378,107.731 123,105.5C 123.499,101.848 123.665,98.1817 123.5,94.5C 125.34,92.832 127.34,91.332 129.5,90C 130.749,89.2599 131.749,89.4265 132.5,90.5 Z"/></g>
<g><path style="opacity:1" fill="#d88f1b" d="M 124.5,109.5 C 126.832,110.162 127.499,111.495 126.5,113.5C 124.889,112.68 124.222,111.346 124.5,109.5 Z"/></g>
<g><path style="opacity:1" fill="#349149" d="M 226.5,90.5 C 227.5,89.1667 228.5,89.1667 229.5,90.5C 231.705,91.1984 233.539,92.5318 235,94.5C 234.928,99.7956 235.928,104.796 238,109.5C 238.313,106.405 237.813,103.405 236.5,100.5C 237.969,97.2068 237.302,94.3734 234.5,92C 235.094,91.5357 235.761,91.369 236.5,91.5C 237.833,92.8333 239.167,94.1667 240.5,95.5C 239.475,96.3739 238.808,97.5405 238.5,99C 240.111,101.21 240.778,103.71 240.5,106.5C 241.244,109.884 242.577,110.218 244.5,107.5C 244.585,112.082 244.585,116.748 244.5,121.5C 242.079,118.218 239.412,117.885 236.5,120.5C 239.918,122.63 242.418,125.63 244,129.5C 245.188,128.437 245.688,127.103 245.5,125.5C 247.619,130.196 246.453,133.863 242,136.5C 239.676,135.096 238.176,133.096 237.5,130.5C 236.686,128.369 236.186,126.036 236,123.5C 233.42,120.213 231.587,116.546 230.5,112.5C 230.453,110.962 231.12,109.962 232.5,109.5C 236.477,101.103 234.477,94.7697 226.5,90.5 Z"/></g>
<g><path style="opacity:1" fill="#cd841d" d="M 232.5,109.5 C 233.767,108.913 234.767,108.913 235.5,109.5C 232.913,114.689 231.913,114.689 232.5,109.5 Z"/></g>
<g><path style="opacity:1" fill="#e7ad17" d="M 244.5,121.5 C 244.433,122.959 244.766,124.292 245.5,125.5C 245.688,127.103 245.188,128.437 244,129.5C 242.418,125.63 239.918,122.63 236.5,120.5C 239.412,117.885 242.079,118.218 244.5,121.5 Z"/></g>
<g><path style="opacity:1" fill="#eca116" d="M 113.5,125.5 C 114.234,124.292 114.567,122.959 114.5,121.5C 115.474,120.365 116.641,119.365 118,118.5C 118.741,119.641 119.575,119.641 120.5,118.5C 121.5,118.833 122.167,119.5 122.5,120.5C 119.082,122.63 116.582,125.63 115,129.5C 113.812,128.437 113.312,127.103 113.5,125.5 Z"/></g>
<g><path style="opacity:1" fill="#34212a" d="M 173.5,128.5 C 171.473,128.662 169.473,128.495 167.5,128C 164.929,126.546 162.262,125.38 159.5,124.5C 159.791,123.351 160.624,122.684 162,122.5C 166.79,123.484 171.29,125.151 175.5,127.5C 175.043,128.298 174.376,128.631 173.5,128.5 Z"/></g>
<g><path style="opacity:1" fill="#b7b5af" d="M 210.5,88.5 C 210.17,105.009 210.504,121.342 211.5,137.5C 211.158,138.338 210.492,138.672 209.5,138.5C 209.5,130.5 209.5,122.5 209.5,114.5C 209.174,105.651 209.507,96.9839 210.5,88.5 Z"/></g>
<g><path style="opacity:1" fill="#d9d4d8" d="M 193.5,117.5 C 196.232,119.035 198.898,120.869 201.5,123C 201,123.5 200.5,124 200,124.5C 199.803,129.086 199.303,133.586 198.5,138C 195.571,138.777 192.737,138.61 190,137.5C 189.805,132.582 189.305,127.749 188.5,123C 190.766,121.574 192.432,119.74 193.5,117.5 Z"/></g>
<g><path style="opacity:1" fill="#e3dddb" d="M 159.5,124.5 C 162.262,125.38 164.929,126.546 167.5,128C 169.473,128.495 171.473,128.662 173.5,128.5C 172.5,129.167 171.5,129.833 170.5,130.5C 169.833,130.5 169.167,130.5 168.5,130.5C 164.464,130.647 161.131,129.147 158.5,126C 159.056,125.617 159.389,125.117 159.5,124.5 Z"/></g>
<g><path style="opacity:1" fill="#cb8d1b" d="M 237.5,130.5 C 237.511,128.314 238.511,127.481 240.5,128C 239.922,129.417 238.922,130.25 237.5,130.5 Z"/></g>
<g><path style="opacity:1" fill="#e88217" d="M 116.5,131.5 C 118.646,131.696 118.812,132.696 117,134.5C 116.517,133.552 116.351,132.552 116.5,131.5 Z"/></g>
<g><path style="opacity:1" fill="#d37d21" d="M 240.5,130.5 C 242.344,131.204 242.844,132.537 242,134.5C 241.209,133.255 240.709,131.922 240.5,130.5 Z"/></g>
<g><path style="opacity:1" fill="#493435" d="M 168.5,130.5 C 169.167,130.5 169.833,130.5 170.5,130.5C 173.247,131.973 174.081,134.306 173,137.5C 169.182,140.498 167.016,139.498 166.5,134.5C 166.803,132.886 167.47,131.552 168.5,130.5 Z"/></g>
<g><path style="opacity:1" fill="#3b6193" d="M 149.5,149.5 C 144.167,149.5 138.833,149.5 133.5,149.5C 134.428,153.965 133.094,157.298 129.5,159.5C 128.726,160.147 127.726,160.48 126.5,160.5C 125.248,158.648 123.248,157.314 120.5,156.5C 121.981,155.52 123.315,154.353 124.5,153C 124.272,152.601 123.938,152.435 123.5,152.5C 125.734,150.554 128.401,149.387 131.5,149C 137.681,148.181 143.681,148.347 149.5,149.5 Z"/></g>
<g><path style="opacity:1" fill="#4999e5" d="M 150.5,139.5 C 160.597,141.193 169.597,145.193 177.5,151.5C 178.167,152.833 178.833,152.833 179.5,151.5C 188.109,145.032 197.775,141.032 208.5,139.5C 214.176,139.334 219.843,139.501 225.5,140C 228.977,141.658 232.643,142.825 236.5,143.5C 241.536,144.88 242.536,147.546 239.5,151.5C 237.958,152.301 236.292,152.634 234.5,152.5C 233.4,151.442 232.066,150.608 230.5,150C 232.657,149.922 234.657,149.755 236.5,149.5C 235.827,145.965 234.327,145.632 232,148.5C 230.221,146.983 230.721,146.149 233.5,146C 232.747,144.513 231.914,144.346 231,145.5C 229.333,144.833 227.667,144.167 226,143.5C 224.846,145.957 223.512,145.957 222,143.5C 221.655,145.201 222.322,146.534 224,147.5C 224.893,146.289 225.726,146.289 226.5,147.5C 225.051,148.172 223.718,148.839 222.5,149.5C 208.874,148.698 196.374,152.031 185,159.5C 182.702,158.039 180.535,156.372 178.5,154.5C 176.836,158.036 174.169,159.536 170.5,159C 163.81,154.946 156.81,151.779 149.5,149.5C 143.681,148.347 137.681,148.181 131.5,149C 128.401,149.387 125.734,150.554 123.5,152.5C 121.932,153.473 120.265,153.64 118.5,153C 113.861,148.104 114.861,144.938 121.5,143.5C 125.357,142.825 129.023,141.658 132.5,140C 138.491,139.501 144.491,139.334 150.5,139.5 Z"/></g>
<g><path style="opacity:1" fill="#3485e4" d="M 210.5,141.5 C 212.451,141.227 213.951,141.893 215,143.5C 216.011,142.663 217.178,142.33 218.5,142.5C 218.5,143.833 218.5,145.167 218.5,146.5C 216.876,146.64 215.71,145.973 215,144.5C 213.675,146.338 211.841,147.338 209.5,147.5C 207.871,146.577 206.371,146.243 205,146.5C 198.359,148.855 191.692,151.855 185,155.5C 184.819,153.326 185.652,151.493 187.5,150C 194.699,147.038 202.365,144.205 210.5,141.5 Z"/></g>
<g><path style="opacity:1" fill="#297ae0" d="M 134.5,142.5 C 137.356,142.928 140.356,143.095 143.5,143C 139.639,143.569 139.639,144.402 143.5,145.5C 143,145.833 142.5,146.167 142,146.5C 139.014,146.141 136.014,145.808 133,145.5C 131.27,146.74 129.437,147.74 127.5,148.5C 123.447,146.397 123.613,144.731 128,143.5C 128.333,144.167 128.667,144.833 129,145.5C 130.312,143.342 131.978,143.009 134,144.5C 134.464,143.906 134.631,143.239 134.5,142.5 Z"/></g>
<g><path style="opacity:1" fill="#3378c6" d="M 234.5,152.5 C 233.694,153.868 232.694,155.201 231.5,156.5C 232.523,158.895 231.523,159.895 228.5,159.5C 227.504,159.586 226.671,159.252 226,158.5C 225.465,155.031 224.298,152.031 222.5,149.5C 223.718,148.839 225.051,148.172 226.5,147.5C 225.726,146.289 224.893,146.289 224,147.5C 222.322,146.534 221.655,145.201 222,143.5C 223.512,145.957 224.846,145.957 226,143.5C 227.667,144.167 229.333,144.833 231,145.5C 231.914,144.346 232.747,144.513 233.5,146C 230.721,146.149 230.221,146.983 232,148.5C 234.327,145.632 235.827,145.965 236.5,149.5C 234.657,149.755 232.657,149.922 230.5,150C 232.066,150.608 233.4,151.442 234.5,152.5 Z"/></g>
<g><path style="opacity:1" fill="#378fe3" d="M 129.5,159.5 C 126.477,159.895 125.477,158.895 126.5,156.5C 125.975,155.808 125.308,155.308 124.5,155C 126.494,152.28 129.161,150.78 132.5,150.5C 132.66,152.199 132.494,153.866 132,155.5C 131.667,155.167 131.333,154.833 131,154.5C 130.648,156.247 130.148,157.914 129.5,159.5 Z"/></g>
<g><path style="opacity:1" fill="#5a6e96" d="M 239.5,151.5 C 239.586,152.496 239.252,153.329 238.5,154C 233.812,153.014 233.478,153.848 237.5,156.5C 236.271,157.281 234.938,157.781 233.5,158C 233.957,158.414 234.291,158.914 234.5,159.5C 232.364,160.793 230.364,160.793 228.5,159.5C 231.523,159.895 232.523,158.895 231.5,156.5C 232.694,155.201 233.694,153.868 234.5,152.5C 236.292,152.634 237.958,152.301 239.5,151.5 Z"/></g>
</svg>
