<svg xmlns="http://www.w3.org/2000/svg" viewBox="0 0 1041.8 698.8" xmlns:v="https://vecta.io/nano"><style><![CDATA[.K{stroke:#000}.L{fill:#fff}.M{stroke-miterlimit:10}.N{stroke-width:3}]]></style><path d="M0 0h1041.8v698.8H0z" class="L"/><path d="M233.3 587v1.5c-1.8.3-3.2 1-4.1 1.8-1.3 1.3-2.5 3.3-3.6 6l-18 45.9h-1.4l-19.3-46.5c-1-2.4-1.7-3.8-2.1-4.4-.6-.8-1.4-1.5-2.3-1.9s-2.2-.8-3.7-.9V587h21.1v1.5c-2.4.2-3.9.7-4.6 1.3s-1.1 1.4-1.1 2.3c0 1.3.6 3.4 1.7 6.2l13.1 31.6 12.2-31.2c1.2-3.1 1.8-5.2 1.8-6.4 0-.8-.4-1.5-1.1-2.2s-2-1.2-3.7-1.5c-.1 0-.3-.1-.6-.1V587h15.7zm25 52.4v1.5h-22.1v-1.5h1.8c2.1 0 3.7-.6 4.6-1.9.6-.8.9-2.9.9-6.1v-34.8c0-2.7-.2-4.5-.5-5.4-.3-.7-.8-1.2-1.6-1.7-1.1-.6-2.3-1-3.5-1h-1.8V587h22.1v1.5h-1.9c-2.1 0-3.6.6-4.6 1.9-.6.8-1 2.9-1 6.1v34.8c0 2.7.2 4.5.5 5.4.3.7.8 1.2 1.6 1.7 1.1.6 2.2 1 3.5 1h2zm46.6-13.4l1.3.3-4.4 14.6h-39.9v-1.5h1.9c2.2 0 3.7-.7 4.7-2.2.5-.8.8-2.8.8-5.9v-34.8c0-3.4-.4-5.5-1.1-6.3-1-1.2-2.5-1.7-4.4-1.7h-1.9V587h23.3v1.5c-2.7 0-4.7.2-5.8.8s-1.9 1.3-2.3 2.1-.6 2.9-.6 6.1v33.9c0 2.2.2 3.7.6 4.5.3.6.8 1 1.4 1.2.6.3 2.6.4 5.9.4h3.8c4 0 6.7-.3 8.3-.9s3.1-1.7 4.4-3.2c1.3-1.6 2.6-4.1 4-7.4zm47.5 0l1.3.3-4.4 14.6h-39.9v-1.5h1.9c2.2 0 3.7-.7 4.7-2.2.5-.8.8-2.8.8-5.9v-34.8c0-3.4-.4-5.5-1.1-6.3-1-1.2-2.5-1.7-4.4-1.7h-1.9V587h23.3v1.5c-2.7 0-4.7.2-5.8.8s-1.9 1.3-2.3 2.1-.6 2.9-.6 6.1v33.9c0 2.2.2 3.7.6 4.5.3.6.8 1 1.4 1.2.6.3 2.6.4 5.9.4h3.8c4 0 6.7-.3 8.3-.9s3.1-1.7 4.4-3.2c1.4-1.6 2.7-4.1 4-7.4zm19.2-36.1v21.3H383c2.9 0 4.9-.5 5.9-1.4 1.3-1.2 2.1-3.4 2.2-6.4h1.4v18.8h-1.4c-.4-2.6-.7-4.3-1.1-5-.5-.9-1.2-1.7-2.2-2.2s-2.6-.8-4.8-.8h-11.3V632c0 2.4.1 3.8.3 4.4.2.5.6.9 1.1 1.2s1.5.5 2.9.5h8.7c2.9 0 5-.2 6.4-.6 1.3-.4 2.6-1.3 3.8-2.5 1.6-1.6 3.2-4.1 4.8-7.4h1.5l-4.4 13.5H357v-1.5h1.8c1.2 0 2.4-.3 3.5-.9a3.51 3.51 0 0 0 1.7-1.9c.3-.8.4-2.6.4-5.2v-35c0-3.4-.3-5.5-1-6.3-.9-1.1-2.4-1.6-4.6-1.6H357V587h39.7l.6 11.8h-1.5c-.5-2.8-1.1-4.8-1.8-5.8-.6-1.1-1.6-1.9-2.9-2.4-1-.4-2.8-.6-5.4-.6l-14.1-.1h0zm72.3 52.2v-1.5h1.9c2.2 0 3.7-.7 4.6-2.2.6-.9.8-2.8.8-5.9v-34.8c0-3.4-.4-5.5-1.1-6.3-1-1.2-2.5-1.7-4.4-1.7h-1.9v-1.5h21c7.7 0 13.6.9 17.6 2.7s7.2 4.9 9.7 9.1 3.7 9.2 3.7 14.8c0 7.5-2.2 13.8-6.5 18.8-4.9 5.6-12.3 8.4-22.4 8.4h-23v.1zm14.7-3.9c3.2.7 5.9 1.1 8.1 1.1 5.9 0 10.8-2.2 14.6-6.5 3.9-4.3 5.8-10.2 5.8-17.6s-1.9-13.3-5.8-17.6-8.9-6.4-14.9-6.4c-2.3 0-4.9.4-7.8 1.2v45.8h0zm56.4-47.1v21.3h11.3c2.9 0 4.9-.5 5.9-1.4 1.3-1.2 2.1-3.4 2.2-6.4h1.4v18.8h-1.4c-.4-2.6-.7-4.3-1.1-5-.5-.9-1.2-1.7-2.2-2.2s-2.6-.8-4.8-.8H515v17.8c0 2.4.1 3.8.3 4.4.2.5.6.9 1.1 1.2s1.5.5 2.9.5h8.7c2.9 0 5-.2 6.4-.6 1.3-.4 2.6-1.3 3.8-2.5 1.6-1.6 3.2-4.1 4.8-7.4h1.5l-4.4 13.5h-39.7v-1.5h1.8c1.2 0 2.4-.3 3.5-.9a3.51 3.51 0 0 0 1.7-1.9c.3-.8.4-2.6.4-5.2v-35c0-3.4-.3-5.5-1-6.3-.9-1.1-2.4-1.6-4.6-1.6h-1.8v-1.5h39.7l.6 11.8h-1.5c-.5-2.8-1.1-4.8-1.8-5.8-.6-1.1-1.6-1.9-2.9-2.4-1-.4-2.8-.6-5.4-.6H515v-.3zm70.4 51v-1.5h1.9c2.2 0 3.7-.7 4.6-2.2.6-.9.8-2.8.8-5.9v-34.8c0-3.4-.4-5.5-1.1-6.3-1-1.2-2.5-1.7-4.4-1.7h-1.9v-1.5h21c7.7 0 13.6.9 17.6 2.7s7.2 4.9 9.7 9.1 3.7 9.2 3.7 14.8c0 7.5-2.2 13.8-6.5 18.8-4.9 5.6-12.3 8.4-22.4 8.4h-23v.1zm14.8-3.9c3.2.7 5.9 1.1 8.1 1.1 5.9 0 10.8-2.2 14.6-6.5 3.9-4.3 5.8-10.2 5.8-17.6s-1.9-13.3-5.8-17.6-8.9-6.4-14.9-6.4c-2.3 0-4.9.4-7.8 1.2v45.8h0zm75.8-14.1h-20l-3.5 8.5c-.9 2.1-1.3 3.7-1.3 4.7 0 .8.4 1.5 1.1 2.2.7.6 2.4 1 4.8 1.2v1.5H641v-1.5c2.2-.4 3.5-.9 4.2-1.6 1.3-1.3 2.7-3.9 4.3-7.8l18.1-44.4h1.3l17.9 44.8c1.4 3.6 2.8 5.9 3.9 7 1.2 1.1 2.8 1.7 4.9 1.8v1.5h-20.3v-1.5c2.1-.1 3.4-.5 4.2-1.1.7-.6 1.1-1.4 1.1-2.2 0-1.2-.5-3-1.5-5.5l-3.1-7.6zm-1.1-3l-8.7-21.8-9 21.8h17.7zm45-8.9l19 19.8c3.1 3.3 5.8 5.5 8 6.7s4.4 1.8 6.6 2v1.5H729v-1.5c1.5 0 2.5-.3 3.2-.8.6-.5 1-1.1 1-1.7s-.1-1.2-.4-1.7c-.2-.5-1-1.4-2.4-2.8l-17.8-18.4v17.4c0 2.7.2 4.5.5 5.4.3.7.8 1.2 1.6 1.7 1.1.6 2.2 1 3.5 1h1.7v1.5h-22v-1.5h1.8c2.1 0 3.7-.6 4.6-1.9.6-.8.9-2.9.9-6.1V598c0-2.7-.2-4.5-.5-5.4-.3-.6-.8-1.2-1.6-1.7-1.1-.6-2.3-1-3.5-1h-1.8v-1.5h22v1.5h-1.7c-1.2 0-2.3.3-3.5.9-.8.4-1.3 1.1-1.6 1.9s-.5 2.6-.5 5.2v16.5c.5-.5 2.2-2.2 5.2-5 7.5-7.2 12.1-12 13.7-14.4.7-1.1 1-2 1-2.8 0-.6-.3-1.1-.8-1.6s-1.4-.7-2.7-.7h-1.2v-1.5h18.9v1.5c-1.1 0-2.1.2-3 .5s-2 .9-3.3 1.7-2.9 2.2-4.9 4c-.6.5-3.1 3.2-7.7 8.2l-7.8 7.9z"/><path d="M788.5 624.1h-20l-3.5 8.5c-.9 2.1-1.3 3.7-1.3 4.7 0 .8.4 1.5 1.1 2.2.7.6 2.4 1 4.8 1.2v1.5h-16.2v-1.5c2.2-.4 3.5-.9 4.2-1.6 1.3-1.3 2.7-3.9 4.3-7.8l18.1-44.4h1.3l17.9 44.8c1.4 3.6 2.8 5.9 3.9 7 1.2 1.1 2.8 1.7 4.9 1.8v1.5h-20.3v-1.5c2.1-.1 3.4-.5 4.2-1.1.7-.6 1.1-1.4 1.1-2.2 0-1.2-.5-3-1.5-5.5l-3-7.6zm-1.1-3l-8.7-21.8-9 21.8h17.7zm74.3 21h-13.8l-17.5-25.2-3.2.1h-1.1c-.4 0-.8 0-1.2-.1v15.7c0 3.4.4 5.5 1.1 6.3 1 1.2 2.4 1.8 4.3 1.8h2v1.5h-22.1v-1.5h1.9c2.2 0 3.7-.7 4.7-2.2.5-.8.8-2.8.8-5.8v-34.8c0-3.4-.4-5.5-1.1-6.3-1-1.2-2.5-1.7-4.4-1.7h-1.9v-1.5H829c5.5 0 9.5.4 12.1 1.3 2.6.8 4.8 2.4 6.6 4.6s2.7 4.9 2.7 8c0 3.3-1 6.2-3.1 8.6s-5.3 4.2-9.6 5.2l10.6 15.5c2.4 3.6 4.5 5.9 6.3 7.1s4 1.9 6.8 2.2v1.2h.3zm-36.6-27.7h1.3.9c4.9 0 8.6-1.1 11.1-3.3s3.7-5.1 3.7-8.5-1-6.1-3-8.2-4.7-3.2-8-3.2c-1.5 0-3.5.3-6 .8v22.4z"/><path d="M377.8 171.4a192.19 192.19 0 0 1 28.8-10.6c20.8-5.8 36.4-6.2 60.2-6.6 44.6-.9 85.5-1.4 123 1.7 6.2.5 16.5 1.5 29.6 4.7s23.4 7.4 30 10.3l34-69.7L665.8 91l-3.7 8.7-17.8-7.3 2.5-9.2-19.4-3.4-2.6 18.2-5.8.2-1 5.7-12.3-.9.7-6.5-11.9-1.1-1.6 6.3-11.6-.6v-7.9h-13.5v7.7h-14.3l1.8-8.5h-12.9l5.2-20.1-11.1-2.9-1.9 6.6-14.6-1.9v-7.7h-18v7l-11.7 2.5-3.4-7.6-10.3 3.6 4.3 20.3h-14l2.1 8.8h-12.9l-2.6-7.8-11.6 1.6 1.6 6.7-12.6 2.5-1.9-9-11.6 1.7 2.6 8.1-13.3 2.1-2.6-8.8-6.4 1.2-5.1-18.9-18.1 5.5 3.3 9.3-16.7 8.4-4.9-9.1-14.8 9.9 36.4 67z" fill="#d9d9d6" class="K M"/><path d="M391.8 141.7c-1.9-4.4-5.8-6.9-8.9-5.8-3.2 1.2-4.4 5.6-3 10.2h0l7.7 20.7 12-4.4-7.8-20.7h0zm245.1-1.9c2.1-4.8 6.1-7.7 9.2-6.5 3.2 1.2 4.3 6 2.8 11h0l-8.4 22.7-12.1-4.5 8.5-22.7h0zm-117.3-10.3c-.3-5.2-3-9.2-6.4-9.2s-6.1 4.1-6.4 9.2h0v24h12.8v-24h0z"/><g class="K M"><g fill="none"><path d="M357.3,133.5c6-3.3,13.1-6.8,21.2-9.9c6.8-2.6,13.2-4.6,19.1-6.1"/><path d="M393.1 98.6l16.7 61.3" class="N"/><path d="M348.9 118c10.7-5.6 22.3-11.1 34.8-16.1l10.6-4.1m-49 13.5l15.9-7.7m-12.5-4.1l4.3 8"/><path d="M358.4 104.9l3.1 6.8m8.3-12.5l2.8 7.4m5.3-11.4l12.5-5.3m-7.1-6.7l3.1 8.4m-3.7 1.6l2.9 7.9M358.7 118l2.5 4.9c5.5-3.1 11.9-6.3 19.3-9.2 5.1-2 9.9-3.6 14.4-4.8"/><path d="M381.5 105.6l3.2 6.3m-17.1-3.1l2.9 5.3m-3.7 5.8l3.7 7m8.6-12.6l3.2 7.8m9.6-12.3l3 8.4m-29.6 10.9l4.3 8.9"/><path d="M366.8,139.1c5.2-2.4,10.8-4.7,16.8-7c4.3-1.6,8.6-3.1,12.6-4.4"/><path d="M390 119.6l4.1 8.9m-16.9-4.4l1.9 5.8m-13 20c5.1-2.8 11-5.8 17.8-8.5 7.2-2.8 13.9-4.8 19.8-6.2"/><path d="M376.8 134.8l3.4 6.8m7.5-11l3.8 8.1m3.9-1.3l4.1 6.5m-26.8 2.5l3.6 6.8m-.7 2l8.3-3.9m-9.4 14l11.1-5.8"/><path d="M379.9 159.8l4.3 8.8m14.8-50.4c19.3-2.4 39.2-4.6 59.6-6.3l25.8-2"/><path d="M480 92.1l13 61.6" class="N"/><path d="M484.4 119c-17-.2-36.1.7-56.9 3.9-7.4 1.1-14.5 2.5-21.2 4l2.8 8.6"/><path d="M421.8 115.5l3.6 7.7m8.1-9.1l2 7.7m10.5-8.7l1.4 7.2m10.4-8.3l2.4 7.5m11.8-8.7v8.1m-74.4-8.1l14.1-4.8m5 10.1l-3.2-10.3m-11.4 3.9l2.1 5.3m15.8-10.2l11.1-1m-4.7.5l2 8.5m8-10l4.7 10.5m2.6-12l12.6-.4m12.8 0h11.4m-31.4.6l2 10.8m25-11.4l2.4 9.4m-60.8 23.5l1.7 9.3"/><path d="M416.8 142.9h4.7m1.5-2.3l2.1 7.7"/><path d="M421.8 141.9h8.4m-3.7-9.5l3.3 9.2 9.6-1.6"/><path d="M437.6 130.8l1.8 9.2h9.2l9.5-1.2 1.3-.9h11.8"/><path d="M445.8 138.5l2.4 9m-14.1-6.5l3 6.2m-24.1-2.6l1.4 7.4"/><path d="M409.4,153.3c6.6-1.4,13.5-2.7,20.7-3.8c17.9-2.8,34.8-4.2,50.2-4.7v-8"/><path d="M418.5 151.4l3 3.7m8.9-5.6l2 6.3m17.3-26.3l.5 10.5m9.4-11l1.5 9m7.2-1.5l1.8 8.8m-8-7.4v2.5m-5.3-1.4l2.7 7M420 124.6l2.6 8.3m7.1-10l2.7 8.6m9.3-10.5l2.9 9.1m7.8-10.1l1.8 9.3m10.9-10.1l3.8 9.4"/><path d="M477.9 117.6v3.4l2.6 7.6c-16.5-.2-35.1.7-55.3 3.9-7.2 1.1-14.1 2.5-20.6 4m56.9-35.6l2 10.6"/><path d="M474.1 128.6v5.5l1.3 2.9m-3.7 0h17.6"/><path d="M484.9 129.7l2.3 8.6m-2.3 6.4v9.1m-8-9.1l1.6 9m-14.6-8.3l1.9 8.8m-11.8-7.9v8.2m-11.2-6.8l1.5 5.6m-39.1-9.6l-10.5 3.5 4.8 7.9 7.6-1.8m-5 1.4l1.1 3.4"/><path d="M543.5 92.2l-11.8 61.4m92.9-56.4l6 2.8-12.9 60.2" class="N"/><path d="M626.3 87l17.9 5.3-2.5 8.4-13.2-2.4m3.7-9.3l-4.1 10.1"/><path d="M653.8 96.2l-3 7.7-9.1-3.2m20.3-1.1l17.2 9.9"/><path d="M674.9 96.2l-3.7 7m-5.1-1.3l-2.8 7.6-12.5-5.6m25.1 12.3l-12.6-6.7m4 2.7l-2.1 7.4"/><path d="M630.1,106.5c7.3,1.8,15.5,4.3,24.3,7.9c6.5,2.7,12.3,5.5,17.4,8.4"/><path d="M656.9 106.6l-3.1 7.6m-7.5-11.9l-2.7 8.1m-8-10.8l-3 7.6m-4.3 7.3c6.8 1 15.6 3.1 25.2 7.4 6 2.7 11 5.7 15.1 8.5"/><path d="M640.6 109.5l-2.7 6.9m10.5-4.3l-1.9 7m15.1-1.8l-2.9 7.1m-18.1-7.6l-2.3 7.2m-6-8.8l-1.1 9.7h4.7l-1.9 8-9.1-1.2m4.6.8l-2.6 8.9m9.3-16.7l1.1 1.2h4.4l.4 4.5-1.2.5.1 2.5m1.1-6.5h2.6l3.1 1.4 6.3 2.6 2.9.9 6.5 4"/><path d="M643.2 125.4v1.6m13 3.6l-3.2 6.7m.4-15.5l-3.3 7.4m12.5-2.5l-3.9 6.1m-29.6 8.1h7.7m-2.1-6.9h3.9"/><path d="M633.5 141.2l3.2-7.2m-5.3 7.2l-1.4 4.2m-7.1 6.9l1.3-5.6h9.1l-4.2 6.4 1.3 1.1h2.6m-5.6.5l-3.1 7.1m15.8 5l4.2-8.7 9.2 4.1"/><path d="M649.2 159.9l2.1-4.6-6.2-4m2.4-5.6c1.8.4 4 1.1 6.4 2.3 2.1 1 3.7 2.2 5 3.2m-9.7-12.7l8.1 4.5"/><path d="M654.1 147.8l1.1-5.7M481.3 98c4.4-1.7 9.5-3.2 15.1-4.2 19.1-3.5 35.3.1 45.2 3.3"/><path d="M492.7 86.8l2 7.3"/><path d="M480.7 90.4c3.4-1.5 7.2-2.8 11.2-3.9 21.4-5.6 40.6-.7 51.5 3.3m-64.2-6.4c5-2.3 11.2-4.5 18.5-5.8 20.9-3.7 38.2 2.3 46.6 6m-66.5-6.7l7.9-2-2.4-5.5"/><path d="M490.4 75.7v3.6m14.4-7.5h15.4"/><path d="M512.1 66.2V72m-10 1.2h1.9v4.9m-6.4-.5l1.9 7.4m12.6-8.5V84m15.2-5.8v6.2m12.2-2.7l-3 5.5m2.2-12.3h3.9l3.8 1.7"/><path d="M541 72.6v2.5m-52.7 20.5l2.1 6.6m10.2-9.1l1.6 4.9m3.1-13.7l-1.5 8.4m15.3-8.7v8.2m12.2-5.9v8m-4-1.5l-2.2 7.2M513 92.3v7.1m22.8-5.6l1.5 8.3m-53.2 3.5c6.4-2.2 16.1-4.6 28-4.7 11.8-.1 21.4 2.1 27.9 4.1m-56.5 7.3c6.9-2.4 17.1-5 29.8-5.2 11-.1 20.2 1.7 26.7 3.6"/><path d="M495.8 102.9l1.7 6m8.4-8.9l2.5 7.4m-5.3.6v5.3m9.9-6.2v7.8m-21.7-5l1.9 8.2"/><path d="M486.8 120.4c4.9-2.2 13.6-5.2 24.7-5.4 11.8-.1 20.9 3.1 25.9 5.3"/><path d="M526.2 106.5l-2.6 9.6M518 101v6.1m13.3-4.7l1.1 6.5m-24.5 4.8v13.5m-11.7-10.1l3.9 7.9"/><path d="M488.7 128.7c2.6-1.2 6.4-2.6 11.2-3.4 2.8-.5 6.4-.9 15.9-.2 4.8.3 11.2.9 18.6 2m-42.4 7.8l16.6-2.8"/><path d="M496.2 125.8v8.7m3.9-2v8.3"/><path d="M491.8 143.6c2.5-1.1 5.8-2.3 9.6-3 2.3-.4 4.5-.6 6.4-.7"/><path d="M496.2 146.3v-4.4m-3.6 8c2.5-.9 5.5-1.8 8.9-2.4l6-.8"/><path d="M501 147.9v5.7m18-7.2c1.2.5 2.5 1 4 1.4 3.4.9 6.4 1.1 8.7 1m-12.8-10.3c1.2.5 2.5 1 4 1.4 4.2 1.1 8 1.2 10.8.9"/><path d="M522.9 140.3v6.1m-3.9-13.6c1.1.5 2.7 1.1 4.7 1.3 1.6.2 3 0 4-.1"/><path d="M524 125.7v8.4m2.3-1.6v8m1.3-5.8h5.1"/><path d="M530.1 137.2v-2.3l2.6-8.4m-2.2 14.2l-1.8 8.2m10.9-31.2l35.1 1.3c17 .8 33.7 1.9 49.9 3.2M541.4 109c13.8.1 28.2.4 43.1 1.2 14.8.7 29 1.8 42.7 3m-91.8 14c16.7-.3 34.7.1 53.9 1.5 11.5.9 22.5 2.1 33 3.5"/><path d="M552.1 109v7.3m-5.7-7.3l3.3-8.1m3.8-.2h-13.1m27.4 0l13.6.3m-20-.3l-2.9 8.5"/><path d="M573.7 100.8L572 107m15.2-5.7l-2.4 8.6m33.2-6.1l10.3 2.6m-4.1-.6l-2.4 7.1m-16.8-1.5l-2.4 9.2m-10.2-10l-1.5 9.3m-11.8-10l-.9 8.9m-12.2-9.6l-2.1 9.3m-18.5-.8l-2.6 9.4m14.5-9.1l-2.4 9.1m15.1-8.3l-2.3 8.8m17.5-9.1l-2.5 9.5m14.8-9.5l-2.7 10.6m20.4-16.9v7.2m-22.3-17.8l12.8 1.3m-5.3-.2l-2.1 8.4m14.7-7.6l-2 8.3m9.2 10v9.7M608.3 121l-1.4 9.1m-63.2 7.7l31.5 1.2 46.2 2"/><path d="M561.2 127.2l-1.2 9.7m-10.9-9.8v10.5m-13.9.6l5.2-1.5m-6.4 8.1l76 5.1 1.3 1.2"/><path d="M579.9 138.9l-2.6 8.4m-11.7-8.7l-2.4 8.1m-10-8.7l-1.9 8m40.8-6.3l-2.4 8.8m14.5-8.3v9.2m13.1-8.6l-2.2 9.4m-29.9-2.1l-2.5 7.2m-11.2-8l-1.5 4.4m-30.3-6.9l2.3-6.2m16.1 7.8l-2 4.7m-9.5-5.5l-1.8 5.5m50.5 5.3l2.2-8.9m11.6 2.3v8.5m-7.3-28.7l-2.9 10.1m14.4-8.7l-3.4 9.5m-20.6-11.8l-2.3 10.7m-14.1-.8l3.6-11.9"/></g><path d="M377.8 171.4h271.5v172.3c0 15.4-2 40.9-14.9 68.3-19.2 40.9-64.3 89.5-120.8 89.6-62.3.1-125.2-58.9-133.6-142.7l-2.2-187.5z" fill="#0047bb" stroke-width="5"/></g><path d="M377.8 171.4l135.7 330.1 135.8-330.1z" fill="#ffe900"/><path d="M471.2 174.4h84.9v69.1c0 6.2-.6 16.4-4.7 27.4-6 16.4-20.1 35.9-37.8 35.9-19.5.1-39.2-23.6-41.8-57.2l-.6-75.2z" fill="#da291c" stroke-width="2" class="K M"/><path d="M517.7 205.5v-4.1h-8.1v4.1l-9.5 97.6 11.9 3.7 14.5-3.5z" class="L"/><path d="M472.9 177.7l36.7 12.8v3.8l-36.7 13.3v-3.7l30-9.8v-.8h-28.5v-2h28.5v-1l-31-9.3z"/><g class="L"><path d="M510.6 185.4h6v11.9h-6z"/><path d="M509.6 190.5h5.2v6.8h-5.2z"/><path d="M506.6 197.3h15v4.1h-15zm-7.8 55.2h30.8v5h-30.8z"/></g><path d="M512.6 239.4h3v9h-3zm-.8 32.1h3.8v12.9h-3.8zm.8-51h3v7.9h-3z"/><path d="M514.9 194.5h2.8v2.9h-2.8z" class="L"/><path d="M516.6 194.4v-4.9l32.2-11.1h1.9v2L520.4 191v.7h32.1v1.7h-28.2l26.3 9v3z"/><path d="M471.2 174.2h84.9v69.2c0 6.2-.6 16.4-4.7 27.4-6 16.4-20.1 35.9-37.8 36-19.5.1-39.2-23.6-41.8-57.3l-.6-75.3z" fill="none" class="K M N"/><path d="M461.1 374l51.5-38.4 52.7 40.1-8.5 20.5-43.3-33.4-43.9 31.8zm21.3 51.8l29.5-27.4 33.1 26.5-9 21.9-23.9-19.7-21.1 19.7z" fill="#009639"/><g class="M"><path d="M377.8 171.4l135.7 330.1 135.8-330.1z" fill="none" class="K N"/><path d="M444.6 415.7l4 13.5-27.6-10.5 6.1 6.8-14.1-3.8v4.3c3.6.1 8.3.8 13.3 2.8 4.2 1.7 7 3.7 7.6 4.1 2.4 1.7 3.1 2.7 5.2 4.5 5.5 4.6 8.6 5.5 9.4 5.8 2 .6 3.6.8 4.4.9 4.5.4 9.6.1 15.4 1.2.7.1.8.2 2.9.7 8.5 2.1 13.2 3.9 13.7 3.1.3-.6-1.4-2.7-3.6-3.6-2.5-1.1-4.8-.4-8.5-2-.5-.2-1-.4-1-.8-.1-.9 3.3-1.9 6.3-2.6-6.9-2.1-14.2-4.8-21.6-8.3-1.2-.6-2.4-1.1-3.5-1.7l-2.2-12.2-6.2-2.2z" fill="#a07400" stroke="#fff"/><g class="K"><path d="M393.8 352.8c5.7 3.7 12.6 9.5 14 18a19.03 19.03 0 0 1 .1 4.7c-.4 6.2-.2 16.1 2.7 32.2 10 1.2 22.6 3.7 36.6 8.9 12.9 4.8 23.5 10.5 31.6 15.6a202.36 202.36 0 0 1-10.4-16.3c-4.2-7.4-6.4-11.1-8.1-16.5-1.4-4.5-2.8-11-2.4-19.3-7.8-7.7-23.3-20.7-46-25.5-6.6-1.3-12.7-1.8-18.1-1.8z" class="L"/><path d="M393.8 352.8c2 0 4.7.4 7.1 2.2.8.6 1.3 1.2 1.5 1.4 3.6 4 12.3 10.3 23.5 19.6 4.2 3.5 6.5 5.4 9.8 8.5 1.2 1.1 2.7 2.6 11.7 12l15.3 16.6c.8.9 1.9 2.4 3.7 4.4 3.2 3.7 6.1 6.5 8 8.2" fill="none"/></g><path d="M583.7 415.7l-4 13.5 27.6-10.5-6.1 6.8 14.1-3.8v4.3c-3.6.1-8.3.8-13.3 2.8-4.2 1.7-7 3.7-7.6 4.1-2.4 1.7-3.1 2.7-5.2 4.5-5.5 4.6-8.6 5.5-9.4 5.8-2 .6-3.6.8-4.4.9-4.5.4-9.6.1-15.4 1.2-.7.1-.8.2-2.9.7-8.5 2.1-13.2 3.9-13.7 3.1-.3-.6 1.4-2.7 3.6-3.6 2.5-1.1 4.8-.4 8.5-2 .5-.2 1-.4 1-.8.1-.9-3.3-1.9-6.3-2.6 6.9-2.1 14.2-4.8 21.6-8.3 1.2-.6 2.4-1.1 3.5-1.7l2.2-12.2 6.2-2.2z" fill="#a07400" stroke="#fff"/><g class="K"><path d="M634.4 352.8c-5.7 3.7-12.6 9.5-14 18a19.03 19.03 0 0 0-.1 4.7c.4 6.2.2 16.1-2.7 32.2-10 1.2-22.6 3.7-36.6 8.9-12.9 4.8-23.5 10.5-31.6 15.6a202.36 202.36 0 0 0 10.4-16.3c4.2-7.4 6.4-11.1 8.1-16.5 1.4-4.5 2.8-11 2.4-19.3 7.8-7.7 23.3-20.7 46-25.5 6.7-1.3 12.8-1.8 18.1-1.8z" class="L"/><path d="M634.4 352.8c-2 0-4.7.4-7.1 2.2-.8.6-1.3 1.2-1.5 1.4-3.6 4-12.3 10.3-23.5 19.6-4.2 3.5-6.5 5.4-9.8 8.5-1.2 1.1-2.7 2.6-11.7 12l-15.3 16.6c-.8.9-1.9 2.4-3.7 4.4-3.2 3.7-6.1 6.5-8 8.2" fill="none"/></g></g><path d="M328.8 240c6-10.2 6.2-17.4 5.2-22.3-.7-3.4-2-5.2-4.7-12.9-2-5.7-3.3-10.5-4.2-13.7-1.8 8-3.6 14.2-5 18.4-2.6 8.3-3.4 12.6-2.4 16.4 1.5 6 6.2 9.9 9.3 12l-.6 38.7c-.1.1-.2.2-.4.2-.9-.1-1.5-4.6-1.7-13.7a263.5 263.5 0 0 0-16.8-8.3c-4.7-2.1-9.2-3.9-13.5-5.6-.3 3.1-.6 9.9 2.8 17.4 2.9 6.5 7.2 10.5 9.6 12.5 10.2-1.8 14.5-.9 16.5.5.4.3 1.8 1.2 2.7.8 1.1-.5 1.2-.7.9 1.4-.3 1.7-.7 3.1-1.1 4.3l.9 55c-.9-1.1-2.2-2.8-3.1-5.2-1.8-4.5-.7-7-2.4-10.3-1-2-2.5-3.2-5.8-5.4-3.8-2.4-9.6-5.7-17.6-8.9-.7 2.3-3.2 11.4 1.6 20.6 1.4 2.6 5.6 10.8 12.2 11.4 3.1.3 6.3-1.1 11.3.5 1.4.5 2.6 1 3.3 1.4.1 10 .9 21.8 3.4 34.7 1.5 8 3.4 15.2 5.4 21.7-.9-2.6-2.9-7.7-7.8-11.7-4.4-3.6-8.9-4.6-13.6-5.6-3.8-.8-9.8-1.6-17.3-.7.2 2 1.6 13.4 11.2 19.9 4.6 3.1 9.1 3.8 10.6 4 8.6 1 15-2.9 16.9-4.2 1.8 8.2 4.6 18 9.2 28.6 3.8 8.7 8 16.2 11.9 22.3-1.7-1.5-4.4-3.9-7.4-6.9-2.9-2.9-3.1-3.3-4.3-4-3.9-2.3-7.5-1-13-1-3.1 0-7.4-.3-12.7-1.9 5.9 2.5 8.4 5.6 9.6 8 1.3 2.5 1.2 4.5 3.5 7.1 1.6 1.8 3.4 3 5.4 4.2 2.8 1.7 4.1 2.6 5.2 2.7 4.8.5 7.2-5.6 12.8-5.3 1.3.1 2.3.4 2.8.7a179.24 179.24 0 0 0 18.3 25.3c6.9 8.1 13.7 14.7 19.9 20.1-6.5-3-11.6-3.1-15-2.6-4.8.7-7.4 2.7-19.1 7l-6.4 2.3 14 6.2c7.8 3.5 9.2 4.3 12.1 4.5 8.5.7 14.8-4.3 15.8-5 2.8-2.2 4.5-4.7 5.5-6.3.8.3 2.1.9 3.6 1.6 6.4 3.2 10.4 6.9 11.2 7.6 3.5 3 14.5 8.7 46.5 20.2l1.9-1.9c-9.1-2.9-19-6.5-29.5-11.3-7.9-3.6-15.2-7.3-21.7-11l.9-2.2 5.1-13c2.7-7.6-8-27.4-12.2-34.8-1.5 1.9-9.2 12.4-7.2 26.9 1.8 12.3 9.5 19.7 11.7 21.6l-.5.5c-2.8-1.6-6.9-4.3-10.9-8.5-1.4-1.5-2.4-2.6-2.7-3-3-3.6-9.5-10.4-24.3-24.2 1.8-2.9 4.6-7.2 8.3-12.4 1.4-2 1.9-2.6 2.2-3 2.5-3.8 2.9-11.5-6.6-29.1-2.2 2.4-10.8 12.3-10.2 26.4.2 5.8 2 10.5 3.5 13.6-5.5-8-11-16.8-16.5-26.4-4-7-7.6-13.8-10.8-20.3 3.1-1.9 10.6-7.1 15.2-17 5.7-12.3 3.1-23.7 2.3-26.9-3.7 2.4-16.3 11.3-19 26.7-.6 3.7-.6 7.1-.3 10-5.3-12.4-9.8-27.2-11.3-44l-.5-6.7c3.9.9 11.8 2.2 19.7-1.6.5-.2 2.2-1.1 3.7-2.2 9.5-7.2 7.8-24.8 7.5-27.7-8.5 2.2-14.9 4.6-19.3 6.4-3.2 1.3-3.6 1.7-4 2-5.3 4.8-1 14.3-7 20.6-.6.7-1.2 1.2-1.6 1.4a606.27 606.27 0 0 1-1.7-41.5l.1-13.2c2.8 0 11.7-.4 19.5-7 11.7-9.8 10.7-24.9 10.6-26.5a113.42 113.42 0 0 1-13.8 6.1c-4.2 1.5-5.4.9-7.2 2.4-3.2 2.6-3 6.4-5.5 14.8-1.1 3.8-2.2 6.7-2.9 8.5h-1.1c.1-13.5.5-20.6.8-24.7 0-.4.1-1.6.2-3.2.4-6.5-.1-11.3-.2-12.5-.7-4-.8-12.3.1-30.8zm228.1 298.8v-1.6c14.1-4.1 28.8-9.6 43.8-16.8 1.9-.9 3.8-1.9 5.6-2.8-.7-3.3-1.5-8.1-1.5-14 0-6.3 0-10.2 2-14.6 1.2-2.7 2.3-3.5 10.1-12.4l6.5-7.5c1.3 11.7.3 20.6-.7 25.9-1 5.7-2.5 9.7-5.6 13.2-2 2.2-4.2 3.6-5.8 4.3-.1 1 .2 1.5.5 1.7 3.2 2.6 22-14.4 34.6-28.1 3.9-4.2 7-7.9 9.1-10.5-1.1-1.6-2.5-3.9-4.2-6.8-2.5-4.2-4.1-7.6-4.3-8-4.1-8.5 2.6-28.5 3.7-31.9 2.8 2.7 9.4 9.9 11.1 20.4.3 1.9.9 6.1-.2 11.4-1 4.5-2.8 8-4.1 10 0 1.2.2 1.4.4 1.5 2.9 1.3 19.4-30.1 28.3-48.1 1.9-3.8 3.4-6.9 4-8.4-2.2.4-7.4 1.1-12.9-1.3-6.3-2.8-9.2-7.8-10.8-10.5-6.1-10.4-3.9-21.5-3-24.9 6.3 4.8 11.6 8.3 15.3 10.6 5.2 3.2 8.5 4.9 9.5 8.6.7 2.6-.2 4 .3 8.6.4 3.3 1.2 6 1.9 7.7a853.81 853.81 0 0 0 12.3-39.8l2.7-9.9c-3.3.1-8.1 0-13.7-1.1-7.4-1.4-14.2-2.7-19.8-7.7-7.3-6.6-8.4-16-8.7-19.7 9.1 3 16.7 5 22 6.3 8.2 2 12.3 2.6 15.5 6.2 3.9 4.4 4.1 10.5 3.8 14.4h1c.6-2.8 1.1-7 .6-12a39.74 39.74 0 0 0-1.1-6.2c-1-5.4.3-8.3 1.3-17.9l.8-8.9c-2.4.5-5.8.9-9.9.5-4.4-.4-13.3-1.1-19.5-8.1-6.4-7.1-6-16.2-5.9-18.4 6.6 2.9 13.6 5.7 21 8.4l10.3 3.5c.7 3.4 1.2 6.2 1.5 8.1.3 2.1.6 4.3 1.6 4.5.5.1.9-.3 1.3-.6l-1.1-39.9c-.5-8.9-.5-13.4-.3-14.5 0-.2.2-1-.1-1.3-.2-.2-.5-.2-.7-.1-2.9-.1-12.9-.9-21.9-8.7-9.2-8.1-11.2-18.3-11.6-21.1 9.4 3.6 18.9 7.8 28.5 12.5l2.4 1.2c.2 2.7.6 5.7 1.3 9 .4 1.7.9 3.4 1.3 4.9h.4v-31.9c-2.1-2.1-6.1-6.8-7.9-14.1-.7-2.8-2-8-.2-13.7 1.8-5.8 5.1-6.7 9.3-14.2 2.3-4.1 3.5-7.8 4.2-10.3 3 14.9 4.3 24.3 5 29.8.1.8.2 1.8.2 3.1 0 8.9-4.7 16-8.7 20.5v46.6c0 .4 0 .8.1 1.2.2 2.1.4 4.1.8 6 .9 0 1.8-.1 2-.6.2-.4-.1-.9-.2-1-.8-1.4.3-9.7 6.4-15.2.9-.8 2.9-2.4 15.9-6.2l11-3a44.73 44.73 0 0 1-7.1 18.1c-3.8 5.5-6.2 9.1-10.4 9.8-4 .6-7-1.7-15.4-1.2-.9.1-1.7.1-2.2.2v49c-.6 2.4-2.7 11.9-.2 13.1.5.2.9.1 1 .1 2.2-.6 1-6.3 2.9-11.7 1.3-3.6 3.5-5.7 5.7-7.9 4.8-4.7 10-6.2 15.7-7.9 3.1-.9 7.5-2 13-2.5-.1 2.7-1 14.9-10.8 23.6-6.3 5.6-13.4 7.2-15.7 7.7a35.01 35.01 0 0 1-12.3.4c.6 5.8.7 13.6-.7 22.5-1.3 7.8-3.4 14.3-5.5 19.3a25.79 25.79 0 0 0 6.3-5.2c2.7-3 3.1-4.7 4.6-6.8 1.3-1.7 3.5-3.8 14.5-6.9 4.6-1.3 10.8-2.8 18.3-3.9-.1 1.5-2.4 21.5-15.2 26.4-4.4 1.7-9.7 1.5-12.5 1.4a44.16 44.16 0 0 1-15.9-3.7c-3.9 15.7-9.8 32.5-18.6 49.8-1.4 2.7-2.8 5.4-4.3 7.9 1.5-1.1 3.7-2.9 6.2-5.2 4.2-3.9 6.7-7.3 7.3-8 3-3.6 11.5-6.5 36.7-2.7-2.9 3.6-12.6 14.7-29.1 17.9-9.1 1.8-16.8.4-21.3-.8-7.8 11.4-16.7 23.2-26.7 35.2-3.9 4.7-7.9 9.2-11.8 13.5 1.3-.4 3.2-.9 5.6-1.6 5.8-1.6 12.8-3.4 14.6-3.7 2.7-.5 11.2-1 26.3 14.6-3.2 1.9-11.8 6.3-23.2 5.5-13.8-.9-22.8-8.6-25.3-11h-3.4c-6.2 5.7-13.8 11.8-23.1 17.5-20.9 13-40.8 18.4-54.8 20.9z" fill="#009639"/></svg>