<?xml version="1.0" encoding="UTF-8" standalone="no"?>
<!DOCTYPE svg PUBLIC "-//W3C//DTD SVG 1.1//EN" "http://www.w3.org/Graphics/SVG/1.1/DTD/svg11.dtd">
<svg xmlns="http://www.w3.org/2000/svg" version="1.1" viewBox="0.00 0.00 540.00 360.00">
<g stroke-width="2.50" fill="none" stroke-linecap="butt">
<path stroke="#4b6275" vector-effect="non-scaling-stroke" d="
  M 324.95 285.95
  L 322.82 288.05
  Q 322.48 288.38 322.72 288.79
  C 325.40 293.29 330.55 297.87 335.79 295.49
  Q 337.72 294.61 341.32 290.52
  Q 353.05 277.18 365.67 264.67
  C 367.85 262.50 371.64 258.68 371.64 255.58
  C 371.65 252.21 368.82 247.65 364.82 247.99
  Q 364.34 248.03 364.00 248.38
  L 361.16 251.21
  A 0.82 0.82 0.0 0 1 359.88 251.06
  Q 351.74 237.70 348.32 222.29
  C 339.30 181.57 337.14 133.74 358.51 96.08
  Q 358.85 95.47 359.21 96.07
  L 362.07 100.78
  Q 362.30 101.16 362.71 100.99
  C 368.34 98.66 374.03 93.84 372.22 87.49
  Q 371.87 86.27 368.46 80.22
  Q 357.89 61.53 345.87 43.70
  C 341.00 36.48 334.37 39.90 328.66 43.39
  Q 328.15 43.71 328.46 44.23
  L 332.48 51.03
  Q 332.83 51.62 332.19 51.89
  Q 322.54 55.90 309.56 58.57
  C 276.41 65.38 238.82 64.40 207.84 51.91
  A 0.63 0.63 0.0 0 1 207.53 51.01
  L 211.57 44.10
  Q 211.83 43.66 211.38 43.40
  C 206.20 40.41 199.10 36.38 194.58 43.05
  Q 181.15 62.87 169.54 83.84
  C 164.80 92.43 169.53 97.29 177.10 101.03
  Q 177.62 101.29 177.93 100.79
  L 180.88 95.97
  A 0.35 0.35 0.0 0 1 181.48 95.99
  C 202.44 133.27 200.67 178.83 192.22 219.24
  C 189.93 230.18 186.28 241.85 179.80 251.35
  Q 179.48 251.82 179.07 251.43
  C 177.49 249.91 175.09 246.47 172.46 248.46
  Q 164.46 254.52 171.39 261.60
  Q 188.37 278.96 199.09 290.98
  C 206.02 298.75 211.99 297.08 217.28 288.90
  Q 217.57 288.45 217.19 288.06
  L 214.97 285.84
  Q 214.55 285.42 215.10 285.22
  Q 220.65 283.12 225.75 283.25
  C 249.08 283.84 263.88 300.14 269.73 321.60
  A 0.27 0.26 -44.8 0 0 270.24 321.60
  C 276.49 299.12 291.36 283.62 315.75 283.20
  Q 319.26 283.14 324.79 285.19
  Q 325.47 285.44 324.95 285.95"
/>
<path stroke="#644c00" vector-effect="non-scaling-stroke" d="
  M 198.01 42.05
  Q 198.49 41.97 197.91 41.37
  A 0.47 0.46 -50.3 0 0 197.19 41.44
  Q 182.52 63.16 170.11 85.50
  C 168.82 87.81 168.31 89.90 169.36 92.21
  A 0.25 0.25 0.0 0 0 169.84 92.08
  Q 169.43 87.01 173.72 84.18
  A 0.77 0.77 0.0 0 1 174.73 84.33
  C 195.35 109.00 200.60 144.30 199.07 175.31
  C 197.95 198.05 195.06 221.72 186.31 242.52
  C 185.23 245.08 177.68 259.71 173.56 256.18
  Q 170.77 253.79 172.65 250.54
  A 0.27 0.27 0.0 0 0 172.23 250.21
  Q 169.55 252.74 169.54 256.39
  Q 169.54 256.90 169.84 257.31
  Q 172.79 261.24 176.27 264.74
  Q 188.77 277.28 200.50 290.58
  C 204.22 294.80 208.16 296.71 212.67 292.39
  Q 213.32 291.77 212.46 292.01
  C 210.87 292.46 206.69 294.30 206.40 291.18
  Q 206.30 290.11 207.27 289.03
  C 215.45 279.80 231.58 281.01 241.84 285.13
  C 256.18 290.90 264.77 302.86 269.75 317.16
  Q 270.04 318.00 270.33 317.15
  C 277.88 294.63 295.42 279.59 320.41 282.54
  Q 327.58 283.38 332.94 289.22
  C 333.73 290.07 333.85 291.89 332.88 292.59
  C 331.61 293.51 328.99 292.47 327.52 292.05
  Q 326.72 291.83 327.32 292.40
  C 332.13 296.99 335.92 294.50 339.76 290.24
  Q 352.73 275.83 366.33 261.99
  C 370.33 257.92 372.35 254.97 367.80 250.30
  A 0.31 0.31 0.0 0 0 367.32 250.70
  C 369.84 254.25 365.63 259.03 361.96 255.28
  C 351.23 244.32 346.83 223.62 344.43 208.31
  Q 340.04 180.38 340.97 156.07
  C 341.91 131.54 349.02 102.99 365.45 84.23
  Q 365.78 83.85 366.20 84.13
  Q 371.44 87.58 369.73 93.73
  Q 369.43 94.80 370.01 93.85
  Q 372.41 89.94 369.85 85.42
  Q 356.13 61.21 344.40 43.84
  Q 343.30 42.21 342.49 41.36
  A 0.44 0.35 -89.6 0 0 342.00 41.97
  C 346.40 48.90 325.01 56.18 321.00 57.25
  Q 274.78 69.57 227.97 59.65
  C 221.94 58.37 195.65 51.83 197.76 42.30
  A 0.31 0.31 0.0 0 1 198.01 42.05"
/>
<path stroke="#644c00" vector-effect="non-scaling-stroke" d="
  M 204.52 49.53
  A 0.35 0.35 0.0 0 0 204.63 50.01
  L 205.96 50.84
  A 0.35 0.35 0.0 0 0 206.44 50.73
  L 209.09 46.36
  A 0.35 0.35 0.0 0 0 208.73 45.83
  L 206.73 46.15
  A 0.35 0.35 0.0 0 0 206.49 46.32
  L 204.52 49.53"
/>
<path stroke="#644c00" vector-effect="non-scaling-stroke" d="
  M 335.39 49.57
  Q 334.48 46.32 331.31 45.75
  Q 330.49 45.60 330.91 46.32
  L 333.33 50.44
  A 1.13 1.13 0.0 0 0 335.39 49.57"
/>
<path stroke="#645001" vector-effect="non-scaling-stroke" d="
  M 178.94 92.95
  Q 177.67 94.41 178.71 96.08
  Q 179.03 96.60 179.45 96.15
  Q 180.91 94.57 179.55 92.96
  Q 179.25 92.60 178.94 92.95"
/>
<path stroke="#645001" vector-effect="non-scaling-stroke" d="
  M 360.41 92.99
  Q 359.30 94.62 360.42 96.18
  Q 360.85 96.78 361.26 96.16
  Q 362.56 94.20 360.77 92.92
  A 0.26 0.25 33.4 0 0 360.41 92.99"
/>
<path stroke="#645001" vector-effect="non-scaling-stroke" d="
  M 176.30 251.91
  Q 176.65 252.81 177.01 253.85
  A 0.42 0.42 0.0 0 0 177.82 253.83
  Q 178.29 252.08 176.71 251.49
  Q 176.04 251.25 176.30 251.91"
/>
<path stroke="#645001" vector-effect="non-scaling-stroke" d="
  M 362.00 253.23
  A 0.65 0.51 65.4 0 0 363.04 253.76
  L 363.58 251.78
  Q 363.80 250.97 363.14 251.48
  Q 362.23 252.17 362.00 253.23"
/>
<path stroke="#645001" vector-effect="non-scaling-stroke" d="
  M 213.02 287.25
  L 213.44 287.25
  A 0.42 0.42 0.0 0 0 213.68 286.49
  Q 212.91 285.97 212.16 286.44
  A 0.20 0.20 0.0 0 0 212.12 286.75
  Q 212.25 286.88 212.39 287.01
  A 0.95 0.95 0.0 0 0 213.02 287.25"
/>
<path stroke="#645001" vector-effect="non-scaling-stroke" d="
  M 326.37 287.20
  C 326.79 287.45 327.30 287.05 327.74 286.98
  A 0.37 0.37 0.0 0 0 327.65 286.25
  L 326.57 286.33
  A 0.47 0.47 0.0 0 0 326.37 287.20"
/>
<path stroke="#ca5518" vector-effect="non-scaling-stroke" d="
  M 324.90 63.82
  C 289.07 76.98 251.02 76.89 215.28 63.87
  Q 214.69 63.66 214.47 64.25
  L 208.63 79.89
  A 0.79 0.79 0.0 0 0 209.11 80.91
  Q 270.22 102.72 331.25 80.73
  A 0.37 0.37 0.0 0 0 331.48 80.25
  L 325.50 64.10
  Q 325.34 63.66 324.90 63.82"
/>
<path stroke="#644c00" vector-effect="non-scaling-stroke" d="
  M 254.56 99.44
  Q 238.31 97.03 218.32 90.37
  Q 217.77 90.18 217.77 90.76
  Q 217.70 137.87 217.77 184.97
  Q 217.79 196.33 219.19 202.29
  C 224.63 225.59 249.05 248.15 269.05 261.99
  A 1.68 1.68 0.0 0 0 270.97 261.99
  Q 293.12 246.60 309.58 225.42
  C 319.68 212.43 322.25 200.88 322.25 183.72
  Q 322.26 137.31 322.24 90.83
  Q 322.24 90.38 321.81 90.51
  C 299.88 97.26 277.69 102.86 254.56 99.44"
/>
<path stroke="#644c00" vector-effect="non-scaling-stroke" d="
  M 283.48 267.35
  C 254.21 270.96 222.84 262.32 196.68 248.44
  Q 196.27 248.23 196.05 248.63
  L 189.56 260.44
  Q 189.34 260.84 189.74 261.06
  C 218.17 276.27 252.80 285.63 284.70 281.95
  Q 318.51 278.05 350.19 261.02
  Q 350.63 260.78 350.39 260.35
  L 344.03 248.76
  A 0.67 0.66 61.5 0 0 343.14 248.49
  Q 315.11 263.45 283.48 267.35"
/>
<path stroke="#ca5518" vector-effect="non-scaling-stroke" d="
  M 216.29 72.97
  C 216.41 72.11 217.73 69.31 216.75 68.93
  A 0.63 0.63 0.0 0 0 215.93 69.32
  L 213.03 77.97
  Q 212.77 78.75 213.59 78.75
  L 214.06 78.75
  A 0.53 0.52 -89.4 0 0 214.58 78.23
  Q 214.60 75.79 216.67 74.94
  A 0.65 0.64 -22.0 0 1 217.51 75.29
  C 218.02 76.50 218.82 81.11 220.30 81.01
  A 0.47 0.46 79.2 0 0 220.71 80.40
  L 218.86 74.55
  A 0.76 0.76 0.0 0 1 219.28 73.62
  Q 221.35 72.72 223.38 71.76
  Q 223.96 71.48 223.42 71.13
  L 223.06 70.90
  A 0.92 0.92 0.0 0 0 222.15 70.84
  L 216.90 73.41
  Q 216.18 73.75 216.29 72.97"
/>
<path stroke="#ca5818" vector-effect="non-scaling-stroke" d="
  M 318.73 74.56
  L 317.97 72.62
  Q 317.78 72.12 318.28 71.93
  C 319.17 71.59 323.72 70.43 323.42 69.45
  Q 323.28 68.99 322.82 69.14
  L 316.83 71.10
  A 0.64 0.64 0.0 0 0 316.42 71.90
  L 319.18 80.55
  A 0.57 0.56 71.1 0 0 319.91 80.91
  L 326.34 78.65
  Q 327.03 78.41 326.51 77.90
  C 325.95 77.35 321.90 78.98 320.97 79.24
  A 0.65 0.65 0.0 0 1 320.20 78.86
  L 319.42 76.90
  Q 319.18 76.32 319.75 76.05
  C 321.05 75.43 324.29 74.75 324.52 73.92
  A 0.46 0.45 89.1 0 0 323.95 73.36
  L 319.32 74.84
  A 0.48 0.47 -19.4 0 1 318.73 74.56"
/>
<path stroke="#ca5518" vector-effect="non-scaling-stroke" d="
  M 314.3231 72.7141
  A 0.69 0.69 0.0 0 0 313.4688 72.2425
  L 313.4303 72.2536
  A 0.69 0.69 0.0 0 0 312.9588 73.1079
  L 315.3769 81.4859
  A 0.69 0.69 0.0 0 0 316.2312 81.9575
  L 316.2697 81.9464
  A 0.69 0.69 0.0 0 0 316.7412 81.0921
  L 314.3231 72.7141"
/>
<path stroke="#ca5518" vector-effect="non-scaling-stroke" d="
  M 229.99 79.41
  A 1.03 1.03 0.0 0 1 230.35 81.38
  Q 227.21 82.70 225.22 80.44
  C 221.96 76.72 229.09 69.88 231.80 76.47
  Q 232.06 77.11 232.61 76.70
  L 232.86 76.52
  Q 233.19 76.28 233.02 75.91
  C 230.55 70.28 223.06 72.03 223.04 78.03
  C 223.03 82.31 227.24 83.99 230.97 82.78
  Q 231.41 82.64 231.55 82.19
  L 232.37 79.39
  Q 232.52 78.88 232.01 78.75
  L 228.28 77.79
  A 0.40 0.40 0.0 0 0 227.88 78.44
  Q 228.69 79.36 229.99 79.41"
/>
<path stroke="#ca5518" vector-effect="non-scaling-stroke" d="
  M 310.64 82.05
  Q 307.83 83.67 305.87 81.28
  A 0.59 0.59 0.0 0 0 304.88 81.92
  C 306.74 85.60 312.58 84.20 312.86 80.21
  A 1.21 1.20 -67.8 0 0 312.45 79.22
  Q 310.03 77.08 306.74 77.85
  A 1.25 1.25 0.0 0 1 305.65 75.68
  Q 308.10 73.62 310.29 75.90
  Q 310.63 76.25 310.97 75.91
  L 311.22 75.65
  A 0.45 0.44 45.4 0 0 311.22 75.02
  C 306.38 70.28 301.20 77.56 305.75 79.03
  C 306.66 79.33 312.52 78.47 311.32 81.28
  A 1.70 1.63 87.6 0 1 310.64 82.05"
/>
<path stroke="#ca5818" vector-effect="non-scaling-stroke" d="
  M 237.18 76.19
  C 238.57 75.91 241.61 77.32 242.75 76.58
  A 0.39 0.38 34.6 0 0 242.62 75.88
  L 236.06 74.47
  A 0.61 0.60 -79.0 0 0 235.34 74.96
  L 233.62 83.96
  A 0.59 0.59 0.0 0 0 234.10 84.65
  L 240.48 85.78
  Q 240.79 85.83 240.90 85.53
  Q 240.95 85.40 241.00 85.26
  A 0.49 0.48 -78.3 0 0 240.59 84.63
  Q 238.06 84.37 235.63 83.63
  A 0.67 0.67 0.0 0 1 235.17 82.85
  L 235.62 80.81
  Q 235.77 80.11 236.47 80.24
  L 241.20 81.11
  A 0.42 0.42 0.0 0 0 241.46 80.32
  Q 239.62 79.43 237.43 79.33
  A 1.59 1.59 0.0 0 1 237.18 76.19"
/>
<path stroke="#ca5818" vector-effect="non-scaling-stroke" d="
  M 300.13 76.50
  Q 301.54 76.54 302.58 75.61
  A 0.42 0.42 0.0 0 0 302.22 74.88
  L 294.79 76.25
  A 0.41 0.40 -13.7 0 0 294.47 76.77
  L 294.58 77.12
  Q 294.74 77.64 295.27 77.50
  L 297.40 76.96
  Q 297.89 76.84 297.99 77.33
  Q 298.81 81.24 299.37 85.18
  A 0.65 0.65 0.0 0 0 300.10 85.73
  C 301.39 85.54 299.62 78.49 299.48 77.19
  A 0.63 0.63 0.0 0 1 300.13 76.50"
/>
<path stroke="#ca5818" vector-effect="non-scaling-stroke" d="
  M 246.83 78.59
  C 246.73 79.45 245.33 86.73 246.38 86.78
  Q 247.00 86.80 247.08 86.19
  L 248.04 78.67
  Q 248.14 77.91 248.90 78.00
  L 251.08 78.27
  A 0.53 0.51 -62.6 0 0 251.50 78.13
  L 251.70 77.93
  A 0.46 0.45 26.5 0 0 251.44 77.16
  L 244.16 76.15
  A 0.42 0.42 0.0 0 0 243.82 76.88
  Q 244.62 77.62 245.74 77.49
  A 0.98 0.98 0.0 0 1 246.83 78.59"
/>
<path stroke="#ca5518" vector-effect="non-scaling-stroke" d="
  M 286.14 84.77
  L 289.04 84.30
  A 0.83 0.82 69.7 0 1 289.88 84.69
  L 291.27 87.03
  A 0.57 0.57 0.0 0 0 292.05 87.23
  L 292.27 87.11
  Q 292.70 86.85 292.46 86.40
  L 287.79 77.72
  A 1.04 1.04 0.0 0 0 285.88 77.92
  Q 284.49 82.70 283.35 87.54
  Q 283.18 88.26 283.87 88.00
  L 284.43 87.80
  A 0.87 0.87 0.0 0 0 284.99 86.88
  Q 284.89 86.04 285.33 85.31
  Q 285.61 84.86 286.14 84.77"
/>
<path stroke="#ca5818" vector-effect="non-scaling-stroke" d="
  M 254.70 78.91
  Q 257.86 77.74 259.06 80.80
  A 0.36 0.35 64.4 0 0 259.57 80.98
  L 259.85 80.81
  A 0.51 0.50 -27.2 0 0 260.06 80.18
  C 258.27 75.89 251.39 76.87 253.03 81.40
  A 1.29 1.28 1.7 0 0 253.74 82.15
  L 257.78 83.90
  A 1.36 1.36 0.0 0 1 257.73 86.41
  Q 254.24 87.77 252.98 84.37
  A 0.49 0.48 37.6 0 0 252.04 84.49
  C 251.69 88.31 258.00 89.31 259.79 85.97
  A 2.31 2.30 -65.3 0 0 258.60 82.74
  L 254.68 81.21
  A 1.23 1.23 0.0 0 1 254.70 78.91"
/>
<path stroke="#ca5518" vector-effect="non-scaling-stroke" d="
  M 278.45 82.03
  Q 277.22 80.24 275.83 78.60
  A 1.29 1.26 78.5 0 0 275.30 78.24
  L 274.67 78.03
  A 0.37 0.37 0.0 0 0 274.25 78.60
  C 276.25 81.47 278.93 83.64 278.20 87.51
  A 0.70 0.69 -87.5 0 0 278.95 88.33
  Q 279.63 88.27 279.80 87.66
  Q 279.90 87.29 279.85 86.90
  C 279.40 83.04 281.10 81.36 282.97 78.28
  A 0.49 0.49 0.0 0 0 282.20 77.68
  Q 280.40 79.51 279.40 81.93
  Q 279.01 82.85 278.45 82.03"
/>
<path stroke="#ca5518" vector-effect="non-scaling-stroke" d="
  M 264.32 79.36
  C 265.77 78.99 267.87 80.07 269.50 79.21
  A 0.49 0.49 0.0 0 0 269.30 78.29
  L 262.69 77.92
  Q 262.00 77.88 262.00 78.57
  L 262.00 87.86
  Q 262.00 88.40 262.54 88.41
  L 269.24 88.50
  A 0.43 0.42 -15.7 0 0 269.61 87.85
  C 269.09 87.02 264.80 87.21 263.69 86.98
  Q 263.22 86.88 263.25 86.40
  L 263.43 84.09
  Q 263.47 83.49 264.06 83.58
  C 264.77 83.68 269.04 84.23 269.02 83.15
  Q 269.00 82.50 268.35 82.50
  L 264.72 82.50
  A 1.60 1.60 0.0 0 1 264.32 79.36"
/>
<path stroke="#ca5518" vector-effect="non-scaling-stroke" d="
  M 286.87 79.58
  L 285.95 82.63
  A 0.62 0.62 0.0 0 0 286.64 83.43
  L 288.35 83.18
  Q 289.13 83.06 288.76 82.37
  L 287.25 79.55
  A 0.21 0.20 39.6 0 0 286.87 79.58"
/>
<path stroke="#808080" vector-effect="non-scaling-stroke" d="
  M 225.04 146.50
  L 224.97 154.65
  Q 224.97 155.19 225.51 155.19
  L 251.50 155.04"
/>
<path stroke="#644c00" vector-effect="non-scaling-stroke" d="
  M 251.50 155.04
  L 251.72 155.24
  Q 251.94 155.44 251.70 155.61
  Q 243.11 162.12 239.96 172.50"
/>
<path stroke="#565655" vector-effect="non-scaling-stroke" d="
  M 239.96 172.50
  L 233.66 175.62
  Q 233.21 175.85 232.71 175.75
  Q 229.03 175.02 225.45 176.11
  A 0.74 0.73 80.8 0 0 224.93 176.84
  L 225.21 184.14
  Q 225.22 184.57 225.65 184.65
  Q 228.20 185.14 230.97 185.27
  Q 231.46 185.29 231.87 185.56
  Q 235.49 187.99 239.75 188.79"
/>
<path stroke="#644c00" vector-effect="non-scaling-stroke" d="
  M 239.75 188.79
  Q 243.17 199.43 251.87 206.30"
/>
<path stroke="#808080" vector-effect="non-scaling-stroke" d="
  M 251.87 206.30
  L 228.65 206.36
  Q 227.96 206.37 228.25 206.99
  L 231.98 215.23"
/>
<path stroke="#4b6275" vector-effect="non-scaling-stroke" d="
  M 231.98 215.23
  Q 247.92 237.53 269.60 253.50
  Q 269.99 253.79 270.39 253.50
  Q 292.11 237.52 307.99 215.29"
/>
<path stroke="#808080" vector-effect="non-scaling-stroke" d="
  M 307.99 215.29
  L 311.78 206.98
  Q 312.09 206.30 311.34 206.29
  L 288.69 206.12"
/>
<path stroke="#644c00" vector-effect="non-scaling-stroke" d="
  M 288.69 206.12
  Q 296.89 199.07 300.04 189.00"
/>
<path stroke="#5e5e5d" vector-effect="non-scaling-stroke" d="
  M 300.04 189.00
  Q 303.25 188.23 305.72 186.05
  Q 306.06 185.75 306.51 185.75
  L 314.12 185.75
  Q 314.75 185.75 314.75 185.13
  L 314.75 177.30
  Q 314.75 176.82 314.27 176.81
  C 310.93 176.72 309.05 176.49 305.87 174.71
  Q 303.28 173.26 300.29 172.75"
/>
<path stroke="#644c00" vector-effect="non-scaling-stroke" d="
  M 300.29 172.75
  Q 296.66 162.14 288.00 155.04"
/>
<path stroke="#808080" vector-effect="non-scaling-stroke" d="
  M 288.00 155.04
  L 314.49 155.19
  Q 315.03 155.19 315.03 154.65
  L 314.96 146.50"
/>
<path stroke="#4b6275" vector-effect="non-scaling-stroke" d="
  M 314.96 146.50
  L 314.97 100.72
  Q 314.97 100.17 314.44 100.32
  C 292.00 106.66 270.50 110.53 247.25 105.48
  Q 232.43 102.27 225.53 100.37
  Q 225.03 100.24 225.03 100.76
  L 225.04 146.50"
/>
<path stroke="#cae2f5" vector-effect="non-scaling-stroke" d="
  M 314.96 146.50
  L 277.57 146.61
  A 0.91 0.91 0.0 0 0 276.88 148.11
  Q 277.68 149.04 277.75 150.71"
/>
<path stroke="#aeae75" vector-effect="non-scaling-stroke" d="
  M 277.75 150.71
  Q 276.13 151.01 275.50 152.46"
/>
<path stroke="#b16b8d" vector-effect="non-scaling-stroke" d="
  M 275.50 152.46
  Q 274.61 153.70 275.04 155.25"
/>
<path stroke="#aeae75" vector-effect="non-scaling-stroke" d="
  M 275.04 155.25
  L 275.29 157.25"
/>
<path stroke="#a0b8ca" vector-effect="non-scaling-stroke" d="
  M 275.29 157.25
  L 274.75 158.04"
/>
<path stroke="#4b6275" vector-effect="non-scaling-stroke" d="
  M 274.75 158.04
  Q 274.33 158.04 274.26 157.82
  Q 272.75 152.97 276.25 150.18
  Q 276.69 149.83 276.54 149.29
  Q 275.95 147.13 274.33 145.68
  Q 273.92 145.32 273.95 144.77
  L 274.31 137.37
  A 0.44 0.44 0.0 0 0 273.87 136.91
  L 267.37 136.91
  Q 266.91 136.91 266.92 137.38
  Q 267.11 142.75 263.97 146.95
  A 2.43 2.43 0.0 0 0 263.55 147.88
  L 262.96 150.50"
/>
<path stroke="#a0b8ca" vector-effect="non-scaling-stroke" d="
  M 262.96 150.50
  L 262.29 149.00"
/>
<path stroke="#cae2f5" vector-effect="non-scaling-stroke" d="
  M 262.29 149.00
  Q 262.02 148.10 262.71 147.86
  Q 263.15 147.70 262.98 147.27
  C 262.73 146.64 226.94 146.55 225.04 146.50"
/>
<path stroke="#c1aa5d" vector-effect="non-scaling-stroke" d="
  M 300.29 172.75
  L 299.25 173.54"
/>
<path stroke="#e3cc80" vector-effect="non-scaling-stroke" d="
  M 299.25 173.54
  L 292.54 173.75"
/>
<path stroke="#644c00" vector-effect="non-scaling-stroke" d="
  M 292.54 173.75
  Q 288.99 161.79 277.04 158.25"
/>
<path stroke="#ca5518" vector-effect="non-scaling-stroke" d="
  M 275.04 155.25
  Q 289.00 158.26 294.47 171.32
  C 294.96 172.49 295.93 172.90 296.95 172.10
  A 0.68 0.68 0.0 0 0 297.17 171.32
  Q 291.34 156.32 275.50 152.46"
/>
<path stroke="#b9a255" vector-effect="non-scaling-stroke" d="
  M 275.29 157.25
  L 277.04 158.25"
/>
<path stroke="#565655" vector-effect="non-scaling-stroke" d="
  M 277.04 158.25
  Q 276.18 161.22 273.16 161.26
  Q 272.65 161.27 272.26 161.60
  Q 270.02 163.52 268.00 161.27
  A 1.00 0.98 -26.4 0 0 267.05 160.96
  Q 265.40 161.31 264.79 159.87
  Q 264.58 159.38 264.14 159.09
  L 262.54 158.00"
/>
<path stroke="#b9a255" vector-effect="non-scaling-stroke" d="
  M 262.54 158.00
  L 261.71 156.00"
/>
<path stroke="#bc5f6d" vector-effect="non-scaling-stroke" d="
  M 261.71 156.00
  L 261.96 153.25"
/>
<path stroke="#b9a255" vector-effect="non-scaling-stroke" d="
  M 261.96 153.25
  L 261.71 150.75"
/>
<path stroke="#d5d6d5" vector-effect="non-scaling-stroke" d="
  M 262.29 149.00
  L 261.71 150.75"
/>
<path stroke="#e3cc80" vector-effect="non-scaling-stroke" d="
  M 261.71 150.75
  L 251.50 155.04"
/>
<path stroke="#e3cc80" vector-effect="non-scaling-stroke" d="
  M 288.00 155.04
  L 277.75 150.71"
/>
<path stroke="#565655" vector-effect="non-scaling-stroke" d="
  M 274.75 158.04
  C 276.47 159.44 273.66 161.09 272.27 159.51
  Q 271.96 159.14 271.90 158.67
  Q 271.79 157.65 271.41 156.72
  A 0.33 0.32 38.4 0 0 270.79 156.79
  Q 270.51 158.50 271.52 159.87
  A 1.11 1.11 0.0 0 1 270.02 161.46
  Q 267.39 159.74 268.07 156.54
  A 0.49 0.49 0.0 0 0 267.14 156.25
  Q 266.67 157.38 267.27 159.21
  A 0.69 0.69 0.0 0 1 266.06 159.83
  Q 264.63 157.85 265.44 154.89
  C 265.50 154.64 265.41 154.41 265.20 154.32
  A 0.51 0.50 19.6 0 0 264.51 154.64
  L 263.88 157.01
  A 0.45 0.45 0.0 0 1 263.00 156.90
  L 262.96 150.50"
/>
<path stroke="#d5d6d5" vector-effect="non-scaling-stroke" d="
  M 290.46 185.25
  Q 290.15 183.39 293.28 182.28
  Q 293.99 182.02 293.36 181.60
  Q 292.69 181.14 290.84 182.53
  A 1.07 1.07 0.0 0 1 289.21 181.26
  Q 290.69 177.68 294.98 179.07
  A 0.27 0.26 71.2 0 0 295.21 178.60
  Q 293.35 177.30 291.41 178.33
  A 0.72 0.71 55.3 0 1 290.53 178.16
  Q 289.96 177.50 290.21 176.50"
/>
<path stroke="#d5d6d5" vector-effect="non-scaling-stroke" d="
  M 291.25 175.46
  L 296.00 176.15
  Q 296.48 176.22 296.28 175.78
  C 295.88 174.90 293.37 175.57 292.21 174.50"
/>
<path stroke="#808080" vector-effect="non-scaling-stroke" d="
  M 292.54 173.75
  L 292.21 174.50"
/>
<path stroke="#565655" vector-effect="non-scaling-stroke" d="
  M 292.21 174.50
  L 291.25 175.46"
/>
<path stroke="#808080" vector-effect="non-scaling-stroke" d="
  M 291.25 175.46
  L 290.21 176.50"
/>
<path stroke="#565655" vector-effect="non-scaling-stroke" d="
  M 290.21 176.50
  L 288.18 180.90
  Q 287.95 181.40 288.31 181.82
  L 289.42 183.11
  A 0.80 0.79 32.8 0 1 289.58 183.83
  Q 289.23 185.11 290.21 186.00"
/>
<path stroke="#5e5e5d" vector-effect="non-scaling-stroke" d="
  M 290.21 186.00
  Q 290.78 187.19 292.73 188.11"
/>
<path stroke="#644c00" vector-effect="non-scaling-stroke" d="
  M 292.73 188.11
  Q 288.63 199.29 277.50 203.54"
/>
<path stroke="#565655" vector-effect="non-scaling-stroke" d="
  M 277.50 203.54
  L 274.32 200.68
  A 0.78 0.76 62.0 0 0 273.72 200.49
  L 273.31 200.55
  Q 272.80 200.62 272.35 200.38
  L 269.85 199.05
  Q 269.35 198.78 268.89 199.12
  C 266.35 200.99 264.18 199.83 262.75 203.46"
/>
<path stroke="#644c00" vector-effect="non-scaling-stroke" d="
  M 262.75 203.46
  Q 251.59 199.54 247.21 188.50"
/>
<path stroke="#5e5e5d" vector-effect="non-scaling-stroke" d="
  M 247.21 188.50
  Q 247.92 186.59 249.65 185.59
  Q 250.08 185.34 250.08 184.83
  C 250.09 182.68 253.17 180.43 250.93 178.82
  A 0.96 0.95 -70.9 0 1 250.54 178.01
  Q 250.63 174.83 247.54 174.00"
/>
<path stroke="#c1aa5d" vector-effect="non-scaling-stroke" d="
  M 300.04 189.00
  Q 299.92 187.06 298.25 186.54"
/>
<path stroke="#c46775" vector-effect="non-scaling-stroke" d="
  M 298.25 186.54
  L 296.75 185.96"
/>
<path stroke="#c1aa5d" vector-effect="non-scaling-stroke" d="
  M 296.75 185.96
  Q 292.89 184.69 292.73 188.11"
/>
<path stroke="#b3b4b2" vector-effect="non-scaling-stroke" d="
  M 290.21 186.00
  L 290.46 185.25"
/>
<path stroke="#dddedd" vector-effect="non-scaling-stroke" d="
  M 290.46 185.25
  Q 290.97 186.76 292.03 186.07
  Q 297.18 182.75 300.44 187.06
  Q 300.76 187.49 301.29 187.35
  Q 303.38 186.77 304.96 185.16
  Q 305.36 184.75 305.94 184.75
  L 312.84 184.75
  Q 313.42 184.75 313.43 184.17
  L 313.53 178.61
  Q 313.54 178.06 312.99 178.04
  C 307.64 177.76 304.40 174.59 299.25 173.54"
/>
<path stroke="#644c00" vector-effect="non-scaling-stroke" d="
  M 262.54 158.00
  Q 251.49 162.22 247.25 173.25
  Q 247.12 173.58 247.54 174.00"
/>
<path stroke="#c1aa5d" vector-effect="non-scaling-stroke" d="
  M 247.54 174.00
  Q 246.66 174.73 247.29 175.75"
/>
<path stroke="#e3cc80" vector-effect="non-scaling-stroke" d="
  M 247.29 175.75
  L 246.75 176.29"
/>
<path stroke="#b9a255" vector-effect="non-scaling-stroke" d="
  M 246.75 176.29
  Q 245.22 176.49 244.00 175.71"
/>
<path stroke="#ca5518" vector-effect="non-scaling-stroke" d="
  M 261.96 153.25
  Q 245.90 158.52 241.71 175.00"
/>
<path stroke="#b9a255" vector-effect="non-scaling-stroke" d="
  M 241.71 175.00
  Q 240.12 174.25 239.96 172.50"
/>
<path stroke="#ca5518" vector-effect="non-scaling-stroke" d="
  M 261.71 156.00
  Q 247.78 161.22 244.00 175.71"
/>
<path stroke="#bc5f6d" vector-effect="non-scaling-stroke" d="
  M 244.00 175.71
  Q 242.49 176.53 241.71 175.00"
/>
<path stroke="#b3b4b2" vector-effect="non-scaling-stroke" d="
  M 277.29 204.25
  L 277.04 205.00"
/>
<path stroke="#565655" vector-effect="non-scaling-stroke" d="
  M 277.04 205.00
  Q 277.03 204.78 276.99 204.56
  Q 276.89 204.00 276.40 204.29
  L 276.15 204.44
  A 0.39 0.38 -19.7 0 0 275.97 204.81
  Q 276.16 206.39 275.10 207.36
  A 0.37 0.37 0.0 0 1 274.50 206.99
  Q 275.24 204.33 274.01 201.90
  A 0.59 0.59 0.0 0 0 272.89 202.17
  L 272.95 205.50
  A 0.30 0.30 0.0 0 1 272.49 205.76
  L 272.21 205.59
  Q 271.81 205.35 271.91 204.90
  Q 272.58 201.87 270.16 200.22
  A 0.99 0.99 0.0 0 0 268.65 201.31
  L 269.49 204.22
  A 0.54 0.54 0.0 0 1 268.48 204.60
  Q 268.04 203.68 267.99 202.69
  A 0.98 0.97 -75.8 0 0 267.52 201.89
  Q 266.22 201.09 264.95 201.96
  Q 264.50 202.26 264.81 202.70
  Q 268.26 207.70 263.71 211.49
  Q 263.34 211.79 263.46 212.26
  Q 263.95 214.24 265.69 216.06"
/>
<path stroke="#a0b8ca" vector-effect="non-scaling-stroke" d="
  M 265.69 216.06
  Q 263.99 216.83 263.00 214.71"
/>
<path stroke="#d5d6d5" vector-effect="non-scaling-stroke" d="
  M 263.00 214.71
  Q 262.96 213.90 262.52 213.25
  Q 262.23 212.82 262.41 212.33
  Q 262.79 211.32 261.75 210.79"
/>
<path stroke="#ca5518" vector-effect="non-scaling-stroke" d="
  M 296.75 185.96
  Q 295.70 185.98 295.43 186.98
  Q 291.74 200.83 278.29 205.50"
/>
<path stroke="#c1aa5d" vector-effect="non-scaling-stroke" d="
  M 278.29 205.50
  L 277.29 204.25"
/>
<path stroke="#b9a255" vector-effect="non-scaling-stroke" d="
  M 277.29 204.25
  L 277.50 203.54"
/>
<path stroke="#b9a255" vector-effect="non-scaling-stroke" d="
  M 262.75 203.46
  Q 265.62 203.86 264.96 206.75"
/>
<path stroke="#ca5518" vector-effect="non-scaling-stroke" d="
  M 264.96 206.75
  Q 250.23 203.00 245.00 188.79"
/>
<path stroke="#c1aa5d" vector-effect="non-scaling-stroke" d="
  M 247.21 188.50
  L 246.00 188.46"
/>
<path stroke="#e3cc80" vector-effect="non-scaling-stroke" d="
  M 288.69 206.12
  Q 283.99 209.06 278.25 210.71"
/>
<path stroke="#c1aa5d" vector-effect="non-scaling-stroke" d="
  M 278.25 210.71
  L 278.04 208.50"
/>
<path stroke="#ca5518" vector-effect="non-scaling-stroke" d="
  M 298.25 186.54
  Q 294.11 203.05 278.04 208.50"
/>
<path stroke="#c46775" vector-effect="non-scaling-stroke" d="
  M 278.04 208.50
  L 278.29 205.50"
/>
<path stroke="#d5d6d5" vector-effect="non-scaling-stroke" d="
  M 246.75 176.29
  C 244.43 176.70 240.18 178.08 239.78 174.21
  A 0.86 0.86 0.0 0 0 238.12 173.97
  Q 237.85 174.62 237.02 174.50
  A 0.77 0.76 -70.8 0 0 236.24 174.88
  C 234.51 177.96 229.61 176.41 226.60 177.11
  Q 225.97 177.26 226.15 177.89
  Q 226.87 180.46 226.29 183.04
  A 0.58 0.58 0.0 0 0 226.86 183.75
  Q 231.85 183.74 235.80 186.58
  Q 236.23 186.88 236.73 187.03
  L 240.75 188.21"
/>
<path stroke="#b9a255" vector-effect="non-scaling-stroke" d="
  M 240.75 188.21
  L 239.75 188.79"
/>
<path stroke="#dddedd" vector-effect="non-scaling-stroke" d="
  M 247.29 175.75
  Q 247.99 175.38 248.79 175.52
  Q 249.32 175.60 249.45 176.12
  Q 249.89 177.93 248.18 178.77
  A 2.27 2.17 -56.6 0 1 247.22 178.99
  Q 246.60 178.98 246.06 179.33
  A 0.38 0.38 0.0 0 0 246.27 180.03
  Q 248.06 180.03 249.54 179.03
  A 0.62 0.62 0.0 0 1 250.43 179.25
  C 251.89 182.00 247.71 183.06 245.66 182.78
  Q 245.18 182.72 245.24 183.20
  C 245.37 184.19 248.30 183.64 248.94 183.61
  A 0.74 0.74 0.0 0 1 249.26 185.03
  Q 246.59 186.12 243.97 185.23
  A 0.46 0.46 0.0 0 0 243.47 185.97
  Q 244.31 186.95 245.60 187.14
  A 0.79 0.78 -3.5 0 1 246.23 187.69
  Q 246.35 188.10 246.00 188.46"
/>
<path stroke="#e3cc80" vector-effect="non-scaling-stroke" d="
  M 246.00 188.46
  L 245.00 188.79"
/>
<path stroke="#e68897" vector-effect="non-scaling-stroke" d="
  M 245.00 188.79
  L 243.00 188.71"
/>
<path stroke="#e3cc80" vector-effect="non-scaling-stroke" d="
  M 243.00 188.71
  L 240.75 188.21"
/>
<path stroke="#cae2f5" vector-effect="non-scaling-stroke" d="
  M 263.00 214.71
  L 231.98 215.23"
/>
<path stroke="#dddedd" vector-effect="non-scaling-stroke" d="
  M 278.25 210.71
  L 277.50 211.96"
/>
<path stroke="#a8c0d2" vector-effect="non-scaling-stroke" d="
  M 277.50 211.96
  L 277.04 211.50"
/>
<path stroke="#ca5518" vector-effect="non-scaling-stroke" d="
  M 243.00 188.71
  Q 242.50 189.35 242.75 190.00
  Q 248.60 205.22 264.50 209.29"
/>
<path stroke="#b9a255" vector-effect="non-scaling-stroke" d="
  M 264.50 209.29
  Q 263.51 210.71 261.75 210.79"
/>
<path stroke="#e3cc80" vector-effect="non-scaling-stroke" d="
  M 261.75 210.79
  Q 256.48 209.22 251.87 206.30"
/>
<path stroke="#5e5e5d" vector-effect="non-scaling-stroke" d="
  M 277.04 205.00
  L 277.04 211.50"
/>
<path stroke="#4b6275" vector-effect="non-scaling-stroke" d="
  M 277.04 211.50
  C 276.23 214.72 274.10 217.05 273.51 220.08
  Q 273.13 222.04 272.93 224.03
  Q 272.88 224.49 272.43 224.50
  L 266.65 224.70
  A 0.84 0.84 0.0 0 1 265.78 223.87
  L 265.69 216.06"
/>
<path stroke="#bc5f6d" vector-effect="non-scaling-stroke" d="
  M 264.96 206.75
  L 264.50 209.29"
/>
<path stroke="#cae2f5" vector-effect="non-scaling-stroke" d="
  M 307.99 215.29
  L 277.80 215.03
  Q 277.19 215.03 277.25 214.43
  L 277.50 211.96"
/>
<path stroke="#645001" vector-effect="non-scaling-stroke" d="
  M 196.77 255.83
  A 0.46 0.46 0.0 0 1 196.25 255.12
  Q 197.39 253.48 197.60 251.43
  A 0.31 0.31 0.0 0 0 197.01 251.25
  Q 194.93 255.30 193.11 259.48
  A 0.35 0.34 -74.6 0 0 193.38 259.96
  L 193.65 260.00
  A 0.32 0.30 18.0 0 0 193.95 259.86
  L 195.64 257.11
  A 0.59 0.59 0.0 0 1 196.63 257.09
  C 197.52 258.46 197.48 261.73 198.51 262.34
  A 0.41 0.41 0.0 0 0 199.12 261.92
  L 198.33 257.35
  A 1.17 1.16 83.9 0 1 199.42 255.99
  Q 201.09 255.92 202.29 254.73
  A 0.35 0.35 0.0 0 0 201.94 254.15
  L 196.77 255.83"
/>
<path stroke="#644c00" vector-effect="non-scaling-stroke" d="
  M 346.41 259.39
  C 344.62 257.63 342.10 255.06 339.93 253.85
  A 0.66 0.66 0.0 0 0 338.94 254.47
  L 339.49 262.71
  A 0.40 0.40 0.0 0 0 340.13 263.00
  Q 341.10 262.24 340.57 261.21
  Q 340.29 260.66 340.71 260.22
  Q 343.25 257.53 345.35 260.12
  Q 345.67 260.53 346.08 260.22
  L 346.36 260.02
  Q 346.75 259.73 346.41 259.39"
/>
<path stroke="#645001" vector-effect="non-scaling-stroke" d="
  M 205.12 257.08
  L 208.62 258.62
  Q 208.84 258.72 208.92 258.49
  Q 208.96 258.37 208.99 258.24
  Q 209.10 257.68 208.57 257.45
  L 204.12 255.55
  Q 203.53 255.30 203.27 255.87
  L 200.29 262.45
  Q 200.01 263.05 200.61 263.33
  L 205.37 265.51
  A 0.54 0.53 70.6 0 0 205.83 264.54
  Q 203.97 263.59 202.05 262.83
  Q 201.51 262.61 201.77 262.10
  L 202.61 260.43
  Q 202.80 260.07 203.18 260.22
  Q 205.13 261.02 207.03 261.96
  A 0.37 0.37 0.0 0 0 207.46 261.38
  Q 206.12 259.93 204.15 259.55
  Q 203.65 259.46 203.47 258.98
  Q 203.10 257.99 204.31 257.16
  Q 204.69 256.90 205.12 257.08"
/>
<path stroke="#645001" vector-effect="non-scaling-stroke" d="
  M 336.02 261.62
  Q 334.30 260.10 333.09 258.13
  A 1.06 1.05 -7.8 0 0 332.45 257.65
  C 329.90 257.02 331.58 262.36 331.75 263.75
  Q 331.86 264.58 331.26 263.99
  C 330.43 263.16 327.95 259.34 327.12 259.30
  A 0.43 0.43 0.0 0 0 326.76 260.00
  L 331.92 266.55
  A 0.54 0.54 0.0 0 0 332.89 266.20
  Q 332.79 263.03 332.15 259.95
  A 0.44 0.44 0.0 0 1 332.93 259.59
  L 336.41 264.08
  A 0.75 0.75 0.0 0 0 337.75 263.51
  L 336.64 255.65
  A 0.17 0.17 0.0 0 0 336.47 255.50
  Q 336.31 255.50 336.14 255.50
  Q 335.56 255.51 335.65 256.09
  L 336.46 261.38
  Q 336.58 262.12 336.02 261.62"
/>
<path stroke="#645001" vector-effect="non-scaling-stroke" d="
  M 217.22 267.04
  C 217.56 269.57 212.54 268.35 212.56 265.40
  C 212.57 262.71 214.52 260.65 217.40 262.02
  Q 217.82 262.23 217.98 262.66
  L 218.51 264.07
  Q 218.75 264.70 219.34 264.40
  C 221.32 263.39 215.90 257.90 212.45 262.04
  C 209.35 265.76 212.76 270.37 217.12 269.41
  A 2.32 1.54 -37.4 0 0 218.39 265.74
  Q 216.72 265.56 215.93 264.83
  A 0.39 0.39 0.0 0 0 215.29 265.25
  Q 215.65 266.24 216.64 266.43
  Q 217.15 266.52 217.22 267.04"
/>
<path stroke="#645001" vector-effect="non-scaling-stroke" d="
  M 325.69 267.16
  C 325.20 266.13 323.85 261.37 322.84 260.94
  A 0.46 0.46 0.0 0 0 322.24 261.53
  L 324.98 268.63
  A 0.68 0.68 0.0 0 0 325.83 269.02
  Q 327.81 268.37 329.72 267.49
  A 0.57 0.42 -56.6 0 0 329.67 266.50
  Q 328.24 266.90 326.90 267.57
  A 0.89 0.89 0.0 0 1 325.69 267.16"
/>
<path stroke="#645001" vector-effect="non-scaling-stroke" d="
  M 317.76 269.02
  A 1.31 1.31 0.0 0 1 318.76 267.37
  Q 320.80 266.96 322.49 265.73
  A 0.29 0.29 0.0 0 0 322.25 265.21
  Q 319.95 265.77 317.86 266.82
  Q 317.38 267.07 317.16 266.57
  L 316.47 265.03
  A 0.61 0.60 -21.8 0 1 316.82 264.22
  L 320.57 262.85
  A 0.46 0.46 0.0 0 0 320.26 261.98
  L 315.36 263.67
  A 0.57 0.56 71.4 0 0 315.01 264.39
  L 317.41 271.31
  Q 317.61 271.89 318.20 271.71
  Q 321.06 270.85 323.81 269.67
  A 0.30 0.30 0.0 0 0 323.65 269.09
  Q 321.08 269.44 318.73 270.52
  A 0.46 0.46 0.0 0 1 318.10 270.23
  L 317.76 269.02"
/>
<path stroke="#645001" vector-effect="non-scaling-stroke" d="
  M 222.7033 272.1651
  A 4.45 4.14 108.7 0 0 228.0515 269.2773
  A 4.45 4.14 108.7 0 0 225.5567 263.7349
  A 4.45 4.14 108.7 0 0 220.2085 266.6227
  A 4.45 4.14 108.7 0 0 222.7033 272.1651"
/>
<path stroke="#645001" vector-effect="non-scaling-stroke" d="
  M 308.43 268.63
  A 0.35 0.35 0.0 0 1 308.98 268.24
  L 314.35 272.78
  A 0.68 0.68 0.0 0 0 315.44 272.07
  L 313.30 264.63
  Q 313.21 264.34 312.92 264.44
  Q 312.78 264.49 312.62 264.54
  Q 312.30 264.65 312.38 264.98
  L 313.79 270.19
  Q 314.04 271.13 313.29 270.51
  L 307.82 265.97
  A 0.45 0.45 0.0 0 0 307.09 266.35
  Q 307.41 270.56 309.46 274.12
  A 0.30 0.30 0.0 0 0 310.01 273.91
  Q 309.42 271.24 308.43 268.63"
/>
<path stroke="#645001" vector-effect="non-scaling-stroke" d="
  M 236.93 268.28
  Q 238.17 268.91 239.54 268.53
  A 0.38 0.38 0.0 0 0 239.53 267.79
  L 232.85 266.14
  A 0.49 0.49 0.0 0 0 232.58 267.08
  L 234.67 267.74
  A 0.62 0.62 0.0 0 1 235.08 268.48
  L 233.42 274.91
  Q 233.33 275.26 233.69 275.25
  Q 233.82 275.25 233.96 275.26
  A 0.74 0.74 0.0 0 0 234.74 274.70
  L 236.18 268.63
  Q 236.33 267.98 236.93 268.28"
/>
<path stroke="#645001" vector-effect="non-scaling-stroke" d="
  M 305.89 273.54
  Q 306.21 274.69 307.31 275.08
  A 0.46 0.46 0.0 0 0 307.84 274.38
  L 302.70 267.35
  A 0.58 0.58 0.0 0 0 301.66 267.57
  Q 300.73 272.12 300.39 276.73
  A 0.35 0.35 0.0 0 0 301.05 276.90
  Q 301.62 275.61 301.76 274.22
  Q 301.82 273.59 302.44 273.46
  L 304.96 272.97
  Q 305.69 272.83 305.89 273.54"
/>
<path stroke="#645001" vector-effect="non-scaling-stroke" d="
  M 240.36 272.05
  L 243.49 273.86
  A 1.24 1.24 0.0 0 1 242.94 276.17
  Q 240.29 276.33 239.70 273.80
  A 0.41 0.41 0.0 0 0 238.93 273.70
  C 237.47 276.48 242.45 277.56 244.25 277.06
  A 2.08 2.08 0.0 0 0 244.74 273.25
  L 241.48 271.36
  A 1.03 1.03 0.0 0 1 241.88 269.45
  Q 244.21 269.18 244.91 271.26
  A 0.45 0.44 57.5 0 0 245.65 271.43
  C 247.75 269.20 239.12 266.13 239.74 271.11
  A 1.29 1.28 11.7 0 0 240.36 272.05"
/>
<path stroke="#645001" vector-effect="non-scaling-stroke" d="
  M 292.69 277.06
  C 295.16 278.52 300.51 277.14 298.59 273.17
  Q 298.38 272.72 297.89 272.75
  Q 296.56 272.84 295.28 273.26
  A 0.35 0.35 0.0 0 0 295.32 273.94
  Q 296.02 274.08 296.80 273.96
  A 1.02 1.02 0.0 0 1 297.57 275.78
  C 290.38 281.15 290.33 265.23 297.29 271.02
  A 0.45 0.45 0.0 0 0 297.99 270.49
  C 296.64 267.51 292.23 269.13 291.22 271.21
  C 290.30 273.08 290.83 275.97 292.69 277.06"
/>
<path stroke="#645001" vector-effect="non-scaling-stroke" d="
  M 252.69 275.43
  L 252.26 278.23
  Q 252.20 278.60 252.56 278.71
  C 254.08 279.13 254.67 270.57 254.00 270.40
  A 0.54 0.54 0.0 0 0 253.34 270.84
  L 252.92 273.39
  Q 252.85 273.86 252.39 273.76
  L 249.25 273.11
  A 0.73 0.72 14.0 0 1 248.70 272.20
  Q 249.16 270.64 248.67 269.20
  A 0.36 0.36 0.0 0 0 247.98 269.26
  Q 247.36 273.30 246.78 277.33
  Q 246.72 277.74 247.10 277.92
  C 248.16 278.41 248.19 275.39 248.34 274.72
  Q 248.46 274.19 248.99 274.28
  L 252.23 274.80
  Q 252.77 274.89 252.69 275.43"
/>
<path stroke="#644c00" vector-effect="non-scaling-stroke" d="
  M 288.27 276.57
  L 289.62 278.60
  A 0.24 0.24 0.0 0 0 290.00 278.63
  Q 290.11 278.51 290.29 278.36
  Q 290.58 278.14 290.41 277.83
  L 286.44 270.57
  A 0.85 0.84 -52.2 0 0 284.88 270.77
  L 282.83 279.00
  A 0.41 0.41 0.0 0 0 283.51 279.39
  Q 284.36 278.59 284.30 277.40
  A 0.72 0.71 83.6 0 1 284.88 276.66
  L 287.36 276.19
  Q 287.94 276.07 288.27 276.57"
/>
<path stroke="#644c00" vector-effect="non-scaling-stroke" d="
  M 257.35 276.72
  L 256.64 271.24
  A 0.56 0.55 -52.1 0 0 255.54 271.38
  Q 256.01 275.41 257.10 279.30
  A 0.43 0.43 0.0 0 0 257.89 279.39
  Q 259.48 276.58 260.15 273.42
  Q 260.34 272.53 260.68 273.37
  C 261.18 274.61 261.83 279.10 262.62 279.70
  A 0.57 0.57 0.0 0 0 263.50 279.44
  L 266.20 271.82
  A 0.47 0.47 0.0 0 0 265.35 271.44
  Q 264.10 273.74 263.74 276.34
  A 0.57 0.57 0.0 0 1 262.62 276.36
  L 261.75 271.65
  A 0.86 0.86 0.0 0 0 260.12 271.47
  L 257.80 276.79
  Q 257.46 277.58 257.35 276.72"
/>
<path stroke="#645001" vector-effect="non-scaling-stroke" d="
  M 275.76 277.05
  A 1.43 1.43 0.0 0 1 278.29 276.15
  L 281.02 279.47
  A 0.50 0.50 0.0 0 0 281.85 278.91
  Q 280.87 277.12 279.49 275.65
  Q 279.09 275.22 279.68 275.24
  Q 279.82 275.25 279.96 275.25
  Q 280.46 275.27 280.74 274.85
  C 283.61 270.62 276.66 270.81 274.78 271.37
  Q 274.32 271.50 274.35 271.98
  L 274.85 279.52
  A 0.44 0.44 0.0 0 0 275.73 279.50
  L 275.76 277.05"
/>
<path stroke="#645001" vector-effect="non-scaling-stroke" d="
  M 268.57 277.35
  L 271.02 277.50
  A 0.67 0.66 -8.2 0 1 271.60 277.93
  L 272.21 279.50
  A 0.58 0.58 0.0 0 0 273.29 279.09
  Q 271.89 275.29 270.34 271.57
  A 0.75 0.75 0.0 0 0 268.95 271.58
  L 265.76 279.53
  A 0.46 0.46 0.0 0 0 266.59 279.93
  L 267.84 277.74
  Q 268.08 277.32 268.57 277.35"
/>
<path stroke="#644c00" vector-effect="non-scaling-stroke" d="
  M 340.34 258.43
  A 0.37 0.37 0.0 0 0 340.88 258.70
  L 342.35 257.91
  A 0.37 0.37 0.0 0 0 342.44 257.32
  L 340.57 255.45
  A 0.37 0.37 0.0 0 0 339.95 255.76
  L 340.34 258.43"
/>
<path stroke="#645001" vector-effect="non-scaling-stroke" d="
  M 223.1730 271.2066
  A 3.40 2.92 106.7 0 0 226.9468 268.7891
  A 3.40 2.92 106.7 0 0 225.1270 264.6934
  A 3.40 2.92 106.7 0 0 221.3532 267.1109
  A 3.40 2.92 106.7 0 0 223.1730 271.2066"
/>
<path stroke="#645001" vector-effect="non-scaling-stroke" d="
  M 302.21 271.04
  Q 302.22 271.63 302.70 271.95
  Q 303.95 272.78 304.02 271.32
  Q 304.04 270.82 303.75 270.42
  L 302.94 269.31
  Q 302.40 268.56 302.28 269.48
  Q 302.19 270.13 302.21 271.04"
/>
<path stroke="#644c00" vector-effect="non-scaling-stroke" d="
  M 285.34 273.34
  L 285.07 275.00
  A 0.52 0.51 86.5 0 0 285.72 275.58
  L 286.69 275.29
  Q 286.93 275.22 286.97 274.98
  Q 287.20 273.63 286.29 272.95
  Q 285.49 272.35 285.34 273.34"
/>
<path stroke="#645001" vector-effect="non-scaling-stroke" d="
  M 275.48 272.80
  L 275.59 274.48
  A 0.65 0.65 0.0 0 0 276.27 275.08
  L 277.92 274.98
  A 2.18 1.27 -3.5 0 0 280.02 273.58
  L 279.99 273.14
  A 2.18 1.27 -3.5 0 0 277.74 272.01
  L 276.09 272.11
  A 0.65 0.65 0.0 0 0 275.48 272.80"
/>
<path stroke="#645001" vector-effect="non-scaling-stroke" d="
  M 269.17 273.64
  L 268.51 275.54
  A 0.55 0.54 -81.4 0 0 269.04 276.26
  L 270.25 276.23
  Q 271.02 276.21 270.71 275.50
  L 269.89 273.62
  Q 269.49 272.70 269.17 273.64"
/>
</g>
<path fill="#95c4ea" d="
  M 0.00 0.00
  L 540.00 0.00
  L 540.00 360.00
  L 0.00 360.00
  L 0.00 0.00
  Z
  M 324.95 285.95
  L 322.82 288.05
  Q 322.48 288.38 322.72 288.79
  C 325.40 293.29 330.55 297.87 335.79 295.49
  Q 337.72 294.61 341.32 290.52
  Q 353.05 277.18 365.67 264.67
  C 367.85 262.50 371.64 258.68 371.64 255.58
  C 371.65 252.21 368.82 247.65 364.82 247.99
  Q 364.34 248.03 364.00 248.38
  L 361.16 251.21
  A 0.82 0.82 0.0 0 1 359.88 251.06
  Q 351.74 237.70 348.32 222.29
  C 339.30 181.57 337.14 133.74 358.51 96.08
  Q 358.85 95.47 359.21 96.07
  L 362.07 100.78
  Q 362.30 101.16 362.71 100.99
  C 368.34 98.66 374.03 93.84 372.22 87.49
  Q 371.87 86.27 368.46 80.22
  Q 357.89 61.53 345.87 43.70
  C 341.00 36.48 334.37 39.90 328.66 43.39
  Q 328.15 43.71 328.46 44.23
  L 332.48 51.03
  Q 332.83 51.62 332.19 51.89
  Q 322.54 55.90 309.56 58.57
  C 276.41 65.38 238.82 64.40 207.84 51.91
  A 0.63 0.63 0.0 0 1 207.53 51.01
  L 211.57 44.10
  Q 211.83 43.66 211.38 43.40
  C 206.20 40.41 199.10 36.38 194.58 43.05
  Q 181.15 62.87 169.54 83.84
  C 164.80 92.43 169.53 97.29 177.10 101.03
  Q 177.62 101.29 177.93 100.79
  L 180.88 95.97
  A 0.35 0.35 0.0 0 1 181.48 95.99
  C 202.44 133.27 200.67 178.83 192.22 219.24
  C 189.93 230.18 186.28 241.85 179.80 251.35
  Q 179.48 251.82 179.07 251.43
  C 177.49 249.91 175.09 246.47 172.46 248.46
  Q 164.46 254.52 171.39 261.60
  Q 188.37 278.96 199.09 290.98
  C 206.02 298.75 211.99 297.08 217.28 288.90
  Q 217.57 288.45 217.19 288.06
  L 214.97 285.84
  Q 214.55 285.42 215.10 285.22
  Q 220.65 283.12 225.75 283.25
  C 249.08 283.84 263.88 300.14 269.73 321.60
  A 0.27 0.26 -44.8 0 0 270.24 321.60
  C 276.49 299.12 291.36 283.62 315.75 283.20
  Q 319.26 283.14 324.79 285.19
  Q 325.47 285.44 324.95 285.95
  Z"
/>
<path fill="#000000" d="
  M 324.79 285.19
  Q 319.26 283.14 315.75 283.20
  C 291.36 283.62 276.49 299.12 270.24 321.60
  A 0.27 0.26 -44.8 0 1 269.73 321.60
  C 263.88 300.14 249.08 283.84 225.75 283.25
  Q 220.65 283.12 215.10 285.22
  Q 214.55 285.42 214.97 285.84
  L 217.19 288.06
  Q 217.57 288.45 217.28 288.90
  C 211.99 297.08 206.02 298.75 199.09 290.98
  Q 188.37 278.96 171.39 261.60
  Q 164.46 254.52 172.46 248.46
  C 175.09 246.47 177.49 249.91 179.07 251.43
  Q 179.48 251.82 179.80 251.35
  C 186.28 241.85 189.93 230.18 192.22 219.24
  C 200.67 178.83 202.44 133.27 181.48 95.99
  A 0.35 0.35 0.0 0 0 180.88 95.97
  L 177.93 100.79
  Q 177.62 101.29 177.10 101.03
  C 169.53 97.29 164.80 92.43 169.54 83.84
  Q 181.15 62.87 194.58 43.05
  C 199.10 36.38 206.20 40.41 211.38 43.40
  Q 211.83 43.66 211.57 44.10
  L 207.53 51.01
  A 0.63 0.63 0.0 0 0 207.84 51.91
  C 238.82 64.40 276.41 65.38 309.56 58.57
  Q 322.54 55.90 332.19 51.89
  Q 332.83 51.62 332.48 51.03
  L 328.46 44.23
  Q 328.15 43.71 328.66 43.39
  C 334.37 39.90 341.00 36.48 345.87 43.70
  Q 357.89 61.53 368.46 80.22
  Q 371.87 86.27 372.22 87.49
  C 374.03 93.84 368.34 98.66 362.71 100.99
  Q 362.30 101.16 362.07 100.78
  L 359.21 96.07
  Q 358.85 95.47 358.51 96.08
  C 337.14 133.74 339.30 181.57 348.32 222.29
  Q 351.74 237.70 359.88 251.06
  A 0.82 0.82 0.0 0 0 361.16 251.21
  L 364.00 248.38
  Q 364.34 248.03 364.82 247.99
  C 368.82 247.65 371.65 252.21 371.64 255.58
  C 371.64 258.68 367.85 262.50 365.67 264.67
  Q 353.05 277.18 341.32 290.52
  Q 337.72 294.61 335.79 295.49
  C 330.55 297.87 325.40 293.29 322.72 288.79
  Q 322.48 288.38 322.82 288.05
  L 324.95 285.95
  Q 325.47 285.44 324.79 285.19
  Z
  M 198.01 42.05
  Q 198.49 41.97 197.91 41.37
  A 0.47 0.46 -50.3 0 0 197.19 41.44
  Q 182.52 63.16 170.11 85.50
  C 168.82 87.81 168.31 89.90 169.36 92.21
  A 0.25 0.25 0.0 0 0 169.84 92.08
  Q 169.43 87.01 173.72 84.18
  A 0.77 0.77 0.0 0 1 174.73 84.33
  C 195.35 109.00 200.60 144.30 199.07 175.31
  C 197.95 198.05 195.06 221.72 186.31 242.52
  C 185.23 245.08 177.68 259.71 173.56 256.18
  Q 170.77 253.79 172.65 250.54
  A 0.27 0.27 0.0 0 0 172.23 250.21
  Q 169.55 252.74 169.54 256.39
  Q 169.54 256.90 169.84 257.31
  Q 172.79 261.24 176.27 264.74
  Q 188.77 277.28 200.50 290.58
  C 204.22 294.80 208.16 296.71 212.67 292.39
  Q 213.32 291.77 212.46 292.01
  C 210.87 292.46 206.69 294.30 206.40 291.18
  Q 206.30 290.11 207.27 289.03
  C 215.45 279.80 231.58 281.01 241.84 285.13
  C 256.18 290.90 264.77 302.86 269.75 317.16
  Q 270.04 318.00 270.33 317.15
  C 277.88 294.63 295.42 279.59 320.41 282.54
  Q 327.58 283.38 332.94 289.22
  C 333.73 290.07 333.85 291.89 332.88 292.59
  C 331.61 293.51 328.99 292.47 327.52 292.05
  Q 326.72 291.83 327.32 292.40
  C 332.13 296.99 335.92 294.50 339.76 290.24
  Q 352.73 275.83 366.33 261.99
  C 370.33 257.92 372.35 254.97 367.80 250.30
  A 0.31 0.31 0.0 0 0 367.32 250.70
  C 369.84 254.25 365.63 259.03 361.96 255.28
  C 351.23 244.32 346.83 223.62 344.43 208.31
  Q 340.04 180.38 340.97 156.07
  C 341.91 131.54 349.02 102.99 365.45 84.23
  Q 365.78 83.85 366.20 84.13
  Q 371.44 87.58 369.73 93.73
  Q 369.43 94.80 370.01 93.85
  Q 372.41 89.94 369.85 85.42
  Q 356.13 61.21 344.40 43.84
  Q 343.30 42.21 342.49 41.36
  A 0.44 0.35 -89.6 0 0 342.00 41.97
  C 346.40 48.90 325.01 56.18 321.00 57.25
  Q 274.78 69.57 227.97 59.65
  C 221.94 58.37 195.65 51.83 197.76 42.30
  A 0.31 0.31 0.0 0 1 198.01 42.05
  Z
  M 204.52 49.53
  A 0.35 0.35 0.0 0 0 204.63 50.01
  L 205.96 50.84
  A 0.35 0.35 0.0 0 0 206.44 50.73
  L 209.09 46.36
  A 0.35 0.35 0.0 0 0 208.73 45.83
  L 206.73 46.15
  A 0.35 0.35 0.0 0 0 206.49 46.32
  L 204.52 49.53
  Z
  M 335.39 49.57
  Q 334.48 46.32 331.31 45.75
  Q 330.49 45.60 330.91 46.32
  L 333.33 50.44
  A 1.13 1.13 0.0 0 0 335.39 49.57
  Z
  M 178.94 92.95
  Q 177.67 94.41 178.71 96.08
  Q 179.03 96.60 179.45 96.15
  Q 180.91 94.57 179.55 92.96
  Q 179.25 92.60 178.94 92.95
  Z
  M 360.41 92.99
  Q 359.30 94.62 360.42 96.18
  Q 360.85 96.78 361.26 96.16
  Q 362.56 94.20 360.77 92.92
  A 0.26 0.25 33.4 0 0 360.41 92.99
  Z
  M 176.30 251.91
  Q 176.65 252.81 177.01 253.85
  A 0.42 0.42 0.0 0 0 177.82 253.83
  Q 178.29 252.08 176.71 251.49
  Q 176.04 251.25 176.30 251.91
  Z
  M 362.00 253.23
  A 0.65 0.51 65.4 0 0 363.04 253.76
  L 363.58 251.78
  Q 363.80 250.97 363.14 251.48
  Q 362.23 252.17 362.00 253.23
  Z
  M 213.02 287.25
  L 213.44 287.25
  A 0.42 0.42 0.0 0 0 213.68 286.49
  Q 212.91 285.97 212.16 286.44
  A 0.20 0.20 0.0 0 0 212.12 286.75
  Q 212.25 286.88 212.39 287.01
  A 0.95 0.95 0.0 0 0 213.02 287.25
  Z
  M 326.37 287.20
  C 326.79 287.45 327.30 287.05 327.74 286.98
  A 0.37 0.37 0.0 0 0 327.65 286.25
  L 326.57 286.33
  A 0.47 0.47 0.0 0 0 326.37 287.20
  Z"
/>
<path fill="#c79800" d="
  M 197.76 42.30
  C 195.65 51.83 221.94 58.37 227.97 59.65
  Q 274.78 69.57 321.00 57.25
  C 325.01 56.18 346.40 48.90 342.00 41.97
  A 0.44 0.35 -89.6 0 1 342.49 41.36
  Q 343.30 42.21 344.40 43.84
  Q 356.13 61.21 369.85 85.42
  Q 372.41 89.94 370.01 93.85
  Q 369.43 94.80 369.73 93.73
  Q 371.44 87.58 366.20 84.13
  Q 365.78 83.85 365.45 84.23
  C 349.02 102.99 341.91 131.54 340.97 156.07
  Q 340.04 180.38 344.43 208.31
  C 346.83 223.62 351.23 244.32 361.96 255.28
  C 365.63 259.03 369.84 254.25 367.32 250.70
  A 0.31 0.31 0.0 0 1 367.80 250.30
  C 372.35 254.97 370.33 257.92 366.33 261.99
  Q 352.73 275.83 339.76 290.24
  C 335.92 294.50 332.13 296.99 327.32 292.40
  Q 326.72 291.83 327.52 292.05
  C 328.99 292.47 331.61 293.51 332.88 292.59
  C 333.85 291.89 333.73 290.07 332.94 289.22
  Q 327.58 283.38 320.41 282.54
  C 295.42 279.59 277.88 294.63 270.33 317.15
  Q 270.04 318.00 269.75 317.16
  C 264.77 302.86 256.18 290.90 241.84 285.13
  C 231.58 281.01 215.45 279.80 207.27 289.03
  Q 206.30 290.11 206.40 291.18
  C 206.69 294.30 210.87 292.46 212.46 292.01
  Q 213.32 291.77 212.67 292.39
  C 208.16 296.71 204.22 294.80 200.50 290.58
  Q 188.77 277.28 176.27 264.74
  Q 172.79 261.24 169.84 257.31
  Q 169.54 256.90 169.54 256.39
  Q 169.55 252.74 172.23 250.21
  A 0.27 0.27 0.0 0 1 172.65 250.54
  Q 170.77 253.79 173.56 256.18
  C 177.68 259.71 185.23 245.08 186.31 242.52
  C 195.06 221.72 197.95 198.05 199.07 175.31
  C 200.60 144.30 195.35 109.00 174.73 84.33
  A 0.77 0.77 0.0 0 0 173.72 84.18
  Q 169.43 87.01 169.84 92.08
  A 0.25 0.25 0.0 0 1 169.36 92.21
  C 168.31 89.90 168.82 87.81 170.11 85.50
  Q 182.52 63.16 197.19 41.44
  A 0.47 0.46 -50.3 0 1 197.91 41.37
  Q 198.49 41.97 198.01 42.05
  A 0.31 0.31 0.0 0 0 197.76 42.30
  Z
  M 324.90 63.82
  C 289.07 76.98 251.02 76.89 215.28 63.87
  Q 214.69 63.66 214.47 64.25
  L 208.63 79.89
  A 0.79 0.79 0.0 0 0 209.11 80.91
  Q 270.22 102.72 331.25 80.73
  A 0.37 0.37 0.0 0 0 331.48 80.25
  L 325.50 64.10
  Q 325.34 63.66 324.90 63.82
  Z
  M 254.56 99.44
  Q 238.31 97.03 218.32 90.37
  Q 217.77 90.18 217.77 90.76
  Q 217.70 137.87 217.77 184.97
  Q 217.79 196.33 219.19 202.29
  C 224.63 225.59 249.05 248.15 269.05 261.99
  A 1.68 1.68 0.0 0 0 270.97 261.99
  Q 293.12 246.60 309.58 225.42
  C 319.68 212.43 322.25 200.88 322.25 183.72
  Q 322.26 137.31 322.24 90.83
  Q 322.24 90.38 321.81 90.51
  C 299.88 97.26 277.69 102.86 254.56 99.44
  Z
  M 283.48 267.35
  C 254.21 270.96 222.84 262.32 196.68 248.44
  Q 196.27 248.23 196.05 248.63
  L 189.56 260.44
  Q 189.34 260.84 189.74 261.06
  C 218.17 276.27 252.80 285.63 284.70 281.95
  Q 318.51 278.05 350.19 261.02
  Q 350.63 260.78 350.39 260.35
  L 344.03 248.76
  A 0.67 0.66 61.5 0 0 343.14 248.49
  Q 315.11 263.45 283.48 267.35
  Z"
/>
<path fill="#c79800" d="
  M 204.52 49.53
  L 206.49 46.32
  A 0.35 0.35 0.0 0 1 206.73 46.15
  L 208.73 45.83
  A 0.35 0.35 0.0 0 1 209.09 46.36
  L 206.44 50.73
  A 0.35 0.35 0.0 0 1 205.96 50.84
  L 204.63 50.01
  A 0.35 0.35 0.0 0 1 204.52 49.53
  Z"
/>
<path fill="#c79800" d="
  M 335.39 49.57
  A 1.13 1.13 0.0 0 1 333.33 50.44
  L 330.91 46.32
  Q 330.49 45.60 331.31 45.75
  Q 334.48 46.32 335.39 49.57
  Z"
/>
<path fill="#cc112f" d="
  M 215.28 63.87
  C 251.02 76.89 289.07 76.98 324.90 63.82
  Q 325.34 63.66 325.50 64.10
  L 331.48 80.25
  A 0.37 0.37 0.0 0 1 331.25 80.73
  Q 270.22 102.72 209.11 80.91
  A 0.79 0.79 0.0 0 1 208.63 79.89
  L 214.47 64.25
  Q 214.69 63.66 215.28 63.87
  Z
  M 216.29 72.97
  C 216.41 72.11 217.73 69.31 216.75 68.93
  A 0.63 0.63 0.0 0 0 215.93 69.32
  L 213.03 77.97
  Q 212.77 78.75 213.59 78.75
  L 214.06 78.75
  A 0.53 0.52 -89.4 0 0 214.58 78.23
  Q 214.60 75.79 216.67 74.94
  A 0.65 0.64 -22.0 0 1 217.51 75.29
  C 218.02 76.50 218.82 81.11 220.30 81.01
  A 0.47 0.46 79.2 0 0 220.71 80.40
  L 218.86 74.55
  A 0.76 0.76 0.0 0 1 219.28 73.62
  Q 221.35 72.72 223.38 71.76
  Q 223.96 71.48 223.42 71.13
  L 223.06 70.90
  A 0.92 0.92 0.0 0 0 222.15 70.84
  L 216.90 73.41
  Q 216.18 73.75 216.29 72.97
  Z
  M 318.73 74.56
  L 317.97 72.62
  Q 317.78 72.12 318.28 71.93
  C 319.17 71.59 323.72 70.43 323.42 69.45
  Q 323.28 68.99 322.82 69.14
  L 316.83 71.10
  A 0.64 0.64 0.0 0 0 316.42 71.90
  L 319.18 80.55
  A 0.57 0.56 71.1 0 0 319.91 80.91
  L 326.34 78.65
  Q 327.03 78.41 326.51 77.90
  C 325.95 77.35 321.90 78.98 320.97 79.24
  A 0.65 0.65 0.0 0 1 320.20 78.86
  L 319.42 76.90
  Q 319.18 76.32 319.75 76.05
  C 321.05 75.43 324.29 74.75 324.52 73.92
  A 0.46 0.45 89.1 0 0 323.95 73.36
  L 319.32 74.84
  A 0.48 0.47 -19.4 0 1 318.73 74.56
  Z
  M 314.3231 72.7141
  A 0.69 0.69 0.0 0 0 313.4688 72.2425
  L 313.4303 72.2536
  A 0.69 0.69 0.0 0 0 312.9588 73.1079
  L 315.3769 81.4859
  A 0.69 0.69 0.0 0 0 316.2312 81.9575
  L 316.2697 81.9464
  A 0.69 0.69 0.0 0 0 316.7412 81.0921
  L 314.3231 72.7141
  Z
  M 229.99 79.41
  A 1.03 1.03 0.0 0 1 230.35 81.38
  Q 227.21 82.70 225.22 80.44
  C 221.96 76.72 229.09 69.88 231.80 76.47
  Q 232.06 77.11 232.61 76.70
  L 232.86 76.52
  Q 233.19 76.28 233.02 75.91
  C 230.55 70.28 223.06 72.03 223.04 78.03
  C 223.03 82.31 227.24 83.99 230.97 82.78
  Q 231.41 82.64 231.55 82.19
  L 232.37 79.39
  Q 232.52 78.88 232.01 78.75
  L 228.28 77.79
  A 0.40 0.40 0.0 0 0 227.88 78.44
  Q 228.69 79.36 229.99 79.41
  Z
  M 310.64 82.05
  Q 307.83 83.67 305.87 81.28
  A 0.59 0.59 0.0 0 0 304.88 81.92
  C 306.74 85.60 312.58 84.20 312.86 80.21
  A 1.21 1.20 -67.8 0 0 312.45 79.22
  Q 310.03 77.08 306.74 77.85
  A 1.25 1.25 0.0 0 1 305.65 75.68
  Q 308.10 73.62 310.29 75.90
  Q 310.63 76.25 310.97 75.91
  L 311.22 75.65
  A 0.45 0.44 45.4 0 0 311.22 75.02
  C 306.38 70.28 301.20 77.56 305.75 79.03
  C 306.66 79.33 312.52 78.47 311.32 81.28
  A 1.70 1.63 87.6 0 1 310.64 82.05
  Z
  M 237.18 76.19
  C 238.57 75.91 241.61 77.32 242.75 76.58
  A 0.39 0.38 34.6 0 0 242.62 75.88
  L 236.06 74.47
  A 0.61 0.60 -79.0 0 0 235.34 74.96
  L 233.62 83.96
  A 0.59 0.59 0.0 0 0 234.10 84.65
  L 240.48 85.78
  Q 240.79 85.83 240.90 85.53
  Q 240.95 85.40 241.00 85.26
  A 0.49 0.48 -78.3 0 0 240.59 84.63
  Q 238.06 84.37 235.63 83.63
  A 0.67 0.67 0.0 0 1 235.17 82.85
  L 235.62 80.81
  Q 235.77 80.11 236.47 80.24
  L 241.20 81.11
  A 0.42 0.42 0.0 0 0 241.46 80.32
  Q 239.62 79.43 237.43 79.33
  A 1.59 1.59 0.0 0 1 237.18 76.19
  Z
  M 300.13 76.50
  Q 301.54 76.54 302.58 75.61
  A 0.42 0.42 0.0 0 0 302.22 74.88
  L 294.79 76.25
  A 0.41 0.40 -13.7 0 0 294.47 76.77
  L 294.58 77.12
  Q 294.74 77.64 295.27 77.50
  L 297.40 76.96
  Q 297.89 76.84 297.99 77.33
  Q 298.81 81.24 299.37 85.18
  A 0.65 0.65 0.0 0 0 300.10 85.73
  C 301.39 85.54 299.62 78.49 299.48 77.19
  A 0.63 0.63 0.0 0 1 300.13 76.50
  Z
  M 246.83 78.59
  C 246.73 79.45 245.33 86.73 246.38 86.78
  Q 247.00 86.80 247.08 86.19
  L 248.04 78.67
  Q 248.14 77.91 248.90 78.00
  L 251.08 78.27
  A 0.53 0.51 -62.6 0 0 251.50 78.13
  L 251.70 77.93
  A 0.46 0.45 26.5 0 0 251.44 77.16
  L 244.16 76.15
  A 0.42 0.42 0.0 0 0 243.82 76.88
  Q 244.62 77.62 245.74 77.49
  A 0.98 0.98 0.0 0 1 246.83 78.59
  Z
  M 286.14 84.77
  L 289.04 84.30
  A 0.83 0.82 69.7 0 1 289.88 84.69
  L 291.27 87.03
  A 0.57 0.57 0.0 0 0 292.05 87.23
  L 292.27 87.11
  Q 292.70 86.85 292.46 86.40
  L 287.79 77.72
  A 1.04 1.04 0.0 0 0 285.88 77.92
  Q 284.49 82.70 283.35 87.54
  Q 283.18 88.26 283.87 88.00
  L 284.43 87.80
  A 0.87 0.87 0.0 0 0 284.99 86.88
  Q 284.89 86.04 285.33 85.31
  Q 285.61 84.86 286.14 84.77
  Z
  M 254.70 78.91
  Q 257.86 77.74 259.06 80.80
  A 0.36 0.35 64.4 0 0 259.57 80.98
  L 259.85 80.81
  A 0.51 0.50 -27.2 0 0 260.06 80.18
  C 258.27 75.89 251.39 76.87 253.03 81.40
  A 1.29 1.28 1.7 0 0 253.74 82.15
  L 257.78 83.90
  A 1.36 1.36 0.0 0 1 257.73 86.41
  Q 254.24 87.77 252.98 84.37
  A 0.49 0.48 37.6 0 0 252.04 84.49
  C 251.69 88.31 258.00 89.31 259.79 85.97
  A 2.31 2.30 -65.3 0 0 258.60 82.74
  L 254.68 81.21
  A 1.23 1.23 0.0 0 1 254.70 78.91
  Z
  M 278.45 82.03
  Q 277.22 80.24 275.83 78.60
  A 1.29 1.26 78.5 0 0 275.30 78.24
  L 274.67 78.03
  A 0.37 0.37 0.0 0 0 274.25 78.60
  C 276.25 81.47 278.93 83.64 278.20 87.51
  A 0.70 0.69 -87.5 0 0 278.95 88.33
  Q 279.63 88.27 279.80 87.66
  Q 279.90 87.29 279.85 86.90
  C 279.40 83.04 281.10 81.36 282.97 78.28
  A 0.49 0.49 0.0 0 0 282.20 77.68
  Q 280.40 79.51 279.40 81.93
  Q 279.01 82.85 278.45 82.03
  Z
  M 264.32 79.36
  C 265.77 78.99 267.87 80.07 269.50 79.21
  A 0.49 0.49 0.0 0 0 269.30 78.29
  L 262.69 77.92
  Q 262.00 77.88 262.00 78.57
  L 262.00 87.86
  Q 262.00 88.40 262.54 88.41
  L 269.24 88.50
  A 0.43 0.42 -15.7 0 0 269.61 87.85
  C 269.09 87.02 264.80 87.21 263.69 86.98
  Q 263.22 86.88 263.25 86.40
  L 263.43 84.09
  Q 263.47 83.49 264.06 83.58
  C 264.77 83.68 269.04 84.23 269.02 83.15
  Q 269.00 82.50 268.35 82.50
  L 264.72 82.50
  A 1.60 1.60 0.0 0 1 264.32 79.36
  Z"
/>
<path fill="#c79800" d="
  M 216.90 73.41
  L 222.15 70.84
  A 0.92 0.92 0.0 0 1 223.06 70.90
  L 223.42 71.13
  Q 223.96 71.48 223.38 71.76
  Q 221.35 72.72 219.28 73.62
  A 0.76 0.76 0.0 0 0 218.86 74.55
  L 220.71 80.40
  A 0.47 0.46 79.2 0 1 220.30 81.01
  C 218.82 81.11 218.02 76.50 217.51 75.29
  A 0.65 0.64 -22.0 0 0 216.67 74.94
  Q 214.60 75.79 214.58 78.23
  A 0.53 0.52 -89.4 0 1 214.06 78.75
  L 213.59 78.75
  Q 212.77 78.75 213.03 77.97
  L 215.93 69.32
  A 0.63 0.63 0.0 0 1 216.75 68.93
  C 217.73 69.31 216.41 72.11 216.29 72.97
  Q 216.18 73.75 216.90 73.41
  Z"
/>
<path fill="#c89f01" d="
  M 319.32 74.84
  L 323.95 73.36
  A 0.46 0.45 89.1 0 1 324.52 73.92
  C 324.29 74.75 321.05 75.43 319.75 76.05
  Q 319.18 76.32 319.42 76.90
  L 320.20 78.86
  A 0.65 0.65 0.0 0 0 320.97 79.24
  C 321.90 78.98 325.95 77.35 326.51 77.90
  Q 327.03 78.41 326.34 78.65
  L 319.91 80.91
  A 0.57 0.56 71.1 0 1 319.18 80.55
  L 316.42 71.90
  A 0.64 0.64 0.0 0 1 316.83 71.10
  L 322.82 69.14
  Q 323.28 68.99 323.42 69.45
  C 323.72 70.43 319.17 71.59 318.28 71.93
  Q 317.78 72.12 317.97 72.62
  L 318.73 74.56
  A 0.48 0.47 -19.4 0 0 319.32 74.84
  Z"
/>
<rect fill="#c79800" x="-0.71" y="-5.05" transform="translate(314.85,77.10) rotate(-16.1)" width="1.42" height="10.10" rx="0.69"/>
<path fill="#c79800" d="
  M 229.99 79.41
  Q 228.69 79.36 227.88 78.44
  A 0.40 0.40 0.0 0 1 228.28 77.79
  L 232.01 78.75
  Q 232.52 78.88 232.37 79.39
  L 231.55 82.19
  Q 231.41 82.64 230.97 82.78
  C 227.24 83.99 223.03 82.31 223.04 78.03
  C 223.06 72.03 230.55 70.28 233.02 75.91
  Q 233.19 76.28 232.86 76.52
  L 232.61 76.70
  Q 232.06 77.11 231.80 76.47
  C 229.09 69.88 221.96 76.72 225.22 80.44
  Q 227.21 82.70 230.35 81.38
  A 1.03 1.03 0.0 0 0 229.99 79.41
  Z"
/>
<path fill="#c79800" d="
  M 310.64 82.05
  A 1.70 1.63 87.6 0 0 311.32 81.28
  C 312.52 78.47 306.66 79.33 305.75 79.03
  C 301.20 77.56 306.38 70.28 311.22 75.02
  A 0.45 0.44 45.4 0 1 311.22 75.65
  L 310.97 75.91
  Q 310.63 76.25 310.29 75.90
  Q 308.10 73.62 305.65 75.68
  A 1.25 1.25 0.0 0 0 306.74 77.85
  Q 310.03 77.08 312.45 79.22
  A 1.21 1.20 -67.8 0 1 312.86 80.21
  C 312.58 84.20 306.74 85.60 304.88 81.92
  A 0.59 0.59 0.0 0 1 305.87 81.28
  Q 307.83 83.67 310.64 82.05
  Z"
/>
<path fill="#c89f01" d="
  M 237.18 76.19
  A 1.59 1.59 0.0 0 0 237.43 79.33
  Q 239.62 79.43 241.46 80.32
  A 0.42 0.42 0.0 0 1 241.20 81.11
  L 236.47 80.24
  Q 235.77 80.11 235.62 80.81
  L 235.17 82.85
  A 0.67 0.67 0.0 0 0 235.63 83.63
  Q 238.06 84.37 240.59 84.63
  A 0.49 0.48 -78.3 0 1 241.00 85.26
  Q 240.95 85.40 240.90 85.53
  Q 240.79 85.83 240.48 85.78
  L 234.10 84.65
  A 0.59 0.59 0.0 0 1 233.62 83.96
  L 235.34 74.96
  A 0.61 0.60 -79.0 0 1 236.06 74.47
  L 242.62 75.88
  A 0.39 0.38 34.6 0 1 242.75 76.58
  C 241.61 77.32 238.57 75.91 237.18 76.19
  Z"
/>
<path fill="#c89f01" d="
  M 299.48 77.19
  C 299.62 78.49 301.39 85.54 300.10 85.73
  A 0.65 0.65 0.0 0 1 299.37 85.18
  Q 298.81 81.24 297.99 77.33
  Q 297.89 76.84 297.40 76.96
  L 295.27 77.50
  Q 294.74 77.64 294.58 77.12
  L 294.47 76.77
  A 0.41 0.40 -13.7 0 1 294.79 76.25
  L 302.22 74.88
  A 0.42 0.42 0.0 0 1 302.58 75.61
  Q 301.54 76.54 300.13 76.50
  A 0.63 0.63 0.0 0 0 299.48 77.19
  Z"
/>
<path fill="#c89f01" d="
  M 246.83 78.59
  A 0.98 0.98 0.0 0 0 245.74 77.49
  Q 244.62 77.62 243.82 76.88
  A 0.42 0.42 0.0 0 1 244.16 76.15
  L 251.44 77.16
  A 0.46 0.45 26.5 0 1 251.70 77.93
  L 251.50 78.13
  A 0.53 0.51 -62.6 0 1 251.08 78.27
  L 248.90 78.00
  Q 248.14 77.91 248.04 78.67
  L 247.08 86.19
  Q 247.00 86.80 246.38 86.78
  C 245.33 86.73 246.73 79.45 246.83 78.59
  Z"
/>
<path fill="#c79800" d="
  M 285.33 85.31
  Q 284.89 86.04 284.99 86.88
  A 0.87 0.87 0.0 0 1 284.43 87.80
  L 283.87 88.00
  Q 283.18 88.26 283.35 87.54
  Q 284.49 82.70 285.88 77.92
  A 1.04 1.04 0.0 0 1 287.79 77.72
  L 292.46 86.40
  Q 292.70 86.85 292.27 87.11
  L 292.05 87.23
  A 0.57 0.57 0.0 0 1 291.27 87.03
  L 289.88 84.69
  A 0.83 0.82 69.7 0 0 289.04 84.30
  L 286.14 84.77
  Q 285.61 84.86 285.33 85.31
  Z
  M 286.87 79.58
  L 285.95 82.63
  A 0.62 0.62 0.0 0 0 286.64 83.43
  L 288.35 83.18
  Q 289.13 83.06 288.76 82.37
  L 287.25 79.55
  A 0.21 0.20 39.6 0 0 286.87 79.58
  Z"
/>
<path fill="#c89f01" d="
  M 254.70 78.91
  A 1.23 1.23 0.0 0 0 254.68 81.21
  L 258.60 82.74
  A 2.31 2.30 -65.3 0 1 259.79 85.97
  C 258.00 89.31 251.69 88.31 252.04 84.49
  A 0.49 0.48 37.6 0 1 252.98 84.37
  Q 254.24 87.77 257.73 86.41
  A 1.36 1.36 0.0 0 0 257.78 83.90
  L 253.74 82.15
  A 1.29 1.28 1.7 0 1 253.03 81.40
  C 251.39 76.87 258.27 75.89 260.06 80.18
  A 0.51 0.50 -27.2 0 1 259.85 80.81
  L 259.57 80.98
  A 0.36 0.35 64.4 0 1 259.06 80.80
  Q 257.86 77.74 254.70 78.91
  Z"
/>
<path fill="#c79800" d="
  M 279.40 81.93
  Q 280.40 79.51 282.20 77.68
  A 0.49 0.49 0.0 0 1 282.97 78.28
  C 281.10 81.36 279.40 83.04 279.85 86.90
  Q 279.90 87.29 279.80 87.66
  Q 279.63 88.27 278.95 88.33
  A 0.70 0.69 -87.5 0 1 278.20 87.51
  C 278.93 83.64 276.25 81.47 274.25 78.60
  A 0.37 0.37 0.0 0 1 274.67 78.03
  L 275.30 78.24
  A 1.29 1.26 78.5 0 1 275.83 78.60
  Q 277.22 80.24 278.45 82.03
  Q 279.01 82.85 279.40 81.93
  Z"
/>
<path fill="#c79800" d="
  M 264.32 79.36
  A 1.60 1.60 0.0 0 0 264.72 82.50
  L 268.35 82.50
  Q 269.00 82.50 269.02 83.15
  C 269.04 84.23 264.77 83.68 264.06 83.58
  Q 263.47 83.49 263.43 84.09
  L 263.25 86.40
  Q 263.22 86.88 263.69 86.98
  C 264.80 87.21 269.09 87.02 269.61 87.85
  A 0.43 0.42 -15.7 0 1 269.24 88.50
  L 262.54 88.41
  Q 262.00 88.40 262.00 87.86
  L 262.00 78.57
  Q 262.00 77.88 262.69 77.92
  L 269.30 78.29
  A 0.49 0.49 0.0 0 1 269.50 79.21
  C 267.87 80.07 265.77 78.99 264.32 79.36
  Z"
/>
<path fill="#cc112f" d="
  M 286.87 79.58
  A 0.21 0.20 39.6 0 1 287.25 79.55
  L 288.76 82.37
  Q 289.13 83.06 288.35 83.18
  L 286.64 83.43
  A 0.62 0.62 0.0 0 1 285.95 82.63
  L 286.87 79.58
  Z"
/>
<path fill="#000000" d="
  M 254.56 99.44
  C 277.69 102.86 299.88 97.26 321.81 90.51
  Q 322.24 90.38 322.24 90.83
  Q 322.26 137.31 322.25 183.72
  C 322.25 200.88 319.68 212.43 309.58 225.42
  Q 293.12 246.60 270.97 261.99
  A 1.68 1.68 0.0 0 1 269.05 261.99
  C 249.05 248.15 224.63 225.59 219.19 202.29
  Q 217.79 196.33 217.77 184.97
  Q 217.70 137.87 217.77 90.76
  Q 217.77 90.18 218.32 90.37
  Q 238.31 97.03 254.56 99.44
  Z
  M 225.04 146.50
  L 224.97 154.65
  Q 224.97 155.19 225.51 155.19
  L 251.50 155.04
  L 251.72 155.24
  Q 251.94 155.44 251.70 155.61
  Q 243.11 162.12 239.96 172.50
  L 233.66 175.62
  Q 233.21 175.85 232.71 175.75
  Q 229.03 175.02 225.45 176.11
  A 0.74 0.73 80.8 0 0 224.93 176.84
  L 225.21 184.14
  Q 225.22 184.57 225.65 184.65
  Q 228.20 185.14 230.97 185.27
  Q 231.46 185.29 231.87 185.56
  Q 235.49 187.99 239.75 188.79
  Q 243.17 199.43 251.87 206.30
  L 228.65 206.36
  Q 227.96 206.37 228.25 206.99
  L 231.98 215.23
  Q 247.92 237.53 269.60 253.50
  Q 269.99 253.79 270.39 253.50
  Q 292.11 237.52 307.99 215.29
  L 311.78 206.98
  Q 312.09 206.30 311.34 206.29
  L 288.69 206.12
  Q 296.89 199.07 300.04 189.00
  Q 303.25 188.23 305.72 186.05
  Q 306.06 185.75 306.51 185.75
  L 314.12 185.75
  Q 314.75 185.75 314.75 185.13
  L 314.75 177.30
  Q 314.75 176.82 314.27 176.81
  C 310.93 176.72 309.05 176.49 305.87 174.71
  Q 303.28 173.26 300.29 172.75
  Q 296.66 162.14 288.00 155.04
  L 314.49 155.19
  Q 315.03 155.19 315.03 154.65
  L 314.96 146.50
  L 314.97 100.72
  Q 314.97 100.17 314.44 100.32
  C 292.00 106.66 270.50 110.53 247.25 105.48
  Q 232.43 102.27 225.53 100.37
  Q 225.03 100.24 225.03 100.76
  L 225.04 146.50
  Z"
/>
<path fill="#c89f01" d="
  M 178.94 92.95
  Q 179.25 92.60 179.55 92.96
  Q 180.91 94.57 179.45 96.15
  Q 179.03 96.60 178.71 96.08
  Q 177.67 94.41 178.94 92.95
  Z"
/>
<path fill="#c89f01" d="
  M 360.41 92.99
  A 0.26 0.25 33.4 0 1 360.77 92.92
  Q 362.56 94.20 361.26 96.16
  Q 360.85 96.78 360.42 96.18
  Q 359.30 94.62 360.41 92.99
  Z"
/>
<path fill="#95c4ea" d="
  M 314.96 146.50
  L 277.57 146.61
  A 0.91 0.91 0.0 0 0 276.88 148.11
  Q 277.68 149.04 277.75 150.71
  Q 276.13 151.01 275.50 152.46
  Q 274.61 153.70 275.04 155.25
  L 275.29 157.25
  L 274.75 158.04
  Q 274.33 158.04 274.26 157.82
  Q 272.75 152.97 276.25 150.18
  Q 276.69 149.83 276.54 149.29
  Q 275.95 147.13 274.33 145.68
  Q 273.92 145.32 273.95 144.77
  L 274.31 137.37
  A 0.44 0.44 0.0 0 0 273.87 136.91
  L 267.37 136.91
  Q 266.91 136.91 266.92 137.38
  Q 267.11 142.75 263.97 146.95
  A 2.43 2.43 0.0 0 0 263.55 147.88
  L 262.96 150.50
  L 262.29 149.00
  Q 262.02 148.10 262.71 147.86
  Q 263.15 147.70 262.98 147.27
  C 262.73 146.64 226.94 146.55 225.04 146.50
  L 225.03 100.76
  Q 225.03 100.24 225.53 100.37
  Q 232.43 102.27 247.25 105.48
  C 270.50 110.53 292.00 106.66 314.44 100.32
  Q 314.97 100.17 314.97 100.72
  L 314.96 146.50
  Z"
/>
<path fill="#000000" d="
  M 274.75 158.04
  C 276.47 159.44 273.66 161.09 272.27 159.51
  Q 271.96 159.14 271.90 158.67
  Q 271.79 157.65 271.41 156.72
  A 0.33 0.32 38.4 0 0 270.79 156.79
  Q 270.51 158.50 271.52 159.87
  A 1.11 1.11 0.0 0 1 270.02 161.46
  Q 267.39 159.74 268.07 156.54
  A 0.49 0.49 0.0 0 0 267.14 156.25
  Q 266.67 157.38 267.27 159.21
  A 0.69 0.69 0.0 0 1 266.06 159.83
  Q 264.63 157.85 265.44 154.89
  C 265.50 154.64 265.41 154.41 265.20 154.32
  A 0.51 0.50 19.6 0 0 264.51 154.64
  L 263.88 157.01
  A 0.45 0.45 0.0 0 1 263.00 156.90
  L 262.96 150.50
  L 263.55 147.88
  A 2.43 2.43 0.0 0 1 263.97 146.95
  Q 267.11 142.75 266.92 137.38
  Q 266.91 136.91 267.37 136.91
  L 273.87 136.91
  A 0.44 0.44 0.0 0 1 274.31 137.37
  L 273.95 144.77
  Q 273.92 145.32 274.33 145.68
  Q 275.95 147.13 276.54 149.29
  Q 276.69 149.83 276.25 150.18
  Q 272.75 152.97 274.26 157.82
  Q 274.33 158.04 274.75 158.04
  Z"
/>
<path fill="#ffffff" d="
  M 225.04 146.50
  C 226.94 146.55 262.73 146.64 262.98 147.27
  Q 263.15 147.70 262.71 147.86
  Q 262.02 148.10 262.29 149.00
  L 261.71 150.75
  L 251.50 155.04
  L 225.51 155.19
  Q 224.97 155.19 224.97 154.65
  L 225.04 146.50
  Z"
/>
<path fill="#ffffff" d="
  M 314.96 146.50
  L 315.03 154.65
  Q 315.03 155.19 314.49 155.19
  L 288.00 155.04
  L 277.75 150.71
  Q 277.68 149.04 276.88 148.11
  A 0.91 0.91 0.0 0 1 277.57 146.61
  L 314.96 146.50
  Z"
/>
<path fill="#abacaa" d="
  M 262.29 149.00
  L 262.96 150.50
  L 263.00 156.90
  A 0.45 0.45 0.0 0 0 263.88 157.01
  L 264.51 154.64
  A 0.51 0.50 19.6 0 1 265.20 154.32
  C 265.41 154.41 265.50 154.64 265.44 154.89
  Q 264.63 157.85 266.06 159.83
  A 0.69 0.69 0.0 0 0 267.27 159.21
  Q 266.67 157.38 267.14 156.25
  A 0.49 0.49 0.0 0 1 268.07 156.54
  Q 267.39 159.74 270.02 161.46
  A 1.11 1.11 0.0 0 0 271.52 159.87
  Q 270.51 158.50 270.79 156.79
  A 0.33 0.32 38.4 0 1 271.41 156.72
  Q 271.79 157.65 271.90 158.67
  Q 271.96 159.14 272.27 159.51
  C 273.66 161.09 276.47 159.44 274.75 158.04
  L 275.29 157.25
  L 277.04 158.25
  Q 276.18 161.22 273.16 161.26
  Q 272.65 161.27 272.26 161.60
  Q 270.02 163.52 268.00 161.27
  A 1.00 0.98 -26.4 0 0 267.05 160.96
  Q 265.40 161.31 264.79 159.87
  Q 264.58 159.38 264.14 159.09
  L 262.54 158.00
  L 261.71 156.00
  L 261.96 153.25
  L 261.71 150.75
  L 262.29 149.00
  Z"
/>
<path fill="#c79800" d="
  M 261.71 150.75
  L 261.96 153.25
  Q 245.90 158.52 241.71 175.00
  Q 240.12 174.25 239.96 172.50
  Q 243.11 162.12 251.70 155.61
  Q 251.94 155.44 251.72 155.24
  L 251.50 155.04
  L 261.71 150.75
  Z"
/>
<path fill="#c79800" d="
  M 277.75 150.71
  L 288.00 155.04
  Q 296.66 162.14 300.29 172.75
  L 299.25 173.54
  L 292.54 173.75
  Q 288.99 161.79 277.04 158.25
  L 275.29 157.25
  L 275.04 155.25
  Q 289.00 158.26 294.47 171.32
  C 294.96 172.49 295.93 172.90 296.95 172.10
  A 0.68 0.68 0.0 0 0 297.17 171.32
  Q 291.34 156.32 275.50 152.46
  Q 276.13 151.01 277.75 150.71
  Z"
/>
<path fill="#cc112f" d="
  M 275.50 152.46
  Q 291.34 156.32 297.17 171.32
  A 0.68 0.68 0.0 0 1 296.95 172.10
  C 295.93 172.90 294.96 172.49 294.47 171.32
  Q 289.00 158.26 275.04 155.25
  Q 274.61 153.70 275.50 152.46
  Z"
/>
<path fill="#cc112f" d="
  M 261.96 153.25
  L 261.71 156.00
  Q 247.78 161.22 244.00 175.71
  Q 242.49 176.53 241.71 175.00
  Q 245.90 158.52 261.96 153.25
  Z"
/>
<path fill="#c79800" d="
  M 261.71 156.00
  L 262.54 158.00
  Q 251.49 162.22 247.25 173.25
  Q 247.12 173.58 247.54 174.00
  Q 246.66 174.73 247.29 175.75
  L 246.75 176.29
  Q 245.22 176.49 244.00 175.71
  Q 247.78 161.22 261.71 156.00
  Z"
/>
<path fill="#000000" d="
  M 262.54 158.00
  L 264.14 159.09
  Q 264.58 159.38 264.79 159.87
  Q 265.40 161.31 267.05 160.96
  A 1.00 0.98 -26.4 0 1 268.00 161.27
  Q 270.02 163.52 272.26 161.60
  Q 272.65 161.27 273.16 161.26
  Q 276.18 161.22 277.04 158.25
  Q 288.99 161.79 292.54 173.75
  L 292.21 174.50
  L 291.25 175.46
  L 290.21 176.50
  L 288.18 180.90
  Q 287.95 181.40 288.31 181.82
  L 289.42 183.11
  A 0.80 0.79 32.8 0 1 289.58 183.83
  Q 289.23 185.11 290.21 186.00
  Q 290.78 187.19 292.73 188.11
  Q 288.63 199.29 277.50 203.54
  L 274.32 200.68
  A 0.78 0.76 62.0 0 0 273.72 200.49
  L 273.31 200.55
  Q 272.80 200.62 272.35 200.38
  L 269.85 199.05
  Q 269.35 198.78 268.89 199.12
  C 266.35 200.99 264.18 199.83 262.75 203.46
  Q 251.59 199.54 247.21 188.50
  Q 247.92 186.59 249.65 185.59
  Q 250.08 185.34 250.08 184.83
  C 250.09 182.68 253.17 180.43 250.93 178.82
  A 0.96 0.95 -70.9 0 1 250.54 178.01
  Q 250.63 174.83 247.54 174.00
  Q 247.12 173.58 247.25 173.25
  Q 251.49 162.22 262.54 158.00
  Z"
/>
<path fill="#abacaa" d="
  M 239.96 172.50
  Q 240.12 174.25 241.71 175.00
  Q 242.49 176.53 244.00 175.71
  Q 245.22 176.49 246.75 176.29
  C 244.43 176.70 240.18 178.08 239.78 174.21
  A 0.86 0.86 0.0 0 0 238.12 173.97
  Q 237.85 174.62 237.02 174.50
  A 0.77 0.76 -70.8 0 0 236.24 174.88
  C 234.51 177.96 229.61 176.41 226.60 177.11
  Q 225.97 177.26 226.15 177.89
  Q 226.87 180.46 226.29 183.04
  A 0.58 0.58 0.0 0 0 226.86 183.75
  Q 231.85 183.74 235.80 186.58
  Q 236.23 186.88 236.73 187.03
  L 240.75 188.21
  L 239.75 188.79
  Q 235.49 187.99 231.87 185.56
  Q 231.46 185.29 230.97 185.27
  Q 228.20 185.14 225.65 184.65
  Q 225.22 184.57 225.21 184.14
  L 224.93 176.84
  A 0.74 0.73 80.8 0 1 225.45 176.11
  Q 229.03 175.02 232.71 175.75
  Q 233.21 175.85 233.66 175.62
  L 239.96 172.50
  Z"
/>
<path fill="#bbbcba" d="
  M 300.29 172.75
  Q 303.28 173.26 305.87 174.71
  C 309.05 176.49 310.93 176.72 314.27 176.81
  Q 314.75 176.82 314.75 177.30
  L 314.75 185.13
  Q 314.75 185.75 314.12 185.75
  L 306.51 185.75
  Q 306.06 185.75 305.72 186.05
  Q 303.25 188.23 300.04 189.00
  Q 299.92 187.06 298.25 186.54
  L 296.75 185.96
  Q 292.89 184.69 292.73 188.11
  Q 290.78 187.19 290.21 186.00
  L 290.46 185.25
  Q 290.97 186.76 292.03 186.07
  Q 297.18 182.75 300.44 187.06
  Q 300.76 187.49 301.29 187.35
  Q 303.38 186.77 304.96 185.16
  Q 305.36 184.75 305.94 184.75
  L 312.84 184.75
  Q 313.42 184.75 313.43 184.17
  L 313.53 178.61
  Q 313.54 178.06 312.99 178.04
  C 307.64 177.76 304.40 174.59 299.25 173.54
  L 300.29 172.75
  Z"
/>
<path fill="#ffffff" d="
  M 299.25 173.54
  C 304.40 174.59 307.64 177.76 312.99 178.04
  Q 313.54 178.06 313.53 178.61
  L 313.43 184.17
  Q 313.42 184.75 312.84 184.75
  L 305.94 184.75
  Q 305.36 184.75 304.96 185.16
  Q 303.38 186.77 301.29 187.35
  Q 300.76 187.49 300.44 187.06
  Q 297.18 182.75 292.03 186.07
  Q 290.97 186.76 290.46 185.25
  Q 290.15 183.39 293.28 182.28
  Q 293.99 182.02 293.36 181.60
  Q 292.69 181.14 290.84 182.53
  A 1.07 1.07 0.0 0 1 289.21 181.26
  Q 290.69 177.68 294.98 179.07
  A 0.27 0.26 71.2 0 0 295.21 178.60
  Q 293.35 177.30 291.41 178.33
  A 0.72 0.71 55.3 0 1 290.53 178.16
  Q 289.96 177.50 290.21 176.50
  L 291.25 175.46
  L 296.00 176.15
  Q 296.48 176.22 296.28 175.78
  C 295.88 174.90 293.37 175.57 292.21 174.50
  L 292.54 173.75
  L 299.25 173.54
  Z"
/>
<path fill="#ffffff" d="
  M 246.75 176.29
  L 247.29 175.75
  Q 247.99 175.38 248.79 175.52
  Q 249.32 175.60 249.45 176.12
  Q 249.89 177.93 248.18 178.77
  A 2.27 2.17 -56.6 0 1 247.22 178.99
  Q 246.60 178.98 246.06 179.33
  A 0.38 0.38 0.0 0 0 246.27 180.03
  Q 248.06 180.03 249.54 179.03
  A 0.62 0.62 0.0 0 1 250.43 179.25
  C 251.89 182.00 247.71 183.06 245.66 182.78
  Q 245.18 182.72 245.24 183.20
  C 245.37 184.19 248.30 183.64 248.94 183.61
  A 0.74 0.74 0.0 0 1 249.26 185.03
  Q 246.59 186.12 243.97 185.23
  A 0.46 0.46 0.0 0 0 243.47 185.97
  Q 244.31 186.95 245.60 187.14
  A 0.79 0.78 -3.5 0 1 246.23 187.69
  Q 246.35 188.10 246.00 188.46
  L 245.00 188.79
  L 243.00 188.71
  L 240.75 188.21
  L 236.73 187.03
  Q 236.23 186.88 235.80 186.58
  Q 231.85 183.74 226.86 183.75
  A 0.58 0.58 0.0 0 1 226.29 183.04
  Q 226.87 180.46 226.15 177.89
  Q 225.97 177.26 226.60 177.11
  C 229.61 176.41 234.51 177.96 236.24 174.88
  A 0.77 0.76 -70.8 0 1 237.02 174.50
  Q 237.85 174.62 238.12 173.97
  A 0.86 0.86 0.0 0 1 239.78 174.21
  C 240.18 178.08 244.43 176.70 246.75 176.29
  Z"
/>
<path fill="#bbbcba" d="
  M 247.54 174.00
  Q 250.63 174.83 250.54 178.01
  A 0.96 0.95 -70.9 0 0 250.93 178.82
  C 253.17 180.43 250.09 182.68 250.08 184.83
  Q 250.08 185.34 249.65 185.59
  Q 247.92 186.59 247.21 188.50
  L 246.00 188.46
  Q 246.35 188.10 246.23 187.69
  A 0.79 0.78 -3.5 0 0 245.60 187.14
  Q 244.31 186.95 243.47 185.97
  A 0.46 0.46 0.0 0 1 243.97 185.23
  Q 246.59 186.12 249.26 185.03
  A 0.74 0.74 0.0 0 0 248.94 183.61
  C 248.30 183.64 245.37 184.19 245.24 183.20
  Q 245.18 182.72 245.66 182.78
  C 247.71 183.06 251.89 182.00 250.43 179.25
  A 0.62 0.62 0.0 0 0 249.54 179.03
  Q 248.06 180.03 246.27 180.03
  A 0.38 0.38 0.0 0 1 246.06 179.33
  Q 246.60 178.98 247.22 178.99
  A 2.27 2.17 -56.6 0 0 248.18 178.77
  Q 249.89 177.93 249.45 176.12
  Q 249.32 175.60 248.79 175.52
  Q 247.99 175.38 247.29 175.75
  Q 246.66 174.73 247.54 174.00
  Z"
/>
<path fill="#abacaa" d="
  M 292.21 174.50
  C 293.37 175.57 295.88 174.90 296.28 175.78
  Q 296.48 176.22 296.00 176.15
  L 291.25 175.46
  L 292.21 174.50
  Z"
/>
<path fill="#abacaa" d="
  M 290.21 176.50
  Q 289.96 177.50 290.53 178.16
  A 0.72 0.71 55.3 0 0 291.41 178.33
  Q 293.35 177.30 295.21 178.60
  A 0.27 0.26 71.2 0 1 294.98 179.07
  Q 290.69 177.68 289.21 181.26
  A 1.07 1.07 0.0 0 0 290.84 182.53
  Q 292.69 181.14 293.36 181.60
  Q 293.99 182.02 293.28 182.28
  Q 290.15 183.39 290.46 185.25
  L 290.21 186.00
  Q 289.23 185.11 289.58 183.83
  A 0.80 0.79 32.8 0 0 289.42 183.11
  L 288.31 181.82
  Q 287.95 181.40 288.18 180.90
  L 290.21 176.50
  Z"
/>
<path fill="#c79800" d="
  M 296.75 185.96
  Q 295.70 185.98 295.43 186.98
  Q 291.74 200.83 278.29 205.50
  L 277.29 204.25
  L 277.50 203.54
  Q 288.63 199.29 292.73 188.11
  Q 292.89 184.69 296.75 185.96
  Z"
/>
<path fill="#cc112f" d="
  M 296.75 185.96
  L 298.25 186.54
  Q 294.11 203.05 278.04 208.50
  L 278.29 205.50
  Q 291.74 200.83 295.43 186.98
  Q 295.70 185.98 296.75 185.96
  Z"
/>
<path fill="#c79800" d="
  M 298.25 186.54
  Q 299.92 187.06 300.04 189.00
  Q 296.89 199.07 288.69 206.12
  Q 283.99 209.06 278.25 210.71
  L 278.04 208.50
  Q 294.11 203.05 298.25 186.54
  Z"
/>
<path fill="#c79800" d="
  M 240.75 188.21
  L 243.00 188.71
  Q 242.50 189.35 242.75 190.00
  Q 248.60 205.22 264.50 209.29
  Q 263.51 210.71 261.75 210.79
  Q 256.48 209.22 251.87 206.30
  Q 243.17 199.43 239.75 188.79
  L 240.75 188.21
  Z"
/>
<path fill="#c79800" d="
  M 246.00 188.46
  L 247.21 188.50
  Q 251.59 199.54 262.75 203.46
  Q 265.62 203.86 264.96 206.75
  Q 250.23 203.00 245.00 188.79
  L 246.00 188.46
  Z"
/>
<path fill="#cc112f" d="
  M 243.00 188.71
  L 245.00 188.79
  Q 250.23 203.00 264.96 206.75
  L 264.50 209.29
  Q 248.60 205.22 242.75 190.00
  Q 242.50 189.35 243.00 188.71
  Z"
/>
<path fill="#abacaa" d="
  M 277.50 203.54
  L 277.29 204.25
  L 277.04 205.00
  Q 277.03 204.78 276.99 204.56
  Q 276.89 204.00 276.40 204.29
  L 276.15 204.44
  A 0.39 0.38 -19.7 0 0 275.97 204.81
  Q 276.16 206.39 275.10 207.36
  A 0.37 0.37 0.0 0 1 274.50 206.99
  Q 275.24 204.33 274.01 201.90
  A 0.59 0.59 0.0 0 0 272.89 202.17
  L 272.95 205.50
  A 0.30 0.30 0.0 0 1 272.49 205.76
  L 272.21 205.59
  Q 271.81 205.35 271.91 204.90
  Q 272.58 201.87 270.16 200.22
  A 0.99 0.99 0.0 0 0 268.65 201.31
  L 269.49 204.22
  A 0.54 0.54 0.0 0 1 268.48 204.60
  Q 268.04 203.68 267.99 202.69
  A 0.98 0.97 -75.8 0 0 267.52 201.89
  Q 266.22 201.09 264.95 201.96
  Q 264.50 202.26 264.81 202.70
  Q 268.26 207.70 263.71 211.49
  Q 263.34 211.79 263.46 212.26
  Q 263.95 214.24 265.69 216.06
  Q 263.99 216.83 263.00 214.71
  Q 262.96 213.90 262.52 213.25
  Q 262.23 212.82 262.41 212.33
  Q 262.79 211.32 261.75 210.79
  Q 263.51 210.71 264.50 209.29
  L 264.96 206.75
  Q 265.62 203.86 262.75 203.46
  C 264.18 199.83 266.35 200.99 268.89 199.12
  Q 269.35 198.78 269.85 199.05
  L 272.35 200.38
  Q 272.80 200.62 273.31 200.55
  L 273.72 200.49
  A 0.78 0.76 62.0 0 1 274.32 200.68
  L 277.50 203.54
  Z"
/>
<path fill="#000000" d="
  M 277.04 205.00
  L 277.04 211.50
  C 276.23 214.72 274.10 217.05 273.51 220.08
  Q 273.13 222.04 272.93 224.03
  Q 272.88 224.49 272.43 224.50
  L 266.65 224.70
  A 0.84 0.84 0.0 0 1 265.78 223.87
  L 265.69 216.06
  Q 263.95 214.24 263.46 212.26
  Q 263.34 211.79 263.71 211.49
  Q 268.26 207.70 264.81 202.70
  Q 264.50 202.26 264.95 201.96
  Q 266.22 201.09 267.52 201.89
  A 0.98 0.97 -75.8 0 1 267.99 202.69
  Q 268.04 203.68 268.48 204.60
  A 0.54 0.54 0.0 0 0 269.49 204.22
  L 268.65 201.31
  A 0.99 0.99 0.0 0 1 270.16 200.22
  Q 272.58 201.87 271.91 204.90
  Q 271.81 205.35 272.21 205.59
  L 272.49 205.76
  A 0.30 0.30 0.0 0 0 272.95 205.50
  L 272.89 202.17
  A 0.59 0.59 0.0 0 1 274.01 201.90
  Q 275.24 204.33 274.50 206.99
  A 0.37 0.37 0.0 0 0 275.10 207.36
  Q 276.16 206.39 275.97 204.81
  A 0.39 0.38 -19.7 0 1 276.15 204.44
  L 276.40 204.29
  Q 276.89 204.00 276.99 204.56
  Q 277.03 204.78 277.04 205.00
  Z"
/>
<path fill="#bbbcba" d="
  M 277.29 204.25
  L 278.29 205.50
  L 278.04 208.50
  L 278.25 210.71
  L 277.50 211.96
  L 277.04 211.50
  L 277.04 205.00
  L 277.29 204.25
  Z"
/>
<path fill="#ffffff" d="
  M 251.87 206.30
  Q 256.48 209.22 261.75 210.79
  Q 262.79 211.32 262.41 212.33
  Q 262.23 212.82 262.52 213.25
  Q 262.96 213.90 263.00 214.71
  L 231.98 215.23
  L 228.25 206.99
  Q 227.96 206.37 228.65 206.36
  L 251.87 206.30
  Z"
/>
<path fill="#ffffff" d="
  M 288.69 206.12
  L 311.34 206.29
  Q 312.09 206.30 311.78 206.98
  L 307.99 215.29
  L 277.80 215.03
  Q 277.19 215.03 277.25 214.43
  L 277.50 211.96
  L 278.25 210.71
  Q 283.99 209.06 288.69 206.12
  Z"
/>
<path fill="#95c4ea" d="
  M 277.04 211.50
  L 277.50 211.96
  L 277.25 214.43
  Q 277.19 215.03 277.80 215.03
  L 307.99 215.29
  Q 292.11 237.52 270.39 253.50
  Q 269.99 253.79 269.60 253.50
  Q 247.92 237.53 231.98 215.23
  L 263.00 214.71
  Q 263.99 216.83 265.69 216.06
  L 265.78 223.87
  A 0.84 0.84 0.0 0 0 266.65 224.70
  L 272.43 224.50
  Q 272.88 224.49 272.93 224.03
  Q 273.13 222.04 273.51 220.08
  C 274.10 217.05 276.23 214.72 277.04 211.50
  Z"
/>
<path fill="#000000" d="
  M 196.68 248.44
  C 222.84 262.32 254.21 270.96 283.48 267.35
  Q 315.11 263.45 343.14 248.49
  A 0.67 0.66 61.5 0 1 344.03 248.76
  L 350.39 260.35
  Q 350.63 260.78 350.19 261.02
  Q 318.51 278.05 284.70 281.95
  C 252.80 285.63 218.17 276.27 189.74 261.06
  Q 189.34 260.84 189.56 260.44
  L 196.05 248.63
  Q 196.27 248.23 196.68 248.44
  Z
  M 196.77 255.83
  A 0.46 0.46 0.0 0 1 196.25 255.12
  Q 197.39 253.48 197.60 251.43
  A 0.31 0.31 0.0 0 0 197.01 251.25
  Q 194.93 255.30 193.11 259.48
  A 0.35 0.34 -74.6 0 0 193.38 259.96
  L 193.65 260.00
  A 0.32 0.30 18.0 0 0 193.95 259.86
  L 195.64 257.11
  A 0.59 0.59 0.0 0 1 196.63 257.09
  C 197.52 258.46 197.48 261.73 198.51 262.34
  A 0.41 0.41 0.0 0 0 199.12 261.92
  L 198.33 257.35
  A 1.17 1.16 83.9 0 1 199.42 255.99
  Q 201.09 255.92 202.29 254.73
  A 0.35 0.35 0.0 0 0 201.94 254.15
  L 196.77 255.83
  Z
  M 346.41 259.39
  C 344.62 257.63 342.10 255.06 339.93 253.85
  A 0.66 0.66 0.0 0 0 338.94 254.47
  L 339.49 262.71
  A 0.40 0.40 0.0 0 0 340.13 263.00
  Q 341.10 262.24 340.57 261.21
  Q 340.29 260.66 340.71 260.22
  Q 343.25 257.53 345.35 260.12
  Q 345.67 260.53 346.08 260.22
  L 346.36 260.02
  Q 346.75 259.73 346.41 259.39
  Z
  M 205.12 257.08
  L 208.62 258.62
  Q 208.84 258.72 208.92 258.49
  Q 208.96 258.37 208.99 258.24
  Q 209.10 257.68 208.57 257.45
  L 204.12 255.55
  Q 203.53 255.30 203.27 255.87
  L 200.29 262.45
  Q 200.01 263.05 200.61 263.33
  L 205.37 265.51
  A 0.54 0.53 70.6 0 0 205.83 264.54
  Q 203.97 263.59 202.05 262.83
  Q 201.51 262.61 201.77 262.10
  L 202.61 260.43
  Q 202.80 260.07 203.18 260.22
  Q 205.13 261.02 207.03 261.96
  A 0.37 0.37 0.0 0 0 207.46 261.38
  Q 206.12 259.93 204.15 259.55
  Q 203.65 259.46 203.47 258.98
  Q 203.10 257.99 204.31 257.16
  Q 204.69 256.90 205.12 257.08
  Z
  M 336.02 261.62
  Q 334.30 260.10 333.09 258.13
  A 1.06 1.05 -7.8 0 0 332.45 257.65
  C 329.90 257.02 331.58 262.36 331.75 263.75
  Q 331.86 264.58 331.26 263.99
  C 330.43 263.16 327.95 259.34 327.12 259.30
  A 0.43 0.43 0.0 0 0 326.76 260.00
  L 331.92 266.55
  A 0.54 0.54 0.0 0 0 332.89 266.20
  Q 332.79 263.03 332.15 259.95
  A 0.44 0.44 0.0 0 1 332.93 259.59
  L 336.41 264.08
  A 0.75 0.75 0.0 0 0 337.75 263.51
  L 336.64 255.65
  A 0.17 0.17 0.0 0 0 336.47 255.50
  Q 336.31 255.50 336.14 255.50
  Q 335.56 255.51 335.65 256.09
  L 336.46 261.38
  Q 336.58 262.12 336.02 261.62
  Z
  M 217.22 267.04
  C 217.56 269.57 212.54 268.35 212.56 265.40
  C 212.57 262.71 214.52 260.65 217.40 262.02
  Q 217.82 262.23 217.98 262.66
  L 218.51 264.07
  Q 218.75 264.70 219.34 264.40
  C 221.32 263.39 215.90 257.90 212.45 262.04
  C 209.35 265.76 212.76 270.37 217.12 269.41
  A 2.32 1.54 -37.4 0 0 218.39 265.74
  Q 216.72 265.56 215.93 264.83
  A 0.39 0.39 0.0 0 0 215.29 265.25
  Q 215.65 266.24 216.64 266.43
  Q 217.15 266.52 217.22 267.04
  Z
  M 325.69 267.16
  C 325.20 266.13 323.85 261.37 322.84 260.94
  A 0.46 0.46 0.0 0 0 322.24 261.53
  L 324.98 268.63
  A 0.68 0.68 0.0 0 0 325.83 269.02
  Q 327.81 268.37 329.72 267.49
  A 0.57 0.42 -56.6 0 0 329.67 266.50
  Q 328.24 266.90 326.90 267.57
  A 0.89 0.89 0.0 0 1 325.69 267.16
  Z
  M 317.76 269.02
  A 1.31 1.31 0.0 0 1 318.76 267.37
  Q 320.80 266.96 322.49 265.73
  A 0.29 0.29 0.0 0 0 322.25 265.21
  Q 319.95 265.77 317.86 266.82
  Q 317.38 267.07 317.16 266.57
  L 316.47 265.03
  A 0.61 0.60 -21.8 0 1 316.82 264.22
  L 320.57 262.85
  A 0.46 0.46 0.0 0 0 320.26 261.98
  L 315.36 263.67
  A 0.57 0.56 71.4 0 0 315.01 264.39
  L 317.41 271.31
  Q 317.61 271.89 318.20 271.71
  Q 321.06 270.85 323.81 269.67
  A 0.30 0.30 0.0 0 0 323.65 269.09
  Q 321.08 269.44 318.73 270.52
  A 0.46 0.46 0.0 0 1 318.10 270.23
  L 317.76 269.02
  Z
  M 222.7033 272.1651
  A 4.45 4.14 108.7 0 0 228.0515 269.2773
  A 4.45 4.14 108.7 0 0 225.5567 263.7349
  A 4.45 4.14 108.7 0 0 220.2085 266.6227
  A 4.45 4.14 108.7 0 0 222.7033 272.1651
  Z
  M 308.43 268.63
  A 0.35 0.35 0.0 0 1 308.98 268.24
  L 314.35 272.78
  A 0.68 0.68 0.0 0 0 315.44 272.07
  L 313.30 264.63
  Q 313.21 264.34 312.92 264.44
  Q 312.78 264.49 312.62 264.54
  Q 312.30 264.65 312.38 264.98
  L 313.79 270.19
  Q 314.04 271.13 313.29 270.51
  L 307.82 265.97
  A 0.45 0.45 0.0 0 0 307.09 266.35
  Q 307.41 270.56 309.46 274.12
  A 0.30 0.30 0.0 0 0 310.01 273.91
  Q 309.42 271.24 308.43 268.63
  Z
  M 236.93 268.28
  Q 238.17 268.91 239.54 268.53
  A 0.38 0.38 0.0 0 0 239.53 267.79
  L 232.85 266.14
  A 0.49 0.49 0.0 0 0 232.58 267.08
  L 234.67 267.74
  A 0.62 0.62 0.0 0 1 235.08 268.48
  L 233.42 274.91
  Q 233.33 275.26 233.69 275.25
  Q 233.82 275.25 233.96 275.26
  A 0.74 0.74 0.0 0 0 234.74 274.70
  L 236.18 268.63
  Q 236.33 267.98 236.93 268.28
  Z
  M 305.89 273.54
  Q 306.21 274.69 307.31 275.08
  A 0.46 0.46 0.0 0 0 307.84 274.38
  L 302.70 267.35
  A 0.58 0.58 0.0 0 0 301.66 267.57
  Q 300.73 272.12 300.39 276.73
  A 0.35 0.35 0.0 0 0 301.05 276.90
  Q 301.62 275.61 301.76 274.22
  Q 301.82 273.59 302.44 273.46
  L 304.96 272.97
  Q 305.69 272.83 305.89 273.54
  Z
  M 240.36 272.05
  L 243.49 273.86
  A 1.24 1.24 0.0 0 1 242.94 276.17
  Q 240.29 276.33 239.70 273.80
  A 0.41 0.41 0.0 0 0 238.93 273.70
  C 237.47 276.48 242.45 277.56 244.25 277.06
  A 2.08 2.08 0.0 0 0 244.74 273.25
  L 241.48 271.36
  A 1.03 1.03 0.0 0 1 241.88 269.45
  Q 244.21 269.18 244.91 271.26
  A 0.45 0.44 57.5 0 0 245.65 271.43
  C 247.75 269.20 239.12 266.13 239.74 271.11
  A 1.29 1.28 11.7 0 0 240.36 272.05
  Z
  M 292.69 277.06
  C 295.16 278.52 300.51 277.14 298.59 273.17
  Q 298.38 272.72 297.89 272.75
  Q 296.56 272.84 295.28 273.26
  A 0.35 0.35 0.0 0 0 295.32 273.94
  Q 296.02 274.08 296.80 273.96
  A 1.02 1.02 0.0 0 1 297.57 275.78
  C 290.38 281.15 290.33 265.23 297.29 271.02
  A 0.45 0.45 0.0 0 0 297.99 270.49
  C 296.64 267.51 292.23 269.13 291.22 271.21
  C 290.30 273.08 290.83 275.97 292.69 277.06
  Z
  M 252.69 275.43
  L 252.26 278.23
  Q 252.20 278.60 252.56 278.71
  C 254.08 279.13 254.67 270.57 254.00 270.40
  A 0.54 0.54 0.0 0 0 253.34 270.84
  L 252.92 273.39
  Q 252.85 273.86 252.39 273.76
  L 249.25 273.11
  A 0.73 0.72 14.0 0 1 248.70 272.20
  Q 249.16 270.64 248.67 269.20
  A 0.36 0.36 0.0 0 0 247.98 269.26
  Q 247.36 273.30 246.78 277.33
  Q 246.72 277.74 247.10 277.92
  C 248.16 278.41 248.19 275.39 248.34 274.72
  Q 248.46 274.19 248.99 274.28
  L 252.23 274.80
  Q 252.77 274.89 252.69 275.43
  Z
  M 288.27 276.57
  L 289.62 278.60
  A 0.24 0.24 0.0 0 0 290.00 278.63
  Q 290.11 278.51 290.29 278.36
  Q 290.58 278.14 290.41 277.83
  L 286.44 270.57
  A 0.85 0.84 -52.2 0 0 284.88 270.77
  L 282.83 279.00
  A 0.41 0.41 0.0 0 0 283.51 279.39
  Q 284.36 278.59 284.30 277.40
  A 0.72 0.71 83.6 0 1 284.88 276.66
  L 287.36 276.19
  Q 287.94 276.07 288.27 276.57
  Z
  M 257.35 276.72
  L 256.64 271.24
  A 0.56 0.55 -52.1 0 0 255.54 271.38
  Q 256.01 275.41 257.10 279.30
  A 0.43 0.43 0.0 0 0 257.89 279.39
  Q 259.48 276.58 260.15 273.42
  Q 260.34 272.53 260.68 273.37
  C 261.18 274.61 261.83 279.10 262.62 279.70
  A 0.57 0.57 0.0 0 0 263.50 279.44
  L 266.20 271.82
  A 0.47 0.47 0.0 0 0 265.35 271.44
  Q 264.10 273.74 263.74 276.34
  A 0.57 0.57 0.0 0 1 262.62 276.36
  L 261.75 271.65
  A 0.86 0.86 0.0 0 0 260.12 271.47
  L 257.80 276.79
  Q 257.46 277.58 257.35 276.72
  Z
  M 275.76 277.05
  A 1.43 1.43 0.0 0 1 278.29 276.15
  L 281.02 279.47
  A 0.50 0.50 0.0 0 0 281.85 278.91
  Q 280.87 277.12 279.49 275.65
  Q 279.09 275.22 279.68 275.24
  Q 279.82 275.25 279.96 275.25
  Q 280.46 275.27 280.74 274.85
  C 283.61 270.62 276.66 270.81 274.78 271.37
  Q 274.32 271.50 274.35 271.98
  L 274.85 279.52
  A 0.44 0.44 0.0 0 0 275.73 279.50
  L 275.76 277.05
  Z
  M 268.57 277.35
  L 271.02 277.50
  A 0.67 0.66 -8.2 0 1 271.60 277.93
  L 272.21 279.50
  A 0.58 0.58 0.0 0 0 273.29 279.09
  Q 271.89 275.29 270.34 271.57
  A 0.75 0.75 0.0 0 0 268.95 271.58
  L 265.76 279.53
  A 0.46 0.46 0.0 0 0 266.59 279.93
  L 267.84 277.74
  Q 268.08 277.32 268.57 277.35
  Z"
/>
<path fill="#c89f01" d="
  M 176.71 251.49
  Q 178.29 252.08 177.82 253.83
  A 0.42 0.42 0.0 0 1 177.01 253.85
  Q 176.65 252.81 176.30 251.91
  Q 176.04 251.25 176.71 251.49
  Z"
/>
<path fill="#c89f01" d="
  M 362.00 253.23
  Q 362.23 252.17 363.14 251.48
  Q 363.80 250.97 363.58 251.78
  L 363.04 253.76
  A 0.65 0.51 65.4 0 1 362.00 253.23
  Z"
/>
<path fill="#c89f01" d="
  M 196.77 255.83
  L 201.94 254.15
  A 0.35 0.35 0.0 0 1 202.29 254.73
  Q 201.09 255.92 199.42 255.99
  A 1.17 1.16 83.9 0 0 198.33 257.35
  L 199.12 261.92
  A 0.41 0.41 0.0 0 1 198.51 262.34
  C 197.48 261.73 197.52 258.46 196.63 257.09
  A 0.59 0.59 0.0 0 0 195.64 257.11
  L 193.95 259.86
  A 0.32 0.30 18.0 0 1 193.65 260.00
  L 193.38 259.96
  A 0.35 0.34 -74.6 0 1 193.11 259.48
  Q 194.93 255.30 197.01 251.25
  A 0.31 0.31 0.0 0 1 197.60 251.43
  Q 197.39 253.48 196.25 255.12
  A 0.46 0.46 0.0 0 0 196.77 255.83
  Z"
/>
<path fill="#c79800" d="
  M 339.93 253.85
  C 342.10 255.06 344.62 257.63 346.41 259.39
  Q 346.75 259.73 346.36 260.02
  L 346.08 260.22
  Q 345.67 260.53 345.35 260.12
  Q 343.25 257.53 340.71 260.22
  Q 340.29 260.66 340.57 261.21
  Q 341.10 262.24 340.13 263.00
  A 0.40 0.40 0.0 0 1 339.49 262.71
  L 338.94 254.47
  A 0.66 0.66 0.0 0 1 339.93 253.85
  Z
  M 340.34 258.43
  A 0.37 0.37 0.0 0 0 340.88 258.70
  L 342.35 257.91
  A 0.37 0.37 0.0 0 0 342.44 257.32
  L 340.57 255.45
  A 0.37 0.37 0.0 0 0 339.95 255.76
  L 340.34 258.43
  Z"
/>
<path fill="#000000" d="
  M 340.34 258.43
  L 339.95 255.76
  A 0.37 0.37 0.0 0 1 340.57 255.45
  L 342.44 257.32
  A 0.37 0.37 0.0 0 1 342.35 257.91
  L 340.88 258.70
  A 0.37 0.37 0.0 0 1 340.34 258.43
  Z"
/>
<path fill="#c89f01" d="
  M 204.31 257.16
  Q 203.10 257.99 203.47 258.98
  Q 203.65 259.46 204.15 259.55
  Q 206.12 259.93 207.46 261.38
  A 0.37 0.37 0.0 0 1 207.03 261.96
  Q 205.13 261.02 203.18 260.22
  Q 202.80 260.07 202.61 260.43
  L 201.77 262.10
  Q 201.51 262.61 202.05 262.83
  Q 203.97 263.59 205.83 264.54
  A 0.54 0.53 70.6 0 1 205.37 265.51
  L 200.61 263.33
  Q 200.01 263.05 200.29 262.45
  L 203.27 255.87
  Q 203.53 255.30 204.12 255.55
  L 208.57 257.45
  Q 209.10 257.68 208.99 258.24
  Q 208.96 258.37 208.92 258.49
  Q 208.84 258.72 208.62 258.62
  L 205.12 257.08
  Q 204.69 256.90 204.31 257.16
  Z"
/>
<path fill="#c89f01" d="
  M 336.46 261.38
  L 335.65 256.09
  Q 335.56 255.51 336.14 255.50
  Q 336.31 255.50 336.47 255.50
  A 0.17 0.17 0.0 0 1 336.64 255.65
  L 337.75 263.51
  A 0.75 0.75 0.0 0 1 336.41 264.08
  L 332.93 259.59
  A 0.44 0.44 0.0 0 0 332.15 259.95
  Q 332.79 263.03 332.89 266.20
  A 0.54 0.54 0.0 0 1 331.92 266.55
  L 326.76 260.00
  A 0.43 0.43 0.0 0 1 327.12 259.30
  C 327.95 259.34 330.43 263.16 331.26 263.99
  Q 331.86 264.58 331.75 263.75
  C 331.58 262.36 329.90 257.02 332.45 257.65
  A 1.06 1.05 -7.8 0 1 333.09 258.13
  Q 334.30 260.10 336.02 261.62
  Q 336.58 262.12 336.46 261.38
  Z"
/>
<path fill="#c89f01" d="
  M 212.56 265.40
  C 212.54 268.35 217.56 269.57 217.22 267.04
  Q 217.15 266.52 216.64 266.43
  Q 215.65 266.24 215.29 265.25
  A 0.39 0.39 0.0 0 1 215.93 264.83
  Q 216.72 265.56 218.39 265.74
  A 2.32 1.54 -37.4 0 1 217.12 269.41
  C 212.76 270.37 209.35 265.76 212.45 262.04
  C 215.90 257.90 221.32 263.39 219.34 264.40
  Q 218.75 264.70 218.51 264.07
  L 217.98 262.66
  Q 217.82 262.23 217.40 262.02
  C 214.52 260.65 212.57 262.71 212.56 265.40
  Z"
/>
<path fill="#c89f01" d="
  M 325.69 267.16
  A 0.89 0.89 0.0 0 0 326.90 267.57
  Q 328.24 266.90 329.67 266.50
  A 0.57 0.42 -56.6 0 1 329.72 267.49
  Q 327.81 268.37 325.83 269.02
  A 0.68 0.68 0.0 0 1 324.98 268.63
  L 322.24 261.53
  A 0.46 0.46 0.0 0 1 322.84 260.94
  C 323.85 261.37 325.20 266.13 325.69 267.16
  Z"
/>
<path fill="#c89f01" d="
  M 317.76 269.02
  L 318.10 270.23
  A 0.46 0.46 0.0 0 0 318.73 270.52
  Q 321.08 269.44 323.65 269.09
  A 0.30 0.30 0.0 0 1 323.81 269.67
  Q 321.06 270.85 318.20 271.71
  Q 317.61 271.89 317.41 271.31
  L 315.01 264.39
  A 0.57 0.56 71.4 0 1 315.36 263.67
  L 320.26 261.98
  A 0.46 0.46 0.0 0 1 320.57 262.85
  L 316.82 264.22
  A 0.61 0.60 -21.8 0 0 316.47 265.03
  L 317.16 266.57
  Q 317.38 267.07 317.86 266.82
  Q 319.95 265.77 322.25 265.21
  A 0.29 0.29 0.0 0 1 322.49 265.73
  Q 320.80 266.96 318.76 267.37
  A 1.31 1.31 0.0 0 0 317.76 269.02
  Z"
/>
<path fill="#c89f01" d="
  M 222.7033 272.1651
  A 4.45 4.14 108.7 0 1 220.2085 266.6227
  A 4.45 4.14 108.7 0 1 225.5567 263.7349
  A 4.45 4.14 108.7 0 1 228.0515 269.2773
  A 4.45 4.14 108.7 0 1 222.7033 272.1651
  Z
  M 223.1730 271.2066
  A 3.40 2.92 106.7 0 0 226.9468 268.7891
  A 3.40 2.92 106.7 0 0 225.1270 264.6934
  A 3.40 2.92 106.7 0 0 221.3532 267.1109
  A 3.40 2.92 106.7 0 0 223.1730 271.2066
  Z"
/>
<ellipse fill="#000000" cx="0.00" cy="0.00" transform="translate(224.15,267.95) rotate(106.7)" rx="3.40" ry="2.92"/>
<path fill="#c89f01" d="
  M 308.43 268.63
  Q 309.42 271.24 310.01 273.91
  A 0.30 0.30 0.0 0 1 309.46 274.12
  Q 307.41 270.56 307.09 266.35
  A 0.45 0.45 0.0 0 1 307.82 265.97
  L 313.29 270.51
  Q 314.04 271.13 313.79 270.19
  L 312.38 264.98
  Q 312.30 264.65 312.62 264.54
  Q 312.78 264.49 312.92 264.44
  Q 313.21 264.34 313.30 264.63
  L 315.44 272.07
  A 0.68 0.68 0.0 0 1 314.35 272.78
  L 308.98 268.24
  A 0.35 0.35 0.0 0 0 308.43 268.63
  Z"
/>
<path fill="#c89f01" d="
  M 236.18 268.63
  L 234.74 274.70
  A 0.74 0.74 0.0 0 1 233.96 275.26
  Q 233.82 275.25 233.69 275.25
  Q 233.33 275.26 233.42 274.91
  L 235.08 268.48
  A 0.62 0.62 0.0 0 0 234.67 267.74
  L 232.58 267.08
  A 0.49 0.49 0.0 0 1 232.85 266.14
  L 239.53 267.79
  A 0.38 0.38 0.0 0 1 239.54 268.53
  Q 238.17 268.91 236.93 268.28
  Q 236.33 267.98 236.18 268.63
  Z"
/>
<path fill="#c89f01" d="
  M 304.96 272.97
  L 302.44 273.46
  Q 301.82 273.59 301.76 274.22
  Q 301.62 275.61 301.05 276.90
  A 0.35 0.35 0.0 0 1 300.39 276.73
  Q 300.73 272.12 301.66 267.57
  A 0.58 0.58 0.0 0 1 302.70 267.35
  L 307.84 274.38
  A 0.46 0.46 0.0 0 1 307.31 275.08
  Q 306.21 274.69 305.89 273.54
  Q 305.69 272.83 304.96 272.97
  Z
  M 302.21 271.04
  Q 302.22 271.63 302.70 271.95
  Q 303.95 272.78 304.02 271.32
  Q 304.04 270.82 303.75 270.42
  L 302.94 269.31
  Q 302.40 268.56 302.28 269.48
  Q 302.19 270.13 302.21 271.04
  Z"
/>
<path fill="#c89f01" d="
  M 240.36 272.05
  A 1.29 1.28 11.7 0 1 239.74 271.11
  C 239.12 266.13 247.75 269.20 245.65 271.43
  A 0.45 0.44 57.5 0 1 244.91 271.26
  Q 244.21 269.18 241.88 269.45
  A 1.03 1.03 0.0 0 0 241.48 271.36
  L 244.74 273.25
  A 2.08 2.08 0.0 0 1 244.25 277.06
  C 242.45 277.56 237.47 276.48 238.93 273.70
  A 0.41 0.41 0.0 0 1 239.70 273.80
  Q 240.29 276.33 242.94 276.17
  A 1.24 1.24 0.0 0 0 243.49 273.86
  L 240.36 272.05
  Z"
/>
<path fill="#c89f01" d="
  M 292.69 277.06
  C 290.83 275.97 290.30 273.08 291.22 271.21
  C 292.23 269.13 296.64 267.51 297.99 270.49
  A 0.45 0.45 0.0 0 1 297.29 271.02
  C 290.33 265.23 290.38 281.15 297.57 275.78
  A 1.02 1.02 0.0 0 0 296.80 273.96
  Q 296.02 274.08 295.32 273.94
  A 0.35 0.35 0.0 0 1 295.28 273.26
  Q 296.56 272.84 297.89 272.75
  Q 298.38 272.72 298.59 273.17
  C 300.51 277.14 295.16 278.52 292.69 277.06
  Z"
/>
<path fill="#000000" d="
  M 302.21 271.04
  Q 302.19 270.13 302.28 269.48
  Q 302.40 268.56 302.94 269.31
  L 303.75 270.42
  Q 304.04 270.82 304.02 271.32
  Q 303.95 272.78 302.70 271.95
  Q 302.22 271.63 302.21 271.04
  Z"
/>
<path fill="#c89f01" d="
  M 252.23 274.80
  L 248.99 274.28
  Q 248.46 274.19 248.34 274.72
  C 248.19 275.39 248.16 278.41 247.10 277.92
  Q 246.72 277.74 246.78 277.33
  Q 247.36 273.30 247.98 269.26
  A 0.36 0.36 0.0 0 1 248.67 269.20
  Q 249.16 270.64 248.70 272.20
  A 0.73 0.72 14.0 0 0 249.25 273.11
  L 252.39 273.76
  Q 252.85 273.86 252.92 273.39
  L 253.34 270.84
  A 0.54 0.54 0.0 0 1 254.00 270.40
  C 254.67 270.57 254.08 279.13 252.56 278.71
  Q 252.20 278.60 252.26 278.23
  L 252.69 275.43
  Q 252.77 274.89 252.23 274.80
  Z"
/>
<path fill="#c79800" d="
  M 287.36 276.19
  L 284.88 276.66
  A 0.72 0.71 83.6 0 0 284.30 277.40
  Q 284.36 278.59 283.51 279.39
  A 0.41 0.41 0.0 0 1 282.83 279.00
  L 284.88 270.77
  A 0.85 0.84 -52.2 0 1 286.44 270.57
  L 290.41 277.83
  Q 290.58 278.14 290.29 278.36
  Q 290.11 278.51 290.00 278.63
  A 0.24 0.24 0.0 0 1 289.62 278.60
  L 288.27 276.57
  Q 287.94 276.07 287.36 276.19
  Z
  M 285.34 273.34
  L 285.07 275.00
  A 0.52 0.51 86.5 0 0 285.72 275.58
  L 286.69 275.29
  Q 286.93 275.22 286.97 274.98
  Q 287.20 273.63 286.29 272.95
  Q 285.49 272.35 285.34 273.34
  Z"
/>
<path fill="#c79800" d="
  M 257.80 276.79
  L 260.12 271.47
  A 0.86 0.86 0.0 0 1 261.75 271.65
  L 262.62 276.36
  A 0.57 0.57 0.0 0 0 263.74 276.34
  Q 264.10 273.74 265.35 271.44
  A 0.47 0.47 0.0 0 1 266.20 271.82
  L 263.50 279.44
  A 0.57 0.57 0.0 0 1 262.62 279.70
  C 261.83 279.10 261.18 274.61 260.68 273.37
  Q 260.34 272.53 260.15 273.42
  Q 259.48 276.58 257.89 279.39
  A 0.43 0.43 0.0 0 1 257.10 279.30
  Q 256.01 275.41 255.54 271.38
  A 0.56 0.55 -52.1 0 1 256.64 271.24
  L 257.35 276.72
  Q 257.46 277.58 257.80 276.79
  Z"
/>
<path fill="#c89f01" d="
  M 275.76 277.05
  L 275.73 279.50
  A 0.44 0.44 0.0 0 1 274.85 279.52
  L 274.35 271.98
  Q 274.32 271.50 274.78 271.37
  C 276.66 270.81 283.61 270.62 280.74 274.85
  Q 280.46 275.27 279.96 275.25
  Q 279.82 275.25 279.68 275.24
  Q 279.09 275.22 279.49 275.65
  Q 280.87 277.12 281.85 278.91
  A 0.50 0.50 0.0 0 1 281.02 279.47
  L 278.29 276.15
  A 1.43 1.43 0.0 0 0 275.76 277.05
  Z
  M 275.48 272.80
  L 275.59 274.48
  A 0.65 0.65 0.0 0 0 276.27 275.08
  L 277.92 274.98
  A 2.18 1.27 -3.5 0 0 280.02 273.58
  L 279.99 273.14
  A 2.18 1.27 -3.5 0 0 277.74 272.01
  L 276.09 272.11
  A 0.65 0.65 0.0 0 0 275.48 272.80
  Z"
/>
<path fill="#c89f01" d="
  M 267.84 277.74
  L 266.59 279.93
  A 0.46 0.46 0.0 0 1 265.76 279.53
  L 268.95 271.58
  A 0.75 0.75 0.0 0 1 270.34 271.57
  Q 271.89 275.29 273.29 279.09
  A 0.58 0.58 0.0 0 1 272.21 279.50
  L 271.60 277.93
  A 0.67 0.66 -8.2 0 0 271.02 277.50
  L 268.57 277.35
  Q 268.08 277.32 267.84 277.74
  Z
  M 269.17 273.64
  L 268.51 275.54
  A 0.55 0.54 -81.4 0 0 269.04 276.26
  L 270.25 276.23
  Q 271.02 276.21 270.71 275.50
  L 269.89 273.62
  Q 269.49 272.70 269.17 273.64
  Z"
/>
<path fill="#000000" d="
  M 275.48 272.80
  A 0.65 0.65 0.0 0 1 276.09 272.11
  L 277.74 272.01
  A 2.18 1.27 -3.5 0 1 279.99 273.14
  L 280.02 273.58
  A 2.18 1.27 -3.5 0 1 277.92 274.98
  L 276.27 275.08
  A 0.65 0.65 0.0 0 1 275.59 274.48
  L 275.48 272.80
  Z"
/>
<path fill="#000000" d="
  M 285.34 273.34
  Q 285.49 272.35 286.29 272.95
  Q 287.20 273.63 286.97 274.98
  Q 286.93 275.22 286.69 275.29
  L 285.72 275.58
  A 0.52 0.51 86.5 0 1 285.07 275.00
  L 285.34 273.34
  Z"
/>
<path fill="#000000" d="
  M 269.17 273.64
  Q 269.49 272.70 269.89 273.62
  L 270.71 275.50
  Q 271.02 276.21 270.25 276.23
  L 269.04 276.26
  A 0.55 0.54 -81.4 0 1 268.51 275.54
  L 269.17 273.64
  Z"
/>
<path fill="#c89f01" d="
  M 212.39 287.01
  Q 212.25 286.88 212.12 286.75
  A 0.20 0.20 0.0 0 1 212.16 286.44
  Q 212.91 285.97 213.68 286.49
  A 0.42 0.42 0.0 0 1 213.44 287.25
  L 213.02 287.25
  A 0.95 0.95 0.0 0 1 212.39 287.01
  Z"
/>
<path fill="#c89f01" d="
  M 327.74 286.98
  C 327.30 287.05 326.79 287.45 326.37 287.20
  A 0.47 0.47 0.0 0 1 326.57 286.33
  L 327.65 286.25
  A 0.37 0.37 0.0 0 1 327.74 286.98
  Z"
/>
</svg>
