<?xml version="1.0" encoding="UTF-8"?>
<svg id="Layer_1" xmlns="http://www.w3.org/2000/svg" version="1.1" xmlns:xlink="http://www.w3.org/1999/xlink" viewBox="0 0 780.2 389.3">
  <!-- Generator: Adobe Illustrator 29.3.1, SVG Export Plug-In . SVG Version: 2.1.0 Build 151)  -->
  <defs>
    <style>
      .st0 {
        fill: #66372a;
      }

      .st1 {
        fill: #fdda54;
      }

      .st2 {
        fill: #4aab65;
      }

      .st3 {
        fill: #0d8bcc;
      }
    </style>
  </defs>
  <path class="st3" d="M0,0h780.9v390.5H0V0Z"/>
  <path class="st2" d="M303,258.3h172.1v48.2h-172.1v-48.2Z"/>
  <path class="st0" d="M303.7,290.2c3.3-2.6,8.6,2.6,18.8,2.6,6.7,0,12.2-2.4,15.9-4.4,2.7,1.6,9.6,5,18.8,4.5,7.2-.4,12.5-3,15.2-4.6,1.5,1.4,6.3,5.5,13.7,6.2,10.3,1,17.3-5.5,18.4-6.5,2.4,1.6,7.1,4.3,13.7,5.1,10,1.1,17.6-3.2,19.9-4.7,2.1,1.4,8.8,5.7,18.3,5.4,9.4-.3,15.7-4.9,17.7-6.5,4.6,9.3,3.7,13.9,2.1,16.5-6.2,9.7-29.7-1-60.8,6.2-11.9,2.8-21.1,7.3-27.1,10.7-3.1-2.4-8.4-6-15.5-8.1-11.7-3.5-18.3-.2-39.4.2-21,.3-25.2-2.9-27.2-5.1-4.8-5.4-5.6-14.7-2.2-17.4h0Z"/>
  <path class="st1" d="M373.1,188c-1.4-.4-3.8-.8-6.5-.2-5,1.2-6.5,5-8.5,4.4-2.9-.9-.5-9.2-5.1-14.8-2.7-3.2-6.7-4.3-9.5-4.7,1.3,2,2.6,4.7,1.9,7.5-.8,3-3.3,3.1-5.6,6.8-3.1,4.9-1.9,9.7-3.5,10-1.6.3-2.4-4-6-5.3-2.3-.8-4.7,0-6.6.9,1.1,1.7,2.7,4.5,3.1,8.1.7,5.7-1.8,8.8-2.5,12.7-1.8,9.4,6.1,23.5,18.3,26.4,6.2,1.5,13.4,0,18.5-4,7.9-6.3,10.1-18.4,8-27-1.2-4.9-3.6-7.9-2.4-12.6,1-4,4-6.7,6.5-8.4h0ZM359,228c-1.8,3.2-5.1,4.6-7.3,5.4.9-1.9,2.4-5.9,1-10.3-.2-.7-1.6-5-3.9-5.1-2,0-3.5,2.9-4.2,4.4-.7,1.4-2.1,4.2-1.2,7.7.8,2.9,2.7,4.6,3.5,5.2-1,0-2.6,0-4.2-.8-4.1-2-6.2-7.7-4.6-10.6,1.1-1.9,3.2-1.7,4.6-4.6.5-1.1.3-1.4,1-2.8.5-1.1,1.7-3.5,3.2-4,2-.7,5.2,1.5,7.4,5.4.5-1.7,1-4.2.2-6.9-1.4-4.7-5.5-5.7-7-10.4-.5-1.6-.8-4.1.3-7.6-.7.9-1.7,2.2-2.6,4.1-2.3,4.9-1.2,7.9-3.3,12-.7,1.3-1.9,3.2-4.2,5,0-2.7.3-6.2,1.1-10.1,1.4-6.9,2.5-12.8,7.1-15.4,1.3-.7,3.4-1.5,6.6-1.2-.6,2.4-1.2,6-.6,10.2.8,5.6,2.9,6.9,5.4,14.3,2.1,6.2,3.9,11.6,1.4,16.1h0ZM450.9,188c-1.4-.4-3.8-.8-6.5-.2-5,1.2-6.5,5-8.5,4.4-2.9-.9-.5-9.2-5.1-14.8-2.7-3.2-6.7-4.3-9.5-4.7,1.3,2,2.6,4.7,1.9,7.5-.8,3-3.3,3.1-5.6,6.8-3.1,4.9-1.9,9.7-3.5,10-1.6.3-2.4-4-6-5.3-2.3-.8-4.7,0-6.6.9,1.1,1.7,2.7,4.5,3.1,8.1.7,5.7-1.8,8.8-2.5,12.7-1.8,9.4,6.1,23.5,18.3,26.4,6.2,1.5,13.4,0,18.5-4,7.9-6.3,10.1-18.4,8-27-1.2-4.9-3.6-7.9-2.4-12.6,1-4,4-6.7,6.5-8.4h0ZM436.8,228c-1.8,3.2-5.1,4.6-7.3,5.4.9-1.9,2.4-5.9,1-10.3-.2-.7-1.6-5-3.9-5.1-2,0-3.5,2.9-4.2,4.4-.7,1.4-2.1,4.2-1.2,7.7.8,2.9,2.7,4.6,3.5,5.2-1,0-2.6,0-4.2-.8-4.1-2-6.2-7.7-4.6-10.6,1.1-1.9,3.2-1.7,4.6-4.6.5-1.1.3-1.4,1-2.8.5-1.1,1.7-3.5,3.2-4,2-.7,5.2,1.5,7.4,5.4.5-1.7,1-4.2.2-6.9-1.4-4.7-5.5-5.7-7-10.4-.5-1.6-.8-4.1.3-7.6-.7.9-1.7,2.2-2.6,4.1-2.3,4.9-1.2,7.9-3.3,12-.7,1.3-1.9,3.2-4.2,5,0-2.7.3-6.2,1.1-10.1,1.4-6.9,2.5-12.8,7.1-15.4,1.3-.7,3.4-1.5,6.6-1.2-.6,2.4-1.2,6-.6,10.2.8,5.6,2.9,6.9,5.4,14.3,2.1,6.2,3.9,11.6,1.4,16.1h0ZM413,120.4c-1.4-.4-3.8-.8-6.5-.2-5,1.2-6.5,5-8.5,4.4-2.9-.9-.5-9.2-5.1-14.8-2.7-3.2-6.7-4.3-9.5-4.7,1.3,2,2.6,4.7,1.9,7.5-.8,3-3.3,3.1-5.6,6.8-3.1,4.9-1.9,9.7-3.5,10-1.6.3-2.4-4-6-5.3-2.3-.8-4.7,0-6.6.9,1.1,1.7,2.7,4.5,3.1,8.1.7,5.7-1.8,8.8-2.5,12.7-1.8,9.4,6.1,23.5,18.3,26.4,6.2,1.5,13.4,0,18.5-4,7.9-6.3,10.1-18.4,8-27-1.2-4.9-3.6-7.9-2.4-12.6,1-4,4-6.7,6.5-8.4h0ZM398.8,160.3c-1.8,3.2-5.1,4.6-7.3,5.4.9-1.9,2.4-5.9,1-10.3-.2-.7-1.6-5-3.9-5.1-2,0-3.5,2.9-4.2,4.4-.7,1.4-2.1,4.2-1.2,7.7.8,2.9,2.7,4.6,3.5,5.2-1,0-2.6,0-4.2-.8-4.1-2-6.2-7.7-4.6-10.6,1.1-1.9,3.2-1.7,4.6-4.6.5-1.1.3-1.4,1-2.8.5-1.1,1.7-3.5,3.2-4,2-.7,5.2,1.5,7.4,5.4.5-1.7,1-4.2.2-6.9-1.4-4.7-5.5-5.7-7-10.4-.5-1.6-.8-4.1.3-7.6-.7.9-1.7,2.2-2.6,4.1-2.3,4.9-1.2,7.9-3.3,12-.7,1.3-1.9,3.2-4.2,5,0-2.7.3-6.2,1.1-10.1,1.4-6.9,2.5-12.8,7.1-15.4,1.3-.7,3.4-1.5,6.6-1.2-.6,2.4-1.2,6-.6,10.2.8,5.6,2.9,6.9,5.4,14.3,2.1,6.2,3.9,11.6,1.4,16.1h0ZM388.2,76h-92.9v215.6c0,5.4.9,16.9,8.9,22.3,4.4,3,9.3,3,11.5,2.9,13.8-.1,35.5,0,63.2,0l9.4,10.6,9.4-10.6c27.7,0,49.5-.1,63.2,0,2.2,0,7.1,0,11.5-2.9,7.9-5.4,8.8-16.9,8.9-22.3V76h-92.9ZM464,302.9c-4,2.8-8.3,2.7-10.3,2.7-12.3-.1-31.9,0-56.7,0l-8.7,9.7-8.2-9.7c-24.9,0-44.4-.1-56.7,0-2,0-6.3,0-10.3-2.7-3.9-2.7-5.9-7-6.9-11.2,2.6,1.7,7.9,4.6,15.2,4.7,9,.1,15.2-4.1,17.1-5.4,1.9,1.4,7.7,5.3,16.3,5.4,9,.1,15.2-4.1,17.1-5.4,1.9,1.4,7.7,5.3,16.3,5.4,9,.1,15.2-4.1,17.1-5.4,1.9,1.4,7.7,5.3,16.3,5.4,9,.1,15.2-4.1,17.1-5.4,1.9,1.4,7.7,5.3,16.3,5.4,7.7.1,13.4-3,16-4.7-1,4.2-3,8.5-6.9,11.2h0ZM471.9,282.5c0,.4,0,1,0,1.5-1.9,1.4-8.1,5.5-17,5.4-8.6-.1-14.4-4.1-16.3-5.4-1.8,1.3-8,5.6-17.1,5.4-8.6-.1-14.4-4.1-16.3-5.4-1.8,1.3-8,5.6-17.1,5.4-8.6-.1-14.4-4.1-16.3-5.4-1.8,1.3-8,5.6-17.1,5.4-8.6-.1-14.4-4.1-16.3-5.4-1.8,1.3-8,5.6-17.1,5.4-8.5-.1-14.3-4-16.2-5.4,0-.5,0-1,0-1.5v-8c1.9,1.4,7.7,5.3,16.3,5.4,9,.1,15.2-4.1,17.1-5.4,1.9,1.4,7.7,5.3,16.3,5.4,9,.1,15.2-4.1,17.1-5.4,1.9,1.4,7.7,5.3,16.3,5.4,9,.1,15.2-4.1,17.1-5.4,1.9,1.4,7.7,5.3,16.3,5.4,9,.1,15.2-4.1,17.1-5.4,1.9,1.4,7.7,5.3,16.3,5.4,9,.1,15.2-4.1,17.1-5.4v8h0ZM471.9,267.5c-1.8,1.3-8,5.6-17.1,5.4-8.6-.1-14.4-4.1-16.3-5.4-1.8,1.3-8,5.6-17.1,5.4-8.6-.1-14.4-4.1-16.3-5.4-1.8,1.3-8,5.6-17.1,5.4-8.6-.1-14.4-4.1-16.3-5.4-1.8,1.3-8,5.6-17.1,5.4-8.6-.1-14.4-4.1-16.3-5.4-1.8,1.3-8,5.6-17.1,5.4-8.6-.1-14.4-4.1-16.3-5.4v-8.5c1.9,1.4,7.7,5.3,16.3,5.4,9,.1,15.2-4.1,17.1-5.4,1.9,1.4,7.7,5.3,16.3,5.4,9,.1,15.2-4.1,17.1-5.4,1.9,1.4,7.7,5.3,16.3,5.4,9,.1,15.2-4.1,17.1-5.4,1.9,1.4,7.7,5.3,16.3,5.4,9,.1,15.2-4.1,17.1-5.4,1.9,1.4,7.7,5.3,16.3,5.4,9,.1,15.2-4.1,17.1-5.4v8.5ZM471.9,252.1c-1.8,1.3-8,5.6-17.1,5.4-8.6-.1-14.4-4.1-16.3-5.4-1.8,1.3-8,5.6-17.1,5.4-8.6-.1-14.4-4.1-16.3-5.4-1.8,1.3-8,5.6-17.1,5.4-8.6-.1-14.4-4.1-16.3-5.4-1.8,1.3-8,5.6-17.1,5.4-8.6-.1-14.4-4.1-16.3-5.4-1.8,1.3-8,5.6-17.1,5.4-8.6-.1-14.4-4.1-16.3-5.4V85.6h166.8v166.4h0Z"/>
</svg>