<svg xmlns="http://www.w3.org/2000/svg" width="432" height="216" xmlns:v="https://vecta.io/nano"><path d="M0 0h432v216H0z" fill="#00a78d"/><g fill-rule="evenodd"><path d="M231.558 215.907s-88.053 6.984-90.834-110.972C138.61 15.479 239.568.024 239.568.024L0-.278V216l231.558-.093z" fill="#004890"/><g fill="#fff" stroke="#fff"><path d="M239.546.1s-19.46 3.632-28.98 4.485-9.101-1.072-9.101-1.072c-35.618 19.405-55.809 52.868-64.308 91.638-6.029 36.294 6.569 75.551 32.239 94.997 0 0-38.915-35.519-19.86-101.862 12.255-33.006 37.367-58.621 70.3-71.257C216.571 7.39 232.621 2.949 239.546.1z" stroke-width=".199"/><path d="M142.746 169.511c-19.553-36.5-19.555-80.59-1.212-117.478-2.431 3.494-12.957 20.521-18.701 19.071-10.963 35.471 1.755 69.106 19.913 98.407z" stroke-width=".401"/><path d="M209.538 38.404c7.923-4.886-6.823 8.902-8.698 15.16s1.938 9.874 1.938 9.874c-44.057 18.808-52.731 72.561-31.898 110.946-24.876-31.614-21.669-69.249-1.731-101.273 13.779-22.132 32.467-29.82 40.389-34.706z" stroke-width=".1"/><path d="M178.663 199.356c-1.414-.815 14.951 11.735 30.892 14.556 58.567 10.364 105.902-20.203 103.707-82.393-1.978-56.07-79.891-86.676-120.099-48.967-42.908 40.241-23.985 112.653 37.289 118.984-66.599-9.745-74.359-108.249-8.582-123.605 74.79-8.02 96.911 80.593 44.99 120.356-22.67 17.361-60.364 17.118-88.196 1.069z" stroke-width=".199"/></g></g></svg>