<?xml version="1.0" encoding="UTF-8"?>
<svg width="300" height="200" enable-background="new 0 0 150 87.87" version="1.0" viewBox="0 0 300 200" xml:space="preserve" xmlns="http://www.w3.org/2000/svg">




<rect width="300" height="200" fill="#ffffff" fill-rule="evenodd" stroke-width="31.858"/><g transform="matrix(-2.3951 0 0 2.3951 250 13.667)"><path d="m83.503 46.509c-34.457 5.524-20.763-32.25-37.146-32.124 4.03-2.263 11.57-9.714 18.15 10.598 5.398 16.707 13.205 18.386 18.996 21.526" fill="#104c8a" style="fill:#0039a7"/><path d="m41.335 1.709 5.874 2.072 3.274-3.781 2.771 3.719 6.326-2.212h-.273l-2.829 6.612s-3.522-.935-6.402 1.195c-2.905-2.117-5.041-2.199-6.821-1.538-.312.119-1.92-6.067-1.92-6.067" fill="#f3c516" style="fill:#ffcb00"/><g fill="#104c8a"><path d="m40.051 53.166c.579-1.45 1.125-3.312 1.335-5.562l.159-1.793c-4.609 13.858-38.201 5.34-41.545 26.28 5.308-14.138 32.657-2.39 40.051-18.925" style="fill:#0039a7"/><path d="m43.878 37.59c1.488 11.412 1.646 15.188-4.037 21.468 1.844.02 10.026-.565 10.286-6.853.311-7.088-5.359-14.52-6.249-14.615" style="fill:#0039a7"/><path d="m69.777 49.815c-9.428-3.001-10.915-6.052-14.361-16.16-3.172-9.301-4.101-16.828-12.823-17.934-.394-.057-.121-.617-.089-.871.451-1.259 3.452-3.599 5.677-4.654-.426-1.081-8.601-1.023-12.931 4.92-1.176.273-2.466.629-3.077 1.004-.68.414-1.004 1.164-1.151 1.774-2.117 1.036-4.183 1.812-4.978 2.041-1.551.433-6.402 2.81-7.642 3.783-2.568 2.028-5.359 2.657-3.261 7.234.693 1.532 1.659 3.757 1.704 3.745.273.629.426 1.036.426 1.036l.121-1.22c1.481-.439 3.7-.541 5.086 1.748.35.572 1.348 3.821.801 4.609 0 0-1.78 1.71-2.403 1.875l-.863-.534.471 2.695s-1.418.204-1.157 1.329c.235 1.043.362 4.043 4.469 3.649 4.17-.617 5.124-14.171-1.971-18.208-2.899-1.653 1.456-1.691 1.939-4.298l-1.608-.26c.915-2.117 4.393-2.785 5.283-2.473.89.324 1.227 1.52 2.358 1.468.642-.044 1.507-.203 1.914-1.271s.273-2.104-.14-1.399c-.419.699-1.062.731-1.062.731s-2.212-.985-1.284-2.765c.921-1.78 3.693-.324 3.693-.324s-.35 2.912.089 3.179c.343.209 3.465-1.418 3.662-1.507 2.893-1.265 7.578.56 9.727 4.667 6.916 13.237 3 30.579 23.381 22.391" style="fill:#0039a7"/></g></g>

















</svg>
