<svg xmlns="http://www.w3.org/2000/svg" viewBox="0 0 2000 1000" xmlns:v="https://vecta.io/nano"><path d="M0 60.86V0h492.25L0 284.48V60.86" fill="#9fc8eb"/><path d="M378 48c15.27-8.4 31.95-16.84 50-25a708.52 708.52 0 0 1 41-17l23.25-6h905.93L818 166 378 48" fill="#f69798"/><path d="M0 284.48V60.86L103 38V0h178.33L281 36l12 1a1355.28 1355.28 0 0 1 77 9l8 2L0 284.48" fill="#fecc08"/><path d="M605.75 306.48L0 391.35V284.48A2163.61 2163.61 0 0 1 128 192c87.46-58.46 171.95-105.7 250-144l32.11 4.6C566.14 76.34 710.17 118.48 842 172L605.75 306.48" fill="#f8991d"/><path d="M125.21 342.2V100.88h107.2v98.47L323 191v-48.82L457 144v54.08l50 5.92c60.16 7.89 117.22 18.15 171 30l17 4-89.25 68.48-480.54 35.71" fill="#f9b29d"/><path d="M2000 112l-732.78 259.67L818 166a1204.51 1204.51 0 0 1 62-35c145.9-76.74 289.85-114 415-131h705v112" fill="#62bd5d"/><path d="M680 316L106.66 802.51l20.93-137.65L0 629.94V391.35L15 385c51.82-21.63 145.76-60.85 246-80 120.57-23.03 225.37-11.37 293-4l99 11" fill="#851538"/><path d="M97 813c35.73-39 81.26-86.6 136-139 121.34-116.15 224.57-195.23 286-242 44.35-33.77 98.31-73.29 161-116l36 5c199.65 29.14 386.04 79.81 559 145l8 6-338 203-833.39 239.91L97 813z" fill="#59180b"/><path d="M834.88 171l14.12 6c139.12 59.29 274.75 122.07 407 188l11.22 6.67-87.12 60.52-574.34-125.7a664.92 664.92 0 0 1 89.25-68.48c50.32-32.24 97.97-53.18 137-67" fill="#646338"/><path d="M2000 112c-76.86 7.82-162.06 21.93-253 46-246.09 65.12-433.6 176.52-560 269l-6.9 5.18L1797.14 675 2000 627.82V112z" fill="#00844c"/><path d="M0 1000c32.06-26.04 78.63-62.42 137-103 73.03-50.77 135.22-94 221-134 101.57-47.36 189.79-68.52 237-78 135.67-27.23 256.58-22.93 350-10L797 784 527 974 0 1000z" fill="#604a1d"/><path d="M1383 747c-65.53-17.58-138.42-33.95-218-47-78.96-12.95-152.72-20.71-220-25L642 869l24.32 131h139.76L1370 896l13-149z" fill="#8d7a4b"/><path d="M945 675l338-203 295 109 219.14 94L1441 750l-58-3-438-72z" fill="#9a885e"/><path d="M246 579l-5-151 141-6 4 151-140 6zm1604 76.8c-8.57.25-15.43.11-19 0h-108c-12.81-28.31-20.84-53.44-26-72.83-2.91-10.94-10.81-42.25-14-84.8-3.06-40.85-4.38-61.52 6-73.83 10.12-12 31.08-13.99 73-17.96 23.03-2.19 63.41-6.01 95 0 4.4.84 23.13 4.62 49 7.98l8 1 28-130.7-1.56-.48c-61.62-18.72-114.36-23.03-150.44-23.46-58.28-.69-95.54 8.51-150 21.95-36.32 8.96-59.84 17.57-73 38.91-4.91 7.95-6.34 23.36-9 53.87-5.7 65.29-3.97 108.5-3 126.71l1 15.96 15 146.66-100-8.98c-1.19-19.99-6.48-55.6-32-85.8-26.63-31.52-60.49-39.64-115-51.88-37.19-8.35-108.86-23.6-197-2-45.71 11.21-75.09 18.41-101 44.9-31.26 31.96-42.28 76.46-53 119.72l-22 86.8c-7.42 29.95-11.5 47.11-27 55.87-13.55 7.65-34 7.86-44-2-7.22-7.1-7.48-23.36-8-55.87-.11-6.58-.06-12.08 0-15.96V367.47c7.03-84.16-1.96-156.59-18-217.5L851 139l-148 25.94c9.47 44.85 16.87 93.15 21 144.66l2 29.93-6 384.11-33-90.79-55-97.77-143 96.78c19.17 23.81 47.5 66.03 60 124.71 6.87 32.25 6.11 56.12 5 90.78-1.78 55.39-11.14 71.87-16.37 78.05-.83.98-1.63 1.77-1.63 1.77l-44 18.96-4.89 1.55C395.96 976.16 282.51 986.29 143 954c.01.03.02.08 0 .11-.47.69-15.89-5.43-24-15.97-5.68-7.38-7.42-14.94-9-22.94-6.85-34.65-7-50.88-7-50.88-.4-43.93 4-77.82 4-77.82 3.98-30.63 10.36-71.64 21-120.72L0 630.14V1000l676.96-.05c-1.14-1.89 28.7-35.12 42.04-75.95 11.08-33.92 7.83-64.06 10-64 1.4.04.35 12.51 5 32 3.27 13.71 7.92 24.83 13 37 4.59 10.99 6.88 16.48 10 22 16.53 29.29 44.16 47.55 44.02 48.95 14.38-.99 524.01-.73 1198.98.05V622.88c-22.99-7.19-61.43 30.36-150 32.92zm-499 162.62c-3.74 27.15-6.48 45.2-21 60.86-30.34 32.74-84.79 25.5-119 20.95-27.79-3.69-63.88-8.49-94-36.91-6.15-5.8-42.37-39.99-35-75.83a47.81 47.81 0 0 1 2-6.98c2.41-16.88 11.07-61.06 48-93.78 56.29-49.87 155.11-52.59 199-3 33.37 37.72 25.48 94.95 20 134.69zM1027 236c-.36-5.21 14.55-10.78 25-13 17.61-3.75 32.21-.04 36 1 16.83 4.62 17.06 10.69 38 19 15.26 6.05 24.44 9.7 35 7 20.16-5.15 29.6-29.4 31-33 7.14-18.34.22-25.61 9-51 2.89-8.34 7.56-21.44 15-22 4.22-.32 6.76 3.58 16 12 4.98 4.54 13.68 12.47 20 16 20.85 11.66 50.49-5.12 52-6 7.72-4.5 15.63-11.21 30-34 24.48-38.83 28.74-67.77 33-67 4.01.73-.29 26.13-2 82-1.05 34.35-.04 44.49-8 56-15.4 22.28-46.27 24.37-55 25-39.89 2.89-68.77-21.51-76-28a301.87 301.87 0 0 1-4 26c-4.38 22.08-8.78 44.25-23 66-9.45 14.45-17.27 26.42-32 31-19.65 6.11-38.81-4.87-53-13-25.7-14.73-44.62-38.26-46-40-7.52-9.5-12.58-18.28-25-25-8.79-4.75-15.76-5.5-16-9z" fill="#fff"/></svg>