<svg version="1.0" xmlns="http://www.w3.org/2000/svg" width="392.5" height="262.5" xml:space="preserve">
  <path fill="#FFF" d="M0 0h392.5v262.5H0z"/>
  <path fill="#273A7D" d="m134.167 33.167.275 128.821s7.98 32.063 21.741 45.399c13.76 13.336 34.399 30.928 40.729 30.36 6.33-.567 35.501-23.834 37.978-26.388s23.392-26.956 25.043-43.981c1.651-17.024 1.651-133.361 1.651-133.361"/>
  <path fill="#FFF" d="m136.552 116.778 9.54-6.432 9.724 6.62.184 9.838-9.724-5.676-9.907 6.621zM136.552 96.348l9.541-6.431 9.722 6.62.185 9.837-9.724-5.675-9.907 6.62zM136.552 75.918l9.541-6.432 9.722 6.621.185 9.837-9.724-5.675-9.907 6.62zM238.925 116.778l9.542-6.432 9.722 6.62.185 9.838-9.725-5.676-9.907 6.621zM238.925 96.348l9.542-6.431 9.722 6.62.185 9.837-9.725-5.675-9.907 6.62zM238.925 75.918l9.542-6.432 9.722 6.621.185 9.837-9.725-5.675-9.907 6.62zM180.767 116.778l-.183 10.404 9.907-5.864 7.155 4.54 7.707-4.54 9.356 6.053v-10.405l-9.541-6.809-7.155 5.486-7.522-5.486zM180.767 96.348l-.183 10.403 9.907-5.863 7.155 4.54 7.707-4.54 9.356 6.053V96.537l-9.541-6.81-7.155 5.486-7.522-5.486zM180.767 75.918l-.183 10.404 9.907-5.864 7.155 4.541 7.707-4.541 9.356 6.053V76.107l-9.541-6.81-7.155 5.487-7.522-5.487zM158.384 205.685s19.814 21.281 19.814 17.025V67.217H158.66l-.276 138.468zM157.834 58.988h20.365v5.817h-20.365zM157.972 35.721h20.365v21.281h-20.365zM217.277 66.933l.274 155.493s18.714-13.336 18.989-17.024 0-138.469 0-138.469h-19.263zM216.451 58.917h20.571v5.958h-20.571zM217.277 36.004v21.282h19.814V36.075z"/>
</svg>
