<svg xmlns="http://www.w3.org/2000/svg" height="300" width="300"><path d="m 0.219 0.219 l 0.429 299.56 l 299.13 -0.51 l -0.019 -298.72" fill="#fff" stroke="#000" color="#000" stroke-width="0.438"/><g fill="#078930"><path d="m 0.049 -0.064 l 149.95 150.06 h -149.95 z"/><path d="m 150 150 l -149.95 150.06 h 149.95 z"/><path d="m 299.95 300.06 l -149.95 -150.06 h 149.95 z"/><path d="m 150 150 l 149.95 -150.06 h -149.95 z"/></g><g stroke="#000"><path d="m 205.19 102.06 v 67.2 c 0 28.8 -26.4 55.2 -55.2 55.2 -28.8 0 -55.2 -26.4 -55.2 -55.2 v -67.2 z" fill="#da121a" stroke-width="1.44"/><g stroke-linejoin="round" stroke-linecap="round" stroke-width="0.48"><g fill="#fcdd09"><path d="m 124.01 191.1 v -23.04 h 1.2 v 23.04 z"/><path d="m 123.77 168.06 h 1.68 v -5.76 h -0.48 v -1.2 h -0.72 v 1.2 h -0.48 z"/></g><path d="m 124.55 155.34 c 1.44 1.68 0.72 4.8 0.414 5.76 h -0.72 c -0.174 -0.96 -1.185 -4.08 0.306 -5.76 z" fill="#fff"/></g><g transform="matrix(0.24 0 0 0.24 96.89 100.62)" fill="#fff" stroke-width="2"><path d="m 64.981 357.07 l 111.94 -110.68 c 0.736 -0.728 2.202 0.697 1.485 1.445 l -108.97 113.57 c -1.434 1.494 -5.936 -2.887 -4.454 -4.334 z"/><path d="m 151.71 255.27 c 11.649 -0.995 20.14 10.879 10.753 16.616 15.204 2.574 20.296 -6.06 18.231 -17.279 -5.465 8.734 -7.778 4.901 -11.925 0.653 -6.079 -6.227 -12.766 -4.157 -17.06 0.011 z" stroke-linejoin="round"/><path d="m 83.7 372.51 l 63.703 -143.95 c 0.419 -0.947 2.304 -0.156 1.91 0.801 l -59.882 145.55 c -0.788 1.915 -6.581 -0.516 -5.731 -2.404 z"/><path d="m 125.56 248.2 c 10.36 -5.418 22.781 2.255 16.337 11.173 15.02 -3.498 16.379 -13.43 10.141 -22.98 -1.667 10.168 -5.281 7.525 -10.748 5.208 -8.01 -3.396 -13.381 1.096 -15.73 6.599 z" stroke-linejoin="round"/></g><g transform="matrix(-0.24 0 0 0.24 151.97 100.62)" fill="#fff" stroke-width="2"><path d="m 64.981 357.07 l 111.94 -110.68 c 0.736 -0.728 2.202 0.697 1.485 1.445 l -108.97 113.57 c -1.434 1.494 -5.936 -2.887 -4.454 -4.334 z"/><path d="m 151.71 255.27 c 11.649 -0.995 20.14 10.879 10.753 16.616 15.204 2.574 20.296 -6.06 18.231 -17.279 -5.465 8.734 -7.778 4.901 -11.925 0.653 -6.079 -6.227 -12.766 -4.157 -17.06 0.011 z" stroke-linejoin="round"/><path d="m 83.7 372.51 l 63.703 -143.95 c 0.419 -0.947 2.304 -0.156 1.91 0.801 l -59.882 145.55 c -0.788 1.915 -6.581 -0.516 -5.731 -2.404 z"/><path d="m 125.56 248.2 c 10.36 -5.418 22.781 2.255 16.337 11.173 15.02 -3.498 16.379 -13.43 10.141 -22.98 -1.667 10.168 -5.281 7.525 -10.748 5.208 -8.01 -3.396 -13.381 1.096 -15.73 6.599 z" stroke-linejoin="round"/></g><path d="m 122.54 176.17 c -1 -0.968 -2.645 -0.82 -3.148 -0.302 -2.414 2.482 -4.547 5.05 -7.876 7.749 0.056 -0.974 0.325 -1.948 0.889 -2.922 -1.338 0.119 -2.207 0.107 -3.303 -0.127 2.724 -2.01 5.468 -4.044 7.368 -5.399 -0.737 -0.635 -0.885 -3.36 0.191 -4.255 1.753 -1.46 4.273 0.041 5.843 0.572 0.999 -1.123 2.76 -1.094 3.632 0 1.57 -0.531 4.09 -2.031 5.843 -0.572 1.076 0.896 0.928 3.62 0.191 4.255 1.9 1.355 4.643 3.384 7.368 5.399 -1.096 0.234 -1.965 0.246 -3.303 0.127 0.564 0.974 0.833 1.948 0.889 2.922 -3.329 -2.7 -5.461 -5.266 -7.876 -7.749 -0.503 -0.517 -2.148 -0.665 -3.148 0.302 -1.052 0.896 -2.663 0.84 -3.56 0 z" fill="#0f47af" stroke-linejoin="round" stroke-linecap="round" stroke-width="0.48"/></g><path d="m 124.01 168.06 h 1.2 v 2.64 h -1.2 z"/><g stroke="#000"><g stroke-linejoin="round" stroke-linecap="round" stroke-width="0.48"><path d="m 151.2 115.34 c 1.351 -1.79 1.478 -4.046 3.492 -5.335 0.047 2.761 0.215 6.06 -3.512 7.01 l 0.081 2.43 c 0.524 -1.298 3.425 -2.41 5.908 -3.218 -1.518 1.83 -1.712 4.773 -5.876 4.891 l -0.008 3.874 c 0.922 -1.766 2.592 -3.315 4.868 -4.573 0.144 4.368 -2.141 5.445 -4.82 6.161 l 0.032 4.128 c 1.666 -0.96 2.666 -1.396 4.661 -2.668 -0.575 -2.145 -0.3 -5.311 2.159 -7.939 0.736 2.472 0.49 4.97 -1.143 7.273 1.478 -1.058 2.235 -1.456 3.112 -2.319 -1.722 -3.245 -0.71 -6.171 1.27 -8.574 0.978 3.162 0.18 5.402 -0.501 8.07 1.173 -1.046 2.057 -1.604 2.66 -2.271 -1.722 -2.539 -1.559 -5.373 0.445 -8.59 1.478 2.371 1.442 4.869 1.08 7.241 l 1.644 -1.588 c 0.138 -0.086 0.275 -1.105 -0.066 -1.649 -1.913 -3.049 0.454 -4.658 2.169 -6.544 0.321 2.202 0.219 4.277 -0.459 6.478 l 1.713 -1.842 c -0.232 -3.436 2.267 -5.283 5.668 -7.241 0.039 3.35 -0.678 6.367 -4.832 7.872 l -2.177 2.488 c 2.35 -1.051 5.104 -1.932 7.454 -0.643 -2.876 1.792 -6.099 3.545 -8.317 1.554 l -2.271 2.186 c 2.512 -1.229 4.942 -0.548 7.286 0.579 -2.512 1.125 -5.187 3.111 -8.5 0.71 l -2.627 2.331 c 3.43 -1.143 6.597 -0.712 8.333 1.024 -3.01 1.23 -6.593 1.773 -9.267 -0.18 l -2.816 2.22 c 2.717 -0.854 5.378 -1.233 6.748 0.437 -2.97 2.3 -5.411 1.62 -7.783 0.392 -1.46 1.101 -3.383 2.381 -5.682 3.482 l 0.12 12.02 c 1.217 -1.388 1.934 -1.868 3.183 -2.937 -1.905 -3.426 -0.427 -6.623 2.032 -9.21 0.682 2.752 1.01 4.949 0 7.701 l 2.604 -1.731 c -1.206 -2.772 -0.654 -6.068 3.112 -7.495 -0.171 1.856 -0.055 3.713 -2.01 5.569 l -0.02 1.386 c 1.742 -0.889 2.46 -1.279 4.065 -1.977 -1.134 -3.459 0.61 -5.954 3.176 -7.9 0.304 2.316 -0.233 4.866 -2.286 7.519 1.121 -0.425 2.727 -1.128 3.557 -1.373 -0.874 -4.01 0.629 -5.979 2.604 -7.479 0.537 2.477 -0.037 4.573 -1.524 7.05 l 2.668 -0.953 c -0.425 -3.916 0.786 -7.03 3.239 -9.08 0.176 3.053 -0.796 5.687 -1.778 8.574 1.235 -0.386 1.878 -0.802 3.239 -1.27 -1.151 -2.865 -0.453 -6.364 2.477 -8.447 0.664 2.439 0.312 4.716 -1.08 7.828 1.909 -0.956 2.718 -1.265 3.62 -1.913 -2.083 -3.747 -0.593 -7.096 0.826 -8.519 0.483 2.604 1.012 5.208 0.318 7.812 0.8 -0.554 1.213 -0.78 2.287 -1.715 -2.754 -3.261 -0.779 -6.261 -0.254 -9.21 1.083 2.901 1.964 5.697 1.207 8.43 0.775 -0.438 1.967 -2.15 3.119 -3.461 -2.426 -2.343 -2.379 -5.868 -1.023 -8.653 1.765 1.908 1.93 4.067 1.85 7.368 1.072 -1.703 1.65 -2.989 2.397 -4.7 -0.14 -3.679 1.628 -5.347 3.946 -7.558 -0.269 3.071 1.262 6.098 -2.795 8.13 l -2.541 4.382 c 1.8 -1.262 3.599 -1.871 5.399 -1.778 -1.874 3.79 -3.949 4.759 -6.161 3.811 l -2.604 3.176 c 2.572 -2.255 4.451 -1.376 6.86 -0.699 -3.429 3.296 -5.8 3.489 -8.384 1.715 l -2.287 2.096 c 2.02 -1.125 4.415 -0.674 7.114 1.08 -2.692 1.101 -5.398 1.937 -8.257 -0.127 l -6.097 3.303 c 2.573 0.73 3.61 1.136 5.379 1.825 1.073 -2.689 4.609 -3.045 7.324 -2.777 -1.019 1.493 -3.053 2.933 -6.591 3.083 1.237 0.508 1.759 0.837 2.825 1.479 1.91 -2.096 4 -3.233 7.767 -1.132 -1.85 1.454 -3.801 2.887 -5.978 2.38 1.269 0.892 1.912 1.579 2.784 2.302 0.657 -2.928 3.475 -2.453 6.815 -1.188 -1.118 1.348 -2.67 2.363 -5.97 2.032 0.686 0.871 1.21 1.807 2.35 1.27 2.909 -1.369 5.107 1.103 7.431 2.414 -2.474 1.121 -4.518 1.817 -7.495 -1.08 0.476 0.511 0.614 1.364 1.047 1.817 2.446 2.56 3.653 4.871 3.272 7.9 -2.814 -2.272 -4.396 -4.727 -4.291 -7.433 l -1.171 -1.57 c 0.588 2.327 0.428 4.56 -0.508 6.209 -1.942 -2.096 -1.559 -4.86 -0.119 -6.956 -0.709 -0.847 -1.405 -1.483 -2.422 -2.517 0.987 2.535 -0.358 4.523 -0.953 6.741 -1.01 -2.317 -2.179 -4.707 0.064 -7.512 -0.704 -0.593 -1.247 -1.018 -2.541 -1.897 1.096 2.278 0.587 4.759 -0.508 6.868 -1.58 -1.575 -2.175 -4.07 -0.381 -7.393 -0.939 -0.573 -1.33 -0.742 -2.35 -1.197 0.605 2.662 0.581 4.785 -0.635 5.986 -1.526 -1.78 -1.603 -3.81 -0.699 -6.542 -2.541 -0.952 -4.637 -1.284 -7.495 -1.27 2.972 1 3.872 2.741 5.145 5.907 -2.539 -0.585 -5.219 -2.139 -6.03 -5.86 -1.505 0.09 -1.872 0.128 -3.176 0.35 3.01 1.578 3.978 4.04 5.589 6.02 -4.118 -0.035 -5.738 -2.225 -6.669 -5.78 -1.857 0.321 -4.338 1.313 -6.161 2.223 4.24 -0.188 7.36 1.418 8.892 4.446 -4.106 1.201 -6.618 -4.687 -11.07 -3.239 3.287 0.936 5.999 2.856 7.764 4.637 -4.02 0.758 -7.38 -0.129 -9.04 -3.764 -0.846 0.351 -1.706 1.19 -2.92 2.113 3.772 0.817 5.438 2.203 7.383 3.684 -4.075 1.684 -6.151 0.182 -8.622 -2.541 -1.164 1.243 -3.786 3.856 -3.743 4.789 l 0.234 41.512 c 0.025 4.511 14.431 13.383 19.753 9.464 3.096 -2.28 8.925 -3.364 12 -0.254 2.317 2.34 1.258 6.246 0.381 8.892 -0.978 -4.318 -2.69 -8.328 -10.988 -5.081 -4.626 1.81 -9.04 0.966 -13.529 0.318 2.686 2.143 6.275 2.141 8.13 4.446 0.769 0.955 1.115 2.989 -0.191 4.446 -1.277 1.424 -3.639 1.899 -4.764 -1.143 1.911 1.289 5.585 -1.55 -2.287 -3.938 -2.989 -0.907 -6 -1.836 -7.812 -5.145 1.3 5.399 -0.79 7.876 -2.477 12.258 -1.686 -4.382 -3.777 -6.86 -2.477 -12.258 -1.807 3.308 -4.823 4.238 -7.812 5.145 -7.872 2.387 -4.198 5.227 -2.287 3.938 -1.125 3.042 -3.487 2.567 -4.764 1.143 -1.306 -1.457 -0.959 -3.491 -0.191 -4.446 1.854 -2.305 5.444 -2.303 8.13 -4.446 -4.491 0.649 -8.903 1.492 -13.528 -0.318 -8.298 -3.247 -10.01 0.763 -10.988 5.081 -0.877 -2.646 -1.936 -6.552 0.381 -8.892 3.08 -3.11 8.908 -2.026 12 0.254 5.322 3.919 19.727 -4.953 19.753 -9.464 l 0.234 -41.512 c 0.042 -0.933 -2.579 -3.546 -3.743 -4.789 -2.472 2.722 -4.547 4.224 -8.622 2.541 1.945 -1.481 3.611 -2.867 7.383 -3.684 -1.214 -0.923 -2.075 -1.762 -2.92 -2.113 -1.656 3.635 -5.01 4.522 -9.04 3.764 1.766 -1.781 4.477 -3.701 7.764 -4.637 -4.449 -1.448 -6.961 4.44 -11.07 3.239 1.532 -3.03 4.652 -4.634 8.892 -4.446 -1.823 -0.91 -4.303 -1.902 -6.161 -2.223 -0.931 3.555 -2.551 5.745 -6.669 5.78 1.611 -1.977 2.582 -4.44 5.589 -6.02 -1.303 -0.222 -1.671 -0.259 -3.176 -0.35 -0.815 3.721 -3.495 5.275 -6.03 5.86 1.272 -3.166 2.173 -4.906 5.145 -5.907 -2.858 -0.013 -4.954 0.318 -7.495 1.27 0.905 2.732 0.827 4.761 -0.699 6.542 -1.216 -1.201 -1.24 -3.324 -0.635 -5.986 -1.02 0.455 -1.411 0.624 -2.35 1.197 1.794 3.323 1.199 5.818 -0.381 7.393 -1.095 -2.109 -1.604 -4.59 -0.508 -6.868 -1.294 0.879 -1.836 1.304 -2.541 1.897 2.243 2.805 1.074 5.195 0.064 7.512 -0.595 -2.218 -1.94 -4.206 -0.953 -6.741 -1.017 1.034 -1.713 1.67 -2.422 2.517 1.44 2.096 1.823 4.86 -0.119 6.956 -0.936 -1.649 -1.096 -3.882 -0.508 -6.209 l -1.171 1.57 c 0.106 2.706 -1.476 5.161 -4.291 7.433 -0.381 -3.03 0.826 -5.34 3.272 -7.9 0.433 -0.453 0.571 -1.306 1.047 -1.817 -2.977 2.897 -5.02 2.201 -7.495 1.08 2.324 -1.31 4.522 -3.782 7.431 -2.414 1.14 0.536 1.664 -0.399 2.35 -1.27 -3.301 0.331 -4.852 -0.684 -5.97 -2.032 3.34 -1.265 6.158 -1.739 6.815 1.188 0.872 -0.723 1.514 -1.409 2.784 -2.302 -2.177 0.508 -4.128 -0.925 -5.978 -2.38 3.765 -2.101 5.858 -0.964 7.767 1.132 1.067 -0.643 1.588 -0.971 2.825 -1.479 -3.539 -0.149 -5.573 -1.589 -6.591 -3.083 2.715 -0.267 6.252 0.088 7.324 2.777 1.769 -0.689 2.805 -1.095 5.379 -1.825 l -6.097 -3.303 c -2.859 2.064 -5.565 1.228 -8.257 0.127 2.699 -1.753 5.092 -2.205 7.114 -1.08 l -2.287 -2.096 c -2.584 1.774 -4.955 1.582 -8.384 -1.715 2.409 -0.677 4.288 -1.557 6.86 0.699 l -2.604 -3.176 c -2.212 0.948 -4.287 -0.021 -6.161 -3.811 1.8 -0.093 3.599 0.516 5.399 1.778 l -2.541 -4.382 c -4.057 -2.032 -2.526 -5.059 -2.795 -8.13 2.318 2.211 4.087 3.879 3.946 7.558 0.747 1.711 1.324 2.997 2.397 4.7 -0.079 -3.301 0.085 -5.46 1.85 -7.368 1.355 2.785 1.403 6.311 -1.023 8.653 1.152 1.311 2.345 3.02 3.119 3.461 -0.758 -2.733 0.124 -5.53 1.207 -8.43 0.525 2.948 2.5 5.949 -0.254 9.21 1.073 0.935 1.486 1.161 2.287 1.715 -0.695 -2.604 -0.165 -5.208 0.318 -7.812 1.419 1.424 2.909 4.772 0.826 8.519 0.902 0.648 1.711 0.956 3.62 1.913 -1.392 -3.112 -1.744 -5.389 -1.08 -7.828 2.93 2.084 3.628 5.582 2.477 8.447 1.361 0.468 2 0.884 3.239 1.27 -0.982 -2.887 -1.954 -5.522 -1.778 -8.574 2.453 2.054 3.664 5.166 3.239 9.08 l 2.668 0.953 c -1.487 -2.477 -2.061 -4.573 -1.524 -7.05 1.975 1.5 3.478 3.465 2.604 7.479 0.83 0.246 2.436 0.948 3.557 1.373 -2.053 -2.652 -2.59 -5.203 -2.286 -7.519 2.565 1.945 4.309 4.441 3.176 7.9 1.605 0.699 2.323 1.088 4.065 1.977 l -0.02 -1.386 c -1.958 -1.856 -1.841 -3.713 -2.01 -5.569 3.766 1.426 4.318 4.723 3.112 7.495 l 2.604 1.731 c -1.01 -2.752 -0.682 -4.949 0 -7.701 2.46 2.587 3.937 5.783 2.032 9.21 1.249 1.069 1.965 1.549 3.183 2.937 l 0.12 -12.02 c -2.299 -1.101 -4.222 -2.381 -5.682 -3.482 -2.371 1.228 -4.813 1.908 -7.783 -0.392 1.37 -1.67 4.03 -1.291 6.748 -0.437 l -2.816 -2.22 c -2.674 1.953 -6.258 1.409 -9.267 0.18 1.736 -1.736 4.903 -2.167 8.333 -1.024 l -2.627 -2.331 c -3.313 2.401 -5.988 0.416 -8.5 -0.71 2.344 -1.128 4.774 -1.809 7.286 -0.579 l -2.271 -2.186 c -2.218 1.991 -5.441 0.238 -8.317 -1.554 2.35 -1.289 5.104 -0.408 7.454 0.643 l -2.177 -2.488 c -4.154 -1.505 -4.871 -4.522 -4.832 -7.872 3.401 1.958 5.901 3.805 5.668 7.241 l 1.713 1.842 c -0.678 -2.202 -0.78 -4.277 -0.459 -6.478 1.715 1.887 4.083 3.495 2.169 6.544 -0.341 0.544 -0.205 1.563 -0.066 1.649 l 1.644 1.588 c -0.362 -2.371 -0.398 -4.869 1.08 -7.241 2 3.217 2.167 6.05 0.445 8.59 0.603 0.667 1.487 1.224 2.66 2.271 -0.681 -2.664 -1.479 -4.904 -0.501 -8.07 1.981 2.403 2.993 5.33 1.27 8.574 0.877 0.863 1.634 1.261 3.112 2.319 -1.634 -2.303 -1.879 -4.801 -1.143 -7.273 2.459 2.628 2.735 5.795 2.159 7.939 1.994 1.271 2.995 1.708 4.661 2.668 l 0.032 -4.128 c -2.679 -0.715 -4.964 -1.793 -4.82 -6.161 2.276 1.258 3.946 2.807 4.868 4.573 l -0.008 -3.874 c -4.164 -0.118 -4.358 -3.061 -5.876 -4.891 2.483 0.808 5.384 1.92 5.908 3.218 l 0.081 -2.43 c -3.727 -0.956 -3.559 -4.251 -3.512 -7.01 2.01 1.29 2.141 3.545 3.492 5.335 -1.192 -4.446 -0.237 -6.73 1.208 -9.337 1.445 2.607 2.4 4.891 1.208 9.337 z" fill="#fff"/><g fill="#fcdd09"><path d="m 174.89 191.1 v -23.04 h 1.2 v 23.04 z"/><path d="m 174.65 168.06 h 1.68 v -5.76 h -0.48 v -1.2 h -0.72 v 1.2 h -0.48 z"/></g></g><g transform="matrix(0.24 0 0 0.24 147.77 100.62)" fill="#fff" stroke-width="2"><path d="m 64.981 357.07 l 111.94 -110.68 c 0.736 -0.728 2.202 0.697 1.485 1.445 l -108.97 113.57 c -1.434 1.494 -5.936 -2.887 -4.454 -4.334 z"/><path d="m 151.71 255.27 c 11.649 -0.995 20.14 10.879 10.753 16.616 15.204 2.574 20.296 -6.06 18.231 -17.279 -5.465 8.734 -7.778 4.901 -11.925 0.653 -6.079 -6.227 -12.766 -4.157 -17.06 0.011 z" stroke-linejoin="round"/><path d="m 83.7 372.51 l 63.703 -143.95 c 0.419 -0.947 2.304 -0.156 1.91 0.801 l -59.882 145.55 c -0.788 1.915 -6.581 -0.516 -5.731 -2.404 z"/><path d="m 125.56 248.2 c 10.36 -5.418 22.781 2.255 16.337 11.173 15.02 -3.498 16.379 -13.43 10.141 -22.98 -1.667 10.168 -5.281 7.525 -10.748 5.208 -8.01 -3.396 -13.381 1.096 -15.73 6.599 z" stroke-linejoin="round"/></g><g transform="matrix(-0.24 0 0 0.24 202.85 100.62)" fill="#fff" stroke-width="2"><path d="m 64.981 357.07 l 111.94 -110.68 c 0.736 -0.728 2.202 0.697 1.485 1.445 l -108.97 113.57 c -1.434 1.494 -5.936 -2.887 -4.454 -4.334 z"/><path d="m 151.71 255.27 c 11.649 -0.995 20.14 10.879 10.753 16.616 15.204 2.574 20.296 -6.06 18.231 -17.279 -5.465 8.734 -7.778 4.901 -11.925 0.653 -6.079 -6.227 -12.766 -4.157 -17.06 0.011 z" stroke-linejoin="round"/><path d="m 83.7 372.51 l 63.703 -143.95 c 0.419 -0.947 2.304 -0.156 1.91 0.801 l -59.882 145.55 c -0.788 1.915 -6.581 -0.516 -5.731 -2.404 z"/><path d="m 125.56 248.2 c 10.36 -5.418 22.781 2.255 16.337 11.173 15.02 -3.498 16.379 -13.43 10.141 -22.98 -1.667 10.168 -5.281 7.525 -10.748 5.208 -8.01 -3.396 -13.381 1.096 -15.73 6.599 z" stroke-linejoin="round"/></g><g stroke-linejoin="round" stroke-linecap="round" stroke-width="0.48"><path d="m 173.42 176.17 c -1 -0.968 -2.645 -0.82 -3.148 -0.302 -2.414 2.482 -4.547 5.05 -7.876 7.749 0.056 -0.974 0.325 -1.948 0.889 -2.922 -1.338 0.119 -2.207 0.107 -3.303 -0.127 2.724 -2.01 5.468 -4.044 7.368 -5.399 -0.737 -0.635 -0.885 -3.36 0.191 -4.255 1.753 -1.46 4.273 0.041 5.843 0.572 0.999 -1.123 2.76 -1.094 3.632 0 1.57 -0.531 4.09 -2.031 5.843 -0.572 1.076 0.896 0.928 3.62 0.191 4.255 1.9 1.355 4.643 3.384 7.368 5.399 -1.096 0.234 -1.965 0.246 -3.303 0.127 0.564 0.974 0.833 1.948 0.889 2.922 -3.329 -2.7 -5.461 -5.266 -7.876 -7.749 -0.503 -0.517 -2.148 -0.665 -3.148 0.302 -1.052 0.896 -2.663 0.84 -3.56 0 z" fill="#0f47af"/><path d="m 175.2 168.06 v -1.2 h 0.576 v 1.2 m -1.128 -5.04 h 1.68 m 0.948 9.447 c -0.139 2.045 -0.68 3.498 -1.558 4.242 m 2.89 -2.763 l -1.109 0.014 m 0.921 -1.461 l -0.953 0.572 m -6 0.921 l 1.27 -0.095 m -0.984 -1.588 l 1.048 0.699 m 1.493 1.937 c 1.586 -0.17 1.926 -1.781 1.905 -2.953 m -4.859 3.43 c -1.333 0.289 -2.791 -0.06 -3.962 -0.257 0.675 0.92 1.922 0.806 2.883 0.638 m -2.382 1.715 l 1.588 -1.588 m -2.541 1.334 c 1.524 -1.524 1.524 -1.524 1.524 -1.524 m 14.07 -0.095 l 1.524 1.112 m -2.572 -0.857 l 1.778 1.366 m -3.271 -1.524 c 1.489 0.26 2.736 0.119 3.135 -0.743 -1.346 0.393 -2.869 0.772 -3.961 0.489 m -2.096 -3.938 c 0.576 1.281 0.532 3.102 0.127 4.414 m -3.811 -4.446 c -0.847 1.291 -0.577 3.377 -0.095 4.541 m -48.955 -7.995 v -1.2 h 0.576 v 1.2 m -1.128 -5.04 h 1.68 m 0.948 9.447 c -0.139 2.045 -0.68 3.498 -1.558 4.242 m 2.89 -2.763 l -1.109 0.014 m 0.921 -1.461 l -0.953 0.572 m -6 0.921 l 1.27 -0.095 m -0.984 -1.588 l 1.048 0.699 m 1.493 1.937 c 1.586 -0.17 1.926 -1.781 1.905 -2.953 m -4.859 3.43 c -1.333 0.289 -2.791 -0.06 -3.962 -0.257 0.675 0.92 1.922 0.806 2.883 0.638 m -2.382 1.715 l 1.588 -1.588 m -2.541 1.334 c 1.524 -1.524 1.524 -1.524 1.524 -1.524 m 14.07 -0.095 l 1.524 1.112 m -2.572 -0.857 l 1.778 1.366 m -3.271 -1.524 c 1.489 0.26 2.736 0.119 3.135 -0.743 -1.346 0.393 -2.869 0.772 -3.961 0.489 m -2.096 -3.938 c 0.576 1.281 0.532 3.102 0.127 4.414 m -3.811 -4.446 c -0.847 1.291 -0.577 3.377 -0.095 4.541" fill="none"/></g></g><path d="m 174.89 168.06 h 1.2 v 2.64 h -1.2 z"/><g stroke="#000"><g fill="none" stroke-width="0.24"><path d="m 140.66 47.1 h 2.88"/><path d="m 146.18 47.1 h 2.88"/></g><path d="m 162.73748,79.260071 -2.88,-24.96 2.4,-3.36 1.92,-7.2 -4.08,0 0,3.36 -2.88,0 0,-3.36 -2.88,0 0,3.36 -2.88,0 0,-3.36 -2.88,0 0,3.36 -2.88,0 0,-3.36 -2.88,0 0,3.36 -2.88,0 0,-3.36 -4.08,0 1.92,7.2 2.4,3.36 -2.88,24.96 z" fill="#fcdd09" stroke-linejoin="round" stroke-linecap="round" stroke-width="0.48"/></g><path d="m 143.78 57.9 l -0.72 7.2 h -1.92 l 0.72 -7.2 z"/><path d="m 156.26 57.9 l 0.72 7.2 h 1.92 l -0.72 -7.2 z"/><path d="m 142.82 79.26 c 0.72 -6.48 3.36 -11.04 7.2 -15.36 3.84 4.32 6.48 8.88 7.2 15.36 z" fill="#fff" stroke="#000" stroke-linejoin="round" stroke-linecap="round" stroke-width="0.48"/><path d="m 150.02 67.5 c -2.64 3.12 -4.56 6.72 -5.04 11.76 h 10.08 c -0.48 -5.04 -2.16 -8.64 -5.04 -11.76 z"/><g stroke="#000" stroke-linejoin="round" stroke-width="0.48"><g stroke-linecap="round"><path d="m 205.22 101.34 c -36 -14.4 -74.4 -14.4 -110.4 0 -1.075 0.43 -1.27 -1.892 0 -2.4 36 -14.4 74.4 -14.4 110.4 0 1.346 0.538 1.252 2.901 0 2.4 z" fill="#fff"/><path d="m 92.42 92.94 c 1.2 1.2 2.4 3.6 2.4 6 36 -14.4 73.2 -14.4 110.4 0 0 -2.4 2.4 -4.8 3.6 -6 -39.6 -15.6 -78 -15.6 -116.4 0" fill="#fcdd09"/></g><g fill="#fcdd09"><path d="m 139.69748,57.756071 -1.92,0.144 0.216,3.624 -2.4,0.216 -0.216,-3.624 -3.12,0.36 0.24,3.6 -2.544,0.312 -0.336,-3.576 -2.4,0.36 5.52,20.568 4.56,-0.48 z"/><path d="m 160.25781,57.756071 1.92,0.144 -0.216,3.624 2.4,0.216 0.216,-3.624 3.12,0.36 -0.24,3.6 2.544,0.312 0.336,-3.576 2.4,0.36 -5.52,20.568 -4.56,-0.48 z"/><path d="m 192.91 62.793 l 1.849 0.537 l -0.959 3.501 l 2.304 0.707 l 0.959 -3.501 l 2.979 0.996 l -0.978 3.473 l 2.425 0.83 l 1.067 -3.43 l 2.274 0.848 l -9.646 18.986 l -4.363 -1.411 z"/><path d="m 191.35 84.61 l 1.722 -25.07 l 2.973 -2.866 l 3.201 -6.729 l -4.01 -0.744 l -0.613 3.304 l -2.832 -0.525 l 0.613 -3.304 l -2.832 -0.525 l -0.613 3.304 l -2.832 -0.525 l 0.613 -3.304 l -2.832 -0.525 l -0.613 3.304 l -2.832 -0.525 l 0.613 -3.304 l -2.832 -0.525 l -0.613 3.304 l -2.832 -0.525 l 0.613 -3.304 l -4.01 -0.744 l 0.574 7.429 l 1.747 3.741 l -7.386 24.02 z" stroke-linecap="round"/></g></g><path d="m 176.61 60.15 l -2.02 6.948 l -1.888 -0.35 l 2.02 -6.948 z"/><path d="m 188.88 62.43 l -0.606 7.211 l 1.888 0.35 l 0.606 -7.211 z"/><path d="m 171.76 80.975 c 1.89 -6.24 5.318 -10.242 9.882 -13.789 2.987 4.948 4.751 9.913 4.277 16.416 z" fill="#fff" stroke="#000" stroke-linejoin="round" stroke-linecap="round" stroke-width="0.48"/><path d="m 180.99 70.73 c -3.165 2.586 -5.71 5.775 -7.101 10.643 l 9.911 1.839 c 0.448 -5.04 -0.547 -8.889 -2.81 -12.482 z"/><g fill="#fcdd09" stroke="#000" stroke-linejoin="round" stroke-width="0.48"><path d="m 106.98 62.793 l -1.849 0.537 l 0.959 3.501 l -2.304 0.707 l -0.959 -3.501 l -2.979 0.996 l 0.978 3.473 l -2.425 0.83 l -1.067 -3.43 l -2.274 0.848 l 9.646 18.986 l 4.363 -1.411 z"/><path d="m 108.53 84.61 l -1.722 -25.07 l -2.973 -2.866 l -3.201 -6.729 l 4.01 -0.744 l 0.613 3.304 l 2.832 -0.525 l -0.613 -3.304 l 2.832 -0.525 l 0.613 3.304 l 2.832 -0.525 l -0.613 -3.304 l 2.832 -0.525 l 0.613 3.304 l 2.832 -0.525 l -0.613 -3.304 l 2.832 -0.525 l 0.613 3.304 l 2.832 -0.525 l -0.613 -3.304 l 4.01 -0.744 l -0.574 7.429 l -1.747 3.741 l 7.386 24.02 z" stroke-linecap="round"/></g><path d="m 123.28 60.15 l 2.02 6.948 l 1.888 -0.35 l -2.02 -6.948 z"/><path d="m 111.01 62.43 l 0.606 7.211 l -1.888 0.35 l -0.606 -7.211 z"/><path d="m 128.12 80.975 c -1.89 -6.24 -5.318 -10.242 -9.882 -13.789 -2.987 4.948 -4.751 9.913 -4.277 16.416 z" fill="#fff" stroke="#000" stroke-linejoin="round" stroke-linecap="round" stroke-width="0.48"/><path d="m 118.89 70.73 c 3.165 2.586 5.71 5.775 7.101 10.643 l -9.911 1.839 c -0.448 -5.04 0.547 -8.889 2.81 -12.482 z"/><path d="m 104.85 85.83 l -11.32 -22.35 l 0.839 -3.701 l -1.129 -7.307 l -3.34 1.344 l 1.031 3.207 l -2.672 1.075 l -1.031 -3.207 l -2.672 1.075 l 1.031 3.207 l -2.894 1.165 l -1.031 -3.207 l -2.672 1.075 l 1.031 3.207 l -2.672 1.075 l -1.031 -3.207 l -3.34 1.344 l 4.246 6.05 l 3.391 1.999 c 0 0 10.462 22.801 10.429 22.708 z" fill="#fcdd09" stroke="#000" stroke-linejoin="round" stroke-linecap="round" stroke-width="0.48"/><path d="m 91.65 68.13 l 3.338 6.42 l 1.783 -0.712 l -3.338 -6.42 z"/><path d="m 98 88.41 c -3.403 -5.561 -7.858 -8.532 -13.169 -10.812 -1.621 1.62 0.036 4.089 1.569 3.168 1.796 2.053 2.758 7.743 3.939 11.216 z" fill="#fff" stroke="#000" stroke-linejoin="round" stroke-linecap="round" stroke-width="0.48"/><path d="m 86.46 80.61 c 3.715 1.704 7.01 4.354 9.581 8.713 l -5.632 2.555 z"/><path d="m 195.14 85.83 l 11.32 -22.35 l -0.839 -3.701 l 1.129 -7.307 l 3.34 1.344 l -1.031 3.207 l 2.672 1.075 l 1.031 -3.207 l 2.672 1.075 l -1.031 3.207 l 2.894 1.165 l 1.031 -3.207 l 2.672 1.075 l -1.031 3.207 l 2.672 1.075 l 1.031 -3.207 l 3.34 1.344 l -4.246 6.05 l -3.391 1.999 c 0 0 -10.462 22.801 -10.429 22.708 z" fill="#fcdd09" stroke="#000" stroke-linejoin="round" stroke-linecap="round" stroke-width="0.48"/><path d="m 208.34 68.13 l -3.338 6.42 l -1.783 -0.712 l 3.338 -6.42 z"/><path d="m 201.99 88.41 c 3.403 -5.561 7.858 -8.532 13.169 -10.812 1.621 1.62 -0.036 4.089 -1.569 3.168 -1.797 2.053 -2.758 7.743 -3.939 11.216 z" fill="#fff" stroke="#000" stroke-linejoin="round" stroke-linecap="round" stroke-width="0.48"/><path d="m 213.52 80.61 c -3.715 1.704 -7.01 4.354 -9.581 8.713 l 5.632 2.555 z"/><g stroke="#000"><g stroke-width="0.48"><path d="m 219.27 68.65 l -12.916 -5.192 m 16.306 3.192 l -16.924 -6.803 m -125.02 8.803 l 12.915 -5.192 m -16.306 3.192 l 16.924 -6.803 m 33.658 -7.631 l -24.07 4.466 m 22.322 -0.725 l -19.35 3.591 m 0.439 17.946 l 0.933 3.503 m -1.913 0.468 l 0.933 3.503 m -4.23 -6.093 l 0.933 3.503 m 0.469 -7.589 l 0.933 3.503 m 0.433 -7.491 l 0.933 3.503 m -5.787 -1.895 l 0.933 3.503 m 6.893 4.839 c -1.89 0.573 -3.731 1.176 -5.584 1.826 m 5.232 -5.362 c -2.324 0.693 -4.567 1.429 -6.836 2.237 m 6.505 -5.632 c -2.742 0.81 -5.365 1.677 -8.04 2.648 m 7.672 -6.13 c -3.145 0.92 -6.124 1.912 -9.198 3.046 m 73.52 -21.17 l 24.07 4.466 m -22.322 -0.725 l 19.35 3.591 m -0.439 17.946 l -0.933 3.503 m 1.913 0.468 l -0.933 3.503 m 4.23 -6.093 l -0.933 3.503 m -0.469 -7.589 l -0.933 3.503 m -0.433 -7.491 l -0.933 3.503 m 5.787 -1.895 l -0.933 3.503 m -6.893 4.839 c 1.89 0.573 3.731 1.176 5.584 1.826 m -5.232 -5.362 c 2.324 0.693 4.567 1.429 6.836 2.237 m -6.505 -5.632 c 2.742 0.81 5.365 1.677 8.04 2.648 m -7.672 -6.13 c 3.145 0.92 6.124 1.912 9.198 3.046 m -38.4 -1.187 l -0.19 3.62 m 1.968 0.064 l -0.19 3.62 m 2.881 -6.835 l -0.19 3.62 m -2.025 -7.329 l -0.19 3.62 m -1.97 -7.241 l -0.19 3.62 m 5.271 -3.049 l -0.19 3.62 m -5.746 6.157 c 1.967 0.171 3.894 0.381 5.841 0.634 m -6.226 -4.167 c 2.417 0.199 4.763 0.456 7.151 0.778 m -7.527 -4.168 c 2.851 0.227 5.596 0.533 8.416 0.931 m -8.771 -4.415 c 3.267 0.251 6.387 0.607 9.629 1.082 m -33.843 5.836 l 0.19 3.62 m -1.968 0.064 l 0.19 3.62 m -2.881 -6.835 l 0.19 3.62 m 2.025 -7.329 l 0.19 3.62 m 1.97 -7.241 l 0.19 3.62 m -5.271 -3.049 l 0.19 3.62 m 5.746 6.157 c -1.967 0.171 -3.894 0.381 -5.841 0.634 m 6.226 -4.167 c -2.417 0.199 -4.763 0.456 -7.151 0.778 m 7.527 -4.168 c -2.851 0.227 -5.596 0.533 -8.416 0.931 m 8.771 -4.415 c -3.267 0.251 -6.387 0.607 -9.629 1.082 m 8.598 -15.417 h 24.48 m -22.08 3.36 h 19.68" fill="none"/><path d="m 208.82 92.94 c -36 -15.383 -82.8 -14.64 -116.4 0 -1.061 0.462 -3.401 -1.105 -2.16 -1.68 36 -16.683 83.76 -16.858 119.76 0 1.313 0.615 0.04 2.21 -1.2 1.68 z" fill="#fff" stroke-linejoin="round" stroke-linecap="round"/></g><path d="m 215.49 150.48 c -0.118 2.721 -1.29 4.61 -3.683 2.156 m 12.04 -0.719 c -3.737 -0.333 -6.182 -7.534 -8.264 -1.527 4.263 1.021 3.833 3.722 3.773 6.108 m 20.569 -28.2 c -0.752 1.114 -1.231 3.02 -3.773 3.683 m 3.862 5.659 c -1.433 -1.708 -3.534 -2.184 -3.862 -5.659 -1.335 0.521 -2.158 0.926 -2.066 2.874 m 6.647 -25.599 c 3.687 2.617 7.236 1.831 6.108 -2.695 m 3.773 3.683 c -1.862 -2.124 -3.999 -5.121 -6.737 -4.401 -2.16 0.568 -0.941 3.293 0.898 4.94 m 2.156 5.659 c 2.174 -3.319 5.02 -6.087 3.773 -10.419 -1.474 -5.123 -5.476 -4.253 -9.07 -1.617 m 12.755 25.06 c -2.92 1.103 -7.783 2.408 -11.587 -1.796 m 21.02 7.994 c -1.612 2.368 -3.435 3.552 -6.467 4.671 m -172.84 10.15 c 0.118 2.721 1.29 4.61 3.683 2.156 m -12.04 -0.719 c 3.737 -0.333 6.182 -7.534 8.264 -1.527 -4.263 1.021 -3.833 3.722 -3.773 6.108 m -20.569 -28.2 c 0.752 1.114 1.231 3.02 3.773 3.683 m -3.862 5.659 c 1.433 -1.708 3.534 -2.184 3.862 -5.659 1.335 0.521 2.158 0.926 2.066 2.874 m -6.647 -25.599 c -3.687 2.617 -7.236 1.831 -6.108 -2.695 m -3.773 3.683 c 1.862 -2.124 3.999 -5.121 6.737 -4.401 2.16 0.568 0.941 3.293 -0.898 4.94 m -2.156 5.659 c -2.174 -3.319 -5.02 -6.087 -3.773 -10.419 1.474 -5.123 5.476 -4.253 9.07 -1.617 m -12.755 25.06 c 2.92 1.103 7.783 2.408 11.587 -1.796 m -21.02 7.994 c 1.612 2.368 3.435 3.552 6.467 4.671 m 219.92 10.323 l 0.254 -13.329 c 1.627 -3.131 5.523 -6.163 1.748 -9.654 -3.408 -3.152 -6.355 0.318 -9.549 1.494 -6.894 2.538 -2.156 -2.717 2.032 -7.368 2.934 -4.781 1.494 -7.189 -1.016 -9.4 -1.784 -1.572 -2.412 -3.999 -4.573 -7.876 -2.679 -4.805 -7.02 -4.077 -10.416 0.254 -3.713 4.739 3.197 7.369 6.218 10.999 -1.792 2.865 -4.65 5.359 -4.663 9.58 -0.033 10.597 11.67 6.781 16.15 14.556 -8.311 2.991 -13.79 1.769 -19.352 -2.764 l 0.477 -8.04 c 0.011 -3.287 -1.681 -6.442 -5.502 -7.814 -6.754 -1.391 -12.175 -0.614 -17.976 6.097 -4.04 5.836 -5.179 11.978 -5.394 18.292 -0.374 13.177 5.381 10.731 8.263 10.924 0.758 16.697 -3.97 31.748 -11.507 44.21 -15.587 25.765 -39.996 32.535 -57.768 32.535 -17.772 0 -42.18 -6.77 -57.768 -32.535 -7.537 -12.458 -12.265 -27.508 -11.507 -44.21 2.882 -0.194 8.637 2.253 8.263 -10.924 -0.215 -6.314 -1.354 -12.456 -5.394 -18.292 -5.801 -6.711 -11.222 -7.489 -17.976 -6.097 -3.821 1.372 -5.513 4.527 -5.502 7.814 l 0.477 8.04 c -5.562 4.532 -11.04 5.755 -19.352 2.764 4.484 -7.774 16.187 -3.958 16.15 -14.556 -0.013 -4.221 -2.871 -6.715 -4.663 -9.58 3.02 -3.63 9.931 -6.26 6.218 -10.999 -3.394 -4.331 -7.737 -5.059 -10.416 -0.254 -2.161 3.876 -2.789 6.304 -4.573 7.876 -2.51 2.211 -3.951 4.619 -1.016 9.4 4.189 4.65 8.926 9.906 2.032 7.368 -3.194 -1.176 -6.141 -4.645 -9.549 -1.494 -3.775 3.491 0.12 6.523 1.748 9.654 l 0.254 13.329 c 5.998 4.712 11.883 4.534 18.392 2.256 5.427 -1.9 9.798 -4.06 11.841 -7.709 2.035 -3.635 -3.85 -5.516 -1.599 -10.447 3.299 -0.143 6.429 0.054 9.4 3.557 1.93 2.275 0.871 8.486 0.911 12.685 0.016 1.687 -2.182 1.887 -5.676 1.586 -7.37 6.605 -8.411 17.295 -7.937 26.632 0.691 13.624 6.843 30.502 14.964 40.76 16.676 21.06 43.31 36.17 72.27 36.17 28.962 0 55.6 -15.11 72.27 -36.17 8.121 -10.258 14.273 -27.14 14.964 -40.76 0.473 -9.338 -0.568 -20.03 -7.937 -26.632 -3.494 0.301 -5.693 0.101 -5.676 -1.586 0.041 -4.199 -1.019 -10.409 0.911 -12.685 2.971 -3.503 6.101 -3.7 9.4 -3.557 2.251 4.931 -3.634 6.812 -1.599 10.447 2.043 3.649 6.413 5.809 11.841 7.709 6.509 2.278 12.394 2.456 18.392 -2.256" fill="#fff" stroke-linejoin="round" stroke-linecap="round" stroke-width="0.72"/></g><path d="m 76.78 169.12 c 0.1 1.313 -0.242 2.397 -1.026 3.251 -0.784 0.854 -1.789 1.304 -3.01 1.352 -1.047 0.041 -1.981 -0.23 -2.8 -0.812 -1.087 -0.771 -1.659 -1.897 -1.717 -3.379 -0.058 -1.486 0.401 -2.654 1.376 -3.505 0.771 -0.672 1.702 -1.03 2.794 -1.072 1.226 -0.048 2.264 0.33 3.115 1.132 0.85 0.802 1.275 1.813 1.274 3.033 z m -0.387 0.088 c -0.029 -0.755 -0.437 -1.314 -1.224 -1.678 -0.646 -0.296 -1.561 -0.421 -2.747 -0.375 -1.409 0.055 -2.44 0.343 -3.095 0.864 -0.457 0.363 -0.674 0.856 -0.65 1.477 0.016 0.418 0.131 0.763 0.345 1.035 0.274 0.347 0.7 0.609 1.278 0.786 0.578 0.177 1.326 0.247 2.243 0.212 1.092 -0.042 1.905 -0.176 2.439 -0.4 0.534 -0.224 0.907 -0.498 1.118 -0.821 0.211 -0.323 0.309 -0.69 0.293 -1.1 z"/><path d="m 78.17 181.99 l -2.715 0.472 l -0.037 -0.247 c 0.666 -0.218 1.173 -0.586 1.521 -1.104 0.348 -0.518 0.483 -1.042 0.404 -1.573 -0.061 -0.41 -0.219 -0.718 -0.473 -0.925 -0.255 -0.207 -0.525 -0.289 -0.81 -0.246 -0.181 0.027 -0.335 0.093 -0.463 0.198 -0.172 0.145 -0.331 0.359 -0.477 0.644 -0.105 0.209 -0.275 0.68 -0.511 1.413 -0.328 1.026 -0.676 1.737 -1.044 2.133 -0.369 0.392 -0.823 0.628 -1.361 0.708 -0.683 0.102 -1.31 -0.077 -1.882 -0.536 -0.571 -0.459 -0.918 -1.099 -1.04 -1.918 -0.038 -0.257 -0.048 -0.504 -0.03 -0.741 0.018 -0.237 0.074 -0.539 0.167 -0.906 0.052 -0.205 0.068 -0.37 0.05 -0.494 -0.016 -0.104 -0.072 -0.209 -0.17 -0.314 -0.098 -0.105 -0.234 -0.181 -0.41 -0.229 l -0.033 -0.223 l 3.086 -0.459 l 0.033 0.223 c -0.842 0.306 -1.453 0.745 -1.834 1.317 -0.381 0.572 -0.528 1.15 -0.442 1.732 0.067 0.45 0.243 0.79 0.528 1.021 0.285 0.231 0.59 0.322 0.916 0.273 0.193 -0.029 0.372 -0.108 0.538 -0.237 0.166 -0.129 0.314 -0.311 0.446 -0.544 0.132 -0.233 0.289 -0.634 0.471 -1.204 0.255 -0.798 0.487 -1.379 0.696 -1.742 0.209 -0.364 0.459 -0.657 0.75 -0.879 0.291 -0.222 0.628 -0.361 1.01 -0.418 0.651 -0.097 1.241 0.06 1.77 0.47 0.529 0.41 0.848 0.979 0.956 1.706 0.039 0.265 0.046 0.527 0.018 0.786 -0.02 0.196 -0.075 0.439 -0.166 0.73 -0.09 0.291 -0.127 0.49 -0.111 0.599 0.016 0.104 0.06 0.182 0.133 0.233 0.073 0.051 0.236 0.084 0.489 0.1 z"/><path d="m 79.17 187.05 c 0.356 1.268 0.233 2.398 -0.369 3.389 -0.601 0.991 -1.498 1.63 -2.691 1.917 -1.019 0.245 -1.987 0.163 -2.905 -0.247 -1.217 -0.543 -1.999 -1.535 -2.346 -2.976 -0.348 -1.446 -0.128 -2.681 0.662 -3.707 0.624 -0.81 1.467 -1.344 2.529 -1.599 1.193 -0.287 2.285 -0.121 3.276 0.499 0.991 0.62 1.606 1.528 1.844 2.724 z m -0.362 0.162 c -0.177 -0.735 -0.687 -1.203 -1.529 -1.406 -0.691 -0.164 -1.614 -0.107 -2.767 0.171 -1.371 0.33 -2.326 0.815 -2.865 1.455 -0.377 0.446 -0.493 0.971 -0.348 1.575 0.098 0.407 0.278 0.723 0.542 0.948 0.336 0.287 0.805 0.46 1.407 0.52 0.602 0.06 1.349 -0.018 2.241 -0.233 1.062 -0.256 1.834 -0.546 2.313 -0.87 0.48 -0.324 0.791 -0.666 0.935 -1.024 0.144 -0.358 0.167 -0.737 0.071 -1.136 z"/><path d="m 77.56 200.21 l -2.838 0.676 l -2.45 -6.916 l 0.213 -0.075 l 0.092 0.258 c 0.08 0.226 0.185 0.394 0.314 0.503 0.089 0.081 0.208 0.125 0.357 0.132 0.107 0.001 0.356 -0.055 0.746 -0.193 l 5.124 -1.815 c 0.398 -0.141 0.64 -0.25 0.724 -0.328 0.085 -0.077 0.142 -0.193 0.171 -0.348 0.029 -0.155 0.005 -0.341 -0.072 -0.56 l -0.092 -0.258 l 0.213 -0.075 l 1.471 4.153 l -0.213 0.075 l -0.12 -0.339 c -0.08 -0.226 -0.185 -0.394 -0.314 -0.503 -0.089 -0.081 -0.209 -0.126 -0.359 -0.138 -0.107 -0.001 -0.356 0.055 -0.746 0.193 l -4.963 1.758 c -0.398 0.141 -0.644 0.254 -0.737 0.339 -0.093 0.085 -0.142 0.203 -0.148 0.356 0 0.108 0.064 0.346 0.195 0.713 l 0.23 0.649 c 0.147 0.414 0.341 0.732 0.585 0.957 0.243 0.224 0.557 0.381 0.943 0.471 0.385 0.09 0.916 0.116 1.593 0.079 z"/><path d="m 82.46 210.11 l -2.712 1.076 l -3.417 -6.493 l 0.2 -0.105 l 0.128 0.243 c 0.112 0.212 0.239 0.363 0.383 0.453 0.1 0.067 0.224 0.094 0.372 0.079 0.107 -0.006 0.344 -0.105 0.711 -0.298 l 4.81 -2.531 c 0.374 -0.197 0.597 -0.339 0.67 -0.428 0.073 -0.089 0.112 -0.212 0.119 -0.369 0.007 -0.157 -0.044 -0.338 -0.152 -0.543 l -0.128 -0.243 l 0.2 -0.105 l 2.052 3.899 l -0.2 0.105 l -0.167 -0.318 c -0.112 -0.212 -0.239 -0.363 -0.383 -0.453 -0.1 -0.067 -0.225 -0.095 -0.375 -0.085 -0.107 0.006 -0.344 0.105 -0.711 0.298 l -4.659 2.452 c -0.374 0.197 -0.601 0.344 -0.68 0.441 -0.08 0.097 -0.112 0.222 -0.096 0.374 0.015 0.107 0.113 0.333 0.295 0.678 l 0.321 0.609 c 0.204 0.388 0.443 0.676 0.716 0.863 0.273 0.187 0.606 0.297 1 0.331 0.394 0.034 0.923 -0.016 1.587 -0.15 z"/><path d="m 89.71 211.1 c 0.788 1.055 1.08 2.153 0.876 3.294 -0.204 1.141 -0.811 2.06 -1.821 2.757 -0.862 0.596 -1.795 0.867 -2.799 0.815 -1.331 -0.068 -2.418 -0.712 -3.26 -1.932 -0.845 -1.223 -1.084 -2.456 -0.717 -3.697 0.29 -0.981 0.885 -1.782 1.784 -2.403 1.01 -0.697 2.088 -0.935 3.236 -0.713 1.148 0.222 2.048 0.848 2.701 1.878 z m -0.279 0.282 c -0.429 -0.622 -1.074 -0.875 -1.933 -0.761 -0.704 0.096 -1.544 0.481 -2.52 1.155 -1.16 0.801 -1.876 1.597 -2.15 2.388 -0.191 0.552 -0.111 1.084 0.243 1.595 0.238 0.344 0.52 0.574 0.846 0.689 0.417 0.146 0.917 0.139 1.5 -0.021 0.583 -0.161 1.252 -0.502 2.01 -1.024 0.899 -0.621 1.514 -1.169 1.845 -1.645 0.331 -0.475 0.499 -0.906 0.504 -1.292 0.005 -0.386 -0.109 -0.748 -0.342 -1.085 z"/><path d="m 97.64 220.59 l -2.157 1.958 l -0.152 -0.167 c 0.407 -0.737 0.58 -1.446 0.521 -2.127 -0.059 -0.682 -0.306 -1.262 -0.74 -1.74 -0.415 -0.457 -0.889 -0.721 -1.422 -0.791 -0.533 -0.07 -1.087 0.04 -1.662 0.332 -0.575 0.291 -1.104 0.657 -1.589 1.097 -0.587 0.532 -1.038 1.069 -1.355 1.608 -0.317 0.54 -0.439 1.058 -0.366 1.555 0.072 0.497 0.301 0.957 0.686 1.381 0.134 0.147 0.287 0.284 0.459 0.41 0.172 0.126 0.362 0.243 0.57 0.351 l 1.272 -1.155 c 0.241 -0.218 0.381 -0.376 0.422 -0.474 0.041 -0.097 0.042 -0.224 0.005 -0.379 -0.037 -0.156 -0.123 -0.307 -0.256 -0.455 l -0.143 -0.158 l 0.167 -0.152 l 2.699 2.973 l -0.167 0.152 c -0.22 -0.212 -0.393 -0.341 -0.521 -0.388 -0.127 -0.046 -0.267 -0.044 -0.419 0.006 -0.082 0.025 -0.234 0.138 -0.456 0.34 l -1.272 1.155 c -0.529 -0.233 -1.03 -0.52 -1.503 -0.862 -0.472 -0.342 -0.915 -0.74 -1.327 -1.194 -0.527 -0.581 -0.886 -1.134 -1.076 -1.661 -0.19 -0.527 -0.29 -1.054 -0.299 -1.58 -0.009 -0.527 0.072 -1.019 0.244 -1.477 0.224 -0.587 0.593 -1.115 1.107 -1.582 0.92 -0.836 1.991 -1.218 3.213 -1.148 1.222 0.071 2.278 0.596 3.168 1.577 0.276 0.304 0.5 0.599 0.673 0.887 0.096 0.154 0.222 0.431 0.378 0.829 0.156 0.399 0.259 0.625 0.308 0.679 0.076 0.084 0.178 0.134 0.305 0.151 0.127 0.016 0.304 -0.023 0.53 -0.119 z"/><path d="m 101.21 223.79 c 1.038 0.811 1.608 1.794 1.71 2.949 0.102 1.155 -0.242 2.201 -1.033 3.139 -0.676 0.801 -1.505 1.308 -2.487 1.522 -1.302 0.284 -2.52 -0.053 -3.653 -1.01 -1.137 -0.959 -1.691 -2.085 -1.662 -3.379 0.023 -1.023 0.386 -1.951 1.091 -2.787 0.791 -0.938 1.769 -1.451 2.935 -1.538 1.166 -0.088 2.199 0.28 3.099 1.103 z m -0.196 0.345 c -0.578 -0.487 -1.266 -0.563 -2.065 -0.227 -0.654 0.278 -1.363 0.87 -2.128 1.776 -0.909 1.078 -1.391 2.034 -1.447 2.869 -0.04 0.583 0.178 1.075 0.653 1.475 0.32 0.27 0.652 0.417 0.998 0.443 0.441 0.032 0.921 -0.106 1.442 -0.414 0.52 -0.308 1.076 -0.813 1.668 -1.515 0.705 -0.835 1.154 -1.526 1.348 -2.071 0.194 -0.546 0.243 -1.01 0.147 -1.379 -0.097 -0.374 -0.302 -0.693 -0.615 -0.957 z"/><path d="m 109.04 230.16 l -1.724 2.888 l 0.141 0.084 c 0.45 0.269 0.86 0.322 1.231 0.16 0.371 -0.162 0.749 -0.502 1.134 -1.019 l 0.199 0.119 l -2.218 3.715 l -0.199 -0.119 c 0.2 -0.43 0.309 -0.814 0.329 -1.152 0.02 -0.338 -0.033 -0.605 -0.157 -0.8 -0.125 -0.195 -0.356 -0.394 -0.695 -0.596 l -1.193 1.999 c -0.233 0.391 -0.359 0.639 -0.378 0.746 -0.019 0.107 0 0.215 0.058 0.325 0.057 0.11 0.187 0.225 0.39 0.346 l 0.424 0.253 c 0.663 0.396 1.285 0.559 1.868 0.491 0.583 -0.069 1.149 -0.365 1.698 -0.888 l 0.194 0.116 l -1.666 2.065 l -6.132 -3.661 l 0.116 -0.194 l 0.235 0.141 c 0.206 0.123 0.393 0.185 0.563 0.187 0.12 0.005 0.24 -0.037 0.359 -0.126 0.088 -0.061 0.239 -0.269 0.451 -0.625 l 2.786 -4.667 c 0.192 -0.321 0.301 -0.523 0.327 -0.607 0.038 -0.143 0.03 -0.276 -0.025 -0.398 -0.074 -0.177 -0.226 -0.334 -0.457 -0.471 l -0.235 -0.141 l 0.116 -0.194 l 5.938 3.546 l -1.253 2.098 l -0.199 -0.119 c 0.205 -0.573 0.283 -1.026 0.233 -1.359 -0.05 -0.333 -0.211 -0.651 -0.483 -0.956 -0.158 -0.179 -0.505 -0.429 -1.043 -0.75 z"/><path d="m 115.83 239.27 l 4.228 -4.102 l 3.085 1.341 l -0.09 0.207 l -0.246 -0.107 c -0.224 -0.097 -0.419 -0.136 -0.588 -0.116 -0.116 0.012 -0.228 0.067 -0.338 0.166 -0.08 0.072 -0.202 0.296 -0.365 0.672 l -2.172 4.996 c -0.168 0.387 -0.253 0.639 -0.254 0.753 -0.0001 0.115 0.046 0.236 0.141 0.364 0.095 0.128 0.249 0.238 0.461 0.33 l 0.246 0.107 l -0.09 0.207 l -3.957 -1.72 l 0.09 -0.207 l 0.246 0.107 c 0.224 0.097 0.419 0.136 0.588 0.116 0.116 -0.012 0.229 -0.069 0.34 -0.171 0.08 -0.072 0.202 -0.297 0.368 -0.677 l 2.441 -5.617 l -5.911 5.65 l -0.134 -0.058 l 0.032 -8.145 l -2.32 5.337 c -0.162 0.373 -0.252 0.606 -0.271 0.7 -0.032 0.207 0.007 0.405 0.118 0.593 0.111 0.188 0.34 0.357 0.686 0.508 l -0.09 0.207 l -2.593 -1.127 l 0.09 -0.207 l 0.078 0.034 c 0.166 0.077 0.334 0.118 0.505 0.123 0.17 0.005 0.314 -0.024 0.431 -0.089 0.117 -0.065 0.233 -0.175 0.351 -0.333 0.025 -0.038 0.112 -0.226 0.259 -0.565 l 2.084 -4.795 c 0.167 -0.384 0.25 -0.632 0.251 -0.745 0 -0.113 -0.047 -0.233 -0.142 -0.361 -0.095 -0.128 -0.249 -0.238 -0.461 -0.33 l -0.24 -0.104 l 0.09 -0.207 l 3.096 1.346 z"/><path d="m 128.1 237.81 l 2.696 5.968 l 0.871 -3.444 c 0.121 -0.481 0.135 -0.823 0.04 -1.027 -0.131 -0.276 -0.42 -0.467 -0.868 -0.571 l 0.055 -0.219 l 2.647 0.669 l -0.055 0.219 c -0.35 -0.042 -0.591 -0.044 -0.725 -0.004 -0.134 0.04 -0.253 0.129 -0.357 0.268 -0.104 0.139 -0.204 0.398 -0.3 0.776 l -1.687 6.67 l -0.201 -0.051 l -3.731 -8.04 l -1.288 5.093 c -0.117 0.461 -0.09 0.799 0.08 1.013 0.17 0.215 0.391 0.357 0.662 0.425 l 0.189 0.048 l -0.055 0.219 l -2.842 -0.719 l 0.055 -0.219 c 0.442 0.108 0.772 0.095 0.99 -0.039 0.218 -0.133 0.381 -0.413 0.489 -0.838 l 1.43 -5.654 l -0.118 -0.256 c -0.116 -0.256 -0.23 -0.433 -0.343 -0.533 -0.113 -0.1 -0.291 -0.185 -0.533 -0.254 l 0.055 -0.219 z"/><path d="m 137.3 245.7 l -2.888 -0.425 l -0.461 0.745 c -0.152 0.249 -0.24 0.459 -0.265 0.632 -0.034 0.229 0.034 0.412 0.203 0.547 0.099 0.08 0.359 0.168 0.781 0.263 l -0.033 0.223 l -2.719 -0.4 l 0.033 -0.223 c 0.3 -0.0001 0.559 -0.087 0.777 -0.258 0.218 -0.171 0.512 -0.548 0.881 -1.13 l 3.884 -6.093 l 0.115 0.017 l 1.962 7.138 c 0.188 0.676 0.36 1.11 0.517 1.302 0.118 0.145 0.301 0.245 0.547 0.302 l -0.033 0.223 l -3.955 -0.582 l 0.033 -0.223 l 0.163 0.024 c 0.318 0.047 0.547 0.035 0.689 -0.034 0.098 -0.051 0.156 -0.137 0.173 -0.258 0.011 -0.072 0.001 -0.148 -0.003 -0.228 -0.003 -0.037 -0.041 -0.197 -0.114 -0.479 z m -0.139 -0.476 l -0.804 -2.995 l -1.668 2.631 z"/><path d="m 147.11 240.45 l -0.098 2.753 l -0.249 -0.015 c -0.076 -0.696 -0.332 -1.268 -0.767 -1.716 -0.435 -0.447 -0.92 -0.687 -1.456 -0.719 -0.414 -0.025 -0.748 0.066 -1 0.272 -0.255 0.207 -0.391 0.454 -0.408 0.742 -0.011 0.182 0.022 0.347 0.099 0.494 0.106 0.198 0.283 0.398 0.532 0.6 0.183 0.145 0.608 0.409 1.277 0.791 0.937 0.532 1.561 1.02 1.872 1.462 0.307 0.442 0.444 0.934 0.412 1.478 -0.041 0.689 -0.346 1.266 -0.913 1.731 -0.567 0.464 -1.264 0.672 -2.092 0.622 -0.26 -0.016 -0.503 -0.057 -0.731 -0.123 -0.228 -0.067 -0.512 -0.183 -0.852 -0.35 -0.19 -0.093 -0.348 -0.143 -0.473 -0.151 -0.105 -0.006 -0.219 0.028 -0.342 0.102 -0.122 0.074 -0.225 0.192 -0.308 0.354 l -0.225 -0.013 l 0.187 -3.114 l 0.225 0.013 c 0.126 0.887 0.429 1.575 0.911 2.066 0.481 0.491 1.016 0.754 1.604 0.789 0.454 0.027 0.824 -0.075 1.108 -0.306 0.285 -0.231 0.437 -0.511 0.456 -0.839 0.012 -0.195 -0.029 -0.386 -0.121 -0.575 -0.093 -0.189 -0.239 -0.371 -0.44 -0.548 -0.201 -0.177 -0.561 -0.413 -1.081 -0.709 -0.728 -0.414 -1.249 -0.761 -1.561 -1.04 -0.313 -0.279 -0.548 -0.584 -0.705 -0.915 -0.157 -0.331 -0.224 -0.689 -0.201 -1.074 0.04 -0.657 0.314 -1.202 0.825 -1.635 0.51 -0.433 1.132 -0.628 1.867 -0.584 0.268 0.016 0.525 0.064 0.773 0.144 0.188 0.06 0.414 0.164 0.68 0.313 0.266 0.148 0.453 0.226 0.563 0.232 0.105 0.006 0.19 -0.021 0.255 -0.082 0.065 -0.061 0.131 -0.214 0.198 -0.458 z"/><path d="m 155.82 240.35 l 0.066 2.863 l -0.238 0.006 c -0.196 -0.743 -0.542 -1.308 -1.039 -1.695 -0.497 -0.387 -1.054 -0.573 -1.671 -0.559 -0.516 0.012 -0.986 0.171 -1.409 0.478 -0.424 0.306 -0.729 0.702 -0.917 1.186 -0.242 0.619 -0.354 1.305 -0.336 2.056 0.017 0.739 0.126 1.41 0.327 2.01 0.201 0.603 0.504 1.055 0.909 1.356 0.405 0.301 0.925 0.445 1.558 0.43 0.52 -0.012 0.993 -0.137 1.421 -0.374 0.427 -0.237 0.874 -0.64 1.34 -1.208 l 0.017 0.713 c -0.452 0.494 -0.926 0.856 -1.422 1.085 -0.497 0.229 -1.08 0.351 -1.75 0.367 -0.881 0.02 -1.668 -0.138 -2.361 -0.475 -0.693 -0.337 -1.232 -0.833 -1.619 -1.486 -0.387 -0.653 -0.589 -1.354 -0.607 -2.101 -0.018 -0.788 0.17 -1.54 0.566 -2.256 0.396 -0.716 0.939 -1.277 1.631 -1.684 0.692 -0.406 1.431 -0.618 2.219 -0.637 0.581 -0.013 1.197 0.098 1.849 0.335 0.377 0.138 0.616 0.205 0.718 0.203 0.13 -0.003 0.242 -0.053 0.335 -0.151 0.093 -0.098 0.152 -0.25 0.175 -0.458 z"/><path d="m 159.19 240.64 l 0.388 3.341 l 0.163 -0.019 c 0.521 -0.06 0.879 -0.268 1.075 -0.622 0.196 -0.354 0.289 -0.854 0.28 -1.499 l 0.23 -0.027 l 0.499 4.298 l -0.23 0.027 c -0.103 -0.462 -0.249 -0.834 -0.439 -1.115 -0.19 -0.281 -0.394 -0.46 -0.612 -0.539 -0.218 -0.079 -0.522 -0.096 -0.914 -0.05 l 0.268 2.312 c 0.052 0.452 0.104 0.726 0.154 0.823 0.05 0.096 0.131 0.171 0.244 0.223 0.112 0.052 0.286 0.065 0.52 0.038 l 0.49 -0.057 c 0.767 -0.089 1.361 -0.338 1.781 -0.747 0.421 -0.409 0.69 -0.988 0.808 -1.738 l 0.224 -0.026 l -0.066 2.652 l -7.094 0.823 l -0.026 -0.224 l 0.272 -0.032 c 0.238 -0.028 0.425 -0.092 0.56 -0.194 0.098 -0.069 0.168 -0.175 0.208 -0.319 0.033 -0.102 0.026 -0.359 -0.022 -0.77 l -0.626 -5.399 c -0.043 -0.371 -0.08 -0.598 -0.11 -0.68 -0.057 -0.137 -0.144 -0.237 -0.262 -0.301 -0.166 -0.095 -0.383 -0.127 -0.649 -0.096 l -0.272 0.032 l -0.026 -0.224 l 6.87 -0.797 l 0.282 2.427 l -0.23 0.027 c -0.186 -0.58 -0.4 -0.986 -0.642 -1.22 -0.242 -0.234 -0.563 -0.389 -0.965 -0.465 -0.234 -0.046 -0.662 -0.034 -1.284 0.038 z"/><path d="m 166.3 239.1 l 5.064 4.152 l -0.748 -3.473 c -0.104 -0.485 -0.244 -0.797 -0.42 -0.938 -0.24 -0.189 -0.584 -0.232 -1.031 -0.127 l -0.048 -0.22 l 2.669 -0.575 l 0.048 0.22 c -0.332 0.117 -0.549 0.223 -0.651 0.318 -0.102 0.095 -0.169 0.228 -0.201 0.399 -0.032 0.171 -0.007 0.447 0.076 0.828 l 1.448 6.726 l -0.203 0.044 l -6.911 -5.549 l 1.106 5.135 c 0.1 0.465 0.274 0.756 0.521 0.873 0.248 0.117 0.508 0.146 0.782 0.087 l 0.191 -0.041 l 0.048 0.22 l -2.865 0.617 l -0.048 -0.22 c 0.444 -0.1 0.734 -0.258 0.87 -0.474 0.136 -0.216 0.158 -0.539 0.066 -0.968 l -1.228 -5.701 l -0.219 -0.177 c -0.217 -0.178 -0.398 -0.286 -0.544 -0.325 -0.146 -0.039 -0.342 -0.036 -0.59 0.009 l -0.048 -0.22 z"/><path d="m 173.98 245.88 l -0.07 -0.214 l 0.261 -0.086 c 0.228 -0.075 0.391 -0.168 0.489 -0.279 0.098 -0.111 0.156 -0.238 0.173 -0.381 0.008 -0.093 -0.054 -0.341 -0.188 -0.747 l -1.697 -5.164 c -0.132 -0.401 -0.236 -0.645 -0.311 -0.732 -0.075 -0.086 -0.19 -0.146 -0.344 -0.179 -0.154 -0.033 -0.341 -0.013 -0.561 0.059 l -0.261 0.086 l -0.07 -0.214 l 3.514 -1.155 c 0.938 -0.308 1.734 -0.429 2.389 -0.362 0.801 0.083 1.486 0.382 2.055 0.896 0.569 0.514 0.984 1.171 1.247 1.97 0.181 0.552 0.26 1.09 0.235 1.613 -0.025 0.523 -0.128 0.983 -0.31 1.378 -0.182 0.396 -0.427 0.746 -0.736 1.05 -0.308 0.304 -0.712 0.594 -1.212 0.87 -0.22 0.124 -0.583 0.269 -1.089 0.435 z m 0.56 -8.388 l 2.01 6.125 c 0.107 0.324 0.187 0.518 0.242 0.581 0.055 0.063 0.125 0.102 0.211 0.117 0.123 0.024 0.283 0.003 0.48 -0.061 0.645 -0.212 1.064 -0.593 1.259 -1.145 0.268 -0.747 0.196 -1.745 -0.215 -2.996 -0.331 -1.01 -0.754 -1.76 -1.268 -2.258 -0.406 -0.388 -0.833 -0.603 -1.283 -0.643 -0.317 -0.028 -0.797 0.065 -1.441 0.281 z"/><path d="m 183.28 233.51 c 1.175 -0.596 2.306 -0.696 3.396 -0.299 1.089 0.396 1.891 1.152 2.405 2.265 0.439 0.952 0.548 1.917 0.324 2.897 -0.295 1.3 -1.115 2.26 -2.462 2.882 -1.35 0.623 -2.605 0.648 -3.765 0.074 -0.917 -0.454 -1.604 -1.177 -2.062 -2.169 -0.514 -1.114 -0.564 -2.217 -0.149 -3.311 0.415 -1.093 1.186 -1.873 2.313 -2.34 z m 0.23 0.323 c -0.686 0.317 -1.046 0.908 -1.08 1.774 -0.026 0.71 0.21 1.603 0.707 2.68 0.591 1.28 1.253 2.122 1.985 2.526 0.511 0.283 1.049 0.294 1.613 0.034 0.38 -0.175 0.655 -0.414 0.824 -0.716 0.216 -0.386 0.294 -0.88 0.236 -1.481 -0.059 -0.602 -0.28 -1.319 -0.665 -2.153 -0.458 -0.992 -0.893 -1.692 -1.305 -2.099 -0.412 -0.407 -0.807 -0.646 -1.187 -0.717 -0.38 -0.071 -0.756 -0.02 -1.128 0.152 z"/><path d="m 196.68 225.7 l 0.126 0.187 c -0.222 0.209 -0.354 0.492 -0.397 0.849 -0.028 0.264 0.03 0.802 0.171 1.613 l 1.179 6.824 l -0.167 0.113 l -6.03 -3.854 c -0.726 -0.465 -1.176 -0.722 -1.35 -0.772 -0.173 -0.049 -0.403 0 -0.689 0.15 l -0.126 -0.187 l 3.281 -2.219 l 0.126 0.187 l -0.111 0.075 c -0.296 0.2 -0.473 0.374 -0.531 0.521 -0.043 0.103 -0.032 0.203 0.034 0.301 0.041 0.061 0.103 0.123 0.185 0.187 0.083 0.064 0.323 0.224 0.721 0.479 l 3.763 2.421 l -0.699 -3.949 c -0.087 -0.476 -0.153 -0.789 -0.201 -0.938 -0.047 -0.15 -0.1 -0.268 -0.16 -0.356 -0.068 -0.101 -0.156 -0.172 -0.262 -0.213 -0.106 -0.041 -0.225 -0.046 -0.357 -0.016 -0.183 0.041 -0.395 0.142 -0.633 0.303 l -0.126 -0.187 z"/><path d="m 198.9 224.33 l 2.197 2.547 l 0.125 -0.107 c 0.397 -0.342 0.577 -0.715 0.54 -1.118 -0.036 -0.403 -0.24 -0.869 -0.61 -1.397 l 0.175 -0.151 l 2.826 3.276 l -0.175 0.151 c -0.345 -0.325 -0.675 -0.55 -0.989 -0.676 -0.315 -0.125 -0.584 -0.16 -0.809 -0.103 -0.225 0.057 -0.486 0.214 -0.784 0.471 l 1.521 1.763 c 0.297 0.345 0.494 0.543 0.589 0.594 0.096 0.052 0.205 0.068 0.327 0.048 0.122 -0.02 0.273 -0.107 0.451 -0.261 l 0.374 -0.322 c 0.584 -0.504 0.936 -1.044 1.055 -1.618 0.119 -0.575 0.016 -1.205 -0.308 -1.891 l 0.171 -0.147 l 1.434 2.231 l -5.408 4.665 l -0.147 -0.171 l 0.208 -0.179 c 0.181 -0.157 0.3 -0.315 0.355 -0.475 0.043 -0.112 0.041 -0.239 -0.007 -0.381 -0.03 -0.103 -0.18 -0.311 -0.451 -0.625 l -3.551 -4.116 c -0.244 -0.283 -0.402 -0.45 -0.473 -0.501 -0.124 -0.081 -0.252 -0.115 -0.386 -0.102 -0.191 0.015 -0.388 0.11 -0.591 0.285 l -0.208 0.179 l -0.147 -0.171 l 5.237 -4.518 l 1.596 1.85 l -0.175 0.151 c -0.479 -0.375 -0.885 -0.592 -1.216 -0.649 -0.331 -0.058 -0.684 -0.005 -1.059 0.157 -0.22 0.093 -0.567 0.344 -1.041 0.753 z m -1.037 -3.459 l 2.457 0.954 l -0.355 0.307 l -1.918 -0.003 l -0.334 1.898 l -0.378 0.326 l -0.514 -2.583 z"/><path d="m 209.26 219.77 l 1.743 1.487 c 0.34 0.29 0.572 0.452 0.695 0.485 0.124 0.033 0.257 0.019 0.401 -0.042 0.144 -0.062 0.337 -0.235 0.579 -0.519 l 0.171 0.146 l -2.726 3.194 l -0.171 -0.146 c 0.248 -0.29 0.389 -0.511 0.423 -0.66 0.034 -0.15 0.026 -0.282 -0.025 -0.398 -0.051 -0.116 -0.246 -0.318 -0.586 -0.609 l -4.079 -3.481 c -0.34 -0.29 -0.572 -0.452 -0.695 -0.485 -0.124 -0.033 -0.257 -0.02 -0.399 0.04 -0.142 0.06 -0.336 0.234 -0.581 0.521 l -0.172 -0.146 l 2.338 -2.739 c 0.77 -0.902 1.483 -1.412 2.14 -1.531 0.656 -0.118 1.225 0.029 1.708 0.44 0.408 0.348 0.649 0.773 0.723 1.274 0.074 0.501 -0.026 1.019 -0.301 1.554 -0.182 0.363 -0.577 0.901 -1.186 1.615 z m -3.078 -2.627 l 2.716 2.318 c 0.093 -0.097 0.162 -0.171 0.207 -0.224 0.322 -0.377 0.458 -0.763 0.408 -1.158 -0.05 -0.395 -0.31 -0.793 -0.779 -1.194 -0.467 -0.398 -0.895 -0.588 -1.285 -0.568 -0.39 0.019 -0.758 0.231 -1.104 0.636 z"/><path d="m 213.64 214.12 l 1.92 1.294 c 0.371 0.25 0.619 0.384 0.746 0.404 0.127 0.019 0.257 -0.009 0.392 -0.085 0.134 -0.076 0.307 -0.271 0.518 -0.584 l 0.187 0.126 l -2.364 3.507 l -0.187 -0.126 c 0.213 -0.317 0.329 -0.551 0.346 -0.704 0.017 -0.153 -0.006 -0.283 -0.07 -0.392 -0.064 -0.109 -0.281 -0.288 -0.651 -0.538 l -4.447 -2.997 c -0.371 -0.25 -0.619 -0.384 -0.746 -0.404 -0.127 -0.019 -0.257 0.009 -0.392 0.085 -0.134 0.076 -0.307 0.271 -0.518 0.584 l -0.187 -0.126 l 2.146 -3.183 c 0.559 -0.829 1.025 -1.396 1.398 -1.703 0.373 -0.307 0.796 -0.478 1.268 -0.512 0.472 -0.035 0.915 0.088 1.329 0.367 0.505 0.341 0.8 0.804 0.885 1.39 0.052 0.373 -0.001 0.804 -0.187 1.292 l 3.43 -0.084 c 0.445 -0.013 0.735 -0.041 0.871 -0.082 0.198 -0.068 0.363 -0.189 0.495 -0.364 l 0.187 0.126 l -1.454 2.158 l -4.611 0.103 z m -3.36 -2.265 l 3 2.023 l 0.194 -0.288 c 0.316 -0.468 0.509 -0.848 0.58 -1.138 0.071 -0.29 0.039 -0.578 -0.095 -0.862 -0.134 -0.284 -0.382 -0.548 -0.742 -0.791 -0.522 -0.352 -0.99 -0.49 -1.404 -0.414 -0.414 0.076 -0.804 0.385 -1.169 0.928 z"/><path d="m 221.86 207.32 l 0.198 0.108 l -2.074 3.79 l -0.198 -0.108 l 0.132 -0.241 c 0.115 -0.21 0.17 -0.4 0.166 -0.569 0.0001 -0.12 -0.046 -0.238 -0.14 -0.354 -0.064 -0.086 -0.278 -0.228 -0.641 -0.427 l -4.768 -2.61 c -0.371 -0.203 -0.613 -0.31 -0.727 -0.322 -0.114 -0.012 -0.239 0.023 -0.373 0.105 -0.135 0.081 -0.258 0.224 -0.369 0.427 l -0.132 0.241 l -0.198 -0.108 l 2.074 -3.79 l 0.198 0.108 l -0.132 0.241 c -0.115 0.21 -0.17 0.4 -0.166 0.569 -0.0001 0.12 0.045 0.24 0.137 0.36 0.064 0.086 0.278 0.228 0.641 0.427 l 4.768 2.61 c 0.371 0.203 0.613 0.309 0.729 0.319 0.115 0.001 0.24 -0.026 0.375 -0.107 0.135 -0.081 0.258 -0.224 0.369 -0.427 z"/><path d="m 222.05 200.68 l -4.165 -4.167 l 1.295 -3.105 l 0.208 0.087 l -0.103 0.247 c -0.094 0.225 -0.13 0.421 -0.107 0.589 0.013 0.116 0.07 0.227 0.171 0.335 0.073 0.079 0.299 0.197 0.677 0.355 l 5.03 2.097 c 0.39 0.163 0.642 0.244 0.757 0.243 0.115 0 0.235 -0.049 0.361 -0.146 0.126 -0.097 0.234 -0.252 0.323 -0.466 l 0.103 -0.247 l 0.208 0.087 l -1.661 3.982 l -0.208 -0.087 l 0.103 -0.247 c 0.094 -0.225 0.13 -0.421 0.107 -0.589 -0.013 -0.116 -0.072 -0.228 -0.176 -0.338 -0.073 -0.079 -0.3 -0.198 -0.683 -0.357 l -5.652 -2.357 l 5.738 5.826 l -0.056 0.135 l -8.145 0.089 l 5.371 2.24 c 0.375 0.156 0.609 0.243 0.704 0.26 0.208 0.029 0.405 -0.013 0.591 -0.127 0.186 -0.114 0.352 -0.345 0.497 -0.694 l 0.208 0.087 l -1.088 2.61 l -0.208 -0.087 l 0.033 -0.079 c 0.074 -0.167 0.113 -0.336 0.115 -0.506 0.003 -0.17 -0.029 -0.314 -0.095 -0.429 -0.066 -0.116 -0.179 -0.231 -0.338 -0.346 -0.038 -0.025 -0.228 -0.108 -0.569 -0.25 l -4.826 -2.01 c -0.386 -0.161 -0.636 -0.241 -0.749 -0.24 -0.113 0.0001 -0.232 0.051 -0.359 0.148 -0.126 0.097 -0.234 0.252 -0.323 0.466 l -0.101 0.242 l -0.208 -0.087 l 1.299 -3.116 z"/><path d="m 220.21 190.95 l 3.237 0.914 l 0.045 -0.158 c 0.142 -0.504 0.087 -0.915 -0.166 -1.231 -0.253 -0.316 -0.679 -0.593 -1.279 -0.83 l 0.063 -0.223 l 4.164 1.175 l -0.063 0.223 c -0.467 -0.081 -0.866 -0.087 -1.198 -0.018 -0.332 0.069 -0.576 0.189 -0.732 0.36 -0.156 0.171 -0.287 0.447 -0.394 0.826 l 2.24 0.632 c 0.438 0.124 0.711 0.181 0.819 0.171 0.108 -0.001 0.208 -0.056 0.299 -0.14 0.091 -0.084 0.169 -0.239 0.233 -0.466 l 0.134 -0.475 c 0.21 -0.743 0.206 -1.387 -0.012 -1.931 -0.218 -0.545 -0.651 -1.014 -1.299 -1.408 l 0.061 -0.217 l 2.427 1.071 l -1.94 6.873 l -0.217 -0.061 l 0.075 -0.264 c 0.065 -0.231 0.077 -0.428 0.034 -0.592 -0.026 -0.117 -0.098 -0.222 -0.215 -0.314 -0.082 -0.07 -0.322 -0.161 -0.721 -0.273 l -5.231 -1.476 c -0.36 -0.101 -0.583 -0.154 -0.671 -0.158 -0.148 0 -0.274 0.043 -0.378 0.128 -0.151 0.118 -0.263 0.306 -0.336 0.564 l -0.075 0.264 l -0.217 -0.061 l 1.878 -6.656 l 2.352 0.664 l -0.063 0.223 c -0.607 -0.049 -1.064 -0.006 -1.372 0.129 -0.308 0.135 -0.574 0.373 -0.797 0.715 -0.132 0.199 -0.283 0.6 -0.453 1.202 z"/><path d="m 229.68 183.78 l 0.221 0.045 l -0.867 4.233 l -0.221 -0.045 l 0.055 -0.269 c 0.048 -0.235 0.045 -0.432 -0.009 -0.593 -0.035 -0.115 -0.114 -0.214 -0.238 -0.297 -0.087 -0.063 -0.333 -0.137 -0.739 -0.22 l -5.325 -1.091 c -0.414 -0.085 -0.677 -0.116 -0.79 -0.093 -0.112 0.023 -0.221 0.093 -0.326 0.21 -0.105 0.117 -0.181 0.29 -0.227 0.516 l -0.055 0.269 l -0.221 -0.045 l 0.867 -4.233 l 0.221 0.045 l -0.055 0.269 c -0.048 0.235 -0.045 0.432 0.009 0.593 0.035 0.115 0.113 0.216 0.236 0.303 0.087 0.063 0.333 0.137 0.739 0.22 l 5.325 1.091 c 0.414 0.085 0.677 0.115 0.79 0.09 0.113 -0.025 0.222 -0.096 0.327 -0.213 0.105 -0.117 0.181 -0.29 0.227 -0.516 z"/><path d="m 226.72 179.78 l 2.296 0.303 c 0.443 0.058 0.726 0.068 0.847 0.029 0.122 -0.039 0.226 -0.123 0.313 -0.251 0.087 -0.128 0.154 -0.379 0.204 -0.754 l 0.224 0.03 l -0.553 4.193 l -0.224 -0.03 c 0.05 -0.379 0.048 -0.64 -0.004 -0.784 -0.053 -0.144 -0.132 -0.251 -0.237 -0.32 -0.106 -0.069 -0.38 -0.133 -0.823 -0.191 l -5.316 -0.701 c -0.443 -0.058 -0.726 -0.068 -0.847 -0.029 -0.122 0.039 -0.226 0.123 -0.313 0.251 -0.087 0.128 -0.154 0.379 -0.204 0.754 l -0.224 -0.03 l 0.502 -3.806 c 0.131 -0.991 0.295 -1.707 0.492 -2.148 0.197 -0.441 0.5 -0.782 0.906 -1.024 0.407 -0.241 0.858 -0.329 1.353 -0.264 0.604 0.08 1.075 0.363 1.412 0.85 0.213 0.311 0.349 0.724 0.408 1.24 l 3.03 -1.604 c 0.392 -0.21 0.64 -0.364 0.743 -0.461 0.147 -0.149 0.24 -0.331 0.281 -0.547 l 0.224 0.03 l -0.34 2.58 l -4.082 2.148 z m -4.02 -0.53 l 3.589 0.473 l 0.045 -0.344 c 0.074 -0.56 0.078 -0.985 0.012 -1.277 -0.066 -0.291 -0.223 -0.534 -0.469 -0.729 -0.247 -0.194 -0.586 -0.32 -1.017 -0.377 -0.624 -0.082 -1.105 0.003 -1.441 0.256 -0.337 0.253 -0.548 0.703 -0.633 1.352 z"/><path d="m 223.05 169.43 c 0.008 -1.317 0.437 -2.369 1.288 -3.156 0.851 -0.787 1.89 -1.154 3.115 -1.101 1.047 0.045 1.955 0.391 2.725 1.038 1.02 0.857 1.499 2.026 1.435 3.508 -0.064 1.486 -0.616 2.613 -1.658 3.381 -0.823 0.607 -1.78 0.887 -2.872 0.84 -1.226 -0.053 -2.23 -0.514 -3.01 -1.383 -0.782 -0.869 -1.123 -1.912 -1.022 -3.127 z m 0.393 -0.056 c -0.032 0.755 0.329 1.346 1.083 1.773 0.619 0.348 1.522 0.547 2.707 0.598 1.408 0.06 2.46 -0.142 3.155 -0.609 0.486 -0.325 0.742 -0.798 0.768 -1.419 0.018 -0.418 -0.069 -0.771 -0.259 -1.06 -0.244 -0.368 -0.647 -0.664 -1.209 -0.888 -0.562 -0.223 -1.301 -0.355 -2.218 -0.394 -1.092 -0.047 -1.913 0.019 -2.464 0.199 -0.551 0.18 -0.944 0.422 -1.181 0.727 -0.237 0.305 -0.364 0.662 -0.382 1.072 z"/><path d="m 175.45 155.29 c 1.44 1.68 0.72 4.8 0.414 5.76 h -0.72 c -0.174 -0.96 -1.185 -4.08 0.306 -5.76 z" fill="#fff" stroke="#000" stroke-linejoin="round" stroke-linecap="round" stroke-width="0.48"/></svg>