<?xml version="1.0" encoding="UTF-8" standalone="no"?>
<svg
   version="1.1"
   width="324px"
   height="216px"
   style="shape-rendering:geometricPrecision; text-rendering:geometricPrecision; image-rendering:optimizeQuality; fill-rule:evenodd; clip-rule:evenodd"
   id="svg818"
   sodipodi:docname="Flag_of_Praia.svg"
   xml:space="preserve"
   inkscape:version="1.2.2 (b0a8486, 2022-12-01)"
   xmlns:inkscape="http://www.inkscape.org/namespaces/inkscape"
   xmlns:sodipodi="http://sodipodi.sourceforge.net/DTD/sodipodi-0.dtd"
   xmlns="http://www.w3.org/2000/svg"
   xmlns:svg="http://www.w3.org/2000/svg"><defs
     id="defs822" /><sodipodi:namedview
     id="namedview820"
     pagecolor="#ffffff"
     bordercolor="#000000"
     borderopacity="0.25"
     inkscape:showpageshadow="2"
     inkscape:pageopacity="0.0"
     inkscape:pagecheckerboard="0"
     inkscape:deskcolor="#d1d1d1"
     showgrid="false"
     inkscape:zoom="1.3136176"
     inkscape:cx="141.21309"
     inkscape:cy="122.5623"
     inkscape:window-width="1440"
     inkscape:window-height="900"
     inkscape:window-x="0"
     inkscape:window-y="0"
     inkscape:window-maximized="0"
     inkscape:current-layer="svg818" /><path
     fill="#fdfdfe"
     d="m -0.5,-0.5 c 108,0 216,0 324,0 0,72 0,144 0,216 -108,0 -216,0 -324,0 0,-72 0,-144 0,-216 z"
     id="path490" /><g
     id="g1256"
     transform="matrix(0.38919564,0,0,0.38919564,65.561326,18.933922)"
     style="stroke-width:2.5694"><path
       fill="#479b2d"
       d="m 271.83,39.19 q -7.03,2.44 -13.26,-1.37 c -1.01,-0.62 -1.81,-1.52 -2.84,-2.13 a 1.02,1.01 45.3 0 0 -1.02,-0.01 c -5.38,3.04 -11.24,2.97 -16.49,-0.43 a 0.95,0.94 -50.2 0 0 -1.16,0.11 q -6.79,6.4 -16.17,3.53 a 1.04,1.04 0 0 0 -1.13,0.36 q -5.8,7.37 -15.24,5.91 c -9.1,-1.41 -15.22,-11.58 -11,-20.27 q 3.98,-8.18 13.75,-8.65 c 1.93,-0.09 3.71,0.57 5.6,0.79 q 0.59,0.07 0.95,-0.39 c 4.94,-6.29 14.3,-8.19 21.02,-3.41 a 0.65,0.65 0 0 0 0.78,-0.03 q 11.03,-9.09 22.01,-0.25 0.38,0.31 0.83,0.1 12.75,-5.97 21.17,4.57 0.4,0.5 1.01,0.33 c 6.96,-1.92 13.89,-0.01 17.87,6.07 4.24,6.49 2.35,15.07 -3.82,19.45 -7.11,5.04 -17.27,3.32 -21.91,-3.95 a 0.82,0.81 63.8 0 0 -0.95,-0.33 z m -19.11,-8.16 c -2.13,-5.12 -1.44,-9.59 1.63,-14.12 a 1.25,1.24 -55.6 0 0 -0.32,-1.72 q -7.06,-4.89 -14.37,0.1 a 1.67,1.67 0 0 0 -0.49,2.25 q 3.84,6.25 1.11,12.9 a 1.37,1.36 -65.9 0 0 0.66,1.74 q 5.86,2.86 11.26,0.23 a 1.08,1.07 65.8 0 0 0.52,-1.38 z M 233.51,30.1 c -2.49,-3.41 -2.29,-8.89 -0.61,-12.4 a 0.96,0.96 0 0 0 -0.4,-1.26 q -8.19,-4.41 -14.88,2.03 a 1.1,1.09 43.8 0 0 0.04,1.61 q 6.19,5.42 4.55,14.14 a 0.71,0.7 13.5 0 0 0.5,0.81 q 5.61,1.66 10.72,-1.87 0.38,-0.26 0.54,-0.7 0.42,-1.17 -0.46,-2.36 z M 260.8,17.66 c 2.27,5.65 0.95,9.57 -1.77,14.61 a 0.73,0.73 0 0 0 0.2,0.94 q 5.21,3.86 10.85,2.29 a 0.93,0.92 77.8 0 0 0.66,-1.04 q -1.26,-8.21 5.03,-13.81 0.67,-0.6 0.07,-1.28 -5.88,-6.57 -14.39,-3.22 a 1.17,1.15 68.6 0 0 -0.65,1.51 z m -45,18.18 c -3.89,-3.48 -5.75,-8.97 -4.38,-14.3 q 0.13,-0.49 -0.36,-0.62 -7.17,-1.87 -11.86,2.99 c -4,4.15 -3.47,10.83 0.77,14.64 4.73,4.24 11.74,3.61 15.92,-1.07 a 1.16,1.15 -48.3 0 0 -0.09,-1.64 z m 40.5926,-8.2669 a 3.41,0.94 97.2 0 0 1.36,-3.2653 3.41,0.94 97.2 0 0 -0.5052,-3.5009 3.41,0.94 97.2 0 0 -1.36,3.2653 3.41,0.94 97.2 0 0 0.5052,3.5009 z M 281.51,22.29 q 1.44,6.33 -2.49,11.65 c -0.75,1.03 -1.63,1.62 -2.57,2.42 q -0.57,0.47 -0.12,1.06 3.9,5.05 9.94,4.77 c 9.36,-0.43 13.89,-11.68 6.75,-18.12 q -4.6,-4.16 -11.18,-2.34 a 0.47,0.47 0 0 0 -0.33,0.56 z m -45.0922,3.3056 a 1.43,0.59 94.5 0 0 0.7004,-1.3793 1.43,0.59 94.5 0 0 -0.476,-1.4719 1.43,0.59 94.5 0 0 -0.7004,1.3793 1.43,0.59 94.5 0 0 0.476,1.4719 z m -18.405,5.9508 a 3.84,1.09 70.8 0 0 -0.2334,-3.9849 3.84,1.09 70.8 0 0 -2.2922,-3.2679 3.84,1.09 70.8 0 0 0.2334,3.9849 3.84,1.09 70.8 0 0 2.2922,3.2679 z m 56.8666,0.5078 a 3.76,0.97 110.4 0 0 2.2198,-3.1861 3.76,0.97 110.4 0 0 0.4014,-3.8623 3.76,0.97 110.4 0 0 -2.2198,3.1861 3.76,0.97 110.4 0 0 -0.4014,3.8623 z"
       id="path1052"
       style="stroke-width:7.17896" /><path
       fill="#f8ef38"
       d="m 149.49,48.67 q 0.41,-3.96 2.96,-7.96 0.38,-0.59 0.46,0.1 0.4,3.07 1.82,6.71 0.69,1.79 2.69,1.74 c 2.37,-0.05 5.02,-0.3 7.37,0.22 q 0.7,0.15 0.13,0.58 -2.6,1.95 -5.71,3.48 -1.94,0.95 -1.36,2.88 0.77,2.58 1.96,5.24 0.97,2.16 -1.11,1.03 c -1.99,-1.09 -3.42,-2.42 -5.12,-3.82 q -0.5,-0.41 -1.12,-0.21 -2.93,0.92 -5.24,3.15 -1,0.97 -2.37,1.21 -0.64,0.11 -0.51,-0.52 0.65,-3.31 2.43,-6.36 0.33,-0.56 -0.11,-1.04 c -2.03,-2.23 -4.7,-3.38 -6.99,-5.31 a 0.41,0.41 0 0 1 0.19,-0.71 q 2.41,-0.45 4.82,0.13 0.58,0.13 1.16,-0.02 1.48,-0.38 3.01,-0.06 0.58,0.13 0.64,-0.46 z"
       id="path1054"
       style="stroke-width:7.17896" /><path
       fill="#f8ef38"
       d="m 333.13,54.97 q -3.23,-2.64 -7.37,-4.85 a 0.53,0.53 0 0 1 -0.08,-0.88 q 0.21,-0.17 0.48,-0.18 4.51,-0.18 8.12,0.24 0.62,0.07 0.88,-0.5 1.55,-3.31 2.56,-6.75 0.71,-2.41 1.49,-0.03 l 2.1,6.43 a 1.2,1.19 -10 0 0 1.18,0.82 l 7.95,-0.3 q 1.6,-0.07 0.46,1.06 -2.33,2.31 -5.63,3.39 a 1.89,1.88 -16.2 0 0 -1.24,2.25 q 0.78,3.11 2.58,6.23 0.69,1.19 -0.68,0.98 -0.56,-0.09 -1.02,-0.41 -3.07,-2.12 -6.21,-3.92 a 1.08,1.07 -51.1 0 0 -1.25,0.14 q -2.95,2.69 -6.66,4.52 -0.98,0.48 -0.54,-0.52 l 3.08,-6.88 q 0.23,-0.5 -0.2,-0.84 z"
       id="path1056"
       style="stroke-width:7.17896" /><path
       fill="#020a6c"
       d="m 112.31,119.99 c 31.86,-42.84 82.65,-67.28 136.2,-66.72 a 0.53,0.52 0.6 0 1 0.52,0.52 l -0.02,159.18 a 0.48,0.47 0 0 1 -0.48,0.47 l -166.75,0.01 a 0.68,0.67 -89.6 0 1 -0.67,-0.69 q 0.62,-51.66 31.2,-92.77 z m 82.97,64.38 -16.45,0.01 A 0.38,0.38 0 0 1 178.45,184 v -26.46 a 0.52,0.52 0 0 0 -0.41,-0.51 L 169,155.16 q -0.74,-0.15 -0.74,-0.92 v -65.5 a 0.35,0.35 0 0 0 -0.52,-0.31 l -29.2,16.13 a 0.8,0.77 76.1 0 0 -0.4,0.69 l 0.02,11.61 q 0,0.39 -0.4,0.39 l -19.19,0.02 q -0.45,0 -0.44,0.45 l 0.04,25.02 a 2.95,2.85 -32.7 0 1 -0.3,1.28 q -6.31,12.7 -12.38,24.29 -1.05,2.01 -1.05,4.06 0.03,18.45 0.01,36.56 a 0.43,0.43 0 0 0 0.43,0.43 h 127.91 a 0.41,0.4 0 0 0 0.41,-0.4 l 0.37,-123.93 a 0.54,0.53 0 0 0 -0.54,-0.53 h -27.02 a 0.24,0.24 0 0 0 -0.24,0.24 l 0.02,57.49 a 0.52,0.52 0 0 1 -0.52,0.52 l -8.95,0.01 a 0.43,0.42 0 0 0 -0.43,0.42 l 0.04,40.54 q 0,0.65 -0.65,0.65 z m -1.8,-88.79 a 0.34,0.34 0 0 0 -0.34,-0.34 l -20.94,0.01 a 0.34,0.34 0 0 0 -0.29,0.51 l 20.98,37.1 a 0.34,0.34 0 0 0 0.64,-0.17 z"
       id="path1058"
       style="stroke-width:7.17896" /><path
       fill="#020a6c"
       d="m 254.01,53.46 c 85.64,3.64 157.62,72.19 157.79,159.24 a 0.76,0.76 0 0 1 -0.76,0.76 l -156.81,-0.01 a 0.72,0.72 0 0 1 -0.72,-0.72 L 253.5,53.95 a 0.49,0.49 0 0 1 0.51,-0.49 z m 83.1,123.27 c 1.97,0.13 3.85,0.29 5.86,0.05 6,-0.71 11.47,-1.45 17.73,-1.22 q 20.55,0.76 40.04,1.39 0.19,0.01 0.21,-0.18 v -0.01 q 0.01,-0.14 -0.13,-0.16 c -5.44,-0.8 -10.92,-0.91 -16.27,-2.4 q -5.28,-1.47 -9.44,-1.93 -4.47,-0.49 -9.64,0.49 -3.25,0.62 -6.5,0.27 c -7.35,-0.79 -15.29,-0.73 -22.86,-1.87 a 0.46,0.45 89.9 0 1 -0.38,-0.39 q -1.14,-8.27 -0.06,-16.41 0.47,-3.54 4.11,-4.49 0.4,-0.11 0.49,0.3 l 0.45,2.1 a 0.6,0.59 -17.3 0 0 0.81,0.42 q 0.65,-0.26 1.09,-0.82 a 1.11,1.11 0 0 1 1.93,0.36 q 0.54,1.75 2.41,1.34 a 0.78,0.76 64.9 0 1 0.77,0.29 q 0.2,0.27 0.53,0.34 a 0.55,0.54 21.6 0 0 0.59,-0.25 c 1.51,-2.69 3.93,-2.49 6.63,-2.2 q 0.6,0.07 0.91,-0.45 0.79,-1.32 2.11,-2.16 a 1,1 0 0 0 -0.17,-1.78 q -2.18,-0.86 -4.04,-2.52 -0.84,-0.76 -0.02,-1.54 l 0.23,-0.22 a 1.16,1.15 52.9 0 1 1.79,0.25 q 1.02,1.71 2.83,1.68 0.83,-0.02 1.39,0.62 0.64,0.73 1.5,0.38 0.45,-0.19 0.86,0.09 0.7,0.49 1.58,0.58 0.53,0.06 0.95,0.38 l 1.28,0.96 a 0.67,0.67 0 0 0 0.62,0.11 q 0.78,-0.24 0.89,-0.99 0.06,-0.37 -0.1,-0.72 -0.98,-2.26 -1.94,-4.31 a 0.94,0.92 -46.1 0 1 -0.01,-0.79 q 0.6,-1.35 -0.41,-2.44 -0.43,-0.47 -0.52,-1.1 l -0.12,-0.84 A 0.62,0.62 0 0 0 364,136.63 l -2.5,2.99 a 0.14,0.14 0 0 1 -0.24,-0.05 l -0.72,-3.13 q -0.1,-0.41 0.16,-0.74 1.03,-1.34 0.88,-3.22 -0.05,-0.6 0.49,-0.86 0.39,-0.19 0.83,-0.15 0.79,0.08 0.65,-0.71 l -0.13,-0.69 q -0.1,-0.52 0.1,-1.01 1.07,-2.54 -1.86,-3.68 -0.4,-0.15 -0.79,0.03 l -0.65,0.31 q -1,0.48 -0.92,-0.62 0.17,-2.38 -0.99,-4.94 a 0.99,0.99 0 0 0 -1.67,-0.21 q -0.31,0.39 -0.71,0.68 -1.57,1.13 -1.06,-0.74 0.91,-3.34 -1.8,-6 -0.38,-0.37 -0.46,-0.89 -0.26,-1.54 -1.24,-2.61 c -1.29,-1.41 -3.5,-0.94 -4.55,0.56 q -0.56,0.82 -1.23,1.54 -0.59,0.63 -0.59,-0.23 c -0.02,-3.5 -0.25,-6.13 -4.71,-5.45 q -0.64,0.09 -0.56,-0.55 0.21,-1.76 -1.23,-2.78 a 0.7,0.69 -54 0 0 -0.96,0.16 l -1.11,1.52 q -0.23,0.31 -0.58,0.47 -1.79,0.79 -3.47,0.8 -0.5,0 -0.47,0.5 0.11,1.84 0.33,3.48 0.34,2.59 -1.61,0.84 -0.94,-0.85 -0.94,-2.16 a 1.11,1.1 9.7 0 0 -0.74,-1.04 q -0.95,-0.34 -1.77,0.23 -0.48,0.33 -0.49,0.91 l -0.02,0.99 q -0.01,0.53 -0.51,0.37 -2.16,-0.69 -3.76,0.62 -0.47,0.39 -0.81,-0.13 c -0.28,-0.44 -0.86,-0.65 -1.36,-0.53 q -1.46,0.33 -1.49,1.83 a 1.78,1.78 0 0 0 0.39,1.14 q 1.21,1.51 -0.03,3.37 -0.38,0.58 -0.89,0.11 l -1.62,-1.46 a 1.52,1.51 -52.6 0 0 -2.29,0.31 q -0.55,0.85 -1.36,1.46 c -1.59,1.19 -2.46,2.97 -2.77,4.89 a 0.59,0.59 0 0 1 -0.91,0.4 c -1.31,-0.87 -2.91,-0.31 -3.2,1.29 q -0.53,2.9 2.26,4.41 0.54,0.29 0.99,-0.12 0.14,-0.13 0.34,-0.17 a 0.53,0.52 -79.7 0 1 0.55,0.8 l -0.97,1.48 a 1.39,1.37 -35.6 0 0 -0.18,1.05 q 0.31,1.34 1.54,1.54 a 1.57,1.54 -61.8 0 0 1.31,-0.41 q 1.46,-1.36 3.4,-1.08 0.62,0.1 1.21,-0.12 l 4.06,-1.47 q 0.26,-0.1 0.34,0.17 l 0.09,0.28 q 0.07,0.26 -0.19,0.35 c -2.03,0.62 -4.26,1.73 -6.31,1.66 q -2.16,-0.09 -3.72,2.16 a 0.83,0.82 21.2 0 1 -0.81,0.35 q -3.43,-0.54 -3.76,3.24 -0.09,1.04 0.66,1.73 0.44,0.4 0.23,0.95 -0.22,0.6 -0.44,1.25 c -0.49,1.51 0.63,3.03 2.2,2.23 q 0.64,-0.33 1.17,-0.77 0.5,-0.42 0.89,0.1 0.39,0.52 0.96,0.9 0.43,0.28 0.27,0.76 l -0.26,0.76 a 0.42,0.42 0 0 1 -0.79,0.02 l -0.15,-0.36 q -0.22,-0.54 -0.81,-0.54 -0.59,0.01 -0.95,0.46 -0.32,0.41 -0.32,0.99 0.03,2.34 0.42,4.56 0.1,0.52 -0.1,1.01 -0.47,1.2 -0.09,2.43 a 0.94,0.94 0 0 0 1.54,0.4 q 0.49,-0.47 1.12,-0.77 0.49,-0.23 0.99,-0.02 2.28,0.91 3.26,-1.24 0.17,-0.37 0.56,-0.27 c 2.95,0.77 5.4,-1.62 6.08,-4.56 q 0.15,-0.65 0.67,-0.23 0.96,0.79 1.22,1.94 0.16,0.75 -0.57,0.97 -0.64,0.19 -0.78,0.8 -0.13,0.58 0.45,0.67 l 0.77,0.12 q 0.51,0.09 0.76,0.55 0.79,1.45 2.15,0.17 0.92,-0.86 1.75,0.09 0.18,0.2 0.45,0.29 0.52,0.16 0.9,-0.21 l 1.23,-1.19 a 0.45,0.45 0 0 1 0.76,0.26 c 0.8,5.97 0.63,12.59 0.06,18.34 a 0.82,0.82 0 0 1 -0.82,0.74 q -13.43,-0.05 -26.87,-0.09 c -3.74,-0.01 -7.39,1.06 -10.96,0.77 -6.75,-0.53 -13.87,-2.11 -20.76,-1.25 q -6.99,0.87 -14.73,0.76 -0.04,0 -0.04,0.04 v 0.25 q -0.01,0.22 0.22,0.23 20.96,0.74 43.09,1.44 c 3.85,0.12 6.95,1.29 10.57,2.1 q 6.01,1.33 13.39,0.65 0.96,-0.09 1.82,0.24 0.38,0.14 0.76,0.06 2.06,-0.46 4.37,-0.06 0.5,0.09 0.56,0.58 c 0.23,1.87 0.23,4.13 -1.28,5.49 q -2.62,2.35 -4.85,5.13 -2.25,2.81 -5.84,3.15 c -3.78,0.36 -2.85,2.93 -2.92,5.48 q -0.02,0.92 0.58,0.22 l 4.78,-5.54 q 0.34,-0.4 0.84,-0.56 3.08,-0.97 4.79,-3.79 a 0.05,0.05 0 0 1 0.08,-0.02 l 0.23,0.15 q 0.3,0.19 0.11,0.49 -1.81,2.87 -3.3,6.03 -0.45,0.96 -0.14,1.91 0.26,0.79 0.47,-0.01 c 0.42,-1.65 1.58,-2.26 2.32,-3.66 q 1.06,-1.98 2.05,-4 1.38,-2.83 2.15,0.23 1.64,6.48 -4.24,8.92 c -2.79,1.15 -3.77,5.06 -3.38,7.64 a 0.42,0.42 0 0 0 0.36,0.35 l 0.26,0.04 a 0.34,0.33 88.1 0 0 0.37,-0.4 q -0.95,-4.61 3.28,-5.55 c 1.8,-0.4 3.34,1.08 4.97,1.63 q 1.47,0.51 0.53,-0.73 -0.95,-1.26 -2.55,-1.71 a 0.57,0.57 0 0 1 -0.22,-0.97 q 1.68,-1.52 2.87,-3.54 c 0.62,-1.06 2.11,-1.38 2.81,-0.13 q 0.27,0.48 0.1,1 l -2.61,8.01 a 0.38,0.38 0 0 0 0.52,0.47 q 6.19,-2.73 3.09,-8.5 -0.28,-0.52 0.31,-0.48 0.31,0.02 0.52,0.26 c 1.17,1.34 2.52,2.64 2.59,4.56 q 0.06,1.57 0.25,3.2 a 0.51,0.51 0 0 0 0.88,0.3 q 0.92,-0.96 0.65,-2.12 -0.26,-1.09 0.77,-0.65 l 1.23,0.53 q 0.85,0.36 0.3,1.1 l -2.86,3.87 q -0.61,0.83 0.39,0.59 l 3.38,-0.82 a 0.65,0.64 2.3 0 0 0.48,-0.44 c 1.28,-3.94 -0.78,-4.92 -3.45,-6.82 q -0.4,-0.28 -0.45,-0.77 -0.15,-1.42 0.97,-2.58 0.53,-0.54 0.68,0.21 0.23,1.13 1.03,2 0.54,0.59 0.46,-0.21 -0.14,-1.47 -0.57,-2.74 -0.26,-0.8 0.44,-0.34 l 1.77,1.17 q 1.41,0.94 0.71,-0.61 c -0.57,-1.27 -1.91,-2.37 -3.32,-2.61 -2.66,-0.45 -3.57,-2.83 -6.38,-3.19 q -0.86,-0.12 -1.47,-0.75 l -0.75,-0.8 a 0.21,0.21 0 0 1 0.16,-0.35 l 5.5,0.26 q 0.92,0.04 0.18,-0.51 -0.63,-0.46 -1.39,-0.55 c -3.49,-0.4 -7.75,-0.94 -6.76,-5.88 a 0.36,0.36 0 0 1 0.63,-0.17 c 1,1.17 2.35,2.3 3.98,1.87 q 2.84,-0.76 6.54,-0.55 1.74,0.1 0.22,-0.73 -3.76,-2.06 -7.43,-0.65 -0.54,0.21 -0.98,-0.16 l -1.65,-1.33 q -0.85,-0.69 0.25,-0.63 z m -18.84,8.85 q -0.03,0.16 0.03,0.33 0.19,0.49 0.57,0.12 4.25,-4.22 8.32,-8.16 0.23,-0.22 0.17,-0.53 -0.08,-0.41 -0.4,-0.14 -1.82,1.53 -4.18,1.92 c -4.29,0.71 -6.43,4.8 -8.14,8.28 q -0.53,1.08 0.39,0.31 1.47,-1.22 2.88,-2.35 0.5,-0.41 0.36,0.22 z"
       id="path1060"
       style="stroke-width:7.17896" /><path
       fill="#f8ef38"
       d="m 110.05,86.94 q -3.22,1.57 -6.02,3.83 -0.69,0.56 -1.52,0.81 A 0.42,0.41 1.8 0 1 102,91.04 l 2.72,-7.32 q 0.24,-0.65 -0.34,-1.03 l -6.52,-4.26 q -1.94,-1.27 0.37,-1.18 l 7.28,0.29 q 1.46,0.06 1.89,-1.34 l 2.1,-6.94 q 0.25,-0.84 0.67,-0.07 2,3.66 3.37,7.93 a 0.87,0.87 0 0 0 0.87,0.61 c 2.45,-0.12 6.47,-0.94 8.87,-0.13 q 0.81,0.27 0.07,0.69 l -7.16,4.12 a 0.93,0.92 70.3 0 0 -0.45,0.96 q 0.16,0.93 0.35,1.9 c 0.36,1.91 1.63,3.52 2.1,5.49 q 0.13,0.54 -0.42,0.49 c -2.19,-0.21 -4.94,-2.99 -6.79,-4.25 q -0.45,-0.29 -0.93,-0.06 z"
       id="path1062"
       style="stroke-width:7.17896" /><path
       fill="#f8ef38"
       d="m 374.51,82.5 q -3.25,-1.67 -6.4,-3.87 -1.92,-1.35 0.42,-1.34 3.46,0.01 7.04,0.27 a 1.72,1.72 0 0 0 1.72,-1.07 l 2.64,-6.51 q 0.65,-1.62 1.23,0.03 l 2.18,6.26 a 2.1,2.1 0 0 0 2.33,1.38 q 3.38,-0.56 6.23,-0.36 2.98,0.2 0.41,1.72 l -6.01,3.55 q -0.36,0.21 -0.3,0.62 0.6,3.86 2.71,6.69 0.3,0.4 0.1,0.84 -0.26,0.57 -0.85,0.56 -0.48,-0.01 -0.89,-0.28 -3.06,-2 -6.15,-3.79 A 1.73,1.73 0 0 0 379,87.32 l -5.2,3.93 q -1.14,0.86 -1.32,-0.56 -0.1,-0.71 0.3,-1.32 1.58,-2.47 2.17,-5.98 0.1,-0.6 -0.44,-0.89 z"
       id="path1064"
       style="stroke-width:7.17896" /><path
       fill="#020a6c"
       d="m 225.49,101.57 a 0.68,0.68 0 0 1 -0.68,0.68 h -9.24 a 0.68,0.68 0 0 1 -0.68,-0.68 V 86.49 a 0.68,0.68 0 0 1 0.68,-0.68 h 9.24 a 0.68,0.68 0 0 1 0.68,0.68 z M 218,99.23 a 0.43,0.43 0 0 0 0.43,0.43 l 3.05,-0.04 a 0.43,0.43 0 0 0 0.42,-0.42 l 0.07,-10.75 a 0.43,0.43 0 0 0 -0.43,-0.44 l -3.14,-0.05 a 0.43,0.43 0 0 0 -0.44,0.43 z"
       id="path1066"
       style="stroke-width:7.17896" /><path
       fill="#f8ef38"
       d="m 84.3,119.77 a 0.79,0.78 64.7 0 0 -0.33,0.93 l 2.29,6.49 q 0.67,1.9 -1.07,0.87 -2.94,-1.74 -5.71,-3.87 a 1.26,1.24 -39 0 0 -1.31,-0.13 q -3.57,1.77 -6.59,4.37 -0.32,0.28 -0.73,0.19 a 0.57,0.56 -72.3 0 1 -0.4,-0.78 q 1.19,-2.78 2.34,-6.19 0.54,-1.58 -0.94,-2.53 -2.77,-1.75 -5.59,-3.56 -1.63,-1.05 0.31,-1.05 h 7.42 a 1,0.99 -72 0 0 0.81,-0.42 c 1.57,-2.13 1.9,-3.85 2.47,-6.2 q 0.82,-3.44 1.9,-0.07 0.77,2.39 1.85,4.98 c 0.56,1.31 1.52,2.12 3.04,1.85 q 3.03,-0.55 5.92,-0.11 2.21,0.34 0.31,1.52 z"
       id="path1068"
       style="stroke-width:7.17896" /><path
       fill="#f8ef38"
       d="m 417.72,120.88 1.71,4.67 q 1.82,5.02 -2.2,1.51 -2.06,-1.79 -4.61,-2.81 a 2.31,2.3 -55.5 0 0 -2.42,0.45 q -2.54,2.34 -5.26,3.51 a 0.54,0.54 0 0 1 -0.72,-0.69 l 2.36,-6.28 a 1.59,1.59 0 0 0 -0.7,-1.94 l -5.55,-3.17 q -2.23,-1.27 0.32,-1.53 3.17,-0.32 6.44,0.18 1.21,0.19 1.78,-0.9 1.57,-3.05 2.38,-6.73 a 0.92,0.92 0 0 1 1.05,-0.71 q 0.73,0.12 0.86,0.91 c 0.33,2.1 1.33,4.21 1.76,6.42 a 0.98,0.98 0 0 0 1.06,0.79 q 4.25,-0.42 8.75,0.3 a 0.43,0.43 0 0 1 0.19,0.77 q -0.22,0.15 -0.43,0.34 -0.26,0.25 -0.61,0.39 -3.29,1.3 -5.88,3.47 -0.5,0.43 -0.28,1.05 z"
       id="path1070"
       style="stroke-width:7.17896" /><path
       fill="#020a6c"
       d="m 162.93,121.52 a 0.42,0.42 0 0 1 -0.42,0.42 h -3.24 a 0.42,0.42 0 0 1 -0.42,-0.42 v -10.8 a 0.42,0.42 0 0 1 0.42,-0.42 h 3.24 a 0.42,0.42 0 0 1 0.42,0.42 z m -2.88,-5.6 q -0.5,0.39 0.13,0.46 0.54,0.06 1.09,-0.07 0.6,-0.14 0.1,-0.49 -0.63,-0.44 -1.32,0.1 z"
       id="path1072"
       style="stroke-width:7.17896" /><path
       fill="#020a6c"
       d="m 148.36,133.04 a 0.45,0.45 0 0 1 -0.45,0.45 h -3 a 0.45,0.45 0 0 1 -0.45,-0.45 v -10.76 a 0.45,0.45 0 0 1 0.45,-0.45 h 3 a 0.45,0.45 0 0 1 0.45,0.45 z"
       id="path1074"
       style="stroke-width:7.17896" /><path
       fill="#020a6c"
       d="m 212.47,123.05 0.02,10.91 a 0.39,0.39 0 0 1 -0.39,0.39 l -3.26,0.01 a 0.39,0.39 0 0 1 -0.39,-0.39 l 0.03,-10.83 a 0.39,0.39 0 0 1 0.38,-0.39 l 3.21,-0.09 a 0.39,0.39 0 0 1 0.4,0.39 z"
       id="path1076"
       style="stroke-width:7.17896" /><path
       fill="#020a6c"
       d="m 136.8771,142.8014 a 0.49,0.49 0 0 1 -0.4883,0.4917 l -9.6399,0.0337 a 0.49,0.49 0 0 1 -0.4917,-0.4883 l -0.0543,-15.5399 a 0.49,0.49 0 0 1 0.4883,-0.4917 l 9.6399,-0.0337 a 0.49,0.49 0 0 1 0.4917,0.4883 z"
       id="path1078"
       style="stroke-width:7.17896" /><path
       fill="#020a6c"
       d="m 359.6574,127.6372 a 1.78,0.97 -33.9 0 1 -0.9364,1.7979 1.78,0.97 -33.9 0 1 -2.0184,0.1877 1.78,0.97 -33.9 0 1 0.9364,-1.7979 1.78,0.97 -33.9 0 1 2.0184,-0.1877 z"
       id="path1080"
       style="stroke-width:7.17896" /><path
       fill="#020a6c"
       d="m 226.19,143.48 a 0.56,0.56 0 0 1 -0.56,0.56 h -9.56 a 0.56,0.56 0 0 1 -0.56,-0.56 v -15.34 a 0.56,0.56 0 0 1 0.56,-0.56 h 9.56 a 0.56,0.56 0 0 1 0.56,0.56 z m -3.6808,-12.8065 a 0.52,0.52 0 0 0 -0.5191,-0.5209 l -3,-0.005 a 0.52,0.52 0 0 0 -0.5209,0.5191 l -0.0184,10.58 a 0.52,0.52 0 0 0 0.5191,0.5209 l 3,0.005 a 0.52,0.52 0 0 0 0.5209,-0.5191 z"
       id="path1082"
       style="stroke-width:7.17896" /><path
       fill="#020a6c"
       d="m 356.014,132.3998 a 1.06,0.78 18.7 0 1 -1.2541,0.399 1.06,0.78 18.7 0 1 -0.7539,-1.0786 1.06,0.78 18.7 0 1 1.2541,-0.399 1.06,0.78 18.7 0 1 0.7539,1.0786 z"
       id="path1084"
       style="stroke-width:7.17896" /><path
       fill="#020a6c"
       d="m 164.7003,144.2735 a 0.3,0.3 0 0 1 -0.3006,0.2995 l -3.42,-0.006 a 0.3,0.3 0 0 1 -0.2994,-0.3005 l 0.0194,-11.16 a 0.3,0.3 0 0 1 0.3006,-0.2995 l 3.42,0.006 a 0.3,0.3 0 0 1 0.2994,0.3005 z M 162.19,138.24 q 0.08,0.27 -0.15,0.44 -0.23,0.17 -0.04,0.38 0.19,0.22 0.52,0.26 a 0.42,0.41 -70.7 0 0 0.4,-0.2 q 0.5,-0.77 -0.28,-1.22 a 0.31,0.31 0 0 0 -0.45,0.34 z"
       id="path1086"
       style="stroke-width:7.17896" /><path
       fill="#020a6c"
       d="m 351.9792,139.823 a 1.03,0.59 112.3 0 1 -0.1551,-1.1769 1.03,0.59 112.3 0 1 0.9367,-0.7291 1.03,0.59 112.3 0 1 0.1551,1.1769 1.03,0.59 112.3 0 1 -0.9367,0.7291 z"
       id="path1088"
       style="stroke-width:7.17896" /><path
       fill="#020a6c"
       d="m 357.6762,140.9338 a 1.28,0.87 38.9 0 1 -1.5425,-0.1267 1.28,0.87 38.9 0 1 -0.4499,-1.4809 1.28,0.87 38.9 0 1 1.5425,0.1267 1.28,0.87 38.9 0 1 0.4499,1.4809 z"
       id="path1090"
       style="stroke-width:7.17896" /><path
       fill="#020a6c"
       d="m 362.83,142.84 a 0.96,0.96 0 0 1 -0.96,0.96 0.96,0.96 0 0 1 -0.96,-0.96 0.96,0.96 0 0 1 0.96,-0.96 0.96,0.96 0 0 1 0.96,0.96 z"
       id="path1092"
       style="stroke-width:7.17896" /><path
       fill="#020a6c"
       d="m 317.58,143.32 q 0.81,0.37 -0.08,0.32 -1,-0.05 -2,-0.19 -0.83,-0.12 -0.02,-0.32 1.08,-0.27 2.1,0.19 z"
       id="path1094"
       style="stroke-width:7.17896" /><path
       fill="#020a6c"
       d="m 132.54,158.32 v -11.13 a 0.32,0.32 0 0 1 0.32,-0.32 l 3.33,0.03 a 0.32,0.32 0 0 1 0.32,0.32 l 0.02,11.05 a 0.32,0.32 0 0 1 -0.32,0.32 l -3.35,0.05 a 0.32,0.32 0 0 1 -0.32,-0.32 z"
       id="path1096"
       style="stroke-width:7.17896" /><path
       fill="#f8ef38"
       d="m 55.86,158.69 q 1.07,-3.5 2.55,-6.68 1,-2.14 1.7,0.11 l 1.97,6.33 a 1.37,1.37 0 0 0 1.52,0.95 q 4.15,-0.65 8.2,-0.19 0.6,0.06 0.24,0.55 -0.82,1.08 -1.98,1.69 -2.83,1.5 -5.2,3.45 a 0.8,0.79 -30.9 0 0 -0.23,0.9 l 2.45,6.35 a 0.76,0.75 -88.2 0 1 -1.02,0.96 q -1.27,-0.58 -2.1,-1.67 -0.42,-0.54 -1.07,-0.74 -1.99,-0.59 -3.2,-2.18 a 0.68,0.68 0 0 0 -0.95,-0.13 c -2.35,1.76 -4.64,3.87 -7.41,4.96 q -0.69,0.27 -0.43,-0.42 l 2.77,-7.36 q 0.21,-0.54 -0.28,-0.86 l -6.66,-4.47 q -1.42,-0.95 0.28,-1.03 4.04,-0.2 7.83,0.16 0.79,0.08 1.02,-0.68 z"
       id="path1098"
       style="stroke-width:7.17896" /><path
       fill="#f8ef38"
       d="m 431.05,168.53 q -3.03,2.17 -6.44,4.44 -0.3,0.2 -0.66,0.24 -1.07,0.11 -0.65,-0.89 l 2.39,-5.7 q 0.69,-1.64 -0.81,-2.6 l -5.72,-3.64 q -1.61,-1.03 0.29,-1.25 3.02,-0.37 6.21,0.17 2.21,0.37 3,-1.55 1.02,-2.48 2.03,-5.41 0.72,-2.08 1.67,-0.1 1.15,2.4 1.63,5.22 a 2.13,2.12 84.2 0 0 2.15,1.76 c 2.07,-0.07 5.87,-0.78 7.72,0.12 a 0.49,0.49 0 0 1 0.05,0.86 l -6.43,4.08 q -1.04,0.66 -0.55,1.79 l 2.57,6.03 a 0.71,0.71 0 0 1 -0.13,0.76 q -0.45,0.5 -0.9,0.21 -3.19,-2.06 -6.16,-4.5 -0.61,-0.5 -1.26,-0.04 z"
       id="path1100"
       style="stroke-width:7.17896" /><path
       fill="#020a6c"
       d="m 158.38,162.66 q -0.01,0.24 0.02,0.51 0.01,0.1 -0.03,0.01 0,-0.02 0.01,-0.02 0.07,0.02 0.06,-0.05 -0.15,-0.79 -0.06,-1.55 0.05,-0.48 0.48,-0.69 0.15,-0.07 0.31,-0.05 0.34,0.06 0.11,0.32 l -0.51,0.55 q -0.38,0.41 -0.39,0.97 z"
       id="path1102"
       style="stroke-width:7.17896" /><path
       fill="#020a6c"
       d="m 160.18,173.9 0.04,-12.37 a 0.7,0.7 0 0 1 0.87,-0.67 l 2.49,0.65 a 0.7,0.7 0 0 1 0.53,0.68 l -0.1,11.54 a 0.7,0.7 0 0 1 -0.66,0.7 l -2.42,0.17 a 0.7,0.7 0 0 1 -0.75,-0.7 z"
       id="path1104"
       style="stroke-width:7.17896" /><path
       fill="#020a6c"
       d="m 137.0297,172.6665 a 0.32,0.32 0 0 1 -0.3195,0.3206 l -3.36,0.006 a 0.32,0.32 0 0 1 -0.3205,-0.3194 l -0.0194,-11.08 a 0.32,0.32 0 0 1 0.3195,-0.3206 l 3.36,-0.006 a 0.32,0.32 0 0 1 0.3205,0.3194 z M 135.96,167.09 q -0.84,-0.59 -1.74,-0.2 -0.56,0.24 0.04,0.33 0.97,0.15 1.93,-0.14 0.09,-0.03 0.17,0.01 0,0.01 0,0.01 0.07,0.05 -0.01,0.04 -0.13,-0.03 -0.26,-0.01 -0.07,0 -0.13,-0.04 z"
       id="path1106"
       style="stroke-width:7.17896" /><path
       fill="#020a6c"
       d="m 147.75,173.48 -0.02,-11.1 a 0.31,0.31 0 0 1 0.31,-0.31 l 3.35,0.05 a 0.31,0.31 0 0 1 0.31,0.31 l 0.01,11.04 a 0.31,0.31 0 0 1 -0.31,0.31 l -3.34,0.01 a 0.31,0.31 0 0 1 -0.31,-0.31 z"
       id="path1108"
       style="stroke-width:7.17896" /><path
       fill="#020a6c"
       d="m 213.99,175.88 q 0.07,0 0.11,-0.05 0.24,-0.33 0.58,-0.11 0.19,0.11 0.41,0.17 0.9,0.22 -0.02,0.31 -1.35,0.12 -2.49,-0.02 -0.08,-0.01 -0.09,-0.09 -0.03,-0.23 0.11,-0.17 0.29,0.12 0.15,-0.16 -1,-1.85 -0.56,-4.38 0.29,-1.63 0.08,-3.24 -0.24,-1.84 -0.1,-3.68 a 0.92,0.92 0 0 1 1.47,-0.67 q 0.56,0.41 1.11,-0.15 0.62,-0.62 -0.25,-0.51 -1.48,0.19 -2.81,-0.25 -0.9,-0.3 0.04,-0.31 l 3.84,-0.02 q 0.49,-0.01 0.27,0.43 -0.08,0.16 -0.26,0.05 a 0.04,0.04 0 0 0 -0.06,0.05 q 0.65,1.22 0.55,3.22 -0.22,4.12 -0.01,7.31 0.06,0.98 -0.41,1.94 -0.29,0.59 -0.68,0.06 -0.4,-0.52 -1.07,-0.21 -0.96,0.45 0.09,0.48 z m 0.8753,-6.5747 a 0.76,0.48 -6.4 0 0 -0.8088,-0.3923 0.76,0.48 -6.4 0 0 -0.7018,0.5617 0.76,0.48 -6.4 0 0 0.8088,0.3923 0.76,0.48 -6.4 0 0 0.7018,-0.5617 z"
       id="path1110"
       style="stroke-width:7.17896" /><path
       fill="#020a6c"
       d="m 226.7,163.34 -2.46,-0.43 a 1.09,1.09 0 0 0 -1.28,1.17 q 0.36,4.39 -0.12,9.08 -0.02,0.19 -0.21,0.17 h -0.01 q -0.2,-0.01 -0.19,-0.22 0.24,-5.1 0.36,-10.18 0.01,-0.44 0.45,-0.44 l 7.25,0.04 q 0.46,0.01 0.46,0.46 l 0.05,12.66 q 0,0.66 -0.65,0.66 l -6.82,0.06 q -0.52,0 -0.74,-0.47 -0.28,-0.57 -0.19,-1.26 0.07,-0.49 0.35,-0.08 0.15,0.23 0.17,0.49 0.02,0.21 0.15,0.36 0.69,0.79 1.57,0.67 0.64,-0.09 0.47,-0.71 -0.73,-2.66 -0.2,-4.89 0.19,-0.82 0.05,-1.65 -0.38,-2.21 -0.24,-4.55 0.02,-0.36 0.35,-0.6 0.45,-0.34 0.83,0.07 0.28,0.31 0.69,0.01 0.46,-0.32 -0.09,-0.42 z m 1.66,12.43 q 0.87,0.32 1.68,0.09 0.47,-0.14 0.47,-0.63 l -0.04,-11.64 a 0.67,0.67 0 0 0 -0.72,-0.67 q -0.86,0.05 -1.78,0.28 -0.93,0.24 0.02,0.39 0.18,0.03 0.34,0.12 0.47,0.27 0.46,0.81 l -0.02,3.68 q -0.01,0.41 -0.2,0.78 -0.3,0.54 0.08,1.04 a 0.73,0.71 -63.8 0 1 0.14,0.43 l 0.03,4.28 a 0.72,0.71 8.4 0 1 -0.93,0.68 l -1.39,-0.44 q -0.38,-0.11 -0.38,0.28 v 0.48 q 0,0.21 0.21,0.23 0.68,0.06 1.33,-0.18 a 1.05,1.03 -45.4 0 1 0.7,-0.01 z m -1.02,-6.61 q -0.55,-0.37 -1.13,-0.13 a 0.41,0.4 68.5 0 0 -0.22,0.51 q 0.07,0.19 0.22,0.34 0.28,0.29 0.61,0.04 0.18,-0.15 0.42,-0.2 a 0.31,0.31 0 0 0 0.1,-0.56 z"
       id="path1112"
       style="stroke-width:7.17896" /><path
       fill="#020a6c"
       d="m 158.76,174.02 q 0.17,0.2 0.39,0.37 0.65,0.48 -0.16,0.55 -0.26,0.02 -0.4,-0.18 -0.17,-0.24 -0.19,-0.54 -0.18,-3.35 -0.05,-6.47 a 0.06,0.06 0 0 1 0.12,0 l -0.02,5.44 q 0,0.47 0.31,0.83 z"
       id="path1114"
       style="stroke-width:7.17896" /><path
       fill="#020a6c"
       d="m 210.83,175.74 q 0.17,0.25 0.45,0.29 0.7,0.11 0.02,0.27 -0.31,0.08 -0.6,-0.02 -0.59,-0.21 -0.58,-0.83 0.02,-0.94 -0.03,-1.83 -0.01,-0.21 0.2,-0.18 v 0 q 0.18,0.03 0.14,0.2 -0.26,1.16 0.4,2.1 z"
       id="path1116"
       style="stroke-width:7.17896" /><path
       fill="#020a6c"
       d="m 218.01,175.4 q 0.49,-0.33 0.2,0.18 -0.09,0.18 -0.09,0.38 a 0.42,0.41 -8.1 0 1 -0.29,0.38 q -0.18,0.06 -0.38,0.07 -0.73,0 -0.17,-0.46 0.37,-0.31 0.73,-0.55 z"
       id="path1118"
       style="stroke-width:7.17896" /><path
       fill="#020a6c"
       d="m 138.07,192.81 -13.15,0.08 a 0.32,0.32 0 0 1 -0.32,-0.32 v -10.9 a 0.32,0.32 0 0 1 0.32,-0.32 l 13.15,0.02 a 0.32,0.32 0 0 1 0.32,0.32 v 10.8 a 0.32,0.32 0 0 1 -0.32,0.32 z m -2.61,-4.37 q 0.03,-2.95 0.02,-5.77 0,-0.85 -0.35,-0.07 -0.28,0.64 -0.23,1.4 0.22,3.77 0.31,7.59 0.02,1.02 0.29,0.03 0.22,-0.81 0.08,-1.66 -0.13,-0.73 -0.12,-1.52 z m -7.8282,3.1899 a 4.55,0.31 89.6 0 0 0.2782,-4.5521 4.55,0.31 89.6 0 0 -0.3418,-4.5477 4.55,0.31 89.6 0 0 -0.2782,4.5521 4.55,0.31 89.6 0 0 0.3418,4.5477 z"
       id="path1120"
       style="stroke-width:7.17896" /><path
       fill="#020a6c"
       d="m 112.9286,194.9028 a 0.49,0.49 0 0 1 -0.4883,0.4918 l -3.0999,0.0108 a 0.49,0.49 0 0 1 -0.4917,-0.4883 l -0.0373,-10.6799 a 0.49,0.49 0 0 1 0.4883,-0.4918 l 3.0999,-0.0108 a 0.49,0.49 0 0 1 0.4917,0.4883 z M 111.15,189.03 q -0.46,-0.31 -0.96,-0.01 -0.58,0.36 0.05,0.61 0.74,0.3 1.35,-0.42 0.09,-0.1 -0.04,-0.09 -0.05,0 -0.1,0 -0.16,-0.01 -0.3,-0.09 z"
       id="path1122"
       style="stroke-width:7.17896" /><path
       fill="#020a6c"
       d="m 145.89,184.21 q 0,-0.19 0.14,-0.37 0.06,-0.07 0.15,-0.07 0.22,0 0.43,-0.02 0.87,-0.11 0.2,0.46 -0.42,0.36 -0.69,0.83 -0.29,0.5 -0.41,-0.07 -0.06,-0.26 0.1,-0.5 0.08,-0.12 0.08,-0.26 z"
       id="path1124"
       style="stroke-width:7.17896" /><path
       fill="#020a6c"
       d="m 151.32,184.43 q 0.47,0.76 0.46,1.66 -0.08,5.47 -0.07,10.6 0,0.84 0.81,0.64 0.28,-0.07 0.47,-0.25 a 1.72,1.71 -25.9 0 0 0.51,-1.45 q -0.35,-2.87 0.12,-5.57 a 0.03,0.03 0 0 1 0.06,0 q -0.13,3.16 0.17,6.43 a 1.03,1.03 0 0 1 -1.04,1.13 l -6.46,-0.1 q -0.55,-0.01 -0.65,-0.55 -0.1,-0.59 -0.02,-1.21 0.06,-0.41 0.32,-0.09 0.2,0.25 0.12,0.53 -0.14,0.47 0.3,0.68 0.61,0.29 1.21,-0.04 a 0.68,0.67 70.9 0 0 0.34,-0.72 c -0.48,-2.48 0.29,-4.77 -0.08,-7.24 q -0.28,-1.88 0.03,-3.73 0.1,-0.58 0.69,-0.74 a 0.44,0.44 0 0 1 0.55,0.42 q 0,0.24 0.23,0.24 a 0.32,0.31 -8 0 0 0.3,-0.39 q -0.26,-0.95 0.69,-0.9 1.14,0.06 2.5,-0.04 0.67,-0.04 0.64,0.64 -0.09,2.12 -0.07,4.28 0,0.08 -0.08,0.09 -0.01,0 -0.03,0 -0.06,0 -0.05,-0.07 0.12,-1.95 -0.17,-3.82 -0.07,-0.45 -0.5,-0.63 -0.49,-0.21 -1.03,-0.25 -0.58,-0.04 -0.27,0.45 z"
       id="path1126"
       style="stroke-width:7.17896" /><path
       fill="#020a6c"
       d="m 161.05,184.03 q -0.23,0.21 -0.09,0.34 0.99,0.96 2.01,0.26 a 0.75,0.74 72.8 0 1 1.17,0.62 l -0.11,11.71 q 0,0.49 -0.49,0.52 l -4.58,0.21 q -0.61,0.03 -0.63,-0.58 -0.19,-6.38 0.1,-12.75 0.01,-0.06 0.04,-0.11 0.04,-0.05 0.09,-0.03 0.06,0.02 0.05,0.07 -0.29,6.12 -0.07,11.99 0.03,0.84 0.85,1.03 l 0.35,0.07 q 0.69,0.16 0.58,-0.54 -0.32,-2.07 -0.1,-4.25 c 0.25,-2.45 -0.09,-4.64 -0.1,-7.02 q 0,-0.48 0.29,-0.86 0.23,-0.31 -0.05,-0.5 -0.79,-0.52 0.15,-0.41 0.5,0.05 0.97,0.06 0.54,0.01 0.05,0.24 -0.12,0.06 -0.23,-0.06 -0.12,-0.13 -0.25,-0.01 z"
       id="path1128"
       style="stroke-width:7.17896" /><path
       fill="#020a6c"
       d="m 165.93,184.65 c -0.32,-0.33 -0.68,-0.55 -1.13,-0.67 q -0.76,-0.19 -0.05,-0.18 l 1.33,0.02 a 0.11,0.1 2.4 0 1 0.11,0.11 q -0.03,0.31 -0.02,0.62 0,0.35 -0.24,0.1 z"
       id="path1130"
       style="stroke-width:7.17896" /><path
       fill="#020a6c"
       d="m 226.12,186.37 0.24,0.23 q 0.17,0.16 0.33,-0.01 0.8,-0.87 1.65,-0.2 0.4,0.32 0.4,0.83 l -0.01,10.71 q 0,0.62 -0.6,0.72 -0.66,0.11 -1.14,-0.29 a 0.48,0.48 0 0 0 -0.6,0 q -0.66,0.56 -1.17,-0.13 -0.18,-0.24 -0.22,-0.54 -0.23,-1.97 0.03,-3.76 c 0.4,-2.72 -0.55,-5.28 0.21,-7.93 q 0.09,-0.31 -0.24,-0.34 -1.84,-0.17 -2.1,1.11 -0.14,0.72 -0.15,-0.01 -0.01,-0.54 0.15,-1.04 0.18,-0.58 0.79,-0.58 l 6.52,0.05 a 0.77,0.77 0 0 1 0.77,0.77 l -0.01,12.89 a 0.18,0.18 0 0 1 -0.19,0.18 l -0.28,-0.01 q -0.25,-0.02 -0.23,-0.27 0.49,-6.26 0.08,-12.56 -0.04,-0.61 -0.66,-0.59 l -3.32,0.11 q -0.9,0.03 -0.25,0.66 z m 0.76,5.4 q -0.29,-0.21 -0.53,0.01 -0.35,0.33 -0.25,0.8 a 0.46,0.45 70.9 0 0 0.65,0.32 l 0.61,-0.3 q 0.41,-0.2 0.06,-0.49 -0.13,-0.11 -0.3,-0.19 -0.13,-0.07 -0.24,-0.15 z"
       id="path1132"
       style="stroke-width:7.17896" /><path
       fill="#020a6c"
       d="m 212.39,186.19 q 0.19,-0.77 -0.6,-0.66 l -0.33,0.04 a 1.09,1.09 0 0 0 -0.93,0.96 q -0.19,1.62 -0.19,3.55 0,0.08 0.06,0.05 0.01,0 0.01,0 0.06,-0.02 0.05,-0.08 -0.37,-2.05 -0.23,-4.21 0.05,-0.77 0.81,-0.58 0.77,0.21 1.66,0.04 0.64,-0.12 0.85,0.5 0.15,0.46 0.62,0.61 0.33,0.1 0.59,-0.12 0.28,-0.23 0.02,-0.55 -0.13,-0.15 -0.25,0 -0.1,0.13 -0.24,0.15 -0.17,0.02 -0.29,-0.11 -0.09,-0.09 -0.05,-0.26 0.04,-0.14 0.18,-0.14 l 3.47,-0.08 q 0.38,-0.01 0.48,0.36 0.05,0.18 -0.03,0.31 -0.18,0.31 -0.37,0.01 -0.51,-0.78 -1.3,-0.59 -0.43,0.11 -0.43,0.55 l 0.09,11.56 q 0.01,1.42 -1.33,0.95 -0.73,-0.26 -1.37,0.12 a 0.72,0.71 -21.2 0 1 -1.07,-0.47 q -0.53,-2.63 0.19,-5.26 0.12,-0.45 0,-0.89 -0.76,-2.92 -0.07,-5.76 z m 2.2522,5.7454 a 0.62,0.46 -44.5 0 0 -0.7646,0.1065 0.62,0.46 -44.5 0 0 -0.1198,0.7627 0.62,0.46 -44.5 0 0 0.7646,-0.1065 0.62,0.46 -44.5 0 0 0.1198,-0.7627 z"
       id="path1134"
       style="stroke-width:7.17896" /><path
       fill="#020a6c"
       d="m 342.89,194.32 c -1.31,-2.5 -3.53,-2.48 -5.77,-3.66 a 2,1.97 -0.4 0 1 -0.78,-0.76 q -0.6,-1.1 -0.82,-2.45 -0.55,-3.46 1.5,-0.62 1.4,1.93 3.39,2.22 c 2.6,0.38 4.67,2.36 3.48,5.23 a 0.56,0.55 42.5 0 1 -1,0.04 z"
       id="path1136"
       style="stroke-width:7.17896" /><path
       fill="#020a6c"
       d="m 211,198.63 q 0.22,0.13 -0.01,0.25 l -0.28,0.15 q -0.16,0.09 -0.25,-0.08 -0.53,-0.94 -0.26,-1.98 0.02,-0.06 0.08,-0.06 h 0.01 q 0.21,0.02 0.15,0.23 -0.31,0.97 0.56,1.49 z"
       id="path1138"
       style="stroke-width:7.17896" /><path
       fill="#f8ef38"
       d="m 50.35,206.75 q 1.37,-3.08 2.31,-6.03 0.92,-2.87 1.86,-0.01 c 0.75,2.28 1.02,4.96 2.94,6.69 q 0.34,0.31 0.8,0.24 2.97,-0.4 6.34,-0.45 3.49,-0.05 0.52,1.77 l -5.46,3.36 a 1.38,1.38 0 0 0 -0.53,1.78 q 1.31,2.77 1.91,5.54 0.53,2.41 -1.49,1 l -5.28,-3.68 q -0.47,-0.34 -1,-0.09 -3.36,1.56 -5.7,4.2 -0.3,0.34 -0.75,0.33 -0.79,-0.02 -1.08,-0.68 -0.17,-0.38 -0.01,-0.77 l 2.22,-5.61 a 1.81,1.81 0 0 0 -0.71,-2.18 l -6.71,-4.26 q -0.6,-0.38 0.1,-0.47 c 2.86,-0.34 6.04,-0.2 8.82,-0.11 q 0.64,0.02 0.9,-0.57 z"
       id="path1140"
       style="stroke-width:7.17896" /><path
       fill="#f8ef38"
       d="m 436.36,217.04 q -2.99,2.2 -6.14,3.95 -1.53,0.86 -0.94,-0.8 l 2.2,-6.21 q 0.18,-0.49 -0.09,-0.94 -1.05,-1.77 -2.75,-2.45 -2.25,-0.89 -4.33,-2.55 -0.53,-0.42 0.14,-0.49 4.43,-0.49 8.34,0.15 a 1.04,1.04 0 0 0 1.15,-0.7 l 2.34,-7.1 a 0.83,0.83 0 0 1 1.58,0 l 2.04,6.3 a 2.04,2.02 76.4 0 0 2.24,1.38 q 3.99,-0.64 7.06,0.01 2.14,0.46 0.12,1.28 -3.31,1.35 -6.18,3.59 -0.41,0.32 -0.39,0.84 0.12,2.62 0.85,3.84 1.07,1.81 1.13,2.16 0.65,3.82 -2.12,1.1 -1.95,-1.91 -4.91,-3.46 -0.7,-0.37 -1.34,0.1 z"
       id="path1142"
       style="stroke-width:7.17896" /><path
       fill="#020a6c"
       d="m 154.24,270.04 c -7.54,-6.34 -16.58,-8.04 -25.2,-2.29 -3.52,2.34 -6.85,5.52 -10.81,7.02 q -8.43,3.21 -16.63,-1.9 -2.54,-1.57 -5.99,-4.44 c -1.35,-1.13 -3.14,-1.97 -4.81,-2.77 q -0.47,-0.23 -0.64,-0.71 -8.06,-22.57 -8.91,-46.52 a 0.54,0.54 0 0 1 0.54,-0.56 H 248.2 a 0.83,0.82 -90 0 1 0.82,0.83 v 45.55 q 0,0.73 -0.71,0.89 -4.51,1.02 -7.86,4.19 c -7.26,6.86 -17.54,8.75 -25.82,3.31 -2.72,-1.79 -4.97,-4.26 -7.8,-5.73 q -9.94,-5.13 -19.32,-0.29 c -2.88,1.49 -4.89,3.84 -7.54,5.6 q -12.92,8.6 -25.73,-2.18 z"
       id="path1144"
       style="stroke-width:7.17896" /><path
       fill="#020a6c"
       d="m 259.02,312.69 q -0.54,0 -0.54,0.54 l 0.01,3.01 q 0,0.51 0.51,0.51 h 112.05 a 0.52,0.52 0 0 1 0.38,0.87 q -47.39,50.93 -117.17,55.13 a 0.72,0.71 -1.5 0 1 -0.76,-0.71 V 218.26 a 0.37,0.37 0 0 1 0.37,-0.37 l 157.37,-0.02 a 0.44,0.44 0 0 1 0.44,0.44 c -0.67,34.13 -14.13,67.41 -35.74,93.9 a 1.23,1.23 0 0 1 -0.96,0.46 l -16,0.02 a 0.71,0.71 0 0 1 -0.71,-0.71 v -8.33 q 0,-0.87 -0.87,-0.87 l -13.02,0.05 q -0.69,0 -0.69,-0.7 l -0.01,-8.12 a 0.45,0.45 0 0 0 -0.45,-0.45 h -16.27 q -0.6,0 -0.6,-0.6 l -0.01,-39.41 q 0,-0.47 -0.43,-0.67 -0.39,-0.18 -0.82,-0.03 -1.01,0.37 -0.31,-0.45 4.7,-5.49 0.2,-10.55 c -0.96,-1.09 -2.52,-1.62 -3.85,-2.17 q -0.53,-0.21 -0.53,-0.79 l 0.02,-1.34 q 0,-0.81 0.82,-0.82 l 3.05,-0.02 a 0.66,0.65 -2.8 0 0 0.65,-0.71 l -0.06,-0.75 q -0.06,-0.77 -0.84,-0.77 l -3.05,0.01 a 0.54,0.54 0 0 1 -0.54,-0.54 l 0.01,-2.94 q 0.01,-0.93 -0.92,-0.88 l -0.64,0.04 q -0.77,0.05 -0.77,0.81 l -0.03,2.73 q -0.01,0.77 -0.77,0.77 l -2.73,-0.01 q -0.74,-0.01 -0.84,0.72 l -0.08,0.55 q -0.13,0.96 0.85,0.97 l 3.01,0.02 q 0.65,0.01 0.62,0.65 l -0.05,1.58 q -0.02,0.76 -0.76,0.94 -2.12,0.49 -3.43,1.87 -4.58,4.84 -0.02,10.49 0.68,0.85 -0.38,0.63 -0.33,-0.07 -0.64,0.04 -0.47,0.17 -0.47,0.66 l 0.02,39.58 a 0.43,0.42 0 0 1 -0.43,0.42 l -16.15,-0.05 a 0.65,0.65 0 0 0 -0.65,0.65 l 0.01,8.01 a 0.62,0.62 0 0 1 -0.63,0.62 l -13.32,-0.05 q -0.75,0 -0.75,0.76 l 0.02,8.44 q 0.01,0.72 -0.71,0.72 z"
       id="path1146"
       style="stroke-width:7.17896" /><path
       fill="#020a6c"
       d="m 161.99,289.75 c -10.79,-5.91 -22.33,-4.67 -31.96,3.15 -4.67,3.8 -8.6,8.21 -14.57,2.56 q -6.84,-6.47 -14.88,-8.46 -0.71,-0.17 -1.04,-0.82 L 95.93,279 q -0.69,-1.37 0.53,-0.44 11.33,8.6 25.2,3.31 c 7.76,-2.96 12.17,-11.89 21.8,-9.36 3.82,1 7.99,4.69 11.54,7.1 10.95,7.45 23.01,4.48 32.57,-3.78 6.27,-5.42 12.8,-4.65 18.76,0.13 3.96,3.18 8.11,6.11 13.09,7.12 q 14.2,2.88 23.75,-6.38 c 1.5,-1.45 3.26,-2.35 5.17,-3.11 q 0.64,-0.26 0.65,0.44 l 0.04,12.44 q 0,0.66 -0.64,0.82 -6.61,1.61 -13.25,8.03 c -4.13,4 -8.43,3.54 -12.19,-0.2 -7.87,-7.83 -18.49,-10.99 -28.86,-7.84 -5.22,1.59 -9.53,4.77 -13.5,8.47 -5.17,4.81 -9.32,1.61 -13.57,-2.49 q -1.83,-1.76 -5.03,-3.51 z"
       id="path1148"
       style="stroke-width:7.17896" /><path
       fill="#020a6c"
       d="m 173.51,314.45 c -5.71,-6.17 -13.3,-7.98 -20.16,-2.24 -5.87,4.91 -10.34,10.79 -18.95,7.17 q -2.15,-0.9 -3.97,-2.45 c -4.5,-3.84 -9.5,-6.76 -15.19,-7.87 a 2.19,2.16 -13.1 0 1 -1.27,-0.78 q -3.69,-4.66 -6.64,-9.14 -1.76,-2.67 0.66,-0.59 c 6.46,5.57 11.69,10.43 20.64,4.91 2.61,-1.61 4.65,-4.05 7.33,-5.69 8.73,-5.36 19.49,-4.86 27.45,2.07 7.4,6.44 14.31,9 21.82,1.49 q 2.21,-2.21 5.52,-4.07 11.01,-6.16 22.07,-0.47 3.2,1.65 5.37,3.72 c 6.11,5.82 12.69,7.66 20.09,1.68 3.21,-2.6 5.82,-5.77 10.08,-6.75 q 0.67,-0.15 0.67,0.53 l -0.04,13 q 0,0.68 -0.6,1 -2.94,1.55 -5.04,4.19 -2.44,3.05 -6.79,5 c -5.08,2.28 -9.56,1.25 -13.68,-2.03 -2.78,-2.22 -4.7,-4.98 -7.95,-6.65 -6.37,-3.28 -12.9,-1.63 -17.43,3.53 -7.31,8.33 -16.42,8.62 -23.99,0.44 z"
       id="path1150"
       style="stroke-width:7.17896" /><path
       fill="#020a6c"
       d="m 175.76,325.1 c 8.25,6.11 17.92,2.95 24.23,-4.01 q 2.26,-2.49 4.96,-3.75 c 7.51,-3.51 12.06,5.5 17.55,8.46 q 10.28,5.54 19.81,-0.99 c 2.38,-1.63 3.85,-4.22 6.12,-6.09 a 0.36,0.36 0 0 1 0.58,0.28 l 0.02,17.74 q 0,0.63 -0.57,0.9 -4.56,2.09 -8.22,5.71 c -2.5,2.46 -5.36,2.2 -7.75,-0.06 -6.81,-6.48 -14.86,-8.77 -23.44,-4.06 -3.86,2.12 -8.02,8.95 -12.89,4.16 -7.02,-6.93 -16.86,-9.23 -25.1,-3.16 -2.99,2.2 -6.81,7.32 -10.94,3.47 -3.49,-3.25 -10.06,-4.8 -14.78,-5.56 q -1.9,-0.3 -3.46,-1.54 -6.6,-5.26 -11.73,-10.29 -0.66,-0.65 0.23,-0.42 c 1.05,0.27 1.93,1.1 2.99,1.48 6.75,2.36 13.81,0.29 18.91,-4.72 1.92,-1.89 3.92,-4.13 6.42,-5.21 q 5.48,-2.37 10.06,1.85 3.48,3.21 7,5.81 z"
       id="path1152"
       style="stroke-width:7.17896" /><path
       fill="#020a6c"
       d="m 238.62,350.04 q 3.14,-0.98 6.13,-4.1 1.71,-1.79 3.87,-2.28 a 0.32,0.32 0 0 1 0.39,0.31 l 0.02,28.32 a 0.52,0.52 0 0 1 -0.51,0.52 q -45.93,0.31 -85.15,-21.76 -0.8,-0.45 0.11,-0.57 c 3.99,-0.53 5.66,-2.26 8.6,-4.64 5.69,-4.59 14.01,-4.69 19.62,0.25 3.01,2.65 6.59,5.32 10.71,4.06 2.43,-0.73 4.07,-2.68 6.02,-4.25 5.83,-4.66 13.11,-4.61 19.03,-0.29 3.46,2.52 6.23,5.97 11.16,4.43 z"
       id="path1154"
       style="stroke-width:7.17896" /><path
       fill="#020a6c"
       d="m 108.59,359.75 c -2.47,5.32 -12.77,4.4 -17.52,3.76 q -10.85,-1.47 -21.58,-2.83 c -11.36,-1.44 -29.11,-1.56 -29.18,14.97 q -0.09,18.47 0,36.21 a 0.73,0.72 88.3 0 1 -0.68,0.73 q -5.17,0.33 -9.99,-0.27 -0.68,-0.08 -0.68,-0.77 l -0.01,-54.6 q 0,-0.59 0.59,-0.55 9.89,0.64 21.2,-0.84 14.71,-1.92 26.26,-3.64 12.43,-1.85 23.44,-1.21 c 4.68,0.27 10.97,2.95 8.15,9.04 z"
       id="path1156"
       style="stroke-width:7.17896" /><path
       fill="#020a6c"
       d="m 452.76,376.85 c 0.03,-10.67 -6.09,-15.88 -16.43,-16.52 q -7.37,-0.46 -14.76,0.58 -11.67,1.63 -21.78,2.8 -5.42,0.63 -10.44,-0.35 -5.04,-0.99 -5.51,-5.83 c -0.6,-6.31 7.96,-7.07 12.42,-7.08 q 8.73,0 17.23,1.17 13.42,1.85 26.84,3.74 12.18,1.7 23.38,1.06 0.35,-0.02 0.35,0.34 v 54.96 a 0.59,0.59 0 0 1 -0.52,0.59 q -4.99,0.6 -10.13,0.28 -0.65,-0.04 -0.65,-0.7 -0.03,-16.91 0,-35.04 z"
       id="path1158"
       style="stroke-width:7.17896" /><path
       fill="#020a6c"
       d="m 108.87,365.39 a 0.23,0.23 0 0 1 0.33,0.21 l -0.01,15.45 a 0.42,0.41 -6.1 0 1 -0.33,0.4 c -15.66,3.19 -32.28,5.97 -48.05,5.07 -8.1,-0.46 -18.94,-3.02 -16.32,-14.04 1.65,-6.93 8.65,-8.6 14.91,-8.58 13.22,0.03 27.18,3.62 39.61,3.83 q 4.53,0.07 9.86,-2.34 z"
       id="path1160"
       style="stroke-width:7.17896" /><path
       fill="#020a6c"
       d="m 445.23,367.12 q 4.52,3.71 3.42,11 c -1.55,10.29 -26.23,8.87 -34.05,8.1 q -15.74,-1.57 -30.23,-4.79 -0.54,-0.12 -0.54,-0.67 l -0.01,-14.99 a 0.38,0.38 0 0 1 0.58,-0.32 c 4.77,2.98 12.99,2.58 19.08,1.69 q 14.9,-2.18 26.7,-3.22 c 4.57,-0.4 11.41,0.2 15.05,3.2 z"
       id="path1162"
       style="stroke-width:7.17896" /><path
       fill="#020a6c"
       d="m 103.77,442.21 c -10.25,1.91 -59.9,11.78 -59.79,-6.82 q 0.16,-26.1 0.02,-49.51 0,-0.98 0.8,-0.41 c 7.2,5.17 18.39,5.49 27.5,4.98 q 14.34,-0.81 25.95,-3.18 c 23.32,-4.75 47.83,-5.04 71.25,-3.7 q 24.29,1.4 50.5,3.07 28.72,1.83 62.29,-0.53 c 26.11,-1.83 50.73,-3.71 74.98,-3.05 q 14.31,0.39 24.49,2.03 10.6,1.71 21.2,3.53 13.34,2.29 27.73,1.79 c 6.11,-0.21 12.91,-1.45 17.77,-5.12 a 0.34,0.34 0 0 1 0.54,0.27 q -0.09,23.68 0.04,49.6 c 0.03,7.47 -6.79,9.58 -12.82,10.62 q -3.86,0.66 -7.25,0.69 -16.29,0.13 -30.46,-2.64 -18.59,-3.64 -34.66,-4.53 -18.17,-1 -41.07,0.33 -25.04,1.47 -48.91,2.96 c -19.32,1.2 -38.38,1.1 -57.62,-0.13 q -20.85,-1.32 -41.25,-2.59 -20.92,-1.29 -38.5,-0.85 c -10.77,0.26 -21.77,1.14 -32.73,3.19 z m 38.76,-21.6 C 128.5,425 128.98,403.72 142.14,407.99 a 0.65,0.64 16.3 0 0 0.83,-0.45 l 0.67,-2.61 a 0.61,0.61 0 0 0 -0.42,-0.74 c -7.59,-2.22 -15.49,0.91 -16,9.6 -0.57,9.72 7.92,13.1 16.01,10.55 q 0.27,-0.08 0.21,-0.36 l -0.6,-3.19 q -0.05,-0.26 -0.31,-0.18 z m 8.79,-16.35 a 0.44,0.44 0 0 0 -0.44,-0.44 h -3.86 a 0.44,0.44 0 0 0 -0.44,0.44 v 20.1 a 0.44,0.44 0 0 0 0.44,0.44 h 3.86 a 0.44,0.44 0 0 0 0.44,-0.44 z m 4.04,0.57 -0.04,18.96 a 1.15,1.15 0 0 0 1.15,1.16 l 7.1,0.01 a 10.25,9.63 0.1 0 0 10.27,-9.61 v -2 a 10.25,9.63 0.1 0 0 -10.23,-9.65 l -7.1,-0.01 a 1.15,1.15 0 0 0 -1.15,1.14 z m 26.39,14.95 a 0.43,0.43 0 0 1 0.41,-0.31 l 5.36,-0.02 a 0.43,0.43 0 0 1 0.42,0.31 l 1.32,4.7 a 0.43,0.43 0 0 0 0.41,0.31 l 4.3,0.03 a 0.43,0.43 0 0 0 0.41,-0.56 l -6.29,-20.09 a 0.43,0.43 0 0 0 -0.4,-0.3 l -5.54,-0.04 a 0.43,0.43 0 0 0 -0.41,0.31 l -6.19,20.11 a 0.43,0.43 0 0 0 0.41,0.56 l 4.06,-0.01 a 0.43,0.43 0 0 0 0.42,-0.31 z m 15.49,-14.86 v 18.78 a 1.22,1.22 0 0 0 1.22,1.22 h 6.94 a 10.34,9.78 0 0 0 10.34,-9.78 v -1.66 A 10.34,9.78 0 0 0 205.4,403.7 h -6.94 a 1.22,1.22 0 0 0 -1.22,1.22 z m 26.89,7.15 a 0.52,0.52 0 0 1 -0.52,-0.51 l -0.07,-3.27 a 0.52,0.52 0 0 1 0.52,-0.53 l 7.18,-0.01 a 0.52,0.52 0 0 0 0.52,-0.52 l 0.01,-2.87 a 0.52,0.52 0 0 0 -0.52,-0.52 l -11.91,0.04 a 0.52,0.52 0 0 0 -0.52,0.52 l -0.01,19.87 a 0.52,0.52 0 0 0 0.52,0.52 l 12.41,-0.01 a 0.52,0.52 0 0 0 0.52,-0.52 l -0.03,-2.86 a 0.52,0.52 0 0 0 -0.51,-0.51 l -7.6,-0.02 a 0.52,0.52 0 0 1 -0.51,-0.51 l -0.04,-3.88 a 0.52,0.52 0 0 1 0.52,-0.52 l 6.68,-0.04 a 0.52,0.52 0 0 0 0.51,-0.51 l 0.02,-2.85 a 0.52,0.52 0 0 0 -0.52,-0.52 z m 17.47,-7.21 v 18.9 a 1.15,1.15 0 0 0 1.15,1.15 h 7.04 a 10.37,9.9 0 0 0 10.37,-9.9 v -1.4 a 10.37,9.9 0 0 0 -10.37,-9.9 h -7.04 a 1.15,1.15 0 0 0 -1.15,1.15 z m 32.07,14.59 a 0.43,0.43 0 0 1 0.41,0.3 l 1.48,4.72 a 0.43,0.43 0 0 0 0.4,0.3 l 4.21,0.02 a 0.43,0.43 0 0 0 0.42,-0.56 l -6.26,-20.13 a 0.43,0.43 0 0 0 -0.41,-0.3 l -5.53,0.02 a 0.43,0.43 0 0 0 -0.41,0.3 l -6.19,20.12 a 0.43,0.43 0 0 0 0.42,0.56 l 4.11,-0.04 a 0.43,0.43 0 0 0 0.42,-0.32 l 1.24,-4.63 a 0.43,0.43 0 0 1 0.42,-0.32 z m 21.55,-2.08 c 5.18,0.36 9.38,-1.64 9.55,-7.07 0.24,-7.68 -10.04,-7 -14.61,-6.25 a 0.49,0.48 85.1 0 0 -0.4,0.48 v 19.52 q 0,0.79 0.79,0.78 l 3.18,-0.04 q 0.76,-0.01 0.77,-0.77 l 0.01,-5.98 a 0.67,0.67 0 0 1 0.71,-0.67 z m 24.88,-2.91 c 4.65,-3.32 3.05,-9.75 -2.69,-10.5 q -4,-0.52 -8.92,0 a 0.83,0.82 -3.1 0 0 -0.74,0.82 v 19.5 a 0.53,0.52 0 0 0 0.53,0.52 l 3.71,-0.02 q 0.52,0 0.52,-0.52 v -6.76 a 0.9,0.9 0 0 1 0.79,-0.89 c 4.19,-0.58 4.22,4.83 5.04,7.5 a 0.96,0.95 -8.7 0 0 0.91,0.66 l 3.53,0.02 q 0.58,0 0.49,-0.58 -0.89,-5.49 -3.3,-9 -0.3,-0.44 0.13,-0.75 z m 11.08,5.35 a 0.43,0.43 0 0 1 0.41,-0.32 l 5.29,-0.06 a 0.43,0.43 0 0 1 0.41,0.31 l 1.48,4.74 a 0.43,0.43 0 0 0 0.41,0.3 l 4.25,0.02 a 0.43,0.43 0 0 0 0.41,-0.56 l -6.31,-20.13 a 0.43,0.43 0 0 0 -0.41,-0.3 l -5.54,0.02 a 0.43,0.43 0 0 0 -0.41,0.3 l -6.16,20.12 a 0.43,0.43 0 0 0 0.42,0.55 l 4.11,-0.04 a 0.43,0.43 0 0 0 0.41,-0.32 z m 20.31,-15.49 a 0.51,0.51 0 0 0 -0.51,-0.51 h -3.72 a 0.51,0.51 0 0 0 -0.51,0.51 v 19.96 a 0.51,0.51 0 0 0 0.51,0.51 h 3.72 a 0.51,0.51 0 0 0 0.51,-0.51 z m 14.58,15.1 a 0.43,0.43 0 0 1 0.41,0.31 l 1.42,4.74 a 0.43,0.43 0 0 0 0.41,0.31 l 4.25,-0.01 a 0.43,0.43 0 0 0 0.41,-0.56 l -6.26,-20.06 a 0.43,0.43 0 0 0 -0.4,-0.3 l -5.55,-0.07 a 0.43,0.43 0 0 0 -0.41,0.31 l -6.21,20.16 a 0.43,0.43 0 0 0 0.42,0.55 l 4.1,-0.05 a 0.43,0.43 0 0 0 0.41,-0.31 l 1.28,-4.63 a 0.43,0.43 0 0 1 0.41,-0.31 z"
       id="path1164"
       style="stroke-width:7.17896" /><path
       fill="#020a6c"
       d="m 160.14,408.12 a 0.81,0.81 0 0 1 0.82,-0.8 l 1.71,0.02 a 6.18,6.13 0.6 0 1 6.12,6.2 l -0.02,1.64 a 6.18,6.13 0.6 0 1 -6.24,6.06 l -1.71,-0.02 a 0.81,0.81 0 0 1 -0.8,-0.82 z"
       id="path1166"
       style="stroke-width:7.17896" /><path
       fill="#020a6c"
       d="m 202.02,408.09 a 0.8,0.8 0 0 1 0.81,-0.79 l 1.63,0.01 a 6.31,6.28 0.4 0 1 6.26,6.32 v 1.38 a 6.31,6.28 0.4 0 1 -6.36,6.24 l -1.63,-0.02 a 0.8,0.8 0 0 1 -0.79,-0.8 z"
       id="path1168"
       style="stroke-width:7.17896" /><path
       fill="#020a6c"
       d="m 246.31,408.14 a 0.81,0.81 0 0 1 0.81,-0.81 h 1.77 a 6.59,6.28 90 0 1 6.28,6.59 v 0.74 a 6.59,6.28 90 0 1 -6.28,6.59 h -1.77 a 0.81,0.81 0 0 1 -0.81,-0.81 z"
       id="path1170"
       style="stroke-width:7.17896" /><path
       fill="#020a6c"
       d="m 294.49,408.19 a 0.89,0.89 0 0 1 0.89,-0.89 h 1.06 a 3.59,3 0 0 1 3.59,3 v 0.42 a 3.59,3 0 0 1 -3.59,3 h -1.06 a 0.89,0.89 0 0 1 -0.89,-0.89 z"
       id="path1172"
       style="stroke-width:7.17896" /><path
       fill="#020a6c"
       d="m 312.5,408.15 a 0.88,0.88 0 0 1 0.89,-0.88 h 1.39 a 3.23,2.78 0.1 0 1 3.22,2.78 v 0.32 a 3.23,2.78 0.1 0 1 -3.24,2.78 h -1.39 a 0.88,0.88 0 0 1 -0.87,-0.88 z"
       id="path1174"
       style="stroke-width:7.17896" /><path
       fill="#020a6c"
       d="m 182.67,415.45 1.8,-6.7 a 0.32,0.32 0 0 1 0.61,-0.01 l 1.84,6.7 a 0.32,0.32 0 0 1 -0.3,0.4 l -3.64,0.01 a 0.32,0.32 0 0 1 -0.31,-0.4 z"
       id="path1176"
       style="stroke-width:7.17896" /><path
       fill="#020a6c"
       d="m 332.13,415.44 1.82,-6.55 a 0.31,0.31 0 0 1 0.6,0 l 1.82,6.55 a 0.31,0.31 0 0 1 -0.3,0.39 h -3.64 a 0.31,0.31 0 0 1 -0.3,-0.39 z"
       id="path1178"
       style="stroke-width:7.17896" /><path
       fill="#020a6c"
       d="m 361.26,415.44 1.86,-6.51 a 0.31,0.31 0 0 1 0.59,0 l 1.81,6.52 a 0.31,0.31 0 0 1 -0.3,0.39 l -3.66,-0.01 a 0.31,0.31 0 0 1 -0.3,-0.39 z"
       id="path1180"
       style="stroke-width:7.17896" /><path
       fill="#020a6c"
       d="m 268.93,415.41 1.73,-6.57 a 0.37,0.37 0 0 1 0.71,0 l 1.78,6.55 a 0.37,0.37 0 0 1 -0.36,0.47 l -3.5,0.01 a 0.37,0.37 0 0 1 -0.36,-0.46 z"
       id="path1182"
       style="stroke-width:7.17896" /></g></svg>
