<svg xmlns="http://www.w3.org/2000/svg" viewBox="0 0 400 266.7" fill-rule="evenodd" xmlns:v="https://vecta.io/nano"><path d="M160.9 39.2c-3.5 1-5.5 1.9-7.7 3.6-1.1.8-3.8 3.3-4.4 4.1-.4.6-.9 1.1-1.1 1.3-.2.1-.8.9-1.3 1.7s-1.1 1.6-1.3 1.8-.4.7-.6 1.1l-.7 1.4c-.2.4-1.1 1.8-1.9 3.2a48.9 48.9 0 0 1-2.7 4.1l-1.9 2.7-1 1.4c-.2.2-1 1.2-1.9 2.4-1.3 1.7-6.1 6-6.7 6-.1 0-.5.3-1 .6-.8.6-1.9 1.2-5.6 3.4l-6 3.5-3.4 2.1c-2.5 1.6-5.8 4.6-7 6.3-.1.1-.5.7-.9 1.2-1.4 1.8-2.8 5.3-3.5 8.3-.3 1.2-.2 8.5.1 9.9l1.6 6.2c.4.7 1.9 7 1.9 7.9 0 .4.3 1.8.6 3.2.5 2 .6 3.3.6 7.1 0 4.8-.1 5.4-1.6 11.2l-.7 2.9c-.2.8-.5 2.1-.8 2.9-2.3 7.9-2.8 15.8-1.2 20.1.7 1.8 2.1 4.7 2.6 5.3.3.3.5.7.5.9 0 .6 4.9 5.3 6.3 6.2.5.3.9.6.9.7s.2.2.3.2c.2 0 .6.2.9.5s.7.5.8.5c.2 0 7.1 3.9 8.1 4.5.4.2 1.3.9 2.2 1.4.8.5 1.6 1.1 1.8 1.4.2.2.5.4.6.4.3 0 .6.2 4.4 3.2 3.5 2.8 6.8 6.8 9.3 11.8.2.4.5.9.8 1 .2.2.4.4.4.6 0 .1.3.7.7 1.4 1 1.6 2 3.1 2.6 4.2 8 13 18.4 17 32.9 12.8 3.8-1.1 4.8-1.4 7.6-1.9 10.9-2.1 15.8-2.2 21.7-.6l2.7.7c.7.1 2 .5 2.9.8 1 .3 2.3.6 3.1.7s2.1.5 3.1.7c7.5 1.8 11 2 15.7.7a37.5 37.5 0 0 0 4.1-1.4c.7-.4 1.8-.9 2.3-1.2 1.3-.7 4.7-3.6 6-5.1.6-.7 1.2-1.4 1.3-1.6.5-.5 3.2-4.8 4.2-6.6.5-1 1.1-2 1.3-2.3 1.9-3.1 3.7-5.6 5.4-7.8.6-.8 1.7-2.3 2.6-3.3 1.5-1.9 4.6-4.8 5.3-4.8.2 0 .3-.1.3-.2s.4-.4.9-.7c.5-.2 1.3-.8 1.9-1.2s1.5-1 2.1-1.3a22.47 22.47 0 0 0 2.1-1.2c.6-.4 1.4-.8 1.9-1.1.5-.2 1-.5 1.2-.7s.8-.6 1.3-.8c.5-.3 1.4-.8 2-1.1.6-.4 1.5-.9 2-1.2s1.1-.7 1.3-.9.5-.4.6-.4c.7 0 5.9-4.9 7.2-6.8 3.4-4.7 4.9-13.1 3.4-18.8-.3-1.1-.5-2.2-.5-2.5s-.2-1.2-.5-2.2c-1.6-5.3-1.9-6.2-1.9-6.9 0-.4-.2-1.4-.4-2.3a55.67 55.67 0 0 1-.8-4.9c-.2-1.8-.5-3.9-.7-4.7-.2-.7-.2-1.5-.1-1.7s.4-1.9.7-3.8c.5-3.5.9-5.3 2.1-9 .3-1.2.6-2.4.6-2.7s.2-1.2.5-2 .5-1.7.5-2 .3-1.6.6-2.7c.8-2.8.9-10.9.2-12.3-.2-.4-.5-1.3-.6-1.8-.7-3.8-5.6-9.8-10.5-12.8-.2-.1-.8-.5-1.2-.8s-1-.6-1.2-.7-1-.5-1.7-1c-.7-.4-1.8-1-2.4-1.3-2.2-1.2-5.4-3.2-7.8-5.1-.9-.7-1.9-1.4-2.3-1.7-2.7-1.9-6.2-5-6.2-5.4 0-.1-.5-.9-1.2-1.7s-1.6-2.2-2.1-3-1-1.7-1.1-1.8c-.4-.5-1.4-2.1-2.2-3.5-.4-.7-1.3-2.1-1.9-3.1s-1.5-2.3-2-3.1c-1.1-1.8-1.9-2.9-2.7-3.8-1.4-1.6-3.2-3.4-4.2-4.2-.5-.4-1.2-1-1.5-1.3s-.8-.5-1.1-.6a4.67 4.67 0 0 1-1-.5c-2.3-1.9-10.9-3.3-15.6-2.5-.9.2-2.4.4-3.3.5s-2 .4-2.4.6-1.2.4-1.9.5c-.6.1-1.9.4-2.8.7-10.3 3.1-19.6 3.1-30.7 0-1-.3-2.4-.6-3.1-.8s-1.9-.4-2.7-.7c-.8-.2-1.8-.4-2.1-.4-.4 0-1.3-.2-2-.4-2.6-.8-9.1-.7-12.3.2m67.4 5.6c8 1.1 10.1 2.4 15.5 9.3.8 1 2.6 3.8 4.4 6.8.9 1.5 2 3.3 2.5 4s1.4 1.9 1.9 2.7c4 5.7 4 4.8-.7 9.4l-8.8 8.6c-5.9 5.8-6 5.9-7.7 4.7-.7-.4-1.2-.9-1.2-1s-.3-.3-.6-.5c-1.4-.6-3.9-2.9-3.9-3.6 0-1.5 1.6-3.7 2.9-3.8 2.5-.3 2.9-.4 3.8-1 2-1.4 1.4-4.2-1.8-8.5l-2.9-4c-1.1-1.5-2.4-3.3-2.8-4l-.9-1.2-3 .3c-1.6.1-3.8.3-4.9.6-1.2.2-3.4.6-4.9.7-1.5.2-3.2.5-3.7.7s-1.2.4-1.6.4c-2.6 0-3.6 4-1.6 5.9 1.7 1.6 1.9 2.1 1.4 3.4-.7 1.9-1.4 2.7-2.2 2.6-.4-.1-2.1-.3-3.7-.5-1.7-.2-3.1-.5-3.3-.6s-.3-4.9-.3-12.8V50.7l.6-.4c.3-.2 1.9-.6 3.5-.8s3.5-.6 4.2-.8 1.6-.4 2-.4c.3 0 1.3-.2 2.2-.5 7.8-2.6 12.4-3.5 15.6-3m-55.9.6c1.3.2 3.1.6 4 .9.9.2 2.3.6 3.2.8l3.2.7c3.6.9 6.8 1.5 8.6 1.7 1.6.1 2.1.3 2.6.8l.6.6v9.5c0 5.2.1 10.7.2 12.1.2 3.3-.1 3.8-3 4.1-1 .1-2.4.4-3 .6-3 .9-4 .4-4.9-2.2l-.5-1.5 1.3-1.8c2.3-3.1 1.5-5.8-1.8-6.3-.5-.1-1.6-.3-2.3-.5s-2.4-.5-3.6-.7l-3.9-.7c-.9-.2-2.7-.4-4-.5h-2.3l-1.4 1.6c-.7.9-1.5 1.9-1.8 2.2s-1 1.4-1.8 2.4c-2.8 3.6-4.9 6.6-5.2 7.4-.1.4-.4.9-.5 1.1-1.5 1.6 1 4.2 4.3 4.4l2 .1.7 1.2c1.3 2.2 1.1 2.8-1.6 4.8-.5.4-1.2.9-1.6 1.2s-1.1.8-1.6 1c-1.1.6.4 1.9-13.5-11.7-6.4-6.3-6.3-6.1-4.5-8.5 2.3-2.9 4.2-5.9 5.7-8.6l3.1-5.4c1.8-3.1 4.8-6.4 7.1-7.9 2-1.3 4.4-2.5 5.7-2.8.7-.2 1.3-.5 1.4-.6.3-.2 6.3 0 9.1.5m-28.3 40.3c10.3 10.1 9.8 9.3 7.7 12.1-4.1 5.4-3.8 5.3-7 3.7l-1.4-.7-.1-2c-.3-3.9-3.1-5.2-6.3-3-.4.3-1.4.9-2.2 1.4s-2.5 1.7-3.8 2.6-2.4 1.6-2.5 1.6c-.6 0-4.1 3.1-4.1 3.6 0 1.2.6 5.7.9 7.5.2 1 .5 2.7.6 3.7.8 7.8 3.7 10.4 7.6 6.8 1.6-1.5 1.5-1.5 3.7-.8 2.1.7 2.2 1.1 1.7 4.1l-.5 3.2c-.3 1.8.2 1.7-13.2 1.7-14.5 0-13.7.1-14.1-2.5-.2-1.1-.4-2.5-.6-3.1-.2-.7-.5-2.1-.7-3.2s-.5-2.5-.7-3.1c-.9-2.5-2-6.5-2-7.1 0-.4-.1-.8-.2-.9-1-1.1-1-10.4 0-11.4.1-.1.2-.6.2-.9 0-3.1 4.3-7.8 10.7-11.7a60.04 60.04 0 0 0 2.9-1.8l2.4-1.4c1.7-.9 2.7-1.5 5.6-3.4 3.6-2.4 3.4-2.2 4.4-3.1 1.5-1.3 1.6-1.2 11 8.1m119.7-6.4c4.2 2.8 4.1 2.7 5.6 3.5.7.4 1.3.8 1.4.9.1.2.3.3.6.3.4 0 3.5 1.7 7.2 3.9 4 2.5 8.2 7.5 9.2 11.1.2.6.4 1.2.5 1.4.9 1.2 0 9-1.7 15.6-1.5 5.7-2.5 9.9-2.7 12.2-.1 1.3-.3 1.9-.8 2.3l-.6.6h-12.6c-15.2 0-13.6.5-14.2-4.4-.2-1.9-.5-3.5-.6-3.7-1.1-1.7 4-3.3 5.8-1.7 3.6 3.3 6.3 1.8 7.4-4.2 1-6 1.2-7.1 1.7-9.3.8-3.4.2-4.1-6-8.5l-3.2-2.3c-5.9-4.7-10-4.6-10 .2 0 2.3-.1 2.4-2.1 3.4-1.6.8-2.5.7-3.3-.3-.4-.5-.9-1.1-1.3-1.5-.3-.3-.6-.7-.6-.8s-.4-.6-.8-1.1c-1.3-1.5-1.1-2.4.9-4.3l15.8-15.3c.8-.4.9-.4 4.4 2m-62.5 10.8c2.9.2 4.4.5 8.8 1.6.5.1 1.8.6 2.8.9l2.8 1.1c1 .4 5.9 3.1 6.1 3.3.1.1.4.3.8.5 3.8 2 10.3 8.8 13.4 13.9 5.2 8.6 7 18 5.8 29.1-.1 1.2-.3 2.4-.4 2.5s-.4 1.1-.7 2.2c-.8 2.8-1.5 4.8-2.8 7.6-1.8 3.6-2.3 4.5-3.3 5.8-.5.6-1.2 1.5-1.4 2-.5.9-5.2 5.8-6.7 6.9-.6.4-1.1.8-1.2.9-.5.5-2.4 1.9-2.6 1.9-.1 0-.4.2-.6.4s-.8.6-1.3.9-1.7.8-2.6 1.3c-4.1 2.1-7.3 3.3-9.7 3.7-.6.1-1.5.3-2 .5-2.4 1-16.5 1.1-18.3.1-.3-.1-1.4-.4-2.6-.7-1.2-.2-2.2-.5-2.4-.7-.1-.1-.9-.4-1.6-.6-1.1-.3-4.9-2-6.7-3-.3-.2-.8-.4-1.1-.6-1.2-.7-3.7-2.3-4.5-3-.5-.4-1-.8-1.2-.9-1.2-.4-7.6-7.5-9.4-10.5-1.2-1.9-1.3-2.1-2.5-4.7-.7-1.4-1.3-2.8-1.5-3.1-.4-.9-1.1-3.2-2.4-8.9-1.3-5.5.1-17.4 2.7-23.1 1.7-3.7 2.8-5.8 3.5-6.7.4-.5.8-1.1.8-1.2 0-.4 4.3-5.5 5.9-7.1 9.9-9 22.2-13.3 36.1-12.3m-63.1 47.3c.7 1.1 1.4 6.1 1.3 8.4 0 .4-.4.7-1.3 1-.7.3-1.4.5-1.5.6-1 .6-2.4.2-3.1-1s-3.6-1.7-4.6-.8c-.6.5-1.6 2.9-1.8 4.2-.1.7-.3 1.4-.4 1.7s-.4 1.6-.6 2.9c-.2 1.4-.5 2.8-.6 3.2-.4 1.1-.9 4.7-.7 5.4.1.4 1.3 1.5 3.3 3l3.5 2.7c1.6 1.3 5.7 4 7.2 4.8 3.2 1.7 6-.6 5-4-.3-1.2-.2-1.4 1.7-2.9 2-1.6 2.7-1.2 6.9 4.6 1.2 1.7 1.2 1.7-4.6 7.4l-8.9 8.7c-4.3 4.3-4 4.2-8.1 1-.4-.3-1.3-.9-2-1.3-1.3-.8-2.7-1.6-3.7-2.2-.3-.2-.8-.5-1.2-.6-.4-.2-.8-.4-1.1-.5-.2-.1-1.2-.6-2.2-1.2-5.3-2.7-9.1-5.8-11-8.8-.5-.7-1-1.6-1.2-1.9s-.5-.9-.8-1.5c-.2-.5-.6-1.4-.9-1.9-1-2.1-.3-10.1 1.4-16.1l.8-2.9c.2-.9.6-2.3.8-3.1s.4-2 .4-2.6.2-1.5.4-1.9.4-1.5.5-2.5c.3-2.9-1.1-2.6 14.1-2.6h12.7l.3.7m144.5-.3c.6.3.9 1.4 1.2 3.7.2 1.8 1.4 6.8 2 8.9.3.8.5 1.7.5 1.8s.2.8.5 1.4c.4 1 .8 2.6 1.7 7.4.7 3.6-1 10.5-3.3 13.7-.7 1-3.7 3.5-6.1 5.2-1.9 1.3-1.7 1.2-4.6 2.9-1.1.7-2.5 1.5-3 1.8l-2 1.2c-1.1.6-4.2 2.6-4.9 3.2-.2.1-.6.4-1 .6s-.7.4-.7.5c0 .3-2.4 1.6-3 1.6-.3 0-3.4-2.8-7.2-6.6l-8.7-8.6c-3.3-3.2-3.3-3.1-.3-6.8s3.3-3.9 5.7-2.6c1.8.9 1.7.7 2 3.2.7 4.7 3.4 5 9 .9.8-.6 1.5-1 1.6-1s.6-.3 1-.6c.5-.3 2-1.4 3.5-2.4 4.2-2.8 4.2-3 3.2-7.7-.2-1-.5-3.1-.7-4.6s-.5-3.5-.7-4.4-.5-2.1-.6-2.7c-.6-3.9-4.3-4.4-7.3-1.2l-.7.7-1.7-.4c-2.6-.6-2.5-.6-2.5-3.2.1-2.6.7-5.2 1.3-5.7.7-.6 25-.7 25.8-.2m-123.6 40.4c3.5 2.3 6.2 4.6 6 5.2-.6 2.7-1.9 3.9-4.1 3.9-4.8 0-5 3.4-.8 9.2.9 1.2 1.8 2.5 2.1 2.9s1.2 1.6 1.9 2.7l2 2.8.7.9 2.7-.2c1.5-.1 3.5-.3 4.5-.6 1-.2 3.2-.5 4.8-.7s3.4-.4 4-.6l2.2-.7c2.8-.8 3.3-3.5 1-6l-1.6-1.8.5-1.5c.7-2 1.5-2.8 2.8-2.4.5.1 2.1.4 3.5.6 3.6.4 3.3-.7 3.3 13.6v11.9l-.6.7c-.5.6-.9.7-3.1 1-1.4.1-3 .4-3.6.5s-1.9.4-2.9.6-2.3.5-2.8.8c-1.1.4-3.6 1.1-6.5 1.8-1.2.3-2.6.6-3.2.8-2.2.7-10.2-.2-12.1-1.3-.3-.1-.9-.4-1.4-.6-1.6-.5-3.9-2.7-6.8-6.5-.1-.1-.4-.6-.7-1.1-.3-.4-.6-.9-.7-.9-.1-.1-.4-.5-.7-1-.9-1.5-1.7-2.6-1.9-3-.2-.2-.3-.4-.3-.5 0-.2-2.8-5-3.2-5.4-.2-.2-.9-1.2-1.5-2.1l-2.2-3.2c-1.7-2.2-1.8-2 6.3-9.9l8.9-8.7c1.9-2.1 2-2.1 3.5-1.2m78.3-.2c.6.2 5.7 5.2 15.8 15.1 2.7 2.7 2.7 2.8.7 5.6-2 2.6-3.2 4.5-3.2 4.8 0 .1-.2.4-.5.8-.3.3-.8 1.2-1.3 2-2.6 5-6.4 10.7-8 12.1-5.7 4.7-10.5 6.2-16.2 5.1-1.2-.2-3.1-.6-4.3-.8-3.1-.6-6.8-1.4-7.6-1.7-.9-.4-7.2-1.6-9.9-2-.7-.1-1.6-.4-1.9-.7l-.7-.5v-12.5c0-14.4-.4-12.8 3.1-13.3 1.2-.2 2.5-.4 2.9-.6 1.8-.7 3.3-.4 4 .8 1.1 1.7 1.1 3.1.2 4.2-4.2 4.4-1.6 6.9 7.9 8.1 1.4.2 3.1.5 3.7.7.7.2 2.2.4 3.5.5l2.3.2 1.1-1.4c.6-.8 1.8-2.4 2.8-3.6s1.9-2.5 2.2-2.8c.2-.3 1.3-1.8 2.3-3.2 3.8-5.2 3.1-8.4-1.9-8.3-1.7 0-1.8 0-2.3-.7-.8-1.1-1.4-2.8-1.2-3.3.1-.5 2.6-2.7 3-2.7.1 0 .8-.5 1.4-1.1 1.2-1.1 1.2-1.1 2.1-.8" fill="#0b5f98"/><path d="M224.3 44.8c-3.3.6-7.2 1.5-11.5 3-.8.3-1.8.5-2.2.5-.3 0-1.2.2-2 .4-.7.2-2.7.6-4.2.8-1.6.2-3.2.6-3.5.8l-.6.4v12.6c0 7.9.1 12.7.3 12.8.1.1 1.6.3 3.3.6 1.7.2 3.3.5 3.7.5.8.2 1.6-.7 2.2-2.6.5-1.3.3-1.8-1.4-3.4-2-2-1-5.9 1.6-5.9.4 0 1.1-.2 1.6-.4s2.2-.5 3.7-.7l4.9-.7c1.2-.2 3.4-.5 4.9-.6l2.8-.1.9 1.2c.5.6 1.8 2.4 2.8 4l2.9 4c3.3 4.2 3.9 7.1 1.8 8.5-.9.6-1.3.7-3.8 1-1.3.2-2.9 2.3-2.9 3.8 0 .6 2.5 2.9 3.9 3.6.4.2.6.4.6.5s.5.6 1.2 1c1.7 1.1 1.7 1.1 7.7-4.7l8.8-8.6c4.3-4.2 4.3-4.3 2.8-6.5-.6-.9-1.6-2.2-2.1-3l-1.9-2.7c-.5-.7-1.6-2.5-2.5-4-1.8-3-3.6-5.8-4.4-6.8-3.1-4.1-4.2-5.2-5.7-6.2-3.1-2.1-10.1-3.7-13.7-3.1m-60.9.2c-.1.1-.7.4-1.4.6-1.3.3-3.7 1.5-5.7 2.8-2.3 1.5-5.3 4.8-7.1 7.9-1.2 2-2.7 4.8-3.1 5.4-1.4 2.7-3.4 5.7-5.7 8.6-1.8 2.4-1.9 2.2 4.5 8.5 13.9 13.6 12.4 12.2 13.5 11.7.5-.3 1.2-.7 1.6-1s1.1-.9 1.6-1.2c2.7-2 2.9-2.6 1.6-4.8l-.7-1.2-2-.1c-3.3-.2-5.8-2.8-4.3-4.4.1-.1.4-.6.5-1.1.3-.8 2.4-3.8 5.2-7.4.8-1 1.6-2.1 1.8-2.4s1-1.3 1.8-2.2l1.4-1.6h2.3c1.3 0 3.1.2 4 .5.9.2 2.7.6 3.9.7 1.2.2 2.9.5 3.6.7s1.8.4 2.3.5c3.3.6 4.1 3.3 1.8 6.3l-1.3 1.8.5 1.4c.9 2.6 1.9 3.1 4.9 2.2.7-.2 2-.5 3-.6 2.8-.3 3.2-.8 3-4.1-.1-1.4-.2-6.9-.2-12.1v-9.5l-.6-.6c-.5-.5-1-.7-2.6-.8-1.9-.2-5.1-.8-8.6-1.7l-3.2-.7c-.9-.2-2.3-.5-3.2-.8-4.3-1.1-12.7-1.9-13.1-1.3m-30.2 32.5c-1 .9-.8.7-4.4 3.1-2.9 1.9-3.9 2.5-5.6 3.4-.4.2-1.5.9-2.4 1.4-1 .6-2.3 1.4-2.9 1.8-6.4 3.9-10.7 8.6-10.7 11.7 0 .4-.1.8-.2.9-1 1.1-1 10.4 0 11.4.1.1.2.6.2.9 0 .6 1.1 4.6 2 7.1.2.6.6 2 .7 3.1.2 1.1.5 2.5.7 3.2s.4 2.1.6 3.1c.4 2.6-.4 2.5 14.1 2.5 13.4 0 12.9.1 13.2-1.7l.5-3.2c.5-3 .3-3.4-1.7-4.1-2.2-.7-2.1-.8-3.7.8-3.8 3.6-6.8.9-7.6-6.8-.1-1-.4-2.7-.6-3.7-.4-1.8-.9-6.3-.9-7.5 0-.5 3.5-3.6 4.1-3.6.1 0 1.2-.7 2.5-1.6l3.8-2.6c.8-.5 1.8-1.2 2.2-1.4 3.2-2.2 6-.8 6.3 3l.1 2 1.4.7c3.1 1.6 2.8 1.8 7-3.7 2.1-2.7 2.5-2-7.7-12.1-9.5-9.2-9.6-9.3-11-8.1m126.1 0c-.4.3-8.6 8.2-15.8 15.3-2 2-2.2 2.8-.9 4.3.4.5.8 1 .8 1.1s.3.5.6.8.9 1 1.3 1.5c.8 1 1.7 1.1 3.3.3 2-1 2.1-1.2 2.1-3.4 0-4.8 4.1-4.9 10-.2.5.4 2.2 1.7 3.2 2.3 6.2 4.3 6.8 5.1 6 8.5-.5 2.1-.7 3.3-1.7 9.3s-3.7 7.5-7.4 4.2c-1.7-1.5-6.8 0-5.8 1.7.1.1.3 1.8.6 3.7.6 4.8-1 4.4 14.2 4.4h12.6l.6-.6c.5-.5.7-1.1.8-2.3.2-2.4 1.2-6.6 2.7-12.2 1.8-6.6 2.7-14.4 1.7-15.6-.1-.2-.3-.8-.5-1.4-1-3.6-5.2-8.6-9.2-11.1-3.7-2.2-6.7-3.9-7.2-3.9-.2 0-.5-.1-.6-.3-.1-.1-.7-.6-1.4-.9-1.5-.8-1.4-.7-5.6-3.5-3.4-2.6-3.5-2.6-4.4-2m-66.8 12.7c-9.6.8-19.8 5.5-27.2 12.6-1.6 1.6-5.9 6.7-5.9 7.1 0 .1-.3.7-.8 1.2-.7.9-1.8 3-3.5 6.7-2.6 5.7-4 17.5-2.7 23.1 1.4 5.7 2 8 2.4 8.9.1.3.8 1.7 1.5 3.1 1.2 2.6 1.4 2.8 2.5 4.7 1.8 3 8.2 10.1 9.4 10.5.2.1.7.4 1.2.9.8.7 3.3 2.4 4.5 3 .3.2.8.4 1.1.6 1.7 1 5.5 2.7 6.7 3 .7.2 1.5.4 1.6.6.1.1 1.2.4 2.4.7 1.2.2 2.3.5 2.6.7 1.8 1 15.9.9 18.3-.1.5-.2 1.4-.4 2-.5 2.4-.4 5.6-1.6 9.7-3.7.9-.4 2-1 2.6-1.3s1.1-.7 1.3-.9.5-.4.6-.4c.2 0 2.1-1.4 2.6-1.9.1-.1.6-.5 1.2-.9 1.5-1.1 6.2-6 6.7-6.9.2-.4.9-1.3 1.4-2 1-1.3 1.5-2.1 3.3-5.8 1.3-2.7 2.1-4.7 2.8-7.6.3-1.1.6-2.1.7-2.2s.3-1.3.4-2.5c1.3-11.1-.6-20.5-5.8-29.1-3.1-5.1-9.6-11.9-13.4-13.9-.4-.2-.7-.4-.8-.5-.2-.3-5.1-3-6.1-3.3L213 93c-1-.4-2.3-.8-2.8-.9-4.4-1.1-6-1.4-8.8-1.6-3.9-.7-5-.6-8.9-.3m13.9 7.8c2.1 4.7-.5 10.9-7.5 18.5a12.47 12.47 0 0 0-1.8 2.4c-.5.8-1.1 1.8-1.4 2.1-2.7 4.1-2.5 9.7.5 11.5 3.8 2.3 15.5-1 21.4-6 .2-.2.6-.4.9-.5.6-.2 4.5-3.3 7.2-5.7 2.6-2.3 3.4-2.2 3.6.4.4 6.4-4.9 14.4-12.9 19.2l-1.9 1.1c-.3.2-1.1.6-1.7.9s-1.4.7-1.7.8c-.3.2-1.5.4-2.8.7-1.3.2-2.9.5-3.5.6-.7.1-2.2.4-3.5.5-6.1.7-10.2 3.4-9.6 6.4.6 2.7 2.7 4.1 6.6 4.6l4.2.7c1 .2 2.7.5 3.8.7 2.9.4 5.9 1.9 8.5 4.3 3 2.8 2 3.7-2.7 2.4-1.9-.5-11.5-.5-13.6-.1-2.9.6-15.5-.3-18.9-1.4-5.3-1.7-6.8-6.7-2.8-9.4 6.3-4.3 6.6-10.2.6-13.4-2.3-1.3-7.4-3.5-8.1-3.5-.2 0-.7-.2-1-.5s-.9-.6-1.3-.8c-4.3-2.1-4.1-3.3.9-5l1.9-.7 1.3.6c.7.3 1.7.8 2 1 .4.3 1.3.8 2 1.3s1.5 1 1.7 1.1c1.4 1.2 6.2 1.3 7.9.2 1.4-1 1.6-1.3 2-2.5.8-2.5.1-5.2-2.2-8.5-5-7.3-4.1-13.4 2.3-16.6.9-.5 2-1 2.3-1.2.4-.2 1.4-.7 2.3-1.1l2.7-1.2c1.1-.5 6.7-3.2 7.9-3.9 2.9-1.6 3.7-1.6 4.4 0M112 137c-.6.2-.8.6-1 2.5-.1 1-.3 2.1-.5 2.5s-.4 1.2-.4 1.9c0 .6-.2 1.8-.4 2.6l-.8 3.1c-.2.9-.6 2.2-.8 2.9-1.8 6-2.5 14-1.4 16.1.2.5.6 1.4.9 1.9.2.5.6 1.2.8 1.5s.7 1.1 1.2 1.9c1.9 3.1 5.7 6.1 11 8.8 1 .5 2 1 2.2 1.2.2.1.7.4 1.1.5.4.2.9.4 1.2.6 1 .6 2.4 1.5 3.7 2.2.7.4 1.6 1 2 1.3 4.1 3.2 3.8 3.2 8.1-1l8.9-8.7c5.8-5.7 5.9-5.7 4.6-7.4-4.2-5.8-4.9-6.2-6.9-4.6-1.9 1.5-2 1.7-1.7 2.9 1 3.4-1.9 5.7-5 4-1.5-.8-5.6-3.5-7.2-4.8-.2-.2-1.8-1.4-3.5-2.7-2-1.5-3.2-2.6-3.3-3-.2-.7.3-4.4.7-5.4.1-.4.4-1.8.6-3.2s.5-2.7.6-2.9.3-1 .4-1.7c.2-1.4 1.3-3.8 1.8-4.2 1-.9 3.9-.3 4.6.8.7 1.2 2.2 1.6 3.1 1 .1-.1.8-.4 1.5-.6 1-.4 1.3-.6 1.3-1 .1-2.3-.6-7.3-1.3-8.4l-.4-.6H125c-6.9-.2-12.8-.1-13 0m145 .1c-.7.5-1.3 3.1-1.3 5.7-.1 2.6-.1 2.6 2.5 3.2l1.7.4.7-.7c3-3.3 6.7-2.7 7.3 1.2.1.6.3 1.8.6 2.7.2.9.5 2.9.7 4.4s.5 3.6.7 4.6c1 4.7.9 4.9-3.2 7.7l-3.5 2.4c-.5.3-.9.6-1 .6s-.8.5-1.6 1c-5.6 4.1-8.4 3.8-9-.9-.3-2.4-.2-2.2-2-3.2-2.4-1.3-2.8-1.1-5.7 2.6s-2.9 3.6.3 6.8l8.7 8.6c3.8 3.8 6.9 6.6 7.2 6.6.6 0 3-1.3 3-1.6 0-.1.3-.3.7-.5s.8-.4 1-.6c.6-.5 3.8-2.6 4.9-3.2.6-.3 1.5-.8 2-1.2.5-.3 1.9-1.1 3-1.8 2.9-1.7 2.7-1.6 4.6-2.9 2.4-1.7 5.4-4.2 6.1-5.2 2.3-3.3 4-10.2 3.3-13.7-.9-4.8-1.3-6.4-1.7-7.4-.3-.6-.5-1.2-.5-1.4s-.2-1-.5-1.8c-.7-2.1-1.8-7.1-2-8.9-.3-2.3-.6-3.4-1.2-3.7-.9-.3-25.2-.2-25.8.2m-101.7 41.6l-8.9 8.7c-8.1 7.9-7.9 7.7-6.3 9.9.6.8 1.6 2.2 2.2 3.2.7 1 1.3 1.9 1.5 2.1.4.4 3.2 5.2 3.2 5.4 0 .1.1.3.3.5.3.3 1 1.5 1.9 3 .3.4.6.9.7 1s.4.5.7.9.6.9.7 1.1c3 3.8 5.2 5.9 6.8 6.5.5.2 1.2.4 1.4.6 1.9 1.1 9.9 2 12.1 1.3.6-.2 2-.5 3.2-.8 2.9-.6 5.4-1.3 6.5-1.8.5-.2 1.8-.5 2.8-.8l2.9-.6c.6-.1 2.2-.4 3.6-.5 2.2-.2 2.6-.3 3.1-1l.6-.7v-11.9c0-14.3.3-13.1-3.3-13.6-1.4-.2-3-.4-3.5-.6-1.2-.3-2.1.4-2.8 2.4l-.5 1.5 1.6 1.8c2.3 2.5 1.8 5.1-1 6l-2.2.7c-.6.2-2.4.5-4 .6-1.6.2-3.7.5-4.8.7a45.05 45.05 0 0 1-4.5.6l-2.7.2-.7-.9c-.4-.5-1.3-1.7-2-2.8-.7-1-1.6-2.2-1.9-2.7-.3-.4-1.3-1.8-2.1-2.9-4.3-5.8-4-9.2.8-9.2 1.8 0 2.6-.4 3.3-2 1.2-2.5 1.2-2.4-1.6-4.5-4.9-3.9-4.6-3.9-7.1-1.4m79.9-.6c-.7.6-1.3 1.1-1.4 1.1-.4 0-2.8 2.2-3 2.7s.5 2.2 1.2 3.3c.5.7.6.7 2.3.7 5-.1 5.7 3.2 1.9 8.3-1 1.4-2.1 2.8-2.3 3.2-.2.3-1.2 1.6-2.2 2.8s-2.2 2.8-2.8 3.6l-1.1 1.4-2.3-.2c-1.2-.1-2.8-.3-3.5-.5s-2.4-.5-3.7-.7c-9.6-1.2-12.1-3.7-7.9-8.1 1-1 .9-2.4-.2-4.2-.7-1.2-2.3-1.5-4-.8-.4.2-1.7.4-2.9.6-3.4.5-3.1-1.1-3.1 13.3V217l.7.5c.4.3 1.2.6 1.9.7 2.7.4 9 1.6 9.9 2 .8.3 4.5 1.2 7.6 1.7 1.2.2 3.1.6 4.3.8 5.7 1.1 10.6-.5 16.2-5.1 1.6-1.3 5.4-7 8-12.1.4-.8 1-1.7 1.3-2s.5-.6.5-.8c0-.3 1.3-2.1 3.2-4.8 2.4-3.2 3.5-1.5-9.3-14.1-7.6-7.4-7.4-7.3-9.3-5.7" fill="#f6c213"/><path d="M0 133.3v133.3h200 200V133.3 0H200 0v133.3M173.2 39c.7.2 1.6.4 2 .4s1.3.2 2.1.4l2.7.7 3.1.8c11.1 3.1 20.4 3.1 30.7 0 .9-.3 2.2-.6 2.8-.7s1.5-.3 1.9-.5 1.5-.5 2.4-.6 2.4-.4 3.3-.5c4.7-.8 13.3.6 15.6 2.5.2.2.7.4 1 .5s.8.4 1.1.6c.3.3 1 .8 1.5 1.3.9.8 2.8 2.6 4.2 4.2.8.9 1.6 2 2.7 3.8.5.7 1.3 2.1 2 3.1.6 1 1.5 2.3 1.9 3.1.8 1.4 1.8 3 2.2 3.5.1.1.6 1 1.1 1.8s1.4 2.2 2.1 3 1.2 1.6 1.2 1.7c0 .4 3.6 3.5 6.2 5.4.4.3 1.4 1.1 2.3 1.7 2.4 1.9 5.6 3.9 7.8 5.1.6.3 1.7.9 2.4 1.3l1.7 1c.2.1.8.4 1.2.7s1 .7 1.2.8c4.9 3 9.8 9 10.5 12.8.1.6.4 1.4.6 1.8.7 1.3.6 9.5-.2 12.3-.3 1.2-.6 2.4-.6 2.7s-.2 1.2-.5 2-.5 1.7-.5 2-.3 1.5-.6 2.7c-1.1 3.8-1.5 5.5-2.1 9-.3 1.9-.6 3.6-.7 3.8s0 1 .1 1.7c.2.7.4 2.9.7 4.7.2 1.8.6 4.1.8 4.9.2.9.4 1.9.4 2.3 0 .6.3 1.6 1.9 6.9.3.9.5 1.9.5 2.2s.2 1.4.5 2.5c1.5 5.7 0 14-3.4 18.8-1.4 1.9-6.6 6.8-7.2 6.8-.1 0-.4.2-.6.4s-.8.7-1.3.9c-.5.3-1.4.8-2 1.2s-1.5.9-2 1.1c-.5.3-1.1.6-1.3.8s-.7.5-1.2.7-1.3.7-1.9 1.1a22.47 22.47 0 0 1-2.1 1.2c-.6.3-1.5.9-2.1 1.3s-1.5 1-1.9 1.2c-.5.2-.9.6-.9.7s-.2.2-.3.2c-.7 0-3.8 2.8-5.3 4.8-.8 1.1-2 2.5-2.6 3.3-1.7 2.2-3.4 4.7-5.4 7.8-.2.3-.8 1.3-1.3 2.3-1 1.8-3.7 6-4.2 6.6a16.44 16.44 0 0 0-1.3 1.6c-1.3 1.5-4.7 4.4-6 5.1-.5.3-1.5.8-2.3 1.2-.7.4-2.6 1-4.1 1.4-4.7 1.3-8.2 1.1-15.7-.7a76.27 76.27 0 0 1-3.1-.7 76.27 76.27 0 0 0-3.1-.7c-1-.3-2.3-.6-2.9-.8-.7-.2-1.9-.5-2.7-.7-5.9-1.6-10.8-1.5-21.7.6-2.8.5-3.9.8-7.6 1.9-14.6 4.2-24.9.2-32.9-12.8l-2.6-4.2c-.4-.6-.7-1.2-.7-1.4 0-.1-.2-.4-.4-.6s-.6-.6-.8-1c-2.6-4.9-5.8-9-9.3-11.8-3.8-3-4.1-3.2-4.4-3.2-.1 0-.4-.2-.6-.4s-1-.8-1.8-1.4c-.8-.5-1.8-1.2-2.2-1.4-1-.7-7.9-4.5-8.1-4.5-.1 0-.4-.2-.8-.5-.3-.3-.7-.5-.9-.5s-.3-.1-.3-.2-.4-.4-.9-.7c-1.4-.8-6.3-5.6-6.3-6.2 0-.2-.2-.5-.5-.9-.5-.5-2-3.5-2.6-5.3-.6-1.7-.9-3.8-.8-7.4 0-4.3.5-7.5 2-12.7.2-.8.6-2.1.8-2.9l.7-2.9c1.5-5.8 1.6-6.4 1.6-11.2 0-3.8-.1-5.1-.6-7.1-.3-1.4-.6-2.8-.6-3.2 0-.9-1.5-7.2-1.9-7.9-.3-.5-1.2-3.9-1.6-6.2-.3-1.4-.3-8.8-.1-9.9.7-3 2.2-6.5 3.5-8.3.4-.5.8-1.1.9-1.2 1.2-1.7 4.5-4.7 7-6.3l3.4-2.1 6-3.5c3.8-2.2 4.9-2.8 5.6-3.4.5-.3.9-.6 1-.6.6 0 5.3-4.3 6.7-6 .9-1.1 1.7-2.2 1.9-2.4s.6-.8 1-1.4 1.2-1.8 1.9-2.7 1.9-2.7 2.7-4.1 1.7-2.8 1.9-3.2.6-1 .7-1.4c.2-.4.4-.9.6-1.1s.7-1 1.3-1.8c.5-.8 1.1-1.6 1.3-1.7s.7-.7 1.1-1.3c1.2-1.5 3.8-3.8 6-5.2 4.7-3 13.5-4.2 18.4-2.7m30.1 58.2c-.4.2-1.1.5-1.5.7-1.2.7-6.8 3.4-7.9 3.9-.6.3-1.8.8-2.7 1.2s-1.9.9-2.3 1.1-1.4.8-2.3 1.2c-6.4 3.2-7.3 9.3-2.3 16.6 2.3 3.3 2.9 6 2.2 8.5-.4 1.2-.6 1.5-2 2.5-1.7 1.2-6.4 1.1-7.9-.2-.2-.2-.9-.7-1.7-1.1-.7-.5-1.6-1-2-1.3s-1.3-.7-2-1l-1.3-.6-1.9.7c-4.9 1.7-5.1 2.9-.9 5 .4.2 1 .6 1.3.8.4.3.8.5 1 .5.6 0 5.7 2.2 8.1 3.5 5.9 3.3 5.6 9.1-.6 13.4-4 2.7-2.4 7.7 2.8 9.4 3.4 1.1 16 2 18.9 1.4 2.1-.5 11.7-.4 13.6.1 4.7 1.2 5.7.3 2.7-2.4-2.6-2.4-5.5-3.9-8.5-4.3-1-.2-2.7-.4-3.8-.7-1-.2-2.9-.5-4.2-.7-3.9-.5-6-2-6.6-4.6-.7-2.9 3.4-5.6 9.6-6.4 1.3-.1 2.8-.4 3.5-.5s2.2-.4 3.5-.6 2.5-.5 2.8-.7 1-.5 1.7-.8 1.4-.7 1.7-.9 1.1-.7 1.9-1.1c8-4.8 13.3-12.7 12.9-19.2-.2-2.6-1-2.7-3.6-.4-2.7 2.4-6.6 5.5-7.2 5.7-.3.1-.7.3-.9.5-5.9 5-17.6 8.3-21.4 6-3-1.8-3.2-7.4-.5-11.5.2-.4.9-1.3 1.4-2.1s1.3-1.9 1.8-2.4c5.9-6.3 7.7-9.7 7.9-14.3.5-4.7-.5-6.2-3.3-4.9" fill="#fff"/></svg>