<svg xmlns="http://www.w3.org/2000/svg" xmlns:xlink="http://www.w3.org/1999/xlink" width="1100" height="700" xmlns:v="https://vecta.io/nano"><path d="M0 700h1100V0H0z" fill="#3a81cc"/><path d="M0 700h1100V466.667H0z" fill="#30ae48"/><path d="M0 700h1100V583.333H0z" fill="#fff"/><use width="500" height="300" xlink:href="#A" x="855"/><use width="500" height="300" xlink:href="#A" x="285"/><use width="500" height="300" xlink:href="#A" x="665"/><use width="500" height="300" xlink:href="#A" x="475"/><use width="500" height="300" xlink:href="#A" x="95"/><path id="A" d="M90.576 416.667l-15.501-11.749-15.402 11.885 6.123-18.724L50 386.756l19.284.178 5.638-18.881 5.794 18.831 19.284-.347-15.704 11.46z" fill="#fff"/><use width="500" height="300" xlink:href="#A" x="950"/><use width="500" height="300" xlink:href="#A" x="760"/><use width="500" height="300" xlink:href="#A" x="570"/><use width="500" height="300" xlink:href="#A" x="380"/><use width="500" height="300" xlink:href="#A" x="190"/></svg>