<?xml version="1.0" encoding="utf-8"?>
<!-- Generator: Adobe Illustrator 26.4.1, SVG Export Plug-In . SVG Version: 6.00 Build 0)  -->
<svg version="1.1" id="Layer_1" xmlns="http://www.w3.org/2000/svg" xmlns:xlink="http://www.w3.org/1999/xlink" x="0px" y="0px"
	 viewBox="0 0 324 216" style="enable-background:new 0 0 324 216;" xml:space="preserve">
<style type="text/css">
	.st0{fill:#FFFFFF;}
	.st1{fill-rule:evenodd;clip-rule:evenodd;fill:#050066;stroke:#000000;}
	.st2{fill-rule:evenodd;clip-rule:evenodd;fill:#D9871B;}
	.st3{fill-rule:evenodd;clip-rule:evenodd;fill:#FFFFFF;}
	.st4{fill-rule:evenodd;clip-rule:evenodd;fill:#008000;}
	.st5{fill-rule:evenodd;clip-rule:evenodd;fill:#D9871B;stroke:#000000;}
	.st6{fill-rule:evenodd;clip-rule:evenodd;fill:#D9871B;stroke:#000000;stroke-miterlimit:12;}
	.st7{fill:none;stroke:#000000;}
</style>
<rect class="st0" width="324" height="216"/>
<g>
	<g>
		<path class="st1" d="M161.8,33c-5.3,0-34,2.2-54.4,6.1C99.1,53,94.5,67.6,94.5,87.6c0,20,10.7,75.2,67.5,95.4
			c56.8-20.2,67.5-75.5,67.5-95.4c0-20-4.6-34.5-12.9-48.4C196.2,35.2,167.1,33,161.8,33z"/>
		<path class="st2" d="M101.5,118.8c7.7,22,24.8,48,60.5,60.2c35.8-12.3,52.9-38.2,60.5-60.2c-8.4,20.5-25.8,43.6-60.5,54.9
			C127.3,162.4,109.8,139.2,101.5,118.8L101.5,118.8z"/>
		<path class="st3" d="M110.5,44.3c-5.3,7.7-8.3,16-8.3,26.8c0,9.3,5,30.5,27.2,46.3l32.6-39l-26.9-25.9L110.5,44.3z M213.5,44.3
			l-24.6,8.2L162,78.3l32.6,39.1c22.2-15.8,27.2-37,27.2-46.3C221.8,60.3,218.8,52,213.5,44.3z"/>
		<g>
			<path class="st4" d="M162,78.6l-26.9-26.1l-24.5-7.9l22,13.3L162,78.4l-30.1-19.9l-25.9-6.8l23.8,13.1L162,78.4l-32.8-13
				l-25.9-1.3l24.7,7.1l34,7l-34.2-6l-24.6,3.3l25,2.6L162,78.6l-33.3,0.7l-23,8l25.2-2.5l31.1-6.1l-30.3,6.8l-20.3,13.1l23.1-7.9
				L162,78.7l-26.9,12.9L118.5,107L138,96.7L162,78.4l-23,19l-9.6,20.1L162,78.6L162,78.6z"/>
			<path class="st4" d="M162,78.6l26.9-26.1l24.5-7.9L193,55.1L162,78.4l30.9-22.1l24.9-1.8l-23.2,8.7L162,78.4l32.8-14.2l24.5,0.5
				L196.3,70L162,78.2l34.4-7.6l24,5.9L196.5,77L162,78.6l33.9-0.3l22.3,9l-24.8-2.7L162,78.7l32.8,7.2l17.9,12.7l-21.1-7.3
				L162,78.7l28.9,13.5l14.5,14.8l-18.5-8.9l-25-19.6l24.8,20.6l7.8,18.5L162,78.6L162,78.6z"/>
		</g>
		<path class="st5" d="M162,80.4l-2.3-1.1l-2.1-8.3l1.1-4.9l-2-0.6l-0.2-2.9l-5-8.5v-7.1L162,34.6"/>
		<g>
			<path class="st6" d="M170.5,54.6l2.6,1.2l-1.3,2l-1.6,1.4l-0.7,1.7l-1.7-1.3L170.5,54.6L170.5,54.6z M153.4,54.6l-2.6,1.2l1.3,2
				l1.6,1.4l0.7,1.7l1.7-1.3C156.1,59.6,153.4,54.6,153.4,54.6z"/>
		</g>
		<path class="st5" d="M162,34.6l-10.5,12.2V54l5,8.5l0.2,2.9l2,0.6l-1.1,4.9l2.1,8.3l2.3,1.1l2.3-1.1l2.1-8.3l-1.1-4.9l2-0.6
			l0.2-2.9l5-8.5v-7.1L162,34.6z"/>
		<path class="st5" d="M152.6,53.8l3.8-2l3.1,0.2l0.5,3.2l-0.8,0.5l-5.9-0.1C153.4,55.6,152.6,53.8,152.6,53.8z"/>
		<path class="st5" d="M153.9,53.8l2.2-0.6l2.7,0.1"/>
		<path class="st7" d="M155.4,53.6l0.7,1.2h1.6l0.3-1.5"/>
		<path class="st7" d="M151.6,50.3l5.3-3.4l3.4-0.2l0.2,5L162,55l-1.2,2.5"/>
		<path class="st5" d="M159.3,57.4l0.3,1l0.8,0.4l0.5,1h1.1 M162,61l-2.7,0.1l-1.7,1.1l1.6,1.2l2.8,0.1 M159.9,62l2.1,0.1
			 M158.5,67.9l3.5,0.2 M157.9,69.8l4.1-0.1 M157.9,71.5l4.1,0.1"/>
		<path class="st5" d="M162,80.4l2.3-1.1l2.1-8.3l-1.1-4.9l2-0.6l0.2-2.9l5-8.5v-7.1L162,34.6"/>
		<path class="st5" d="M171.3,53.8l-3.8-2l-3.1,0.2l-0.5,3.2l0.8,0.5l5.9-0.1C170.5,55.6,171.3,53.8,171.3,53.8z"/>
		<path class="st5" d="M170,53.8l-2.2-0.6l-2.7,0.1"/>
		<path class="st7" d="M168.5,53.6l-0.7,1.2h-1.6l-0.3-1.5"/>
		<path class="st7" d="M172.3,50.3l-5.3-3.4l-3.4-0.2l-0.2,5L162,55l1.2,2.5"/>
		<path class="st5" d="M164.6,57.4l-0.3,1l-0.8,0.4l-0.5,1H162 M162,61l2.7,0.1l1.7,1.1l-1.6,1.2l-2.8,0.1 M164,62l-2.1,0.1
			 M165.5,67.9l-3.5,0.2 M166.1,69.8l-4.1-0.1 M166.1,71.5l-4.1,0.1 M158.7,74.8l3.3,0.1l3.3-0.1 M164.6,77.1l-2.7,0.2l-2.6-0.2"/>
		<path class="st7" d="M158.8,66.1l6.2,0.1"/>
		<path class="st5" d="M152.6,130.8c-0.5,5.9-2.1,12.2-0.1,17.1c0.9-1.9,1.7-2.6,2.6-11.1c-1.5,7-1.3,8.7-0.6,11.5
			c1.3-0.9,2-2.8,2.5-10.3c-1.1,8.5-0.4,9.3,0.1,10.4c1.3,0.3,1.9-3.9,2.1-10.5c-0.4,8.3,0,11.6,1.2,11.4c0.9-1.7,2.1-1.5,1.5-11.6
			c0.9,9.9,1.9,10.7,2.8,12.1c0.6-1.3,1.1-3.2-0.1-11.1c1.7,9.1,2.3,9.7,2.9,10.4c0.7-0.7,0.9-3.6-0.1-11.3c0.8,6,1.6,8,2.6,9.9
			c0-3,0-5.7-0.3-12.1c0.9,5.4,1.1,8.5,2.2,12.1c0.3-5.1,0-5.3-0.4-15.9c-1.2-2.2-2.2-5.3-9.7-5.8
			C157.8,126.7,154.9,125.8,152.6,130.8z"/>
		<path class="st5" d="M162,116.9c-8,0.8-14.2,11-12.5,20.8c1.5-3.2-0.3-1.5,2.7-6.9c-0.6,2.6-0.4,5,0.6,7.1
			c1.3-2.1,2.5-4.2,2.7-7.3c-0.1,2.5,0,4.4,1,6.1c1.6-1.2,1.8-3.5,2.1-6.2c0.2,3.2-0.1,4.5,1.6,7.5c1.2-2.3,1.5-4.6,1.7-7.4
			c0.1,3.2,0.3,4.9,1.8,7.6c1.1-3.6,1.2-3.5,0.9-7.6c0.4,3.5,0.7,5,1.9,6.9c0.2-2.3,1.6-2.9,0.5-5.9c2.3,1.5,1.9,2.8,2.6,5.5
			c0.2,0.1,0.9-2.6-0.3-6.6c3.8,5.2,5.5,7.2,5.5,7.2C174.8,131,173.5,118.8,162,116.9L162,116.9z"/>
		<path class="st5" d="M162,112.6c-8,0.8-16,8.8-14.3,18.6c1.5-3.2,2.5-3.5,5.5-8.9c-0.6,2.6-0.8,3.4,0.2,5.5
			c1.3-2.1,2.5-4.5,2.7-7.6c-0.1,2.5,0.1,4.7,1.1,6.4c1.6-1.2,1.7-4.4,2-7.1c0.2,3.2-0.1,6.6,1.6,9.5c1.2-2.3,1-5.3,1.2-8.1
			c0.1,3.2,0.5,6.4,2,9c1.1-3.6,0.6-7.8,0.4-11.9c0.4,3.5,1,6.8,2.2,8.7c0.2-2.3,0.8-4.4-0.3-7.4c2.3,1.5,2.8,4.5,3.5,7.2
			c0.2,0.1,0.4-1.8-0.8-5.8c3.8,5.2,6.7,11,6.7,11C175.6,125,173.5,114.5,162,112.6z"/>
		<path class="st4" d="M162,86.2l-26.5,16.5v-0.2l-0.8,22.2l6.3-17.7l10.7-11.8l-9.9,12.1l-0.8,19.5l7-17.2l7.4-13.2l-7,13.3l-1,21
			l7.1-20l5.1-13.3l-4.6,12.9l2.3,22.5l4.1-21.6l0.5-13.6l0.5,13.6l6.2,21.8l-0.1-21.7l-2.4-14.2l3.1,14L178,130l-2.5-20.2
			l-3.9-12.8l4.7,12.1l10.3,18.3l-5-20.3l-8.4-11l10.2,11.8l8.1,17.9l-1.7-21.5L162,86.2z"/>
		<path class="st3" d="M106.4,95.5l1.2,2.9l-2,6.5l4-2.9l0.9,2.5l-7.3,6.1l-1.1-2.6L106.4,95.5L106.4,95.5z M111.7,106.1l1.4,1.9
			l-6.9,9l-1.3-2.6C104.9,114.4,111.7,106.1,111.7,106.1z M114.3,110l1.6,2.1l-6.2,7.3l2.4,4l-1.9,2.1l-3.4-6.5L114.3,110L114.3,110
			z M119.4,116.4l1.8,2.1l-6.4,9l2.9,3.8l-1.7,2.4l-4.8-6.6L119.4,116.4L119.4,116.4z M125.8,122.8l6,4.8l-1.9,2l-3.4-3.1l-2.1,3.2
			l3.8,3.2l-1.6,2.4l-3.8-3.2l-2.2,3.2l3.7,3.3l-1.9,2.6l-5.5-5.9L125.8,122.8L125.8,122.8z M139.3,132.3L129,147.7
			c0,0,1.4,1.4,4.1,3.3c2.8,1.8,5.1-0.9,5.1-0.9s5.1-7.4,5.6-8.3c1.2-2.1,1.2-5.1-0.9-7L139.3,132.3z M140,136.2l0.9,0.6
			c1,0.5,1.2,2,0.4,3.1c-0.4,0.9-4.8,7.4-4.8,7.4c0,0-1.2,1.6-2.6,0.7c-0.5-0.3-1.3-0.9-1.3-0.9L140,136.2z M148.9,137.5l7.4,2.8
			l-1.6,3.3l-4.6-2.1l-2.4,4.3l4.1,2l-1.7,3.1l-3.9-1.9l-2.7,4.2l4.9,2.6l-1.9,3.5l-7.9-4.7L148.9,137.5L148.9,137.5z M180.9,157.3
			l-11.4-18l3.1-1.1l4,6.4l-0.2-8.2l2.6-1.1l0.1,7.5l11.4,8l-2.4,1.9l-9.1-7.1l-0.1,3.1l4.7,7L180.9,157.3L180.9,157.3z
			 M181.4,134.5l2.8-1.7l10.4,15l-2.4,1.9L181.4,134.5L181.4,134.5z M196.7,146.3l-10.8-14.6l3.1-1.8l9.1,6l-6.3-8l1.8-1.4l9.9,12.7
			l-2,2l-10.4-6.4l7.4,10.1L196.7,146.3L196.7,146.3z M199.9,121l1.7,1.6c0,0-2.2,2.5-1.2,3.6c0.8,0.9,1.8,0.6,3,0.4
			c1.3-0.3,3.3-0.2,4.4,1.1c1.5,1.7,1.3,4.4-0.3,6.8c-1.2,1.7-1.5,2-1.5,2l-2-2c1.3-1.5,2.7-3.9,1.4-5c-1.4-1.2-3.3-0.1-4.5-0.1
			c-1.2,0-2.5-0.6-3.3-1.7c-1.1-1.8-0.2-3.8,0.5-4.8C198.7,121.8,199.9,121,199.9,121L199.9,121z M211.3,128.9l-9.3-9.8l1.8-1.9
			l3.2,3.5l1.6-2.3l-2.9-3.3l1.6-1.9l8.1,9.2l-1.2,2.1l-4.2-4.5l-1.8,2.5l4.5,4.7L211.3,128.9L211.3,128.9z M211.3,107.5l-1.4,2.1
			l6.2,11l1.3-1.8l-2-3.8l1.1-2.4l2.5,1.8l1.1-2L211.3,107.5z M212.3,109.9l2.9,1.8l-0.9,1.6L212.3,109.9z M214.5,102.1l1.4,0.7
			c-0.7,0.8-0.8,1.9-0.3,2.3c0.6,0.5,1.4,0.1,2.3-0.2c0.8-0.3,1.8-0.5,2.8,0c1,0.5,1.7,2.2,0.7,4.7c-0.5,1.3-0.3,0.8-0.3,0.8
			l-1.8-0.8c0.5-1,1.1-2.5,0-3c-0.8-0.5-1.7,0.2-2.5,0.5c-0.9,0.4-1.7,0.2-2.5-0.3c-1.4-1-1.1-2.5-0.8-3.3
			C213.9,102.7,214.5,102.1,214.5,102.1L214.5,102.1z M217.5,96.3l-0.6,1.8l5.8,7.2l0.6-1.6l-1.9-2.5l0.4-2l2.5,0.9l0.4-1.6
			L217.5,96.3L217.5,96.3z M218.5,97.9l2.2,0.9l-0.4,1.3L218.5,97.9L218.5,97.9z"/>
		<path class="st7" d="M169.7,43.8l-0.5,0.2l-7.3-2.8l-7.2,2.9l-0.5-0.4"/>
	</g>
</g>
</svg>
