<?xml version="1.0" encoding="UTF-8"?>
<svg id="Layer_2" data-name="Layer 2" xmlns="http://www.w3.org/2000/svg" width="340.16" height="170.08" viewBox="0 0 340.16 170.08">
  <defs>
    <style>
      .cls-1, .cls-2 {
        fill: #ee2e24;
      }

      .cls-3, .cls-4 {
        fill: #009bc9;
      }

      .cls-2, .cls-5, .cls-6, .cls-4 {
        fill-rule: evenodd;
      }

      .cls-5 {
        fill: #a90000;
      }

      .cls-7 {
        fill: #093;
      }

      .cls-8, .cls-6 {
        fill: #ffde00;
      }
    </style>
  </defs>
  <g id="Layer_1-2" data-name="Layer 1">
    <g id="_Слой_1" data-name="Слой_1">
      <g id="_153616072" data-name=" 153616072">
        <rect id="_153618936" data-name=" 153618936" class="cls-3" width="340.16" height="170.08"/>
        <path id="_153618864" data-name=" 153618864" class="cls-6" d="m5.42,0h11.45l103.37,57.25c-.4.72-.79,1.45-1.16,2.19C119.09,59.44,5.42,0,5.42,0Zm53.85,0h7.04l59.71,48.8c-.53.64-1.04,1.29-1.53,1.95L59.27,0h0Zm33.45,0h5.08l35.4,41.52c-.63.54-1.25,1.08-1.86,1.65L92.72,0Zm24.06,0h4.07l20.7,35.62c-.72.41-1.42.85-2.12,1.29L116.78,0Zm19.21,0h3.52l11.32,31.32c-.78.28-1.55.58-2.32.89L135.99,0h0Zm16.65,0h3.24l4.86,28.76c-.82.13-1.63.29-2.44.46l-5.66-29.22Zm15.48,0h3.15l-.34,28c-.29,0-.57-.01-.86-.01-.54,0-1.08.01-1.62.02l-.33-28.01Zm16.16,0h3.24l-5.66,29.21c-.81-.17-1.62-.32-2.44-.46l4.86-28.75Zm16.37,0h3.52l-12.53,32.21c-.76-.31-1.54-.61-2.32-.89L200.65,0h0Zm18.66,0h4.07l-22.65,36.91c-.7-.44-1.4-.87-2.12-1.29L219.31,0h0Zm23.05,0h5.08l-38.62,43.17c-.61-.56-1.23-1.11-1.86-1.65L242.36,0Zm31.49,0h7.04l-65.21,50.75c-.5-.66-1.01-1.31-1.53-1.95L273.85,0h0Zm49.43,0h11.45l-113.66,59.44c-.37-.74-.76-1.47-1.16-2.19L323.28,0Zm16.88,27.32v5.67l-115.33,35.97c-.23-.8-.48-1.59-.75-2.37l116.08-39.27Zm0,32.41v5.27l-113.35,13.99c-.09-.83-.19-1.65-.31-2.46l113.66-16.8Zm0,30.72v5.2l-113.18-6.42c.06-.82.1-1.65.13-2.48-.01,0,113.05,3.7,113.05,3.7Zm0,31.08v5.43l-114.83-27.65c.21-.8.39-1.61.56-2.42l114.27,24.64Zm0,33.6v6.03l-118.27-52.22c.35-.75.68-1.51.99-2.28l117.28,48.47Zm-37.49,14.95h-8.71l-77.18-52.27c.48-.68.94-1.36,1.39-2.06l84.5,54.33Zm-41.22,0h-5.86l-45.41-44.46c.59-.58,1.16-1.18,1.73-1.78l49.54,46.24Zm-27.79,0h-4.48l-26.89-37.95c.68-.47,1.36-.95,2.02-1.45l29.35,39.4Zm-21.17,0h-3.74l-15.39-32.95c.76-.34,1.5-.69,2.24-1.07l16.89,34.02h0Zm-17.66,0h-3.35l-7.8-29.63c.81-.2,1.61-.41,2.4-.64l8.75,30.27h0Zm-15.89,0h-3.17l-2.19-28.1c.83-.05,1.66-.11,2.47-.2l2.89,28.3h0Zm-14.55,0h-3.17l2.89-28.3c.82.09,1.64.15,2.47.2l-2.19,28.1h0Zm-15.72,0h-3.35l8.75-30.27c.79.23,1.59.44,2.4.64l-7.8,29.63h0Zm-17.26,0h-3.74l16.89-34.01c.74.37,1.49.73,2.24,1.07l-15.39,32.94h0Zm-20.43,0h-4.48l29.36-39.4c.66.5,1.33.98,2.02,1.45l-26.9,37.95Zm-26.41,0h-5.86l49.55-46.24c.56.61,1.14,1.2,1.73,1.78,0,0-45.42,44.46-45.42,44.46Zm-38.37,0h-8.71l84.51-54.33c.45.7.91,1.38,1.39,2.06l-77.19,52.27ZM0,161.16v-6.03l117.28-48.46c.31.77.65,1.53.99,2.28,0,0-118.27,52.21-118.27,52.21Zm0-34.2v-5.43l114.27-24.63c.17.81.36,1.62.56,2.42L0,126.96h0Zm0-31.32v-5.19l113.06-3.71c.02.83.07,1.66.13,2.48,0,0-113.19,6.42-113.19,6.42Zm0-30.64v-5.27l113.66,16.8c-.12.81-.23,1.64-.31,2.46,0,0-113.35-13.99-113.35-13.99Zm0-32.01v-5.67l116.08,39.27c-.27.78-.52,1.57-.75,2.37,0,0-115.33-35.97-115.33-35.97Z"/>
        <g>
          <g id="_Слой_1-2" data-name="Слой_1">
            <circle class="cls-1" cx="170.08" cy="85.04" r="52.23"/>
            <circle class="cls-8" cx="170.08" cy="85.04" r="51.61"/>
            <path class="cls-5" d="m181.34,83.57c.54,0,.98.44.98.98v.98c0,.54-.44.98-.98.98h-.98v-2.94h.98Zm0,3.91c1.08,0,1.96-.88,1.96-1.96v-.98c0-1.08-.88-1.96-1.96-1.96h-1.96v4.9h1.96Zm-3.92-4.9h.98v4.9h-.98v-4.9Zm-1.96,0h.98v4.9h-.98l-1.96-3.07v3.07h-.98v-4.9h.98l1.96,3.07v-3.07Zm-14.69,0h2.94v.98h-1.96v.98h1.96v.98h-1.96v.98h1.96v.98h-2.94v-4.9Zm-3.92,0h.98v3.92h1.96v.98h-2.94v-4.9Zm10.28,3.92h.98c.81,0,1.47-.66,1.47-1.47s-.67-1.47-1.47-1.47h-.98v.98h.98c.27,0,.49.22.49.49s-.22.49-.49.49h-.98v.98Zm.98-4.9c1.89,0,3.43,1.54,3.43,3.43s-1.53,3.43-3.43,3.43-3.43-1.54-3.43-3.43,1.53-3.43,3.43-3.43Zm0,.98c1.35,0,2.45,1.1,2.45,2.45s-1.09,2.45-2.45,2.45-2.45-1.1-2.45-2.45c0-1.35,1.09-2.45,2.45-2.45Z"/>
            <circle class="cls-3" cx="170.08" cy="85.04" r="37.87"/>
            <path class="cls-6" d="m147.76,53.26l-2.51,2.28c13.09,11.56,17.85,30.26,19.31,51.08h.63c-.88-10.48-.54-35.66-17.43-53.36h0Zm13.84,16.77c.51,1.67,1.12,3.95,1.33,5.61,1.54,3.2,4.05,6.22,4.39,25.65h.63c-.14-12.88-.44-24.61-6.35-31.26h0Zm8.12,6.54h.72v21.34h-.72v-21.34Zm8.84-6.54c-.51,1.67-1.12,3.95-1.33,5.61-1.54,3.2-4.05,6.22-4.39,25.65h-.63c.14-12.88.44-24.61,6.35-31.26h0Zm13.84-16.77l2.51,2.28c-13.09,11.56-17.85,30.26-19.31,51.08h-.63c.88-10.48.54-35.66,17.43-53.36h0Z"/>
            <path class="cls-2" d="m170.08,46.68c21.18,0,38.36,17.18,38.36,38.36s-17.18,38.36-38.36,38.36-38.36-17.17-38.36-38.36,17.18-38.36,38.36-38.36h0Zm0,.49c20.91,0,37.87,16.96,37.87,37.87s-16.96,37.87-37.87,37.87-37.87-16.96-37.87-37.87,16.96-37.87,37.87-37.87Z"/>
            <path class="cls-6" d="m170.08,97.01c-1.42,1.34-1.36,2.97-.69,4.48h-.01c-.65-.45-1.25-.64-1.77-.64-.97,0-1.84,1.01-1.86,1.78-.03.7.05,1.35.68,1.75.42.27,1.03.35,1.47.01-.59-.19-.59-.86-.41-1.16.18-.31.49-.54.88-.53.71.02,1.11.62,1.1,1.19-.02.84-1.2,1.93-1.82,2.27.42.79,1.01,2.06,1.25,3.03l-.34.22c-6.48-8.07-13.15-5.68-18.4-11.28.67,7.06,7.22,9.73,11.18,10.64-1.85,1.07-2.29,2.8-2.24,4.33.07,2.18,1.9,3.83,4.3,3.78,2.49-.06,4.28-2.48,2.99-4.75-.49.96-.99,1.82-2.12,1.76-1.13-.06-1.55-1.06-1.56-1.97-.01-1.11.8-1.91,1.85-2.09.74-.13,1.56.05,2.28.39,1.26.61,2.21,2.04,2.17,3.54-.04,1.5-.99,3.2-3.12,4.85,1.34,1.65,2.79,3.79,4.16,6.81,1.37-3.02,2.83-5.16,4.16-6.81-2.12-1.65-3.07-3.35-3.12-4.85-.04-1.5.91-2.93,2.17-3.54.71-.35,1.54-.53,2.28-.39,1.05.19,1.87.99,1.85,2.09-.01.91-.43,1.91-1.56,1.97-1.13.06-1.63-.8-2.12-1.76-1.29,2.27.49,4.69,2.99,4.75,2.4.05,4.22-1.6,4.3-3.78.05-1.53-.39-3.27-2.24-4.33,3.96-.91,10.51-3.58,11.18-10.64-5.25,5.6-11.91,3.21-18.4,11.28l-.34-.22c.24-.97.84-2.24,1.25-3.03-.62-.35-1.81-1.44-1.82-2.27-.01-.57.39-1.17,1.1-1.19.39-.01.7.21.88.53.18.31.18.97-.41,1.16.44.34,1.05.26,1.47-.01.63-.4.7-1.05.68-1.75-.03-.77-.89-1.78-1.86-1.78-.52,0-1.11.19-1.77.66h-.01c.68-1.52.73-3.16-.69-4.5h0Z"/>
            <path class="cls-7" d="m170.98,103.86c0-.42.28-.86.82-.88.34-.01.53.23.62.38.06.11.09.31.03.48-.05.13-.14.21-.28.25l-.53.17c.46.35.84.67,1.47.61.29-.03.56-.13.78-.27.76-.49.84-1.29.81-2-.03-.93-1.04-2.06-2.16-2.06-.4,0-.81.11-1.23.31.14-.45.21-.9.21-1.32,0-1.04-.42-1.97-1.24-2.75l-.2-.19-.2.19c-.83.78-1.24,1.71-1.24,2.75,0,.42.07.86.21,1.32-.42-.2-.83-.3-1.23-.31-1.12,0-2.13,1.13-2.16,2.06-.03.71.05,1.51.81,2,.26.17.59.28.94.28.56,0,.91-.31,1.32-.62-.26-.08-.7-.14-.8-.43-.07-.17-.03-.38.03-.48.08-.15.28-.39.62-.38.53.02.82.46.82.88-.01.69-1.09,1.71-1.67,2.03l-.25.14.13.25c.39.73.84,1.74,1.11,2.58-3.54-4.24-7.08-5.47-10.5-6.66-2.73-.95-5.32-1.84-7.61-4.29l-.59-.63.08.85c.68,7.16,7.3,9.83,10.76,10.74-1.19.92-1.82,2.28-1.82,3.98,0,.08,0,.16,0,.24.08,2.37,2.06,4.12,4.6,4.06,1.38-.03,2.64-.75,3.28-1.88.58-1.03.57-2.23-.04-3.31l-.27-.47-.25.48c-.5.97-.92,1.65-1.84,1.6-1.17-.06-1.28-1.3-1.28-1.68-.01-.9.64-1.63,1.61-1.8.63-.11,1.37.02,2.1.37,1.22.59,2.04,1.93,2,3.27-.04,1.53-1.08,3.13-3,4.62l-.24.18.19.23c1.65,2.03,2.96,4.18,4.13,6.75l.27.59.27-.59c1.17-2.57,2.48-4.71,4.13-6.75l.19-.23-.24-.18c-1.92-1.5-2.96-3.1-3-4.62-.04-1.34.78-2.68,2-3.27.73-.35,1.47-.48,2.1-.37.98.17,1.63.9,1.61,1.8,0,.38-.11,1.62-1.28,1.68-.92.05-1.35-.63-1.84-1.6l-.25-.48-.27.47c-.61,1.07-.63,2.28-.04,3.31.64,1.13,1.9,1.85,3.28,1.88,2.54.06,4.52-1.69,4.6-4.06,0-.08,0-.16,0-.24,0-1.7-.63-3.06-1.82-3.98,3.45-.91,10.08-3.58,10.76-10.74l.08-.85-.59.63c-2.29,2.45-4.88,3.34-7.61,4.29-3.42,1.18-6.96,2.42-10.5,6.66.27-.84.72-1.85,1.11-2.58l.13-.25-.25-.14c-.58-.32-1.66-1.34-1.67-2.03h0Zm-.59,0c.02.91,1.05,1.92,1.74,2.39-.52,1.02-1.07,2.13-1.21,3.28l.73.26.17-.21c3.54-4.4,7.09-5.63,10.53-6.82,2.56-.88,4.99-1.74,7.21-3.82-1.15,6.59-7.88,8.86-10.82,9.53l-.73.17.65.37c1.39.8,2.09,2.1,2.09,3.84,0,.07,0,.15,0,.22-.07,2.04-1.79,3.55-3.99,3.5-1.18-.03-2.24-.63-2.78-1.58-.24-.42-.35-.85-.35-1.3,0-.3.07-.59.17-.89.42.72,1.01,1.44,2.1,1.38,1.34-.07,1.82-1.26,1.84-2.26.01-1.18-.85-2.16-2.1-2.38-.75-.13-1.62.02-2.46.42-1.39.67-2.34,2.18-2.34,3.71v.1c.05,1.65,1.09,3.33,3.01,4.89-1.46,1.84-2.69,3.84-3.76,6.1-1.07-2.26-2.31-4.26-3.76-6.1,1.92-1.56,2.96-3.24,3.01-4.89v-.1c0-1.53-.95-3.04-2.34-3.71-.84-.4-1.71-.55-2.46-.42-1.25.22-2.11,1.2-2.1,2.38.01,1,.5,2.19,1.84,2.26,1.09.06,1.69-.66,2.1-1.38.1.29.17.59.17.89,0,.45-.12.89-.35,1.3-.54.95-1.61,1.56-2.79,1.58-2.21.05-3.93-1.46-3.99-3.5,0-.07,0-.15,0-.22,0-1.75.7-3.04,2.09-3.85l.65-.37-.73-.17c-2.94-.67-9.67-2.94-10.82-9.53,2.22,2.08,4.65,2.93,7.21,3.82,3.44,1.19,6.99,2.42,10.53,6.82l.17.21.73-.26c-.14-1.15-.69-2.26-1.21-3.28.69-.47,1.72-1.48,1.74-2.39,0-.71-.51-1.44-1.39-1.47-.47-.01-.89.23-1.15.67-.1.16-.14.37-.14.57,0,.14.02.29.07.42.04.09.1.16.16.24-.27.03-.54-.04-.74-.17-.49-.31-.57-.82-.55-1.49.02-.59.73-1.5,1.57-1.49.76,0,1.36.43,1.95.85l.26-.24c-.31-.71-.6-1.42-.6-2.21s.29-1.49.85-2.1c.56.61.85,1.31.85,2.1s-.3,1.49-.59,2.21l.23.24c.6-.41,1.2-.85,1.97-.85.84,0,1.55.9,1.57,1.49.03.67-.06,1.18-.55,1.49-.2.13-.48.2-.74.17.06-.08.12-.15.16-.24.05-.13.07-.27.07-.42,0-.21-.05-.41-.14-.57-.26-.44-.68-.69-1.15-.67-.85.03-1.36.76-1.36,1.48Z"/>
            <path class="cls-4" d="m170.08,110.25c.45-1.33.94-2.74,1.5-3.79-.52-.31-1.02-.85-1.5-1.5-.48.64-.98,1.18-1.5,1.5.57,1.05,1.05,2.46,1.5,3.79Z"/>
            <path class="cls-4" d="m170.08,123.44c.73-1.44,1.61-3.01,2.75-4.31-.95-.81-1.91-1.95-2.75-3.32-.85,1.37-1.8,2.51-2.75,3.32,1.14,1.3,2.03,2.87,2.75,4.31Z"/>
            <path class="cls-8" d="m170.85,117.57c-.14,0-.29.08-.43.22-.33.33-.48.85-.6,1.27v.04c-.04.09-.07.2-.09.29-.08-.03-.18-.06-.28-.07.08-.22.14-.43.13-.64,0-.07-.06-.13-.14-.13-.07,0-.13.06-.13.14.01.33-.17.69-.39,1.1-.03.06-.01.14.05.18s.14.01.18-.05c.06-.12.13-.23.18-.34.12.01.22.04.32.08-.17.69-.33,1.43-.42,1.98,0,0,0,.01,0,.02,0,.06.04.12.11.13.07.01.14-.03.15-.11.1-.53.24-1.26.41-1.93.11.04.22.08.34.09.57.05.88-.48.97-.95.07-.36.09-.99-.12-1.21-.06-.06-.14-.1-.24-.1h0Zm-.79,1.61v-.05c.13-.39.27-.87.55-1.15.13-.13.21-.15.25-.15h0s.05.01.06.02c.08.08.14.5.05.98-.07.36-.29.77-.69.74-.09,0-.18-.04-.29-.08.02-.1.05-.21.08-.3Z"/>
            <path class="cls-2" d="m170.08,34.77c27.76,0,50.27,22.51,50.27,50.27,0,15.32-6.86,29.04-17.67,38.26l-5.9-8.28c6.8-6.06,11.53-14.39,12.98-23.8.03-.17,0-.24.2-.29.16-.05.34-.1.49-.17.06-.03.12-.07.18-.12.04-.04.06-.13.08-.22.03-.17.08-.4.36-.48.32-.1.6.13.95.41.2.16.42.34.7.5.69.4,1.32.57,2.17.6.74.02,1.38-.09,2.12-.7.29-.24.5-.49.73-.79.2-.26.44-.5.79-.5.27,0,.48.13.58.34.04.09.06.19.06.29,0,.02,0,.03,0,.05.11-.13.18-.27.19-.41v-.02c0-.24-.13-.42-.23-.53-.2-.21-.51-.34-.8-.33-.57,0-1.04.29-1.53.58-.25.15-.5.3-.77.42-.59.25-1.27.36-2.13.34-1.28-.03-2.09-.61-2.54-1.09-.52-.55-.84-1.26-.83-1.82.03-.99.4-1.25.44-1.28l.03-.02,1.61-.11-.13.21s-.23.39-.25,1.2v.06c0,1.01.7,1.42.85,1.5.06-.01.36-.09.62-.15-.33-.25-.86-.78-.86-1.57v-.04c.03-1.01.68-1.55,1.84-1.52.79.02,1.63.55,1.61,1.36,0,.3-.1.53-.28.7-.25.24-.59.26-.73.26-.23,0-.43-.13-.58-.25.03.13.08.29.2.42.21.24.55.37,1.01.38.5.01,1.26-.46,1.28-1.19,0-.32-.04-.49-.08-.62-.06-.2-.08-.32.1-.54.21-.26.53-.15.74-.07l.18.05c.16,0,.63-.43,1.11-1.01-.48-.58-.94-1.01-1.11-1.01l-.18.05c-.21.07-.52.18-.74-.07-.18-.22-.16-.35-.1-.54.04-.13.09-.3.08-.62-.02-.74-.78-1.21-1.28-1.19-.47.01-.81.14-1.01.38-.11.14-.17.29-.2.42.15-.13.34-.25.58-.25.13,0,.47.01.73.26.18.17.27.41.28.7.02.81-.82,1.34-1.61,1.36-1.16.03-1.82-.51-1.84-1.52v-.04c0-.78.54-1.31.86-1.57-.26-.07-.56-.14-.62-.15-.16.08-.85.49-.85,1.5v.06c.02.81.25,1.2.25,1.2l.13.21h-.25s-1.36-.1-1.36-.1l-.03-.02s-.42-.29-.44-1.28c-.01-.56.31-1.28.83-1.82.46-.48,1.27-1.06,2.54-1.09.86-.02,1.54.08,2.13.34.27.11.52.27.77.42.5.3.97.58,1.53.58.29,0,.59-.13.8-.33.11-.11.23-.29.23-.53v-.02c0-.14-.07-.28-.19-.41,0,.02.01.04.01.05,0,.1-.02.2-.06.29-.1.21-.31.34-.58.34-.35,0-.59-.24-.79-.5-.23-.3-.45-.55-.73-.79-.74-.61-1.39-.72-2.12-.7-.85.02-1.48.2-2.17.6-.28.16-.5.34-.7.5-.35.28-.63.5-.95.41-.29-.08-.33-.32-.36-.48-.02-.09-.03-.17-.08-.22-.07-.06-.14-.1-.2-.13-.14-.06-.28-.1-.43-.14-.22-.07-.2-.13-.24-.33-2.98-19.23-19.61-33.94-39.67-33.94s-36.69,14.73-39.67,33.96c-.03.17,0,.25-.2.31-.16.05-.32.1-.46.15-.18.07-.25.16-.28.35-.03.17-.08.4-.36.48-.32.1-.6-.13-.95-.41-.2-.16-.42-.34-.7-.5-.69-.4-1.32-.57-2.17-.6-.74-.02-1.38.09-2.12.7-.29.24-.5.49-.73.79-.2.26-.44.5-.79.5-.27,0-.48-.13-.58-.34-.04-.09-.06-.19-.06-.29,0-.02,0-.04.01-.05-.11.13-.18.27-.19.41v.02c0,.24.13.42.23.53.2.21.51.34.8.33.57,0,1.04-.29,1.53-.58.25-.15.5-.3.77-.42.59-.25,1.27-.36,2.13-.34,1.28.03,2.09.61,2.54,1.09.52.55.84,1.26.83,1.82-.03.99-.4,1.25-.44,1.28l-.03.02-1.36.09h-.25s.13-.2.13-.2c0,0,.23-.39.25-1.2v-.06c0-1.02-.7-1.42-.85-1.5-.06.01-.36.09-.62.15.33.25.86.78.86,1.57v.04c-.03,1.01-.68,1.55-1.84,1.52-.79-.02-1.63-.55-1.61-1.36,0-.3.1-.53.28-.7.25-.24.59-.26.73-.26.23,0,.43.13.58.25-.03-.13-.08-.29-.2-.42-.21-.24-.55-.37-1.01-.38-.5-.01-1.26.46-1.28,1.19,0,.32.04.49.08.62.06.2.08.32-.1.54-.21.25-.53.15-.74.07l-.19-.04c-.16,0-.63.42-1.11,1.01.48.58.94,1.01,1.11,1.01l.18-.05c.21-.07.52-.18.74.07.18.22.16.35.1.54-.04.13-.09.3-.08.62.02.74.78,1.21,1.28,1.19.47-.01.81-.14,1.01-.38.11-.14.17-.29.2-.42-.15.13-.34.25-.58.25-.13,0-.47-.01-.73-.26-.18-.17-.27-.41-.28-.7-.02-.81.82-1.34,1.61-1.36,1.16-.03,1.82.51,1.84,1.52v.04c0,.78-.54,1.31-.86,1.57.26.07.56.14.62.15.16-.08.85-.49.85-1.5v-.06c-.02-.81-.25-1.2-.25-1.2l-.13-.21,1.61.11.03.02s.42.29.44,1.28c.01.56-.31,1.28-.83,1.82-.46.48-1.27,1.06-2.54,1.09-.86.02-1.54-.08-2.13-.34-.27-.11-.52-.27-.77-.42-.5-.3-.97-.58-1.53-.58-.29,0-.59.13-.8.33-.11.11-.23.29-.23.53v.02c0,.14.07.28.19.41,0-.02,0-.03,0-.05,0-.1.02-.2.06-.29.1-.21.31-.34.58-.34.35,0,.59.24.79.5.23.3.45.55.73.79.74.61,1.39.72,2.12.7.85-.02,1.48-.2,2.17-.6.28-.16.5-.34.7-.5.35-.28.63-.5.95-.41.29.08.33.32.36.48.03.16.07.23.21.31.15.09.35.14.53.19.18.05.17.1.2.27,1.45,9.43,6.18,17.77,12.99,23.84l-5.9,8.28c-10.81-9.22-17.67-22.94-17.67-38.27,0-27.76,22.51-50.27,50.27-50.27h0Zm26.25,80.65l5.9,8.27c-.15.13-.3.25-.45.38l-5.89-8.26c.15-.13.3-.25.45-.38Zm-.9.76l5.89,8.25-.46.36-5.88-8.25c.15-.12.31-.24.46-.37h0Zm-.92.73l5.88,8.24c-.37.28-.74.55-1.11.82l-5.88-8.24c.38-.27.74-.55,1.11-.83Zm-47.74.83l-5.88,8.24c-.38-.27-.74-.54-1.11-.82l5.88-8.24c.36.28.73.55,1.11.82h0Zm-1.57-1.19l-5.88,8.25c-.15-.12-.31-.24-.46-.36l5.89-8.25c.15.13.31.25.46.37Zm-.91-.74l-5.89,8.26c-.15-.13-.3-.25-.45-.38l5.9-8.27c.15.13.3.26.45.38Z"/>
            <g id="_250593560" data-name=" 250593560">
              <circle id="_255379976" data-name=" 255379976" class="cls-7" cx="170.08" cy="54.88" r="15.8"/>
              <circle id="_255380552" data-name=" 255380552" class="cls-8" cx="170.08" cy="54.88" r="15.21"/>
              <circle id="_255381128" data-name=" 255381128" class="cls-1" cx="170.08" cy="54.88" r="12.96"/>
              <circle id="_250594904" data-name=" 250594904" class="cls-7" cx="170.08" cy="54.88" r="12.77"/>
              <circle id="_250594088" data-name=" 250594088" class="cls-1" cx="170.08" cy="54.88" r="12.18"/>
              <circle id="_250598672" data-name=" 250598672" class="cls-8" cx="170.08" cy="54.88" r="11.98"/>
              <circle id="_250598144" data-name=" 250598144" class="cls-1" cx="170.08" cy="54.88" r="10.97"/>
              <circle id="_250597640" data-name=" 250597640" class="cls-3" cx="170.08" cy="54.88" r="10.77"/>
              <path id="_250595384" data-name=" 250595384" class="cls-6" d="m178.93,49.09l-.81-.81-.78.78-.03.42-3.46,3.46-.42.03-.78.78.81.81.78-.78.03-.42,3.46-3.46.42-.03s.78-.78.78-.78Zm-1.14-1.11l-.81-.81-.78.78-.03.42-3.46,3.46-.42.03-.78.78.81.81.78-.78.03-.42,3.46-3.46.42-.03s.78-.78.78-.78Zm-1.13-1.13l-.81-.81-.78.78-.03.42-3.46,3.46-.42.03-.78.78.81.81.78-.78.03-.42,3.46-3.46.42-.03s.78-.78.78-.78Zm-12.36,16.88l-.81-.81.78-.78.42-.03,3.46-3.46.03-.42.78-.78.81.81-.78.78-.42.03-3.46,3.46-.03.42-.78.78h0Zm-1.12-1.14l-.81-.81.78-.78.42-.03,3.46-3.46.03-.42.78-.78.81.81-.78.78-.42.03-3.46,3.46-.03.42-.78.78Zm-1.13-1.13l-.81-.81.78-.78.42-.03,3.46-3.46.03-.42.78-.78.81.81-.78.78-.42.03-3.46,3.46-.03.42-.78.78h0Zm16.88-.8l-.81.81-.78-.78-.03-.42-3.46-3.46-.42-.03-.78-.78.81-.81.78.78.03.42,3.46,3.46.42.03s.78.78.78.78Zm-1.14,1.11l-.81.81-.78-.78-.03-.42-3.46-3.46-.42-.03-.78-.78.81-.81.78.78.03.42,3.46,3.46.42.03.78.78Zm-1.13,1.13l-.81.81-.78-.78-.03-.42-3.46-3.46-.42-.03-.78-.78.81-.81.78.78.03.42,3.46,3.46.42.03s.78.78.78.78Zm-12.36-16.88l-.81.81.78.78.42.03,3.46,3.46.03.42.78.78.81-.81-.78-.78-.42-.03-3.46-3.46-.03-.42-.78-.78h0Zm-1.12,1.15l-.81.81.78.78.42.03,3.46,3.46.03.42.78.78.81-.81-.78-.78-.42-.03-3.46-3.46-.03-.42s-.78-.78-.78-.78Zm-1.13,1.13l-.81.81.78.78.42.03,3.46,3.46.03.42.78.78.81-.81-.78-.78-.42-.03-3.46-3.46-.03-.42-.78-.78h0Zm8.02,8.03l.81.81-.81.81-.81-.81.81-.81Zm-1.13-1.13l.81.81-.81.81-.81-.81.81-.81Zm-1.13-1.13l.81.81-.81.81-.81-.81.81-.81Zm1.13-1.13l.81.81-.81.81-.81-.81.81-.81Zm1.13,1.13l.81.81-.81.81-.81-.81.81-.81Zm1.13,1.13l.81.81-.81.81-.81-.81.81-.81Zm1.13-1.13l.81.81-.81.81-.81-.81.81-.81Zm-1.13-1.13l.81.81-.81.81-.81-.81.81-.81Zm-1.13-1.13l.81.81-.81.81-.81-.81.81-.81Z"/>
              <path id="_250593320" data-name=" 250593320" class="cls-1" d="m170.08,42.91s-.07.02-.08.05c0,0-.31.51-.42.69-.13-.17-.48-.66-.48-.66-.02-.03-.06-.04-.09-.04-.03,0-.06.02-.08.06,0,0-.27.55-.36.73-.14-.16-.54-.62-.54-.62-.02-.03-.06-.04-.09-.03-.03,0-.06.03-.07.06,0,0-.21.57-.29.76-.15-.15-.59-.56-.59-.56-.03-.02-.06-.03-.09-.02-.03,0-.06.03-.07.07,0,0-.16.58-.22.79-.17-.13-.64-.51-.64-.51-.03-.02-.06-.03-.1-.01-.03.01-.06.04-.06.07,0,0-.11.6-.15.8-.18-.12-.68-.45-.68-.45-.03-.02-.07-.02-.1,0-.03.01-.05.04-.06.08,0,0-.06.6-.07.81-.19-.1-.72-.39-.72-.39-.03-.01-.07-.01-.1,0-.03.02-.05.05-.05.08v.82c-.2-.08-.75-.32-.75-.32-.03-.01-.07-.01-.1.01-.03.02-.04.05-.04.08h0s.05.61.07.82c-.2-.07-.78-.25-.78-.25-.03-.01-.07,0-.1.02-.02.02-.03.04-.03.07v.02s.11.6.14.8c-.21-.05-.8-.18-.8-.18-.03,0-.07,0-.09.03-.02.02-.03.04-.03.07,0,0,0,.02,0,.03,0,0,.16.58.22.79-.21-.03-.81-.11-.81-.11-.03,0-.07,0-.09.04-.01.02-.02.04-.02.06,0,.01,0,.02,0,.03,0,0,.21.57.28.77-.21,0-.82-.04-.82-.04-.03,0-.07.01-.08.04-.01.01-.01.04-.01.06,0,.01,0,.03.01.04,0,0,.26.55.35.74-.21.01-.82.04-.82.04-.03,0-.07.02-.08.05,0,.01-.01.03-.01.05s0,.03.01.05c0,0,.31.52.42.7-.21.03-.81.11-.81.11-.03,0-.06.03-.08.06,0,.01,0,.03,0,.04,0,.02,0,.04.02.06,0,0,.35.49.48.66-.21.05-.8.18-.8.18-.03,0-.06.03-.07.07,0,.01,0,.02,0,.03,0,.02,0,.05.03.06,0,0,.4.46.54.62-.2.07-.77.25-.77.25-.03.01-.06.04-.07.07,0,0,0,.01,0,.02,0,.03.01.05.03.07,0,0,.44.42.59.56-.2.08-.75.32-.75.32-.03.01-.06.04-.06.08h0s.01.07.04.09c0,0,.47.38.64.51-.19.1-.72.39-.72.39-.03.01-.05.05-.05.08h0s.01.07.04.08c0,0,.5.34.68.45-.18.12-.68.45-.68.45-.03.02-.04.05-.04.08h0s.02.07.05.08c0,0,.53.29.72.39-.17.13-.64.51-.64.51-.02.02-.04.05-.04.08h0s.03.08.06.09c0,0,.56.24.75.32-.15.15-.59.56-.59.56-.02.02-.03.04-.03.07,0,0,0,.01,0,.02,0,.03.03.06.07.07,0,0,.57.19.78.25-.14.16-.53.62-.53.62-.01.02-.03.04-.03.06,0,.01,0,.02,0,.03.01.03.04.06.07.07,0,0,.59.14.8.18-.13.17-.48.66-.48.66-.01.02-.02.04-.02.06,0,.01,0,.03,0,.04.01.03.04.06.08.06,0,0,.6.08.81.11-.11.18-.42.7-.42.7-.01.01-.01.03-.01.05,0,.01,0,.03.01.05.01.03.05.05.08.05,0,0,.6.03.82.04-.09.19-.35.74-.35.74,0,.01-.01.03-.01.04,0,.02,0,.04.01.06.02.03.05.04.08.04,0,0,.6-.03.81-.04-.07.2-.28.77-.28.77,0,.01,0,.02,0,.03,0,.02,0,.04.02.06.02.03.06.04.09.04,0,0,.6-.08.81-.11-.06.2-.22.79-.22.79,0,0,0,.02,0,.03,0,.03.01.05.03.07.02.03.06.04.09.03,0,0,.59-.13.8-.18-.04.21-.14.8-.14.8v.02s.01.06.03.07c.03.02.06.03.1.02,0,0,.57-.18.78-.25-.02.21-.07.81-.07.81h0s.01.07.04.08c.03.02.06.03.1.01,0,0,.56-.24.75-.32v.82s.02.07.05.08c.03.02.07.02.1,0,0,0,.53-.29.72-.39.02.21.07.81.07.81,0,.03.03.06.06.08.03.01.07.01.1,0,0,0,.5-.33.68-.45.04.21.15.8.15.8,0,.03.03.06.06.07s.07,0,.1-.01c0,0,.48-.38.64-.51.06.2.22.79.22.79,0,.03.04.06.07.07s.07,0,.09-.02c0,0,.44-.42.59-.56.07.2.29.77.29.77.01.03.04.06.07.06s.07,0,.09-.03c0,0,.4-.45.54-.62.09.19.35.74.35.74.01.03.04.05.08.06.03,0,.07-.01.09-.04,0,0,.36-.49.48-.66.11.18.42.7.42.7.02.03.05.05.08.05h0s.07-.02.08-.05c0,0,.31-.52.42-.7.13.17.48.66.48.66.02.03.06.04.09.04s.06-.02.08-.06c0,0,.27-.55.36-.74.14.16.54.62.54.62.02.03.06.04.09.03.03,0,.06-.03.07-.06,0,0,.21-.57.29-.76.15.15.59.56.59.56.03.02.06.03.09.02.03,0,.06-.03.07-.07,0,0,.16-.58.22-.79.17.13.64.51.64.51.03.02.06.03.1.01s.06-.04.06-.07c0,0,.11-.59.15-.8.18.12.69.45.69.45.03.02.07.02.1,0s.05-.04.06-.08c0,0,.06-.6.07-.81.19.1.72.38.72.38.03.01.07.01.1,0s.05-.05.05-.08v-.81c.2.08.76.32.76.32.03.01.07,0,.1-.01.03-.02.04-.05.04-.08h0s-.05-.61-.07-.82c.2.07.78.25.78.25.03.01.07,0,.1-.02.02-.02.03-.04.03-.07v-.02s-.1-.58-.14-.8c.22.06.86.24.86.24.03.01.07,0,.1-.03.02-.02.03-.04.03-.07,0-.01,0-.02,0-.03,0,0-.21-.63-.28-.85.22.03.8.11.8.11.03,0,.07,0,.09-.04.01-.02.02-.04.02-.06,0-.01,0-.02,0-.03,0,0-.21-.57-.28-.77.21.01.82.04.82.04.03,0,.07-.01.08-.04.01-.01.01-.04.01-.06,0-.01,0-.03-.01-.04,0,0-.26-.55-.35-.74.21-.01.82-.04.82-.04.03,0,.07-.02.08-.05,0-.01.01-.03.01-.05s0-.03-.01-.05c0,0-.31-.52-.42-.7.21-.03.81-.11.81-.11.03,0,.06-.03.08-.06,0-.01,0-.03,0-.04,0-.02,0-.04-.02-.06,0,0-.35-.49-.48-.66.21-.05.8-.18.8-.18.03,0,.06-.03.07-.07,0-.01,0-.02,0-.03,0-.02,0-.05-.02-.06,0,0-.4-.46-.53-.62.2-.07.78-.25.78-.25.03-.01.06-.04.07-.07,0,0,0-.01,0-.02,0-.03-.01-.05-.03-.07,0,0-.43-.42-.59-.56.2-.08.75-.32.75-.32.03-.01.06-.04.06-.08h0s-.01-.07-.04-.09c0,0-.47-.38-.64-.51.19-.1.72-.39.72-.39.03-.01.05-.05.05-.08h0s-.01-.07-.04-.08c0,0-.5-.34-.68-.45.18-.12.68-.45.68-.45.03-.02.04-.05.04-.08h0s-.02-.07-.05-.08c0,0-.53-.29-.72-.39.17-.13.64-.51.64-.51.02-.02.04-.05.04-.08h0s-.03-.08-.06-.09c0,0-.55-.24-.75-.32.15-.15.59-.56.59-.56.02-.02.03-.04.03-.07,0,0,0-.01,0-.02,0-.03-.03-.06-.07-.07,0,0-.57-.18-.77-.25.14-.16.54-.62.54-.62.01-.02.03-.04.03-.06,0-.01,0-.02,0-.03-.01-.03-.04-.06-.07-.07,0,0-.59-.14-.8-.18.13-.17.48-.66.48-.66.01-.02.02-.04.02-.06,0-.01,0-.03,0-.04-.01-.03-.04-.06-.08-.06,0,0-.6-.08-.81-.11.11-.18.42-.7.42-.7,0-.01.01-.03.01-.05,0-.01,0-.03-.01-.05-.01-.03-.05-.05-.08-.05,0,0-.6-.03-.82-.04.09-.19.35-.74.35-.74,0-.01.01-.03.01-.04,0-.02,0-.04-.01-.06-.02-.03-.05-.04-.08-.04,0,0-.6.03-.82.03.07-.2.29-.77.29-.77,0-.01,0-.02,0-.03,0-.02,0-.04-.02-.06-.02-.03-.06-.04-.09-.04,0,0-.6.08-.81.11.06-.2.22-.79.22-.79,0,0,0-.02,0-.03,0-.03-.01-.05-.03-.07-.02-.03-.06-.04-.09-.03,0,0-.59.13-.8.18.04-.21.14-.8.14-.8v-.02s-.01-.06-.03-.07c-.03-.02-.06-.03-.1-.02,0,0-.58.18-.78.25.02-.21.07-.81.07-.81h0s-.01-.07-.04-.08c-.03-.02-.06-.03-.1-.01,0,0-.56.24-.75.32v-.82s-.02-.07-.05-.08-.07-.02-.1,0c0,0-.53.28-.72.38-.02-.21-.07-.81-.07-.81,0-.03-.03-.06-.06-.08-.03-.01-.07-.01-.1,0,0,0-.5.33-.68.45-.04-.21-.15-.8-.15-.8,0-.03-.03-.06-.06-.07s-.07,0-.1.01c0,0-.48.38-.64.51-.06-.2-.22-.79-.22-.79-.01-.03-.04-.06-.07-.07s-.07,0-.09.02c0,0-.44.42-.59.56-.07-.2-.29-.77-.29-.77-.01-.03-.04-.06-.07-.06s-.07,0-.09.03c0,0-.4.45-.54.61-.09-.19-.35-.74-.35-.74-.01-.03-.04-.05-.08-.06-.03,0-.07.01-.09.04,0,0-.36.49-.48.66-.11-.18-.43-.69-.43-.69-.04,0-.07-.03-.11-.03h0Zm-.49,1.01s.06-.02.08-.05c0,0,.3-.49.41-.68.12.19.43.68.43.68.02.03.05.04.08.04s.06-.01.08-.04c0,0,.34-.46.47-.65.1.2.35.72.35.72.01.03.04.05.07.06s.07,0,.09-.03c0,0,.38-.43.53-.6.08.21.28.75.28.75.01.03.04.06.07.06s.07,0,.09-.03c0,0,.42-.4.58-.55.06.22.21.77.21.77,0,.03.03.06.06.07.03.01.07,0,.09-.01,0,0,.45-.36.63-.5.04.22.14.79.14.79,0,.03.03.06.06.07.03.01.07.01.09,0,0,0,.48-.32.67-.44.02.22.07.8.07.8,0,.03.02.06.05.08s.06.01.09,0c0,0,.51-.27.71-.38v.8s.01.06.04.08c.03.02.06.02.09,0,0,0,.53-.22.74-.31-.02.22-.07.8-.07.8h0s.01.07.04.08c.03.02.06.03.09.02,0,0,.55-.18.76-.25-.04.22-.14.79-.14.79v.02s.01.05.03.07c.02.02.06.03.09.03,0,0,.56-.13.78-.18-.06.22-.21.77-.21.77,0,0,0,.02,0,.03,0,.02,0,.05.03.06.02.03.06.04.09.03,0,0,.57-.08.8-.11-.08.21-.28.75-.28.75,0,.01,0,.02,0,.03,0,.02,0,.04.02.06.02.03.05.04.08.04,0,0,.57-.03.8-.03-.1.2-.35.72-.35.72,0,.01-.01.03-.01.04,0,.02,0,.03.01.05.02.03.05.05.08.05,0,0,.57.03.8.04-.11.19-.41.69-.41.69,0,.01-.01.03-.01.05,0,.01,0,.03.01.04.01.03.04.05.07.06,0,0,.57.08.79.11-.13.18-.47.65-.47.65-.01.02-.02.04-.02.06,0,.01,0,.02,0,.03.01.03.04.06.07.06,0,0,.56.13.78.18-.15.17-.53.6-.53.6-.01.02-.03.04-.03.06,0,0,0,.02,0,.03,0,.03.03.06.06.07,0,0,.54.17.76.24-.17.15-.57.55-.57.55-.02.02-.03.04-.03.07v.02s.03.06.06.07c0,0,.53.23.74.32-.18.14-.63.5-.63.5-.02.02-.04.05-.04.08h0s.02.07.05.08c0,0,.5.27.7.38-.19.13-.67.44-.67.44-.03.02-.04.05-.04.08h0s.01.06.04.08c0,0,.48.32.67.44-.2.11-.71.38-.71.38-.03.01-.05.04-.05.08h0s.01.07.04.08c0,0,.45.36.63.5-.21.09-.74.32-.74.32-.03.01-.05.04-.06.07v.02s.01.05.03.07c0,0,.42.4.58.56-.21.07-.76.25-.76.25-.03.01-.06.04-.06.07,0,0,0,.02,0,.03,0,.02,0,.05.02.06,0,0,.38.43.53.6-.22.05-.78.18-.78.18-.03,0-.06.03-.07.06,0,.01,0,.02,0,.03,0,.02,0,.04.02.06,0,0,.34.47.47.65-.22.03-.79.11-.79.11-.03,0-.06.03-.07.06,0,.01-.01.03-.01.04,0,.02,0,.03.01.05,0,0,.29.49.41.69-.22.01-.8.04-.8.04-.03,0-.06.02-.08.05,0,.01-.01.03-.01.05,0,.01,0,.03.01.04,0,0,.25.52.35.73-.22-.01-.8-.04-.8-.04-.03,0-.06.01-.08.04-.01.02-.02.04-.02.06,0,.01,0,.02,0,.03,0,0,.2.54.28.75-.22-.03-.8-.11-.8-.11-.03,0-.07,0-.09.03-.01.02-.02.04-.02.06,0,.01,0,.02,0,.03,0,0,.19.59.27.83-.24-.07-.84-.23-.84-.23-.03,0-.07,0-.09.02-.02.02-.03.04-.03.07v.02s.1.57.14.79c-.21-.07-.76-.25-.76-.25-.03-.01-.07,0-.09.02-.02.02-.04.05-.04.08h0s.05.58.07.81c-.21-.09-.74-.31-.74-.31-.03-.01-.07-.01-.09,0-.03.02-.04.05-.04.08v.8c-.2-.11-.7-.38-.7-.38-.03-.01-.06-.01-.09,0s-.05.04-.05.08c0,0-.05.57-.07.8-.19-.13-.67-.44-.67-.44-.03-.02-.06-.02-.09,0s-.05.04-.06.07c0,0-.1.57-.14.79-.18-.14-.63-.5-.63-.5-.03-.02-.06-.03-.09-.01-.03.01-.06.04-.06.07,0,0-.15.56-.21.77-.16-.15-.58-.55-.58-.55-.02-.02-.06-.03-.09-.03-.03,0-.06.03-.07.06,0,0-.2.54-.28.75-.15-.17-.53-.6-.53-.6-.02-.03-.06-.04-.09-.03-.03,0-.06.03-.07.06,0,0-.25.52-.35.72-.13-.18-.47-.64-.47-.64-.02-.03-.05-.04-.08-.04s-.06.02-.08.05c0,0-.3.49-.41.69-.11-.19-.41-.69-.41-.69-.02-.03-.05-.04-.08-.05-.03,0-.06.01-.08.04,0,0-.34.46-.47.65-.1-.2-.35-.72-.35-.72-.01-.03-.04-.05-.07-.06-.03,0-.07,0-.09.03,0,0-.38.43-.53.6-.08-.21-.28-.75-.28-.75-.01-.03-.04-.06-.07-.06-.03,0-.07,0-.09.03,0,0-.42.4-.58.55-.06-.22-.21-.77-.21-.77,0-.03-.03-.06-.06-.07s-.07,0-.09.01c0,0-.45.36-.63.5-.04-.22-.14-.79-.14-.79,0-.03-.03-.06-.06-.07-.03-.01-.07-.01-.09,0,0,0-.48.32-.67.44-.02-.22-.07-.8-.07-.8,0-.03-.02-.06-.05-.08s-.06-.01-.09,0c0,0-.51.27-.71.38v-.8s-.02-.06-.04-.08-.06-.02-.09,0c0,0-.53.22-.74.31.02-.22.07-.8.07-.8h0s-.01-.07-.04-.08c-.03-.02-.06-.03-.09-.02,0,0-.55.18-.76.25.04-.22.14-.79.14-.79v-.02s-.01-.05-.03-.07c-.02-.02-.06-.03-.09-.03,0,0-.56.13-.78.18.06-.22.21-.77.21-.77,0,0,0-.02,0-.03,0-.02,0-.05-.03-.06-.02-.03-.06-.04-.09-.03,0,0-.57.07-.8.1.08-.21.28-.75.28-.75,0-.01,0-.02,0-.03,0-.02,0-.04-.02-.06-.02-.03-.05-.04-.08-.04,0,0-.57.03-.8.03.1-.2.35-.72.35-.72,0-.01.01-.03.01-.04,0-.02,0-.03-.01-.05-.02-.03-.05-.05-.08-.05,0,0-.57-.03-.8-.04.11-.19.41-.69.41-.69.01-.01.01-.03.01-.05,0-.01,0-.03-.01-.04-.01-.03-.04-.05-.07-.06,0,0-.57-.08-.8-.11.13-.18.47-.65.47-.65.01-.02.02-.04.02-.06,0-.01,0-.02,0-.03-.01-.03-.04-.06-.07-.06,0,0-.56-.13-.78-.18.15-.17.53-.6.53-.6.01-.02.03-.04.03-.06,0,0,0-.02,0-.03,0-.03-.03-.06-.06-.07,0,0-.55-.18-.76-.25.16-.15.58-.55.58-.55.02-.02.03-.04.03-.07v-.02s-.03-.06-.06-.07c0,0-.53-.23-.74-.32.18-.14.63-.5.63-.5.02-.02.04-.05.04-.08h0s-.02-.07-.05-.08c0,0-.51-.28-.7-.38.19-.13.67-.44.67-.44.03-.02.04-.05.04-.08h0s-.01-.06-.04-.08c0,0-.48-.32-.67-.44.2-.11.71-.38.71-.38.03-.01.05-.04.05-.08h0s-.01-.07-.04-.08c0,0-.45-.36-.63-.5.21-.09.74-.32.74-.32.03-.01.05-.04.06-.07v-.02s-.01-.05-.03-.07c0,0-.42-.4-.58-.55.21-.07.76-.25.76-.25.03-.01.06-.04.06-.07,0,0,0-.02,0-.03,0-.02,0-.05-.03-.06,0,0-.38-.43-.53-.6.22-.05.78-.18.78-.18.03,0,.06-.03.07-.06,0-.01,0-.02,0-.03,0-.02,0-.04-.02-.06,0,0-.34-.47-.47-.65.22-.03.8-.11.8-.11.03,0,.06-.03.07-.06,0-.01.01-.03.01-.04,0-.02,0-.03-.01-.05,0,0-.29-.49-.41-.69.22-.01.8-.04.8-.04.03,0,.06-.02.08-.05,0-.01.01-.03.01-.05,0-.01,0-.03-.01-.04,0,0-.25-.52-.35-.72.22.01.8.03.8.03.03,0,.06-.01.08-.04.01-.02.02-.04.02-.06,0-.01,0-.02,0-.03,0,0-.2-.54-.28-.75.22.03.8.11.8.11.03,0,.07,0,.09-.03.01-.02.03-.04.03-.06,0,0,0-.02,0-.03,0,0-.15-.56-.21-.77.22.05.78.18.78.18.03,0,.07,0,.09-.03.02-.02.03-.04.03-.07v-.02s-.1-.57-.14-.79c.21.07.76.25.76.25.03.01.07,0,.09-.02.02-.02.04-.05.04-.08h0s-.05-.58-.07-.81c.21.09.74.31.74.31.03.01.07.01.09,0s.04-.05.04-.08v-.8c.2.11.71.38.71.38.03.01.06.01.09,0s.05-.04.05-.08c0,0,.05-.57.07-.8.19.13.67.44.67.44.03.02.06.02.09,0,.03-.01.05-.04.06-.07,0,0,.1-.57.14-.79.18.14.63.5.63.5.03.02.06.03.09.01.03-.01.06-.04.06-.07,0,0,.15-.56.21-.77.16.15.58.55.58.55.02.02.06.03.09.03.03,0,.06-.03.07-.06,0,0,.2-.54.28-.75.15.17.53.6.53.6.02.03.06.04.09.03.03,0,.06-.03.07-.06,0,0,.25-.52.35-.72.13.18.47.65.47.65.02.02.05.04.08.04h0Z"/>
              <path id="_250597160" data-name=" 250597160" class="cls-1" d="m178.04,48.21l-.78.78s-.03.04-.03.06c0,0-.02.32-.03.38-.05.05-3.36,3.36-3.41,3.41-.06,0-.38.03-.38.03-.02,0-.04.01-.06.03l-.78.78s-.03.04-.03.07.01.05.03.07l.81.81s.04.03.07.03h0s.05-.01.07-.03l.78-.78s.03-.04.03-.06c0,0,.02-.32.03-.38.05-.05,3.36-3.36,3.41-3.41.06,0,.38-.03.38-.03.02,0,.04-.01.06-.03l.78-.78s.03-.04.03-.07h0s-.01-.05-.03-.07l-.81-.81s-.1-.04-.14,0h0Zm.07.21c.11.11.57.57.68.68-.11.11-.64.64-.69.69-.06,0-.38.03-.38.03-.02,0-.04.01-.06.03l-3.46,3.46s-.03.04-.03.06c0,0-.02.32-.03.38-.04.04-.57.57-.69.69-.11-.11-.57-.57-.67-.68.11-.11.64-.64.69-.69.06,0,.38-.03.38-.03.02,0,.04-.01.06-.03l3.46-3.46s.03-.04.03-.06c0,0,.02-.32.03-.38.04-.04.57-.57.68-.69h0Zm-1.21-1.32l-.78.78s-.03.04-.03.06c0,0-.02.32-.03.38-.05.05-3.36,3.36-3.41,3.41-.06,0-.38.03-.38.03-.02,0-.04.01-.06.03l-.78.78s-.03.04-.03.07h0s.01.05.03.07l.81.81s.1.04.14,0l.78-.78s.03-.04.03-.06c0,0,.02-.32.03-.38.05-.05,3.36-3.36,3.41-3.41.06,0,.38-.03.38-.03.02,0,.04-.01.06-.03l.78-.78s.03-.04.03-.07h0s-.01-.05-.03-.07l-.81-.81s-.1-.04-.14,0Zm.07.21c.11.11.57.57.68.68-.11.11-.64.64-.69.69-.06,0-.38.03-.38.03-.02,0-.04.01-.06.03l-3.46,3.46s-.03.04-.03.06c0,0-.02.32-.03.38-.04.04-.57.57-.69.69-.11-.11-.57-.57-.68-.68.11-.11.64-.64.69-.69.06,0,.38-.03.38-.03.02,0,.04-.01.06-.03l3.46-3.46s.03-.04.03-.06c0,0,.02-.32.03-.38.04-.04.57-.57.69-.69Zm-1.13-1.36s-.05.01-.07.03l-.78.78s-.03.04-.03.06c0,0-.02.32-.03.38-.05.05-3.36,3.36-3.41,3.41-.06,0-.38.03-.38.03-.02,0-.04.01-.06.03l-.78.78s-.03.04-.03.07h0s.01.05.03.07l.81.81s.1.04.14,0l.78-.78s.03-.04.03-.06c0,0,.02-.32.03-.38.05-.05,3.36-3.36,3.41-3.41.06,0,.38-.03.38-.03.02,0,.04-.01.06-.03l.78-.78s.03-.04.03-.07-.01-.05-.03-.07l-.81-.81s-.04-.03-.07-.03h0Zm0,.24c.11.11.57.57.68.68-.11.11-.64.64-.69.69-.06,0-.38.03-.38.03-.02,0-.04.01-.06.03l-3.46,3.46s-.03.04-.03.06c0,0-.02.32-.03.38-.04.04-.57.57-.69.69-.11-.11-.57-.57-.68-.68.11-.11.64-.64.69-.69.06,0,.38-.03.38-.03.02,0,.04-.01.06-.03l3.46-3.46s.03-.04.03-.06c0,0,.02-.32.03-.38.04-.04.57-.57.69-.69Zm-6.88,11.17s-.05.01-.07.03l-.78.78s-.03.04-.03.06c0,0-.02.32-.03.38l-3.41,3.41c-.06,0-.38.03-.38.03-.02,0-.04.01-.06.03l-.78.78s-.03.04-.03.07h0s.01.05.03.07l.81.81s.04.03.07.03.05-.01.07-.03l.78-.78s.03-.04.03-.06c0,0,.02-.32.03-.38.05-.05,3.36-3.36,3.41-3.41.06,0,.38-.03.38-.03.02,0,.04-.01.06-.03l.78-.78s.03-.04.03-.07-.01-.05-.03-.07l-.81-.81s-.04-.03-.07-.03h0Zm0,.24c.11.11.57.57.68.68-.11.11-.64.64-.69.69-.06,0-.38.03-.38.03-.02,0-.04.01-.06.03l-3.46,3.46s-.03.04-.03.06c0,0-.02.32-.03.38l-.69.69c-.11-.11-.57-.57-.68-.67l.69-.69c.06,0,.38-.03.38-.03.02,0,.04-.01.06-.03l3.46-3.46s.03-.04.03-.06c0,0,.02-.32.03-.38.04-.05.57-.58.69-.69h0Zm-1.19-1.35l-.78.78s-.03.04-.03.06c0,0-.02.32-.03.38l-3.41,3.41c-.06,0-.38.03-.38.03-.02,0-.04.01-.06.03l-.78.78s-.03.04-.03.07.01.05.03.07l.81.81s.04.03.07.03.05-.01.07-.03l.78-.78s.03-.04.03-.06c0,0,.02-.32.03-.38.05-.05,3.36-3.36,3.41-3.41.06,0,.38-.03.38-.03.02,0,.04-.01.06-.03l.78-.78s.03-.04.03-.07-.01-.05-.03-.07l-.81-.81s-.1-.04-.14,0h0Zm.07.21c.11.11.57.57.67.68-.11.11-.64.64-.69.69-.06,0-.38.03-.38.03-.02,0-.04.01-.06.03l-3.46,3.46s-.03.04-.03.06c0,0-.02.32-.03.38l-.69.69-.68-.68.69-.69c.06,0,.38-.03.38-.03.02,0,.04-.01.06-.03l3.46-3.46s.03-.04.03-.06c0,0,.02-.32.03-.38.05-.04.58-.57.69-.69h0Zm-1.13-1.37s-.05.01-.07.03l-.78.78s-.03.04-.03.06c0,0-.02.32-.03.38-.05.05-3.36,3.36-3.41,3.41-.06,0-.38.03-.38.03-.02,0-.04.01-.06.03l-.78.78s-.03.04-.03.07h0s.01.05.03.07l.81.81s.04.03.07.03h0s.05-.01.07-.03l.78-.78s.03-.04.03-.06c0,0,.02-.32.03-.38.05-.05,3.36-3.36,3.41-3.41.06,0,.38-.03.38-.03.02,0,.04-.01.06-.03l.78-.78s.03-.04.03-.07-.01-.05-.03-.07l-.81-.81s-.04-.03-.07-.03Zm0,.24c.11.11.57.57.68.68-.11.11-.64.64-.69.69-.06,0-.38.03-.38.03-.02,0-.04.01-.06.03l-3.46,3.46s-.03.04-.03.06c0,0-.02.32-.03.38l-.69.69c-.11-.11-.57-.57-.67-.68l.69-.69c.06,0,.38-.03.38-.03.02,0,.04-.01.06-.03l3.46-3.46s.03-.04.03-.06c0,0,.02-.32.03-.38.04-.04.57-.57.68-.69h0Zm6.74-.22s-.05.01-.07.03l-.81.81s-.03.04-.03.07.01.05.03.07l.78.78s.04.03.06.03c0,0,.32.02.38.03.05.05,3.36,3.36,3.41,3.41,0,.06.03.38.03.38,0,.02.01.04.03.06l.78.78s.04.03.07.03h0s.05-.01.07-.03l.81-.81s.03-.04.03-.07-.01-.05-.03-.07l-.78-.78s-.04-.03-.06-.03c0,0-.32-.02-.38-.03-.05-.05-3.36-3.36-3.41-3.41,0-.06-.03-.38-.03-.38,0-.02-.01-.04-.03-.06l-.78-.78s-.04-.03-.07-.03Zm0,.24c.11.11.64.64.69.69,0,.06.03.38.03.38,0,.02.01.04.03.06l3.46,3.46s.04.03.06.03c0,0,.32.02.38.03.04.04.57.57.69.69-.11.11-.57.57-.68.68-.11-.11-.64-.64-.69-.69,0-.06-.03-.38-.03-.38,0-.02-.01-.04-.03-.06l-3.46-3.46s-.04-.03-.06-.03c0,0-.32-.02-.38-.03-.04-.04-.57-.57-.69-.69.11-.11.57-.57.68-.68h0Zm-1.21.91l-.81.81s-.03.04-.03.07.01.05.03.07l.78.78s.04.03.06.03c0,0,.32.02.38.03.05.05,3.36,3.36,3.41,3.41,0,.06.03.38.03.38,0,.02.01.04.03.06l.78.78s.04.03.07.03h0s.05-.01.07-.03l.81-.81s.03-.04.03-.07h0s-.01-.05-.03-.07l-.78-.78s-.04-.03-.06-.03c0,0-.32-.02-.38-.03-.05-.05-3.36-3.36-3.41-3.41,0-.06-.03-.38-.03-.38,0-.02-.01-.04-.03-.06l-.78-.78s-.1-.04-.14,0h0Zm.07.21c.11.11.64.64.69.69,0,.06.03.38.03.38,0,.02.01.04.03.06l3.46,3.46s.04.03.06.03c0,0,.32.02.38.03.04.04.57.57.69.69-.11.11-.57.57-.68.68-.11-.11-.64-.64-.69-.69,0-.06-.03-.38-.03-.38,0-.02-.01-.04-.03-.06l-3.46-3.46s-.04-.03-.06-.03c0,0-.32-.02-.38-.03-.04-.04-.57-.57-.69-.69.11-.11.57-.57.68-.68Zm-1.13.89s-.05.01-.07.03l-.81.81s-.03.04-.03.07h0s.01.05.03.07l.78.78s.04.03.06.03c0,0,.32.02.38.03.05.05,3.36,3.36,3.41,3.41,0,.06.03.38.03.38,0,.02.01.04.03.06l.78.78s.1.04.14,0l.81-.81s.03-.04.03-.07-.01-.05-.03-.07l-.78-.78s-.04-.03-.06-.03c0,0-.32-.02-.38-.03-.05-.05-3.36-3.36-3.41-3.41,0-.06-.03-.38-.03-.38,0-.02-.01-.04-.03-.06l-.78-.78s-.04-.03-.07-.03h0Zm0,.24c.11.11.64.64.69.69,0,.06.03.38.03.38,0,.02.01.04.03.06l3.46,3.46s.04.03.06.03c0,0,.32.02.38.03.04.04.57.57.69.69-.11.11-.57.57-.68.68-.11-.11-.64-.64-.69-.69,0-.06-.03-.38-.03-.38,0-.02-.01-.04-.03-.06l-3.46-3.46s-.04-.03-.06-.03c0,0-.32-.02-.38-.03-.04-.04-.57-.57-.69-.69.11-.11.57-.57.68-.68Zm-6.88-11.64s-.05.01-.07.03l-.81.81s-.03.04-.03.07h0s.01.05.03.07l.78.78s.04.03.06.03c0,0,.32.02.38.03.05.05,3.36,3.36,3.41,3.41,0,.06.03.38.03.38,0,.02.01.04.03.06l.78.78s.04.03.07.03.05-.01.07-.03l.81-.81s.03-.04.03-.07h0s-.01-.05-.03-.07l-.78-.78s-.04-.03-.06-.03c0,0-.32-.02-.38-.03-.05-.05-3.36-3.36-3.41-3.41,0-.06-.03-.38-.03-.38,0-.02-.01-.04-.03-.06l-.78-.78s-.04-.03-.07-.03h0Zm0,.24c.11.11.64.64.69.69,0,.06.03.38.03.38,0,.02.01.04.03.06l3.46,3.46s.04.03.06.03c0,0,.32.02.38.03.04.04.57.57.69.69-.11.11-.57.57-.68.68-.11-.11-.64-.64-.69-.69,0-.06-.03-.38-.03-.38,0-.02-.01-.04-.03-.06l-3.46-3.46s-.04-.03-.06-.03c0,0-.32-.02-.38-.03-.04-.04-.57-.57-.69-.69.11-.11.57-.57.68-.68h0Zm-1.19.94l-.81.81s-.03.04-.03.07.01.05.03.07l.78.78s.04.03.06.03c0,0,.32.02.38.03.05.05,3.36,3.36,3.41,3.41,0,.06.03.38.03.38,0,.02.01.04.03.06l.78.78s.1.04.14,0l.81-.81s.03-.04.03-.07-.01-.05-.03-.07l-.78-.78s-.04-.03-.06-.03c0,0-.32-.02-.38-.03-.05-.05-3.36-3.36-3.41-3.41,0-.06-.03-.38-.03-.38,0-.02-.01-.04-.03-.06l-.78-.78s-.1-.04-.14,0h0Zm.07.21c.11.11.64.64.69.69,0,.06.03.38.03.38,0,.02.01.04.03.06l3.46,3.46s.04.03.06.03c0,0,.32.02.38.03.04.04.57.57.69.69-.11.11-.57.57-.67.68-.11-.11-.64-.64-.69-.69,0-.06-.03-.38-.03-.38,0-.02-.01-.04-.03-.06l-3.46-3.46s-.04-.03-.06-.03c0,0-.32-.02-.38-.03-.04-.04-.57-.57-.69-.69.1-.11.57-.57.67-.68h0Zm-1.2.92l-.81.81s-.03.04-.03.07.01.05.03.07l.78.78s.04.03.06.03c0,0,.32.02.38.03.05.05,3.36,3.36,3.41,3.41,0,.06.03.38.03.38,0,.02.01.04.03.06l.78.78s.1.04.14,0l.81-.81s.03-.04.03-.07-.01-.05-.03-.07l-.78-.78s-.04-.03-.06-.03c0,0-.32-.02-.38-.03-.05-.05-3.36-3.36-3.41-3.41,0-.06-.03-.38-.03-.38,0-.02-.01-.04-.03-.06l-.78-.78s-.1-.04-.14,0Zm.07.21c.11.11.64.64.69.69,0,.06.03.38.03.38,0,.02.01.04.03.06l3.46,3.46s.04.03.06.03c0,0,.32.02.38.03.04.04.57.57.69.69-.11.11-.57.57-.68.68-.11-.11-.64-.64-.69-.69,0-.06-.03-.38-.03-.38,0-.02-.01-.04-.03-.06l-3.46-3.46s-.04-.03-.06-.03c0,0-.32-.02-.38-.03-.04-.04-.57-.57-.69-.69.11-.11.57-.57.68-.68h0Zm7.96,7.82l-.81.81s-.04.1,0,.14l.81.81s.1.04.14,0l.81-.81s.04-.1,0-.14l-.81-.81s-.04-.03-.07-.03c-.03,0-.05.01-.07.03h0Zm.07.21c.11.11.57.57.68.68-.11.11-.57.57-.68.68-.11-.11-.57-.57-.68-.68.11-.11.57-.57.68-.68Zm-1.2-1.34l-.81.81s-.03.04-.03.07.01.05.03.07l.81.81s.1.04.14,0l.81-.81s.04-.1,0-.14l-.81-.81s-.04-.03-.07-.03c-.03,0-.05.01-.07.03h0Zm.07.21c.11.11.57.57.68.68-.11.11-.57.57-.68.68-.11-.11-.57-.57-.68-.68.11-.11.57-.57.68-.68Zm-1.2-1.34l-.81.81s-.03.04-.03.07.01.05.03.07l.81.81s.1.04.14,0l.81-.81s.04-.1,0-.14l-.81-.81s-.1-.04-.14,0Zm.07.21c.11.11.57.57.68.68-.11.11-.57.57-.68.68-.11-.11-.57-.57-.68-.68.11-.11.57-.57.68-.68Zm1.06-1.33l-.81.81s-.03.04-.03.07.01.05.03.07l.81.81s.1.04.14,0l.81-.81s.04-.1,0-.14l-.81-.81s-.04-.03-.07-.03c-.03,0-.05.01-.07.03h0Zm.07.21c.11.11.57.57.68.68-.11.11-.57.57-.68.68-.11-.11-.57-.57-.68-.68.11-.11.57-.57.68-.68Zm1.06.92l-.81.81s-.04.1,0,.14l.81.81s.1.04.14,0l.81-.81s.04-.1,0-.14l-.81-.81s-.1-.04-.14,0Zm.07.21c.11.11.57.57.68.68-.11.11-.57.57-.68.68-.11-.11-.57-.57-.67-.68.1-.11.57-.57.67-.68Zm1.13.9s-.05.01-.07.03l-.81.81s-.04.1,0,.14l.81.81s.1.04.14,0l.81-.81s.03-.04.03-.07-.01-.05-.03-.07l-.81-.81s-.04-.03-.07-.03Zm0,.24c.11.11.57.57.68.68-.11.11-.57.57-.68.68-.11-.11-.57-.57-.68-.68.11-.11.57-.57.68-.68Zm1.06-1.34l-.81.81s-.03.04-.03.07.01.05.03.07l.81.81s.04.03.07.03.05-.01.07-.03l.81-.81s.04-.1,0-.14l-.81-.81s-.04-.03-.07-.03c-.03,0-.05.01-.07.03Zm.07.21c.11.11.57.57.67.68-.1.11-.57.57-.67.68-.11-.11-.57-.57-.68-.68.11-.11.57-.57.68-.68Zm-1.13-1.36s-.05.01-.07.03l-.81.81s-.04.1,0,.14l.81.81s.1.04.14,0l.81-.81s.03-.04.03-.07-.01-.05-.03-.07l-.81-.81s-.04-.03-.07-.03Zm0,.24c.11.11.57.57.68.68-.11.11-.57.57-.68.68-.11-.11-.57-.57-.68-.68.11-.11.57-.57.68-.68Zm-1.2-1.34l-.81.81s-.04.1,0,.14l.81.81s.1.04.14,0l.81-.81s.04-.1,0-.14l-.81-.81s-.04-.03-.07-.03c-.03,0-.05.01-.07.03h0Zm.07.21c.11.11.57.57.68.68-.11.11-.57.57-.68.67-.11-.11-.57-.57-.68-.67.11-.11.57-.57.68-.68Z"/>
            </g>
          </g>
          <g>
            <path class="cls-1" d="m149.13,127.35l-1.87-.99-.73.74-1.68-.89,4.82-4.27,1.8.95-.82,6.39-1.72-.91.2-1.02Zm.27-1.33l.43-2.23-1.6,1.61,1.17.62Z"/>
            <path class="cls-1" d="m154.25,128.55l1.73.41c-.05.29-.04.52.03.7.11.29.34.49.68.59.25.08.47.08.64,0,.17-.08.28-.2.33-.35.05-.15.02-.3-.08-.46-.1-.16-.37-.36-.81-.61-.73-.41-1.22-.81-1.46-1.21-.25-.39-.3-.82-.17-1.27.09-.3.26-.55.51-.76.25-.21.57-.34.96-.39s.89.02,1.49.2c.74.22,1.26.53,1.56.92.3.39.4.9.3,1.52l-1.71-.41c.03-.27,0-.49-.11-.65-.11-.16-.29-.28-.54-.36-.21-.06-.38-.07-.51,0-.13.06-.22.15-.25.27-.03.09,0,.19.06.29.06.1.24.23.53.39.73.4,1.24.74,1.52,1.02.29.27.47.56.54.86.08.3.07.61-.03.92-.11.37-.32.68-.62.93-.3.25-.66.4-1.07.45-.42.05-.9,0-1.46-.18-.98-.3-1.6-.69-1.87-1.18s-.33-1.04-.21-1.63Z"/>
            <path class="cls-1" d="m162.94,126.75l5.63.6-.16,1.48-1.89-.2-.48,4.52-1.85-.2.48-4.52-1.89-.2.16-1.48Z"/>
            <path class="cls-1" d="m174.72,132.13l-2.11.15-.22,1.01-1.9.13,1.84-6.17,2.03-.14,2.68,5.86-1.95.14-.37-.97Zm-.48-1.27l-.82-2.12-.5,2.21,1.32-.09Z"/>
            <path class="cls-1" d="m178.97,126.5l1.68-.47,3.09,2.6-.9-3.21,1.69-.47,1.63,5.81-1.69.47-3.07-2.58.89,3.19-1.69.47-1.63-5.81Z"/>
            <path class="cls-1" d="m192.84,126.63l-1.88.97.19,1.02-1.69.87-.74-6.4,1.81-.93,4.77,4.33-1.73.89-.72-.75Zm-.94-.98l-1.58-1.62.41,2.23,1.18-.61Z"/>
          </g>
        </g>
      </g>
    </g>
  </g>
</svg>