<?xml version="1.0" encoding="UTF-8"?>
<svg id="Layer_1" data-name="Layer 1" xmlns="http://www.w3.org/2000/svg" version="1.1" xmlns:xlink="http://www.w3.org/1999/xlink" viewBox="0 0 3000 2000">
  <defs>
    <style>
      .cls-1 {
        fill: #008543;
      }

      .cls-1, .cls-2, .cls-3, .cls-4, .cls-5, .cls-6, .cls-7 {
        stroke-width: 0px;
      }

      .cls-2 {
        fill: #fece07;
      }

      .cls-3 {
        fill: #29266e;
      }

      .cls-4 {
        fill: none;
      }

      .cls-5 {
        fill: #3cb5e6;
      }

      .cls-8 {
        clip-path: url(#clippath);
      }

      .cls-9 {
        stroke: #fff;
        stroke-miterlimit: 10;
        stroke-width: 15px;
      }

      .cls-9, .cls-7 {
        fill: #fff;
      }

      .cls-6 {
        fill: #231f20;
      }
    </style>
    <clipPath id="clippath">
      <path class="cls-4" d="M1681.4,947.1c0,133.4-108.1,241.5-241.5,241.5s-241.5-108.1-241.5-241.5,66.9-167.2,75.4-175.3c10.2-9.7,74.3-68.6,166.1-66.2,112.3,3,241.5,97.3,241.5,241.5Z"/>
    </clipPath>
  </defs>
  <rect class="cls-7" width="3000" height="2000"/>
  <g>
    <path class="cls-9" d="M1951.4,336.6c-9.3-18.5-23-30.7-38-44-16.7-14.8-25-22.3-37-24-7.2-1-14.2,0-58,24-25.4,14-38.2,21.1-45,28-10,10.2-12.4,17.1-29,46-9.8,17.1-18.3,30.9-23.9,40.1-.8,1.2-2.1,1.9-3.5,1.9h-112.9c-1.1,0-2.1.4-2.8,1.1l-267,254.2c-1.6,1.5-4,1.5-5.6,0l-110.7-100.8-24.8-22.6c-.8-.7-1.8-1.1-2.8-1.1h-147.8c-2.3,0-4.1,1.8-4.1,4.1v783.8c0,2.3,1.8,4.1,4.1,4.1h671.9c1.2,0,2.4-.6,3.2-1.5l143.9-174.5c.6-.7.9-1.5.9-2.4l5.4-86.4,24.5-389.7c0-.3,0-.7,0-1-2.8-14.6-5.4-36.6-1.9-62.5,4.7-34.8,16.3-46.2,41-108,15.3-38.4,23.1-58.2,27-87,3.7-27,7-54.1-7-82h0Z"/>
    <path class="cls-5" d="M1292.2,735c-6.7-.7-50.3-148.9-51.8-151.3,30.3,29.7,60.7,59.4,91,89.1.8.8,2.1.8,3,0l269.9-255c.4-.4.9-.6,1.5-.6h109.9c.6,0,1.2-.3,1.7-.8,10.9-13.1,16.2-19.7,16.6-20.2,12.4-19.6,19.5-32.5,19.5-32.5,12.4-22.5,18.7-33.8,22-38,16.6-21,38.8-29.2,58.5-36.5,25.4-9.4,40-14.8,56-9,7.8,2.8,12,6.9,40.5,34.5-120.5,135.2-241.1,270.3-361.6,405.5-.6.6-1.4.8-2.2.6-4.8-1.4-11.2-3.3-18.7-5.6-22.4-7-35.8-12.5-43-15-23.9-8.4-60.1-8.2-67-8-35.8,1-62.3,10.1-82,17-22.6,7.9-40.4,16.9-52.9,23.9,0,0-.2,0-.2.1-.1,0-8.5,2-10.6,1.8Z"/>
    <path class="cls-5" d="M1059.6,1320.1h409.3c1.5,0,2.5-1.4,2-2.8l-38.6-117.7c-.3-.9-1.1-1.5-2.1-1.5-3.3,0-7.6.1-12.6,0,0,0-33-1.2-66.8-14-50.7-19.3-93.3-67.3-102.4-78.1-.8-1-2.4-1-3.2,0l-187.2,210.6c-1.2,1.4-.2,3.6,1.6,3.6h0Z"/>
    <path class="cls-2" d="M1043.5,549.6h145.1c.5,0,.9.2,1.3.5l34.9,27.2c.3.2.6.6.7,1l55.6,158.6c0,.2.1.5.1.7v13c0,.7-.3,1.4-.9,1.8-4.5,3.1-10.4,7.6-17,13.5,0,0-20.2,18.2-36,44.9-25.1,42.4-30.7,99.3-31.8,113.6,0,1.3-1.3,2.2-2.5,1.9l-149.9-28c-1-.2-1.8-1.1-1.8-2.1v-344.3c0-1.2,1-2.1,2.1-2.1h0Z"/>
    <path class="cls-2" d="M1930.6,334.6l-346.1,395.8c-.8.9-.7,2.1.1,2.9,5.1,5,11.9,11.9,19.8,20.3,32,34.7,56.3,61,72,99,21.9,53,16.8,104.2,14,133-1.4,14.7-3.7,26.9-5.6,35.9-.2,1.2.5,2.3,1.7,2.5l170.4,34.1c1.3.3,2.5-.7,2.6-2.1l3.9-178.4,15-268.7c0-.2,0-.4.1-.6,1.9-5.7,5-14.7,8.9-25.7,14.7-41.1,24.6-63.3,45-116,13.7-35.4,16.5-44.3,17.6-49.5.2-.8.2-1.4.4-2.5,6.1-35,9.7-57.2,1-78-1.4-3.3-3.8-8.4-8-14-4.3,4-8.5,7.9-12.8,11.9h0Z"/>
    <path class="cls-3" d="M1044,912.9l143.6,31.4c1.1.2,1.8,1.2,1.7,2.3-.8,9.5-1.2,22.2.2,37,.9,10.2,2.6,27.9,10,47.2,9.7,25.1,25.5,43.3,39.4,55.6.9.8,1,2.2.2,3l-193.8,217c-1.3,1.5-3.7.5-3.7-1.4v-389.8c0-1.4,1.3-2.4,2.6-2.1h0Z"/>
    <path class="cls-3" d="M1497.9,1320.1h213.8c.5,0,.9-.2,1.3-.4,15.3-11.9,117.7-120.8,139.1-155.6.2-.3.3-.7.3-1l4.9-86.6c0-1.1-.7-2-1.7-2.2l-172.6-36.3c-.9-.2-1.9.2-2.3,1.1-1.8,3.5-4.2,8.2-7.3,13.6-12,21.5-25.3,41.1-34,52-32.1,40.2-81.7,63.6-89,67-39.2,18.1-74.9,22.8-98.1,23.9-1.4,0-2.4,1.5-1.9,2.9l45.4,120.3c.3.8,1.1,1.4,2,1.4h0Z"/>
  </g>
  <circle class="cls-7" cx="1439.9" cy="944.1" r="259.5"/>
  <g class="cls-8">
    <path class="cls-1" d="M1681.4,947.1c0,133.4-108.1,241.5-241.5,241.5s-241.5-108.1-241.5-241.5,66.9-167.2,75.4-175.3c10.2-9.7,74.3-68.6,166.1-66.2,112.3,3,241.5,97.3,241.5,241.5ZM1385.4,856.6c-2.8.2-5.8,1.2-7.7,2.8,5.3,1.1,10.8,1.4,16.1.2-2.6-2-5.3-3.2-8.4-3ZM1521.5,765c-12.3-17.5-19.6-19.7-19.7-30.1-.2-12.1,9.3-21.3,5.9-24.8-2.3-2.4-6.7,1.8-15.2.9-8.7-1-9.2-6-19.9-9.3-3.2-1-12.2-3.7-22.2-.4-4.5,1.5-8.8,2.9-11.2,6.6-7.2,10.6,10.2,25,4.7,41.8-1.9,5.9-3.9,3.3-14.6,17.5-10.3,13.6-18.6,24.8-15.7,35.3,1.8,6.5,6.4,7.2,5.8,11.8-.3,2-1.5,4.7-21.4,15.1,4.4,9.2,5.5,16.4,10.3,22.9,2.4-2,5.4-4.5,11.4-7.8,7.8-4.3,11.6-6.5,14.6-5.3,5.8,2.4,4.8,14.7,5.2,39,.7,42.5,4.4,48.6,8.8,51.1,3.6,2,8.3,2.1,12.4.8-4.3-3-7.6-9-6.9-14.4.4-3.2,2.2-6.5,12.9-12.8-3.3-25.8-2.3-24.2-4-30-4-13.9-9.2-21-6.6-23.5,1.9-1.7,7-.3,10.3,2.6,7.5,6.4,7.6,21,7.7,37.3,0,3.7,0,6.7,1.1,8.9,4.8-2.4,10.6-5.1,17.7-8.3-1.1-4.8-3.8-11.6-4.8-22.6-.6-6.3-1.8-19.5,3.2-21.7,2.9-1.3,7.8,1.2,10.6,4.8,7.4,9.3-5.6,26.7-.7,35.9,6.1-2.6,11.4-4.8,15.7-6.7,0-1.7,0-3.6.2-5.6.6-6.8,2.9-11.3,5.9-15.9-.6-.5-1.2-.9-1.8-1.4-10.1-8-13.3-7.5-18.5-11.9-12.6-10.6-14.1-30.2-10.8-42.5.9-3.5,2.6-9.7,7-11,4.6-1.3,10.7,3.4,13.5,8.6,3.8,7.2-.7,12,2.9,19.7.7,1.6,1.6,2.9,10.2,10.1,3.9,3.3,7.1,5.9,9.8,7.9.9-2.2,1.8-4.6,2.7-7.3,1.5-4.9,2.6-8.2,3.1-13.1,2.1-21.5-10.4-39.7-19.3-52.3h0ZM1327.4,946.8c-1.5,3.6-1.7,8.1-.2,10.6,3.1-4.3,5.4-9.3,6.1-14.8,0-.6.1-1.2.2-1.7-2.7,1.4-4.9,3.2-6.1,5.9h0ZM1410.7,942.1c-1.9-.4-3.6,0-5.8,1.1,6.8,3.2,10.3,3.6,12.7,3-2-2.1-4.5-3.6-6.9-4.1h0ZM1427.4,928.6c-1.2-4-4.5-5.6-15-11-27.4-14.2-25-14-31-16-13.7-4.6-22.6-4.4-23-8-.3-2.5,3.7-5.9,8-7,9.5-2.5,21.6,5.8,35,15,3.8,2.6,6.8,4.9,10,4,4.7-1.3,8.7-8.7,7-14-2.1-6.4-11.1-5.1-27-14-5.5-3.1-17-9.6-16-15,.2-1.2,1.1-2.3,2.3-3.2,2-1.5,4.9-2.6,7.7-2.8,3.1-.2,5.8,1,8.4,3,7.9,6.1,14,19,22.6,18,4.7-.6,9-5.2,9-9,0-4.4-5.8-5.8-12-11-2.1-1.8-3.8-3.6-5.2-5.5-4.8-6.5-5.9-13.7-10.3-22.9-2-4.1-4.6-8.6-8.5-13.7-3.1-4-5.3-6.8-9-10-16.4-14-38.5-14.1-54-14-21.4.2-27.4,4.8-36-1-10.7-7.1-9.6-16.4-17-19-5.4-1.9-11.8,1.3-15,4-.9.8-1.9,1.8-5,7-4,6.6-4.9,9.3-7,13-6.1,10.7-10.7,10.1-13,18-1.3,4.6-2.6,8.8-1,13,4.6,11.9,26.3,5.9,37,20,3.8,5,.5,5.1,6,22,5.3,16.2,9.8,29.4,20,33,6.3,2.2,9.6-1.2,13,2,1.3,1.2,2.7,3.4,1,19.7,9.6.3,16.2,2.3,23.7,1.3,0-1.2.2-2.5.3-4,.9-8.8,1.3-13.3,4-15,5.2-3.4,14.8,4.4,35,18,15.6,10.5,25.7,16.4,32.5,19.6,2.2-1.2,3.9-1.5,5.8-1.1,2.5.5,4.9,2,6.9,4.1.7-.2,1.2-.4,1.8-.6,6-2.9,9.7-11.2,8-17h0ZM1417.6,947.3c-2.4.6-6,.1-12.7-3-2.5,1.3-5.7,3.6-10.8,7.3-25.1,18-23.8,15.9-28.3,20.3-10.4,10.1-14.2,18.1-17.6,16.8-2.4-.9-3.5-6-2.6-10.3,2.1-9.6,15-16.6,29.3-24.4,4.1-2.2,7.4-3.8,8.1-7.1,1-4.8-3.8-11.7-9.3-12.6-6.6-1-9.6,7.6-24.7,17.7-5.3,3.5-16.3,10.8-20.6,7.4-.4-.3-.7-.7-.9-1.1-1.6-2.5-1.4-7,.2-10.6,1.2-2.7,3.4-4.5,6.1-5.9,9-4.5,23.7-3.9,26.7-12.2,1.6-4.5-.6-10.4-3.9-12.1-3.9-2-7.8,2.5-15.3,5.7-2.9,1.2-5.5,1.9-8,2.2-7.5,1-14.1-1-23.7-1.3-4.7-.2-10.1,0-16.6,1.3-5,.9-8.5,1.6-13,3.5-19.9,8.3-30.1,27.9-37,41.7-9.6,19.1-8.2,26.5-17.3,31.6-10.6,5.9-23.2,1.8-24.7,6.5-1,3.2,4.8,5,7.9,13,3.2,8.2-.9,11,1.2,21.9.6,3.3,2.5,12.5,10.1,19.8,3.4,3.3,6.7,6.3,11.1,6.8,12.7,1.3,17.3-20.8,34.6-23.9,6.1-1.1,4.8,1.9,22.3,4.7,16.8,2.7,30.7,4.7,38.5-2.8,4.8-4.7,3.3-9.1,7.7-10.7,1.9-.7,5-.9,24.2,12.2,5-7.3,9.3-12.4,10.2-22.2,0,0,0,0,0,0-2.1-1-4.6-2.4-7.8-4.4-7.5-4.8-11.2-7.2-11.5-10.4-.6-6.2,10.7-11.2,31.9-23,37.1-20.7,40.8-26.8,41-31.9.1-3.8-1.8-7.8-4.6-10.7h0ZM1382.8,1034.1c-1.5,6.1-2.3,12,1,16.2,2.8,3.6,7.7,6.1,10.6,4.8,0,0,0,0,.1,0-1.8-7.8-5.5-15.6-11.8-20.9h0ZM1489.3,1070.7c1.4-.8,2.7-1.4,3.8-1.9-3.2-4.9-6.6-9.1-12.9-12.5-3-1.6-5.8-2.6-8.1-3.5-1.6,1.1-3.6,2.3-6.1,3.7-7.8,4.3-11.6,6.5-14.6,5.3-5.8-2.4-4.8-14.7-5.2-39-.7-42.5-4.3-48.6-8.8-51.2-5.8-3.3-14.8-1.5-18.5,3.1-2.6,3.2-2,6.9-.5,18.6,4,30.6,2.8,28.5,4.6,34.6,4,13.9,9.2,21.1,6.6,23.4-1.9,1.7-7,.3-10.3-2.6-7.5-6.4-7.6-21-7.7-37.3,0-4.7.1-8.3-2.4-10.5-3.7-3.1-12.1-2.2-15.5,2.2-4,5.4,2.2,12,3.9,30.2.6,6.2,1.8,19.2-3,21.6,0,0,0,0-.1,0-2.9,1.3-7.8-1.2-10.6-4.8-3.4-4.2-2.5-10.2-1-16.2,1.9-8,5-16.3.6-21.2-3.2-3.5-9.4-4.4-12.5-2.2-3.6,2.5-1.5,8-2.2,16.1,0,0,0,0,0,0-.9,9.8-5.2,14.9-10.2,22.2-3.6,5.2-7.5,11.6-10.6,21.5-1.5,4.9-2.6,8.2-3.1,13.1-2.1,21.5,10.4,39.7,19.3,52.3,12.3,17.4,19.6,19.7,19.7,30.1.2,12.1-9.3,21.3-5.9,24.8,2.3,2.4,6.7-1.8,15.2-.9,8.7,1,9.2,6,19.9,9.3,3.2,1,12.2,3.7,22.2.4,4.5-1.5,8.8-2.9,11.2-6.6,7.2-10.6-10.2-25-4.7-41.8,1.9-5.9,3.9-3.3,14.6-17.5,10.3-13.6,18.6-24.8,15.7-35.3-1.8-6.5-6.4-7.2-5.8-11.8.3-2,1.6-4.9,23-16h0ZM1487.6,1042.4c6.6,4.9,13.3,11,20.2,9.1,4.2-1.2,8.2-4.4,8.6-7.5-8.8-3.5-19.4-5.1-28.8-1.7ZM1663.7,1049.5c-7-10.7-27-.4-40.3-12-4.7-4.1-1.6-4.9-10.4-20.3-8.5-14.8-15.6-26.8-26.3-28.2-6.7-.9-9.1,3.1-13.1.7-1.8-1-3.9-3.3-5.7-27.4,0-.5,0-1.1-.1-1.6-.7-9.7-.4-11.2.2-12.8,3-7.9,9.5-8.1,12-15.8,1.8-5.7.9-13.3-3.3-15.7-4-2.3-9.6.9-12.7,2.7-11.1,6.3-24,21-22.8,37.4h0c.5,6.9,3.1,8.7,4.5,21.6,1,8.8,1.4,13.2-.8,15.5-4.4,4.4-15.4-1.3-37.9-10.5-39.4-16-46.4-15-50.5-11.9-5.3,4-7.2,13-4.4,18.3,1.9,3.7,5.6,4.5,16.9,7.7,29.7,8.3,27.3,8.6,33.6,9.3,14.4,1.7,23-.3,24.2,3.1.8,2.4-2.4,6.5-6.4,8.5-8.8,4.4-22.3-1.2-37.3-7.5-4.3-1.8-7.6-3.4-10.6-1.9-4.3,2.2-6.8,10.3-4,15.1,3.4,5.8,11.9,2.7,29.3,8.2,6,1.9,18.6,5.9,18.7,11.4,0,.2,0,.3,0,.5-.3,3.1-4.4,6.3-8.6,7.5-6.9,1.9-13.7-4.2-20.2-9.1-4.9-3.7-9.7-6.7-14.4-5.1-4.5,1.5-7.7,7-7,10.7.5,2.5,2.7,3.6,5.9,4.8,2.3.9,5.1,1.9,8.1,3.5,6.4,3.4,9.7,7.6,12.9,12.5,4.3,6.6,8.4,14.5,19.1,23.7,3.9,3.3,6.6,5.6,10.8,7.9,19,10.3,40.6,5.9,55.7,2.7,20.9-4.5,25.8-10.3,35.4-6.4,11.2,4.5,15.9,16.9,20.5,15.1,3.1-1.2.9-6.9,5.2-14.4,4.3-7.6,9.1-6.2,16.3-14.7,2.2-2.6,8.2-9.8,9.1-20.3.4-4.8.8-9.2-1.7-12.9ZM1672.2,872.8c-2.4-8.5,2-10.8,1-21.9-.3-3.3-1.3-12.7-8.2-20.7-3.1-3.6-6-7-10.4-7.9-12.6-2.5-19.2,19-36.8,20.4-6.2.5-4.6-2.3-21.8-6.8-16.5-4.3-30.1-7.7-38.6-1-5.3,4.2-4.2,8.7-8.7,9.9-1.6.4-3.8.4-13.8-7.2-2.7-2-5.9-4.6-9.8-7.9-8.5-7.2-9.4-8.5-10.2-10.1-3.6-7.7.9-12.4-2.9-19.7-2.7-5.3-8.9-9.9-13.5-8.6-4.4,1.2-6.1,7.5-7,11-3.3,12.3-1.8,31.9,10.8,42.5,5.2,4.4,8.4,3.9,18.5,11.9.6.5,1.2,1,1.8,1.4,5.8,4.6,8.7,7.1,8.7,10,0,4.1-5,7.1-14.7,11.5-4.3,1.9-9.5,4.1-15.7,6.7-1.2.5-2.4,1-3.7,1.6-1.6.7-3.2,1.4-4.7,2.1-7.1,3.1-12.9,5.9-17.7,8.3-3.4,1.7-6.2,3.2-8.6,4.6-10.7,6.2-12.5,9.6-12.9,12.8-.7,5.4,2.6,11.4,6.9,14.4,1,.7,2,1.2,3.1,1.5,4,1.2,7.1-.8,17.3-6.7,26.7-15.4,25.3-13.5,30.2-17.5,11.3-9,15.9-16.6,19.1-15.1,2.3,1.1,2.9,6.3,1.6,10.5-3,9.4-16.5,15.1-31.5,21.4-4.3,1.8-7.7,3.1-8.8,6.3-1.5,4.6,2.6,12.1,8,13.5,6.5,1.7,10.3-6.7,26.3-15.2,5.6-3,17.3-9.2,21.3-5.4,2.3,2.2,1.9,7.7-.3,11.7-6.1,11-29.4,4.4-34.4,14.8-2.1,4.3-.5,10.4,2.7,12.4,3.7,2.3,8-1.8,15.7-4.2,3.8-1.2,7.1-1.5,10.2-1.5-1.2-16.4,11.7-31.2,22.8-37.4,3.1-1.8,8.8-5,12.7-2.7,4.2,2.4,5.1,10,3.3,15.7-2.5,7.7-9,7.9-12,15.8-.6,1.6-.9,3-.2,12.8,3.4.2,7.2.2,11.5-.2,5.1-.4,8.6-.8,13.3-2.2,20.6-6.3,32.7-24.8,40.9-37.9,11.4-18.1,10.7-25.6,20.3-29.8,11.1-4.8,23.2.5,25.2-4.1,1.3-3.1-4.2-5.5-6.6-13.7h0Z"/>
  </g>
  <g>
    <path class="cls-1" d="M1100.2,1491.8l-20.8,54.2h-26.8l68.2-172.4h31.3l68.5,172.4h-27.7l-21.4-54.2h-71.2ZM1166,1474.4l-19.7-49.6c-4.5-11.2-7.4-21.5-10.4-31.5h-.6c-3,10.2-6.2,20.7-10.1,31.2l-19.7,49.9h60.5Z"/>
    <path class="cls-1" d="M1250,1376c11.3-2.1,29.2-3.6,47.4-3.6,25.9,0,42.6,3.8,55.1,12.5,10.4,6.7,16.7,16.9,16.7,30.4s-12.8,31.2-34,37.8v.5c19.1,4.1,41.4,17.7,41.4,43.2s-6.8,26.1-17,34.5c-14,11-36.6,16.1-69.4,16.1s-31.6-1-40.2-2.1v-169.6h0ZM1275.9,1446.6h23.5c27.4,0,43.5-12.3,43.5-28.9s-17.9-28.1-44.1-28.1-18.8.8-22.9,1.5v55.5h0ZM1275.9,1529.2c5.1.8,12.5,1,21.7,1,26.8,0,51.5-8.4,51.5-33.5s-23.5-33.2-51.8-33.2h-21.4v65.7h0Z"/>
    <path class="cls-1" d="M1437.3,1373.7v102c0,38.6,20,55,46.8,55s48.8-16.9,48.8-55v-102h26.2v100.5c0,52.9-32.5,74.7-76,74.7s-72.1-20.2-72.1-73.7v-101.5h26.2Z"/>
    <path class="cls-1" d="M1645.2,1373.7h25.9v115.3c0,45.8-26.2,59.8-60.8,59.8s-21.2-1.8-27.7-4.1l3.9-18.2c5.4,1.8,13.1,3.3,21.7,3.3,23.2,0,36.9-8.9,36.9-42.7v-113.6h0Z"/>
    <path class="cls-1" d="M1746.8,1491.8l-20.8,54.2h-26.8l68.2-172.4h31.3l68.5,172.4h-27.7l-21.4-54.2h-71.2ZM1812.6,1474.4l-19.7-49.6c-4.5-11.2-7.4-21.5-10.4-31.5h-.6c-3,10.2-6.3,20.7-10.1,31.2l-19.7,49.9h60.5Z"/>
  </g>
  <g>
    <path class="cls-6" d="M940.9,1603.2h-30.3s3.4-11.3,3.4-11.3h73.7c0,0-3.4,11.4-3.4,11.4h-30.4s-27.4,91.6-27.4,91.6h-13l27.4-91.6h0Z"/>
    <path class="cls-6" d="M998.9,1586.5h13l-13.8,46.1h.3c3.2-3.8,7.5-7.2,12.1-9.5,4.5-2.3,9.6-3.8,14.4-3.8,9.6,0,23.1,6.1,15.5,31.6l-13.2,44h-13l12.7-42.4c3.6-11.9,2.3-22-10-22-8.4,0-16.9,6.1-21.4,13.4-1.3,1.8-2,3.8-2.8,6.4l-13.4,44.6h-13l32.5-108.4h0Z"/>
    <path class="cls-6" d="M1065.9,1660.4c-5.2,18.2,3.8,25.7,16.8,25.7,9.3,0,15.4-1.7,20.9-3.8l-.7,9.6c-5.2,2.1-13.8,4.6-25.1,4.6-22,0-30.7-15-24-37.3s24.6-39.8,45.4-39.8c23.3,0,23.2,21.2,19.1,34.8-.8,2.8-1.8,4.9-2.3,6.3h-50.2s0,0,0,0ZM1106.9,1650.8c2.7-8.6,3.2-21.8-11.5-21.8-13.1,0-22.6,12.5-26.5,21.8h37.9Z"/>
    <path class="cls-6" d="M1197.7,1592.1l-12.9,43.1h48.1s12.9-43,12.9-43h13l-30.8,102.9h-13l14.4-48.3h-48.1s-14.4,48.2-14.4,48.2h-12.8l30.8-102.9h12.8Z"/>
    <path class="cls-6" d="M1267.4,1660.6c-5.2,18.2,3.8,25.7,16.8,25.7,9.3,0,15.4-1.7,20.9-3.8l-.7,9.6c-5.2,2.1-13.8,4.6-25.1,4.6-22,0-30.7-15-24-37.3s24.6-39.8,45.4-39.8c23.3,0,23.2,21.2,19.1,34.8-.8,2.8-1.8,4.9-2.3,6.3h-50.2s0,0,0,0ZM1308.4,1651c2.7-8.6,3.2-21.8-11.5-21.8-13.1,0-22.6,12.5-26.5,21.8h37.9Z"/>
    <path class="cls-6" d="M1363.4,1695.2l1.8-9.3h-.4c-5.7,5.8-15,11-25.1,11-14.5,0-18.7-10.6-15.5-21.2,5.3-17.9,23.6-27.6,51.2-27.4l.5-1.5c1.8-6.1,3.5-17.1-11.1-17.1-6.6,0-14.2,2.1-20.2,5.5l-.3-8.9c7.1-4,16.4-6.6,25.4-6.6,21.8,0,22.5,15.4,18.1,30.2l-8.3,27.6c-1.9,6.4-3.5,12.7-4.1,17.7h-11.8ZM1372.8,1657.5c-14.1-.3-30.9,2.3-35.2,16.6-2.6,8.7,1.8,12.8,8.4,12.8,9.3,0,17-6.1,21-12.3.8-1.4,1.6-2.9,2-4.3l3.8-12.8h0Z"/>
    <path class="cls-6" d="M1410.2,1644.4c2.6-8.7,4.7-16.2,6.3-23.1h11.4l-3.9,14.5h.6c6.2-9.9,15.9-16.2,24.6-16.2s2.5.2,3.6.5l-3.8,12.7c-1.2-.3-2.5-.5-4.3-.5-9.2,0-17.8,7.2-22.6,17.2-.8,1.8-1.8,4-2.5,6.3l-11.8,39.4h-12.8l15.2-50.8h0Z"/>
    <path class="cls-6" d="M1490.9,1600.2l-6.4,21.2h18.6s-3.1,10.2-3.1,10.2h-18.6s-11.9,39.8-11.9,39.8c-2.7,9.2-1.8,14.3,5.4,14.4,3.4,0,6-.4,7.8-.9l-2.4,10.1c-2.8,1.1-7,1.8-12.1,1.8-6.1,0-10.3-2-12.3-5.7-2.5-4-1.9-10.5.7-19.2l12.1-40.3h-11.1l3.1-10.2h11.1l5.3-17.7,13.8-3.5h0Z"/>
    <path class="cls-6" d="M1602.8,1657.8c-8.2,27.3-30.1,39.2-47.3,39.2-19.3,0-29.9-14.7-22.9-38,7.4-24.7,27.4-39.2,47.2-39.2,20.5,0,29.8,15.4,23,38.1h0ZM1545.9,1658.5c-4.8,16.2.5,28.4,13.2,28.4,12.4,0,25.3-12,30.3-28.7,3.8-12.5,2.5-28.4-12.9-28.4-15.3,0-26.4,14.6-30.6,28.7Z"/>
    <path class="cls-6" d="M1609.3,1695.4l19.1-63.7h-10l3.1-10.2h10l1.1-3.5c3.1-10.4,8.2-19.8,16-25.8,6.3-4.9,13.4-6.9,19.5-6.8,4.6,0,8.2,1.1,10.4,2.2l-4.9,10.4c-1.6-.9-4.1-1.7-7.8-1.7-11.1,0-16.9,10.1-20.3,21.4l-1.2,4h17.3l-3.1,10.2h-17.3l-19.1,63.7h-12.9Z"/>
    <path class="cls-6" d="M1682.8,1695.5l30.8-102.9h14l16.3,52.1c3.8,12.1,6.3,22.9,7.8,33.4l.3-.2c2.9-13.7,6.4-26.3,11.2-42.3l12.9-43.1h12.1l-30.8,102.9h-13l-15.9-52.2c-3.5-11.5-6.6-23.2-8.3-34.4l-.5.2c-3.2,13-6.6,25.3-11.7,42.4l-13.2,44h-12.1,0Z"/>
    <path class="cls-6" d="M1780.9,1695.6l22.1-73.9h13l-22.1,73.9h-13ZM1823.8,1600.9c-1.2,4.6-5.6,8.2-10.7,8.2s-6.7-3.7-5.3-8.2c1.4-4.7,5.9-8.4,10.6-8.4s6.9,3.7,5.5,8.4Z"/>
    <path class="cls-6" d="M1899.2,1621.7c-1.9,5.3-4,11.3-6.7,20.3l-12.8,42.9c-5.1,16.9-11.4,27.3-20.3,33.7-8.9,6.7-19.6,8.8-28.6,8.8-8.6,0-17.4-2.2-21.9-6.1l6.3-10.2c3.8,3.1,10.4,5.8,19.2,5.8,13.3,0,25.2-7.2,30.8-25.8l2.5-8.2h-.3c-6,6.9-15.4,12.4-26.4,12.3-17.7,0-25.7-15.6-19.6-36.1,7.5-25,27.6-39.2,43.9-39.2,12.4,0,17.2,6.7,18.4,12.8h.3l3.9-11.1h11.4,0ZM1877,1650.9c.7-2.3,1.1-4.3,1.1-6.1,0-7.8-4.5-14.2-13.9-14.2-12.4,0-24.5,10.8-29.6,27.9-4.3,14.5-.9,26.6,13.2,26.6,8,0,16.8-5.2,22.1-13.7,1.4-2.3,2.5-4.9,3.2-7.2l4-13.3h0Z"/>
    <path class="cls-6" d="M1915.6,1661.2c-5.2,18.2,3.8,25.7,16.8,25.7,9.3,0,15.4-1.7,20.9-3.8l-.7,9.6c-5.2,2.1-13.8,4.6-25.1,4.6-22,0-30.7-15-24-37.3s24.6-39.8,45.4-39.8c23.3,0,23.2,21.2,19.1,34.8-.8,2.8-1.8,4.9-2.3,6.3h-50.2s0,0,0,0ZM1956.5,1651.6c2.7-8.6,3.2-21.8-11.5-21.8-13.1,0-22.6,12.5-26.5,21.8h37.9Z"/>
    <path class="cls-6" d="M1987.2,1644.9c2.6-8.7,4.7-16.2,6.3-23.1h11.4l-3.9,14.5h.6c6.2-9.9,15.9-16.2,24.6-16.2s2.5.2,3.6.5l-3.8,12.7c-1.2-.3-2.5-.5-4.3-.5-9.2,0-17.8,7.2-22.6,17.2-.8,1.8-1.8,4-2.5,6.3l-11.8,39.4h-12.8l15.2-50.8h0Z"/>
    <path class="cls-6" d="M2020.8,1695.8l22.1-73.9h13l-22.1,73.9h-13ZM2063.6,1601.1c-1.2,4.6-5.6,8.2-10.7,8.2s-6.7-3.7-5.3-8.2c1.4-4.7,5.9-8.4,10.6-8.4s6.9,3.7,5.5,8.4Z"/>
    <path class="cls-6" d="M2094.9,1695.8l1.8-9.3h-.4c-5.7,5.8-15,11-25.1,11-14.5,0-18.7-10.6-15.5-21.2,5.4-17.9,23.6-27.6,51.2-27.4l.5-1.5c1.8-6.1,3.5-17.1-11.1-17.1-6.6,0-14.2,2.1-20.2,5.5l-.3-8.9c7.1-4,16.4-6.6,25.4-6.5,21.9,0,22.5,15.4,18.1,30.2l-8.3,27.6c-1.9,6.4-3.5,12.7-4.1,17.7h-11.8ZM2104.3,1658.1c-14.1-.3-30.9,2.3-35.2,16.6-2.6,8.7,1.8,12.8,8.4,12.8,9.3,0,17-6.1,21-12.3.9-1.4,1.6-2.9,2-4.3l3.8-12.8Z"/>
  </g>
</svg>