<?xml version="1.0" encoding="UTF-8"?>
<!-- Created with Inkscape (http://www.inkscape.org/) -->
<svg id="svg2" width="1500" height="1400" version="1.1" xmlns="http://www.w3.org/2000/svg" xmlns:cc="http://creativecommons.org/ns#" xmlns:dc="http://purl.org/dc/elements/1.1/" xmlns:rdf="http://www.w3.org/1999/02/22-rdf-syntax-ns#">
 <metadata id="metadata2">
  <rdf:RDF>
   <cc:Work rdf:about="">
    <dc:format>image/svg+xml</dc:format>
    <dc:type rdf:resource="http://purl.org/dc/dcmitype/StillImage"/>
   </cc:Work>
  </rdf:RDF>
 </metadata>
 <rect id="rect1" width="1500" height="700" style="fill-rule:evenodd;fill:#04882f"/>
 <rect id="rect2" y="700" width="1500" height="700" style="fill-rule:evenodd;fill:#da0e19"/>
 <path id="path3" d="m978.239 855.654c-18.045 12.066-21.658 19.5473-0.253 19.0824l-20.011 16.2835c-1.07 25.253-4.551 49.5789-18.999 69.4599-3.109 4.12-0.216 8.098 8.613 6.106 15.273-5.59 27.392-17.427 30.904-46.3059 18.2301 6.443 35.6884 10.2869 37.9964-36.893 19.788 11.298 32.819 3.706 34.957-34.348 15.92 6.7935 29.92 0.2992 41.542-22.6442-43.587 125.091-106.755 235.187-198.256 225.868-9.475 20.802-27.722 36.032-51.5806 45.796-60.5024 24.758-158.247 17.291-229.855-19.402-40.2408-20.618-79.3087-44.7-107.372-77.316-30.6798-35.6582-55.5349-75.4031-71.5228-116.395l9.314 4.318 2.6871-8.455c14.3655 36.989 33.4505 72.4979 63.0488 104.707l9.135-2.699-2.3851-92.5599-53.4482-54.7029 0.8864-59.7913 8.6126 11.5767 10.0056-11.0677 10.1325 12.3399 11.9054-12.0856v50.3773l45.5961 39.9458c0.921 0.6046 6.3503 3.3228 3.293-4.7071l-16.2117-34.9843-1.3933-55.593 11.7787 11.5767 8.2328-11.3223 10.8922 11.4494 10.0055-11.5766 3.5464 61.6996 35.4634 51.7764 2.3188 46.5549c1.2089 17.744 16.4019 15.324 27.9421 18.171l37.6146 18.89 8.2393-3.058-1.6417-91.4982c-8.3922-51.4908-16.1631-126.06-25.405-145.983l-20.9568 0.5397 12.9249-24.008-84.8588-111.186 28.3709 9.6684 61.5541 83.7077 30.3972-79.1281c0.8407-17.4707-6.6249-34.9416-14.1851-52.4125-10.5403 16.4965-23.1204 26.847-44.0763 11.9582-0.8823 28.7517-17.4652 37.9787-38.2497 41.9809-9.0562 17.3391-10.1347 43.984-47.1155 28.7508-10.2569 36.3061-25.2831 50.3695-48.8887 24.4255-7.7841 39.8855-22.4382 52.1692-46.4533 26.8431-4.3328 12.6469-8.6562 22.3173-14.0415 27.9566-32.6649 34.2053-60.2049-31.6143-16.0468-151.655 8.4899-23.0784 18.1798-48.623 30.8047-75.8213l-12.1798-9.3555c6.0103-32.638 71.8071-122.265 143.424-144.384 3.4388-1.0622 6.8906-1.9729 10.3516-2.7058 41.8232-8.8564 91.2518 3.7292 97.3467 81.6029 1.868 10.3582 7.2162 17.0265 17.6748 18.2769l17.3515 2.6715c11.4511 2.7246 16.7366-7.2463 8.6128-16.2837-57.4636-23.0862-48.1962-104.589-19.2516-119.964 15.0393-10.6004 30.3933-13.7141 44.4522-11.5988 31.4144 4.7267 48.7611 35.817 56.8716 67.3191l-9.3724 5.343c0.6396 20.3007-2.5023 38.6369-21.2778 48.8506-10.7559 7.1484-11.5454 17.2995-8.866 28.4963 8.6565 11.606 32.623 16.8375 47.6221-1.5266 10.235-11.3719 4.5694-24.5183 3.5465-37.1468-0.8637-25.6373 4.6881-43.3128 13.5019-55.2025 17.2278-23.2396 49.3558-26.597 80.6429-9.2942 39.453 21.8189 79.0194 72.4873 114.329 120.472l-13.679 12.2127c39.483 56.7137 76.89 130.894 75.09 203.527-6.56 67.7608-45.871 34.3773-47.226 6.6328-20.492 20.375-49.729 1.401-51.168-30.0228-22.0294 22.0377-42.9054 16.1354-50.1564-25.4431-18.445 20.4991-31.752 2.047-43.062-31.5494-22.9621 25.642-44.6011-6.9243-41.0371-36.6379-16.674 12.5215-33.2785 25.5328-55.2211 1.0176l-7.599 55.7204 53.4487 116.784-26.5979-0.5088-6.8396 39.6911c0 16.5359-0.021 33.08-5.962 54.9145-3.5097 22.3265-8.3971 43.8622-7.4633 68.7388l-36.0433-32.6436-8.9866-26.8736-0.2559-3.6185c-2.1097-49.2979-5.4225-80.6258-9.578-90.6893-4.9053-11.8787-12.5048 4.8526-17.6478 58.6652l34.7488 43.1784 4.6572 30.2248-40.4806-50.3746-11.8217 62.9682 7.523 112.984c19.1908 19.9022 30.5165-1.449 44.063-11.155l-5.0154-130.255 38.5099 36.8817 42.9881 56.1319-8.0601 16.731-31.3455-39.9399 1.9702 45.5179 23.1455-15.653 8.8659-8.396c13.9295-11.957 12.6235-29.7639 10.6389-47.8329-16.8531-8.041-27.9705-18.552-30.6503-32.6942l33.6899-4.7071c1.844 10.5939 15.254 20.8603 21.658-0.7633l4.813-2.0354 1.52-13.7392 12.7921 6.6152c15.451-2.3932 31.018-4.33 49.775 6.2335l26.218 0.6362z" style="fill:#fcdd04"/>
 <ellipse id="path4" transform="matrix(.919649 .392742 -.399345 .916801 0 0)" cx="1188.21" cy="434.982" rx="4.87809" ry="8.57211" style="fill-rule:evenodd;fill:#da0e19"/>
</svg>
