<?xml version="1.0" encoding="UTF-8" standalone="no"?>
<!-- Created with Inkscape (http://www.inkscape.org/) -->

<svg
   version="1.1"
   id="svg210"
   width="1200"
   height="480"
   viewBox="0 0 1200 480"
   xmlns="http://www.w3.org/2000/svg"
   xmlns:svg="http://www.w3.org/2000/svg">
  <defs
     id="defs214">
    <clipPath
       clipPathUnits="userSpaceOnUse"
       id="clipPath226">
      <path
         d="M 0,0 H 260.787 V 320.315 H 0 Z"
         id="path224" />
    </clipPath>
    <clipPath
       clipPathUnits="userSpaceOnUse"
       id="clipPath242">
      <path
         d="M 2.041,1.453 H 259.055 V 318.601 H 2.041 Z"
         id="path240" />
    </clipPath>
    <clipPath
       clipPathUnits="userSpaceOnUse"
       id="clipPath258">
      <path
         d="M 0,0 H 260.787 V 320.315 H 0 Z"
         id="path256" />
    </clipPath>
    <clipPath
       clipPathUnits="userSpaceOnUse"
       id="clipPath306">
      <path
         d="M 0,0 H 260.787 V 320.315 H 0 Z"
         id="path304" />
    </clipPath>
    <clipPath
       clipPathUnits="userSpaceOnUse"
       id="clipPath398">
      <path
         d="M 0,0 H 260.787 V 320.315 H 0 Z"
         id="path396" />
    </clipPath>
  </defs>
  <g
     id="g1787">
    <rect
       style="fill:#ffffff;fill-rule:evenodd;stroke-width:1201.03"
       id="rect1433"
       width="1200"
       height="240"
       x="0"
       y="0" />
    <rect
       style="fill:#43ac44;fill-opacity:1;fill-rule:evenodd;stroke-width:1201.03"
       id="rect1433-8"
       width="1200"
       height="240"
       x="0"
       y="240" />
  </g>
  <g
     id="g218"
     transform="matrix(0.49359026,0,0,-0.493591,478.99229,249.68159)">
    <g
       id="g220"
       transform="matrix(1.8918625,0,0,1.8918625,-1.8208259,-284.14828)">
      <g
         id="g222"
         clip-path="url(#clipPath226)">
        <g
           id="g228"
           transform="translate(130.5474,2.9829)">
          <path
             d="m 0,0 c 79.311,14.996 126.999,81.75 127.005,149.419 l -0.003,164.696 h -254.007 l 10e-4,-164.696 C -127,81.75 -79.311,14.996 0,0"
             style="fill:#fff200;fill-opacity:1;fill-rule:nonzero;stroke:none"
             id="path230" />
        </g>
        <g
           id="g232"
           transform="translate(130.5474,6.808)">
          <path
             d="m 0,0 c 36.513,7.06 67.701,25.526 90.281,53.444 21.259,26.286 32.966,59.016 32.966,92.149 l -0.003,160.94 h -246.492 v -160.94 c 0,-33.133 11.707,-65.863 32.967,-92.149 C -67.698,25.526 -36.511,7.06 0,0"
             style="fill:#ffffff;fill-opacity:1;fill-rule:nonzero;stroke:none"
             id="path234" />
        </g>
      </g>
    </g>
    <g
       id="g236"
       transform="matrix(1.8918625,0,0,1.8918625,-1.8208259,-284.14828)">
      <g
         id="g238"
         clip-path="url(#clipPath242)">
        <g
           id="g244"
           transform="translate(130.5456,11.7866)">
          <path
             d="m 0,0 c 34.971,6.973 64.835,24.773 86.485,51.536 20.558,25.419 31.877,57.064 31.874,89.08 V 296.668 H -118.357 V 140.616 C -118.358,108.6 -107.039,76.955 -86.483,51.536 -64.834,24.774 -34.97,6.973 0,0"
             style="fill:#ed1c24;fill-opacity:1;fill-rule:nonzero;stroke:none"
             id="path246" />
        </g>
        <g
           id="g248"
           transform="translate(130.4076,1.4792)">
          <path
             d="M 0,0 C -80.121,15.077 -128.372,82.519 -128.366,150.923 V 317.122 H 128.647 V 150.923 C 128.653,82.519 80.403,15.077 0.279,0 L 0.139,-0.026 Z M -126.864,150.923 C -126.86,83.253 -79.171,16.498 0.14,1.504 79.452,16.498 127.139,83.253 127.145,150.923 l -0.003,164.696 h -254.007 z"
             style="fill:#231f20;fill-opacity:1;fill-rule:nonzero;stroke:none"
             id="path250" />
        </g>
      </g>
    </g>
    <g
       id="g252"
       transform="matrix(1.8918625,0,0,1.8918625,-1.8208259,-284.14828)">
      <g
         id="g254"
         clip-path="url(#clipPath258)">
        <g
           id="g260"
           transform="translate(130.4052,5.3024)">
          <path
             d="m 0,0 c -36.896,7.102 -68.476,25.772 -91.308,54.006 -21.474,26.548 -33.301,59.605 -33.301,93.093 V 309.54 H 124.89 V 147.099 C 124.89,113.611 113.065,80.554 91.593,54.006 68.76,25.772 37.182,7.102 0.285,0 L 0.142,-0.027 Z M -123.105,147.099 C -123.107,113.966 -111.399,81.235 -90.14,54.95 -67.557,27.032 -36.37,8.566 0.142,1.506 c 36.514,7.06 67.702,25.526 90.282,53.444 21.258,26.285 32.964,59.016 32.964,92.149 l -0.002,160.94 h -246.491 z"
             style="fill:#231f20;fill-opacity:1;fill-rule:nonzero;stroke:none"
             id="path262" />
        </g>
        <g
           id="g264"
           transform="translate(130.5456,11.7866)">
          <path
             d="m 0,0 c 33.861,6.75 62.936,23.655 84.402,49.019 -9.697,5.184 -20.767,8.129 -32.535,8.129 -6.4,0 -12.584,-0.888 -18.464,-2.518 7.678,-4.132 14.503,-9.641 20.144,-16.197 h 0.002 l -1.14,-0.98 C 39.727,52.184 20.961,61.516 0,61.516 c -20.96,0 -39.727,-9.332 -52.405,-24.066 l -1.141,0.983 c 5.642,6.557 12.468,12.067 20.146,16.198 -5.88,1.63 -12.067,2.517 -18.462,2.517 -11.766,0 -22.84,-2.942 -32.538,-8.128 C -62.936,23.658 -33.861,6.75 0,0"
             style="fill:#43ac44;fill-opacity:1;fill-rule:nonzero;stroke:none"
             id="path266" />
        </g>
        <g
           id="g268"
           transform="translate(57.1641,67.0896)">
          <path
             d="M 0,0 C 6.786,2.17 14.014,3.349 21.519,3.347 26.618,3.349 31.584,2.79 36.376,1.758 V 64.225 H 0 Z M 110.391,64.225 V 1.758 c 4.79,1.033 9.757,1.591 14.856,1.591 7.505,0 14.733,-1.18 21.517,-3.349 V 64.225 Z M 73.66,50.936 C 64.981,50.902 56.253,44.535 56.092,31.581 V 5.575 c 1.501,0.378 3.019,0.712 4.557,0.991 -0.048,7.047 -0.088,17.982 -0.003,25.821 0.196,18.33 25.007,18.705 25.595,0 0,-3.483 -0.03,-17.097 -0.053,-25.834 1.538,-0.281 3.056,-0.617 4.557,-0.997 V 31.581 C 90.709,44.698 82.245,50.895 73.66,50.936 M 37.88,1.414 c 1.363,-0.325 2.713,-0.68 4.045,-1.081 4.017,2.004 8.254,3.632 12.664,4.848 v 26.408 c 0.113,13.704 9.65,20.885 19.071,20.851 4.662,0 9.318,-1.727 12.807,-5.22 3.494,-3.492 5.786,-8.737 5.781,-15.639 V 5.16 c 4.383,-1.213 8.596,-2.833 12.592,-4.826 1.331,0.401 2.684,0.756 4.047,1.081 v 62.81 H 37.88 Z"
             style="fill:#ffffff;fill-opacity:1;fill-rule:nonzero;stroke:none"
             id="path270" />
        </g>
        <g
           id="g272"
           transform="translate(115.2491,274.7827)">
          <path
             d="m 0,0 c -0.255,-0.114 -0.255,-0.153 -0.283,-0.393 -0.009,-0.279 0.198,-0.771 0.543,-1.135 0.342,-0.377 0.785,-0.612 1.131,-0.605 0.038,0 0.066,0.003 0.078,0.004 0.451,0.042 0.894,0.058 1.329,0.06 6.715,-0.027 11.75,-4.497 15.829,-8.489 -0.225,0.585 -0.357,1.159 -0.368,1.71 -0.011,0.86 0.372,1.707 1.159,2.228 0.782,0.527 1.882,0.779 3.381,0.782 1.1,-0.002 2.433,-0.148 4.019,-0.454 C 15.347,-1.047 8.511,0.65 4.136,0.647 2.436,0.643 1.11,0.394 0,0"
             style="fill:#43ac44;fill-opacity:1;fill-rule:nonzero;stroke:none"
             id="path274" />
        </g>
        <g
           id="g276"
           transform="translate(111.6125,280.9431)">
          <path
             d="m 0,0 c -0.852,-0.265 -0.928,-0.546 -0.939,-0.747 -0.008,-0.202 0.16,-0.545 0.505,-0.819 0.337,-0.274 0.809,-0.467 1.263,-0.463 h 0.043 c 0.643,0.021 1.273,0.028 1.884,0.028 12.66,0.008 18.47,-3.998 27.864,-9.058 -0.134,0.364 -0.206,0.737 -0.206,1.113 0.105,2.986 3.917,5.066 9.211,5.093 0.573,0 1.173,-0.033 1.785,-0.087 C 28.592,-0.113 18.089,1.149 10.782,1.149 5.184,1.149 1.442,0.413 0,0"
             style="fill:#43ac44;fill-opacity:1;fill-rule:nonzero;stroke:none"
             id="path278" />
        </g>
        <g
           id="g280"
           transform="translate(100.2203,291.8345)">
          <path
             d="m 0,0 c -0.093,-0.1 -0.176,-0.332 -0.176,-0.642 -0.002,-0.459 0.184,-1.046 0.508,-1.475 0.335,-0.431 0.751,-0.695 1.288,-0.697 0.185,0 0.386,0.031 0.614,0.109 6.567,2.235 13.807,3.145 21.221,3.145 18.164,-0.003 37.378,-5.457 50.441,-10.499 -0.345,0.517 -0.54,1.056 -0.555,1.62 0.004,1.198 0.889,2.169 2.249,2.787 1.375,0.631 3.316,0.992 5.792,0.995 1.35,-0.001 2.88,-0.125 4.544,-0.365 C 64.884,1.911 41.807,5.406 24.679,5.404 12.203,5.437 2.856,3.461 0,0"
             style="fill:#43ac44;fill-opacity:1;fill-rule:nonzero;stroke:none"
             id="path282" />
        </g>
        <g
           id="g284"
           transform="translate(9.9329,310.7101)">
          <path
             d="m 0,0 v -158.307 c 0.002,-32.549 11.502,-64.682 32.375,-90.498 22.026,-27.233 52.475,-45.342 88.02,-52.374 l 0.216,-0.044 0.221,0.044 c 35.545,7.032 65.996,25.14 88.019,52.374 20.876,25.816 32.376,57.949 32.376,90.498 V 0 Z m 120.613,-298.923 c -33.862,6.751 -62.936,23.657 -84.4,49.02 9.698,5.186 20.772,8.128 32.538,8.128 6.395,0 12.581,-0.888 18.461,-2.517 -7.677,-4.131 -14.503,-9.641 -20.145,-16.2 l 1.141,-0.98 c 12.677,14.732 31.445,24.065 52.405,24.065 20.962,0 39.726,-9.333 52.408,-24.064 l 1.14,0.979 h -0.001 c -5.643,6.558 -12.467,12.067 -20.145,16.199 5.881,1.629 12.065,2.518 18.463,2.518 11.769,0 22.84,-2.947 32.536,-8.128 -21.466,-25.364 -50.54,-42.269 -84.401,-49.02 m -53.46,130.396 v 12.338 h 10.568 v -12.338 H 91.24 v 12.338 h 10.567 v -12.338 h 13.522 v 12.338 h 10.566 v -12.338 h 13.523 v 12.338 h 10.567 v -12.338 h 13.524 v 12.338 h 10.567 v -12.338 h 13.522 v 12.338 h 10.566 v -21.728 H 43.065 v 21.728 h 10.567 v -12.338 z m 38.098,105.604 c -1.238,1.056 -1.68,1.813 -1.665,2.359 -0.047,0.729 0.858,1.818 2.859,3.386 l -0.703,0.882 h -0.001 c -1.987,-1.614 -3.235,-2.739 -3.281,-4.268 0.015,-1.138 0.765,-2.097 2.055,-3.215 0.597,-0.503 1.01,-1.164 0.999,-1.69 -0.009,-0.451 -0.229,-0.962 -1.218,-1.543 -0.987,-0.567 -2.699,-1.1 -5.387,-1.431 -0.42,-0.052 -0.81,-0.115 -1.185,-0.186 -0.486,0.103 -0.963,0.216 -1.433,0.34 1.219,0.832 2.46,2.151 2.931,3.569 l -1.076,0.333 v 0.002 c -0.373,-1.335 -2.247,-3.014 -3.341,-3.465 -2.654,0.852 -5.043,2.047 -7.148,3.423 1.4,0.43 2.734,1.42 3.454,2.68 l -0.982,0.547 v 0.002 c -0.666,-1.238 -2.448,-2.309 -3.771,-2.33 -1.995,1.45 -3.706,3.044 -5.104,4.616 1.398,0.461 3.047,1.513 4.128,2.801 l -0.872,0.715 v 0.002 c -0.983,-1.235 -2.938,-2.343 -4.05,-2.578 -1.368,1.656 -2.39,3.259 -3.016,4.554 -0.137,0.284 -0.254,0.577 -0.38,0.864 1.09,0.376 2.706,1.349 3.714,2.379 l -0.816,0.779 c -0.808,-0.871 -2.552,-1.88 -3.329,-2.116 -0.777,2.038 -1.295,4.17 -1.593,6.264 1.352,0.52 2.662,1.45 3.264,2.831 l -1.036,0.442 -0.002,0.001 c -0.373,-0.899 -1.314,-1.656 -2.363,-2.114 -0.133,1.238 -0.201,2.458 -0.2,3.619 -0.002,1.386 0.086,2.69 0.237,3.868 0.7,0.508 1.293,1.196 1.655,2.102 l -1.046,0.418 c -0.319,-0.787 -0.83,-1.35 -1.464,-1.754 -0.804,-0.501 -1.832,-0.73 -2.855,-0.729 -1.572,-0.017 -3.117,0.577 -3.679,1.227 -0.004,0.004 -0.008,0.01 -0.013,0.016 -0.005,0.004 -0.008,0.009 -0.01,0.014 l -0.87,-0.718 c 0.005,-0.006 0.008,-0.01 0.013,-0.016 H 66.67 l 0.002,-0.001 c 0.785,-0.991 1.107,-2.166 1.107,-3.295 0,-1.068 -0.296,-2.092 -0.724,-2.806 -0.432,-0.73 -0.969,-1.079 -1.338,-1.064 -0.108,0 -0.214,0.02 -0.332,0.076 l -0.007,-0.017 c -0.013,0.004 -0.023,0.011 -0.034,0.015 -0.277,0.105 -0.582,0.2 -0.903,0.282 l -0.275,-1.093 c 0.279,-0.071 0.545,-0.155 0.777,-0.244 1.865,-0.737 2.398,-1.808 2.434,-3.322 0.011,-1.93 -1.149,-4.493 -2.427,-6.822 -1.263,-2.331 -2.605,-4.373 -2.974,-5.734 -0.055,-0.147 -0.088,-0.303 -0.086,-0.461 0.097,-1.119 1.09,-1.497 1.994,-1.927 0.229,-0.098 0.469,-0.194 0.707,-0.284 -1.149,-0.33 -2.008,-0.884 -2.626,-1.43 -0.374,-0.326 -0.665,-0.648 -0.888,-0.912 -0.14,0.81 -0.202,1.6 -0.202,2.37 0.004,4.687 2.234,8.412 2.678,10.219 0.049,0.219 0.07,0.44 0.07,0.656 0,0.622 -0.179,1.238 -0.482,1.783 -0.504,0.902 -1.414,1.655 -2.578,1.659 -0.96,0.003 -1.966,-0.533 -2.87,-1.672 -0.389,-0.487 -0.765,-0.953 -1.123,-1.394 -3.614,-4.43 -5.63,-6.484 -7.47,-7.973 -0.655,-0.529 -1.289,-0.986 -1.974,-1.464 -0.083,-0.054 -0.173,-0.114 -0.264,-0.175 -0.443,-0.311 -1.305,-0.507 -2.228,-0.502 -0.928,-0.003 -1.923,0.186 -2.627,0.5 -0.728,0.325 -1.037,0.72 -1.017,1.014 -0.007,0.238 0.169,0.681 0.864,1.257 9.481,7.87 10.058,12.263 10.027,15.893 -0.002,1.451 0.394,3.04 1.128,4.642 0.667,1.469 1.616,2.955 2.78,4.364 -0.022,-0.288 -0.036,-0.584 -0.036,-0.89 0,-0.309 0.01,-0.632 0.038,-0.969 0.104,-0.83 0.758,-1.719 1.865,-1.794 0.111,0 0.207,0.014 0.291,0.028 l -0.197,1.11 c -0.048,-0.006 -0.079,-0.011 -0.094,-0.011 -0.119,-0.006 -0.317,0.085 -0.481,0.266 -0.166,0.168 -0.265,0.417 -0.261,0.484 -0.024,0.311 -0.034,0.602 -0.034,0.886 0,0.925 0.112,1.748 0.291,2.508 0.027,0.119 0.064,0.243 0.097,0.391 0.746,2.877 2.609,5.119 3.024,8.828 0.565,-1.597 1.17,-3.159 1.665,-4.666 0.653,-1.983 1.128,-3.864 1.127,-5.569 -0.001,-1.044 -0.175,-2.02 -0.582,-2.94 -0.057,-0.128 -0.111,-0.229 -0.156,-0.302 -0.117,0.142 -0.296,0.385 -0.482,0.629 -0.298,0.362 -0.719,0.842 -1.437,0.859 -0.219,0 -0.44,-0.054 -0.649,-0.153 l 0.484,-1.02 c 0.081,0.04 0.131,0.046 0.165,0.046 0.1,0.031 0.375,-0.173 0.662,-0.574 0.144,-0.189 0.286,-0.395 0.459,-0.588 0.17,-0.177 0.392,-0.418 0.823,-0.432 0.65,0.052 0.891,0.513 1.16,1.076 0.485,1.087 0.679,2.23 0.679,3.399 -0.002,1.775 -0.448,3.613 -1.046,5.487 2.417,1.542 3.568,2.996 4.645,5.637 0.047,-0.866 0.128,-1.816 0.24,-3.004 l 0.08,-0.862 0.756,0.422 c 2.022,1.147 4.52,2.625 6.128,4.502 -0.231,-1.371 -0.557,-2.756 -0.71,-3.447 l -0.157,-0.716 0.734,0.032 c 0.458,0.022 0.973,0.031 1.518,0.031 0.727,0 1.505,-0.011 2.271,-0.011 1.033,0.014 2.018,0.015 2.87,0.105 -0.934,-0.843 -2.139,-1.671 -2.474,-1.71 l -1.341,-0.327 1.186,-0.706 c 1.676,-0.993 4.467,-2.717 7.093,-4.027 -0.844,-0.026 -1.67,-0.07 -2.339,-0.07 -0.392,0 -0.731,0.017 -0.966,0.05 l -1.847,0.272 1.389,-1.247 c 1.525,-1.364 3.152,-3.439 4.612,-5.233 0.838,-0.997 1.572,-1.91 2.278,-2.585 -1.552,10e-4 -2.996,0.106 -3.492,0.251 l -1.366,0.375 0.735,-1.213 c 1.799,-2.956 4.172,-5.505 6.914,-6.828 -0.752,-0.404 -1.297,-0.987 -1.718,-1.405 l -0.388,-0.383 0.369,-0.4 c 1.176,-1.268 2.84,-1.684 4.425,-1.683 1.413,0 2.791,0.324 3.862,0.739 0.341,0.133 0.65,0.276 0.923,0.426 -0.09,-0.408 -0.25,-0.754 -0.465,-1.062 l -0.904,-1.29 1.517,0.425 c 2.411,0.672 3.682,1.951 5.559,4.348 -0.161,-1.466 -0.746,-2.581 -1.29,-3.713 l 1.016,-0.485 c 0.612,1.279 1.448,2.813 1.448,4.978 0,0.246 -0.011,0.503 -0.033,0.769 -0.228,2.487 -1.507,5.664 -4.875,10.15 -7.459,9.901 -14.406,12.179 -16.153,15.988 -0.268,0.553 -0.39,1.077 -0.39,1.59 -0.046,2.17 2.405,4.562 7.351,6.325 4.912,1.764 12.143,2.904 21.218,2.904 14.325,0 33.256,-2.847 55.032,-10.44 -18.812,5.321 -38.378,7.995 -53.459,7.998 -12.6,-0.035 -22.041,-1.78 -25.534,-5.799 -0.332,-0.39 -0.446,-0.885 -0.447,-1.375 0.005,-1.415 0.993,-3.25 2.923,-3.299 0.313,0 0.64,0.053 0.975,0.166 6.417,2.188 13.535,3.088 20.86,3.088 8.121,0 16.487,-1.11 24.414,-2.79 -6.976,0.995 -13.519,1.369 -19.271,1.371 -6.405,-0.002 -11.831,-0.46 -15.815,-1.022 -1.99,-0.283 -3.62,-0.591 -4.834,-0.883 -1.23,-0.306 -1.987,-0.541 -2.447,-0.852 -0.446,-0.31 -0.682,-0.824 -0.674,-1.308 0.071,-1.529 1.666,-2.99 3.58,-3.042 0.296,0 0.6,0.039 0.906,0.128 3.231,0.946 6.779,1.351 10.467,1.351 5.828,0.002 12,-1.017 17.831,-2.505 -6.056,1.22 -11.254,1.624 -15.438,1.624 -5.705,-0.002 -9.516,-0.745 -11.092,-1.191 -1.084,-0.283 -1.766,-1 -1.757,-1.833 0.069,-1.354 1.413,-2.371 2.895,-2.408 h 0.061 c 0.649,0.022 1.263,0.031 1.867,0.031 8.458,-0.006 13.688,-1.79 19.168,-4.542 -6.4,2.385 -10.854,3.275 -14.153,3.278 -1.809,0 -3.273,-0.27 -4.507,-0.707 -0.68,-0.211 -1.065,-0.875 -1.038,-1.457 0.062,-1.343 1.23,-2.789 2.801,-2.867 0.05,0 0.109,0 0.178,0.006 0.416,0.039 0.824,0.058 1.229,0.058 3.034,0.012 5.739,-1.008 8.187,-2.517 -1.241,0.582 -2.577,1.023 -4.05,1.256 -0.822,0.13 -1.506,0.194 -2.085,0.194 -0.847,-0.003 -1.498,-0.128 -1.992,-0.503 -0.505,-0.38 -0.694,-0.992 -0.684,-1.574 0.036,-2.019 1.666,-5.032 2.169,-9.196 l 1.12,0.139 c -0.546,4.321 -2.199,7.614 -2.163,9.057 0.01,0.406 0.087,0.552 0.245,0.68 0.165,0.134 0.571,0.273 1.305,0.269 0.495,0 1.129,-0.055 1.911,-0.179 4.808,-0.73 8.146,-3.992 11.862,-7.221 -1.819,0.569 -3.669,0.883 -5.283,0.885 -1.276,-0.004 -2.411,-0.191 -3.291,-0.661 -0.882,-0.456 -1.509,-1.311 -1.492,-2.379 0.005,-1.102 0.567,-2.342 1.734,-3.837 l 0.887,0.694 v 0.002 c -1.094,1.39 -1.502,2.457 -1.497,3.141 0.016,0.65 0.282,1.033 0.901,1.385 0.621,0.338 1.598,0.53 2.758,0.528 2.47,0.004 5.738,-0.838 8.345,-2.267 0.732,-0.549 1.502,-1.069 2.302,-1.545 l 0.233,0.38 0.423,0.531 c -0.226,0.196 -0.463,0.376 -0.699,0.552 -0.003,0.003 -0.009,0.006 -0.013,0.011 -2.523,2.025 -4.594,4.89 -4.544,6.523 0.011,0.576 0.183,0.953 0.666,1.294 0.488,0.337 1.376,0.591 2.747,0.587 2.041,0.004 5.127,-0.544 9.47,-1.906 v 10e-4 c 1.78,-0.614 3.788,-1.151 5.785,-1.508 -0.856,-0.576 -1.315,-1.4 -1.326,-2.172 -10e-4,-0.161 0.022,-0.323 0.073,-0.475 0.197,-0.422 0.416,-0.462 0.626,-0.576 0.744,-0.314 2.114,-0.558 3.567,-0.86 0.646,-0.131 1.306,-0.27 1.898,-0.419 -0.098,-0.076 -0.189,-0.157 -0.278,-0.239 -0.452,-0.459 -0.798,-0.923 -0.829,-1.527 -0.001,-0.163 0.045,-0.371 0.176,-0.542 0.763,-0.832 2.011,-1.129 3.279,-1.426 0.574,-0.123 1.157,-0.232 1.675,-0.335 -0.134,-0.219 -0.214,-0.475 -0.216,-0.755 -0.003,-0.384 0.16,-0.778 0.461,-1.097 1.064,-1.093 4.006,-2.284 5.149,-2.781 2.856,-5.504 8.158,-9.051 14.465,-11.238 -1.695,-0.403 -4.09,-0.781 -6.56,-1.001 0.39,0.573 0.734,1.197 0.904,1.677 l -1.069,0.347 c -0.132,-0.46 -0.858,-1.601 -1.33,-2.136 -0.898,-0.055 -1.791,-0.089 -2.644,-0.088 -0.302,0 -0.602,0.006 -0.896,0.013 -0.754,0.019 -1.586,0.06 -2.451,0.118 0.865,0.763 1.581,1.802 1.749,3.081 l -1.118,0.115 c -0.076,-1.268 -1.295,-2.428 -2.377,-3.058 -3.015,0.265 -6.084,0.683 -7.51,1.035 0.151,0.218 0.337,0.464 0.575,0.753 0.731,0.92 1.546,1.723 1.579,2.893 -0.012,1.066 -0.764,1.991 -2.343,3.031 l -0.62,-0.942 c 1.499,-0.983 1.849,-1.66 1.835,-2.089 0.033,-0.505 -0.532,-1.245 -1.321,-2.179 -0.847,-1.033 -1.317,-1.766 -1.325,-2.641 0,-0.328 0.076,-0.633 0.19,-0.94 -0.114,-0.048 -0.226,-0.108 -0.333,-0.185 -0.338,-0.267 -0.554,-0.617 -0.702,-1.077 -0.591,-0.113 -1.326,-0.204 -2.13,-0.266 -0.113,0.384 -0.296,0.736 -0.584,1.024 -0.534,0.53 -1.313,0.77 -2.27,0.767 -0.896,0.003 -1.638,-0.205 -2.16,-0.702 -0.301,-0.287 -0.485,-0.649 -0.595,-1.047 -0.725,0.056 -1.416,0.127 -2.013,0.221 -0.144,0.022 -0.279,0.048 -0.412,0.071 -0.147,0.427 -0.355,0.768 -0.679,1.009 -0.157,0.114 -0.322,0.183 -0.491,0.238 0.005,0.005 0.009,0.008 0.014,0.011 0.55,0.386 1.56,0.697 2.538,0.984 0.99,0.303 1.93,0.538 2.559,1.096 0.234,0.219 0.44,0.547 0.437,0.94 -0.076,0.99 -0.882,1.632 -2.542,2.687 -1.475,0.908 -2.101,1.861 -2.098,2.765 -0.06,1.491 1.901,3.648 6.566,5.639 l -0.446,1.035 h -0.001 c -4.748,-2.077 -7.186,-4.258 -7.244,-6.674 0.003,-1.47 1.001,-2.732 2.634,-3.726 0.804,-0.489 1.343,-0.896 1.652,-1.207 0.103,-0.102 0.17,-0.184 0.223,-0.258 -0.92,0.009 -2.896,0.081 -4.346,0.374 0.223,0.288 0.341,0.62 0.33,0.964 0,0.144 -0.017,0.276 -0.038,0.397 l -1.11,-0.208 c 0.016,-0.076 0.022,-0.142 0.022,-0.189 -0.022,-0.214 -0.022,-0.348 -0.635,-0.638 -0.749,-0.323 -2.325,-0.569 -5.031,-0.564 -1.553,0 -3.492,0.075 -5.874,0.242 0.906,0.548 1.761,1.194 2.519,1.971 l -0.806,0.788 c -1.121,-1.149 -2.472,-2.021 -3.933,-2.657 -2.675,-1.179 -5.74,-1.592 -8.456,-1.59 -0.525,0 -1.029,0.018 -1.522,0.046 2.162,0.524 3.924,1.13 5.246,1.835 1.686,0.899 2.769,2.038 2.78,3.488 -0.013,1.298 -0.878,2.512 -2.404,3.785 -0.479,0.397 -0.957,0.806 -0.957,0.806 l -0.67,-0.813 c 0,0 0.597,-0.51 0.991,-0.844 1.633,-1.391 1.924,-2.193 1.911,-2.934 0.012,-0.801 -0.624,-1.658 -2.182,-2.494 -1.537,-0.824 -3.884,-1.558 -6.909,-2.159 -0.431,-0.072 -0.812,-0.364 -0.958,-0.714 -0.1,-0.224 -0.126,-0.441 -0.126,-0.639 0.012,-0.498 0.146,-0.999 0.241,-1.434 -0.044,0.001 -0.085,0.017 -0.13,0.015 -0.509,0 -1.011,-0.04 -1.458,-0.364 -0.333,-0.261 -0.548,-0.6 -0.696,-1.045 -0.25,-0.018 -0.511,-0.035 -0.785,-0.049 -0.442,-0.025 -0.92,-0.046 -1.414,-0.066 -0.116,0.312 -0.28,0.6 -0.522,0.841 -0.531,0.53 -1.311,0.77 -2.271,0.767 -0.895,0.003 -1.637,-0.205 -2.159,-0.702 -0.28,-0.267 -0.46,-0.597 -0.574,-0.962 -0.713,0.021 -1.375,0.053 -1.936,0.106 -0.181,0.016 -0.337,0.036 -0.494,0.055 -0.148,0.45 -0.363,0.805 -0.697,1.055 -0.214,0.154 -0.441,0.243 -0.675,0.294 0.101,0.893 0.781,2.166 4.218,2.885 0.389,0.08 0.812,0.147 1.276,0.204 2.772,0.346 4.607,0.887 5.805,1.572 1.196,0.668 1.795,1.584 1.788,2.521 -0.014,1.054 -0.666,1.914 -1.39,2.546 m -60.209,-16.04 c 0.116,-0.037 0.24,-0.061 0.375,-0.061 1.019,0.061 1.863,0.87 3.294,2.657 2.909,3.744 4.231,8.452 5.29,12.902 1.05,4.451 1.846,8.657 3.507,11.338 0.013,0.022 0.014,0.046 0.025,0.068 0.335,0.413 0.679,0.839 1.042,1.29 0.78,0.97 1.461,1.25 1.988,1.251 0.483,0.004 0.943,-0.252 1.295,-0.662 -2.875,-2.858 -3.94,-6.914 -5.364,-11.464 -1.46,-4.692 -3.276,-9.945 -7.632,-15.158 -1.324,-1.589 -2.682,-3.244 -3.708,-4.753 v 0.009 c 0,0.809 -0.04,1.698 -0.112,2.583 m 7.976,16.249 c -1.62,0.356 -2.274,0.658 -2.868,2.686 1.34,1.122 2.79,2.559 4.801,4.883 -0.756,-2.283 -1.303,-4.889 -1.933,-7.569 m -0.647,27.506 c -0.009,2.477 0.904,5.947 1.241,9.074 0.957,-2.39 1.98,-4.162 2.518,-5.663 -0.002,-0.013 -0.006,-0.026 -0.009,-0.04 -1.459,-1.529 -2.684,-3.188 -3.595,-4.878 -0.106,0.43 -0.158,0.934 -0.155,1.507 m 111.813,6.273 c -13.064,5.042 -32.278,10.497 -50.441,10.499 -7.415,0 -14.655,-0.91 -21.223,-3.146 -0.226,-0.076 -0.428,-0.106 -0.612,-0.106 -0.537,0.002 -0.954,0.265 -1.288,0.697 -0.325,0.427 -0.511,1.014 -0.508,1.473 -0.002,0.31 0.083,0.543 0.176,0.642 2.857,3.46 12.202,5.438 24.678,5.404 17.128,10e-4 40.205,-3.493 61.248,-10.426 -1.665,0.24 -3.194,0.365 -4.544,0.366 -2.477,-0.004 -4.418,-0.364 -5.793,-0.995 -1.36,-0.619 -2.244,-1.589 -2.249,-2.787 0.015,-0.565 0.21,-1.104 0.556,-1.621 m -17.429,-5.603 c -8.949,4.038 -23.547,9.047 -36.686,9.056 -3.771,-0.003 -7.421,-0.414 -10.785,-1.399 -0.195,-0.056 -0.391,-0.082 -0.588,-0.082 -0.628,-10e-4 -1.269,0.287 -1.734,0.699 -0.476,0.401 -0.732,0.928 -0.72,1.217 0.011,0.179 0.043,0.264 0.207,0.391 0.117,0.102 0.897,0.405 2.051,0.674 3.511,0.846 10.865,1.873 20.386,1.871 10.683,0.002 24.104,-1.296 37.978,-5.534 -1.206,0.144 -2.335,0.217 -3.369,0.217 -2.425,0 -4.354,-0.368 -5.743,-1.058 -1.379,-0.677 -2.261,-1.778 -2.257,-3.11 0.018,-0.967 0.438,-1.95 1.26,-2.942 M 132.3,-40.826 c -9.395,5.06 -15.204,9.067 -27.864,9.059 -0.612,0 -1.242,-0.009 -1.886,-0.028 h -0.042 c -0.453,-0.004 -0.925,0.188 -1.261,0.462 -0.347,0.274 -0.514,0.617 -0.506,0.818 0.01,0.202 0.087,0.483 0.938,0.749 1.442,0.412 5.183,1.148 10.783,1.148 7.307,0 17.808,-1.261 30.628,-6.088 -0.613,0.053 -1.212,0.085 -1.786,0.086 -5.293,-0.028 -9.105,-2.107 -9.21,-5.093 0,-0.377 0.072,-0.749 0.206,-1.113 m -8.358,-5.66 c -4.079,3.992 -9.113,8.463 -15.828,8.491 -0.435,-0.003 -0.879,-0.019 -1.329,-0.062 -0.013,-10e-4 -0.04,-0.003 -0.078,-0.003 -0.346,-0.008 -0.789,0.227 -1.131,0.605 -0.345,0.364 -0.553,0.856 -0.542,1.135 0.027,0.239 0.026,0.278 0.282,0.392 1.111,0.394 2.437,0.645 4.135,0.647 4.377,0.004 11.213,-1.694 22.683,-6.939 -1.585,0.306 -2.919,0.453 -4.018,0.454 -1.5,-0.002 -2.6,-0.255 -3.382,-0.781 -0.786,-0.522 -1.17,-1.369 -1.159,-2.228 0.011,-0.552 0.144,-1.126 0.367,-1.711 m 41.984,9.748 c 0.097,0.619 0.368,1.424 1.097,1.833 l 0.452,0.218 c 2.079,0.705 4.358,1.053 7.021,1.06 0.009,0 0.018,-0.003 0.029,-0.003 -0.411,-0.265 -0.784,-0.577 -1.078,-0.942 l 0.893,-0.686 c 0.538,0.748 2.096,1.419 2.936,1.41 2.445,-0.385 4.673,-1.272 6.595,-2.554 -0.179,0.007 -0.356,0.013 -0.535,0.016 -0.848,0 -1.67,-0.072 -2.27,-0.183 l 0.206,-1.108 c 0.504,0.095 1.282,0.163 2.064,0.163 0.954,0.008 1.941,-0.12 2.376,-0.325 1.742,-1.562 3.132,-3.496 4.074,-5.678 -0.678,0.4 -1.454,0.665 -2.232,0.721 l -0.056,-1.126 c 1.335,-0.033 2.848,-1.094 3.111,-1.967 l 0.131,-0.393 c 0.35,-1.378 0.455,-2.607 0.455,-4.099 0,-0.943 -0.072,-1.875 -0.206,-2.792 -0.426,0.805 -1.071,1.506 -1.929,1.908 l -0.466,-1.027 h -0.001 c 1.096,-0.472 1.871,-1.951 1.857,-3.137 0,-0.097 -0.007,-0.196 -0.018,-0.294 -0.592,-1.989 -1.526,-3.877 -2.808,-5.617 0,0.026 0.003,0.048 0.003,0.074 -0.001,1.084 -0.147,2.309 -0.369,3.305 l -1.1,-0.245 -0.002,0.002 c 0.204,-0.907 0.318,-2.08 0.344,-3.062 0.029,-1.086 -0.223,-1.708 -0.223,-1.708 -1.132,-1.231 -2.463,-2.367 -3.99,-3.388 0.069,0.459 0.107,0.955 0.111,1.489 -0.001,0.554 -0.036,1.133 -0.113,1.709 l -1.119,-0.149 h -0.001 c 0.072,-0.524 0.106,-1.058 0.106,-1.56 0.007,-1.043 -0.173,-1.973 -0.391,-2.367 -0.633,-0.365 -1.296,-0.713 -1.988,-1.042 -4.425,1.568 -8.187,3.831 -10.875,6.562 4.053,0.119 7.526,0.779 10.096,2.495 2.802,1.864 4.372,4.893 4.31,8.476 -0.088,5.118 -4.4,9.196 -9.208,9.533 -2.779,0.194 -5.179,-0.73 -7.3,-2.512 -2.12,-1.778 -3.538,-4.432 -3.534,-7.892 -0.001,-3.707 1.49,-7.116 4.017,-10.012 2.932,-3.348 7.254,-6.035 12.384,-7.812 4.419,-1.529 9.447,-2.384 14.709,-2.384 1.207,0 2.43,0.044 3.658,0.138 l 0.551,0.042 -0.029,0.551 c -0.104,0.656 -0.535,0.838 -0.965,1.091 4.9,-0.562 11.124,-1.926 15.594,-3.442 -0.49,0.024 -0.988,0.043 -1.493,0.043 -5.102,-0.005 -11.025,-1.149 -15.304,-1.734 0.453,0.229 0.873,0.466 1.222,0.699 0.465,0.357 0.87,0.545 0.996,1.198 l 0.054,0.636 -0.637,-0.026 c -1.236,-0.047 -2.49,-0.073 -3.755,-0.073 -6.229,0 -12.714,0.625 -18.457,2.24 l -0.132,0.038 -0.004,0.019 c -0.012,-0.002 -0.017,-0.005 -0.026,-0.009 -7.297,2.084 -13.341,5.747 -16.289,11.706 -1.26,2.539 -1.97,5.513 -1.97,9.007 0.017,5.715 2.921,11.16 8.583,14.012 -0.127,-0.297 -0.218,-0.589 -0.271,-0.84 z m 1.08,-23.869 c -2.236,2.671 -3.497,5.703 -3.497,8.987 0.005,6.259 5.389,9.478 9.231,9.329 4.041,-0.155 8.309,-3.221 8.556,-8.356 0.14,-2.917 -1.359,-6.038 -3.85,-7.722 -2.485,-1.671 -6.077,-2.233 -10.44,-2.238 m -19.31,-13.246 c 0.11,0.089 0.335,0.147 0.772,0.147 h 0.019 c 0.366,-0.009 0.59,-0.142 0.812,-0.465 0.214,-0.327 0.36,-0.864 0.358,-1.528 0.006,-1.567 -0.798,-3.744 -2.629,-5.41 0.006,3.422 0.058,5.389 0.281,6.402 0.12,0.568 0.273,0.774 0.387,0.854 m -4.485,-1.461 c 0.011,-1.295 -0.729,-3.351 -1.806,-5.648 -1.142,2.536 -1.828,4.561 -1.817,5.782 0.001,0.6 0.143,0.948 0.37,1.166 0.229,0.222 0.644,0.39 1.382,0.39 0.788,-0.001 1.226,-0.189 1.475,-0.437 0.247,-0.248 0.392,-0.639 0.396,-1.253 m -28.528,0.932 v -10.579 h -8.858 v 2.448 c 2.555,1.94 3.703,4.69 3.711,6.814 -0.003,0.818 -0.166,1.558 -0.541,2.142 -0.113,0.179 -0.262,0.334 -0.424,0.474 -0.045,0.633 -0.231,1.249 -0.291,1.669 1.09,-0.146 2.321,-0.24 3.644,-0.24 2.782,0.002 5.928,0.415 8.767,1.628 3.259,-0.263 5.803,-0.381 7.783,-0.381 2.537,0.005 4.129,0.188 5.182,0.549 1.139,-0.399 2.75,-0.564 4.042,-0.633 -0.465,-0.143 -0.979,-0.293 -1.472,-0.446 -0.67,-0.219 -1.325,-0.464 -1.859,-0.828 -0.319,-0.212 -0.6,-0.51 -0.781,-0.868 -0.559,-0.119 -1.033,-0.458 -1.326,-0.924 -0.377,-0.583 -0.542,-1.322 -0.543,-2.142 0.006,-2.115 1.146,-4.854 3.683,-6.792 v -2.47 h -8.857 l 10e-4,10.579 z m -8.905,-6.728 c 0.006,3.423 0.057,5.39 0.28,6.403 0.12,0.568 0.274,0.774 0.387,0.854 0.111,0.088 0.335,0.147 0.772,0.147 h 0.018 c 0.369,-0.009 0.591,-0.142 0.814,-0.467 0.213,-0.324 0.36,-0.862 0.358,-1.526 0.006,-1.567 -0.799,-3.744 -2.629,-5.411 m 27.066,5.411 c -0.001,0.663 0.147,1.202 0.361,1.526 0.224,0.326 0.445,0.458 0.816,0.467 h 0.034 c 0.427,0 0.65,-0.06 0.757,-0.148 0.172,-0.096 0.429,-0.586 0.534,-1.924 0.1,-1.148 0.126,-2.856 0.129,-5.335 -1.831,1.669 -2.635,3.847 -2.631,5.414 m -30.883,0.385 c 0.012,-1.295 -0.728,-3.352 -1.806,-5.648 -1.142,2.536 -1.83,4.561 -1.818,5.782 10e-4,0.6 0.144,0.948 0.373,1.166 0.227,0.222 0.641,0.39 1.379,0.392 0.79,-0.003 1.23,-0.191 1.477,-0.439 0.246,-0.248 0.391,-0.639 0.395,-1.253 m -8.4,1.461 c 0.17,-0.097 0.428,-0.588 0.534,-1.926 0.102,-1.147 0.127,-2.854 0.131,-5.331 -1.832,1.667 -2.634,3.844 -2.631,5.411 -0.002,0.664 0.146,1.201 0.361,1.526 0.223,0.325 0.447,0.458 0.816,0.467 h 0.017 c 0.436,0 0.661,-0.058 0.772,-0.147 m 1.907,-12.611 v 10.58 h 1.8 c 0.022,-0.179 0.056,-0.369 0.092,-0.56 0.009,-0.047 0.016,-0.093 0.027,-0.141 0.036,-0.177 0.082,-0.36 0.13,-0.545 0.018,-0.07 0.036,-0.142 0.055,-0.213 0.05,-0.176 0.105,-0.358 0.162,-0.544 0.028,-0.09 0.058,-0.179 0.089,-0.272 0.059,-0.178 0.122,-0.359 0.189,-0.545 0.04,-0.108 0.081,-0.219 0.124,-0.331 0.067,-0.178 0.135,-0.357 0.208,-0.54 0.053,-0.135 0.11,-0.271 0.168,-0.41 0.07,-0.17 0.139,-0.34 0.214,-0.516 0.076,-0.178 0.158,-0.363 0.239,-0.546 0.065,-0.145 0.125,-0.287 0.191,-0.434 0.152,-0.338 0.311,-0.684 0.477,-1.039 l 0.495,-1.061 0.52,1.05 c 0.159,0.325 0.314,0.646 0.464,0.964 0.077,0.163 0.148,0.323 0.222,0.486 0.07,0.146 0.139,0.296 0.204,0.442 0.092,0.204 0.177,0.405 0.262,0.604 0.04,0.096 0.083,0.194 0.123,0.288 0.09,0.222 0.175,0.438 0.259,0.652 0.027,0.07 0.054,0.139 0.079,0.207 0.085,0.228 0.163,0.45 0.237,0.671 0.018,0.05 0.035,0.099 0.05,0.151 0.075,0.229 0.142,0.454 0.203,0.676 l 0.026,0.103 c 0.062,0.23 0.115,0.456 0.158,0.675 0.003,0.018 0.006,0.035 0.009,0.052 0.044,0.231 0.08,0.457 0.101,0.676 h 1.278 v -10.58 h 11.861 v 10.58 h 8.855 l 0.001,-10.58 h 11.865 v 10.58 h 1.62 c 0.024,-0.203 0.059,-0.414 0.103,-0.63 0.004,-0.019 0.007,-0.037 0.011,-0.058 0.043,-0.205 0.094,-0.419 0.151,-0.637 l 0.027,-0.103 c 0.058,-0.21 0.122,-0.425 0.194,-0.648 0.015,-0.05 0.032,-0.1 0.048,-0.151 0.07,-0.212 0.144,-0.427 0.225,-0.65 0.025,-0.072 0.055,-0.144 0.081,-0.219 0.079,-0.207 0.157,-0.418 0.245,-0.635 0.041,-0.104 0.086,-0.211 0.13,-0.315 0.08,-0.196 0.159,-0.391 0.245,-0.592 0.069,-0.161 0.143,-0.327 0.215,-0.492 0.07,-0.158 0.137,-0.313 0.209,-0.476 0.152,-0.334 0.309,-0.677 0.472,-1.03 l 0.497,-1.061 0.518,1.05 c 0.159,0.324 0.312,0.642 0.461,0.957 0.09,0.189 0.174,0.374 0.258,0.56 0.054,0.118 0.111,0.239 0.163,0.356 0.107,0.24 0.207,0.473 0.307,0.707 0.024,0.058 0.05,0.116 0.073,0.173 0.107,0.256 0.205,0.507 0.3,0.754 0.012,0.033 0.025,0.064 0.037,0.096 0.099,0.258 0.186,0.512 0.268,0.761 l 0.021,0.056 c 0.082,0.257 0.157,0.506 0.222,0.75 0.002,0.011 0.007,0.022 0.009,0.033 0.066,0.248 0.122,0.489 0.167,0.725 0.002,0.007 0.003,0.014 0.006,0.022 0.044,0.237 0.079,0.467 0.102,0.691 0,0.001 0.002,0.004 0.002,0.006 h 1.469 v -10.58 h 11.859 v 10.58 h 8.858 V -95.431 H 74.749 v 19.547 h 8.856 l 0.003,-10.58 z m 42.473,-68.248 v -12.337 h -10.568 l 0.002,12.337 h -5.972 v 57.779 h 34.714 l 0.002,-70.116 h -4.657 v 12.337 z m -52.832,57.779 h 34.789 v -57.779 h -6.044 v -12.337 h -10.57 v 12.337 H 89.762 v -12.337 h -4.653 z m 108.886,-82.462 v -64.226 c -6.784,2.169 -14.012,3.35 -21.517,3.35 -5.098,0 -10.066,-0.559 -14.856,-1.591 v 62.467 z M 133.699,-196.4 c -3.49,3.492 -8.146,5.219 -12.808,5.219 -9.421,0.034 -18.958,-7.147 -19.071,-20.85 v -26.409 c -4.41,-1.215 -8.646,-2.843 -12.664,-4.848 -1.332,0.402 -2.683,0.757 -4.045,1.082 v 62.811 h 71.008 v -62.811 c -1.364,-0.324 -2.718,-0.679 -4.049,-1.08 -3.995,1.992 -8.208,3.612 -12.59,4.825 v 26.422 c 0.003,6.901 -2.287,12.146 -5.781,15.639 m -25.822,-14.835 c -0.085,-7.838 -0.046,-18.772 0.003,-25.819 -1.538,-0.28 -3.056,-0.614 -4.558,-0.991 v 26.006 c 0.163,12.954 8.891,19.32 17.569,19.354 8.584,-0.04 17.048,-6.238 17.085,-19.354 v -26.025 c -1.5,0.379 -3.019,0.715 -4.558,0.996 0.023,8.737 0.054,22.352 0.054,25.833 -0.588,18.706 -25.4,18.331 -25.595,0 m -60.646,31.84 h 36.377 v -62.468 c -4.792,1.032 -9.759,1.592 -14.857,1.591 -7.505,0.001 -14.734,-1.179 -21.52,-3.349 z m 191.741,21.088 c 0.002,-32.018 -11.317,-63.661 -31.874,-89.079 -0.365,-0.451 -0.737,-0.894 -1.108,-1.34 -3.481,1.882 -7.141,3.471 -10.944,4.756 0.15,-0.052 0.302,-0.095 0.452,-0.146 v 64.721 h 4.143 v 24.683 h -13.523 v -12.337 h -10.567 v 12.337 h -13.522 v -12.337 h -4.407 v 70.116 h 10.359 v 22.549 h -11.862 v -10.577 h -8.856 v 2.599 c 2.421,1.93 3.517,4.592 3.521,6.663 -0.001,0.82 -0.164,1.56 -0.54,2.142 -0.362,0.578 -1.004,0.979 -1.741,0.978 -0.142,0.32 -0.209,0.56 -0.208,0.759 0,0.047 0.002,0.098 0.01,0.148 2.258,-0.609 8.109,-1.268 12.164,-1.384 0.299,-0.007 0.607,-0.01 0.923,-0.01 4.676,0.003 10.203,0.85 12.598,1.697 l -0.006,0.016 0.812,-0.244 c 5.838,-1.618 12.343,-2.233 18.587,-2.234 0.743,0 1.485,0.01 2.219,0.024 -0.394,-0.228 -0.86,-0.472 -1.326,-0.673 -1.14,-0.532 -2.942,-1.002 -2.948,-1.001 l -0.057,-1.108 c 0.071,-0.013 0.489,-0.011 0.489,-0.011 4.125,0.01 12.365,2.073 19.047,2.067 2.289,0.002 4.38,-0.244 6.008,-0.866 l 0.495,1.008 h -0.002 c -4.74,2.848 -17.972,5.762 -24.755,5.785 -0.495,-0.002 -0.96,-0.015 -1.385,-0.051 l 0.025,-1.124 c 0.838,-0.034 2.289,-0.299 3.48,-0.652 0.249,-0.072 0.489,-0.151 0.71,-0.231 -0.634,-0.025 -1.263,-0.037 -1.892,-0.037 -4.641,0 -9.093,0.688 -13.07,1.916 5.833,3.053 9.555,7.563 11.087,12.731 0,0 0.033,0.118 0.034,0.117 0,10e-4 0,0.002 0.002,0.004 0.516,1.789 0.777,3.649 0.777,5.552 0,5.323 -2.214,10.133 -5.887,13.412 l 0.008,0.009 c -0.029,0.025 -0.062,0.048 -0.093,0.066 -2.378,2.11 -5.367,3.569 -8.733,4.129 0,0 -0.166,0.043 -0.278,0.045 -0.921,0.141 -1.872,0.219 -2.842,0.219 -6.177,0.002 -10.976,-2.062 -14.214,-5.259 -3.237,-3.195 -4.906,-7.503 -4.905,-11.944 0,-3.106 0.548,-5.857 1.536,-8.276 -1.341,0.6 -3.141,1.48 -3.611,2.019 -0.137,0.149 -0.157,0.249 -0.16,0.328 0.002,0.159 0.166,0.381 0.498,0.386 0.041,0 0.084,-0.005 0.132,-0.014 l 0.309,1.08 c -0.8,0.297 -2.062,0.472 -3.284,0.74 -1.105,0.226 -2.153,0.585 -2.55,0.934 0.015,0.045 0.043,0.107 0.087,0.179 0.242,0.457 0.978,1.022 1.413,0.987 0.078,-0.002 0.151,-0.013 0.227,-0.041 l 0.441,1.035 c -1.056,0.504 -2.865,0.851 -4.493,1.188 -0.81,0.162 -1.563,0.318 -2.109,0.464 -0.27,0.071 -0.49,0.142 -0.621,0.201 -0.008,0.002 -0.014,0.005 -0.021,0.007 v 0.008 c 0.004,0.538 0.779,1.798 2.934,1.8 0.025,0 0.057,-0.002 0.097,-0.004 l 0.069,1.127 c -2.717,0.225 -5.764,0.942 -8.301,1.815 -0.451,0.22 -0.893,0.438 -1.34,0.655 -0.628,0.319 -1.248,0.632 -1.845,0.945 -1.147,0.872 -1.565,1.704 -1.565,2.428 -0.006,0.901 0.669,1.883 2.086,2.664 1.407,0.777 3.48,1.3 5.998,1.298 2.576,0.002 5.611,-0.543 8.881,-1.892 l 0.018,-0.009 0.046,-0.013 c 0,0 0.014,-0.006 0.033,-0.016 0.022,-0.009 0.043,-0.018 0.066,-0.029 v -0.002 c 0.027,-0.012 0.056,-0.026 0.085,-0.038 0.695,-0.316 1.357,-0.626 2.03,-0.947 0.004,-0.003 0.009,-0.005 0.015,-0.009 0.006,-10e-4 0.011,-0.004 0.017,-0.007 l 0.531,0.993 c -0.009,0.005 -0.02,0.011 -0.028,0.017 -0.004,0.002 -0.008,0.004 -0.011,0.008 -0.516,0.303 -1.107,0.632 -1.768,0.986 -3.289,1.969 -4.63,3.888 -4.595,5.113 0.005,0.807 0.477,1.506 1.633,2.1 1.147,0.578 2.932,0.944 5.238,0.941 3.685,0.001 8.694,-0.919 14.652,-3.187 l 0.364,0.898 0.062,0.146 h -0.001 l -0.001,0.001 c -2.762,1.16 -3.861,2.547 -3.815,3.383 -0.008,0.577 0.424,1.216 1.593,1.762 1.155,0.534 2.956,0.893 5.321,0.892 4.41,0.001 10.78,-1.229 18.735,-4.606 0.002,-0.002 0.007,-0.002 0.01,-0.004 l 0.011,-0.005 h 0.003 l 0.003,-0.002 0.459,1.029 c -31.175,14.465 -58.339,19.471 -77.498,19.473 -9.171,-0.002 -16.504,-1.144 -21.6,-2.972 -5.057,-1.824 -8.049,-4.331 -8.096,-7.384 0,-0.695 0.17,-1.396 0.503,-2.081 2.267,-4.501 8.968,-6.417 16.265,-16.175 3.126,-4.156 4.326,-7.066 4.613,-9.21 -1.993,-2.587 -3.012,-3.869 -4.62,-4.625 0.095,0.368 0.147,0.763 0.146,1.184 0.001,0.183 -0.009,0.374 -0.028,0.57 l -0.993,0.027 -0.109,0.062 c 0,0 -0.005,-0.007 -0.008,-0.022 -0.077,-0.118 -0.727,-0.585 -1.586,-0.872 -0.923,-0.337 -2.113,-0.594 -3.271,-0.594 -1.204,0 -2.344,0.271 -3.197,0.949 0.632,0.606 1.316,1.132 2.357,1.132 l 0.148,1.107 c -2.717,0.734 -5.295,3.018 -7.284,5.939 0.745,-0.064 1.655,-0.093 2.63,-0.094 0.555,0 1.127,0.01 1.686,0.03 l 0.103,1.112 c -0.51,0.052 -1.915,1.499 -3.326,3.282 -1.141,1.395 -2.393,2.989 -3.67,4.323 0.946,0.017 2.047,0.086 3.042,0.085 0.645,0.001 1.245,-0.03 1.701,-0.114 l 0.295,1.084 c -2.64,0.967 -6.323,3.166 -8.719,4.602 1.169,0.706 2.618,1.959 3.256,3.038 l -0.806,0.74 c -0.408,-0.323 -2.269,-0.475 -4.156,-0.452 -0.76,0 -1.536,0.01 -2.271,0.01 -0.286,0 -0.565,-10e-4 -0.835,-0.007 0.312,1.397 0.828,3.763 0.832,5.42 l -1.098,0.179 c -0.68,-2.146 -3.615,-4.218 -6.205,-5.709 -0.14,1.583 -0.208,2.7 -0.208,3.893 0,0.414 0.007,0.838 0.025,1.292 l -1.098,0.201 c -1.56,-4.607 -2.217,-6.013 -5.015,-7.881 -0.961,2.791 -2.161,5.665 -2.786,8.493 -0.009,0.04 -0.016,0.08 -0.024,0.122 h -0.002 v 0.001 l -1.103,-0.234 c 0.258,-1.229 0.367,-2.306 0.367,-3.27 0.011,-3.604 -1.522,-5.745 -2.584,-8.545 -0.877,1.956 -2.127,4.196 -3.023,7.41 l -1.102,-0.22 c 0.043,-0.37 0.066,-0.767 0.066,-1.184 0.008,-3.295 -1.351,-7.779 -1.362,-11.075 0.004,-1.083 0.164,-2.061 0.631,-2.861 -0.709,-1.63 -1.122,-3.268 -1.122,-4.84 -0.031,-3.437 -0.264,-7.158 -9.62,-15.025 -0.815,-0.684 -1.262,-1.377 -1.269,-2.125 0.018,-1.012 0.813,-1.655 1.687,-2.044 0.899,-0.397 2.01,-0.596 3.084,-0.597 0.977,0.003 1.91,0.169 2.65,0.584 1.101,-1.49 2.643,-1.937 3.985,-1.937 0.028,0 0.056,0 0.083,10e-4 0.488,0 0.941,0.05 1.37,0.105 -1.019,-4.184 -2.325,-8.421 -4.901,-11.728 -1.329,-1.757 -2.24,-2.284 -2.404,-2.222 -0.062,0.003 -0.124,0.003 -0.3,0.313 -0.149,0.285 -0.288,0.769 -0.412,1.317 -0.02,0.103 -0.031,0.136 -0.031,0.136 0,0.008 -0.006,0.014 -0.007,0.023 h 0.004 c -0.061,0.312 -0.121,0.615 -0.197,0.897 l -1.094,-0.27 c 0.063,-0.269 0.12,-0.543 0.178,-0.81 10e-4,-0.003 10e-4,-0.007 0.002,-0.01 0.017,-0.108 0.034,-0.148 0.033,-0.15 0,-0.002 10e-4,-0.004 10e-4,-0.004 v -0.004 l -10e-4,0.002 c 0.274,-1.521 0.434,-3.494 0.431,-5.089 0.003,-0.962 -0.061,-1.8 -0.169,-2.271 l 1.062,-0.358 c 0.779,1.72 2.825,4.281 4.811,6.65 4.499,5.383 6.374,10.832 7.842,15.545 1.376,4.444 2.439,8.188 4.845,10.737 0.052,-0.201 0.082,-0.402 0.08,-0.592 0,-0.143 -0.014,-0.28 -0.042,-0.403 -0.306,-1.423 -2.704,-5.48 -2.704,-10.472 0,-1.045 0.104,-2.132 0.353,-3.25 0.028,-0.13 0.058,-0.249 0.141,-0.393 0.064,-0.131 0.289,-0.345 0.567,-0.345 0.006,0 0.013,0.003 0.016,0.003 0.389,0.03 0.486,0.2 0.606,0.298 0.7,0.712 1.792,2.742 5.316,2.837 l 0.25,1.062 c -0.736,0.381 -1.8,0.704 -2.67,1.08 -0.434,0.186 -0.816,0.383 -1.045,0.563 -0.243,0.189 -0.273,0.308 -0.266,0.328 0,0.007 0,0.027 0.016,0.071 l 0.017,0.042 0.012,0.038 c 0.225,0.975 1.585,3.147 2.877,5.506 1.291,2.384 2.552,5.015 2.564,7.36 0.024,1.353 -0.49,2.63 -1.634,3.538 0.455,0.293 0.843,0.735 1.153,1.25 0.545,0.917 0.882,2.112 0.884,3.385 0,0.685 -0.099,1.395 -0.328,2.09 0.798,-0.285 1.715,-0.437 2.652,-0.445 0.841,10e-4 1.7,0.14 2.501,0.443 -0.102,-1.009 -0.156,-2.09 -0.156,-3.22 0,-4.212 0.76,-9.111 2.853,-13.442 0.708,-1.461 1.837,-3.223 3.37,-5.038 3.218,-3.838 8.236,-7.962 14.862,-10.041 0.023,-0.007 0.621,-0.181 0.848,-0.245 -2.188,-0.868 -3,-2.22 -3.077,-3.386 -0.599,-0.098 -1.113,-0.446 -1.42,-0.936 -0.375,-0.582 -0.541,-1.322 -0.542,-2.142 0.004,-2.063 1.09,-4.715 3.498,-6.644 v -2.618 h -8.859 v 10.577 H 73.246 v -22.549 h 10.359 v -70.116 h -4.409 v 12.337 H 65.674 v -12.337 H 55.109 v 12.337 H 41.588 v -24.683 h 4.139 v -64.718 c 0.155,0.051 0.311,0.096 0.466,0.149 -3.807,-1.284 -7.473,-2.876 -10.957,-4.759 -0.37,0.445 -0.743,0.886 -1.107,1.337 -20.555,25.418 -31.875,57.061 -31.874,89.079 V -2.256 h 236.717 z m -47.42,82.3 0.008,0.005 0.003,-0.033 -0.011,0.028 -0.02,-0.022 -0.011,0.105 0.017,-0.051 V -76.02 Z M 48.155,-55.375 c -0.146,0 -0.287,-0.043 -0.41,-0.12 -1.763,-1.039 -2.938,-2.79 -2.995,-4.023 0,-0.074 0.002,-0.17 0.03,-0.286 l 1.095,0.271 10e-4,0.015 c -0.032,0.259 0.286,0.955 0.832,1.65 1.468,0.163 2.223,0.799 2.253,1.608 0,0.387 -0.25,0.861 -0.806,0.885 m 133.117,17.697 v 10e-4 h -0.001 z m 9.854,-38.758 h 0.002 l -0.002,0.002 z"
             style="fill:#231f20;fill-opacity:1;fill-rule:nonzero;stroke:none"
             id="path286" />
        </g>
        <g
           id="g288"
           transform="translate(207.6034,239.6125)">
          <path
             d="m 0,0 0.029,-0.55 -0.55,-0.043 c -1.229,-0.092 -2.452,-0.136 -3.658,-0.136 -5.263,0 -10.291,0.854 -14.71,2.383 -5.13,1.777 -9.451,4.464 -12.383,7.811 -2.528,2.897 -4.019,6.305 -4.018,10.013 -0.003,3.461 1.415,6.113 3.534,7.892 2.123,1.782 4.52,2.707 7.301,2.511 4.808,-0.336 9.12,-4.415 9.208,-9.532 0.061,-3.585 -1.509,-6.612 -4.311,-8.477 -2.569,-1.715 -6.042,-2.375 -10.095,-2.494 2.687,-2.732 6.45,-4.996 10.874,-6.561 0.693,0.327 1.355,0.675 1.989,1.041 0.217,0.394 0.397,1.326 0.39,2.367 0,0.502 -0.033,1.035 -0.106,1.56 h 0.002 l 1.118,0.148 c 0.077,-0.574 0.111,-1.154 0.113,-1.708 -0.003,-0.534 -0.041,-1.03 -0.111,-1.489 1.528,1.021 2.859,2.157 3.99,3.387 0,0 0.253,0.624 0.225,1.709 -0.028,0.982 -0.141,2.154 -0.346,3.061 l 0.002,-0.001 1.1,0.245 c 0.223,-0.996 0.368,-2.221 0.37,-3.305 0,-0.026 -0.003,-0.049 -0.003,-0.074 1.282,1.739 2.216,3.626 2.807,5.617 0.011,0.098 0.019,0.196 0.019,0.294 0.014,1.185 -0.762,2.665 -1.857,3.137 h 10e-4 l 0.467,1.027 c 0.858,-0.401 1.502,-1.103 1.927,-1.908 0.136,0.916 0.207,1.848 0.207,2.792 0,1.491 -0.107,2.721 -0.456,4.097 l -0.131,0.394 c -0.262,0.875 -1.776,1.934 -3.11,1.967 l 0.056,1.126 c 0.777,-0.056 1.554,-0.32 2.233,-0.72 -0.943,2.182 -2.333,4.115 -4.075,5.679 -0.436,0.204 -1.423,0.33 -2.375,0.325 -0.783,0 -1.563,-0.071 -2.066,-0.164 V 33.42 l -10e-4,10e-4 h 10e-4 l -0.205,1.108 c 0.599,0.11 1.423,0.181 2.271,0.181 0.178,-10e-4 0.356,-0.007 0.533,-0.015 -1.921,1.284 -4.149,2.169 -6.595,2.554 -0.839,0.01 -2.397,-0.661 -2.936,-1.41 l -0.892,0.688 c 0.294,0.364 0.666,0.675 1.078,0.941 -0.011,0 -0.02,10e-4 -0.029,10e-4 -2.664,-0.005 -4.942,-0.353 -7.022,-1.058 l -0.452,-0.219 c -0.727,-0.408 -0.999,-1.213 -1.096,-1.832 l -1.108,0.205 c 0.051,0.252 0.143,0.543 0.271,0.841 -5.664,-2.853 -8.567,-8.298 -8.584,-14.012 0,-3.495 0.709,-6.468 1.969,-9.009 2.948,-5.957 8.992,-9.621 16.29,-11.705 0.008,0.005 0.014,0.007 0.025,0.009 l 0.006,-0.018 0.13,-0.038 c 5.744,-1.615 12.229,-2.241 18.458,-2.241 1.264,0 2.519,0.027 3.756,0.073 l 0.635,0.027 -0.052,-0.637 c -0.128,-0.653 -0.533,-0.839 -0.997,-1.197 -0.349,-0.234 -0.77,-0.47 -1.222,-0.699 4.279,0.584 10.201,1.73 15.304,1.733 0.506,0 1.003,-0.018 1.493,-0.043 C 10.159,-0.835 3.936,0.529 -0.963,1.092 -0.534,0.838 -0.104,0.657 0,0"
             style="fill:#43ac44;fill-opacity:1;fill-rule:nonzero;stroke:none"
             id="path290" />
        </g>
        <g
           id="g292"
           transform="translate(108.434,286.7275)">
          <path
             d="m 0,0 c -1.156,-0.269 -1.934,-0.571 -2.051,-0.674 -0.164,-0.126 -0.197,-0.212 -0.207,-0.391 -0.013,-0.289 0.244,-0.816 0.718,-1.218 0.467,-0.411 1.107,-0.699 1.736,-0.696 0.197,0 0.392,0.024 0.588,0.081 3.362,0.984 7.013,1.396 10.782,1.399 13.141,-0.009 27.74,-5.019 36.688,-9.057 -0.821,0.992 -1.242,1.974 -1.26,2.944 -0.004,1.331 0.878,2.431 2.258,3.108 1.387,0.691 3.318,1.058 5.742,1.06 1.035,0 2.164,-0.072 3.368,-0.218 C 44.49,0.575 31.068,1.873 20.385,1.871 10.864,1.873 3.511,0.847 0,0"
             style="fill:#43ac44;fill-opacity:1;fill-rule:nonzero;stroke:none"
             id="path294" />
        </g>
      </g>
    </g>
    <g
       id="g296"
       transform="matrix(1.8918625,0,0,1.8918625,378.55363,159.06686)">
      <path
         d="M 0,0 H 0.003 L 0,0.002 Z"
         style="fill:#231f20;fill-opacity:1;fill-rule:nonzero;stroke:none"
         id="path298" />
    </g>
    <g
       id="g300"
       transform="matrix(1.8918625,0,0,1.8918625,-1.8208259,-284.14828)">
      <g
         id="g302"
         clip-path="url(#clipPath306)">
        <g
           id="g308"
           transform="translate(167.5539,224.2468)">
          <path
             d="m 0,0 h -11.861 v 10.58 h -1.469 c -0.187,-1.835 -1.16,-4.131 -2.394,-6.647 l -0.519,-1.05 -0.496,1.06 c -1.267,2.717 -2.148,4.92 -2.357,6.637 h -1.62 V 0 H -32.58 l -0.002,10.58 h -8.854 V 0 h -11.863 v 10.58 h -1.276 c -0.188,-1.835 -1.166,-4.132 -2.398,-6.647 l -0.52,-1.05 -0.495,1.06 c -1.266,2.716 -2.155,4.92 -2.365,6.637 h -1.799 V 0 h -11.862 l -0.002,10.58 h -8.857 V -8.969 H 8.858 V 10.58 H 0 Z"
             style="fill:#ffffff;fill-opacity:1;fill-rule:nonzero;stroke:none"
             id="path310" />
        </g>
        <g
           id="g312"
           transform="translate(170.4288,238.7729)">
          <path
             d="m 0,0 c 0.293,-0.007 0.594,-0.013 0.896,-0.013 0.855,0 1.747,0.033 2.645,0.088 0.471,0.534 1.197,1.676 1.329,2.136 L 5.939,1.864 C 5.769,1.384 5.425,0.76 5.035,0.187 7.505,0.407 9.899,0.785 11.594,1.188 5.289,3.375 -0.015,6.922 -2.87,12.426 c -1.143,0.498 -4.083,1.688 -5.15,2.781 -0.3,0.319 -0.464,0.713 -0.461,1.097 0.003,0.28 0.083,0.537 0.218,0.755 -0.519,0.103 -1.102,0.212 -1.675,0.335 -1.268,0.297 -2.517,0.594 -3.281,1.426 -0.13,0.171 -0.176,0.379 -0.173,0.542 0.03,0.605 0.376,1.068 0.828,1.528 0.087,0.081 0.18,0.162 0.276,0.238 -0.592,0.148 -1.251,0.29 -1.898,0.419 -1.452,0.303 -2.821,0.546 -3.564,0.86 -0.213,0.114 -0.431,0.154 -0.629,0.576 -0.049,0.152 -0.073,0.313 -0.07,0.477 0.011,0.769 0.47,1.594 1.325,2.17 -1.998,0.357 -4.005,0.894 -5.785,1.507 -4.344,1.362 -7.428,1.909 -9.472,1.907 -1.368,0.002 -2.258,-0.251 -2.746,-0.588 -0.483,-0.341 -0.654,-0.717 -0.666,-1.294 -0.049,-1.633 2.021,-4.498 4.558,-6.534 0.236,-0.176 0.473,-0.356 0.699,-0.552 l -0.422,-0.531 -0.235,-0.38 c -0.8,0.476 -1.571,0.996 -2.302,1.546 -2.607,1.428 -5.875,2.27 -8.344,2.266 -1.161,0.003 -2.138,-0.19 -2.757,-0.528 -0.62,-0.352 -0.887,-0.735 -0.902,-1.384 -0.007,-0.685 0.403,-1.752 1.497,-3.144 l -0.889,-0.693 c -1.167,1.494 -1.727,2.735 -1.734,3.837 -0.014,1.066 0.61,1.922 1.494,2.378 0.88,0.47 2.015,0.658 3.291,0.661 1.613,-10e-4 3.463,-0.314 5.282,-0.886 -3.715,3.23 -7.054,6.492 -11.861,7.222 -0.782,0.124 -1.417,0.18 -1.911,0.18 -0.734,0.003 -1.14,-0.134 -1.307,-0.27 -0.158,-0.127 -0.235,-0.274 -0.244,-0.68 -0.037,-1.443 1.618,-4.736 2.164,-9.057 l -1.12,-0.139 c -0.504,4.164 -2.135,7.177 -2.169,9.196 -0.011,0.582 0.179,1.194 0.683,1.574 0.494,0.375 1.145,0.5 1.993,0.503 0.578,0 1.263,-0.064 2.085,-0.193 1.473,-0.234 2.808,-0.674 4.05,-1.257 -2.449,1.509 -5.154,2.529 -8.188,2.516 -0.404,0 -0.813,-0.018 -1.229,-0.056 -0.068,-0.006 -0.127,-0.006 -0.177,-0.006 -1.572,0.078 -2.741,1.523 -2.801,2.866 -0.029,0.583 0.357,1.246 1.037,1.459 1.233,0.436 2.699,0.706 4.508,0.706 3.298,-0.004 7.751,-0.894 14.153,-3.279 -5.479,2.752 -10.712,4.536 -19.169,4.542 -0.603,0 -1.218,-0.009 -1.867,-0.03 h -0.061 c -1.481,0.036 -2.826,1.053 -2.894,2.407 -0.01,0.834 0.672,1.55 1.757,1.833 1.575,0.446 5.387,1.189 11.09,1.191 4.186,0 9.385,-0.403 15.438,-1.624 -5.829,1.488 -12.002,2.507 -17.831,2.505 -3.686,0 -7.235,-0.405 -10.466,-1.35 -0.306,-0.091 -0.609,-0.13 -0.904,-0.129 -1.917,0.052 -3.511,1.514 -3.582,3.042 -0.009,0.484 0.227,0.998 0.675,1.307 0.46,0.312 1.216,0.548 2.447,0.853 1.214,0.294 2.843,0.601 4.833,0.883 3.984,0.563 9.411,1.021 15.816,1.022 5.752,0 12.295,-0.375 19.272,-1.371 -7.929,1.681 -16.296,2.792 -24.416,2.792 -7.324,0 -14.443,-0.902 -20.861,-3.09 -0.334,-0.112 -0.661,-0.166 -0.975,-0.166 -1.929,0.049 -2.915,1.884 -2.922,3.299 10e-4,0.49 0.115,0.986 0.446,1.375 3.494,4.019 12.934,5.764 25.535,5.799 15.081,-0.003 34.646,-2.677 53.459,-7.998 -21.776,7.593 -40.706,10.442 -55.032,10.441 -9.076,10e-4 -16.306,-1.141 -21.217,-2.905 -4.946,-1.763 -7.397,-4.155 -7.352,-6.325 0,-0.513 0.123,-1.037 0.391,-1.588 1.746,-3.811 8.692,-6.089 16.151,-15.99 3.369,-4.486 4.649,-7.662 4.877,-10.15 0.021,-0.266 0.032,-0.523 0.032,-0.769 0,-2.165 -0.836,-3.699 -1.446,-4.978 l -1.018,0.487 c 0.543,1.13 1.13,2.245 1.291,3.711 -1.879,-2.397 -3.149,-3.675 -5.56,-4.348 l -1.517,-0.425 0.904,1.29 c 0.214,0.308 0.374,0.655 0.466,1.062 -0.272,-0.15 -0.582,-0.293 -0.923,-0.425 -1.072,-0.417 -2.45,-0.74 -3.863,-0.74 -1.584,-0.001 -3.249,0.415 -4.424,1.682 l -0.371,0.401 0.388,0.383 c 0.423,0.418 0.967,1.001 1.719,1.405 -2.741,1.323 -5.114,3.871 -6.914,6.828 l -0.735,1.214 1.367,-0.376 c 0.494,-0.145 1.94,-0.25 3.492,-0.25 -0.708,0.674 -1.442,1.587 -2.278,2.584 -1.462,1.794 -3.087,3.869 -4.613,5.233 l -1.39,1.247 1.848,-0.27 c 0.235,-0.035 0.574,-0.052 0.966,-0.052 0.668,0 1.496,0.044 2.339,0.07 -2.627,1.31 -5.417,3.034 -7.093,4.027 l -1.185,0.706 1.339,0.327 c 0.335,0.04 1.541,0.867 2.474,1.71 -0.851,-0.091 -1.836,-0.091 -2.87,-0.103 -0.766,0 -1.544,0.009 -2.269,0.009 -0.546,0 -1.061,-0.009 -1.519,-0.03 l -0.734,-0.033 0.158,0.716 c 0.153,0.692 0.479,2.077 0.708,3.447 -1.607,-1.877 -4.106,-3.354 -6.127,-4.502 l -0.756,-0.422 -0.079,0.862 c -0.112,1.189 -0.193,2.138 -0.241,3.004 -1.076,-2.641 -2.229,-4.095 -4.645,-5.636 0.598,-1.874 1.046,-3.713 1.046,-5.488 0,-1.169 -0.195,-2.312 -0.677,-3.399 -0.27,-0.561 -0.513,-1.024 -1.161,-1.076 -0.431,0.015 -0.653,0.255 -0.824,0.432 -0.173,0.193 -0.314,0.399 -0.459,0.588 -0.286,0.401 -0.561,0.605 -0.661,0.574 -0.033,0 -0.085,-0.005 -0.167,-0.044 l -0.483,1.018 c 0.208,0.1 0.43,0.153 0.65,0.153 0.716,-0.017 1.138,-0.497 1.438,-0.859 0.184,-0.244 0.364,-0.486 0.481,-0.629 0.045,0.073 0.098,0.175 0.156,0.302 0.408,0.921 0.58,1.895 0.581,2.94 0.001,1.705 -0.473,3.586 -1.127,5.569 -0.496,1.507 -1.099,3.069 -1.664,4.666 -0.415,-3.709 -2.277,-5.949 -3.025,-8.828 -0.034,-0.148 -0.07,-0.271 -0.096,-0.392 -0.181,-0.758 -0.292,-1.582 -0.292,-2.507 0,-0.284 0.01,-0.575 0.034,-0.886 -0.004,-0.067 0.096,-0.316 0.262,-0.484 0.162,-0.181 0.36,-0.27 0.48,-0.265 0.015,0 0.046,0.004 0.095,0.01 l 0.198,-1.11 c -0.085,-0.013 -0.182,-0.028 -0.293,-0.028 -1.106,0.075 -1.76,0.964 -1.865,1.794 -0.027,0.337 -0.038,0.66 -0.038,0.969 0,0.307 0.015,0.602 0.037,0.89 -1.165,-1.409 -2.114,-2.894 -2.78,-4.365 -0.734,-1.601 -1.131,-3.189 -1.129,-4.641 0.032,-3.63 -0.546,-8.023 -10.025,-15.893 -0.696,-0.576 -0.873,-1.019 -0.866,-1.256 -0.019,-0.295 0.289,-0.69 1.018,-1.015 0.704,-0.314 1.698,-0.503 2.627,-0.5 0.924,-0.005 1.784,0.191 2.227,0.503 0.091,0.06 0.181,0.12 0.263,0.175 0.687,0.477 1.319,0.934 1.975,1.463 1.841,1.489 3.856,3.543 7.469,7.973 0.359,0.441 0.734,0.907 1.124,1.394 0.906,1.139 1.91,1.675 2.869,1.673 1.164,-0.005 2.076,-0.758 2.579,-1.66 0.302,-0.545 0.483,-1.161 0.483,-1.783 0,-0.216 -0.023,-0.435 -0.072,-0.656 -0.442,-1.807 -2.674,-5.532 -2.676,-10.219 0,-0.77 0.061,-1.56 0.201,-2.37 0.224,0.264 0.515,0.587 0.887,0.912 0.618,0.546 1.477,1.1 2.627,1.43 -0.238,0.091 -0.476,0.186 -0.707,0.284 -0.905,0.43 -1.895,0.808 -1.995,1.926 -0.001,0.16 0.033,0.315 0.088,0.462 0.369,1.362 1.71,3.403 2.972,5.734 1.279,2.329 2.439,4.892 2.428,6.822 -0.034,1.514 -0.568,2.585 -2.433,3.322 -0.233,0.09 -0.499,0.173 -0.778,0.244 l 0.275,1.092 c 0.32,-0.081 0.626,-0.176 0.902,-0.281 0.012,-0.004 0.023,-0.011 0.042,0.002 0.117,-0.056 0.223,-0.076 0.334,-0.076 0.366,-0.015 0.903,0.335 1.335,1.064 0.428,0.714 0.726,1.737 0.725,2.806 0,1.129 -0.32,2.304 -1.12,3.312 0,0 0.868,0.718 0.892,0.688 0.562,-0.65 2.108,-1.244 3.679,-1.227 1.022,-10e-4 2.051,0.228 2.855,0.729 0.634,0.404 1.145,0.967 1.464,1.755 l 1.046,-0.418 c -0.361,-0.906 -0.955,-1.595 -1.656,-2.103 -0.151,-1.178 -0.239,-2.483 -0.237,-3.868 -0.001,-1.161 0.07,-2.381 0.2,-3.619 1.05,0.458 1.992,1.216 2.366,2.113 l 1.037,-0.442 c -0.602,-1.38 -1.912,-2.311 -3.265,-2.83 0.298,-2.095 0.817,-4.226 1.594,-6.265 0.778,0.236 2.52,1.246 3.329,2.116 l 0.816,-0.779 c -1.009,-1.03 -2.624,-2.002 -3.714,-2.378 0.124,-0.288 0.242,-0.581 0.379,-0.865 0.628,-1.295 1.647,-2.897 3.017,-4.554 1.112,0.235 3.065,1.343 4.05,2.576 l 0.871,-0.715 c -1.081,-1.288 -2.728,-2.34 -4.127,-2.8 1.399,-1.573 3.108,-3.167 5.102,-4.617 1.324,0.021 3.106,1.092 3.772,2.328 l 0.983,-0.547 c -0.72,-1.26 -2.053,-2.25 -3.455,-2.679 2.106,-1.377 4.494,-2.571 7.148,-3.424 1.096,0.451 2.968,2.13 3.341,3.463 l 1.076,-0.332 c -0.472,-1.419 -1.711,-2.738 -2.931,-3.57 0.47,-0.124 0.947,-0.237 1.433,-0.339 0.375,0.07 0.764,0.134 1.184,0.185 2.689,0.331 4.401,0.864 5.388,1.431 0.988,0.581 1.21,1.092 1.218,1.543 0.012,0.526 -0.401,1.187 -0.998,1.69 -1.292,1.118 -2.041,2.077 -2.056,3.215 0.047,1.53 1.295,2.654 3.282,4.268 l 0.704,-0.881 c -2.002,-1.569 -2.907,-2.658 -2.859,-3.387 -0.017,-0.547 0.426,-1.303 1.664,-2.359 0.725,-0.632 1.377,-1.492 1.39,-2.546 0.006,-0.937 -0.593,-1.853 -1.789,-2.521 -1.198,-0.684 -3.033,-1.226 -5.803,-1.572 -1.302,-0.163 -2.665,-0.408 -3.838,-1.023 -0.312,-0.165 -0.612,-0.374 -0.869,-0.617 -0.214,-0.201 -0.411,-0.433 -0.55,-0.691 -0.037,-0.065 -0.302,-0.743 -0.239,-0.758 0.234,-0.051 0.462,-0.14 0.676,-0.294 0.335,-0.25 0.549,-0.605 0.697,-1.054 0.026,-0.082 0.953,-0.094 1.051,-0.101 0.113,-0.006 1.378,-0.059 1.378,-0.061 0.114,0.366 0.297,0.696 0.575,0.962 0.522,0.497 1.266,0.705 2.159,0.703 0.959,0.002 1.74,-0.238 2.272,-0.768 0.241,-0.241 0.406,-0.529 0.521,-0.841 0.011,0 0.024,0 0.035,0.001 0.15,0.005 0.295,0.013 0.443,0.019 0.32,0.014 0.64,0.03 0.936,0.046 0.275,0.014 0.535,0.03 0.785,0.049 0.148,0.445 0.363,0.784 0.695,1.045 0.448,0.324 0.949,0.365 1.459,0.365 0.045,0.001 0.087,-0.015 0.13,-0.016 -0.096,0.435 -0.228,0.936 -0.24,1.434 0,0.198 0.025,0.415 0.126,0.639 0.146,0.35 0.527,0.642 0.958,0.714 3.024,0.601 5.371,1.335 6.907,2.16 1.559,0.835 2.196,1.692 2.183,2.493 0.014,0.741 -0.278,1.543 -1.912,2.934 -0.394,0.335 -0.99,0.844 -0.99,0.844 l 0.669,0.813 c 0,0 0.48,-0.409 0.959,-0.806 1.525,-1.273 2.39,-2.487 2.403,-3.785 -0.011,-1.45 -1.093,-2.589 -2.78,-3.488 -1.323,-0.705 -3.084,-1.311 -5.246,-1.835 0.493,-0.028 0.998,-0.046 1.521,-0.046 2.718,-0.002 5.781,0.412 8.457,1.59 1.462,0.636 2.811,1.508 3.933,2.656 l 0.807,-0.787 c -0.76,-0.777 -1.615,-1.422 -2.52,-1.97 2.381,-0.168 4.32,-0.243 5.874,-0.243 2.707,-0.005 4.283,0.241 5.031,0.564 0.615,0.29 0.615,0.424 0.636,0.638 0,0.047 -0.007,0.113 -0.021,0.189 l 1.107,0.208 c 0.023,-0.121 0.039,-0.253 0.039,-0.397 0.012,-0.344 -0.107,-0.676 -0.33,-0.963 1.45,-0.294 3.426,-0.366 4.346,-0.375 -0.054,0.074 -0.121,0.156 -0.223,0.258 -0.309,0.311 -0.848,0.719 -1.651,1.207 -1.634,0.995 -2.632,2.256 -2.635,3.726 0.058,2.416 2.496,4.597 7.246,6.674 l 0.446,-1.036 c -4.665,-1.989 -6.627,-4.145 -6.566,-5.638 -0.005,-0.904 0.622,-1.857 2.097,-2.764 1.661,-1.056 2.466,-1.698 2.542,-2.688 0.004,-0.393 -0.202,-0.72 -0.437,-0.94 -0.63,-0.558 -1.57,-0.793 -2.558,-1.096 -0.979,-0.287 -1.989,-0.598 -2.553,-0.995 0.169,-0.055 0.335,-0.124 0.491,-0.238 0.325,-0.241 0.532,-0.582 0.679,-1.009 0.134,-0.023 0.268,-0.048 0.412,-0.071 0.306,-0.048 0.641,-0.089 0.982,-0.127 0.333,-0.036 0.677,-0.067 1.032,-0.094 0.11,0.398 0.293,0.76 0.594,1.047 0.523,0.497 1.263,0.705 2.159,0.703 0.958,0.002 1.737,-0.238 2.272,-0.768 0.287,-0.286 0.47,-0.638 0.584,-1.02 0.049,0.003 0.1,0.006 0.151,0.011 0.15,0.011 0.285,0.029 0.43,0.042 0.152,0.016 0.309,0.029 0.454,0.047 0.05,0.006 0.106,0.012 0.156,0.017 0.329,0.042 0.636,0.09 0.94,0.146 0.147,0.459 0.361,0.81 0.7,1.076 0.108,0.077 0.219,0.138 0.334,0.186 -0.058,0.154 -0.105,0.31 -0.138,0.466 -0.032,0.155 -0.051,0.311 -0.054,0.473 0.009,0.875 0.479,1.608 1.326,2.641 0.789,0.934 1.353,1.674 1.323,2.179 0.012,0.429 -0.337,1.107 -1.836,2.089 l 0.619,0.942 c 1.579,-1.04 2.33,-1.964 2.343,-3.031 -0.032,-1.17 -0.848,-1.973 -1.579,-2.893 -0.238,-0.289 -0.424,-0.535 -0.575,-0.753 1.426,-0.352 4.495,-0.77 7.51,-1.035 1.081,0.63 2.302,1.789 2.379,3.058 L -0.703,3.199 C -0.87,1.92 -1.585,0.882 -2.45,0.119 -1.585,0.06 -0.754,0.019 0,0 m -113.788,14.069 c -0.546,-0.695 -0.864,-1.389 -0.831,-1.651 l -0.002,-0.014 -1.094,-0.27 c -0.029,0.115 -0.032,0.211 -0.032,0.284 0.059,1.234 1.233,2.986 2.996,4.024 0.123,0.077 0.264,0.12 0.411,0.12 0.555,-0.022 0.805,-0.498 0.805,-0.885 -0.029,-0.809 -0.786,-1.444 -2.253,-1.608"
             style="fill:#43ac44;fill-opacity:1;fill-rule:nonzero;stroke:none"
             id="path314" />
        </g>
        <g
           id="g316"
           transform="translate(68.5084,259.9414)">
          <path
             d="m 0,0 c -0.363,-0.451 -0.708,-0.877 -1.043,-1.29 -0.01,-0.022 -0.012,-0.047 -0.025,-0.068 -1.66,-2.681 -2.457,-6.888 -3.506,-11.338 -1.06,-4.451 -2.382,-9.158 -5.291,-12.902 -1.43,-1.788 -2.274,-2.596 -3.292,-2.658 -0.136,0 -0.26,0.025 -0.378,0.062 0.073,-0.885 0.112,-1.775 0.112,-2.583 v -0.01 c 1.027,1.51 2.386,3.165 3.71,4.754 4.356,5.213 6.171,10.466 7.632,15.158 1.423,4.55 2.489,8.606 5.363,11.463 C 2.93,0.998 2.47,1.255 1.988,1.251 1.461,1.25 0.78,0.97 0,0"
             style="fill:#fff200;fill-opacity:1;fill-rule:nonzero;stroke:none"
             id="path318" />
        </g>
        <g
           id="g320"
           transform="translate(66.0546,278.8726)">
          <path
             d="M 0,0 C 0.003,0.015 0.007,0.027 0.009,0.04 -0.529,1.542 -1.552,3.313 -2.51,5.704 -2.846,2.577 -3.759,-0.894 -3.75,-3.371 -3.754,-3.943 -3.7,-4.447 -3.595,-4.878 -2.684,-3.186 -1.459,-1.528 0,0"
             style="fill:#43ac44;fill-opacity:1;fill-rule:nonzero;stroke:none"
             id="path322" />
        </g>
        <g
           id="g324"
           transform="translate(70.0225,271.0113)">
          <path
             d="M 0,0 0.087,0.746 H 0.086 c -0.199,0.024 -0.396,0.035 -0.592,0.035 -0.173,0 -0.349,-0.018 -0.523,-0.04 -0.022,0.011 -0.039,0.027 -0.064,0.034 L -1.109,0.734 C -1.132,0.732 -1.155,0.733 -1.178,0.729 -3.57,0.402 -5.237,-1.771 -5.546,-4.764 -5.562,-4.853 -5.571,-4.953 -5.576,-5.041 -5.793,-7.576 -6.881,-8.372 -8.053,-8.943 l 0.32,-0.682 c 1.226,0.554 2.529,1.639 2.844,4.051 0.617,-0.463 1.385,-0.741 2.218,-0.74 2.058,0.003 3.716,1.662 3.721,3.719 0,1.016 -0.408,1.93 -1.065,2.597 C -0.009,0 -0.005,0.002 0,0"
             style="fill:#231f20;fill-opacity:1;fill-rule:nonzero;stroke:none"
             id="path326" />
        </g>
        <g
           id="g328"
           transform="translate(68.8443,270.9693)">
          <path
             d="M 0,0 C 0.446,-0.254 0.817,-0.62 1.075,-1.063 0.927,-0.931 0.77,-0.805 0.593,-0.696 0.158,-0.427 -0.309,-0.276 -0.768,-0.227 -0.523,-0.125 -0.267,-0.045 0,0"
             style="fill:#ffffff;fill-opacity:1;fill-rule:nonzero;stroke:none"
             id="path330" />
        </g>
        <g
           id="g332"
           transform="translate(67.3521,265.4481)">
          <path
             d="m 0,0 c -0.827,0 -1.561,0.35 -2.098,0.894 0.066,0.502 0.181,0.958 0.319,1.388 C -1.553,1.661 -1.098,1.094 -0.46,0.699 0.036,0.394 0.579,0.238 1.106,0.217 0.763,0.081 0.392,0 0,0"
             style="fill:#ffffff;fill-opacity:1;fill-rule:nonzero;stroke:none"
             id="path334" />
        </g>
        <g
           id="g336"
           transform="translate(68.5721,266.4076)">
          <path
             d="m 0,0 c -0.416,0 -0.869,0.122 -1.284,0.378 -0.73,0.449 -1.13,1.175 -1.127,1.806 0,0.061 0.017,0.117 0.023,0.178 L 0.98,0.289 C 0.712,0.109 0.38,0.002 0,0"
             style="fill:#fff200;fill-opacity:1;fill-rule:nonzero;stroke:none"
             id="path338" />
        </g>
        <g
           id="g340"
           transform="translate(70.1655,267.8355)">
          <path
             d="m 0,0 c 0,-0.063 -0.017,-0.121 -0.023,-0.181 l -3.366,2.075 c 0.267,0.178 0.596,0.285 0.976,0.285 0.415,0 0.869,-0.12 1.291,-0.38 C -0.396,1.353 0.003,0.63 0,0"
             style="fill:#fff200;fill-opacity:1;fill-rule:nonzero;stroke:none"
             id="path342" />
        </g>
        <g
           id="g344"
           transform="translate(58.1569,249.212)">
          <path
             d="M 0,0 C 0.662,-0.869 1.435,-1.228 2.275,-1.361 1.713,-0.891 1.272,-0.215 0.97,0.716 0.651,0.472 0.326,0.232 0,0"
             style="fill:#231f20;fill-opacity:1;fill-rule:nonzero;stroke:none"
             id="path346" />
        </g>
        <g
           id="g348"
           transform="translate(58.1569,249.212)">
          <path
             d="M 0,0 C 0.326,0.232 0.651,0.472 0.97,0.716 1.272,-0.215 1.713,-0.891 2.275,-1.361 1.435,-1.228 0.662,-0.869 0,0"
             style="fill:#ffffff;fill-opacity:1;fill-rule:nonzero;stroke:none"
             id="path350" />
        </g>
        <g
           id="g352"
           transform="translate(56.6409,252.8421)">
          <path
             d="m 0,0 c -0.546,-0.695 -0.864,-1.39 -0.831,-1.651 l -0.002,-0.014 -1.094,-0.271 c -0.029,0.116 -0.032,0.212 -0.032,0.285 0.059,1.234 1.233,2.986 2.996,4.024 C 1.16,2.45 1.301,2.493 1.448,2.493 2.003,2.47 2.253,1.995 2.253,1.608 2.224,0.799 1.467,0.163 0,0"
             style="fill:#231f20;fill-opacity:1;fill-rule:nonzero;stroke:none"
             id="path354" />
        </g>
        <g
           id="g356"
           transform="translate(103.4937,236.8573)">
          <path
             d="M 0,0 C -0.11,0.088 -0.335,0.147 -0.772,0.147 H -0.79 C -1.158,0.137 -1.381,0.004 -1.604,-0.32 -1.819,-0.646 -1.967,-1.183 -1.966,-1.845 -1.969,-3.412 -1.167,-5.59 0.666,-7.258 0.662,-4.781 0.637,-3.073 0.534,-1.927 0.428,-0.59 0.17,-0.097 0,0"
             style="fill:#fff200;fill-opacity:1;fill-rule:nonzero;stroke:none"
             id="path358" />
        </g>
        <g
           id="g360"
           transform="translate(117.1502,237.0038)">
          <path
             d="M 0,0 C -0.437,0 -0.662,-0.059 -0.772,-0.147 -0.886,-0.227 -1.039,-0.434 -1.16,-1 -1.381,-2.014 -1.433,-3.981 -1.439,-7.404 0.391,-5.737 1.195,-3.559 1.19,-1.993 1.191,-1.329 1.045,-0.791 0.831,-0.467 0.607,-0.142 0.387,-0.009 0.019,0 Z"
             style="fill:#fff200;fill-opacity:1;fill-rule:nonzero;stroke:none"
             id="path362" />
        </g>
        <g
           id="g364"
           transform="translate(108.6425,236.6962)">
          <path
             d="M 0,0 C -0.228,-0.217 -0.37,-0.565 -0.373,-1.166 -0.385,-2.388 0.303,-4.412 1.445,-6.947 2.524,-4.652 3.264,-2.595 3.251,-1.3 3.248,-0.685 3.103,-0.294 2.855,-0.048 2.609,0.2 2.169,0.388 1.378,0.392 0.641,0.389 0.227,0.222 0,0"
             style="fill:#fff200;fill-opacity:1;fill-rule:nonzero;stroke:none"
             id="path366" />
        </g>
        <g
           id="g368"
           transform="translate(159.5908,235.0117)">
          <path
             d="m 0,0 c 0.002,0.663 -0.143,1.201 -0.359,1.527 -0.222,0.322 -0.445,0.457 -0.812,0.466 h -0.018 c -0.437,0 -0.663,-0.06 -0.772,-0.148 C -2.077,1.766 -2.23,1.559 -2.35,0.991 -2.571,-0.021 -2.624,-1.988 -2.629,-5.412 -0.799,-3.745 0.006,-1.568 0,0"
             style="fill:#fff200;fill-opacity:1;fill-rule:nonzero;stroke:none"
             id="path370" />
        </g>
        <g
           id="g372"
           transform="translate(145.2794,234.9316)">
          <path
             d="m 0,0 c -0.105,1.339 -0.362,1.828 -0.535,1.924 -0.106,0.088 -0.33,0.149 -0.756,0.149 H -1.326 C -1.695,2.063 -1.918,1.932 -2.141,1.607 -2.354,1.282 -2.504,0.742 -2.503,0.081 -2.506,-1.488 -1.703,-3.666 0.13,-5.335 0.126,-2.855 0.1,-1.147 0,0"
             style="fill:#fff200;fill-opacity:1;fill-rule:nonzero;stroke:none"
             id="path374" />
        </g>
        <g
           id="g376"
           transform="translate(149.892,236.6962)">
          <path
             d="M 0,0 C -0.227,-0.217 -0.369,-0.565 -0.372,-1.166 -0.383,-2.388 0.304,-4.412 1.445,-6.947 2.524,-4.651 3.264,-2.595 3.252,-1.3 3.248,-0.685 3.102,-0.294 2.855,-0.048 2.608,0.2 2.168,0.388 1.379,0.389 0.642,0.389 0.227,0.222 0,0"
             style="fill:#fff200;fill-opacity:1;fill-rule:nonzero;stroke:none"
             id="path378" />
        </g>
      </g>
    </g>
    <g
       id="g380"
       transform="matrix(1.8918625,0,0,1.8918625,177.98557,-12.360853)">
      <path
         d="M 0,0 H 4.653 V 12.337 H 18.175 V 0 h 10.57 v 12.337 h 6.044 V 70.116 H 0 Z M 71.01,0 71.007,70.116 H 36.294 V 12.337 h 5.972 L 42.264,0 H 52.832 V 12.337 H 66.353 V 0 Z"
         style="fill:#ffffff;fill-opacity:1;fill-rule:nonzero;stroke:none"
         id="path382" />
    </g>
    <path
       d="m 196.645,102.0868 h 28.43281 V 66.400598 H 196.645 Z"
       style="fill:#231f20;fill-opacity:1;fill-rule:nonzero;stroke:none;stroke-width:1.89186"
       id="path384" />
    <path
       d="m 265.24015,102.0868 h 28.4347 V 66.400598 h -28.4347 z"
       style="fill:#231f20;fill-opacity:1;fill-rule:nonzero;stroke:none;stroke-width:1.89186"
       id="path386" />
    <g
       id="g388"
       transform="matrix(1.8918625,0,0,1.8918625,391.86989,-32.921425)">
      <path
         d="m 0,0 h -155.1 v 21.729 h 10.568 V 9.39 h 13.521 v 12.339 h 10.568 V 9.39 h 13.519 v 12.339 h 10.567 V 9.39 h 13.521 V 21.729 H -72.27 V 9.39 h 13.524 v 12.339 h 10.567 V 9.39 h 13.523 v 12.339 h 10.568 V 9.39 h 13.523 V 21.729 H 0 Z"
         style="fill:#ffffff;fill-opacity:1;fill-rule:nonzero;stroke:none"
         id="path390" />
    </g>
    <g
       id="g392"
       transform="matrix(1.8918625,0,0,1.8918625,-1.8208259,-284.14828)">
      <g
         id="g394"
         clip-path="url(#clipPath398)">
        <g
           id="g400"
           transform="translate(141.6705,101.4156)">
          <path
             d="m 0,0 h -3.73 v 4.72 h 2.212 C -1.782,5.207 -2.077,5.655 -2.389,6.077 H -3.73 v 1.518 c -0.431,0.4 -0.883,0.764 -1.356,1.08 V 6.077 h -5.098 v 4.377 c -0.317,0.028 -0.634,0.048 -0.953,0.05 -0.134,-0.002 -0.269,-0.016 -0.404,-0.022 V 6.077 h -5.537 v 2.68 C -17.553,8.449 -18.005,8.09 -18.437,7.7 V 6.077 h -1.457 C -20.205,5.655 -20.497,5.206 -20.758,4.72 h 2.321 V 0 h -3.782 c -0.06,-0.437 -0.102,-0.891 -0.128,-1.357 h 3.91 V -5.31 c 0,-0.376 0.304,-0.679 0.68,-0.679 0.374,0 0.679,0.303 0.679,0.679 v 3.953 h 5.537 v -3.954 c 0,-0.375 0.302,-0.678 0.677,-0.678 0.375,0 0.68,0.303 0.68,0.678 v 3.954 h 5.098 v -3.954 c 0,-0.375 0.302,-0.679 0.679,-0.679 0.374,0 0.677,0.304 0.677,0.679 v 3.954 H 0.153 C 0.116,-0.891 0.067,-0.437 0,0 m -11.541,0 h -5.536 v 4.72 h 5.536 z m 6.455,0 h -5.097 v 4.72 h 5.097 z"
             style="fill:#fff200;fill-opacity:1;fill-rule:nonzero;stroke:none"
             id="path402" />
        </g>
        <g
           id="g404"
           transform="translate(75.3544,119.4938)">
          <path
             d="M 0,0 C -4.36,0 -7.892,-3.531 -7.892,-7.891 V -22.707 H 7.89 V -7.891 C 7.89,-3.531 4.358,0 0,0"
             style="fill:#231f20;fill-opacity:1;fill-rule:nonzero;stroke:none"
             id="path406" />
        </g>
        <g
           id="g408"
           transform="translate(185.744,119.4938)">
          <path
             d="M 0,0 C -4.36,0 -7.892,-3.531 -7.892,-7.891 V -22.707 H 7.889 V -7.891 C 7.889,-3.531 4.358,0 0,0"
             style="fill:#231f20;fill-opacity:1;fill-rule:nonzero;stroke:none"
             id="path410" />
        </g>
      </g>
    </g>
  </g>
</svg>
