<?xml version="1.0" encoding="UTF-8" standalone="no"?>
<!-- Created with Inkscape (http://www.inkscape.org/) -->

<svg
   xmlns:dc="http://purl.org/dc/elements/1.1/"
   xmlns:cc="http://creativecommons.org/ns#"
   xmlns:rdf="http://www.w3.org/1999/02/22-rdf-syntax-ns#"
   xmlns:svg="http://www.w3.org/2000/svg"
   xmlns="http://www.w3.org/2000/svg"
   xmlns:sodipodi="http://sodipodi.sourceforge.net/DTD/sodipodi-0.dtd"
   xmlns:inkscape="http://www.inkscape.org/namespaces/inkscape"
   version="1.0"
   width="800"
   height="400"
   id="svg2"
   inkscape:version="0.47 r22583"
   sodipodi:docname="ZZ.svg">
  <metadata
     id="metadata16">
    <rdf:RDF>
      <cc:Work
         rdf:about="">
        <dc:format>image/svg+xml</dc:format>
        <dc:type
           rdf:resource="http://purl.org/dc/dcmitype/StillImage" />
      </cc:Work>
    </rdf:RDF>
  </metadata>
  <sodipodi:namedview
     pagecolor="#ffffff"
     bordercolor="#666666"
     borderopacity="1"
     objecttolerance="10"
     gridtolerance="10"
     guidetolerance="10"
     inkscape:pageopacity="0"
     inkscape:pageshadow="2"
     inkscape:window-width="1280"
     inkscape:window-height="1004"
     id="namedview14"
     showgrid="false"
     inkscape:zoom="0.70710678"
     inkscape:cx="412.91907"
     inkscape:cy="47.425207"
     inkscape:window-x="-8"
     inkscape:window-y="-8"
     inkscape:window-maximized="1"
     inkscape:current-layer="svg2" />
  <defs
     id="defs4">
    <inkscape:perspective
       sodipodi:type="inkscape:persp3d"
       inkscape:vp_x="0 : 200 : 1"
       inkscape:vp_y="0 : 1000 : 0"
       inkscape:vp_z="800 : 200 : 1"
       inkscape:persp3d-origin="400 : 133.33333 : 1"
       id="perspective18" />
  </defs>
  <g
     id="layer1">
    <rect
       width="800"
       height="400"
       x="0"
       y="1.6577018e-14"
       id="rect2464"
       style="opacity:1;fill:#3399ff;fill-opacity:1;fill-rule:nonzero;stroke:none;stroke-width:0.30000001;stroke-linecap:butt;stroke-miterlimit:10.43299961;stroke-dasharray:none;stroke-opacity:1" />
    <path
       d="m 308.82297,89.036774 181.26503,0 1.3,164.894726 c 0,0 -13.77898,69.07094 -94.03748,69.07094 -80.25849,0 -88.04113,-71.98943 -88.04113,-71.98943 L 308.82297,89.036774 z"
       id="path4922"
       style="fill:#ffffff;fill-opacity:1;fill-rule:evenodd;stroke:none;stroke-width:6.69999981;stroke-linecap:butt;stroke-linejoin:miter;stroke-miterlimit:4;stroke-dasharray:none;stroke-opacity:1"
       sodipodi:nodetypes="cccscc" />
    <path
       d="M 317.57431,242.74581 C 317.57431,282.21547 354.4075,314.24579 399.78419,314.24578 C 445.16088,314.24578 481.98036,282.21547 481.98036,242.74581 L 399.78419,242.74581 L 317.57431,242.74581 z M 399.72934,248.54644 C 440.74537,248.30971 468.85695,272.90086 468.85695,272.90086 L 451.34535,290.89241 C 391.02988,222.30788 353.57113,292.35971 353.57113,292.35971 L 332.16502,272.4209 C 356.58458,254.70475 379.69825,248.66205 399.72934,248.54644 z"
       id="path2245"
       style="fill:#000066;fill-opacity:1;fill-rule:evenodd;stroke:none;stroke-width:0.61434573000000003;stroke-linecap:round;stroke-linejoin:miter;stroke-miterlimit:4;stroke-dasharray:none;stroke-dashoffset:0;stroke-opacity:1" />
    <path
       d="M 115.28043,422.75369 A 12.193122,12.193122 0 1 1 90.894181,422.75369 A 12.193122,12.193122 0 1 1 115.28043,422.75369 z"
       transform="matrix(0.4388184,0,0,0.4388184,306.87731,87.875996)"
       id="path3135"
       style="fill:#000066;fill-opacity:1;fill-rule:evenodd;stroke:none;stroke-width:1.39999998000000000;stroke-linecap:round;stroke-linejoin:miter;stroke-miterlimit:4;stroke-dasharray:none;stroke-dashoffset:0;stroke-opacity:1" />
    <path
       d="M 115.28043,422.75369 A 12.193122,12.193122 0 1 1 90.894181,422.75369 A 12.193122,12.193122 0 1 1 115.28043,422.75369 z"
       transform="matrix(0.4388184,0,0,0.4388184,403.6741,88.362413)"
       id="path3137"
       style="fill:#000066;fill-opacity:1;fill-rule:evenodd;stroke:none;stroke-width:1.39999998000000000;stroke-linecap:round;stroke-linejoin:miter;stroke-miterlimit:4;stroke-dasharray:none;stroke-dashoffset:0;stroke-opacity:1" />
    <path
       d="M 318.54026,231.5564 L 337.52146,231.5564 L 337.52146,197.99376 C 337.52146,197.99376 339.95354,184.37414 356.97806,184.37414 C 374.00259,184.37414 375.94825,195.56168 375.94825,195.56168 L 375.94825,232.52923 L 422.6441,232.52923 L 422.6441,197.50734 C 422.6441,197.50734 424.58976,183.88772 441.61429,183.88772 C 458.63882,183.88772 461.0709,196.0481 461.0709,196.0481 L 461.0709,233.01565 L 480.5275,233.01565 L 480.5275,162.45294 L 465.44863,162.27996 L 465.44863,174.64584 L 453.77467,174.64584 L 453.77467,162.42042 L 429.94033,162.24744 L 429.94033,175.13225 L 417.77995,175.13225 L 417.77995,162.48546 L 381.29882,162.48546 L 381.29882,175.61867 L 370.11127,175.61867 L 370.11127,162.48546 L 344.81769,162.48546 L 344.81769,175.13225 L 333.14373,175.13225 L 333.14373,162.48546 L 318.55127,162.48546 L 318.55127,228.89013 L 318.54026,231.5564 z"
       id="path3140"
       style="fill:#000000;fill-opacity:1;fill-rule:evenodd;stroke:none;stroke-width:0.43881840000000000px;stroke-linecap:butt;stroke-linejoin:miter;stroke-opacity:1" />
    <path
       d="M 395.40486,154.70282 L 317.09203,154.70282 L 353.57316,99.251491 L 395.40486,154.70282 z"
       id="path4031"
       style="fill:#009900;fill-opacity:1;fill-rule:evenodd;stroke:none;stroke-width:0.43881840000000000px;stroke-linecap:butt;stroke-linejoin:miter;stroke-opacity:1" />
    <path
       d="M 404.64675,154.70282 L 482.95959,154.70282 L 446.47845,99.251491 L 404.64675,154.70282 z"
       id="path4033"
       style="fill:#009900;fill-opacity:1;fill-rule:evenodd;stroke:none;stroke-width:0.43881840000000000px;stroke-linecap:butt;stroke-linejoin:miter;stroke-opacity:1" />
    <path
       d="M 308.81335,89.027156 L 490.26543,89.027156 L 490.26543,253.93544 C 490.26543,253.93544 475.3461,325.47584 396.17917,323.01206 C 316.9739,320.5471 309.29339,251.01671 309.29339,251.01671 L 308.81335,89.027156 z"
       id="path4035"
       style="fill:none;fill-opacity:0.75000000000000000;fill-rule:evenodd;stroke:#ffff00;stroke-width:2.92084980000000010;stroke-linecap:butt;stroke-linejoin:miter;stroke-miterlimit:4;stroke-dasharray:none;stroke-opacity:1" />
  </g>
</svg>
