<?xml version="1.0" encoding="utf-8"?>
<!-- Generator: Adobe Illustrator 26.0.3, SVG Export Plug-In . SVG Version: 6.00 Build 0)  -->
<svg version="1.1" id="Layer_1" xmlns="http://www.w3.org/2000/svg" xmlns:xlink="http://www.w3.org/1999/xlink" x="0px" y="0px"
	 viewBox="0 0 600 360" style="enable-background:new 0 0 600 360;" xml:space="preserve">
<style type="text/css">
	.st0{fill:#FCDD00;}
	.st1{fill:#007851;}
	.st2{fill:#FFFFFF;}
	.st3{fill:#9C9BA1;}
	.st4{fill:#FFDC00;}
	.st5{fill:#999D9C;}
	.st6{fill:#9C9CA1;stroke:#494D4E;stroke-miterlimit:10;}
	.st7{fill:#C99471;stroke:#000000;stroke-miterlimit:10;}
	.st8{fill:#905247;stroke:#000000;stroke-miterlimit:10;}
	.st9{fill:#FFFFFF;stroke:#000000;stroke-miterlimit:10;}
	.st10{fill:none;stroke:#000000;stroke-miterlimit:10;}
	.st11{fill:#23724F;}
	.st12{fill:#0A7041;}
	.st13{fill:#DAD8DB;}
	.st14{fill:#1A7449;}
	.st15{fill:#9C9CA2;}
	.st16{fill:#FFFFFF;stroke:#000000;stroke-width:0.1;stroke-miterlimit:10;}
	.st17{fill:#237250;}
	.st18{fill:#4B4C4E;}
	.st19{fill:#A3A8A2;}
</style>
<rect class="st0" width="600" height="360"/>
<rect class="st1" width="600" height="36.1"/>
<circle class="st2" cx="300" cy="180.4" r="102.2"/>
<polygon class="st3" points="262.4,182.9 281.6,182.9 284,174.9 260.7,174.9 "/>
<rect y="323.9" class="st1" width="600" height="36.1"/>
<polygon class="st4" points="258.3,134.4 274.9,149.1 276.5,147.9 260.1,133.8 "/>
<polygon class="st4" points="341.7,134.2 326.6,146.4 326.9,147.5 327.9,148.1 343,135.4 "/>
<polygon class="st4" points="344.7,136.7 334.6,144.5 335.5,144.8 345.2,137.9 "/>
<polygon class="st4" points="346.6,139.5 333.3,147.8 335.8,148.8 346.6,140.6 "/>
<polygon class="st5" points="348.5,181.9 362.7,181.9 365.3,177.2 346.8,177.2 "/>
<polygon class="st5" points="233.4,183.6 280.2,183.6 276.3,196.2 238.7,196.2 "/>
<polygon class="st5" points="242.7,165.7 270.3,165.7 275.7,160.6 236.5,160.6 "/>
<polygon class="st6" points="254.4,198.5 344.6,198.5 331.1,208.8 264.3,209.9 "/>
<polygon class="st5" points="234.6,181.1 257.6,181.1 266.4,168 232.9,168 "/>
<polygon class="st5" points="344,159.9 349,165.3 363,165.3 366.3,159.9 "/>
<g>
	<path d="M319.4,218.7c0,0-0.3,0.8,1.3,4.1c1.6,3.3,3.4,5,3.4,5l1.5-0.2c0,0,1,0.6,15.2-5c14.2-5.6,20.2-12.3,20.2-12.3l2-19.1
		l-41.3,13l-1.3,0.4L319.4,218.7z"/>
	<path class="st7" d="M324.2,217.6c0,0-9.1,2.2-16.9,6.2c-7.9,4-10.6,9.9-11.8,9.8c-1.2,0-10.6-5.6-10.5-6.2
		c0.1-0.6-0.5-1.8-1.2-1.5c-0.7,0.3-3.1,1.1-3.4,0.4c-0.3-0.7,0.1-4.5,1.1-5.8S284,209,284,209s2.7-2.5,6.5-4.3
		c3.8-1.9,9.1-1.6,10.8-1.3c1.7,0.2,11.5,3.2,12.8,2.9c1.2-0.2,8.5-0.4,8.5-0.4L324.2,217.6z"/>
	<path class="st8" d="M274.6,206.6c0,0,10.4,0.8,11.6,0c1.2-0.8,4.1-1.6,4.5-1.2c0.5,0.4-5.2,2.1-4.8,3.1c0.4,1,4.3,2.9,5.5,2.5
		c1.2-0.4,6.3-2.2,7.3-1.7s12.3,5.6,13.7,7.9c1.3,2.4,0.7,9.9-0.2,10.3c-0.9,0.4-11.6,6.5-12.5,6.1c-0.9-0.3-4.5-7-6.8-7.5
		c-2.3-0.5-18.2-5.1-18.2-5.1V206.6z"/>
	<polygon class="st9" points="274.8,204.2 279.1,205.5 276.3,226.6 272.1,226.6 266.4,220.2 271.7,206.3 	"/>
	<path d="M241.1,192.4c0,0-2.8,9.7-2.4,16.7c0.4,6.9,3,9.7,3,9.7l30,8.4c0,0-1.7-6-0.9-9.7c0.8-3.7,5.4-13.3,5.4-13.3L241.1,192.4z"
		/>
	<path class="st10" d="M295.8,221.2c0,0,4.6,2.9,5.8,5.5s1.7,5.3,1.7,5.3"/>
	<path class="st10" d="M299.5,217.8c0,0,6.2,3.7,6.3,5.8c0.1,2.1,0,7.1,0,7.1"/>
	<path class="st10" d="M302.9,215.1c0,0,4.7,3.4,5.3,5.1s1.3,8.6,1.3,8.6"/>
	<path class="st2" d="M320.3,204.6c0,0,2.4,4.2,3,10.6c0.6,6.3,0.7,12.7,0.7,12.7h1.8c0,0,0.8-12.5-0.2-15.4c-1-2.9-4-8.2-4-8.2
		L320.3,204.6z"/>
</g>
<path class="st11" d="M249.5,237.7c-1.1,3.3-17-0.8-22.6,5.1c-0.5,0.5-1,1.2-1.1,1.1c-0.3-0.2,1.8-7,6.8-9.6
	c4.9-2.6,9.7,0.2,10.5-1.4c1-2.2-6.2-9-9-7.6c-1.5,0.8-0.5,3.2-2.3,6.7c-2.1,4-6.7,7.1-8.5,6.1c-2.3-1.3-1.5-10.3,3-12.9
	c2.5-1.5,4.8-0.1,6.2-1.9c1.9-2.3,0.2-7.4-1.1-7.5c-0.7-0.1-1,1.4-2.5,3.8c-2.3,3.6-6.1,6.9-7.3,6.2c-1.5-0.8,2-7.3-0.1-9
	c-2.2-1.8-8.8,3.7-9.6,2.7c-0.4-0.5,0.5-2.3,5.8-8.2c-2.4-2.7-6.8-8.1-5.5-10.1c1.4-2,8.7-0.4,13.8,3.4c5.1,3.7,6.3,8.2,7.9,7.7
	c1.7-0.5,2.3-6.5,0.1-7.8c-1.3-0.8-2.4,0.9-5,0.6c-3.5-0.4-3.8-3.9-9-6.5c-2.3-1.2-4.6-1.7-4.5-2c0.1-0.6,5.4,0.9,6.9-1.3
	c0.4-0.5,0.6-1.4,0.2-2c-1.1-2.2-7.5,0.1-8-1.3c-0.5-1.3,4.6-6.2,10.4-6.2c2.4,0,4.5,0.8,4.6,0.5c0.2-0.4-2.8-1.3-5.2-3.9
	c-2-2.1-3.7-5.2-3-6.1c1.5-1.6,12.5,6.1,12.8,5.6c0.2-0.3-6.5-3.4-8.4-9.5c-1.1-3.5-0.5-8,1.2-8.5c2.4-0.8,7.9,5.4,10,12.4
	c1.9,6.6,0,11.5,1.2,11.8c1.1,0.3,3.8-4.1,3.4-8.3c-0.1-0.9-0.3-2.8-1.8-4.1c-0.8-0.7-1.9-0.4-2.7-1.3c-0.6-0.7-0.7-1.5-0.8-1.9
	c-0.6-3.8-3.6-5.2-4.2-9.5c-0.2-1.8-0.1-4.8,1.1-5.3c2-0.8,5.5,5.4,7,4.6c0.8-0.4,0.5-2.5,0.4-3.1c-0.4-2.7-1.8-4-2.7-5.8
	c-2-3.9-0.9-9.3,0.5-9.7c1.7-0.5,5.6,5.5,7.1,11.9c1.7,7.1-0.3,12.2,1.4,12.9c2,0.8,4.5-6.1,11.3-7.8c4-1,8.4,0,8.6,1.4
	c0.5,2.5-11.9,6.3-11.3,8.6c0.5,1.9,9.4,0.3,10.2,2.8c0.9,2.8-9.6,7-8.8,11.8c0.5,3.1,5.2,3.7,5,6c-0.2,2.4-5.7,5.3-10.2,4.2
	c-3.6-0.9-4.8-3.8-9.8-4.6c-1.1-0.2-2.8-0.4-3.3,0.4c-0.8,1.2,1.8,3.3,2.7,7.1c1.2,4.9-1,9.7-2.1,9.7c-0.9,0-1.3-2.9-2.5-2.8
	c-0.3,0-0.9,0.3-0.9,0.6c0,0.2,0.1,0.4,0.1,0.4c0.7,0.9-0.3,5.6,0.4,5.9c0.6,0.2,2-3.2,3-3c0.8,0.2,1.4,2.9,0.3,3.9
	c-1.2,1.1-3.5-0.4-4,0.3c-0.5,0.7,0.9,3.4,3.1,3.6c1.4,0.1,2.2-1.2,3.4-2c4.8-3.1,16.5,1.8,17.3,8c0.2,1.7-0.5,3.2-2,6.2
	c-0.7,1.4-3.7,7.4-6,6.9c-2.3-0.5-1.8-7.3-4.3-7.7c-0.9-0.1-1.9,0.5-2.2,1.3c-0.5,1.2,1,2.9,1.5,3.5c1.2,1.3,1.9,1.3,2.6,2.5
	C249.1,235.6,249.8,236.9,249.5,237.7z"/>
<polygon class="st5" points="325.6,194.8 321,184.2 369.4,184.2 373.1,199.3 365.1,214.2 359,214.7 360.1,195.8 "/>
<path class="st12" d="M345.6,235c0,0,11.9-12.4,12.3-16.9c0.4-4.5,2.2-31.7,2.2-31.7l-1.1-15.6h1.1c0,0,1.3,15.3,0.9,23.3
	s-0.3,20.2-2,23.8s-11.7,18.2-11.7,18.2L345.6,235z"/>
<path class="st13" d="M341.1,159.3h-17v-3.1l-6.6-1.4c0,0,1.6-3.6,6.2-6.3c4.6-2.7,16.5-0.4,16.5-0.4L341.1,159.3z"/>
<path class="st12" d="M339.4,233.9c0-0.4-2.3-7.8-2.4-7.8s-1.2,0-1.2,0l2.6,8.1l-4.9-8l2.4,8.2l-4.7-7.8l3.3,7.8L339.4,233.9z"/>
<polyline class="st14" points="256.2,232.7 264,225 266.2,225.6 265.1,233 256.2,233 "/>
<polygon class="st2" points="233.2,203 229.4,195.4 236.2,194.1 234.9,203 "/>
<polygon class="st15" points="247.7,170 246.3,173.9 251.8,172.5 "/>
<polygon class="st5" points="339,173.3 354.6,173.3 350.5,167.8 334.4,167.8 "/>
<polygon class="st5" points="330.9,166.4 346.2,166.4 338.9,160.8 326.4,160.8 "/>
<polygon class="st15" points="245,175.8 241.4,185.6 246.9,176.5 "/>
<path class="st16" d="M237.4,238.5c1.6-1.9,5.1,1.1,9.7,0c3.9-0.9,3.4-3.4,7.9-5.2c0.5-0.2,7.5-2.9,12.5,1c1.8,1.4,4.1,4.7,3.5,5.8
	c-0.7,1.4-6,4.3-9,1.8c-1.6-1.3-2-1.7-3.3-2.6c-1.1-0.8-1.5-0.9-2.1,0.3c-1.1,2.2-0.3,2.7,2,4.2c2.8,1.8,6.1,1,7.8,0.6
	c12.3-3,18.8-6.9,26.2-8.5c8.8-1.9,16.4,0,20.7,1.2c4.9,1.3,20,6,24.2,8.4c0.1,0.1,0.5,0.3,1,0.4c2.6,0.5,4.5-1.2,5.4-4.5
	c0.4-1.7,0.7-1.6-0.4-2.1c-1-0.5-0.8,0.7-2.3,1.8c-1.7,1.3-2.5,2.2-3.3,2.4c-2.6,0.7-8.4-4-8.4-7.8c0-1.6,6.5-2.5,8-2.5
	c5.6,0.2,7.6,2.1,16.3,4.9c5,1.7,6.3,1,8.5-0.1c2.4-1.1,4.2-0.6,4-0.5c-1.6,1.6-4.5,1.4-19.4,14.8c-2.9-2.1-7.3-4.9-9.4-3.4
	c-0.6,0.5-0.8,1.2-0.9,1.5c-1.1,4.1-5.3,14.2-8.4,17.2c-4.1,3.9-11,0.3-22-1.1c-7.6-0.9-22.5,2.4-30.6,3c-0.2,0-0.5,0-0.9,0
	c-4.7-0.4-7.8-8-9.4-11.8c-2.2-5.3-2-7.4-3.8-7.9c-2.7-0.9-5.6,3.2-8.5,2c-1.1-0.5-0.8-1.1-2.2-2.6c-3.2-3.5-9.3-5.2-13.4-6.4
	c-0.1,0-0.3-0.1-0.5-0.3C236.4,241.5,236.6,239.4,237.4,238.5z"/>
<path class="st17" d="M237.1,240.6c1.6-1.9,5.1,1.1,9.7,0c3.9-0.9,3.4-3.4,7.9-5.2c0.5-0.2,7.5-2.9,12.5,1c1.8,1.4,1.9,2.5,1.3,3.6
	c-0.7,1.4-3.9,2-6.9-0.5c-1.6-1.3-1.7-2.1-3.2-2.3c-1.3-0.2-2.8,0.7-3.3,1.8c-1.1,2.2,1,5.4,3.3,6.9c2.8,1.8,6.1,1,7.8,0.6
	c12.3-3,18.8-6.9,26.2-8.5c8.8-1.9,16.4,0,20.7,1.2c4.9,1.3,20,6,24.2,8.4c0.1,0.1,0.5,0.3,1,0.4c2.6,0.5,6-2.4,6.9-5.7
	c0.4-1.7,0.4-4.2-0.7-4.7c-1-0.5-2.7,0.8-4.1,2c-1.7,1.3-1.7,1.9-2.6,2.1c-2.6,0.7-7-3.7-6.2-5.7c0.6-1.5,4.1-1.4,5.6-1.3
	c5.6,0.2,7.7,2.6,16.3,5.5c5,1.7,4.9-0.6,7.2-1.2c3-0.8,5.8-1.5,5.6-1.4c-1.2,1.1-4.8,3.5-19.7,16.9c-2.9-2.1-7.3-4.9-9.4-3.4
	c-0.6,0.5-0.8,1.2-0.9,1.5c-1.1,4.1-5.3,14.2-8.4,17.2c-4.1,3.9-11,0.3-22-1.1c-7.6-0.9-22.5,2.4-30.6,3c-0.2,0-0.5,0-0.9,0
	c-4.7-0.4-7.8-8-9.4-11.8c-2.2-5.3-2-7.4-3.8-7.9c-2.7-0.9-5.6,3.2-8.5,2c-1.1-0.5-0.8-1.1-2.2-2.6c-3.2-3.5-9.3-5.2-13.4-6.4
	c-0.1,0-0.3-0.1-0.5-0.3C236.1,243.6,236.3,241.5,237.1,240.6z"/>
<g>
	<path class="st2" d="M290,249.7l1.2,0.3c-0.3,1-0.7,1.7-1.4,2.2c-0.7,0.5-1.5,0.8-2.4,0.8c-1,0-1.8-0.2-2.4-0.6
		c-0.6-0.4-1.1-1-1.4-1.7c-0.3-0.7-0.5-1.6-0.5-2.4c0-0.9,0.2-1.8,0.5-2.5s0.9-1.2,1.5-1.6c0.7-0.4,1.4-0.5,2.2-0.5
		c0.9,0,1.7,0.2,2.3,0.7s1,1.1,1.3,1.9l-1.2,0.3c-0.2-0.7-0.5-1.1-0.9-1.4s-0.9-0.4-1.5-0.4c-0.7,0-1.3,0.2-1.7,0.5s-0.8,0.8-1,1.3
		c-0.2,0.6-0.3,1.1-0.3,1.7c0,0.8,0.1,1.4,0.3,2c0.2,0.6,0.6,1,1,1.3s1,0.4,1.5,0.4c0.7,0,1.2-0.2,1.7-0.6S289.8,250.4,290,249.7z"
		/>
	<path class="st2" d="M292.6,245.1v-1.3h1.1v1.3H292.6z M292.6,252.8v-6.5h1.1v6.5H292.6z"/>
	<path class="st2" d="M297.9,251.8l0.2,1c-0.3,0.1-0.6,0.1-0.8,0.1c-0.4,0-0.7-0.1-0.9-0.2s-0.4-0.3-0.5-0.5
		c-0.1-0.2-0.1-0.6-0.1-1.3v-3.7h-0.8v-0.9h0.8v-1.6l1.1-0.7v2.3h1.1v0.9h-1.1v3.8c0,0.3,0,0.5,0.1,0.6s0.1,0.2,0.2,0.2
		c0.1,0.1,0.2,0.1,0.4,0.1C297.5,251.9,297.7,251.9,297.9,251.8z"/>
	<path class="st2" d="M299,255.3l-0.1-1c0.2,0.1,0.5,0.1,0.6,0.1c0.2,0,0.4,0,0.6-0.1c0.1-0.1,0.3-0.2,0.4-0.3
		c0.1-0.1,0.2-0.4,0.3-0.8c0-0.1,0.1-0.2,0.1-0.3l-2.5-6.5h1.2l1.4,3.8c0.2,0.5,0.3,1,0.5,1.5c0.1-0.5,0.3-1,0.5-1.5l1.4-3.8h1.1
		l-2.5,6.6c-0.3,0.7-0.5,1.2-0.6,1.5c-0.2,0.4-0.4,0.6-0.7,0.8c-0.3,0.2-0.6,0.3-0.9,0.3C299.5,255.5,299.2,255.4,299,255.3z"/>
	<path class="st2" d="M308.6,249.6c0-1.2,0.3-2.1,1-2.7c0.6-0.5,1.3-0.7,2.1-0.7c0.9,0,1.6,0.3,2.2,0.9c0.6,0.6,0.9,1.4,0.9,2.4
		c0,0.8-0.1,1.5-0.4,2s-0.6,0.9-1.1,1.1c-0.5,0.3-1,0.4-1.6,0.4c-0.9,0-1.7-0.3-2.2-0.9C308.9,251.5,308.6,250.7,308.6,249.6z
		 M309.7,249.6c0,0.8,0.2,1.5,0.5,1.9c0.4,0.4,0.8,0.6,1.4,0.6c0.6,0,1-0.2,1.4-0.6c0.4-0.4,0.5-1.1,0.5-1.9c0-0.8-0.2-1.4-0.6-1.8
		c-0.4-0.4-0.8-0.6-1.4-0.6c-0.6,0-1,0.2-1.4,0.6C309.9,248.1,309.7,248.7,309.7,249.6z"/>
	<path class="st2" d="M316.4,252.8v-5.7h-1v-0.9h1v-0.7c0-0.4,0-0.8,0.1-1c0.1-0.3,0.3-0.5,0.6-0.7c0.3-0.2,0.6-0.3,1.1-0.3
		c0.3,0,0.7,0,1,0.1l-0.2,1c-0.2,0-0.4-0.1-0.7-0.1c-0.3,0-0.6,0.1-0.7,0.2s-0.2,0.4-0.2,0.8v0.6h1.3v0.9h-1.3v5.7H316.4z"/>
</g>
<g>
	<path class="st2" d="M278,263.8v-9h3.4c0.6,0,1.1,0,1.4,0.1c0.4,0.1,0.8,0.2,1.1,0.4c0.3,0.2,0.5,0.5,0.7,0.9s0.3,0.8,0.3,1.2
		c0,0.8-0.2,1.4-0.7,1.9c-0.5,0.5-1.4,0.8-2.7,0.8h-2.3v3.7H278z M279.2,259.1h2.3c0.8,0,1.3-0.1,1.6-0.4c0.3-0.3,0.5-0.7,0.5-1.2
		c0-0.4-0.1-0.7-0.3-1c-0.2-0.3-0.4-0.4-0.8-0.5c-0.2-0.1-0.6-0.1-1.1-0.1h-2.3V259.1z"/>
	<path class="st2" d="M286.4,263.8v-6.5h1v1c0.3-0.5,0.5-0.8,0.7-0.9c0.2-0.1,0.5-0.2,0.7-0.2c0.4,0,0.8,0.1,1.1,0.4l-0.4,1
		c-0.3-0.2-0.5-0.2-0.8-0.2c-0.2,0-0.5,0.1-0.7,0.2c-0.2,0.1-0.3,0.3-0.4,0.6c-0.1,0.4-0.2,0.8-0.2,1.3v3.4H286.4z"/>
	<path class="st2" d="M290.3,260.5c0-1.2,0.3-2.1,1-2.7c0.6-0.5,1.3-0.7,2.1-0.7c0.9,0,1.6,0.3,2.2,0.9c0.6,0.6,0.9,1.4,0.9,2.4
		c0,0.8-0.1,1.5-0.4,2s-0.6,0.9-1.1,1.1c-0.5,0.3-1,0.4-1.6,0.4c-0.9,0-1.7-0.3-2.2-0.9C290.5,262.5,290.3,261.6,290.3,260.5z
		 M291.4,260.5c0,0.8,0.2,1.5,0.5,1.9c0.4,0.4,0.8,0.6,1.4,0.6c0.6,0,1-0.2,1.4-0.6c0.4-0.4,0.5-1.1,0.5-1.9c0-0.8-0.2-1.4-0.6-1.8
		c-0.4-0.4-0.8-0.6-1.4-0.6c-0.6,0-1,0.2-1.4,0.6C291.6,259.1,291.4,259.7,291.4,260.5z"/>
	<path class="st2" d="M297.8,263.8v-6.5h1v0.9c0.2-0.3,0.5-0.6,0.8-0.8s0.7-0.3,1.2-0.3c0.5,0,0.9,0.1,1.2,0.3
		c0.3,0.2,0.5,0.5,0.7,0.8c0.5-0.8,1.2-1.1,2-1.1c0.7,0,1.2,0.2,1.5,0.5c0.4,0.4,0.5,0.9,0.5,1.7v4.5h-1.1v-4.1c0-0.4,0-0.8-0.1-1
		c-0.1-0.2-0.2-0.4-0.4-0.5c-0.2-0.1-0.4-0.2-0.7-0.2c-0.5,0-0.8,0.2-1.1,0.5s-0.5,0.8-0.5,1.5v3.8h-1.1v-4.2c0-0.5-0.1-0.9-0.3-1.1
		c-0.2-0.2-0.5-0.4-0.9-0.4c-0.3,0-0.6,0.1-0.9,0.2c-0.3,0.2-0.5,0.4-0.6,0.7c-0.1,0.3-0.2,0.8-0.2,1.4v3.4H297.8z"/>
	<path class="st2" d="M308.4,256v-1.3h1.1v1.3H308.4z M308.4,263.8v-6.5h1.1v6.5H308.4z"/>
	<path class="st2" d="M310.8,261.8l1.1-0.2c0.1,0.4,0.2,0.8,0.5,1s0.7,0.3,1.2,0.3c0.5,0,0.9-0.1,1.1-0.3s0.4-0.4,0.4-0.7
		c0-0.2-0.1-0.4-0.3-0.6c-0.2-0.1-0.5-0.2-1.1-0.4c-0.8-0.2-1.4-0.4-1.7-0.5c-0.3-0.1-0.6-0.4-0.7-0.6s-0.2-0.6-0.2-0.9
		c0-0.3,0.1-0.6,0.2-0.8c0.1-0.2,0.3-0.5,0.5-0.6c0.2-0.1,0.4-0.2,0.7-0.3c0.3-0.1,0.6-0.1,1-0.1c0.5,0,1,0.1,1.4,0.2
		c0.4,0.1,0.7,0.3,0.9,0.6c0.2,0.3,0.3,0.6,0.4,1l-1.1,0.1c0-0.3-0.2-0.6-0.4-0.8c-0.2-0.2-0.6-0.3-1-0.3c-0.5,0-0.9,0.1-1.1,0.3
		c-0.2,0.2-0.3,0.4-0.3,0.6c0,0.1,0,0.3,0.1,0.4c0.1,0.1,0.2,0.2,0.4,0.3c0.1,0,0.4,0.1,1,0.3c0.8,0.2,1.3,0.4,1.6,0.5
		s0.6,0.3,0.7,0.6c0.2,0.3,0.3,0.6,0.3,0.9c0,0.4-0.1,0.7-0.3,1s-0.5,0.6-0.9,0.8c-0.4,0.2-0.9,0.3-1.4,0.3c-0.9,0-1.5-0.2-1.9-0.5
		C311.2,263,310.9,262.5,310.8,261.8z"/>
	<path class="st2" d="M322.1,261.7l1.1,0.1c-0.2,0.7-0.5,1.2-1,1.6c-0.5,0.4-1.1,0.6-1.9,0.6c-1,0-1.7-0.3-2.3-0.9
		c-0.6-0.6-0.8-1.4-0.8-2.5c0-1.1,0.3-1.9,0.9-2.6c0.6-0.6,1.3-0.9,2.2-0.9c0.9,0,1.6,0.3,2.1,0.9c0.6,0.6,0.8,1.4,0.8,2.5
		c0,0.1,0,0.2,0,0.3h-4.9c0,0.7,0.2,1.3,0.6,1.6s0.8,0.6,1.4,0.6c0.4,0,0.8-0.1,1-0.3C321.7,262.5,321.9,262.1,322.1,261.7z
		 M318.5,259.9h3.7c0-0.5-0.2-1-0.4-1.2c-0.4-0.4-0.8-0.6-1.4-0.6c-0.5,0-0.9,0.2-1.3,0.5C318.7,258.9,318.5,259.3,318.5,259.9z"/>
</g>
<path class="st12" d="M351,230.2c0,0,2.6,0.4,4,2.1c1.4,1.7,4.6,3.1,6,3c1.4-0.1,4.3-0.9,4.3-0.9s-1.6-2.6-4.2-3.1s-6.4-0.4-7-0.7
	c-0.6-0.3-3-1-3-1L351,230.2z"/>
<path class="st12" d="M352.9,226.9c0,0,4.2,1.6,7.6,2.6s8.5,0.7,8.5,0.6c0-0.1-6.4-3-9.8-3s-5.9-0.9-5.9-0.9L352.9,226.9z"/>
<path class="st12" d="M354.9,224.9c0,0,5.7,0.8,10.5,1.3c4.8,0.4,11.4,6.1,11.4,6.1s-4-5.4-6.7-6.6c-2.7-1.2-1.2-0.7-7.1-1.4
	c-6.1-0.8-7.8-0.5-7.8-0.5L354.9,224.9z"/>
<path class="st12" d="M356.9,221.1c0,0,5-0.8,9.9,0.9c4.9,1.7,12.5,7.8,12.5,7.8s-5.1-7-7.6-7.9s-14.1-1.9-14.1-1.9L356.9,221.1z"/>
<path class="st12" d="M357.9,219.5c0,0,15.6-0.2,17,0.5s6.2,6,6.2,6l-7.2-5l-8.8,0l-7.8-0.6L357.9,219.5z"/>
<path class="st12" d="M358,218.6c0,0,7.1-0.5,10.5-0.4s8,1.8,8,1.8l5.7,3.7c0,0-3.8-4.9-6-5.6c-2.2-0.7-3.3-1.9-8.1-1.9
	s-9.2,0.4-9.2,0.4L358,218.6z"/>
<path class="st12" d="M359,215.7c0,0,6.3-1.3,11.8-0.5c5.6,0.8,15.3,5.6,15.3,5.6s-8.5-6.3-12-7c-3.4-0.7-15.1-0.3-15.1-0.3
	L359,215.7z"/>
<path class="st12" d="M359.2,212.5c0,0,6.2-2.5,10.8-2.2s15.4,6.8,15.4,6.8l-7.6-6.8l9.1,4c0,0-5.5-5.7-8.1-6.2
	c-2.7-0.5-18.2,0.6-18.2,0.6l-1.2,0.8V212.5z"/>
<path class="st12" d="M360.2,208.2c0,0,4.4-2.8,9.6-2.6c5.2,0.2,19.2,5.2,19.2,5.2s-5.9-6.1-12.6-6.6s-16.7,3.3-16.7,3.3
	L360.2,208.2z"/>
<path class="st12" d="M359.8,207.5l7.1-2.2l4.7-0.7c0,0,1.5-2.3,6.7-4.2c5.2-2,9.2-3.8,9.2-3.8s-3.4-1-6.5,0.7s-6.9,3.9-12.7,5.8
	c-5.9,1.9-8.4,3-8.4,3l-0.1,1.6"/>
<path class="st12" d="M359.7,205.7c0,0,7-3.3,11-6s13.8-3.8,14.9-4.1s-5.5-1.9-10,0c-4.4,1.9-16,9-16,9L359.7,205.7z"/>
<path class="st12" d="M359.8,202c0,0,3.6-2,9.6-5.5s12.3-3.6,14.4-3.7c2.1-0.1,3.7-0.3,3.7-0.3s-3.1-2.2-11-0.4
	c-7.9,1.9-16.3,7.7-16.3,7.7L359.8,202z"/>
<path class="st12" d="M359.9,198.8c0,0,3.8-3.8,9.2-7.4s14.4-2,15.6-1.7c1.3,0.4,3.6,1.1,2.8,0.3s-2.9-3.7-8.1-3.2
	c-5.2,0.5-9.6,1.7-9.5,1.5s5-2.9,9.5-3.1s8.6-0.7,6.5-1.3c-2.1-0.6-8.3-0.2-8.3-0.6c0-0.4,5.6-1.4,6.6-1.6c1-0.2,3.8-0.2,2.1-0.9
	c-1.7-0.8-3.1-0.9-4.5-0.8c-1.4,0.1-10.3,3.9-12.9,7c-2.6,3.1-8.6,9-8.6,9L359.9,198.8z"/>
<path class="st12" d="M360.1,194c0,0,11.8-11.9,14.1-14c2.3-2,10.1-3.6,10.1-3.6s-5.1-0.9-7.7,0.4s-16.6,16.8-16.6,16.8V194z"/>
<path class="st12" d="M360.1,190.1c0,0,7.5-9.7,12.8-13.5c5.3-3.8,10.1-4.5,10.1-4.5s-5.6-1-9.2,1.6c-3.5,2.6-13.7,15.4-13.7,15.4
	V190.1z"/>
<path class="st12" d="M360.1,185.4c0,0,6.4-8.3,8.9-12c2.5-3.7,8.5-5.7,10.5-6.2s2.8-0.7,2.8-0.7s-2.9-1.6-6.3,0s-7.6,4.8-9.6,7.8
	C364.3,177.4,360.1,185.4,360.1,185.4z"/>
<path class="st12" d="M359.7,172.5c0,0,9.3-10,11.8-11.7c2.5-1.8,1.3-10.6,0.9-10.4s-0.9,7.7-1.7,8.5c-0.7,0.8-10.9,12-10.9,12
	L359.7,172.5z"/>
<path class="st12" d="M358.9,170.9c0,0,4.3-6.4,5.7-9.3c1.4-2.9,2.2-9.9,1.9-13.3c-0.2-3.4-0.9-9.6-0.8-9.9
	c0.1-0.3,3.3,5.4,2.7,10.8c-0.5,5.4,0.9,6.3-1.3,10c-2.2,3.7-7.4,11.8-7.4,11.8H358.9z"/>
<path class="st12" d="M360.1,179.6c0,0,7.2-11,10.5-13.4c3.3-2.4,8.4-4.7,8.4-4.7s-2.7-1.4-5.4,0c-2.6,1.4-13.9,14.7-13.9,14.7
	L360.1,179.6z"/>
<polygon class="st12" points="359.9,181.2 340.1,168.6 360.1,179.3 "/>
<path class="st12" d="M360.1,179.3L337,161.4c0,0,5.1,1.8,10.3,5.7c5.2,3.9,12.8,10.1,12.8,10.1v2.4"/>
<path class="st12" d="M360.1,177.2c0,0-8.1-8.1-12.8-12.2c-4.7-4.1-9.7-8.6-9.7-8.6l22.1,17.8L360.1,177.2z"/>
<path class="st12" d="M359.5,173.3c0,0-12-14.2-16.4-16.4c-4.4-2.2-5.8-3-5-3c0.9,0,6.4,3.4,6.6,2.4c0.1-1-7.3-8.4-6.8-8.6
	c0.5-0.2,16.7,17.9,19.1,20.6c2.3,2.7,1.9,2.5,1.9,2.5L359.5,173.3z"/>
<path class="st12" d="M358.9,170.9c0,0,0.2-2.1-5.8-9.7c-6.1-7.7-14-18.2-14-18.2s6.2,4.6,9,8.4c2.8,3.8,12,18.1,12,18.1
	L358.9,170.9z"/>
<path class="st12" d="M360.6,168.3c0,0-6.9-12.9-11-17.9c-4.1-5-6-7.6-6-7.6s6.2,7.7,7.4,7.6c1.2-0.1-4.6-9.5-4.5-10.1
	s1.8,2.4,3.3,4.5c1.4,2.2,11.6,22.3,11.6,22.3L360.6,168.3z"/>
<path class="st12" d="M362.7,165.1c0,0-4.6-13-9.7-22c-5.1-9-4.9-10.6-4.9-10.6s7.8,14.2,8.4,15.3s2.1,6,2.7,5.7
	c0.6-0.3-4.7-18.7-4.7-20.2s1.3-2.9,1.7-1.2c0.4,1.8,2,2.7,2.8,7.5c0.7,4.2,3.6,20.5,4.2,24.7C363.3,164.9,362.7,165.1,362.7,165.1z
	"/>
<path class="st12" d="M364.4,162c0,0-1.1-5-1.8-12.1c-0.7-7.1-1.7-17.6-1.7-17.6s2.8,13.1,3.5,20.9c0.7,7.7,0.7,8.5,0.7,8.5
	L364.4,162z"/>
<polygon class="st12" points="359.8,197.4 344.4,190.4 360.1,195.8 "/>
<path class="st12" d="M360.1,194.5c0,0-9.5-4-13.5-6.2c-4-2.2-3.6-2.4-3.6-2.4l17.1,7.1V194.5z"/>
<polygon class="st12" points="360.1,192.1 343.5,179 359.9,189.4 "/>
<polygon class="st12" points="359.7,187.7 345.4,174.7 360.4,186.6 360.4,188.1 "/>
<polygon class="st12" points="360.4,201.7 346.2,195.6 359.9,198.8 "/>
<polygon class="st12" points="358.8,210.9 349.7,197.7 359.5,208.8 "/>
<path class="st12" d="M356.4,221.7c0,0-2.4-8.6-5.4-11.3c-3-2.7-3-4.5-3-4.5s5.7,6.6,5.5,4.7c-0.2-1.9-4.7-10.4-4.4-10.4
	c0.3,0.1,6.5,8,7.3,9.4c0.8,1.4,0,4.6,0,5.4c0,0.8,1,6,1,6L356.4,221.7z"/>
<path class="st12" d="M352.9,227.3c0,0,0.1-5.6-4.1-11.7c-4.3-6.1-6.3-6.6-6.3-6.6s7,5.7,6.9,4.5s-2.9-5.3-2.3-5.2s4.9,4.8,5,6.8
	c0.2,2,1.9,11.1,1.9,11.1L352.9,227.3z"/>
<path class="st12" d="M349,231.6c0,0-2.6-9.1-5.4-12.9c-2.8-3.8-3.4-4.5-3.4-4.5s5.4,6.9,5.7,5.3c0.3-1.6-4-6.8-3.4-7
	s5.3,4.3,5.8,7.5c0.5,3.2,1.4,10.9,1.4,10.9L349,231.6z"/>
<path class="st12" d="M347.2,233.3c0,0-3.9-10.6-5.4-12.9s-1.6-3.8-1.6-3.8l7.8,16.4L347.2,233.3z"/>
<path class="st12" d="M346.7,234.4c0,0-3.4-4.8-3.9-4.7c-0.5,0.1-0.5,3.1-1,3s0.1-5.1-2.4-6.8s-6.5-3.4-5.4-4
	c1.1-0.6,5.5,2.5,6.3,2.4c0.7-0.1,0.7-2.1,1.6-1.2c0.9,0.9,5.5,11.3,5.5,11.3H346.7z"/>
<polygon class="st5" points="283.7,194.8 287,183.6 295.3,183.6 295.3,177.7 306.2,177.7 306.2,183.6 315.6,183.6 318.3,194.8 "/>
<polygon class="st5" points="266.4,173 285.6,173 287.3,168 271.1,168 "/>
<path class="st13" d="M260.1,159.1h17V156h2.3c0,0-0.7-2.8-5.3-5.5c-4.6-2.7-13.2-2.6-13.2-2.6L260.1,159.1z"/>
<path class="st11" d="M245.5,160.7c-0.4-0.4,5.3-7.3,4.3-8.4c-0.6-0.6-1.9,1.1-3.6,0.4c-2.2-0.9-2.4-5.1-2.5-8.4
	c0-1-0.2-6.4,2.6-12.2c1-2,1.5-2.4,1.9-2.4c1.3,0.2,0.5,6.8,2.3,7.3c2.1,0.6,5.7-7.4,7-6.9c1.5,0.6-2.5,13.3-0.6,14.1
	c1,0.4,2.3-2.9,6-4c2.5-0.7,5.7-0.4,6.5,1.1c1.2,2.4-7.3,7.4-6.4,9c0.6,1,4-0.4,4.9,1.1c0.5,0.8,0,2-0.2,2.6
	c-1.7,3.9-7,6.2-11.8,6.5c-3,0.2-6.5-0.5-6.6-1.4c-0.2-1.4,6.8-3.1,6.6-4.3c-0.2-0.7-3.2-0.2-3.8-1.6c-0.7-1.4,1.8-3.6,1.3-4
	c-0.3-0.3-2,0.5-2.6,1.9c-0.4,0.9-0.1,1.7,0,2.4C251.3,157.1,245.9,161,245.5,160.7z"/>
<polygon class="st5" points="273.1,166.3 288.5,166.3 288.5,163.1 276.3,163.1 "/>
<polygon points="277.1,156 277.1,163.1 288.5,163.1 288.5,160.3 298.7,160.3 298.7,156 303.1,156 303.1,160.4 313.5,160.4 
	313.5,163.8 324.2,163.8 324.2,156.3 313.7,153.3 313.7,149.5 303.4,149.5 303.4,144 297.8,144 297.8,150 286.9,150 286.9,153.5 "/>
<rect x="293" y="150.9" class="st18" width="1.3" height="9.4"/>
<rect x="289.9" y="150.9" class="st18" width="1.3" height="9.4"/>
<rect x="309.9" y="150.9" class="st18" width="1.3" height="9.5"/>
<rect x="297.1" y="122" class="st4" width="2.9" height="14"/>
<polygon class="st4" points="301,122 301,139.3 304,138 304,122 "/>
<rect x="307.7" y="150.9" class="st18" width="1.3" height="9.5"/>
<rect x="305" y="154" class="st18" width="1" height="6.4"/>
<rect x="296" y="154" class="st18" width="1.3" height="6.3"/>
<rect x="296" y="150.9" class="st2" width="10" height="3.1"/>
<rect x="300" y="134.2" class="st19" width="2.1" height="9.8"/>
<polygon points="296.6,139 300,139 300,134.9 299.5,136 296.6,136 "/>
<polygon class="st5" points="289.9,175.6 313.2,175.6 308.5,162.5 293,162.5 "/>
<polygon class="st5" points="314.7,168.1 330.9,168.1 335.2,173.3 316.7,173.3 "/>
<polygon class="st5" points="313.5,166.4 327.5,166.4 324.2,163.8 313.5,163.8 "/>
<polygon class="st4" points="261.3,133.5 269,139.9 269.4,138.8 262.5,132 "/>
<polygon class="st4" points="263.2,130.7 279.1,147 280.2,145.6 266.5,130.2 "/>
<polygon class="st4" points="266.8,129.5 277.9,141.5 278.6,140.8 268.6,128.6 "/>
<polygon class="st4" points="269.7,127.5 278.9,139.9 280.2,139.9 272.7,127.5 "/>
<polygon class="st4" points="273.7,126.3 282.3,140.8 283.5,140.8 275.9,126.3 "/>
<polygon class="st4" points="277.1,125.4 281.5,134 282.4,134 279,125.4 "/>
<polygon class="st4" points="279.8,124.7 285.2,135.7 286.1,135.7 281.4,124.7 "/>
<polygon class="st4" points="282.4,124.7 284.5,128.8 286,128.8 284.1,124.7 "/>
<polygon class="st4" points="284.8,122.8 290,138 291.1,138 287.6,122.8 "/>
<polygon class="st4" points="288.9,122 293.4,139 294.3,139 291.6,122 "/>
<polygon class="st4" points="292.7,122 295.3,136 296.3,136 295,122 "/>
<polygon class="st4" points="306.5,122 304.7,136 306,136 308.2,122 "/>
<polygon class="st4" points="310.2,122 305.6,139.3 307.9,139.3 312.2,122 "/>
<polygon class="st4" points="313.8,122.7 309,139.5 310.5,139.5 316.1,122.8 "/>
<polygon class="st4" points="317.2,123.6 314.6,131.4 315.9,131.9 318.3,124 "/>
<polygon class="st4" points="319.8,124.7 316.1,133.6 317,133.8 321.9,125.4 "/>
<polygon class="st4" points="323.1,125.9 318.1,134.2 319.3,134.9 324.4,126.3 "/>
<polygon class="st4" points="326,125.7 317,140.8 318.3,141.2 327.9,126.3 "/>
<polygon class="st4" points="329.6,126.9 319.7,140.6 321.7,140.8 331.1,127.8 "/>
<polygon class="st4" points="332.2,128.2 324,139.5 324.6,140 333.9,129.4 "/>
<polygon class="st4" points="335.8,130.2 322.1,144.8 323.1,145.7 337.4,131.9 "/>
<polygon class="st4" points="338.9,131.9 331.5,138.8 332,139.5 340.1,133.5 "/>
<g>
	<path d="M270.5,92.3l0.1,2h-0.2c0-0.3-0.1-0.6-0.2-0.7c-0.1-0.2-0.3-0.4-0.5-0.5s-0.5-0.2-0.8-0.2h-1.2v6.5c0,0.5,0.1,0.8,0.2,1
		c0.2,0.2,0.4,0.3,0.7,0.3h0.3v0.2h-3.5v-0.2h0.3c0.4,0,0.6-0.1,0.7-0.3c0.1-0.1,0.1-0.4,0.1-0.9v-6.5h-1c-0.4,0-0.7,0-0.8,0.1
		c-0.2,0.1-0.4,0.2-0.5,0.5c-0.2,0.2-0.2,0.5-0.3,0.9h-0.2l0.1-2H270.5z"/>
	<path d="M273.5,96.2h3.8v-2.4c0-0.4,0-0.7-0.1-0.9c0-0.1-0.1-0.2-0.3-0.3c-0.2-0.1-0.4-0.1-0.6-0.1h-0.3v-0.2h3.5v0.2h-0.3
		c-0.2,0-0.4,0-0.6,0.1c-0.1,0.1-0.2,0.2-0.3,0.3s-0.1,0.4-0.1,0.8v5.5c0,0.4,0,0.7,0.1,0.8c0,0.1,0.1,0.2,0.2,0.3
		c0.2,0.1,0.4,0.1,0.6,0.1h0.3v0.2h-3.5v-0.2h0.3c0.3,0,0.6-0.1,0.7-0.3c0.1-0.1,0.2-0.5,0.2-1v-2.6h-3.8v2.6c0,0.4,0,0.7,0.1,0.8
		c0,0.1,0.1,0.2,0.3,0.3c0.2,0.1,0.4,0.1,0.6,0.1h0.3v0.2h-3.5v-0.2h0.3c0.3,0,0.6-0.1,0.7-0.3c0.1-0.1,0.1-0.5,0.1-1v-5.5
		c0-0.4,0-0.7-0.1-0.9c0-0.1-0.1-0.2-0.2-0.3c-0.2-0.1-0.4-0.1-0.6-0.1h-0.3v-0.2h3.5v0.2h-0.3c-0.2,0-0.4,0-0.6,0.1
		c-0.1,0.1-0.2,0.2-0.3,0.3s-0.1,0.4-0.1,0.8V96.2z"/>
	<path d="M282.6,92.8v3.3h1.8c0.5,0,0.8-0.1,0.9-0.2c0.2-0.2,0.3-0.5,0.4-1h0.2v2.9h-0.2c-0.1-0.4-0.1-0.7-0.2-0.8
		c-0.1-0.1-0.2-0.3-0.4-0.3c-0.2-0.1-0.4-0.1-0.8-0.1h-1.8v2.8c0,0.4,0,0.6,0,0.7c0,0.1,0.1,0.1,0.2,0.2c0.1,0,0.2,0.1,0.5,0.1h1.4
		c0.5,0,0.8,0,1-0.1s0.4-0.2,0.6-0.4c0.3-0.3,0.5-0.6,0.8-1.2h0.2l-0.7,2.1h-6.4v-0.2h0.3c0.2,0,0.4,0,0.6-0.1
		c0.1-0.1,0.2-0.2,0.3-0.3c0-0.1,0.1-0.4,0.1-0.8v-5.5c0-0.5-0.1-0.9-0.2-1c-0.1-0.2-0.4-0.2-0.7-0.2h-0.3v-0.2h6.4l0.1,1.8h-0.2
		c-0.1-0.4-0.2-0.7-0.3-0.9c-0.1-0.2-0.3-0.3-0.5-0.4c-0.2-0.1-0.4-0.1-0.9-0.1H282.6z"/>
	<path d="M298.4,92.1l0.2,2.9h-0.2c-0.3-0.9-0.6-1.5-1.1-1.9c-0.5-0.4-1-0.6-1.7-0.6c-0.5,0-1,0.1-1.5,0.4c-0.4,0.3-0.8,0.7-1,1.4
		c-0.3,0.6-0.4,1.4-0.4,2.3c0,0.8,0.1,1.4,0.4,2c0.2,0.6,0.6,1,1.1,1.3c0.5,0.3,1,0.4,1.7,0.4c0.5,0,1-0.1,1.4-0.4
		c0.4-0.2,0.9-0.7,1.4-1.4l0.2,0.1c-0.4,0.8-0.9,1.3-1.5,1.7s-1.2,0.5-2,0.5c-1.4,0-2.4-0.5-3.2-1.6c-0.6-0.8-0.8-1.7-0.8-2.7
		c0-0.8,0.2-1.6,0.6-2.3c0.4-0.7,0.9-1.3,1.5-1.6c0.6-0.4,1.4-0.6,2.1-0.6c0.6,0,1.2,0.1,1.8,0.4c0.2,0.1,0.3,0.1,0.4,0.1
		c0.1,0,0.2,0,0.3-0.1c0.1-0.1,0.2-0.3,0.2-0.5H298.4z"/>
	<path d="M303.1,100.5v0.2h-3.5v-0.2h0.3c0.3,0,0.6-0.1,0.7-0.3c0.1-0.1,0.1-0.5,0.1-1v-5.5c0-0.4,0-0.7-0.1-0.8
		c0-0.1-0.1-0.2-0.2-0.3c-0.2-0.1-0.4-0.1-0.6-0.1h-0.3v-0.2h3.5v0.2h-0.3c-0.3,0-0.6,0.1-0.7,0.3c-0.1,0.1-0.2,0.5-0.2,1v5.5
		c0,0.4,0,0.7,0.1,0.8c0,0.1,0.1,0.2,0.3,0.3c0.2,0.1,0.4,0.1,0.6,0.1H303.1z"/>
	<path d="M310.7,92.3l0.1,2h-0.2c0-0.3-0.1-0.6-0.2-0.7c-0.1-0.2-0.3-0.4-0.5-0.5s-0.5-0.2-0.8-0.2h-1.2v6.5c0,0.5,0.1,0.8,0.2,1
		c0.2,0.2,0.4,0.3,0.7,0.3h0.3v0.2h-3.5v-0.2h0.3c0.4,0,0.6-0.1,0.7-0.3c0.1-0.1,0.1-0.4,0.1-0.9v-6.5h-1c-0.4,0-0.7,0-0.8,0.1
		c-0.2,0.1-0.4,0.2-0.5,0.5c-0.2,0.2-0.2,0.5-0.3,0.9h-0.2l0.1-2H310.7z"/>
	<path d="M317.2,92.3h2.9v0.2h-0.2c-0.1,0-0.3,0-0.5,0.1c-0.2,0.1-0.4,0.2-0.6,0.4c-0.2,0.2-0.4,0.5-0.6,0.9l-2,3.2v2.1
		c0,0.5,0.1,0.8,0.2,1c0.2,0.2,0.4,0.3,0.7,0.3h0.3v0.2h-3.5v-0.2h0.3c0.3,0,0.6-0.1,0.7-0.3c0.1-0.1,0.1-0.4,0.1-0.9v-2l-2.3-3.5
		c-0.3-0.4-0.5-0.7-0.5-0.8c-0.1-0.1-0.3-0.2-0.6-0.4c-0.1,0-0.2-0.1-0.4-0.1v-0.2h3.5v0.2h-0.2c-0.2,0-0.4,0-0.5,0.1
		c-0.2,0.1-0.2,0.2-0.2,0.4c0,0.1,0.1,0.4,0.4,0.8l1.7,2.7l1.6-2.6c0.2-0.4,0.4-0.7,0.4-0.9c0-0.1,0-0.2-0.1-0.3s-0.1-0.2-0.3-0.2
		c-0.1-0.1-0.3-0.1-0.5-0.1V92.3z"/>
	<path d="M327.6,92.1c1.1,0,2,0.4,2.8,1.2s1.2,1.9,1.2,3.1c0,1.3-0.4,2.3-1.2,3.2c-0.8,0.8-1.8,1.3-2.9,1.3c-1.1,0-2.1-0.4-2.9-1.2
		c-0.8-0.8-1.2-1.9-1.2-3.2c0-1.3,0.4-2.4,1.3-3.3C325.6,92.5,326.5,92.1,327.6,92.1z M327.5,92.6c-0.7,0-1.3,0.3-1.8,0.8
		c-0.6,0.7-0.8,1.7-0.8,3.1c0,1.4,0.3,2.4,0.9,3.2c0.4,0.6,1,0.8,1.8,0.8c0.8,0,1.4-0.3,1.9-0.9c0.5-0.6,0.8-1.6,0.8-2.9
		c0-1.4-0.3-2.5-0.8-3.2C328.9,92.9,328.3,92.6,327.5,92.6z"/>
	<path d="M334.7,92.8v3.3h1.5c0.3,0,0.6-0.1,0.8-0.2c0.2-0.2,0.3-0.5,0.3-0.9h0.2v2.9h-0.2c0-0.3,0-0.6-0.1-0.7
		c-0.1-0.2-0.2-0.3-0.3-0.3c-0.1-0.1-0.3-0.1-0.6-0.1h-1.5v2.7c0,0.4,0,0.7,0.1,0.8c0,0.1,0.1,0.2,0.3,0.3c0.2,0.1,0.4,0.1,0.6,0.1
		h0.3v0.2h-3.6v-0.2h0.3c0.3,0,0.6-0.1,0.7-0.3c0.1-0.1,0.1-0.5,0.1-1v-5.5c0-0.4,0-0.7-0.1-0.8c0-0.1-0.1-0.2-0.2-0.3
		c-0.2-0.1-0.4-0.1-0.6-0.1h-0.3v-0.2h6.2l0.1,1.9h-0.2c-0.1-0.4-0.2-0.7-0.4-0.9c-0.1-0.2-0.3-0.3-0.5-0.4c-0.2-0.1-0.5-0.1-1-0.1
		H334.7z"/>
</g>
<g>
	<path d="M267,115.6c0.7-0.1,1.3-0.1,1.7,0.1c0.6,0.2,1,0.7,1.3,1.3c0.2,0.5,0.2,1,0.1,1.5s-0.4,1-0.8,1.4c-0.4,0.4-1.2,0.8-2.2,1.2
		l-4.4,1.8l-0.1-0.3l0.3-0.1c0.4-0.2,0.6-0.4,0.7-0.7c0-0.2,0-0.6-0.3-1.1l-2.4-5.9c-0.2-0.6-0.4-0.9-0.6-1c-0.3-0.1-0.6-0.1-0.9,0
		l-0.3,0.1l-0.1-0.3l4-1.6c0.7-0.3,1.4-0.5,1.9-0.6c0.7-0.1,1.4,0,1.9,0.2c0.5,0.3,0.9,0.7,1.1,1.2c0.2,0.5,0.2,0.9,0.1,1.4
		C267.8,114.8,267.5,115.2,267,115.6z M263.3,116.7c0.2,0,0.4-0.1,0.6-0.2s0.5-0.2,0.7-0.3c0.7-0.3,1.1-0.5,1.4-0.8
		c0.3-0.3,0.4-0.6,0.5-1c0.1-0.4,0-0.7-0.1-1.1c-0.2-0.5-0.6-0.9-1.2-1.1c-0.6-0.2-1.3-0.1-2.2,0.2c-0.5,0.2-0.8,0.4-1.2,0.6
		L263.3,116.7z M265.1,121.1c0.6-0.1,1.1-0.2,1.6-0.5c0.8-0.3,1.4-0.8,1.7-1.3c0.3-0.5,0.3-1.1,0.1-1.6c-0.1-0.4-0.4-0.7-0.7-0.9
		c-0.3-0.3-0.8-0.4-1.3-0.4c-0.5,0-1.1,0.1-1.8,0.4c-0.3,0.1-0.5,0.2-0.7,0.3s-0.4,0.2-0.5,0.2L265.1,121.1z"/>
	<path d="M272.2,109.3l1,3.8l2.1-0.6c0.5-0.2,0.9-0.3,1-0.5c0.2-0.3,0.2-0.7,0.1-1.3l0.3-0.1l0.9,3.3l-0.3,0.1
		c-0.2-0.4-0.3-0.7-0.4-0.8c-0.1-0.1-0.3-0.2-0.5-0.3c-0.2,0-0.5,0-0.9,0.1l-2.1,0.6l0.9,3.2c0.1,0.4,0.2,0.7,0.3,0.8
		c0.1,0.1,0.1,0.1,0.3,0.2c0.1,0,0.3,0,0.6-0.1l1.6-0.4c0.5-0.1,0.9-0.3,1.2-0.4c0.2-0.1,0.4-0.4,0.6-0.6c0.2-0.4,0.4-0.9,0.5-1.6
		l0.3-0.1l-0.2,2.6l-7.4,2l-0.1-0.3l0.3-0.1c0.2-0.1,0.4-0.2,0.6-0.3c0.1-0.1,0.2-0.3,0.2-0.4s0-0.5-0.2-0.9l-1.7-6.2
		c-0.2-0.6-0.3-1-0.5-1.1c-0.2-0.1-0.5-0.2-0.9,0l-0.3,0.1l-0.1-0.3l7.4-2l0.7,2.1l-0.3,0.1c-0.2-0.5-0.4-0.8-0.6-0.9
		c-0.2-0.2-0.4-0.2-0.7-0.3c-0.2,0-0.6,0-1,0.2L272.2,109.3z"/>
	<path d="M288.5,112.8l0.2,0l-0.4,2.8l-7.7,1.2l0-0.3l0.4-0.1c0.4-0.1,0.7-0.2,0.8-0.5c0.1-0.2,0.1-0.5,0-1.1l-1-6.3
		c-0.1-0.6-0.2-1-0.4-1.1c-0.2-0.2-0.5-0.2-0.9-0.2l-0.4,0.1l0-0.3l4.5-0.7l0,0.3c-0.5,0.1-0.9,0.2-1.1,0.3s-0.3,0.3-0.4,0.5
		c-0.1,0.2,0,0.5,0.1,1.1l1,6.2c0.1,0.4,0.1,0.7,0.2,0.8c0.1,0.1,0.2,0.2,0.3,0.2c0.1,0,0.5,0,1.1-0.1l0.7-0.1
		c0.8-0.1,1.3-0.3,1.6-0.4c0.3-0.2,0.5-0.4,0.7-0.7C288.1,113.9,288.3,113.4,288.5,112.8z"/>
	<path d="M295.4,115.1l-4-8.3l0.1,6.6c0,0.6,0.1,1,0.2,1.1c0.2,0.2,0.5,0.3,0.9,0.3l0.4,0l0,0.3l-3.5,0.1l0-0.3l0.4,0
		c0.4,0,0.7-0.1,0.9-0.4c0.1-0.2,0.2-0.5,0.1-1.1l-0.1-6.5c0-0.4-0.1-0.8-0.2-0.9c-0.1-0.1-0.2-0.3-0.4-0.3
		c-0.2-0.1-0.5-0.1-0.9-0.1l0-0.3l2.8-0.1l3.8,7.7l3.4-7.8l2.8-0.1l0,0.3l-0.3,0c-0.4,0-0.7,0.1-0.9,0.4c-0.1,0.2-0.2,0.5-0.1,1.1
		l0.1,6.5c0,0.6,0.1,1,0.2,1.1c0.2,0.2,0.5,0.3,0.9,0.3l0.3,0l0,0.3l-4.2,0.1l0-0.3l0.4,0c0.4,0,0.7-0.1,0.9-0.4
		c0.1-0.2,0.2-0.5,0.1-1.1l-0.1-6.6l-3.7,8.4L295.4,115.1z"/>
	<path d="M309.1,105.7c1.3,0.2,2.3,0.8,3.2,1.9c0.8,1.1,1.1,2.4,1,3.8c-0.2,1.5-0.8,2.7-1.9,3.6s-2.3,1.2-3.6,1.1
		c-1.4-0.2-2.5-0.8-3.3-1.9s-1.1-2.4-0.9-3.9c0.2-1.6,0.9-2.8,2.1-3.6C306.6,105.8,307.8,105.5,309.1,105.7z M308.9,106.2
		c-0.9-0.1-1.6,0.1-2.3,0.7c-0.8,0.7-1.3,1.9-1.4,3.5c-0.2,1.6,0,2.9,0.6,3.8c0.5,0.7,1.1,1.1,2,1.2c0.9,0.1,1.7-0.2,2.4-0.8
		c0.7-0.6,1.1-1.7,1.3-3.3c0.2-1.7,0-3-0.5-3.9C310.5,106.7,309.8,106.3,308.9,106.2z"/>
	<path d="M317.1,112.7l-0.7,2.8c-0.1,0.6-0.2,1-0.1,1.2c0.1,0.3,0.4,0.4,0.7,0.5l0.4,0.1l-0.1,0.3l-4.2-1l0.1-0.3l0.4,0.1
		c0.4,0.1,0.7,0,1-0.2c0.1-0.1,0.3-0.5,0.4-1l1.5-6.2c0.1-0.6,0.2-1,0.1-1.2c-0.1-0.3-0.4-0.4-0.8-0.5l-0.4-0.1l0.1-0.3l3.6,0.9
		c0.9,0.2,1.5,0.5,2,0.8s0.8,0.7,1,1.2c0.2,0.5,0.3,1,0.1,1.6c-0.2,0.8-0.6,1.4-1.3,1.7s-1.4,0.4-2.4,0.2c-0.2-0.1-0.5-0.1-0.7-0.2
		S317.4,112.8,317.1,112.7z M317.2,112.2c0.2,0.1,0.5,0.2,0.6,0.3c0.2,0.1,0.4,0.1,0.5,0.2c0.5,0.1,1,0,1.4-0.3
		c0.5-0.3,0.8-0.7,0.9-1.4c0.1-0.4,0.1-0.8,0-1.2c-0.1-0.4-0.3-0.7-0.5-1c-0.3-0.3-0.6-0.4-1-0.5c-0.2-0.1-0.6-0.1-1-0.1
		L317.2,112.2z"/>
	<path d="M327.3,117.1l-3.6-1.3l-1.2,1.3c-0.3,0.3-0.5,0.6-0.5,0.7c-0.1,0.1,0,0.3,0.1,0.4c0.1,0.2,0.4,0.3,0.8,0.5l-0.1,0.3l-3-1.1
		l0.1-0.3c0.4,0.1,0.7,0.1,0.9,0c0.3-0.1,0.7-0.5,1.3-1.1l6-6.5l0.2,0.1l0.5,9c0,0.7,0.1,1.2,0.3,1.5c0.1,0.3,0.4,0.5,0.8,0.6
		l-0.1,0.3l-3.7-1.3l0.1-0.3c0.4,0.1,0.7,0.1,0.8,0.1c0.2-0.1,0.3-0.2,0.3-0.3c0.1-0.2,0.1-0.6,0.1-1.1L327.3,117.1z M327.3,116.5
		l-0.3-4.3l-3,3.2L327.3,116.5z"/>
	<path d="M334.1,112.6l2.4,1.2l2,9.4l2.6-5.1c0.3-0.5,0.4-0.9,0.3-1.1c-0.1-0.3-0.3-0.5-0.6-0.7l-0.3-0.2l0.1-0.2l3.1,1.6l-0.1,0.2
		l-0.3-0.2c-0.4-0.2-0.7-0.2-1-0.1c-0.2,0.1-0.4,0.4-0.6,0.9l-3.8,7.4l-0.2-0.1l-2.2-10.1l-2.8,5.4c-0.3,0.5-0.4,0.9-0.3,1.1
		c0.1,0.3,0.3,0.5,0.6,0.7l0.3,0.2l-0.1,0.2l-3.1-1.6l0.1-0.2l0.3,0.2c0.4,0.2,0.7,0.2,1,0.1c0.2-0.1,0.4-0.4,0.6-0.9l3.2-6.1
		c-0.1-0.4-0.2-0.7-0.3-0.9s-0.2-0.4-0.4-0.6c-0.1-0.1-0.3-0.2-0.5-0.4L334.1,112.6z"/>
</g>
<g>
	<path d="M259.9,183.5V175h1.6v8.5H259.9z"/>
	<path d="M263,183.5V175h1.5l3.1,5.7V175h1.4v8.5h-1.6l-3.1-5.5v5.5H263z"/>
	<path d="M275.7,180.4l1.5,0.5c-0.2,0.9-0.6,1.6-1.2,2.1s-1.2,0.7-2,0.7c-1,0-1.9-0.4-2.5-1.2s-1-1.8-1-3.2c0-1.4,0.3-2.5,1-3.3
		c0.7-0.8,1.5-1.2,2.6-1.2c0.9,0,1.7,0.3,2.3,0.9c0.3,0.4,0.6,0.9,0.8,1.6l-1.5,0.4c-0.1-0.4-0.3-0.8-0.6-1
		c-0.3-0.3-0.6-0.4-1.1-0.4c-0.6,0-1,0.2-1.4,0.7c-0.4,0.5-0.5,1.2-0.5,2.2c0,1.1,0.2,1.8,0.5,2.3c0.3,0.5,0.8,0.7,1.4,0.7
		c0.4,0,0.8-0.1,1.1-0.4C275.4,181.4,275.6,181,275.7,180.4z"/>
	<path d="M278.3,179.3c0-0.9,0.1-1.6,0.4-2.2c0.2-0.4,0.4-0.8,0.7-1.2s0.6-0.6,1-0.8c0.5-0.2,1-0.3,1.7-0.3c1.1,0,2,0.4,2.7,1.2
		c0.7,0.8,1,1.9,1,3.2c0,1.4-0.3,2.4-1,3.2c-0.7,0.8-1.6,1.2-2.7,1.2c-1.1,0-2.1-0.4-2.7-1.2S278.3,180.6,278.3,179.3z M279.9,179.2
		c0,1,0.2,1.7,0.6,2.2c0.4,0.5,0.9,0.7,1.5,0.7c0.6,0,1.1-0.2,1.5-0.7c0.4-0.5,0.6-1.2,0.6-2.2c0-1-0.2-1.7-0.6-2.2
		s-0.9-0.7-1.5-0.7c-0.6,0-1.2,0.2-1.5,0.7C280.1,177.5,279.9,178.3,279.9,179.2z"/>
	<path d="M287,183.5V175h3.3c0.8,0,1.4,0.1,1.8,0.2c0.4,0.2,0.7,0.4,0.9,0.8c0.2,0.4,0.3,0.8,0.3,1.3c0,0.6-0.2,1.2-0.5,1.6
		s-0.8,0.7-1.5,0.8c0.3,0.2,0.6,0.5,0.8,0.7c0.2,0.3,0.5,0.7,0.9,1.4l0.9,1.7h-1.9l-1.1-1.8c-0.4-0.7-0.7-1.1-0.8-1.2
		s-0.3-0.3-0.5-0.4c-0.2-0.1-0.4-0.1-0.8-0.1h-0.3v3.5H287z M288.6,178.6h1.1c0.7,0,1.2,0,1.4-0.1c0.2-0.1,0.3-0.2,0.4-0.4
		s0.2-0.4,0.2-0.6c0-0.3-0.1-0.5-0.2-0.7s-0.3-0.3-0.6-0.3c-0.1,0-0.5,0-1.1,0h-1.2V178.6z"/>
	<path d="M294.8,183.5V175h2.5c0.9,0,1.6,0,1.8,0.1c0.4,0.1,0.8,0.4,1.1,0.8c0.3,0.4,0.4,1,0.4,1.6c0,0.5-0.1,1-0.3,1.3
		c-0.2,0.4-0.4,0.6-0.7,0.8c-0.3,0.2-0.5,0.3-0.8,0.4c-0.4,0.1-0.9,0.1-1.6,0.1h-1v3.2H294.8z M296.4,176.4v2.4h0.9
		c0.6,0,1,0,1.2-0.1c0.2-0.1,0.4-0.2,0.5-0.4c0.1-0.2,0.2-0.4,0.2-0.7c0-0.3-0.1-0.6-0.2-0.8c-0.2-0.2-0.4-0.3-0.6-0.4
		c-0.2,0-0.6-0.1-1.1-0.1H296.4z"/>
	<path d="M301.7,179.3c0-0.9,0.1-1.6,0.4-2.2c0.2-0.4,0.4-0.8,0.7-1.2s0.6-0.6,1-0.8c0.5-0.2,1-0.3,1.7-0.3c1.1,0,2,0.4,2.7,1.2
		c0.7,0.8,1,1.9,1,3.2c0,1.4-0.3,2.4-1,3.2c-0.7,0.8-1.6,1.2-2.7,1.2c-1.1,0-2.1-0.4-2.7-1.2S301.7,180.6,301.7,179.3z M303.3,179.2
		c0,1,0.2,1.7,0.6,2.2c0.4,0.5,0.9,0.7,1.5,0.7c0.6,0,1.1-0.2,1.5-0.7c0.4-0.5,0.6-1.2,0.6-2.2c0-1-0.2-1.7-0.6-2.2
		s-0.9-0.7-1.5-0.7c-0.6,0-1.2,0.2-1.5,0.7C303.5,177.5,303.3,178.3,303.3,179.2z"/>
	<path d="M310.5,183.5V175h3.3c0.8,0,1.4,0.1,1.8,0.2c0.4,0.2,0.7,0.4,0.9,0.8c0.2,0.4,0.3,0.8,0.3,1.3c0,0.6-0.2,1.2-0.5,1.6
		s-0.8,0.7-1.5,0.8c0.3,0.2,0.6,0.5,0.8,0.7c0.2,0.3,0.5,0.7,0.9,1.4l0.9,1.7h-1.9l-1.1-1.8c-0.4-0.7-0.7-1.1-0.8-1.2
		s-0.3-0.3-0.5-0.4c-0.2-0.1-0.4-0.1-0.8-0.1H312v3.5H310.5z M312,178.6h1.1c0.7,0,1.2,0,1.4-0.1c0.2-0.1,0.3-0.2,0.4-0.4
		s0.2-0.4,0.2-0.6c0-0.3-0.1-0.5-0.2-0.7s-0.3-0.3-0.6-0.3c-0.1,0-0.5,0-1.1,0H312V178.6z"/>
	<path d="M325.2,183.5h-1.7l-0.7-1.9h-3.1l-0.6,1.9h-1.6l3-8.5h1.6L325.2,183.5z M322.4,180.1l-1.1-3.1l-1,3.1H322.4z"/>
	<path d="M327,183.5v-7h-2.3V175h6.1v1.4h-2.3v7H327z"/>
	<path d="M331.9,183.5V175h5.7v1.4h-4.2v1.9h3.9v1.4h-3.9v2.3h4.3v1.4H331.9z"/>
	<path d="M339.1,175h2.8c0.6,0,1.1,0.1,1.5,0.2c0.5,0.1,0.8,0.4,1.2,0.8c0.3,0.4,0.6,0.8,0.7,1.4s0.3,1.2,0.3,2
		c0,0.7-0.1,1.3-0.2,1.8c-0.2,0.6-0.5,1.1-0.8,1.5c-0.3,0.3-0.6,0.5-1.1,0.7c-0.3,0.1-0.8,0.2-1.4,0.2h-2.9V175z M340.7,176.4v5.6
		h1.2c0.4,0,0.7,0,0.9-0.1c0.3-0.1,0.5-0.2,0.6-0.4s0.3-0.4,0.4-0.8c0.1-0.4,0.2-0.9,0.2-1.6s-0.1-1.2-0.2-1.5
		c-0.1-0.4-0.3-0.6-0.4-0.8c-0.2-0.2-0.4-0.3-0.7-0.4c-0.2-0.1-0.6-0.1-1.3-0.1H340.7z"/>
</g>
<g>
	<path d="M284.3,195.8v1.5h-6c0.1-0.6,0.3-1.1,0.6-1.6c0.3-0.5,1-1.2,1.9-2c0.8-0.7,1.3-1.1,1.4-1.4c0.2-0.3,0.4-0.7,0.4-1
		c0-0.4-0.1-0.6-0.3-0.8c-0.2-0.2-0.5-0.3-0.9-0.3c-0.4,0-0.6,0.1-0.9,0.3c-0.2,0.2-0.3,0.5-0.4,1l-1.7-0.2c0.1-0.9,0.4-1.5,1-1.9
		c0.5-0.4,1.2-0.6,2-0.6c0.9,0,1.6,0.2,2.1,0.7c0.5,0.5,0.8,1,0.8,1.7c0,0.4-0.1,0.7-0.2,1.1c-0.1,0.3-0.4,0.7-0.7,1.1
		c-0.2,0.3-0.6,0.6-1.1,1.1c-0.5,0.5-0.9,0.8-1,0.9c-0.1,0.2-0.3,0.3-0.4,0.5H284.3z"/>
	<path d="M288.4,188.8c0.9,0,1.6,0.3,2,0.9c0.6,0.7,0.9,1.8,0.9,3.4c0,1.6-0.3,2.8-0.9,3.5c-0.5,0.6-1.2,0.9-2,0.9
		c-0.9,0-1.6-0.3-2.1-1c-0.5-0.6-0.8-1.8-0.8-3.4c0-1.6,0.3-2.7,0.9-3.4C286.9,189.1,287.6,188.8,288.4,188.8z M288.4,190.2
		c-0.2,0-0.4,0.1-0.6,0.2c-0.2,0.1-0.3,0.3-0.4,0.7c-0.1,0.4-0.2,1.1-0.2,2.1c0,1,0.1,1.7,0.2,2c0.1,0.4,0.2,0.6,0.4,0.7
		c0.2,0.1,0.3,0.2,0.6,0.2s0.4-0.1,0.6-0.2c0.2-0.1,0.3-0.3,0.4-0.7c0.1-0.4,0.2-1.1,0.2-2.1c0-1-0.1-1.7-0.2-2
		c-0.1-0.4-0.2-0.6-0.4-0.7C288.8,190.2,288.6,190.2,288.4,190.2z"/>
	<path d="M295.5,188.8c0.9,0,1.6,0.3,2,0.9c0.6,0.7,0.9,1.8,0.9,3.4c0,1.6-0.3,2.8-0.9,3.5c-0.5,0.6-1.2,0.9-2,0.9
		c-0.9,0-1.6-0.3-2.1-1c-0.5-0.6-0.8-1.8-0.8-3.4c0-1.6,0.3-2.7,0.9-3.4C293.9,189.1,294.6,188.8,295.5,188.8z M295.5,190.2
		c-0.2,0-0.4,0.1-0.6,0.2c-0.2,0.1-0.3,0.3-0.4,0.7c-0.1,0.4-0.2,1.1-0.2,2.1c0,1,0.1,1.7,0.2,2c0.1,0.4,0.2,0.6,0.4,0.7
		c0.2,0.1,0.3,0.2,0.6,0.2s0.4-0.1,0.6-0.2c0.2-0.1,0.3-0.3,0.4-0.7c0.1-0.4,0.2-1.1,0.2-2.1c0-1-0.1-1.7-0.2-2
		c-0.1-0.4-0.2-0.6-0.4-0.7C295.9,190.2,295.7,190.2,295.5,190.2z"/>
	<path d="M302.5,188.8c0.9,0,1.6,0.3,2,0.9c0.6,0.7,0.9,1.8,0.9,3.4c0,1.6-0.3,2.8-0.9,3.5c-0.5,0.6-1.2,0.9-2,0.9
		c-0.9,0-1.6-0.3-2.1-1c-0.5-0.6-0.8-1.8-0.8-3.4c0-1.6,0.3-2.7,0.9-3.4C301,189.1,301.7,188.8,302.5,188.8z M302.5,190.2
		c-0.2,0-0.4,0.1-0.6,0.2c-0.2,0.1-0.3,0.3-0.4,0.7c-0.1,0.4-0.2,1.1-0.2,2.1c0,1,0.1,1.7,0.2,2c0.1,0.4,0.2,0.6,0.4,0.7
		c0.2,0.1,0.3,0.2,0.6,0.2s0.4-0.1,0.6-0.2c0.2-0.1,0.3-0.3,0.4-0.7c0.1-0.4,0.2-1.1,0.2-2.1c0-1-0.1-1.7-0.2-2
		c-0.1-0.4-0.2-0.6-0.4-0.7C302.9,190.2,302.7,190.2,302.5,190.2z"/>
	<path d="M318.2,197.3h-2l-0.8-1.9h-3.6l-0.7,1.9h-1.9l3.5-8.5h1.9L318.2,197.3z M314.9,194l-1.2-3.1l-1.2,3.1H314.9z"/>
	<path d="M319.2,188.8h3.3c0.7,0,1.3,0.1,1.7,0.2c0.5,0.1,1,0.4,1.4,0.8c0.4,0.4,0.7,0.8,0.9,1.4c0.2,0.5,0.3,1.2,0.3,2
		c0,0.7-0.1,1.3-0.3,1.8c-0.2,0.6-0.5,1.1-1,1.5c-0.3,0.3-0.7,0.5-1.3,0.7c-0.4,0.1-0.9,0.2-1.6,0.2h-3.4V188.8z M321.1,190.3v5.6
		h1.4c0.5,0,0.9,0,1.1-0.1c0.3-0.1,0.5-0.2,0.7-0.4c0.2-0.2,0.4-0.4,0.5-0.8s0.2-0.9,0.2-1.6s-0.1-1.2-0.2-1.5s-0.3-0.6-0.5-0.8
		c-0.2-0.2-0.5-0.3-0.8-0.4c-0.3-0.1-0.8-0.1-1.5-0.1H321.1z"/>
</g>
</svg>
