<?xml version="1.0" encoding="UTF-8"?>
<!-- Created with Inkscape (http://www.inkscape.org/) -->
<svg id="svg1" width="500" height="300" version="1.1" viewBox="0 0 500 300" xml:space="preserve" xmlns="http://www.w3.org/2000/svg"><g id="g1" transform="translate(807.207 1941.14)"><rect id="rect9282" x="-707.207" y="-1941.14" width="400" height="300" style="fill-rule:evenodd;fill:#ffffff;stroke-width:9.09203"/><g id="g9541" transform="translate(18.8541,-301.279)" style="fill:#d5ac25"><path id="path9503" d="m-524.184-1527.91c0-13.398 0.08-28.169 0.177-32.826l0.177-8.467 4.717 2.357c7.799 3.896 13.612 6.258 20.4381 8.307 11.0805 3.327 18.9482 4.023 31.7459 2.81 6.0196-0.57 5.2829-0.888 6.1113 2.634 2.819 11.986 4.1528 28.048 3.4351 41.366-0.1669 3.098-0.3773 6.205-0.4676 6.906l-0.1641 1.273h-66.1697z" style="fill:#d5ac25;stroke-width:.201129"/><path id="path9500" d="m-593.74-1504.02c-0.62-2.149-0.768-23.267-0.205-29.164 0.993-10.387 3.213-22.802 4.075-22.788 2.183 0.04 9.62 0.459 12.052 0.684 3.502 0.322 10.087 0 14.079-0.688 9.61-1.658 19.751-5.179 30.907-10.729l5.43-2.702v65.856h-33.101c-31.295 0-33.109-0.02-33.237-0.469z" style="fill:#d5ac25;stroke-width:.201129"/><path id="path9485" d="m-531.559-1405.76c-4.431-2.597-11.043-7.369-17.565-12.676-5.663-4.608-6.516-5.419-13.073-12.433-6.142-6.57-10.429-12.06-12.805-16.395-0.959-1.75-2.533-4.622-3.497-6.381-7.043-12.852-11.858-27.175-14.204-42.256-0.368-2.36-0.668-4.562-0.669-4.895v-0.604l65.837 0.14 0.07 48.874c0.04 26.881-0.02 48.865-0.134 48.853-0.111-0.01-1.891-1.012-3.956-2.223z" style="fill:#d5ac25;stroke-width:.201129"/><path id="path9467" d="m-524.585-1447.4c0.08-24.319 0.218-46.419 0.303-49.111l0.156-4.894h32.9565c18.1259 0 32.9544 0.09 32.9521 0.201 0 0.11-0.2951 2.132-0.6509 4.492-2.0533 13.618-6.2399 27.082-11.9991 38.587-2.5889 5.171-7.8782 14.444-10.1039 17.713-0.9704 1.425-10.0564 11.214-15.3226 16.508-5.0007 5.027-16.0921 13.419-23.3301 17.654-2.139 1.251-4.164 2.453-4.499 2.671l-0.61 0.395z" style="fill:#d5ac25;stroke-width:.201129"/></g><path id="path9281" d="m-508.682-1691.98c-4.79-2.946-12.301-8.213-13.945-9.776-0.295-0.281-2.407-1.906-4.693-3.612-13.765-10.271-25.037-20.952-32.02-30.341-14.17-19.055-23.896-42.801-26.699-65.183-1.159-9.253-1.441-14.559-1.277-23.98 0.231-13.256 1.559-23.891 4.405-35.276l0.992-3.969-0.926-1.662c-0.852-1.53-0.925-1.842-0.925-3.941 0-2.023 0.09-2.441 0.791-3.707 0.887-1.602 2.178-2.74 4.049-3.567 1.725-0.764 4.538-0.629 6.39 0.306 4.837 2.442 5.734 9.124 1.711 12.741-0.734 0.66-1.441 1.199-1.573 1.199s-0.239 0.162-0.239 0.359c0 1.181 12.479 1.48 19.442 0.466 5.104-0.743 8.244-1.414 8.367-1.787 0.05-0.16-0.444-0.633-1.105-1.051-2.509-1.585-3.933-4.868-3.389-7.812 0.484-2.62 1.891-4.471 4.41-5.802 1.655-0.874 4.918-0.84 6.7 0.07 3.857 1.969 5.389 6.283 3.664 10.308-0.66 1.54-0.656 1.651 0.06 1.535 2.93-0.471 19.674-7.356 22.677-9.324l0.627-0.411-1.376-1.319c-1.847-1.771-2.54-3.342-2.537-5.747 0-4.693 3.717-8.212 8.271-7.847 4.175 0.335 7.113 3.447 7.126 7.548 0 2.723-0.415 3.81-2.201 5.652-1.229 1.267-1.48 1.665-1.213 1.921 1.274 1.222 20.4712 9.217 21.1399 8.803 0.1203-0.07 0.028-0.645-0.2062-1.267-0.2337-0.624-0.4309-1.978-0.4382-3.011-0.016-2.255 0.7742-4.039 2.4641-5.566 1.8238-1.648 2.5903-1.937 5.1321-1.94 1.8541 0 2.5184 0.115 3.5597 0.628 2.3837 1.174 3.951 3.426 4.361 6.266 0.3691 2.556-0.956 5.567-3.1058 7.057-0.5944 0.412-0.9857 0.841-0.8695 0.954 0.813 0.789 9.5788 2.28 15.5849 2.65 4.1779 0.258 10.875 0.04 11.5463-0.375 0.1394-0.09-0.439-0.85-1.2853-1.697-1.7383-1.74-2.4377-3.336-2.4377-5.563 0-3.002 1.8831-5.909 4.6181-7.129 1.7335-0.772 4.6065-0.837 6.194-0.138 1.5102 0.665 3.3955 2.523 4.1095 4.049 0.7593 1.623 0.8561 4.391 0.21 6.006-0.4064 1.016-0.391 1.165 0.4113 3.961 1.4544 5.069 3.1355 13.97 4.0179 21.275 0.9567 7.92 1.345 20.996 0.8241 27.756-0.3684 4.783-1.0269 11.411-1.4652 14.749-0.213 1.623-0.4575 3.578-0.5433 4.346-0.086 0.768-0.3398 1.914-0.5645 2.548-0.2248 0.633-0.7681 2.957-1.2075 5.163-0.9209 4.623-1.6362 7.081-3.5911 12.341-3.786 10.185-8.8946 20.415-15.3118 30.661-4.779 7.631-8.3972 12.306-13.918 17.984-4.5573 4.687-15.3273 14.275-19.3658 17.241-1.875 1.377-3.778 2.866-4.228 3.309-0.45 0.442-1.501 1.287-2.336 1.877s-2.766 2.051-4.291 3.247c-2.75 2.157-6.508 4.78-9.343 6.521-1.78 1.094-3.692 2.172-3.806 2.147-0.05-0.01-0.685-0.39-1.423-0.844zm6.502-8.15c7.068-4.374 16.251-10.797 21.9243-15.332 3.8449-3.074 6.5235-5.573 13.1634-12.281 7.799-7.877 8.4547-8.615 10.173-11.441 1.0102-1.661 2.7614-4.408 3.8916-6.104 10.7445-16.126 17.8201-35.091 20.6108-55.244 1.744-12.594 1.8914-27.164 0.4068-40.226-0.7146-6.286-2.9018-18.168-3.4443-18.711-0.092-0.09-1.5213 0.157-3.176 0.554-3.8339 0.92-4.1227 0.955-10.3832 1.248-6.0853 0.285-9.8415 0.06-15.646-0.943-11.8709-2.049-25.9864-6.841-38.2564-12.987-2.061-1.033-3.992-1.878-4.291-1.878s-2.081 0.769-3.959 1.71c-13.137 6.574-27.643 11.399-40.491 13.467-3.702 0.596-5.033 0.679-10.777 0.673-6.924 0-9.01-0.205-13.206-1.255-1.428-0.357-2.78-0.65-3.004-0.65-0.495 0-0.734 0.797-1.772 5.9-1.052 5.176-2.3 14.116-2.733 19.577-0.448 5.644-0.44 18.782 0.01 24.001 2.189 25.178 9.596 47.051 22.158 65.438 1.211 1.772 2.404 3.612 2.651 4.09 0.445 0.861 4.768 6.199 7.108 8.778 3.571 3.935 13.472 13.508 16.263 15.725 5.338 4.239 10.008 7.692 13.401 9.909 3.296 2.154 14.161 9.066 14.279 9.085 0.04 0 2.328-1.391 5.095-3.103zm-3.551-48.542c0.08-24.319 0.218-46.419 0.303-49.111l0.156-4.894h32.9565c18.1259 0 32.9544 0.09 32.9521 0.201 0 0.11-0.2951 2.132-0.6509 4.492-2.0533 13.618-6.2399 27.082-11.9991 38.587-2.5889 5.171-7.8782 14.444-10.1039 17.713-0.9704 1.425-10.0564 11.214-15.3226 16.508-5.0007 5.027-16.0921 13.419-23.3301 17.654-2.139 1.251-4.164 2.453-4.499 2.671l-0.61 0.395zm37.2268 0.811c1.508-0.514 2.0349-1.084 0.6851-0.741-0.4978 0.126-1.9912 0.224-3.3187 0.218-3.8657-0.02-5.1817-0.709-14.3922-7.537-5.586-4.141-6.887-4.856-8.22-4.522-0.637 0.16-0.57 0.225 0.808 0.785 1.764 0.717 1.787 0.734 7.264 5.476 6.5095 5.636 8.6308 6.705 13.3527 6.733 1.6815 0.01 2.9995-0.132 3.8211-0.412zm3.2621-2.935c6.7122-1.748 10.891-9.201 7.4514-13.289-1.8878-2.243-5.7301-2.087-7.9999 0.325l-0.7883 0.837 0.8583-0.435c1.7199-0.871 3.2228-0.46 4.9449 1.354 1.306 1.375 1.8398 2.507 1.8398 3.902 0 1.553-0.9543 2.921-2.6049 3.734-1.1229 0.553-1.6698 0.632-4.3676 0.632-2.5419 0-3.414-0.112-4.9612-0.637-3.8165-1.296-6.8913-3.103-11.2633-6.619-2.5931-2.085-4.3841-3.217-6.3021-3.984-2.737-1.095-6.124-1-8.569 0.239-2.581 1.308-5.119 5.017-5.102 7.458 0 0.952 0.844 2.986 1.551 3.768 1.568 1.734 5.666 2.242 8.179 1.014 0.708-0.347 1.23-0.687 1.16-0.757s-0.771 0.02-1.557 0.193c-3.69 0.825-6.904-1.878-6.919-5.82 0-2.239 0.314-2.971 1.534-3.483 1.495-0.626 4.973-0.615 6.625 0.02 0.749 0.289 3.671 2.276 6.705 4.559 2.9581 2.226 6.102 4.427 6.9866 4.892 4.2236 2.217 9.0494 3.02 12.5993 2.095zm-3.618-5.738c-1.4775-0.449-2.5729-1.25-6.4981-4.75-6.4445-5.747-8.2898-6.975-11.6668-7.767-2.396-0.562-5.417-0.395-7.042 0.39-0.663 0.32-0.905 0.515-0.536 0.431 5.165-1.166 9.455 0.498 16.6025 6.442 2.9257 2.433 6.5162 4.95 7.4681 5.237 0.4045 0.122 1.0975 0.222 1.54 0.222 0.7782 0 0.7825 0 0.1323-0.205zm-0.1277-4.74c0.6906-0.906 0.729-1.094 0.59-2.883-0.1937-2.493-0.3515-2.853-1.2511-2.853-0.4033 0-1.3256-0.18-2.0497-0.4-1.2049-0.365-1.3449-0.361-1.6529 0.05-0.467 0.628-0.1806 1.372 1.0108 2.626 0.9209 0.97 1.8733 3.019 1.8733 4.032 0 0.699 0.7219 0.418 1.4796-0.575zm-6.4189-5.75c0.4894-0.302 1.1299-0.938 1.4233-1.413 0.2935-0.475 1.6879-1.695 3.0986-2.712 1.4106-1.017 2.5342-1.876 2.4968-1.911-0.1634-0.149-11.0114 2.054-11.8625 2.41-0.8169 0.341-0.9438 0.517-0.9438 1.305 0 1.151 0.5948 1.681 2.1454 1.913 0.6637 0.1 1.5085 0.351 1.8772 0.56 0.8497 0.48 0.7245 0.491 1.765-0.152zm7.6749-1.628c3.2207-0.681 8.0479-3.656 8.9407-5.51 0.6518-1.354 0.9219-5.989 0.3491-5.989-0.5948 0-1.5345 0.769-1.9708 1.613-0.4176 0.807-5.0644 4.5-9.6047 7.633-1.4488 1-2.5349 1.911-2.4136 2.026 0.5776 0.544 2.7124 0.647 4.6993 0.227zm-13.9988-1.141c0-1.041 0.3037-1.365 1.5908-1.697 0.5062-0.131 0.9608-0.359 1.0103-0.508 0.1156-0.347-4.3605-5.22-5.2385-5.703-0.43-0.237-1.073-0.31-1.822-0.207-1.74 0.238-7.748 2.259-8.46 2.845l-0.623 0.513 0.862 0.872c0.711 0.72 1.856 1.21 6.57 2.813 3.139 1.067 5.7986 1.949 5.9093 1.959 0.1106 0.01 0.2011-0.389 0.2011-0.887zm4.2018-2.476c0.5602-0.15 0.5387-0.222-0.588-1.964-1.7706-2.737-2.1486-3.844-1.758-5.148 0.4711-1.572 2.1829-3.183 3.382-3.183 1.0479 0 1.4001-0.463 0.9675-1.272-0.2048-0.382-1.4492-0.813-5.0223-1.74-2.6124-0.677-4.9124-1.169-5.1114-1.092-0.552 0.211-0.44 1.718 0.357 4.792l0.718 2.774 3.0575 3.498c1.6814 1.924 3.1379 3.497 3.2366 3.495 0.099 0 0.4413-0.07 0.7611-0.16zm5.4633-1.045c1.9629-0.37 3.6083-0.712 3.6564-0.761 0.1657-0.165 0.604-7.768 0.4612-7.999-0.2971-0.48-0.5858 0.09-0.7626 1.504-0.1006 0.805-0.412 1.755-0.6919 2.111-1.0457 1.33-5.3446 2.541-7.8449 2.211l-1.2824-0.169 0.9505 1.888c0.6634 1.317 1.1008 1.887 1.4478 1.887 0.2734 0 2.1031-0.303 4.0659-0.672zm8.2111-3.249c1.646-1.214 3.0711-2.455 3.1669-2.757 0.096-0.302 0.5197-0.795 0.942-1.095 0.4223-0.301 0.9605-1.058 1.1961-1.683 0.4982-1.322 1.245-4.772 1.088-5.026-0.1297-0.21-3.5012 0.153-5.363 0.576-2.5649 0.584-6.0339 2.474-6.0339 3.286 0 0.172 0.3565 0.447 0.7923 0.611l0.7923 0.299-0.1651 4.227c-0.1406 3.598-0.1088 4.193 0.2133 3.999 0.2082-0.126 1.7252-1.222 3.3711-2.437zm-10.7195-0.266c0.5015-0.135 0.5496-0.255 0.3317-0.828-0.1401-0.369-0.4473-0.93-0.6825-1.247-0.4231-0.57-0.4259-0.568-0.2595 0.161 0.1628 0.714 0.1323 0.738-0.9564 0.738h-1.1246l0.6299 0.67c0.6448 0.686 1.033 0.782 2.0614 0.506zm1.2637-2.034c-0.2004-1.182-0.3431-1.436-0.8445-1.507-0.7407-0.106-0.7555 0.269-0.067 1.694 0.285 0.59 0.5223 1.248 0.5273 1.462 0.01 0.293 0.085 0.313 0.3172 0.08 0.2177-0.217 0.2374-0.725 0.067-1.729zm2.206-0.917c0.3334-1.155 0.5733-2.133 0.5332-2.173-0.2648-0.265-1.3331 1.443-1.6518 2.64-0.5116 1.923-0.5025 2.202 0.061 1.886 0.2554-0.143 0.7142-1.164 1.0573-2.353zm-5.5311 1.091c0-0.08-0.1889-0.513-0.4197-0.959-0.3816-0.738-0.381-0.871 0.01-1.462 0.397-0.606 0.3927-0.65-0.063-0.65-1.1102 0-1.5141 1.481-0.7151 2.622 0.3701 0.529 1.1916 0.838 1.1916 0.449zm0.9074-0.552c-0.1065-0.424-0.052-0.776 0.1393-0.894 0.227-0.14 0.239-0.394 0.043-0.91-0.3513-0.924-0.6777-0.905-1.0783 0.06-0.265 0.64-0.2458 0.924 0.1084 1.609 0.5262 1.018 1.031 1.103 0.7876 0.133zm3.3321-1.704c0.3018-1.24 0.088-1.888-0.6222-1.888-0.448 0-0.7953 1.857-0.418 2.234 0.1578 0.158 0.2869 0.529 0.2869 0.824 0 0.834 0.427 0.171 0.7533-1.17zm2.3028-3.403c0.4781 0.317 0.7721 0.213 2.6814-0.946 1.1793-0.717 2.6336-1.443 3.2316-1.614 0.5981-0.172 1.1265-0.339 1.1742-0.373 0.1575-0.11-0.8093-1.842-1.3717-2.457-1.0883-1.19-3.838-0.561-6.2738 1.434-0.9728 0.798-3.5705 4.045-3.5705 4.464 0 0.07 0.8082-0.09 1.7959-0.367 1.5194-0.421 1.8786-0.443 2.3329-0.141zm-42.612 77.309c-4.431-2.597-11.043-7.369-17.565-12.676-5.663-4.608-6.516-5.419-13.073-12.433-6.142-6.57-10.429-12.06-12.805-16.395-0.959-1.75-2.533-4.622-3.497-6.381-7.043-12.852-11.858-27.175-14.204-42.256-0.368-2.36-0.668-4.562-0.669-4.895v-0.604l65.837 0.14 0.07 48.874c0.04 26.881-0.02 48.865-0.134 48.853-0.111-0.01-1.891-1.012-3.956-2.223zm-15.333-31.312c0.104-0.395 0.285-0.519 0.59-0.402 0.242 0.09 0.656 0.02 0.921-0.168 0.45-0.316 0.404-0.474-0.714-2.443l-1.196-2.105 0.894-0.748c0.491-0.412 1.338-0.808 1.881-0.882 0.543-0.07 1.533-0.406 2.201-0.74 0.992-0.495 1.288-0.544 1.619-0.27 0.332 0.275 0.532 0.237 1.101-0.211 0.383-0.301 0.848-0.489 1.033-0.418 0.345 0.132 0.97-0.936 0.97-1.658 0-0.629 1.123-1.988 1.644-1.988 0.26 0 0.629 0.329 0.822 0.73 0.351 0.734 0.873 0.894 0.888 0.274 0-0.183 0.107-0.61 0.227-0.949 0.135-0.383 0.101-0.757-0.09-0.987-0.241-0.291-0.188-0.436 0.246-0.667 0.304-0.163 0.553-0.46 0.553-0.661 0-0.507-0.744-0.74-1.342-0.42-0.67 0.358-0.803 0.338-0.803-0.126 0-0.544 0.996-1.025 1.737-0.839 0.37 0.09 0.741 0 0.931-0.227 0.484-0.583-0.526-1.042-1.487-0.677-0.462 0.176-0.826 0.185-0.987 0.02-0.384-0.384 0.02-0.838 0.751-0.838 0.548 0 1.2-0.646 1.2-1.189 0-0.08-0.48-0.152-1.066-0.152-1.394 0-1.634 0.386-2.851 4.579-0.983 3.39-1.477 4.347-1.983 3.842-0.184-0.184 0.12-1.461 0.937-3.946 0.665-2.02 1.206-3.884 1.203-4.141-0.01-1.054-0.998-2.626-1.975-3.152-1.074-0.578-1.393-1.298-1.138-2.57 0.107-0.537 0.01-1.042-0.289-1.498-0.423-0.645-0.422-0.709 0-1.02 0.249-0.183 0.454-0.473 0.454-0.645 0-0.863-3.481-1.143-4.479-0.36-0.324 0.255-1.183 1.731-1.908 3.279-0.724 1.549-1.75 3.453-2.279 4.231-0.891 1.312-0.983 1.376-1.253 0.872-0.248-0.464-0.557-0.544-2.102-0.544-3.338 0-6.215-1.143-6.215-2.471 0-0.275 0.244-0.978 0.542-1.562 0.561-1.099 0.478-1.327-0.252-0.698-0.233 0.201-2.139 1.52-4.236 2.933-3.918 2.639-5.08 3.103-7.049 2.814-0.894-0.131-0.913-0.111-0.544 0.579 0.392 0.732 2.242 1.357 3.969 1.341 1.598-0.01 4.935-0.817 7.704-1.854 2.863-1.072 6.262-0.338 7.688 1.661 0.56 0.786 0.626 1.173 0.626 3.694 0 2.488-0.07 2.933-0.63 3.828-0.752 1.209-0.632 1.658 0.603 2.246 0.584 0.279 0.992 0.701 1.101 1.14 0.1 0.383 0.329 0.878 0.519 1.099 0.548 0.64 0.72 2.052 0.292 2.407-0.284 0.235-0.559 0.211-1.162-0.1-0.434-0.225-0.852-0.346-0.929-0.269-0.26 0.261 0.679 1.785 1.181 1.916 0.342 0.09 0.5 0.376 0.5 0.904 0 0.636 0.113 0.773 0.639 0.773 0.426 0 0.689-0.189 0.788-0.571zm3.777-26.555c-0.105-0.17 0.03-0.472 0.307-0.673 0.421-0.308 0.557-0.305 0.877 0.01 0.209 0.209 0.298 0.512 0.198 0.673-0.239 0.387-1.14 0.378-1.382-0.01zm-12.624 21.98c1.861-1.356 3.337-2.512 3.28-2.568-0.222-0.223-8.196 4.017-8.196 4.357 0 0.385 0.394 0.62 1.101 0.654 0.237 0.01 1.953-1.087 3.815-2.443zm-2.623-0.378c1.452-0.679 3.299-1.525 4.103-1.881 0.805-0.356 1.395-0.715 1.312-0.797-0.165-0.166-7.823 1.691-8.58 2.08-0.781 0.402-0.471 1.54 0.497 1.824 0.02 0 1.216-0.548 2.668-1.226zm1.997-2.98c5.09-1.154 5.001-1.337-0.67-1.382-3.566-0.03-4.483 0.168-5.053 1.081-0.332 0.531 0.175 1.295 0.862 1.3 0.24 0 2.428-0.448 4.861-0.999zm0.674-3.563c0.198 0 0.821-0.434 1.383-0.964 1.141-1.076 1.768-0.993 1.917 0.253 0.09 0.781 0.734 0.937 1.707 0.416 0.497-0.266 0.533-0.452 0.366-1.927-0.21-1.859-0.71-2.994-1.505-3.419-0.729-0.39-3.199 0.423-6.955 2.289-1.549 0.77-3.29 1.553-3.868 1.741-0.978 0.318-1.017 0.369-0.553 0.708 0.77 0.563 2.526 0.432 4.112-0.306 1.61-0.75 1.998-0.68 1.749 0.315-0.185 0.735 0.291 1.259 0.928 1.025 0.197-0.07 0.52-0.131 0.719-0.131zm-8.048-2.173c0.59-0.161 3.157-1.186 5.704-2.278 2.548-1.092 4.78-1.987 4.962-1.989 0.211 0 0.185-0.1-0.07-0.265-0.725-0.468-2.572-0.282-5.19 0.524-3.146 0.969-5.747 1.518-8.87 1.873-1.305 0.148-2.44 0.337-2.522 0.419-0.269 0.269 0.92 1.233 1.991 1.614 1.279 0.456 2.577 0.489 3.998 0.102zm-2.816-6.674c0.516-0.252 2.568-1.458 4.559-2.68s4.706-2.746 6.034-3.387c2.698-1.303 2.46-1.453-1.251-0.791-2.069 0.369-2.957 0.752-7.867 3.398l-2.682 1.446h-5.414l0.548 0.741c1.449 1.959 3.701 2.432 6.073 1.273zm-1.54-3.054c0.675-0.203 2.139-0.938 3.254-1.632 1.115-0.695 2.811-1.538 3.77-1.873s1.666-0.686 1.571-0.781c-0.262-0.262-3.02-0.192-4.328 0.109-0.639 0.147-2.235 0.687-3.548 1.2-2.854 1.116-4.672 1.228-6.053 0.374-0.833-0.514-0.889-0.519-0.725-0.07 0.387 1.072 1.297 2.053 2.343 2.528 1.322 0.601 2.094 0.63 3.716 0.142zm30.851-2.385c0.869-0.322 0.959-0.426 0.614-0.713-0.649-0.538-2.363-0.652-2.97-0.198-0.528 0.395-0.528 0.404-0.01 0.976 0.287 0.317 0.708 0.517 0.935 0.444 0.227-0.07 0.871-0.302 1.432-0.509zm-30.213-1.391c1.096-0.767 4.428-1.486 6.93-1.495 1.941 0 2.315-0.07 1.893-0.313-0.315-0.183-2.85-0.388-6.302-0.51-5.886-0.209-8.79-0.693-10.392-1.733-0.985-0.639-1.189-0.442-0.642 0.62 0.772 1.499 2.23 2.759 3.832 3.312 1.731 0.598 3.918 0.653 4.681 0.119zm12.38-1.81c0.05-0.286-0.384-0.795-1.204-1.392-1.465-1.069-12.379-6.556-16.882-8.488-4.863-2.087-7.824-4.263-9.064-6.661-0.238-0.459-0.506-0.835-0.597-0.835-0.423 0 0.183 3.246 0.855 4.576 0.847 1.676 3.586 4.482 5.815 5.956 0.842 0.557 1.608 1.138 1.702 1.292 0.3 0.484-1.78-0.01-3.494-0.834-0.881-0.422-1.645-0.725-1.697-0.673-0.27 0.27 2.125 2.431 3.421 3.085 2.29 1.156 7.941 2.219 15.092 2.839 1.455 0.126 2.535 0.405 3.621 0.936 1.703 0.833 2.301 0.882 2.432 0.199zm2.216 0.314c0.803-0.429 0.622-1.282-0.611-2.88-1.591-2.062-3.392-3.444-7.786-5.974-5.753-3.312-8.338-4.97-11.733-7.529-3.345-2.521-7.013-6.001-7.713-7.319-0.684-1.286-0.723-0.235-0.06 1.721 0.309 0.92 0.496 1.739 0.414 1.821-0.201 0.201-1.432-0.978-1.97-1.888-0.59-0.995-0.938-0.93-0.729 0.135 0.378 1.921 1.968 4.628 3.681 6.266 1.768 1.692 2.784 2.299 12.951 7.738 11.09 5.933 12.695 6.945 12.369 7.795-0.177 0.463 0.431 0.521 1.191 0.114zm2.924-0.651c0.578-0.696 0.417-2.404-0.35-3.713-1.364-2.329-3.797-4.3-13.452-10.902-9.397-6.425-12.052-8.685-13.877-11.814-0.588-1.009-1.075-2.256-1.175-3.014-0.204-1.537-0.524-1.522-1.362 0.06-0.776 1.468-0.785 2.972-0.02 4.548 1.387 2.875 9.447 9.739 15.901 13.542 8.667 5.107 10.836 6.622 12.221 8.534 0.621 0.857 0.809 1.39 0.777 2.207-0.02 0.592-0.03 1.171-0.02 1.287 0.03 0.277 0.912-0.201 1.357-0.737zm-43.803-37.621c-0.62-2.149-0.768-23.267-0.205-29.164 0.993-10.387 3.213-22.802 4.075-22.788 2.183 0.04 9.62 0.459 12.052 0.684 3.502 0.322 10.087 0 14.079-0.688 9.61-1.658 19.751-5.179 30.907-10.729l5.43-2.702v65.856h-33.101c-31.295 0-33.109-0.02-33.237-0.469zm36.693-5.875c2.671-0.442 7.02-2.023 9.223-3.354 1.396-0.843 5.384-4.186 6.506-5.453 1.255-1.418 2.662-3.797 3.805-6.437 1.401-3.233 1.727-4.486 2.221-8.531 0.563-4.606 0.284-7.157-1.279-11.712-1.498-4.364-1.525-4.396-3.457-4.221-1.946 0.177-3.082 0.834-5.268 3.05-1.837 1.862-2.22 2.725-1.619 3.65 1.08 1.663 1.982 6.628 1.736 9.553-0.401 4.761-3.741 10.085-7.901 12.594-3.826 2.308-7.774 3.246-11.531 2.741-2.779-0.373-6.776-2.321-9.117-4.442-1.341-1.216-1.928-2.027-2.944-4.075-1.228-2.473-1.272-2.647-1.373-5.355-0.163-4.419 0.912-7.38 3.748-10.318 2.303-2.385 3.998-2.974 8.747-3.042 1.806-0.03 3.364-0.128 3.463-0.226 0.361-0.361-0.457-1.522-1.568-2.223-1.788-1.129-3.728-1.531-6.52-1.35-5.247 0.341-7.698 1.668-11.219 6.074-2.733 3.42-3.982 7.017-4.006 11.531-0.01 2.301 0.1 2.871 1.105 5.871 1.771 5.254 4.048 8.501 7.816 11.141 3.637 2.549 6.431 3.754 10.326 4.453 3.428 0.616 5.744 0.636 9.106 0.08zm16.996-28.172c-1.74-1.079-2.448-4.233-1.212-5.395 0.737-0.691 1.027-0.716 2.072-0.175 1.72 0.89 2.494 4.273 1.246 5.445-0.738 0.694-1.15 0.719-2.106 0.125zm15.867 10.156c0-13.398 0.08-28.169 0.177-32.826l0.177-8.467 4.717 2.357c7.799 3.896 13.612 6.258 20.4381 8.307 11.0805 3.327 18.9482 4.023 31.7459 2.81 6.0196-0.57 5.2829-0.888 6.1113 2.634 2.819 11.986 4.1528 28.048 3.4351 41.366-0.1669 3.098-0.3773 6.205-0.4676 6.906l-0.1641 1.273h-66.1697zm32.8129 21.008c0.2211-0.221 0.66-1.091 0.9753-1.934s0.9833-1.93 1.4845-2.417c0.5013-0.487 1.058-1.374 1.2372-1.973 0.3526-1.176 1.084-1.855 1.9999-1.855 0.7661 0 1.1204-0.472 1.3277-1.768 0.2015-1.26 1.7287-3.484 2.6942-3.924 0.5116-0.233 1.052-0.231 2.2184 0.01 0.8482 0.175 2.3796 0.305 3.4032 0.288l1.8611-0.03-2.6817-0.524c-1.475-0.288-2.8024-0.651-2.9499-0.806-0.1865-0.196 0.018-0.233 0.6704-0.119 0.5162 0.09 2.194 0.243 3.7283 0.34 2.0739 0.131 2.7407 0.1 2.5988-0.132-0.1049-0.17-0.6362-0.316-1.1806-0.325-1.6547-0.03-4.6761-0.637-4.573-0.923 0.1186-0.328 0.6247-0.306 3.0849 0.131 2.0771 0.37 5.9245 0.117 4.2527-0.279-0.4425-0.105-1.4079-0.206-2.1454-0.225-1.8674-0.05-3.3675-0.323-3.2042-0.587 0.076-0.123 1.3101-0.153 2.7435-0.07 1.6595 0.1 3.0299 0.04 3.7729-0.163 0.6417-0.175 1.1227-0.363 1.0689-0.417-0.054-0.05-1.7043-0.129-3.6676-0.167l-3.5698-0.07 0.1788-0.955c0.3031-1.617 0.5482-1.826 1.0359-0.883 0.2371 0.459 0.3512 1.042 0.2537 1.296-0.3747 0.976 7.509-0.02 8.1319-1.029 0.1169-0.189-0.082-0.215-0.6031-0.08-0.9939 0.259-5.8424 0.908-5.9666 0.798-0.3296-0.29 0.4549-0.643 1.7742-0.797 2.3798-0.278 3.8482-0.642 5.091-1.262 1.4153-0.705 1.4887-1.067 0.1211-0.596-1.7667 0.609-5.1861 1.172-5.074 0.836 0.055-0.165 0.9531-0.494 1.9957-0.731 1.0426-0.236 2.3004-0.592 2.7952-0.791 0.992-0.397 3.2711-1.87 3.1233-2.018-0.051-0.05-1.2287 0.334-2.6165 0.855s-3.1107 1.041-3.8287 1.154l-1.3053 0.206-0.6559-1.294c-0.9342-1.844-0.816-2.01 0.4511-0.636 0.6087 0.661 1.3026 1.203 1.5419 1.204 0.2394 0 1.3889-0.327 2.5547-0.731 1.5209-0.527 2.4676-1.057 3.3521-1.878 1.4327-1.329 1.1945-1.266-2.6165 0.687-1.2321 0.632-2.3001 1.089-2.3734 1.016-0.3063-0.307 0.3631-0.794 2.4643-1.792 1.3514-0.642 2.5603-1.438 3.0759-2.025 0.8807-1.003 0.9242-1.603 0.059-0.82-0.9556 0.865-1.1654 0.443-0.3389-0.681 0.9315-1.266 1.0931-1.879 0.3083-1.169-0.8067 0.73-1.1524 0.265-0.5444-0.732 0.9786-1.605 0.5345-1.586-1.2544 0.05-0.9801 0.898-1.8852 1.633-2.0113 1.633-0.5156 0-0.1626-0.526 0.9815-1.464 1.3946-1.143 2.0752-2.29 1.9562-3.299-0.082-0.695-0.093-0.69-0.7993 0.353-0.3939 0.582-1.1894 1.595-1.7678 2.252l-1.0517 1.194-1.1679-0.859c-0.8697-0.639-1.0326-0.859-0.6383-0.859 0.2912 0 0.8064 0.194 1.1448 0.431 0.5789 0.406 0.6553 0.394 1.2949-0.201 1.029-0.956 2.2264-3.205 2.2292-4.185 0-1.206-0.3099-1.088-0.8956 0.336-0.2727 0.663-0.6175 1.206-0.7661 1.206-0.1525 0-0.1859-0.205-0.077-0.469 0.4459-1.08 0.6217-2.406 0.4355-3.286l-0.1988-0.938-0.3097 1.215c-0.3523 1.382-1.3153 3.659-1.6297 3.854-0.1156 0.07-0.806-0.165-1.5343-0.526-1.1059-0.547-1.1916-0.638-0.5197-0.546 0.4425 0.06 1.0459 0.187 1.3409 0.282 0.4365 0.14 0.6216-0.03 0.9946-0.89 0.7217-1.673 0.8098-2.3 0.49-3.487-0.3587-1.332-0.8142-1.455-0.8142-0.219 0 1.315-0.7649 3.669-1.1922 3.669-0.2017 0-1.1557-0.354-2.12-0.786l-1.7531-0.787 0.095 0.747c0.052 0.41 0.3652 1.376 0.6961 2.145 0.5825 1.354 0.9157 4.849 0.4624 4.849-0.1056 0-0.2723 0.606-0.3706 1.347-0.098 0.741-0.2834 1.411-0.4115 1.491-0.128 0.08-0.2328 0.748-0.2328 1.487 0 1.055 0.1732 1.596 0.8045 2.513 0.9236 1.343 0.9621 1.547 0.3818 2.029-0.5557 0.461-0.6672 0.255-1.2969-2.396-0.282-1.187-0.6139-2.096-0.7374-2.019-0.4528 0.28-0.2345 2.912 0.3286 3.963 0.3043 0.568 0.4891 1.2 0.4107 1.404-0.3126 0.814-0.6639 0.274-1.1099-1.707-0.2574-1.143-0.521-1.927-0.5857-1.743-0.2247 0.64-0.8695 0.33-1.3913-0.67-0.2886-0.554-1.0758-1.669-1.7494-2.48-1.5475-1.863-2.0275-2.877-2.0275-4.283 0-1.615-0.3715-2.154-1.4844-2.154-0.511 0-0.9291-0.1-0.9291-0.218 0-0.373 1.4246-1.574 2.5194-2.124l1.0445-0.525-0.8652-0.173c-0.7798-0.156-0.8491-0.247-0.7022-0.913 0.1619-0.735 0.1533-0.74-1.252-0.74h-1.415l-0.083-1.006c-0.046-0.553-0.1331-1.005-0.194-1.005-0.061 0-0.652 0.263-1.3136 0.584-1.4378 0.698-2.263 0.463-3.0793-0.879l-0.5122-0.843-0.4326 0.837c-0.5298 1.025-1.1406 1.065-2.6568 0.177l-1.1265-0.661 0.1018 1.068c0.1879 1.971-0.9022 2.352-3.4014 1.189-0.7889-0.367-1.5304-0.668-1.6475-0.668-0.1172 0-0.091 0.483 0.059 1.073 0.5237 2.063-0.7221 2.391-4.0692 1.071-1.0987-0.433-2.0307-0.754-2.0707-0.714s0.405 0.654 0.991 1.362c0.586 0.709 1.0651 1.382 1.0651 1.495 0 0.49-0.9031 0.867-2.7211 1.137-1.634 0.242-1.844 0.328-1.296 0.531 0.915 0.338 1.603 1.015 1.603 1.576 0 0.347-0.404 0.594-1.484 0.908-1.396 0.405-1.776 0.947-0.665 0.947 0.815 0 1.395 0.746 1.062 1.367-0.22 0.412-0.162 0.677 0.269 1.225 0.642 0.815 0.691 1.624 0.143 2.348-0.356 0.47-0.32 0.557 0.411 1.002 0.44 0.267 0.8 0.602 0.8 0.743 0 0.455-1.16 1.112-1.45 0.821-0.505-0.504-0.571-0.258-0.47 1.746 0.104 2.052-0.02 2.284-0.872 1.66-0.456-0.334-0.458-0.42-0.03-1.672 0.269-0.793 0.383-1.666 0.286-2.187-0.2-1.065-0.679-1.431-0.679-0.519 0 1.25-0.621 3.389-0.984 3.389-0.489 0-0.449-0.427 0.2-2.133 0.389-1.025 0.502-1.747 0.377-2.412-0.249-1.328-0.477-1.596-0.694-0.816-0.176 0.633-0.187 0.625-0.213-0.156-0.01-0.453-0.192-1.358-0.395-2.011-0.959-3.09-1.188-5.759-0.593-6.909 0.209-0.404 0.466-1.212 0.571-1.797 0.106-0.585 0.312-1.214 0.458-1.399 0.394-0.496 0.169-0.427-1.981 0.603-1.546 0.741-2.022 0.868-2.266 0.603-0.495-0.536-0.916-2.063-0.916-3.324 0-1.369-0.361-1.518-0.778-0.322-0.442 1.267-0.358 2.092 0.372 3.66 0.587 1.26 0.721 1.389 1.187 1.14 0.289-0.155 0.804-0.276 1.146-0.27 0.522 0.01 0.456 0.1-0.41 0.556-0.566 0.299-1.206 0.476-1.421 0.394-0.469-0.181-1.592-2.633-1.861-4.067-0.184-0.983-0.204-1-0.442-0.37-0.333 0.882-0.124 2.313 0.541 3.688 0.3 0.621 0.465 1.128 0.368 1.127-0.241 0-1.277-1.562-1.691-2.546l-0.338-0.805-0.1 0.884c-0.117 1.057 0.755 2.993 1.854 4.117 0.771 0.788 0.975 1.301 0.519 1.301-0.135 0-0.507-0.422-0.826-0.938-0.319-0.517-0.661-0.939-0.759-0.939-0.1 0-0.526-0.549-0.949-1.219-0.424-0.671-0.824-1.165-0.89-1.1-0.293 0.294 0.552 2.414 1.304 3.27 1.222 1.392 0.672 1.485-0.717 0.122-0.658-0.646-1.254-1.115-1.325-1.044-0.201 0.201 0.611 1.634 1.389 2.449 0.869 0.91 0.631 1.248-0.384 0.545-1.808-1.252-1.957-0.925-0.35 0.764 0.59 0.621 1.012 1.189 0.938 1.264-0.07 0.07-0.691-0.265-1.371-0.753-0.967-0.694-1.172-0.769-0.944-0.341 0.559 1.044 2.798 2.748 4.358 3.317 1.486 0.542 2.354 1.157 2.054 1.456-0.07 0.07-1.317-0.412-2.761-1.082-1.444-0.671-2.679-1.165-2.745-1.099-0.474 0.474 1.722 1.813 4.579 2.791l2.275 0.779 0.825-1.171c0.454-0.644 0.949-1.171 1.099-1.171 0.375 0 0.357 0.08-0.316 1.468-0.82 1.689-0.7 1.701-7.858-0.79-0.447-0.155-0.425-0.09 0.132 0.401 1.05 0.923 2.943 1.78 4.696 2.126 0.885 0.175 1.813 0.376 2.063 0.447 0.312 0.09 0.771-0.295 1.472-1.234 1.152-1.544 1.356-1.432 0.808 0.442l-0.38 1.297-1.713-0.05c-0.943-0.03-2.589-0.276-3.658-0.555-1.07-0.28-1.945-0.425-1.945-0.321 0 0.411 2.942 1.42 5.049 1.733 2.588 0.383 3.541 0.918 1.336 0.749-0.783-0.06-2.192-0.23-3.131-0.377-0.939-0.148-1.764-0.213-1.832-0.144-0.07 0.07 0.639 0.404 1.573 0.746 1.588 0.581 1.646 0.631 0.894 0.766-2.101 0.376 2.284 1.112 5.324 0.892 1.612-0.117 2.111-0.08 1.904 0.144-0.155 0.166-1.597 0.382-3.206 0.481-1.803 0.11-2.725 0.257-2.401 0.384 0.821 0.321 4.381 0.254 6.156-0.116l1.609-0.335-0.02-1.548c-0.02-1.242-0.147-1.664-0.637-2.134l-0.612-0.586 0.185 0.939c0.523 2.656 0.522 2.682-0.06 2.682-0.51 0-0.55-0.153-0.531-2.011l0.02-2.012h1.179c1.029 0 1.237 0.102 1.6365 0.803 0.2513 0.442 0.6077 0.804 0.7921 0.805 0.1843 0 0.3352 0.196 0.3352 0.435 0 0.435-0.3007 0.424-1.4598-0.05-0.483-0.197-0.475-0.138 0.1011 0.794 0.5106 0.826 0.5702 1.122 0.332 1.644-0.3358 0.737-1.2141 1.017-4.7391 1.512l-2.414 0.339 1.341 0.202c1.219 0.184 4.045-0.08 5.081-0.481 0.229-0.09 0.4169-0.04 0.4169 0.102 0 0.286-1.5149 0.76-3.6209 1.135-1.124 0.2-0.883 0.23 1.49 0.187 2.6603-0.05 2.8808-0.01 3.654 0.618 0.4526 0.369 1.1873 0.869 1.6328 1.111 0.6416 0.349 0.8495 0.684 1.0007 1.609 0.2645 1.62 1.0729 2.833 2.3066 3.462 0.5751 0.294 1.0611 0.622 1.0799 0.729 0.019 0.108 0.065 0.437 0.1035 0.732 0.038 0.295 0.2633 0.899 0.5005 1.341 0.2371 0.443 0.4319 1.386 0.4328 2.096 0 0.711 0.1266 1.525 0.2793 1.81 0.3313 0.619 1.1373 0.675 1.6952 0.117zm-1.1243-0.485c-0.2276-0.276-0.4184-1.837-0.3382-2.765 0.034-0.39 2.1714-0.344 2.1714 0.05 0 0.161-0.189 0.847-0.42 1.525-0.4393 1.289-0.9668 1.734-1.4132 1.193zm-0.4027-3.74c-0.2536-0.186-0.4879-0.699-0.5205-1.14l-0.059-0.803 1.8772-0.162c1.0324-0.09 2.209-0.253 2.6146-0.364 0.9288-0.255 0.9902 0.267 0.1562 1.327-1.0013 1.273-3.0877 1.858-4.0681 1.142zm-0.044-2.532c-1.0958-0.279-1.4749-0.899-1.4749-2.413 0-1.765 0.6683-3.175 2.2235-4.689l1.1286-1.099-1.0981 0.558c-1.3537 0.688-2.6795 2.163-3.351 3.73-0.631 1.472-0.9963 1.309-0.8554-0.381 0.2422-2.904 1.1076-4.471 2.9917-5.416 0.5346-0.268 2.9161-1.112 5.2923-1.876 6.7111-2.157 8.3478-3.45 8.014-6.329l-0.1554-1.34 0.6875 0.804c0.878 1.027 2.2853 3.809 2.2853 4.517 0 1.065-1.1437 2.877-2.7109 4.295-1.0762 0.974-2.8981 2.116-5.6239 3.526-4.6636 2.412-5.4353 3.142-5.2948 5.011 0.084 1.116 0.06 1.156-0.7176 1.197-0.4425 0.02-1.0459-0.02-1.3409-0.1zm2.6519-1.311c-0.1201-0.479-0.013-0.91 0.3464-1.391 0.687-0.92 1.1584-1.054 1.1584-0.328 0 0.4 0.251 0.677 0.8045 0.886 0.4425 0.167 0.8045 0.384 0.8045 0.484 0 0.221-2.0073 1.042-2.5479 1.042-0.2155 0-0.4701-0.312-0.5659-0.693zm2.6246-1.217c-0.7358-0.274-0.6934-0.98 0.085-1.413 0.2939-0.163 0.8763-0.568 1.2944-0.9 0.7807-0.62 1.5236-0.794 1.5236-0.357 0 0.587-0.3597 1.094-0.7768 1.094-0.3107 0-0.4479 0.219-0.4406 0.703 0.013 0.829-0.747 1.222-1.6854 0.873zm-11.5597-4.406c-1.8859-1.704-1.6644-3.27 0.8366-5.914 1.7463-1.847 1.922-1.938 6.9645-3.606 4.8234-1.596 6.9586-2.669 8.0775-4.062 0.4505-0.56 0.9655-1.019 1.1446-1.019 0.7194 0 1.1779 3.588 0.6403 5.011-0.7403 1.959-2.4399 3.032-6.9654 4.398-5.5941 1.688-8.6474 3.507-9.0209 5.375-0.085 0.423-0.2593 0.77-0.3879 0.77-0.1287 0-0.7088-0.429-1.2893-0.953zm-0.287-8.055c0-0.617-0.1853-1.122-0.5164-1.408-0.4855-0.418-1.8972-3.606-1.8972-4.284 0-0.171 0.4791-0.613 1.0646-0.983 0.7315-0.462 1.133-0.945 1.2834-1.545 0.1674-0.668 0.4875-1.004 1.3618-1.427 0.6286-0.304 1.3589-0.908 1.623-1.341 0.7663-1.257 1.2229-1.49 3.4387-1.755 1.1492-0.138 2.6096-0.51 3.2453-0.827 1.1345-0.566 1.2006-0.568 3.5787-0.147 1.3911 0.247 2.6404 0.626 2.9338 0.892 0.6652 0.602 0.6527 1.777-0.025 2.391-0.631 0.571-0.6695 1.142-0.1255 1.861 0.7285 0.963 0.4751 1.726-1.0773 3.241-1.8625 1.819-3.9679 2.823-8.4938 4.052-1.9678 0.535-4.1471 1.258-4.8428 1.607-0.6957 0.35-1.3293 0.636-1.4079 0.636-0.079 0-0.143-0.433-0.143-0.963zm-12.6197-2.017c-0.269-0.502-0.155-0.697 0.996-1.715 0.715-0.632 1.342-1.033 1.394-0.893 0.09 0.248-1.72 3.174-1.965 3.174-0.07 0-0.258-0.255-0.425-0.566zm41.4579-0.703c-1.1685-1.719-0.8626-2.159 0.6199-0.891 0.6843 0.586 0.8554 0.902 0.7194 1.33-0.2547 0.803-0.5648 0.701-1.3393-0.439zm-42.0999-0.857c-0.199-0.321 0.54-1.36 0.968-1.36 0.351 0 0.26 0.343-0.278 1.042-0.345 0.449-0.551 0.544-0.69 0.318zm-2.268-0.753c-0.651-0.392-1.052-0.756-0.892-0.809 0.391-0.13 2.477 0.948 2.477 1.28 0 0.396-0.289 0.31-1.585-0.471zm45.1809-0.205c-0.3937-0.516-0.6379-0.938-0.5425-0.938 0.4072 0 1.7311 1.142 1.7311 1.493 0 0.638-0.433 0.436-1.1886-0.555zm1.725 0.704c0-0.343 0.7885-0.943 0.9833-0.748 0.1947 0.195-0.4051 0.983-0.748 0.983-0.1294 0-0.2353-0.106-0.2353-0.235zm-45.3209-1.638c0-0.565 2.015-2.102 2.335-1.782 0.189 0.189-1.758 2.314-2.121 2.314-0.118 0-0.214-0.24-0.214-0.532zm43.7569-0.821c-1.3327-1.524-1.2002-1.654 0.5527-0.543 0.9794 0.621 1.2086 0.902 1.0939 1.341-0.08 0.305-0.2216 0.55-0.315 0.543-0.094 0-0.6927-0.61-1.3316-1.341zm4.2457 0.975c0-0.05 0.181-0.243 0.4022-0.427 0.2319-0.192 0.4023-0.218 0.4023-0.06 0 0.15-0.181 0.342-0.4023 0.427-0.2212 0.09-0.4022 0.112-0.4022 0.06zm-49.4576-0.566c-0.284-0.215-0.446-0.463-0.358-0.55 0.212-0.212 1.277 0.371 1.277 0.699 0 0.36-0.313 0.31-0.919-0.149zm47.3768 0.08c0.159-0.477 2.8296-2.125 2.9991-1.85 0.079 0.127-0.5159 0.67-1.3219 1.205-1.5813 1.05-1.8461 1.152-1.6772 0.645zm-48.4698-1.013c0.09-0.148 0.219-0.268 0.284-0.268 0.07 0 0.119 0.12 0.119 0.268 0 0.147-0.128 0.268-0.284 0.268s-0.21-0.121-0.119-0.268zm1.207-0.67c-0.676-0.721-0.319-0.952 0.383-0.249 0.374 0.373 0.572 0.919 0.334 0.919-0.05 0-0.37-0.302-0.717-0.67zm1.073 0.291c0-0.391 2.389-1.88 2.629-1.64 0.119 0.119-0.236 0.447-1.808 1.675-0.558 0.436-0.821 0.425-0.821-0.03zm31.5608-1.029c-0.6792-1.149-0.5937-1.81 0.2342-1.81 0.4782 0 0.5701 0.194 0.7918 1.676 0.2405 1.607-0.1269 1.655-1.026 0.134zm13.1136 0.63c-0.3217-0.355-0.3698-0.566-0.1588-0.697 0.3073-0.19 1.3414 0.566 1.3414 0.98 0 0.408-0.7113 0.238-1.1826-0.283zm-44.6744-1.239c0-0.462 1.239-1.125 1.539-0.824 0.189 0.189-0.929 1.214-1.338 1.226-0.111 0-0.201-0.178-0.201-0.402zm43.7117 0.124c0-0.156 0.1206-0.21 0.2681-0.118 0.1475 0.09 0.2682 0.219 0.2682 0.284 0 0.06-0.1207 0.118-0.2682 0.118s-0.2681-0.128-0.2681-0.284zm-43.4437-1.855c0-0.378 1.065-0.997 2.078-1.208 1.178-0.246 1.097-0.03-0.291 0.788-1.23 0.721-1.787 0.851-1.787 0.42zm43.6448-0.46c-0.7006-0.39-1.2738-0.8-1.2738-0.911 0-0.222 1.7266 0.199 2.5029 0.61 0.3621 0.192 0.627 0.138 1.0056-0.204 0.3977-0.36 0.5121-0.38 0.5055-0.09-0.012 0.544-0.6582 1.317-1.0937 1.309-0.205 0-0.9459-0.325-1.6465-0.715zm-44.4488 0.185c0-0.147 0.12-0.268 0.268-0.268 0.147 0 0.268 0.121 0.268 0.268 0 0.148-0.121 0.268-0.268 0.268-0.148 0-0.268-0.12-0.268-0.268zm4.291-4.403c1.505-0.464 2.933-1.334 2.651-1.616-0.09-0.09-0.853 0.153-1.705 0.53s-1.612 0.622-1.689 0.546c-0.28-0.28 0.563-0.96 1.511-1.22 0.536-0.146 1.367-0.507 1.846-0.802 1.072-0.659 1.183-1.252 0.134-0.718-1.162 0.59-1.944 0.778-1.944 0.466 0-0.154 0.47-0.521 1.045-0.814 1.15-0.586 1.905-1.246 1.905-1.664 0-0.149-0.407-0.02-0.903 0.287-1.166 0.721-1.337 0.704-1.132-0.112 0.206-0.824-0.02-0.848-0.831-0.09-0.583 0.548-0.62 0.552-0.62 0.07 0-0.473-0.04-0.467-0.595 0.09-0.473 0.473-0.616 0.98-0.701 2.473-0.133 2.367-0.582 2.471-0.582 0.136 0-0.959-0.101-1.743-0.225-1.743-0.353 0-0.847 1.281-0.847 2.194 0 1.278 0.568 2.938 0.913 2.668 0.161-0.126 0.957-0.434 1.769-0.684zm0.02-4.066c0.01-0.313 0.08-0.376 0.162-0.163 0.08 0.194 0.07 0.425-0.02 0.515s-0.152-0.07-0.14-0.352zm40.7261 3.709c0.4009-1.443 0.3485-2.386-0.187-3.365l-0.4694-0.859-0.079 1.958c-0.055 1.351-0.1927 2.001-0.4463 2.098-0.2021 0.08-1.239-0.225-2.3043-0.673l-1.937-0.814 0.6278 0.669c0.3453 0.367 1.2971 0.858 2.1151 1.091 0.8181 0.233 1.6021 0.531 1.7422 0.662 0.452 0.423 0.653 0.259 0.9379-0.767zm-1.4152-3.094c-0.072-0.559-0.2932-1.213-0.4909-1.453-0.3161-0.383-0.3776-0.309-0.5116 0.614-0.1218 0.84-0.192 0.943-0.35 0.514-0.4-1.086-0.8467-1.837-1.1527-1.938-0.1997-0.07-0.2615 0.1-0.1698 0.448 0.1867 0.714-0.2706 0.709-1.4428-0.02-0.5045-0.312-0.9753-0.509-1.0463-0.438-0.1716 0.171 1.4556 1.544 2.5982 2.191 1.1673 0.662 0.4577 0.901-0.9397 0.317-0.5307-0.222-0.9649-0.303-0.9649-0.18 0 0.361 1.1525 1.014 2.4329 1.378 0.6531 0.187 1.3045 0.442 1.4476 0.567 0.3928 0.345 0.7409-0.838 0.59-2.005zm13.5999-16.921c2.5054-1.047 3.0105-4.512 0.946-6.49-0.7427-0.711-0.9846-0.781-2.6961-0.781-1.8175 0-1.9098 0.03-2.7685 0.969-1.2555 1.37-1.4607 2.809-0.6373 4.469 0.9858 1.987 3.0396 2.717 5.1559 1.833zm-135.541-1.135c1.209-1.018 1.704-2.125 1.552-3.475-0.252-2.232-2.173-3.801-4.304-3.516-1.434 0.193-2.335 0.889-3.086 2.387-0.556 1.106-0.588 1.356-0.309 2.393 0.188 0.699 0.68 1.504 1.243 2.035 0.833 0.786 1.096 0.878 2.5 0.878 1.302 0 1.712-0.12 2.404-0.702zm34.38-1.474c2.342-1.667 2.028-5.33-0.575-6.713-1.226-0.652-2.051-0.627-3.481 0.106-2.878 1.477-2.873 5.351 0.01 6.854 1.386 0.722 2.806 0.636 4.045-0.247zm66.1229 0.309c2.0915-0.95 2.8859-3.604 1.6735-5.593-0.7136-1.17-2.6319-2.044-3.947-1.797-3.7265 0.699-4.5135 5.614-1.1809 7.375 1.2421 0.656 2.0334 0.66 3.4544 0.01zm-31.8969-12.305c2.226-1.585 2.138-5.211-0.158-6.559-1.189-0.699-3.3-0.661-4.337 0.08-2.535 1.805-2.079 5.748 0.803 6.96 0.97 0.408 2.776 0.174 3.692-0.478z" style="fill:#0b1183;stroke-width:.201129"/><rect id="rect9283" x="-807.207" y="-1941.14" width="100" height="300" style="fill-rule:evenodd;fill:#dd0508;stroke-width:75.2703"/><g id="g9360" fill="#ffbd00"><path id="path1" d="m-746.438-1911.14 2.6923 8.256h8.077l-6.6411 4.667 2.6923 8.077-6.8205-5.026-6.8205 5.026 2.6923-8.077-6.641-4.667h8.0769z" style="fill:#ffffff;stroke-width:1.4359"/><path id="path1-8" d="m-776.053-1869.14 1.5385 4.718h4.6154l-3.7949 2.667 1.5385 4.615-3.8975-2.872-3.8974 2.872 1.5385-4.615-3.7949-2.667h4.6154z" style="fill:#ffffff;stroke-width:.820514"/><path id="path1-8-9" d="m-737.207-1845.14 5.0002 15.334h15l-12.3334 8.667 5.0001 14.999-12.6669-9.334-12.6665 9.334 5.0001-14.999-12.3334-8.667h15.0001z" style="fill:#ffffff;stroke-width:2.66667"/><path id="path1-8-9-4" d="m-764.899-1782.14 3.077 9.436h9.23l-7.59 5.334 3.077 9.23-7.794-5.744-7.795 5.744 3.077-9.23-7.59-5.334h9.231z" style="fill:#ffffff;stroke-width:1.64103"/><path id="path1-8-9-4-5" d="m-784.899-1695.14 3.077 9.436h9.23l-7.59 5.334 3.077 9.23-7.794-5.744-7.795 5.744 3.077-9.23-7.59-5.334h9.231z" style="fill:#ffffff;stroke-width:1.64103"/></g></g></svg>
