<?xml version="1.0" encoding="UTF-8"?>
<!DOCTYPE svg PUBLIC "-//W3C//DTD SVG 1.1//EN" "http://www.w3.org/Graphics/SVG/1.1/DTD/svg11.dtd">
<!-- Creator: CorelDRAW X8 -->
<svg xmlns="http://www.w3.org/2000/svg" xml:space="preserve" width="226.061mm" height="150mm" version="1.1" style="shape-rendering:geometricPrecision; text-rendering:geometricPrecision; image-rendering:optimizeQuality; fill-rule:evenodd; clip-rule:evenodd"
viewBox="0 0 22606 15000"
 xmlns:xlink="http://www.w3.org/1999/xlink">
 <defs>
  <style type="text/css">
   <![CDATA[
    .fil2 {fill:none}
    .fil4 {fill:#3B366C}
    .fil7 {fill:#818085}
    .fil0 {fill:#99C4F1}
    .fil5 {fill:#A38444}
    .fil6 {fill:#CDB650}
    .fil1 {fill:#D1382A}
    .fil3 {fill:white}
   ]]>
  </style>
 </defs>
 <g id="Layer_x0020_1">
  <metadata id="CorelCorpID_0Corel-Layer"/>
  <g id="_2066730116048">
   <rect class="fil0" width="22606" height="15000"/>
   <g>
    <g>
     <path class="fil1" d="M8139 5457c1031,0 2062,0 3093,0 0,2571 0,5141 0,7712 -1276,-1487 -3093,-318 -3093,-2609 0,-1739 0,-3364 0,-5103z"/>
     <path class="fil2" d="M14467 5457c-1031,0 -2062,0 -3093,0 0,2571 0,5141 0,7712 1276,-1487 3093,-318 3093,-2609 0,-1739 0,-3364 0,-5103z"/>
     <path class="fil3" d="M10374 8605l0 -121 -1273 0 0 121 1273 0zm-820 2245c-2,8 -10,13 -18,11 -8,-2 -14,-10 -12,-18 12,-52 40,-96 78,-127 37,-31 85,-49 135,-49 51,0 98,18 136,49 37,31 65,75 77,127 2,8 -4,16 -12,18 -8,2 -16,-3 -18,-11 -11,-45 -35,-84 -67,-111 -29,-24 -63,-38 -101,-42l0 43c72,8 131,67 131,141l0 125 382 0 0 -2375 -1056 0 0 2375 382 0 0 -125c0,-74 58,-133 131,-141l0 -43c-38,4 -72,18 -100,42 -33,27 -57,66 -68,111zm298 31c0,-63 -53,-112 -115,-112 -62,0 -115,49 -115,112 0,98 0,189 0,287l230 0c0,-98 0,-189 0,-287zm-261 151l-461 0 0 215c405,0 809,0 1214,0l0 -215 -461 0 0 166 -292 0 0 -166zm62 -2574l168 0 0 -197c0,-46 -39,-82 -84,-82 -45,0 -84,36 -84,82l0 197zm195 0l417 0 0 -424 -1056 0 0 424 417 0 0 -197c0,-60 52,-107 111,-107 60,0 111,47 111,107l0 197zm-476 -1764l185 0 0 489 -185 0 0 -489zm545 0l185 0 0 489 -185 0 0 -489zm-273 0l186 0 0 489 -186 0 0 -489zm167 807c6,-5 16,-4 21,2 6,6 5,16 -1,21l-72 59 99 101c5,6 5,15 -1,21 -6,6 -16,5 -22,-1l-110 -112c-5,-6 -4,-16 2,-21l84 -70zm-74 -155c-131,0 -243,103 -243,236 0,133 112,236 243,236 131,0 243,-103 243,-236 0,-133 -112,-236 -243,-236zm554 602l0 61c-369,0 -738,0 -1107,0l0 -61c369,0 738,0 1107,0zm-69 -706l0 327 -225 0c-2,-52 -21,-100 -52,-140l244 -187 33 0zm0 345l0 335 -23 0 -250 -192c30,-41 48,-90 49,-143l224 0zm-51 335l-425 0 0 -87c74,-3 144,-35 192,-92l233 179zm-443 0l-425 0 233 -179c48,57 118,89 192,92l0 87zm-453 0l-23 0 0 -335 224 0c1,53 19,102 49,143l-250 192zm-23 -353l0 -327 33 0 244 187c-31,40 -50,88 -52,140l-225 0zm61 -327l415 0 0 87c-72,2 -140,33 -188,87l-227 -174zm433 0l415 0 -227 174c-48,-54 -116,-85 -188,-87l0 -87zm501 -636l0 88 -69 0 0 522 -882 0 0 -522 -69 0 0 -88 1020 0zm-510 -668l398 642 -796 0 398 -642z"/>
     <path class="fil4" d="M14467 5457c-1031,0 -2062,0 -3093,0 0,2571 0,5141 0,7712 1276,-1487 3093,-318 3093,-2609 0,-1739 0,-3364 0,-5103z"/>
     <polygon class="fil1" points="14467,7633 14467,8418 11374,10325 11374,9540 "/>
     <polygon class="fil3" points="12093,9228 12163,9334 12275,9270 12247,9393 12372,9424 12263,9492 12329,9600 12202,9573 12170,9695 12100,9589 11988,9653 12016,9530 11891,9499 12000,9431 11934,9323 12061,9350 "/>
     <polygon class="fil3" points="13694,8242 13763,8348 13875,8284 13847,8407 13972,8438 13863,8506 13929,8614 13802,8587 13770,8709 13700,8603 13589,8667 13617,8544 13491,8512 13600,8445 13535,8336 13661,8364 "/>
     <path class="fil3" d="M12601 9618c9,57 22,125 -13,163 -89,78 -141,103 -224,154 -25,16 -31,-32 -105,-32 -43,-1 -88,45 -80,68 3,8 33,1 42,7 7,7 5,9 -2,11 -54,14 -86,65 -71,88 7,10 27,-11 44,-11 26,0 44,-6 19,24 -56,65 27,98 43,88 8,-4 1,-36 8,-55 3,-10 1,-16 8,-17 38,-3 -12,67 66,76 48,5 2,-102 61,-132 115,-57 263,-164 371,-173 28,-3 72,-28 72,-56 0,-93 2,-186 2,-280 17,-16 47,-36 83,-55 66,-36 153,-12 101,61 -130,177 -155,446 -82,569 75,125 253,216 238,373 -5,46 -40,211 -128,281 -31,19 -21,-16 -58,-27 -24,-7 -51,-5 -70,7 -19,12 34,55 32,55 -58,-2 -42,-39 -82,-28 -100,57 20,43 11,69 -2,6 -30,-7 -64,-2 -34,5 -42,89 24,81 14,-1 32,-3 46,-4 24,-1 37,3 23,29 -7,12 -33,13 -38,23 -8,14 10,36 27,48 19,14 55,14 71,2 25,-19 30,-60 48,-60 39,-1 109,-41 169,-111 71,-85 132,-207 178,-284 39,-66 107,-68 113,-142 2,-32 -11,-67 -29,-84 -60,-59 -166,-167 -113,-257 37,-62 298,-213 305,-457 40,43 84,79 128,98 102,44 203,24 276,-31 33,-25 60,-58 79,-95 18,-37 29,-79 28,-123 -2,-99 -60,-208 -204,-289 -58,-32 -111,-89 -144,-186 -11,-33 -19,-71 -25,-113l-127 78c6,27 12,52 20,76 45,134 123,215 207,262 95,53 133,118 134,175 1,22 -4,43 -14,62 -9,18 -23,35 -39,47 -35,26 -84,36 -135,14 -55,-24 -124,-109 -177,-179 9,-163 -84,-273 -155,-359l-898 553zm292 -2233c53,34 13,103 -40,69 -47,-30 -90,-32 -137,-34 -223,-12 -304,-150 -302,-358 45,153 119,281 294,290 60,3 117,-10 185,33zm941 198c-69,120 -99,264 -39,429l120 -74c-30,-95 -37,-249 7,-285 173,18 291,-73 291,-222 0,-10 -2,-89 -37,-50 -7,7 -68,73 -69,58 0,-15 79,-94 82,-183 11,-195 -23,-89 -127,-15 -74,51 -161,93 -205,148 -31,38 -40,115 -23,194zm-275 560c30,-99 44,-196 50,-348 2,-52 38,-54 39,-74 0,-26 -32,-43 -30,-79 2,-25 27,-49 28,-74 1,-27 -19,-57 -23,-83 -8,-51 33,-94 12,-158 -16,-48 -74,-42 -92,-93 -21,-59 -3,-97 -44,-138 -56,-58 -131,-75 -162,-135 -65,-125 -120,-104 -122,-55 -2,34 11,100 -11,106 -7,2 -35,-10 -59,-66 -18,-40 -51,-74 -74,-59 -13,8 -13,15 -1,65 7,31 0,70 -41,70 -54,0 -139,38 -158,90 -21,57 -99,-77 -181,-4 -95,83 -99,-37 -127,-38 -65,-2 -50,71 -28,117 34,72 108,107 154,120 37,10 72,8 103,13 63,9 82,17 118,40 50,31 63,114 -23,133 -30,7 -76,-20 -131,-26 -25,-3 -52,4 -65,0 -23,-7 -40,-27 -54,-27 -28,-10 -43,65 39,75 41,5 11,111 83,110 47,0 52,-15 67,-41 17,-30 49,-42 84,-42 32,0 43,50 76,49 93,0 121,8 120,47 0,18 -20,25 -50,34 -72,21 -156,55 -223,90 -76,39 -153,100 -243,192 -65,66 -78,176 -139,204 -22,9 -115,-22 -140,-33 -64,-27 -128,-79 -244,-244 -26,-36 -68,-81 -82,-119 -27,-73 -20,-133 -73,-143 -32,-6 -37,30 -67,38 -20,5 -46,-28 -59,9 -7,21 10,46 5,67 -3,11 -9,17 -15,21 -33,21 -12,45 11,45 13,-1 31,-8 44,5 15,15 -16,52 -7,65 19,28 62,-14 79,10 33,46 115,218 171,347 58,131 103,156 292,178 135,16 37,210 -195,304 -87,35 -217,45 -327,42 -51,-2 -89,-12 -117,-42 -26,-28 -81,-24 -97,14 -7,15 -1,27 -8,43 -5,13 -34,22 -38,41 -9,42 35,30 57,59 17,24 -5,84 37,84 23,0 32,-36 47,-37 21,-1 44,42 69,16 11,-11 -9,-46 27,-49 213,-18 399,30 541,2l1197 -738zm-556 -1007c37,5 42,23 42,33 -1,15 -25,26 -46,22 -73,-14 -32,-59 4,-55z"/>
     <g>
      <path class="fil5" d="M11747 7273c0,-1 0,-1 0,-1 -1,-26 -15,-49 -44,-51 -8,-1 -16,1 -24,4 -26,11 -36,49 -39,74 -1,12 -6,12 -14,4 -26,-26 -48,-59 -54,-96 -14,-101 99,-159 181,-78 4,5 8,10 12,15 -9,-29 -16,-58 -17,-89 -2,-64 27,-121 68,-170 2,-2 5,-6 9,-6 4,0 8,4 9,6 42,49 70,106 68,170 -1,31 -8,60 -17,89 4,-5 8,-10 13,-15 82,-81 195,-23 180,78 -5,37 -27,70 -54,96 -8,8 -12,8 -14,-4 -3,-25 -12,-63 -39,-74 -7,-3 -16,-5 -24,-4 -29,2 -42,25 -43,51 0,0 0,0 0,1 11,2 18,12 18,23 0,10 -7,19 -17,22 0,0 0,0 0,0 1,4 1,7 2,10 5,-3 12,-5 18,-5 8,0 17,3 22,8 21,23 7,65 -27,65 -17,1 -29,-9 -40,-21 -17,-22 -21,-44 -24,-53 0,12 8,42 19,57 -19,15 -38,41 -42,65 -1,8 -2,14 -8,15 -6,-1 -6,-7 -8,-15 -4,-24 -22,-50 -42,-65 12,-15 20,-45 20,-57 -3,9 -7,31 -25,53 -10,12 -23,22 -40,21 -33,0 -48,-42 -27,-65 6,-5 14,-8 22,-8 7,0 13,2 18,5 1,-3 2,-6 2,-10 0,0 0,0 0,0 -10,-3 -17,-12 -17,-22 0,-11 8,-21 19,-23z"/>
      <path class="fil6" d="M11805 7272l20 0 20 0c0,-70 47,-135 49,-217 2,-53 -18,-110 -69,-168 -51,58 -70,115 -69,168 3,82 50,147 49,217zm20 47l23 0c4,24 6,35 18,57 -20,17 -37,43 -41,67 -4,-24 -21,-50 -40,-67 12,-22 14,-33 17,-57l23 0zm0 -7l73 0c9,0 16,-8 16,-16 0,-9 -7,-16 -16,-16l-73 0 -72 0c-9,0 -17,7 -17,16 0,8 8,16 17,16l72 0zm37 7c10,0 25,0 35,0 1,8 3,16 6,23 15,-16 31,-12 38,-5 17,17 6,51 -21,51 -18,1 -31,-14 -40,-27 -9,-12 -15,-25 -18,-42zm34 -47c-6,0 -34,0 -40,0 0,-54 14,-104 48,-137 104,-104 245,31 114,163 -4,-36 -17,-69 -44,-80 -32,-14 -76,1 -78,54zm-107 47c-11,0 -25,0 -36,0 0,8 -2,16 -6,23 -15,-16 -31,-12 -38,-5 -16,17 -5,51 21,51 19,1 31,-14 41,-27 9,-12 14,-25 18,-42zm-34 -47c5,0 34,0 39,0 0,-54 -14,-104 -47,-137 -104,-104 -245,31 -115,163 4,-36 17,-69 44,-80 32,-14 77,1 79,54z"/>
     </g>
    </g>
    <path class="fil7" d="M8763 5018l-58 -217c116,-40 239,-77 366,-110l48 225c-125,31 -244,65 -355,102l-1 0zm5080 0l58 -217c-116,-40 -238,-77 -366,-110l-48 225c125,31 244,65 355,102l1 0zm-358 -340c-120,-31 -246,-60 -376,-85l-39 233c128,23 250,49 368,78l47 -226zm-425 -95c-118,-23 -238,-43 -362,-61l-27 240c119,16 236,34 349,54l40 -233zm-412 -68c-120,-17 -243,-31 -369,-43l-20 244c123,11 244,24 361,39l28 -240zm-420 -48c-112,-11 -226,-19 -342,-26l0 248c109,6 217,13 322,22l20 -244zm1686 284l60 -224c-55,-19 -111,-38 -167,-55l-53 228c54,16 108,34 160,51zm-156 -294c-119,-36 -242,-69 -369,-100l-42 235c124,28 244,60 358,93l53 -228zm-419 -112c-123,-28 -251,-55 -381,-78l-27 241c126,21 248,46 367,72l41 -235zm-432 -87c-121,-21 -246,-40 -374,-56l-18 244c125,16 247,33 365,53l27 -241zm-424 -62c-122,-15 -246,-28 -371,-38l-15 247c125,9 247,21 368,35l18 -244zm-422 -42c-61,-5 -123,-9 -186,-13 8,37 11,75 11,113l0 136c54,3 107,7 160,11l15 -247zm1926 323l61 -228c-126,-44 -258,-85 -394,-123l-49 234c132,36 260,75 382,117zm-382 -365c-129,-34 -261,-66 -398,-95l-40 238c133,28 263,58 388,92l50 -235zm-448 -106c-127,-26 -258,-49 -391,-70l-28 243c129,20 256,42 379,66l40 -239zm-441 -78c-127,-19 -256,-35 -387,-49l-21 246c129,13 256,29 380,47l28 -244zm-438 -54c-186,-19 -377,-33 -572,-40 3,3 6,5 9,8 68,68 120,153 148,248 133,7 265,17 395,30l20 -246zm1783 326l2 -7 112 -136c-910,-302 -1916,-426 -2872,-426 -956,0 -1962,124 -2871,426l111 136 2 7c681,-238 1514,-389 2419,-420 99,-71 217,-109 339,-109 122,0 240,38 339,109 906,31 1738,182 2419,420zm-2400 80l0 400c59,1 117,4 174,7l0 -433c0,-146 -59,-279 -156,-376 -207,-207 -545,-207 -752,0 -96,97 -156,230 -156,376l0 433c57,-3 115,-6 174,-7l0 -400c0,-503 716,-503 716,0zm2191 1042l69 -224c-31,-11 -62,-21 -95,-32 -780,-255 -1706,-341 -2523,-341 -817,0 -1743,86 -2523,341 -33,11 -64,21 -95,32l69 224c1443,-481 3656,-481 5098,0zm355 -1308l94 -294c-65,-22 -131,-43 -197,-63 -18,55 -33,110 -52,164 -111,-33 -221,-62 -332,-91 14,-58 25,-113 34,-172 -60,-15 -119,-31 -180,-42 -12,56 -26,112 -38,168 -107,-25 -214,-46 -321,-66 4,-59 7,-119 14,-178 -57,-10 -114,-21 -172,-31 -5,59 -15,117 -22,176 -111,-19 -222,-35 -334,-51 -1,-59 4,-120 3,-179 -56,-7 -112,-14 -169,-21 -5,59 -8,119 -14,178 -117,-13 -234,-24 -351,-34 -2,-60 -3,-120 -4,-180 -51,-4 -103,-8 -155,-11 -4,59 -5,118 -8,177 -114,-7 -228,-11 -342,-14 -1,-59 -2,-118 -4,-177 -55,-3 -104,-7 -160,-6 -1,59 -2,119 -3,179 -61,-1 -130,-1 -191,-1 -61,0 -130,0 -191,1 -1,-60 -2,-120 -3,-179 -56,-1 -104,3 -160,6 -2,59 -2,118 -3,177 -115,3 -229,7 -343,14 -3,-59 -4,-118 -8,-177 -52,3 -104,7 -155,11 -1,60 -2,120 -4,180 -117,10 -234,21 -351,34 -6,-59 -9,-119 -14,-178 -56,7 -113,14 -169,21 -1,59 4,120 3,179 -112,16 -223,32 -334,51 -7,-59 -16,-117 -22,-176 -58,10 -115,21 -172,31 7,59 10,119 15,178 -108,20 -215,41 -322,66 -12,-56 -26,-112 -38,-168 -61,11 -120,27 -180,42 9,59 20,114 34,172 -111,29 -221,58 -331,91 -19,-54 -35,-109 -53,-164 -66,20 -132,41 -197,63l94 294c919,-308 1937,-434 2904,-434 967,0 1985,126 2904,434zm-84 -636c-369,-111 -765,-201 -1182,-266l-60 397c36,5 73,11 110,17l20 -176c93,15 185,32 276,50 -9,61 -14,112 -19,176 77,15 153,30 229,47 13,-58 26,-113 36,-171 95,22 189,45 282,69 -12,57 -21,116 -34,172 79,21 160,42 238,65 40,-123 71,-255 104,-380zm-2166 -372c-153,-9 -306,-15 -460,-18l0 227c71,2 138,3 210,6 1,60 2,120 3,179 91,3 157,5 245,11 7,-138 4,-267 2,-405zm-511 -19c-47,0 -95,-1 -143,-1 -48,0 -96,1 -143,1l0 228c0,60 1,120 2,180 44,-1 97,-1 141,-1 44,0 97,0 141,1 1,-60 2,-120 2,-180l0 -228zm-347 1c-150,3 -300,9 -450,18 -2,138 -5,267 2,405 88,-6 154,-8 245,-11 1,-59 2,-119 3,-179 68,-3 133,-4 200,-5l0 -228zm3037 341l56 -220c-82,-25 -166,-49 -251,-72l-46 224c81,21 162,44 241,68zm-437 -354c-69,-16 -138,-32 -208,-47l-38 227c67,14 134,29 200,44l46 -224zm-452 -96c-87,-17 -175,-32 -263,-46l-35 228c87,14 174,29 259,45l39 -227zm-1296 -158c-70,-4 -141,-8 -211,-11l0 234c72,3 144,6 216,11l-5 -234zm-409 -17c-47,-1 -93,-1 -140,-2l0 234c47,0 93,1 140,2l0 -234zm2663 356l61 -235c-187,-57 -379,-109 -577,-156l-45 241c22,5 43,10 65,15l9 -46c14,-68 81,-111 148,-98l0 0c67,14 111,80 97,148l-12 58c86,23 171,47 254,73zm-565 -402c-199,-46 -403,-85 -611,-119l-38 243c89,15 177,30 264,46l7 -42c12,-67 77,-113 144,-102l0 0c68,12 114,76 102,144l-8 50c32,7 63,14 95,21l45 -241zm-1694 -238c-149,-8 -299,-14 -449,-17l0 249c15,1 30,1 45,1l0 -37c0,-55 44,-99 99,-99l0 0c54,0 99,44 99,99l0 43c70,3 140,6 210,11l-4 -250zm-500 -18c-48,0 -95,0 -143,0 -48,0 -95,0 -143,0l0 250c14,-1 29,-1 44,-1l0 -44c0,-55 45,-100 99,-100 55,0 99,45 99,100l0 44c15,0 30,0 44,1l0 -250zm2836 375l73 -116c-423,-130 -874,-234 -1347,-309l19 135c440,71 861,169 1255,290zm-2216 -529c-252,-17 -510,-28 -763,-26 -252,-2 -511,9 -763,26l94 123c221,-13 447,-21 669,-20 222,-1 448,7 669,20l94 -123zm2316 369l1 -2 84 -350c-86,-25 -174,-49 -261,-71l-39 171c-112,-32 -213,-55 -336,-81l32 -171c-68,-15 -137,-29 -205,-42l-24 168c-114,-22 -216,-36 -340,-51l18 -178c-83,-13 -168,-26 -252,-37l-52 328c483,75 944,182 1374,316zm-2283 -757c-44,-2 -87,-4 -131,-6l0 188 -219 -11 0 -190c-53,-2 -106,-3 -159,-3l0 179 -219 -11 0 -175c-22,0 -45,0 -68,0 -23,0 -45,0 -68,0l0 175 -219 11 0 -179c-53,0 -106,1 -159,3l0 190 -219 11 0 -188c-43,2 -87,4 -131,6l16 338c257,-18 522,-29 780,-27 258,-2 523,9 780,27l16 -338zm-2978 2818c120,-31 246,-60 376,-85l39 233c-128,23 -250,49 -368,78l-47 -226zm426 -95c117,-23 237,-43 361,-61l28 240c-120,16 -237,34 -350,54l-39 -233zm411 -68c120,-17 243,-31 369,-43l20 244c-123,11 -243,24 -361,39l-28 -240zm420 -48c112,-11 226,-19 342,-26l0 248c-109,6 -216,13 -322,22l-20 -244zm-1686 284l-60 -224c55,-19 111,-38 168,-55l52 228c-54,16 -108,34 -160,51zm156 -294c119,-36 242,-69 369,-100l42 235c-124,28 -244,60 -358,93l-53 -228zm419 -112c124,-28 251,-55 381,-78l27 241c-126,21 -248,46 -367,72l-41 -235zm432 -87c122,-21 246,-40 374,-56l18 244c-125,16 -247,33 -365,53l-27 -241zm424 -62c122,-15 246,-28 372,-38l14 247c-125,9 -247,21 -368,35l-18 -244zm422 -42c62,-5 123,-9 186,-13 -8,37 -11,75 -11,113l0 136c-54,3 -107,7 -160,11l-15 -247zm-1926 323l-61 -228c126,-44 258,-85 394,-123l50 234c-133,36 -261,75 -383,117zm382 -365c129,-34 262,-66 398,-95l41 238c-134,28 -264,58 -389,92l-50 -235zm448 -106c127,-26 258,-49 391,-70l28 243c-129,20 -256,42 -379,66l-40 -239zm441 -78c127,-19 256,-35 387,-49l21 246c-129,13 -256,29 -380,47l-28 -244zm438 -54c186,-19 377,-33 572,-40 -3,3 -6,5 -9,8 -68,68 -120,153 -148,248 -133,7 -265,17 -394,30l-21 -246zm-1845 -496c369,-111 765,-201 1182,-266l60 397c-36,5 -73,11 -110,17l-20 -176c-93,15 -185,32 -276,50 9,61 14,112 19,176 -77,15 -153,30 -229,47 -13,-58 -26,-113 -36,-171 -95,22 -189,45 -281,69 11,57 20,116 33,172 -79,21 -160,42 -238,65 -40,-123 -71,-255 -104,-380zm-12 -49l-57 -220c82,-25 166,-49 251,-72l46 224c-81,21 -161,44 -240,68zm436 -354c69,-16 138,-32 208,-47l38 227c-67,14 -134,29 -200,44l-46 -224zm452 -96c87,-17 175,-32 263,-46l35 228c-87,14 -174,29 -259,45l-39 -227zm1296 -158c70,-4 141,-8 211,-11l0 234c-72,3 -144,6 -216,11l5 -234zm410 -17c46,-1 92,-1 139,-2l0 234c-47,0 -93,1 -139,2l0 -234zm-2664 356l-61 -235c187,-57 379,-109 577,-156l45 241c-22,5 -43,10 -65,15l-9 -46c-14,-68 -80,-111 -148,-98l0 0c-67,14 -111,80 -97,148l12 58c-86,23 -171,47 -254,73zm565 -402c199,-46 403,-85 611,-119l38 243c-89,15 -177,30 -264,46l-7 -42c-12,-67 -76,-113 -144,-102l0 0c-68,12 -114,76 -102,144l8 50c-32,7 -63,14 -95,21l-45 -241zm1695 -238c148,-8 298,-14 448,-17l0 249c-15,1 -30,1 -44,1l0 -37c0,-55 -45,-99 -100,-99l0 0c-54,0 -99,44 -99,99l0 43c-70,3 -140,6 -210,11l5 -250zm-2337 357l-72 -116c422,-130 873,-234 1347,-309l-20 135c-440,71 -860,169 -1255,290zm-100 -160l-1 -2 -84 -350c86,-25 174,-49 261,-71l39 171c112,-32 213,-55 336,-81l-32 -171c68,-15 137,-29 205,-42l24 168c114,-22 216,-36 340,-51l-18 -178c84,-13 168,-26 252,-37l52 328c-483,75 -943,182 -1374,316z"/>
   </g>
  </g>
 </g>
</svg>
