<svg xmlns="http://www.w3.org/2000/svg" viewBox="0 0 1152 768" xmlns:v="https://vecta.io/nano"><path d="M0 0h1152v768H0z" fill="#fff"/><linearGradient id="A" gradientUnits="userSpaceOnUse" x1="577.157" y1="87.101" x2="577.157" y2="680.865"><stop offset="0" stop-color="#fff"/><stop offset=".455" stop-color="#dfac51"/></linearGradient><ellipse cx="577.2" cy="384" rx="291.8" ry="296.9" fill="url(#A)"/><ellipse cx="577.2" cy="384.9" rx="278.2" ry="283.9" fill="#fff"/><linearGradient id="B" gradientUnits="userSpaceOnUse" x1="383.349" y1="384" x2="768.651" y2="384"><stop offset="0" stop-color="#dfac51"/><stop offset="1" stop-color="#fff"/></linearGradient><ellipse cx="576" cy="384" rx="187.7" ry="191.8" fill="none" stroke="url(#B)" stroke-width="10"/><path d="M420.3 418.9c2.1 12.1 7 28.6 19.7 43.2 1.9 2.2 3.8 4.2 5.8 6 5.6-.1 13.4.3 22.3 3 13.4 4 22.5 11.1 27.5 15.6H627c2.8-3.6 32.5-41.6 49.3-55.7 4.6-3.9 8.9-6.7 8.9-6.7 6.9-4.6 12.5-6.9 23.5-11.4l23.2-9.5v-8.7c-10.3 5.9-22.6 12-36.8 17.6-3.9 1.5-19.5 7.5-41.2 12.6-13.2 3.1-24.7 4.9-33.7 6V283.3l-7.6 6.6v149c-3.4 5-12.5 16.6-28.8 22.8-9.8 3.7-18.5 4.1-24 3.8V281.4l-7.9 4.8v179.5c-6.5-.2-24.2-1.7-38.6-15-4.6-4.2-7.8-8.7-10.1-12.6V282.2l-7.6 8.8v143.2c-17.3-1.8-36.1-4.9-56.1-9.9-6.8-1.8-13.1-3.6-19.2-5.4z" fill="#ab732d"/><g fill="#c79539"><path d="M662.7 347.9c-3.1-23.8-14-40.3-19.5-47.7l-50.3 26.2c-4.5-12.4-10.6-21.3-14.3-26.2l-41 21.4c-4.2-9.9-9.2-17.1-12.4-21.4l-56.3 29.3c2.6 6.2 4.9 13.6 6.3 22.1 4.7 29.8-5.7 54.2-11.5 65.5l61.3-19.4c-2.5 8.2-5.6 14.9-8 19.4l73.6-23.3c-2.7 10-6.4 18.1-9.1 23.3l76.6-24.2c3-8.6 7.2-24.8 4.6-45z" opacity=".9"/><path d="M353.7 314.8c-6.4 6.7-10.3 13.7-12.5 17.1 2-8.2 4.2-15.1 5.6-19.5 4.4-2 9.9-5.1 15.5-10 9.8-8.7 14.6-18.5 16.8-24.1-7.3 3.6-15.4 8.7-23.2 16.1-1.5 1.4-2.9 2.9-4.2 4.3 1.4-5.2 3.2-15.4-.7-26.7-1.1-3.3-2.6-6.1-4-8.4-4.1 7.6-5.3 14.2-5.7 18.3-.5 5.7.1 10.2.8 14.7.9 6.2 2.4 11.4 3.7 15.2-.9 2.1-2 4.7-3 7.7.3-7.4-.7-17.1-5.9-26.5-.7-1.3-1.5-2.5-2.3-3.7-1.6 3.1-4 8.8-4.1 16.3 0 3.8.6 6.5 1.5 10.4 1.3 5.8 3.2 13.6 5.7 22.8a355.18 355.18 0 0 0-2 16.4c-.3-4.7-1.3-11-4.7-17.5-3.1-6.1-7.1-10.2-10-12.7-.5 5.3-.5 13 1.6 21.9 2.8 11.5 7.9 19.8 11.6 24.8l-1.3 20.3c-.2-.9-.5-1.8-.7-2.6-1.1-6.2-4.2-17.6-13.7-27.3-2.6-2.6-5.2-4.7-7.7-6.4.5 5.2 1.7 12.6 5.4 20.7 4.9 11 12 18.3 16.6 22.4 0 3.8.2 7.5.5 11.3-1-3-2.2-6.3-4.5-9.7-5-7.3-10.3-12.8-14.7-16.5.1 4.6 1 13.5 6.1 23.2 4.8 9 11.1 14.6 14.9 17.5l1.6 9.1c.5 3 1.1 5.8 1.6 8.6-1.1-3.1-3.6-7-6.3-11.1-4.8-7.4-10.7-11.9-14.5-14.2.4 2.4 1.1 5.8 2.3 9.8 1.9 6.5 4.2 13.9 9.8 21 2.3 2.9 5.4 7.4 12 11.2l3.2 14c.7-.3 1.3-.5 2-.8-.4-2.4-1.1-6-2-10.4-.2-1.2-.4-2.3-.7-3.3 3.6-5.2 10-15.2 10.3-28.5.2-7.4-1.2-13.5-2.6-17.8-2 2.5-4.1 5.7-5.9 9.7a49.63 49.63 0 0 0-4.7 21h-.3l-3.4-15.8c-.2-.9-.4-1.9-.5-2.8 4.6-3.8 12-11.2 16.4-22.8 2.9-7.5 3.6-14.3 3.6-19a63.43 63.43 0 0 0-13.4 15.6c-3.4 5.6-6.6 10.8-8.2 15-.5-4.7-.7-9.4-.7-14.1 3.6-2.2 9.1-6.2 13.6-13 1.2-1.8 5.9-9.2 7-20 .4-4.1.2-7.5-.1-10-4.4 4.3-10.9 11.7-15.6 22.4-2.6 5.8-4 11.2-4.8 15.8.1-6.1.4-12.4.7-19.4 0-1 .1-2 .1-3 5.3-4.3 13.2-12 18.8-23.7 3.4-7.1 5-13.6 5.9-18.7a114.44 114.44 0 0 0-21.2 25.1 79.2 79.2 0 0 0-2.7 4.7c.5-6.3 1.4-12.9 2.9-20.4 7.3-4 12.8-8.2 16.7-11.5 12.3-10.5 13.4-16.8 13.6-18.7.3-2.5.1-4.6-.2-6.1-3.9 2.4-9.9 6.2-15.7 12.3zm10.7-77.5c-2.9 3.6-7.1 9.9-9.4 18.8-3.5 13.9.1 25.5 1.8 30.1a69.21 69.21 0 0 0 8.1-21.1c2.3-12 .8-22-.5-27.8zm27 18.4c-4.1 1-13.5 3.7-22 12-7.1 6.9-10.1 14.5-11.4 18.5 4.8-1.1 20.5-5.5 29.2-20.1 2.1-3.7 3.4-7.3 4.2-10.4zm-.6-37.1c-5.3 4.3-15.9 14.4-19.5 30.5-.9 4.1-1.2 7.9-1.2 11.3a47.04 47.04 0 0 0 13.2-13.3c7.7-11.9 7.8-23.8 7.5-28.5zM803.3 475c5.3-10.6 10.5-27.9 13.5-49.2.4-2.6 1.2-9 1.5-17.9 1.2-38.9-9.8-74.3-14.4-87.6-11-31.9-17.9-52.1-30.9-62.8 0 0-11.8-9.7-15.5-21.8-1.7-5.5-1.3-10.8-1.3-10.8.2-3.8 1.2-6.8 2-8.8 5.2 6.6 11.2 16.1 15.2 28.5 1.3 4.2 2.3 8.2 2.9 11.8 4.5 7.2 10.3 16.9 16.2 28.7 3.9 7.9 12.9 26.1 19.7 48.8 6.9 23.1 16.3 54.7 9.1 92.8-3.8 19.8-10.9 35.9-18 48.3"/><circle cx="823.7" cy="457" r="8"/><circle cx="808.8" cy="419.5" r="8"/><circle cx="824.9" cy="354.8" r="8"/><ellipse cx="764.4" cy="260.3" rx="8" ry="7.2"/><path d="M806.5 331.5c0 4.1-.4 7.3-4.3 7.3-3.8 0-8.7-4.1-8.7-8.2s3.1-7.4 7-7.4 6 4.2 6 8.3zm12.1 126.9c-1 .1-11.1 7.5-11.1 7.5l-1 2.2 13.9-7.6-1.8-2.1zm-2.9-17c0-.2-5.7-18.4-5.7-18.4l2.8.5 3.5 17.4-.6.5zm-5.6 9.1c-2.9-3.2-8.1-8.7-10.6-16.4-.2-.5-.9-2.8-1.5-6.3-.8-4.9-1.5-12.5.2-22.4 2.5 4.7 5 10.5 7 17.4 3.3 10.9 5 20.6 4.9 27.7zm13.1-22c.2 3.6-.1 9.5-2.9 15.8-1.1 2.6-2.5 4.7-3.7 6.5 5.3-2.2 15.4-7.3 23.5-17.9 4.1-5.4 6.5-10.6 8-14.7-3.4.1-8.9.7-15 3.6-4.5 2.1-7.8 4.7-9.9 6.7zm17.5-54.1c1 3.3 3.5 13-.6 24.3-4.7 13.2-15.1 19.3-17.8 20.8.5-5.2 1.6-11.4 3.8-18.3 4-12.1 10-21.1 14.6-26.8zm-16.6-9.5c3.1-4.3 9.1-11.2 18.4-13.5a19.85 19.85 0 0 1 3.2-.6c-.6 4.8-2.3 12.3-6.7 20.4-5.5 9.8-12.5 15.7-16.7 18.8.3-1.3.7-2.6.9-4 1.5-7.8 1.5-15 .9-21.1zm-26.4 7.5c3.9 4.1 7.4 7.1 9.9 9 4.6 3.5 7.4 4.9 9.5 8.9 1.5 2.8 1.8 5.4 2 7.5.7 7-1.5 12.7-3.2 16.1-4.3-4.2-11.4-12.2-14.2-21.3-.6-1.8-1.6-5.6-2.4-10-.9-4.2-1.3-7.7-1.6-10.2zm-5.8-22.6c4.1 4 8.3 8.3 12.6 12.8a197.03 197.03 0 0 1 6.3 6.9s.5.5 1.2 1.4c4 4.9 9 11 7.3 14.7-.2.3-.4.8-1 1.3-5.2-3.2-15.2-10.2-21.6-22.9-2.6-5.3-4-10.2-4.8-14.2zm31.1 8.5l-4.3 12.9 1.3.6 5.9-15zm-6.8 5c-2.1 2.1-19-9.9-26.1-17.8-.9-1-1.9-2.2-3-4.1-3.4-5.8-3.8-11.6-3.7-15.1 5.1 3.5 12.4 9.1 19.3 17.5 4.5 5.5 15.4 17.6 13.5 19.5z"/><path d="M803.1 336l9.4 8.6-1.6-5.8-9-5.8zm13.1 14.9c.4-2.4.7-5.8.1-9.8-.7-5.1-2.4-9-3.7-11.4.8-3.2 2.9-9.2 8.3-14.7 3.2-3.2 6.4-5.2 8.8-6.4.9 3.9 2.1 12-.6 21.5-3.1 11.2-9.9 18.1-12.9 20.8zm-10.1-26.6c-1.9-1.4-4.4-3-7.6-4.3-6.6-2.7-12.6-2.6-16.1-2.3-2.5-2.1-7.9-7.2-10-15.6-.8-3.2-.9-6.2-.7-8.4 10 3 16 7.7 19.2 10.8 2.8 2.7 5.2 5.7 7 7.9 3.7 4.6 6.4 8.8 8.2 11.9zm1.8-.8c.3-2.1.5-4.8 0-8.1-.9-6-3.8-10.3-5.4-12.5.1-2.8.7-10.2 6.1-16.9 2.8-3.5 6-5.7 8.2-6.9 1.3 4 3.3 12.5 1.3 22.9-2 11-7.4 18.3-10.2 21.5zm-9.6-22.6c-2-2-6.2-5.9-12.8-8.1-6.1-2-11.4-1.7-14.1-1.3-2.7-2.5-7.9-8-9.9-16.6-.7-2.9-.8-5.6-.7-7.8 4 1.2 10.5 3.7 17 8.9 5.6 4.5 9.2 9.4 11.2 12.8l9.3 12.1zm-1.6-4.4c.7-1.7 1.7-5.2 1-9.5-1.1-7-6.1-11-7.3-11.9-.2-2.7-.2-8.4 2.9-14.7 2.8-5.7 6.7-9.1 8.9-10.6 1.6 4.5 3.3 11.2 3.2 19.4-.2 13.6-5.5 23.6-8.4 28.4-.1-.4-.2-.7-.3-1.1zm-12.1-25.1c.6-1.7 1.4-4.8.8-8.6-1.4-7.8-8-11.8-9-12.4 0-4.4.5-11.8 4.7-19.4 1.4-2.5 2.9-4.6 4.3-6.3 2.1 4.3 4.6 10.8 5.3 19 1.3 13.6-2.9 24.1-5.3 29.1-.2-.4-.5-.9-.8-1.4z"/><path d="M766.7 262.5c.1.3 18 9.4 18 9.4l-2.3-4.1-15.7-6.7v1.4z"/></g><path d="M416.8 205.7l-5.3-1.2.5-5.4c.8.5 4.4 2.6 7.6 1.2.6-.3 1-.6 1.2-.7.9-.7 34.3-20.7 33.2-23.2-.1-.3-1.4-.9-2.7-.1-6.1 3.8-12.7 7.7-19.1 12.6-1 .7-1.9 1.5-2.9 2.2-.8.6-6.4 4.7-8.4 3.1-.7-.5-.7-1.5-.7-2.4.1-5.2 3.3-10.3 7.7-16.3l5.8-7.5v7.1c-2.3.8-3.9 2-4.8 2.7-.7.6-3.4 3-4.8 7.2-.6 1.9-1 3-.5 3.4 1.1 1 5.7-3 11.7-7.4 10.7-7.9 17.5-13 21.3-10.9 3 1.6 4.5 8 2.5 10.3l-.4.4c-2.5 1.9-23.8 15.5-38.1 24.6.3.6 1.8 6-1.1 11.3-2.5 4.7-7.1 7.3-12.8 6.3 1.1-.5 6.7-2.8 9.2-9 1.5-3.5 1.2-6.7.9-8.3zM405 188.2l-1.4 6.4h5l2.2-6.4zm65.1-17.3c-.2 1.5-1.1 5.7-4.8 9.3-3.1 3.1-6.6 4.1-8.1 4.4v1.3c5.4 1.6 11 0 14.1-4 3.1-4.1 2.2-9 2.1-9.9 2.5 1.1 5.2.4 6.5-1.4 1.2-1.7.8-3.7.7-4.1l11.9 1.3c.6-1 1.8-2.5 3.7-3.8 2.4-1.7 4.8-2.1 6.1-2.3l-.1-7.6c-1.3-1.5-2.7-3.6-2.4-5.9.5-3 3.8-4.3 3.2-5.8-.4-1.1-2.3-.5-5.9-2.2-1.7-.8-2.2-1.4-3-1.2-1.4.4-2.2 3-1.8 5.2.5 2.5 2.3 2.6 4.5 5.9 1 1.4 3.5 5.3 2.1 7.5-1.2 1.9-4.8 2.4-6.9 1-2.3-1.5-1.5-4.5-3.4-5.2-2-.8-5.3 1.6-6.8 4.4-1.6 2.8-.5 4.6-2 6.4-2.4 3-7.7 2-7.9 1.9-2.8-.6-4.6-2.3-5.3-3-1.5 1.6-1.8 4-.7 5.7.8 1.4 2.5 2.2 4.2 2.1z"/><ellipse cx="485.9" cy="160.6" rx="1.9" ry="1.2" fill="#fff"/><path d="M505.6 142.3l3.2-5.6c1.8 3.4 4.4 9.6 3.9 17.3-.1 2.2-.5 4.1-1 5.8l-6.1-17.5zm40.1 10.8h4.1l1.4-.5.8.3h6.6l1.2-1.6.7 1.6h4.8l1.3-2.9 1 3 17.8.3c.8-1.1 2-3.3 2.3-6.2.1-1.2.4-4.1-1.2-7-.8-1.4-1.2-2.6-2.3-2.9-1.9-.4-4.9 2.2-4.4 4.6.3 1.2 1.9 1.1 2.9 2.7.7 1.2.7 2.5.5 3.4h-12.6l-1.7-20.2-4.4 5.1 2.2 15.2h-5.4l-1.4-6.6-2.9 3.4v3h-3.8l.5-7-3.9 4.9v2.2l-3.7.6-4.5-6-3 5.3 4.3 6.4c-.7.8-3.4 3.6-7.7 3.8-.7 0-5.1.3-6.6-2.2-2-3.2 2.5-8.7 2-9s-5.3 3.8-5.4 9.6c0 .7-.1 5.1 3 7.4 4 3.1 10.9.8 14.4-3.2 2.6-2.9 3-6.1 3.1-7.5m32.8 2.2c-.3 0-4.7 3.5-4.7 3.5l4.6 4.2 3.8-3.8-3.7-3.9zm16.9-23.6l-4.3 4.7V155l4.6-8zm12.5 22.2c-.7.9-3.6 4.1-8.5 4.9-4.5.8-7.9-.9-9-1.5.9 1.1 2.3 2.5 4.3 3.9 1.9 1.3 4.2 2.9 6.8 2.8 5-.2 8-6.4 8.2-6.8L637 165c1.6-2.1 3.2-4.1 4.9-6.2l-4.6-8.4-16.6 1.5 2.4-6.9c1.4-1.1 2.8-2.3 4.2-3.4l-5.5-6.7-4.1 3.2v15.6h-3.6l-6-8.6-4.6 3.9c1.5 1.6 2.9 3.3 4.4 4.9z"/><path d="M622.2 154.9l14.8 4.7-4.7-6.2h-8.8z" fill="#fff"/><path d="M651.4 159.3c-.5 1.2-5.3 12.5-1.4 16.7.4.4 1 1 1.9 1.2 2.8.5 4.3-4.2 8.7-5.9 1-.4 4.4-1.9 6.1-.4 1.3 1.2 1.4 3.8.2 6.6l16.8 10.2 4.4-8.3-.1-8-5.4 2.7c.5 2.2 1.1 4.3 1.6 6.5l-13.8-7.2-.3-7.7c-1.4-.2-4.3-.4-7.7.8-3.4 1.3-4.2 4.6-6.5 4.5-1.7 0-3.1-1.7-4-3l-.5-8.7zm23.9 28.6l-2.6-4-4.1 1.8 2.9 4.3 2.5-.7 2.5 3.7 4.7-.8-2.5-5zm-13-36.2l-2.9-4.2-4.8 1.9 3.3 4.6 2.9-.8 2.9 4 5.5-.9-2.9-5.3zm39.2 41.7l-9.4-6.9c1.5-2.7 2.1-4.1 1.8-4.3-.4-.3-2.8 2.2-7.2 7.4l11.3 8.1c.9-.4 1.8-.9 2.6-1.3l.6 4 5.4 4.3 3.2-1.8c-.4 1.1-.7 2.2-1.1 3.4l15.9 13.7 6-6.5 1.1-8.9-6.1 1.3-.1 6.9-10.7-8.9 8.8-17.4-6.2 1.5-6.4 13.2c-1.8-1.4-3.6-2.8-5.3-4.3l3.9-15.4-6.3 3-1.8 8.9zm16 22.1h-6.3l2.3 6.5h4zM360.4 510.2l16.9-3.3 5.7 8.6-.5.4-.5-.7c-.4-.6-.8-1.1-1.3-1.3-.3-.2-.7-.2-1.1-.1-.3 0-1 .4-1.9 1.1l-13.1 9.1c-1 .7-1.6 1.2-1.8 1.5s-.2.7-.2 1.2.3 1 .7 1.6l.5.7-.5.4-7.3-11.1.5-.4.5.7c.4.6.8 1.1 1.3 1.3.3.2.7.2 1.1.1.3 0 1-.4 2-1.1l14.7-10.2-23.4 4.4-.2-.4L365 492l-13.9 9.7c-1 .7-1.6 1.1-1.7 1.3a2.52 2.52 0 0 0-.6 1.7c0 .7.3 1.5 1 2.5l-.5.4-4.8-7.2.5-.4.1.2c.3.5.7.9 1.1 1.2s.8.5 1.2.5.9-.1 1.4-.3c.1-.1.6-.4 1.5-1l12.5-8.7c1-.7 1.6-1.2 1.8-1.5s.2-.7.2-1.2-.3-1-.7-1.6l-.4-.7.5-.4 5.7 8.7-9.5 15zm29.5 24.3l-9.7 8.7c-.9.8-1.5 1.5-1.5 1.9-.1.4.1.9.5 1.5l-.5.4-4.6-5.4 1.7-1.5c-1.3 0-2.3-.2-3.2-.5s-1.6-.9-2.3-1.7c-.6-.7-1-1.6-1.1-2.6s.1-1.8.5-2.5 1.3-1.7 2.8-3l4.9-4.4c.9-.8 1.4-1.5 1.5-1.8.1-.4-.1-.9-.5-1.6l.5-.4 4.6 5.4-8.5 7.6c-.9.8-1.4 1.3-1.6 1.7-.2.3-.3.6-.2.9 0 .3.2.6.4.9.3.3.6.6 1 .7.6.2 1.4.2 2.6.1l6.6-5.9c.9-.8 1.4-1.5 1.5-1.8.1-.4-.1-.9-.5-1.6l.5-.4 4.6 5.3zm8.6 8.9L397 545c1.3-.1 2.3.1 3.2.3.9.3 1.6.7 2.3 1.4.8.8 1.3 1.7 1.4 2.6.1 1 0 1.9-.5 2.7-.3.6-1.1 1.7-2.5 3.1l-4.4 4.8c-.9.9-1.3 1.6-1.4 2 0 .4.2.9.7 1.5l-.4.5-6.3-6.2.4-.5c.5.4 1 .5 1.5.4.3-.1.9-.5 1.7-1.4l5.1-5.4c.9-1 1.5-1.7 1.6-2 .2-.3.2-.7.2-1-.1-.3-.2-.6-.4-.8-.8-.7-2-.9-3.6-.5l-6.1 6.5c-.9.9-1.3 1.6-1.4 2s.1.9.5 1.4l-.4.5-6.3-6.2.4-.5c.6.5 1.1.7 1.6.6.3 0 .9-.5 1.8-1.5l6.4-6.9c.9-.9 1.3-1.6 1.4-2 0-.4-.2-.9-.7-1.5l.5-.5 5.2 5zm16 14.6l-8.4 10.3c-.7.9-1.1 1.6-1.1 2s.3.9.9 1.5l-.4.5-7.1-6.1.4-.5c.6.5 1.2.7 1.7.6.4-.1.9-.5 1.7-1.4l6.2-7.6c.7-.9 1.1-1.6 1.1-2s-.3-.9-.9-1.5l.4-.5 5.5 4.7zm3.2-7.9c.6.5 1 1.2 1 2 .1.8-.1 1.5-.6 2.1s-1.1.9-1.9 1c-.8 0-1.5-.2-2.1-.7s-.9-1.2-1-1.9.1-1.5.6-2.1 1.1-.9 1.9-1c.8-.2 1.5.1 2.1.6zm4.4 29.6l.2.7c-1.5.7-3 1-4.4.8s-2.6-.6-3.7-1.5c-1.8-1.4-2.8-3.2-2.9-5.4s.5-4.3 1.9-6.2c1.3-1.8 3-3.1 5-3.7 2.4-.8 4.7-.4 6.9 1.3 1.4 1.1 2.3 2.3 2.6 3.6s.2 2.5-.4 3.3c-.4.6-.9.9-1.5.9-.6.1-1.1-.1-1.7-.5s-.9-1-1-1.7.1-1.5.8-2.6c.4-.7.5-1.2.5-1.6-.1-.4-.2-.7-.5-1-.5-.4-1.1-.4-1.7-.2-1.1.4-2.1 1.3-3.2 2.8-.9 1.3-1.6 2.7-2 4.1-.4 1.5-.5 2.8-.2 3.9.2.8.7 1.5 1.5 2.1.5.4 1 .6 1.6.7.3.4 1.2.4 2.2.2zm15.9-4.3l-7.2 11.2c-.6 1-.9 1.7-.9 2.1.1.4.4.9 1.1 1.4l-.3.5-7.8-5.2.3-.5c.7.4 1.2.5 1.8.4.4-.1.8-.6 1.5-1.6l5.3-8.3c.6-1 .9-1.7.9-2.1-.1-.4-.4-.9-1.1-1.4l.4-.6 6 4.1zm2.2-8.3c.7.4 1.1 1.1 1.3 1.8.2.8 0 1.5-.4 2.1s-1 1-1.8 1.2c-.8.1-1.5 0-2.1-.5-.7-.4-1.1-1-1.2-1.8-.2-.8-.1-1.5.4-2.1.4-.6 1-1 1.8-1.2.6-.1 1.3.1 2 .5zm.1 27.5l-3 5.5c-.4.8-.6 1.3-.7 1.6a2.39 2.39 0 0 0 .2.9c.2.3.7.6 1.4 1.1l-.3.6-8.6-4.9.3-.6c.7.4 1.3.5 1.8.3.3-.1.8-.7 1.4-1.7l8.5-15.5c.6-1 .8-1.8.7-2.2s-.5-.9-1.2-1.3l.3-.6 6.3 3.6-1.1 1.9c.9-.5 1.8-.7 2.5-.7a6.3 6.3 0 0 1 3 .7c1.1.6 1.9 1.6 2.4 2.8s.7 2.5.5 4-.7 2.9-1.4 4.3a12.2 12.2 0 0 1-3 3.7c-1.2 1-2.4 1.5-3.7 1.6s-2.5-.2-3.6-.8c-.8-.5-1.5-1.1-2-1.9-.1-.6-.4-1.4-.7-2.4zm.9-1.6c.2 1.8.8 3 1.9 3.6.6.3 1.2.3 1.9-.1 1-.6 2.2-2.1 3.6-4.6s2-4.5 1.9-5.7c-.1-.9-.4-1.5-1.1-1.9-1.1-.6-2.4-.4-3.9.8l-4.3 7.9zm22.5 13c-2.7.8-4.7.8-6.3.1a3.34 3.34 0 0 1-1.8-1.9c-.3-.9-.3-1.7.1-2.6.5-1.2 1.5-2 3-2.4s4.2-.6 8.4-.6l.7-1.5c.5-1.2.8-1.9.8-2.3s-.1-.7-.4-1.1-.6-.7-1.1-.9c-.7-.3-1.4-.5-2-.4-.4.1-.6.2-.7.5-.1.2-.1.6.1 1.1.2.7.2 1.2 0 1.7s-.6.9-1.2 1.1-1.2.1-1.9-.2-1.2-.8-1.5-1.5c-.3-.6-.3-1.2-.1-1.8.4-.8 1-1.4 2-1.8s2.1-.5 3.4-.4c1.3.2 2.6.5 3.8 1.1 1.5.7 2.5 1.6 3.1 2.6s.8 2 .8 2.8c-.1.5-.4 1.6-1.2 3.3l-2.7 6c-.3.7-.5 1.2-.5 1.4s0 .4.1.5l.3.3c.3.1.7.1 1.2-.2l.3.6c-.9.5-1.8.9-2.5.9-.8.1-1.5 0-2.3-.4-.9-.4-1.5-1-1.8-1.6-.4-.8-.4-1.5-.1-2.4zm.5-1.2l2.3-5.1c-1.7.1-3.1.5-4.1 1.1-.7.4-1.2.9-1.5 1.5-.2.5-.2 1 0 1.6.1.4.5.8 1 1 .5.1 1.3.1 2.3-.1zm23.7-12.4l-7.4 19.6c-.4 1.1-.6 1.9-.4 2.3.1.4.6.8 1.3 1.1l-.2.6-8.7-3.4.2-.6c.7.3 1.3.3 1.8 0 .3-.2.7-.8 1.1-1.9l6.2-16.3c.4-1.1.6-1.9.4-2.3-.1-.4-.6-.8-1.3-1.1l.2-.6 6.8 2.6zm8 11l-4.2 12.7c-.4 1.1-.5 1.9-.3 2.3s.6.8 1.4 1.1l-.2.6-8.8-3 .2-.6c.7.2 1.3.2 1.8-.1.3-.2.7-.8 1-2l3.1-9.3c.4-1.1.5-1.9.3-2.3s-.6-.8-1.4-1.1l.2-.6 6.9 2.3zm.1-8.6c.8.3 1.3.7 1.7 1.4s.4 1.4.2 2.1-.7 1.3-1.4 1.6-1.4.4-2.2.1c-.7-.3-1.3-.7-1.7-1.4s-.4-1.4-.2-2.1.7-1.3 1.4-1.6c.8-.3 1.5-.4 2.2-.1zm12.6 6l-1.6 5.9 3.9 1.1-.5 1.7-3.9-1.1-2.8 10c-.3.9-.4 1.6-.4 1.9s.1.6.3.8.4.4.6.4c.8.2 1.7-.1 2.7-1.1l.4.5c-1.6 1.9-3.4 2.6-5.6 2-1.1-.3-1.9-.8-2.4-1.6-.6-.8-.9-1.6-.9-2.3 0-.4.2-1.5.7-3.2l2.4-8.8-2.2-.6.2-.6c1.8-.6 3.3-1.3 4.7-2.1s2.6-1.8 3.8-3l.6.1zm8.8 26.6l-2.9-13.4c-.4-2-.8-3.3-1.1-3.8s-.7-.9-1.2-1.2l.1-.7 9 2-.1.7c-.6-.1-1-.1-1.3.1-.3.1-.5.4-.5.6-.1.4 0 1.4.3 2.8l1.5 7.1 3-4.6c1.1-1.6 1.7-2.8 1.8-3.5a1.39 1.39 0 0 0-.2-1.1c-.2-.3-.7-.6-1.5-.8l.1-.7 5.6 1.2-.1.7c-.6-.1-1.1 0-1.5.3s-1.3 1.4-2.5 3.3l-7.4 11.2c-1.9 2.8-3.1 4.5-3.9 5.1-1 .8-2.2 1.1-3.4.8-1-.2-1.7-.7-2.2-1.4s-.7-1.4-.5-2.2c.1-.7.5-1.2 1-1.6s1.1-.5 1.7-.3c.6.1 1 .4 1.3.9s.4 1.1.2 1.9c-.1.4-.1.8 0 .9.1.2.2.2.4.3.3.1.6 0 1-.3.6-.4 1.4-1.4 2.4-3l.9-1.3zm33.5-12.9c1.5.1 2.8.7 4.1 1.5 1.2.9 2.1 2 2.6 3.5s.7 3 .6 4.7c-.2 2.4-1 4.3-2.4 5.8-1.7 1.8-3.8 2.6-6.5 2.3-2.6-.3-4.5-1.3-5.7-3.2s-1.7-4-1.5-6.4 1.1-4.4 2.7-6.1 3.6-2.4 6.1-2.1zm0 1.2c-.6-.1-1.2.1-1.7.5s-.9 1.3-1.1 2.6c-.3 1.3-.5 3.2-.7 5.7l-.1 3.6c.1.9.3 1.5.7 2s.9.8 1.4.8c.6.1 1-.1 1.4-.3.5-.4.9-.9 1.1-1.6.4-1.1.7-3.4 1-6.9.2-2 .2-3.4 0-4.2s-.5-1.4-.9-1.8a4.33 4.33 0 0 0-1.1-.4zm19 2.2l-.4 11.7c0 1.1.1 1.8.3 2.1.4.5 1.1.7 2.2.7v.6l-10.2-.3v-.7c.8 0 1.3-.1 1.7-.2.3-.2.6-.4.7-.7s.2-.9.2-1.8l.4-11.7-2.5-.1.1-1.8 2.5.1v-1.2-.8c.1-1.7.7-3.2 2.1-4.3 1.3-1.1 3.1-1.6 5.3-1.6 1.5 0 2.6.4 3.3.9.7.6 1.1 1.2 1 1.9 0 .5-.3 1-.7 1.4a2.27 2.27 0 0 1-1.8.5c-.6 0-1.1-.2-1.5-.5s-.5-.7-.5-1.1c0-.1 0-.3.1-.7.1-.2.1-.4.1-.6 0-.3-.1-.4-.2-.6-.2-.2-.4-.3-.7-.3-.4 0-.7.1-.9.4s-.4.7-.4 1.4l-.1 3.4-.1 2.1 2.5.1-.1 1.8-2.4-.1zm39.3-11.9l.7 8.5-.7.1c-.7-2.2-1.9-3.8-3.4-4.8s-3.3-1.5-5.1-1.3c-1.6.1-2.9.7-4.2 1.7-1.2 1-2.1 2.2-2.6 3.7-.6 1.9-.8 3.9-.6 6.1s.6 4.1 1.3 5.9c.7 1.7 1.7 3 3 3.8s2.9 1.1 4.8 1c1.6-.1 3-.6 4.2-1.4s2.5-2.1 3.8-3.8l.2 2.1c-1.3 1.6-2.6 2.7-4.1 3.5s-3.2 1.3-5.2 1.4c-2.7.2-5.1-.1-7.2-.9-2.2-.9-3.9-2.2-5.2-4.1s-2-3.9-2.2-6.1a12.57 12.57 0 0 1 1.3-6.8c1.1-2.2 2.6-4 4.6-5.3s4.2-2.1 6.6-2.3c1.8-.2 3.6.1 5.6.6l2.2.5c.4 0 .7-.2 1-.5s.4-.8.4-1.4l.8-.2zm20.5 12.5l-9.3 1.7c.5 2.2 1.4 3.8 2.7 4.9 1 .8 2.1 1.1 3.3.9.7-.1 1.4-.4 1.9-1 .5-.5 1-1.3 1.5-2.5l.7.3c-.6 2-1.4 3.5-2.4 4.5s-2.2 1.6-3.7 1.8c-2.5.5-4.6-.2-6.2-1.8-1.3-1.3-2.1-3.1-2.5-5.4-.5-2.8-.1-5.1 1.2-7 1.2-1.9 2.9-3.1 5-3.4 1.7-.3 3.3.1 4.8 1.3 1.4 1.1 2.5 3.1 3 5.7zm-4.6-.3c-.3-1.9-.7-3.2-1-3.9s-.8-1.2-1.3-1.4c-.3-.2-.6-.2-1.1-.1-.6.1-1.1.5-1.4 1.2-.5 1.2-.6 2.7-.3 4.5l.1.6 5-.9zm13.1-9.7l.5 2.1c.6-1.1 1.3-2 2-2.6s1.5-1 2.4-1.3c1.1-.3 2.1-.2 2.9.2.9.4 1.5 1 2 1.8.4.6.8 1.9 1.2 3.8l1.6 6.4c.3 1.3.6 2 .9 2.3.3.2.8.3 1.6.2l.2.6-8.4 2.2-.2-.6c.6-.2 1-.6 1.2-1.1.1-.3 0-1.1-.3-2.2L644 613c-.3-1.3-.6-2.2-.8-2.5s-.4-.5-.7-.7c-.3-.1-.6-.1-.9-.1-1 .3-1.8 1.2-2.3 2.9l2.2 8.8c.3 1.2.6 2 .9 2.2.3.3.8.4 1.4.3l.2.6-8.4 2.2-.2-.6c.7-.3 1.1-.6 1.3-1.1.1-.3.1-1.1-.3-2.4l-2.3-9.2c-.3-1.2-.6-2-.9-2.2s-.8-.3-1.6-.2l-.2-.6 6.8-1.9zm18.8-12.1l1.9 5.9 3.9-1.3.5 1.7-3.9 1.3 3.2 9.9c.3.9.5 1.5.7 1.7s.4.4.7.5.5.1.7 0c.8-.3 1.3-1.1 1.6-2.4l.6.2c-.2 2.5-1.4 4.1-3.5 4.9-1 .4-2 .4-2.9 0-.9-.3-1.6-.8-2-1.4-.2-.3-.6-1.4-1.2-3.1l-2.8-8.7-2.1.7-.2-.6c1.1-1.5 2-3 2.7-4.5s1.2-3 1.5-4.7l.6-.1zm14.8 1l1.4 3.6c.4-2.1.9-3.5 1.5-4.4s1.3-1.4 2-1.7a1.91 1.91 0 0 1 1.8 0c.5.2.9.7 1.2 1.4a2.79 2.79 0 0 1 .1 2c-.2.6-.6 1-1.1 1.2-.6.2-1.2.3-1.8.1l-1-.3c-.1 0-.3 0-.4.1-.3.1-.6.4-.8.8-.3.6-.5 1.3-.4 2.1.1 1.2.3 2.5.9 3.8l1.4 3.6.4.9c.2.6.4 1 .6 1.2.3.2.5.4.9.4.3 0 .8-.1 1.5-.3l.2.6-8.6 3.5-.2-.6c.7-.3 1.1-.7 1.2-1.1s-.1-1.3-.6-2.7l-3.4-8.7c-.3-.9-.6-1.4-.8-1.7s-.5-.4-.8-.5-.7 0-1.3.2l-.2-.6 6.3-2.9zm24.4 4.6c-1.1 2.6-2.4 4.2-3.9 5-.9.4-1.8.5-2.6.2-.9-.3-1.5-.8-1.9-1.7-.6-1.2-.5-2.5 0-3.9.6-1.4 2.2-3.8 4.9-7l-.7-1.5c-.5-1.1-1-1.8-1.2-2.1s-.6-.4-1.1-.4-.9 0-1.4.3c-.7.4-1.2.8-1.5 1.4-.2.3-.2.6-.1.9.1.2.4.4.9.6.6.3 1.1.6 1.3 1 .3.5.3 1.1 0 1.7-.2.6-.7 1-1.3 1.4-.7.3-1.4.4-2 .3-.7-.2-1.1-.5-1.4-1.1-.4-.8-.4-1.7-.1-2.7s.9-2 1.9-2.9a12.44 12.44 0 0 1 3.2-2.3c1.5-.7 2.8-1 3.9-.8s2 .6 2.6 1.2c.4.4.9 1.4 1.7 3l2.8 5.9c.3.7.6 1.1.7 1.3s.3.2.4.3c.2 0 .3 0 .4-.1.3-.1.5-.5.6-1l.7.1c-.2 1.1-.5 1.9-.9 2.6s-1 1.2-1.8 1.5c-.9.4-1.7.6-2.4.4-.6-.4-1.2-.9-1.7-1.6zm-.6-1.2l-2.4-5.1c-1 1.4-1.6 2.8-1.8 4-.2.8-.1 1.5.2 2.1.2.5.6.8 1.2 1 .4.2.9.1 1.4-.1.5-.3 1-.9 1.4-1.9zm5.7-26.6l10.1 18.2c.6 1 1.1 1.6 1.5 1.8.4.1 1 0 1.7-.3l.3.6-8.1 4.7-.3-.6c.7-.4 1-.9 1.2-1.4.1-.4-.2-1.1-.7-2.1l-8.4-15.2c-.6-1-1.1-1.6-1.5-1.8-.4-.1-1 0-1.7.3l-.3-.6 6.2-3.6zm29.7-20.6l3.8 5.4-.5.4c-1.2-1-2.2-1.6-3-1.9s-1.6-.3-2.5-.1c-.5.1-1.2.5-2.2 1.2l-1.5 1.1L736 575c.7 1 1.2 1.6 1.5 1.8s.7.2 1.1.2c.5-.1 1-.3 1.6-.7l.7-.5.4.5-10.6 7.9-.4-.5.7-.5c.6-.4 1-.9 1.2-1.4.2-.3.2-.7.1-1.2-.1-.3-.4-1-1.1-2l-10.9-15.3-1.5 1.1c-1.4 1-2.1 2-2.4 3.1-.3 1.4 0 3 .8 4.6l-.6.4-3.8-5.4 18.2-13.5zm10.2.9l2.4 2.9c-.2-2.1-.2-3.6.1-4.6s.7-1.8 1.3-2.3c.5-.5 1.1-.7 1.6-.6.6 0 1.1.4 1.6.9.5.6.8 1.2.7 1.8 0 .6-.2 1.1-.7 1.5s-1.1.7-1.7.7h-1.1a.76.76 0 0 0-.4.2c-.3.2-.4.6-.5 1-.1.6 0 1.3.2 2.1.4 1.1 1.1 2.3 2 3.3l2.5 3 .7.8c.4.5.7.8.9.9.3.1.6.2 1 .1.3-.1.7-.3 1.3-.8l.4.5-7.1 6.2-.4-.5c.5-.5.8-1 .8-1.5 0-.4-.5-1.2-1.4-2.3l-5.9-7.1c-.6-.7-1-1.2-1.3-1.3-.3-.2-.6-.2-.9-.2s-.7.2-1.1.6l-.4-.5 5.4-4.8zm5.3-16c.6-.6 1.2-.8 2-.8s1.4.3 1.9.8c.5.6.8 1.2.7 2 0 .8-.3 1.5-.9 2-.6.6-1.2.8-2 .8s-1.4-.3-1.9-.8c-.5-.6-.8-1.2-.7-2 .1-.7.4-1.4.9-2zm7.4 4.1l9.1 9.6c.8.9 1.4 1.3 1.9 1.3.4 0 1-.2 1.6-.8l.4.5-6.7 6.6-.4-.5c.5-.6.8-1.1.8-1.7 0-.4-.4-1-1.2-1.9l-6.7-7.1c-.8-.9-1.4-1.3-1.9-1.3-.4 0-1 .2-1.6.8l-.5-.5 5.2-5zm18.8 1.9l4.5 4.2c.6.6 1.1.9 1.4 1s.6.1.9 0 .7-.5 1.3-1.2l.5.4-6.6 7.4-.5-.5c.5-.6.7-1.2.7-1.7 0-.4-.5-.9-1.3-1.7l-12.9-12c-.9-.8-1.5-1.2-1.9-1.2s-.9.3-1.5.9l-.5-.4 4.9-5.5 1.6 1.5c-.2-1-.3-1.9-.1-2.7.2-1.1.6-2 1.4-2.8.9-1 1.9-1.6 3.2-1.8 1.3-.3 2.6-.1 3.9.4 1.4.5 2.6 1.3 3.8 2.4s2.2 2.4 2.8 3.8.9 2.7.7 4-.7 2.4-1.6 3.4c-.6.7-1.4 1.3-2.2 1.6-.6.4-1.5.5-2.5.5zm-1.3-1.2c1.8.2 3.1-.2 3.9-1.1.4-.5.6-1.1.4-1.9-.3-1.2-1.5-2.7-3.5-4.6-2.1-2-3.8-3-5-3.2-.8-.1-1.5.1-2 .7-.8.9-.9 2.3-.2 4.1l6.4 6zm4.9-27.5c.9-1.2 2-2.1 3.4-2.7s2.8-.7 4.3-.4 2.9 1 4.2 2c1.9 1.5 3 3.2 3.5 5.2.6 2.4.1 4.7-1.5 6.8s-3.5 3.2-5.7 3.3-4.3-.6-6.1-2c-1.9-1.5-3.1-3.3-3.6-5.6-.5-2.4 0-4.6 1.5-6.6zm1.1.7c-.4.5-.5 1.1-.4 1.7s.6 1.4 1.6 2.4l4.3 3.6c1 .8 2 1.4 3 2 .7.4 1.4.6 2 .5s1.1-.4 1.4-.8c.3-.5.5-.9.5-1.4 0-.6-.3-1.2-.8-1.8-.7-.9-2.5-2.4-5.2-4.5-1.6-1.2-2.8-2-3.5-2.3a3.27 3.27 0 0 0-1.9-.2c-.3.1-.7.4-1 .8zm3.7-19.9l17.1 11.6c1 .7 1.7 1 2.1.9s.9-.4 1.4-1.1l.5.4-5.1 7.9-.5-.4c.4-.7.5-1.3.4-1.8-.1-.4-.6-.9-1.6-1.5l-14.2-9.7c-1-.7-1.7-.9-2.1-.9-.4.1-.9.4-1.4 1.1l-.5-.4 3.9-6.1zm3.9-7.7c.4-.7 1-1.2 1.7-1.4s1.4-.1 2.1.3c.6.4 1.1 1 1.2 1.7.2.8.1 1.5-.3 2.2s-1 1.1-1.7 1.4c-.7.2-1.4.1-2.1-.3-.6-.4-1.1-1-1.2-1.7-.2-.8-.1-1.5.3-2.2zm8.2 1.9l11.2 6.8c1 .6 1.7.9 2.1.8s.9-.5 1.3-1.2l.5.3-4.8 8.2-.5-.3c.4-.7.5-1.3.3-1.8-.1-.4-.7-.8-1.7-1.5l-8.3-5c-1-.6-1.7-.9-2.1-.8s-.9.5-1.3 1.2l-.6-.3 3.9-6.4z"/></svg>