<?xml version="1.0" encoding="UTF-8"?>
<svg width="385mm" height="198mm" version="1.1" viewBox="0 0 385 198" xmlns="http://www.w3.org/2000/svg"><rect x="5e-7" y="135.6" width="388" height="64.396" style="fill:#0c6091;opacity:.999;stroke-width:0"/><rect x="5e-7" y="99.375" width="388" height="36.228" style="fill:#ffffff;opacity:.999;stroke-width:0"/><rect x="5e-7" y="2.7498e-6" width="388" height="64.757" style="fill:#0c6091;opacity:.999;stroke-width:0"/><rect x="5e-7" y="64.757" width="388" height="34.618" style="fill:#e25d20;opacity:.999;stroke-width:0"/><path d="m6.9388e-7 199.87 177.63-100.5-177.63-99.375z" style="fill:#f3e600;stroke-width:0"/><path d="m45.551 70.087-1.7709 4.7492 4.4709-3.0798 4.2676 3.5116-1.6838-5.3249 4.5289-3.1949h-4.9644l-1.8871-5.4976-2.0612 5.3825h-4.6305z" style="fill:#ffffff;stroke-width:.34962;stroke:#ffffff"/><path d="m64.531 70.748-2.8598 4.1951 5.0816-1.9367 3.3024 4.4174-.35758-5.5692 5.1656-2.0348-4.8218-1.1711-.51352-5.7849-3.2938 4.7417-4.4976-1.0923z" style="fill:#ffffff;stroke-width:.34962;stroke:#ffffff"/><path d="m77.62 78.069-3.7808 3.404 5.3997-.68804 2.1528 5.0673.98332-5.4946 5.5048-.76364-4.4047-2.2703.88336-5.7408-4.333 3.8331-4.1085-2.1176z" style="fill:#ffffff;stroke-width:.34962;stroke:#ffffff"/><path d="m87.872 93.522-4.6343 2.1278 5.3602.94381.52648 5.4737 2.5951-4.9519 5.4833.90281-3.5188-3.472 2.5739-5.2165-5.2906 2.3735-3.2821-3.2385z" style="fill:#ffffff;stroke-width:.34962;stroke:#ffffff"/><path d="m85.892 110.74-5.0854.46621 4.7319 2.669-1.3528 5.3324 4.1179-3.8044 4.8617 2.6712-2.1429-4.4398 4.1873-4.0607-5.7868.47992-1.9988-4.1412z" style="fill:#ffffff;stroke-width:.34962;stroke:#ffffff"/><path d="m77.097 124.71-4.9967-1.0468 3.7232 3.9379-2.8839 4.6966 5.0691-2.4257 3.8466 3.9781-.72159-4.8697 5.2119-2.6501-5.6708-1.2396-.67303-4.5422z" style="fill:#ffffff;stroke-width:.34962;stroke:#ffffff"/><path d="m54.99 131.3-4.4193-2.5378 2.3009 4.8918-4.216 3.5724 5.5789-.73965 2.4055 4.9681.84416-4.8502 5.7851-.90883-4.9993-2.9291.78741-4.5241z" style="fill:#ffffff;stroke-width:.34962;stroke:#ffffff"/><path d="m38.523 124.79-4.566-2.2682 2.595 4.7449-3.9904 3.8186 5.5236-1.0728 2.7041 4.8148.54678-4.892 5.7191-1.254-5.1688-2.624.51003-4.563z" style="fill:#ffffff;stroke-width:.34962;stroke:#ffffff"/><path d="m26.808 113.07-4.7065-1.9657 2.9041 4.5655-3.7285 4.0705 5.4405-1.4305 3.0175 4.6281.22121-4.917 5.6236-1.6241-5.3317-2.2814.20636-4.5864z" style="fill:#ffffff;stroke-width:.34962;stroke:#ffffff"/><path d="m21.508 93.5-4.6704 2.0487 5.3431 1.0347.43182 5.4818 2.6803-4.9071 5.4669.99582-3.4583-3.5312 2.6637-5.172-5.3308 2.2833-3.2257-3.2938z" style="fill:#ffffff;stroke-width:.34962;stroke:#ffffff"/><path d="m29.649 75.646-4.7915 1.7524 5.2666 1.367.08199 5.4979 2.9873-4.7296 5.3926 1.3359-3.2266-3.7406 2.9876-4.995-5.4655 1.9452-3.0096-3.489z" style="fill:#ffffff;stroke-width:.34962;stroke:#ffffff"/><path d="m52.168 96.078s-4.4341-5.5767-6.0764-7.2863c-1.6423-1.7096-2.9561-4.4776-3.2024-6.0652-.24635-1.5875-.12317-2.4423 1.0264-2.7273 1.1496-.28494 12.153 5.251 13.056 6.0244.90325.77341.78008 2.076 1.2317 4.3555.45163 2.2795.16422 5.6174.16422 5.6174s.78008 1.7503 2.915.93624c2.135-.81412 6.8154-3.9485 6.9797-4.0706.16422-.12212 5.05-.65129 5.3374-.61058.28739.04073 4.352 1.2619 5.1321 1.8318.78008.56987 2.6276.7327 1.0264 1.384-1.6012.65129-6.7333 3.9484-6.7744 8.7517-.04105 4.8033.65691 12.171.53374 13.311-.12317 1.1398-1.1906 2.7273-1.1906 2.7273l-8.8683 6.4315s-3.3256 1.384-3.2435.44777c.08213-.93623.41057-1.3433.78008-1.7096.36951-.36636 1.7654-3.2972 1.7654-4.3148s2.5455-7.8155-.94431-10.665c-3.4898-2.8494-3.9825-2.6459-3.9825-2.6459l-8.9914-1.099-6.487.28493-7.7597 5.2918s-1.2728-.52917-1.0264-2.076c.24635-1.5468.36951-4.3555 0-5.4139-.36951-1.0583-2.6276-9.2809-1.3549-8.5889 1.2728.692 6.6101 3.5007 7.0207 3.7042.41057.20354 10.387-1.1398 11.25-2.076.86219-.93624 1.6833-1.7503 1.6833-1.7503z" style="fill:#ffffff;stroke-width:.69923;stroke:#ffffff"/></svg>
