<svg xmlns="http://www.w3.org/2000/svg" viewBox="0 0 400 266.7" fill-rule="evenodd" xmlns:v="https://vecta.io/nano"><path d="M0 0h400v266.7H0z" fill="#fff"/><path d="M0 133.3v133.3h200 200V133.3 0H200 0v133.3m173.2-62.7c.6.7.2 1.5-1.4 2.9-1.6 1.3-1.5 1.9.2 2.9 4.4 2.5 5.1 7.5 1 7.5-.5 0-1.6.2-2.3.5-.8.3-1.6.5-1.8.5-2 0-7.6 2.5-11.7 5.3-.9.6-1.9 1.1-2 1.1s-.5.2-.7.4-.8.7-1.3.9c-.5.3-1.8 1-2.7 1.6-6.9 4.3-7 4.4-8.7 3.4-.9-.5-3.2-2.9-3.2-3.2 0-.1-.6-.6-1.3-1.1-1.7-1.2-2.2-2.6-1.3-3.5l.6-.6.7.6c.4.3.9 1 1.3 1.6.6.9 2 2.4 3.6 3.9l.7.6 2-1.1c1.1-.6 2.8-1.6 3.7-2.3 1-.6 1.8-1.2 1.9-1.2s.9-.5 1.7-1c1.8-1.2 1.9-1.3 4-2.5.9-.5 2.1-1.3 2.8-1.8.6-.5 2.2-1.1 3.4-1.5 1.3-.4 2.7-.9 3.1-1.1 1.1-.6 5.5-1.9 6.1-1.9 3.1 0 .6-3.2-2.8-3.5-2.5-.2-2.6-2.4-.2-4.8 3.3-3.3 3.7-3.5 4.6-2.6m53.6 2.9c.1.2 0 1-.3 1.8-.2.8-.5 2.1-.6 2.9-.1 1.1-.3 1.7-.9 2.4l-.7.9-2.6-.3c-1.5-.2-3.2-.4-4-.6-.7-.1-3.3-.4-5.7-.5-7.4-.5-10.3-1-11.1-1.9-.5-.5-1.6-.6-2.6-.2-.7.3-.9.8-.3.8.5 0 1.2 1 1.2 1.8 0 2.8-12.3 4.1-14.6 1.4-1.4-1.7-.6-6.4 1.1-6.4 1 0 1.2.9.6 2.7-.7 2.2.8 3.3 4.5 3.2 4.5 0 5.7-.9 3.3-2.2-1.3-.7-1.3-.8-.4-1.5 1.1-.8 19.3-.5 25.4.5 4 .6 3.8.6 4.5-.1.5-.5.7-1.1.8-2.3.4-2.3 1.9-3.8 2.4-2.4m6.4 1c.1.2-.3 1.1-.8 2.1s-1.2 2.1-1.5 2.7c-.6 1.1-1.6 1.8-2.5 1.8-.7 0-.9-.4-.4-.7.1-.1.3-.4.3-.6s.2-.9.5-1.4.6-1.5.8-2.1c.4-1.6 3.2-3 3.6-1.8m7.3 3c.9 1.1.8 3.1-.2 4.6-.4.6-.8 1.3-.8 1.4 0 .9-3.3 3.7-4.4 3.7-.9 0-2.8-1.1-3-1.8-.2-.8.1-1 2.1-1.3 2-.2 2.3-.6 1.3-1.6s-1-1.9 0-3.5c1.7-2.7 3.6-3.2 5-1.5m-3.1 2.3c0 .3.2.6.4.6.4-.1.3-.9-.1-1.1-.3-.1-.4 0-.3.5m11.9 2.2c2 2.4-3.3 9.3-6.2 8-2.3-1-2.5-2.4-.4-2.6 3.1-.4 4.5-1.5 4.5-3.5 0-1.8 1.3-2.9 2.1-1.9m7.5 5.2c.7.4.6 1.2-.1 1.6-.8.4-3.2 2.3-4.2 3.2-1.4 1.3-1.6 1 5.4 7.2 4.4 3.9 4.1 3.6 6 6.7s4.2 6.6 5.4 8.1c.6.8 1.1 1.6 1.1 1.8s.5.9 1.1 1.6 1.6 2 2.2 2.8 1.2 1.5 1.3 1.6.5.8 1 1.6c.7 1.3.8 1.5 1.8 1.5 1.3.1 1.3.8.1 1.5-1.3.8-1.1 1.5.5 1.9s1.8.7.6 1c-.5.1-1 .5-1.3 1-.6 1-.6.9.1 1.9l.6.8.6-.6c1.3-1.2 4-.5 3 .8-1.3 1.8-4.7 3-6.6 2.4-1.3-.4-1.4-.8-2.3-8.5-.2-1.6-.4-2.2-1.4-3.7-.6-1-1.5-2.4-1.9-3-.4-.7-.9-1.5-1.2-1.7-.5-.5-.7-.8-1.6-2.5-.3-.6-.7-1.2-.8-1.3-.2-.1-1-1.3-2.8-4-3.8-5.7-4.6-6.7-6.4-8.3-1.9-1.6-4.5-4.1-7.3-6.7-1.9-1.8-1.9-2.6-.2-3.9.7-.5 1.7-1.3 2.2-1.9 1.7-1.7 3.7-3 4.5-3.2.1 0 .3.2.6.3m-46.3 15.4c1.4 1.6 1 4.6-.5 4.6-.6 0-.7-.1-.7-1.4 0-.8-.2-1.7-.4-2.1-1.2-2.1.1-3 1.6-1.1m-27.4 0c0 .5-.1 1-.3 1.2s-.4.8-.4 1.4c0 2-.2 2.3-1.1 2-.5-.2-.8-.5-.8-.8s-.1-.6-.2-.6c-.4-.2.3-2.8 1-3.5.9-1 1.7-.8 1.8.3m-51.5-.2c1.2.3 2.8 1.5 2.8 2.1 0 .4-2.1 3.8-3.7 5.8-.5.6-1.2 2-1.7 2.9-1.6 3.5-1.8 3.9-2.3 5.2-.3.7-.6 1.8-.7 2.3a6.7 6.7 0 0 1-.7 1.8c-.8 1.4-.7 2.4.6 3.7 1.1 1.2 2.1 3.2 2.1 4.5 0 2.8-4.9 4.7-7.7 2.9a6.6 6.6 0 0 0-1.1-.4c-1.1-.2-2.6-1.7-2.1-2 .6-.4 1.3-.3 1.5.2.6 1.9 5.4 1.7 6.4-.2.9-1.8-.5-5.3-2.1-5.3-.1 0-.6-.2-1-.5s-1.5-.6-2.4-.8c-.9-.1-1.8-.4-2-.6s-1.1-.4-1.9-.4c-1.9-.2-2.4-.4-2.6-1.3-.2-1-.1-1 1.2-.4.6.3 1.5.5 2 .5.4 0 1.2.2 1.6.5 2.6 1.7 4.6.8 5.6-2.7.1-.4.5-1.3.8-2.1s.6-1.6.6-1.7c0-.2.2-.6.4-.8.2-.3.5-1.1.7-1.9.2-1.1.7-2 2-3.7.9-1.2 1.7-2.4 1.7-2.5s.3-.6.7-1.1c1.2-1.6.9-2.3-1.1-2.5-1.7-.1-2.4-.7-1.8-1.4.5-.4 2.6-.5 4.2-.1m5.2 4.3c0 .5-.4.7-.7.3-.2-.3.1-1.1.4-.9.2 0 .3.3.3.6m52.5 1.6c.4.2.8.4.9.6.3.4.2 8.7 0 9.8-.3 1.2-1.8 2.8-2 2.1-.1-.2 0-.5.3-.7 1-.8.5-6.2-.7-6.6-.5-.2-.9-.6-1.2-1.4-.2-.6-.6-1.1-.7-1.1s-.2-.3-.2-.6c.2-1.1 1.9-.8 2.2.4.5 1.6.7 1.5.7-.4 0-1-.1-1.8-.3-1.8-.1 0-.3-.1-.3-.3 0-.4.4-.4 1.3 0m16.7 1.6c.1.6 0 1-.3 1.4-.3.3-.6.9-.8 1.3-.4 1-1.1 1-1.1 0-.1-2.2 1.8-4.4 2.2-2.7m-6 .8c1.4 2.8 1.6 7.7.3 9.1-.3.3-.5.7-.5.8 0 .6-.4.2-.8-.6-.5-1.1-.4-2 .4-2.5s1-4 .3-4.6a2.87 2.87 0 0 1-.6-1.1c-.1-.5-.4-.9-.7-.9-.3-.1-.4-.2-.3-.4.2-.5 1.7-.3 1.9.2m-20 .8c2 .9 2.4 1.4 1.9 2.5-.1.3-.6.4-1.8.4h-1.7l-.2-1.2c-.3-2.2.1-2.5 1.8-1.7m33.2 0c.1.3.1 1.1 0 1.7l-.2 1.2h-1.7c-2.3 0-2.7-2.3-.4-2.4.2 0 .7-.2 1-.5.9-.7 1.1-.7 1.3 0m-16 3.9c.1.1 0 .3-.1.4-.4.2-1.3-.1-1.3-.4-.1-.3 1.2-.3 1.4 0m15.5 3.1c-.3.2-.5.8-.6 1.7s-.3 1.5-.5 1.5a1.31 1.31 0 0 0-.6.8c-.2.5-.4.6-1.1.6-1.4 0-1.6-.3-1.5-1.9 0-.8 0-1.7-.1-2-.3-.8.3-1.1 2.6-1.4 2.1-.1 2.6.1 1.8.7m-29.3 1.9c0 2.2-.1 2.5-.6 2.6-1.1.3-2 .2-2.2-.3-.1-.3-.3-.8-.5-1.1-1.3-2.5-.8-3.7 1.4-3.7l1.8.1.1 2.4m100.5 3.3a2.44 2.44 0 0 0 .1.7c0 .4.1 1 .3 1.4l.3.8.4-.9c.6-1.4 1.9-1.7 3.1-.8.8.7-.2 2.1-1.6 2.2-.9.1-1.1.2-1.4 1-.2.5-.6 1.1-1 1.2-1.5.7-2.9-.6-2.3-2.2.3-.7.2-.8-.4-1.4-1.2-1.1 0-2.8 1.6-2.3a7.78 7.78 0 0 0 .9.3m-94 1.2c.1.6.3 1.2.5 1.3.1.1 0 .6-.4 1.2-.4.5-.6 1.1-.6 1.3 0 .5-1 .8-1.4.4-.3-.3-.1-.8.7-1.1.5-.2.3-.2-.6-.2-3.9-.1-4-3.1-.1-3.8 1.5-.3 1.7-.2 1.9.9m15.5-.3c1.8 1.3 1.4 2.7-.7 3-1 .1-1.1.2-1.1.9 0 .8-.8 1.2-1.1.4-.1-.3-.3-.6-.4-.7-.4-.2-.7-2.3-.5-3.4.1-1.1 2.4-1.2 3.8-.2m-8.8 3.1c.2.2-.1.3-1.6.3-1.4 0-1.9-.1-1.9-.3 0-.5 3-.5 3.5 0m1.8 0c0 .1-.2.3-.5.3s-.5-.1-.4-.3c.1-.1.3-.3.5-.3.2.1.4.2.4.3m6.7 11c0 .7.1 1.3.3 1.3.1 0 .3.1.3.3 0 .6-1.1.2-1.8-.6-1-1-1.1-1.9-.1-2.6.8-.7 1.2-.2 1.3 1.6m-13.8.4c-.3 1.6-.7 1.6-1 .1s.1-2.4.9-1.7c.3.3.3.6.1 1.6m4.9-1.7c.2.3.1.5-.4 1-.4.3-.8 1-1 1.5-.4 1.2-1 .7-1.2-1-.1-1.6 1.6-2.7 2.6-1.5m4.8 1.2c.6 2.1.1 3-1.2 2.4-1.1-.5-1.3-1.1-.9-2.3.5-1.6 1.7-1.6 2.1-.1m-12.2 1.1c.6 1.2-.2 2-2.2 2.1-2.7.1-2.7-.1-.4-2.6.8-.9 2-.7 2.6.5m-56.8 6.4c.5.3 3.5.7 11.5 1.6 6.5.8 7.8.7 8.5-.6.7-1.2 2.7-1.6 4.7-.9.6.2 3.1.5 5.6.7 3.1.2 5.1.5 6.3.9 1.6.5 2 .5 3.5.2 1.3-.3 2.1-.3 3.2 0 2.1.4 9.1.4 9.8 0 .3-.2 1.5-.3 2.7-.4 1.2 0 3.1-.1 4.3-.3 3.2-.3 5.2 1.3 4.4 3.4-.4 1-.3 1 3.7 1 3.2 0 3.8-.1 4.6-.5 1.1-.7 2.9-.7 3.7 0 1.2.9 2.1.8 3.6-.5.7-.6 1.7-1.2 2.1-1.4.4-.1 1.2-.4 1.8-.6.9-.3 2.5-.4 8.1-.4 6.6 0 7.1 0 7.9-.5.5-.3 1.3-.5 2-.5 2.4 0 8.1-.6 9.1-1 2.1-.8 5-.1 5 1.2 0 .1.4.4 1 .6 1 .3 1.5.3 8-.4l6.7-.7c1.6-.2 3.5-.5 4.1-.7 1.5-.4 3-.5 4.3 0 .5.2 3.1.4 5.7.5 7.1.2 8.1.9 3.1 2.1-1.3.3-3.9.7-5.9.8-3.6.2-4.5.6-4.5 1.7 0 .3 2.1.3 2.2 0 .4-.7 12.1-.9 12.5-.3.7 1.1-2.8 5.2-5.8 6.8-.8.4-1.7 1.1-1.9 1.5-.8 1.4-4.3 3.5-6.3 3.9-.6.1-1.4.4-1.9.6-.7.3-2.2.5-8 .6-4 .1-7.6.3-8.1.5s-1.9.3-3.1.3c-3.6 0-8.6.5-9.6.9-1.2.6-5.7 1-10.9 1-3.5 0-4.9.1-5.8.4-1.5.5-3.9.3-4.4-.4-.3-.4-.4-.4-.7 0-.4.5-7.7 1.1-13.6 1-2 0-2.6.1-2.9.4-.2.2-.5.4-.6.4-.6 0-1.4 2.2-1.1 3 .4 1.1-.4 2.9-1.6 3.9-1.8 1.3-1.9 2.1-.4 3.8l1 1.1 8.5-.2c15.2-.3 16.9-.5 18.4-2.6 5.4-7.5 14.9-6.3 18.4 2.3.9 2.2 1 5.8.1 7.7-.3.7-.6 1.3-.6 1.5 0 .6-3.8 4.6-4.4 4.6-.2 0-.8.2-1.3.5-2.6 1.5-8.1.4-10.7-2.3-2.1-2.1-2.4-2.6-3-3.7-.7-1.5-.2-1.4-6.4-1a213.83 213.83 0 0 1-11.7.4c-9.8 0-10.8.1-12 1.1-1.7 1.4-1.2 2.5.7 1.6 2.5-1.2 3.8-.1 3 2.3-.8 2.1-.8 2.1.1 2.2.7.1 3.6-2.5 3.6-3.2 0-.4 1.1-1.3 1.7-1.3s.6.1.8 1.8l.3 3.2c.3 2.2-.8 2.9-2.3 1.4-.5-.4-.9-.8-1-.8s-.6.4-1.2.8c-1.1.9-1.3.9-2 .5-.4-.2-.7-.2-1.1.1-.9.6-2 0-2.2-1.4-.1-.6-.6-1.4-1.1-2.1l-.9-1-.9.5c-.7.4-1.1.9-1.7 2.3-.8 1.8-1.2 2.1-2.1 1.6-.3-.2-.4-.9-.4-3 0-2.7.1-3.3.9-4.3.5-.7.2-.9-1.4-.8-.8 0-2.6-.2-4-.5-4.5-.9-15.8-1.4-17.3-.8-.3.1-.8.8-1.2 1.6-1.6 3.2-7 3.4-10.2.3-1.1-1-1.3-1-3.4.6-2.5 1.9-7.8.6-8-2-.1-1.8-.4-2.1-1.9-2.1-2.5 0-3.2-.8-2.3-2.6.2-.4.4-1.1.5-1.4.2-.8 1.8-2.6 2.7-2.9.8-.3 13.6-.3 14.3 0 .3.1 1.1.1 1.9-.1 1.1-.2 1.9-.2 3.4.2 2 .4 9.7.8 16.3.8 4.9 0 6.4-1 5.1-3.6-.2-.4-.4-1.1-.4-1.6 0-1-.6-3.2-1-3.6-.2-.2-2.1-.3-5.8-.3-4.5 0-5.7-.1-6.5-.4-.5-.2-1.6-.6-2.4-.8-3-.8-2.6-2.5.6-2.5 1 0 2.4-1.6 1.7-1.9-.2-.1-3.2-.3-6.5-.4-7.3-.1-16.3-.5-19-.9-1.1-.1-4.2-.3-6.8-.3-3.6 0-5.1-.1-5.9-.4-.6-.2-1.6-.6-2.3-.8-2.1-.6-3.9-1.7-5.5-3.3-.8-.8-2.1-1.8-2.7-2.2-1.5-.9-4.8-4.3-5.3-5.5-.6-1.4-.1-1.7 2.1-1.5 1 .1 3.5.2 5.6.2 3 0 4 .2 4.7.5.8.4 2 .4 2 0-.1-1-1.1-1.4-4.5-1.7-4-.3-5.3-.5-7.4-1.3l-1.6-.6 1.1-.5c.9-.4 1.8-.5 5.2-.5 2.9 0 4.4-.1 4.9-.4.9-.4 3.4-.5 4.1-.2m24.7 3.2c-1.4 1.1 1 2.3 5.8 2.7 2.1.2 4 .5 4.4.6.4.2 1.9.3 4.2.2 3.5-.1 4.5.2 4 1-.4.7-9.9.4-11.4-.4-.6-.3-1.4-.4-2.8-.3-2.4.1-2.9.5-1.8 1.4 1.2 1 3.2 1.3 9.4 1.3 5.7 0 6.8.2 5.6.8s-7.9 1.1-9.6.6c-1-.3-2.1-.1-2.2.3-.2 1.1 6.6 2.3 9.7 1.8 1.6-.3 2.9 0 2.9.7 0 .4-.4.5-4.6.5-3.2 0-4.8.1-5.3.3l-.6.3.8.3c.5.2 2.2.3 5.1.4 4 0 5.1.2 4.5.7-.1.1-1.6.2-3.4.3-6.6.3-5 1.5 2.1 1.6 4.6.1 4.6.1 5.2.7.3.4 1 .9 1.6 1.1.5.2 1.1.7 1.3 1 .2.4.5.5 1 .4.6-.1.8 0 1 .6.5 1.3 2 2.2 2.8 1.9.6-.3.8-.2 1.7.7 1.2 1.2 1.5 1.2 2.8.2.9-.7 1.1-.8 1.8-.5.6.2 1 .2 1.8-.1 1-.3 1.1-.3 1.8.1.8.6 1.3.4 1.9-.5.2-.4.6-.6.8-.6.6 0 1.5-1 1.5-1.6 0-.7-1-1-1.6-.4-1.1 1-2.7.4-1.6-.6.3-.3.5-.7.5-.9 0-.3.3-.4 1-.4.6 0 1.2-.1 1.4-.3.3-.2.5-.1.9.2.3.2.8.4 1.3.4.4 0 1.3.2 2 .5l1.2.6.6-.6c.8-.7 1.5-.7 2.8 0s1.4.7 2.2-.1c.7-.7 1.5-.5 2.4.5.6.7 2.3.5 2.9-.2.6-.8 1.9-.9 3.1-.3s1.8 0 .9-.9c-.4-.4.9-.4 1.7 0s5 0 5-.4-.1-.4-1.9-.4c-1.3 0-1.7-.1-1.9-.8-.1-.2-.5-.5-1-.6s-.8-.3-.8-.4c0-.4 1.6-.3 1.8.1.8 1.3 8.1 1.3 9-.1.2-.3.8-.6 1.6-.7 2.1-.3 1.6-1.2-.8-1.2-2.1 0-1.5-1.1.8-1.4 1.5-.2 4.3-1.5 3.9-1.8-.4-.4-2.2-.4-3.3 0-2.2.7-3.1.7-6.1.5-3.2-.3-3.8-.5-4.6-1.2-1.1-.9 1.2-1.2 2.8-.3 1.1.6 4.5.5 5.6-.2.3-.2 1.8-.4 3.6-.5 3.2-.1 3.9-.3 5.1-1.2 1.4-1.1-3-2-4.6-1-1.2.8-12.9 1.3-13.6.5-.7-.7.7-1 5.5-1.2 7.8-.3 12.8-1 14.4-2l1.3-.8-.6-.6c-.5-.5-.8-.5-1.8-.4-.7.1-3.5.3-6.2.4-2.8.1-5.3.3-5.6.4-.4.1-1.2.1-2.1 0-2.2-.4-8.4-.1-9.9.5-2 .8-2 .8-.1 3 2.6 3.2 2.2 4.3-1.6 4.6-2.4.2-2.9 0-2.5-1.1.4-1-.1-1.4-1.9-1.4-1.5 0-1.6 0-2.3-1.1-.9-1.4-2.5-1.7-4.4-.7-1.3.6-3.2.7-3.6.2-.2-.3-.9-.4-2.8-.3-4.7.2-7-1.2-5.7-3.3.4-.6-.9-.6-16.7-.7l-17.6-.3c-1.1-.5-1.4-.5-1.9-.1m-23.2.4c-.2.2.3.9.7.9.2 0 .5.2.8.4 1.1 1 18.4 1.9 19.1 1 .8-1.2.1-1.6-2.8-1.7-.9 0-2.5-.2-3.5-.3-1.4-.2-2.3-.2-4.1 0-1.7.3-2.4.3-3 0-.9-.2-6.9-.5-7.2-.3m127.4.2c-1.2.2-2.8.2-3.6.2-4.8-.2-11.1.2-11.5.8-1.1 1.7 1.4 2 11.5 1.2l6-.4c.8 0 1.5-.2 1.8-.4s.7-.6 1.1-.7c1.6-.9-1.1-1.2-5.3-.7m-73.7 2.4c.6.6 1.3 1.5 1.5 2.1s.5 1.1.6 1.1.8.6 1.5 1.3 1.6 1.4 1.9 1.5c1.1.3 2.3 1.5 1.9 1.9-1.6 1.9-10.8-6.2-9.5-8.3.7-.9.9-.9 2.1.4m-6.7 1c.5.6 1.2 1.5 1.6 2.1.6.9 3.6 3.9 6.3 6.1 1.2 1 1.2 1.1.1 1.3-1.2.2-3.1-.8-4.8-2.5-.7-.7-1.9-1.6-2.6-2-1.1-.6-1.4-.9-1.8-2-.3-.9-.7-1.5-1.3-1.8-1-.6-.9-.5-.6-1.4.4-1.3 1.9-1.1 3.1.2m-57.4 0c-.2.8.2.9 5.1 1.1 4.5.2 4.8.2 4.8-.4.1-1-9.6-1.7-9.9-.7m147.6-.2c-2.9.3-3.7.5-3.1 1.1.9.9 10.2.2 10.2-.7-.1-.6-2.9-.8-7.1-.4m-133.8.3c-.9.4-.8.5 1.1 1 1.7.4 1.9.6 1.2 1.2s-.3.9 1 .9c.6 0 .9-.2 1.1-.5.3-.5.4-.5 7.6-.4 6.3.1 7.3.1 7.6-.2.7-.9-4.8-1.5-11.4-1.3-1.7 0-2.7 0-2.7-.2 0-.7-4.1-1-5.5-.5m122 0c-.5.1-1.1.4-1.3.5s-1.4.2-2.8.2c-6.5-.2-12.1.4-11.4 1.3.3.4 1.3.4 7.6.2 7.1-.2 7.2-.2 7.7.4.3.4.8.6 1.4.6 1.2 0 1.3-.2.6-1-.6-.7-.7-.7 1.6-1.2.8-.2 1.4-.5 1.4-.6.1-.7-3.1-.9-4.8-.4m-62.7 2c.3.6-.2 3.5-.7 3.5-.2 0-.4-.6-.5-1.5-.2-1.9.6-3.2 1.2-2m5 3c.2 2.9 0 3.4-1.3 2.9-1.7-.7-1.7-5.2.1-5.8.9-.3 1-.1 1.2 2.9m3.5-2.6c.3.4 0 3.1-.3 3.2-.4 0-1.2-1.4-1.2-2.2 0-1 1-1.7 1.5-1m-79.7.1c-.8.2-.5.5.7.8.7.2 1.5.5 1.7.8.7.6 5.9 1.1 6.5.6s.5-.7-.8-1.3c-.7-.3-1.2-.7-1.2-.8.1-.3-5.9-.3-6.9-.1m143.5.2c-.2.2-.8.6-1.5.8-1 .4-1.1.5-.9 1 .4.8 5.8.4 7.2-.5.5-.3 1.4-.7 1.9-.8 2.5-.5 1.3-.9-3-.9-2.6 0-3.4.1-3.7.4m-125.3.7c-1.6.2-2 .6-.9 1 .6.2 7.1.6 10.2.6 4.1 0 6.8-.6 5.3-1.1-.3-.1-2.9-.3-5.9-.3l-6.3-.2c-.5-.1-1.6-.1-2.4 0m101.9.2c-2.5.1-3.2.3-3.2.8 0 .2.1.4.2.4s1.3.1 2.7.1c1.4.1 2.7.1 2.8.1 4.9-.1 9.5-.4 10.1-.6 2.3-.9-2.7-1.2-12.6-.8m-111.4 1.8c-.9.2-1.3.8-.9 1.3s4.1.6 4.5 0c.6-.7-1.9-1.6-3.6-1.3m129.8.4c-.7.5-.8.6-.6.9.4.5 4 .5 4.7 0 1.5-1.1-2.4-2-4.1-.9m-116.6 0c-6.3.2-6.3 1.1.1 1.5 1.7.1 3.7.3 4.5.6 1.9.5 8.4.8 9.4.4 1.5-.6.4-1.1-2.5-1.1-2.4 0-4.3-.3-4.3-.8 0-.4-1.3-.8-2.2-.8-.4 0-2.7.1-5 .2m99.7.1c-.4.1-.7.3-.7.4 0 .5-1.6.8-4 .8-3 0-4.3.5-2.9 1 1.5.6 9 .2 10.4-.6.3-.1 2.1-.4 4.1-.5 3.5-.2 4.7-.5 3.7-1-.7-.2-9.7-.4-10.6-.1m-38.7.4c.2.2.2.3-.3.5-.9.4-1.4.4-1.6 0-.4-.6 1.2-1 1.9-.5m23.8 1.2c0 .3-.4.4-2.3.4h-2.3l1.9-.2c1.1-.1 2-.3 2.1-.4.3-.3.6-.2.6.2m-44.9 3.3c.9 1.3-1.3 1.6-3.6.4-1.3-.6-1.4-.9-1.2-1.7.3-1.4 3.6-.4 4.8 1.3m16.7-1.9c0 .1-.4.5-.8 1-1 1-1.6.7-.8-.4.5-.7 1.6-1.1 1.6-.6m-48.7 1c-.8.6-.2.8 2.5.8 1.3 0 3.2.2 4.2.3 2 .2 3.1-.2 2.3-1-.5-.5-8.3-.6-9-.1m81.9-.1c-1.7.6-.5 1.4 1.9 1.2 1-.1 2.8-.2 4.1-.3 2.6-.1 3.3-.3 2.5-.9-.6-.3-7.3-.4-8.5 0m-41.2.9c.7.3 1.3.6 1.3.7.4.3-.9.6-2.6.6h-1.9v-.9c0-1.3 1.2-1.4 3.2-.4m24-.3c-.2.2-.5.2-.9 0-.6-.3-.6-.3.3-.3.7 0 .9 0 .6.3m-3.4 1c.1.1 0 .3-.1.4-.3.2-1.1-.1-.9-.4s.8-.3 1 0m-23.8 1.2c0 1.4-2.8 2.1-3.1.8-.2-1 .1-1.2 1.6-1.2 1.1 0 1.5.1 1.5.4m-22.8 2.5c.1.1.5.3.8.3s.7-.1.7-.3c0-.1-.4-.3-.8-.3-.6.1-.8.2-.7.3m27.2 4.7c-.1.2-.1.5.1.6.3.2.5-.2.3-.6s-.3-.4-.4 0m35.2 3.1c-5.1 3-6.2 9.6-2.2 13.8 7.6 7.8 18.4-4.1 11.1-12.1-2.4-2.6-6.2-3.3-8.9-1.7m5.4 3.6c3.8 2.8 2.2 8.9-2.2 8.9-2.1 0-4.2-2.4-4.2-4.8 0-3.6 3.9-6 6.4-4.1m-49.2.9c-.1.2-.1.8 0 1.4l.2 1.1.2-1.2c.2-1.1 0-1.9-.4-1.3m46.5 1.2c-1.9 1-1.5 4.1.6 4.1 1.7 0 2.6-2.5 1.3-3.6-1-.8-1.1-.9-1.9-.5m-92.5 1.9c0 .8.3 1 1.4.8l.8-.2-.8-.6c-.9-.9-1.4-.9-1.4 0m75.6.1c-.5.1-2 .2-3.5.2-1.7 0-3.1.2-3.9.5-.9.3-2 .4-3.9.4-5.5-.2-7.9.2-7.1 1 .4.4 12.7.1 14.2-.3 1.2-.3 4.1-.5 9.2-.6 2.5 0 2-.7-.8-1-2.6-.5-3-.5-4.2-.2m-59.2.3c-.3.6.5.8 3.2.8 1.7 0 3.2.2 4 .4 1.8.6 16.9 1.1 18.1.6 1.5-.6 0-.9-4.8-1.1a225.42 225.42 0 0 1-6.9-.4c-3.7-.5-13.4-.7-13.6-.3m-10.9.2c.1.2 1.7.3 4 .3 2.5 0 3.8-.1 3.7-.3s-1.7-.3-4-.3c-2.5.1-3.8.2-3.7.3m1.8 2.5c-1 .4-1.5 1.8-.6 1.8.3 0 1.9-1.3 1.9-1.6s-.7-.5-1.3-.2m11.1.9c-.4.4-.4.5.1 1.1.3.4.6.6.6.5 1-1.2.3-2.8-.7-1.6m29.9 1.7c0 .3 1.3.6 1.8.4.2-.1.3-.2.2-.4-.2-.3-2-.3-2 0m-3.9 1.2c.5 1.4-1 6.6-2 6.6-1.1 0-1.3-.6-1-3.6.4-3.1 2.3-5 3-3" fill="#003257"/></svg>