<svg xmlns="http://www.w3.org/2000/svg" width="180" height="360">
  <path style="fill:#ed2e38;fill-opacity:1;fill-rule:evenodd;stroke:none;stroke-width:1.7999999499999999;stroke-linecap:round;stroke-linejoin:miter;stroke-miterlimit:4;stroke-opacity:1;stroke-dasharray:none;stroke-dashoffset:0" d="M0 0h180v360H0z"/>
  <path d="m28.754336 23.998166-9.521693 13.39404c4.174396 7.155622 5.97031 17.64639 3.59801 29.369866-5.677086 32.87225 16.581302 39.483908 35.867574 52.326388 27.132787-14.02315 40.470818-25.152902 35.942672-50.452313-4.391168-16.245231-1.688139-24.678382 3.202736-30.676596l-9.521689-13.961385c-18.072625 6.517412-37.548008 7.907996-59.56761 0z" style="fill:#ed2e38;stroke:#f7d117;stroke-width:2.93407083;stroke-linecap:butt;stroke-linejoin:miter;stroke-miterlimit:4;stroke-opacity:1;stroke-dasharray:none;fill-opacity:1"/>
  <path d="M94.023416 42.747761 74.625589 49.46934c.482229 4.503304-5.496577 2.032902-7.43286 6.012467l2.948683.102912 1.84568.270577c3.516796-.733245 1.180082-.611977 9.31456.289589l10.91403 3.803081c.59561-1.010318.763912-2.009858.699895-3.003537-.140117-2.174899-1.393173-4.321725-1.714665-6.492049l3.220339-7.620967.852448-.857359z" style="fill:#f7d117;fill-opacity:1;fill-rule:evenodd;stroke:#f7d117;stroke-width:.77913904px;stroke-linecap:butt;stroke-linejoin:miter;stroke-opacity:1"/>
  <path d="M78.101258 51.375164v2.95293M81.811154 51.006049v2.952927M85.211885 50.636933v2.768372" style="fill:#ed2e38;fill-opacity:1;stroke:#ed2e38;stroke-width:1.38542974px;stroke-linecap:butt;stroke-linejoin:miter;stroke-opacity:1"/>
  <path d="m75.628126 45.327025-.06878 9.945138c-1.202673 1.757426-1.65423.171578-6.41053-.190734l-.04474-10.441102.64951-.140305.03884 1.233632 1.763407.283047.0025-1.282884 1.123617.202831.0488 1.241836 1.82024.270421-.05728-1.238903 1.134356.117023zM68.015674 43.160868h-1.645891v1.540117h-1.645891v-1.540117h-1.645891v1.540117H61.43211v-1.540117h-1.645891V56.76379c-.06647.4719-.05385 1.442105.226295 1.295475 1.520293-.795721 7.808648-1.229448 8.00316-1.185543V43.160868z" style="fill:#f7d117;fill-opacity:1;fill-rule:evenodd;stroke:#f7d117;stroke-width:.77913904px;stroke-linecap:butt;stroke-linejoin:miter;stroke-opacity:1"/>
  <path d="M64.723892 47.011161h-2.468836v3.080235h2.468836z" style="fill:#ed2e38;fill-opacity:1;fill-rule:evenodd;stroke:#ed2e38;stroke-width:.77913904px;stroke-linecap:butt;stroke-linejoin:miter;stroke-opacity:1"/>
  <path d="M62.895258 71.414985c-.689654-.04803-1.378225-.08306-2.064845-.105814-1.644992-.05453-3.278783-.03866-4.889426.03737-.994014.04692-1.979212.116748-2.952784.207085-12.838193 1.19124-23.964524 6.083782-29.77141 10.603288l1.802816 7.627232c67.628286.03866 1.356901.115203 67.253852-.08263l1.91202-4.901167C84.892865 76.960636 72.9801 72.117354 62.895258 71.414985z" style="font-size:medium;font-style:normal;font-variant:normal;font-weight:400;font-stretch:normal;text-indent:0;text-align:start;text-decoration:none;line-height:normal;letter-spacing:normal;word-spacing:normal;text-transform:none;direction:ltr;block-progression:tb;writing-mode:lr-tb;text-anchor:start;baseline-shift:baseline;color:#000;fill:#f7d117;fill-opacity:1;stroke:none;stroke-width:1px;marker:none;visibility:visible;display:inline;overflow:visible;enable-background:accumulate;font-family:Sans;-inkscape-font-specification:Sans"/>
  <path d="M36.266154 83.760096c-3.088762.185978-6.105824 2.498268-6.530473 6.246559 13.656014.02183.0047-.04471 13.687639.0098-.835779-4.465017-4.068404-6.442305-7.157166-6.256327zM57.952462 78.781616c-4.358021.34395-8.610957 4.524012-9.203251 11.287859 19.269208.0023.0066-.08066 19.313811-.01962-1.187538-8.053545-5.752539-11.612184-10.11056-11.268235zM80.279743 83.752701c-3.088762.185978-6.105824 2.498268-6.530473 6.246559 13.656014.02183.0047-.04471 13.687639.0098-.835779-4.465017-4.068404-6.442305-7.157166-6.256327z" style="font-size:medium;font-style:normal;font-variant:normal;font-weight:400;font-stretch:normal;text-indent:0;text-align:start;text-decoration:none;line-height:normal;letter-spacing:normal;word-spacing:normal;text-transform:none;direction:ltr;block-progression:tb;writing-mode:lr-tb;text-anchor:start;baseline-shift:baseline;color:#000;fill:#ed2e38;fill-opacity:1;stroke:none;stroke-width:1px;marker:none;visibility:visible;display:inline;overflow:visible;enable-background:accumulate;font-family:Sans;-inkscape-font-specification:Sans"/>
  <path d="M58.25 107.78125c-3.673096 0-7.86676 1.40285-11.51132 2.70448l2.02264 2.67331c6.692541-2.3902 12.764889-2.98674 19.45743-.59654l3.38616-2.16199c-3.64456-1.30163-9.681814-2.61926-13.35491-2.61926z" style="font-size:medium;font-style:normal;font-variant:normal;font-weight:400;font-stretch:normal;text-indent:0;text-align:start;text-decoration:none;line-height:normal;letter-spacing:normal;word-spacing:normal;text-transform:none;direction:ltr;block-progression:tb;writing-mode:lr-tb;text-anchor:start;baseline-shift:baseline;color:#000;fill:#f7d117;fill-opacity:1;stroke:none;stroke-width:3;marker:none;visibility:visible;display:inline;overflow:visible;enable-background:accumulate;font-family:Sans;-inkscape-font-specification:Sans"/>
  <path d="M58.375491 102.81127c-4.875514.11978-9.120841 2.21122-13.125 2.40625-2.678947.13047-6.749928-1.23337-9.51124-2.61639l.01977 3.1136c3.264266 1.63492 6.560225 2.65164 9.61647 2.50279 4.855543-.23649 9.119224-2.30861 13.09375-2.40625 3.999524-.0983 8.375182 1.43727 13.0625 2.03125 2.949762.3738 6.080434.3297 9.1875-.9375l1.82645-4.22999c-2.485802 1.01382-7.972924 2.53658-10.63895 2.19874-4.236452-.53684-8.755522-2.17984-13.53125-2.0625zM59.1875 96.71875c-4.474241-.04209-6.974071 2.772064-14.15625 2.342522-2.184197.002-4.071042-1.340286-5.84375-1.748772-2.567074-.510873-5.78507-.93627-9.53125-.1875l.59375 2.9375c3.216597-.642919 5.964865-.288788 8.375.1875 9.474392 4.57647 13.886034-.0868 20.53125-.5313 3.784363.0356 5.313594.87781 7.90625 1.46875 2.035257.45019 3.867386.42169 5.579361.19948 3.841272-.49861 7.17567-1.975354 10.514389-1.38693 1.552993.002 3.23977.0729 4.8125-.09375l.5397-2.74434c-1.243167.131754-3.728799-.16026-5.3522-.16191-5.209386-.951942-10.747941 2.161874-15.40625 1.281249-2.19258-.499748-4.32181-1.522609-8.5625-1.562499zM58.0625 90.65625c-1.400344.08371-2.842442.498461-4.40625 1.1875v-.03125c-10.692391 4.904902-12.44177-.888199-20.063279-.851534-2.409548.153334-4.764432.590963-6.655471 1.382784l1.1875 2.75c1.777374-.764046 3.715767-1.183748 5.88219-1.242026 3.78837.27423 7.494123 2.500431 11.072663 2.583676 3.337259.04779 6.317064-.822358 9.420147-1.747896h.09375l.09375-.0625c2.843529-1.302847 4.321435-1.285985 7-.53125 6.551377 1.832445 13.018215 2.229086 19.78125.0625 2.839991-.141749 5.472088.204046 8 1.3125l1.1875-2.75c-7.1394-3.216617-11.864555-.465301-16.510897.010974-4.033882.220952-8.112912-.263656-11.645353-1.510978-1.521828-.428803-2.967352-.650387-4.4375-.5625z" style="font-size:medium;font-style:normal;font-variant:normal;font-weight:400;font-stretch:normal;text-indent:0;text-align:start;text-decoration:none;line-height:normal;letter-spacing:normal;word-spacing:normal;text-transform:none;direction:ltr;block-progression:tb;writing-mode:lr-tb;text-anchor:start;baseline-shift:baseline;color:#000;fill:#f7d117;fill-opacity:1;stroke:none;stroke-width:3;marker:none;visibility:visible;display:inline;overflow:visible;enable-background:accumulate;font-family:Sans;-inkscape-font-specification:Sans"/>
  <path d="m24.375 64.46875-1.34375 1.5 12.53125 11.125 1.3125-1.5-12.5-11.125z" style="font-size:medium;font-style:normal;font-variant:normal;font-weight:400;font-stretch:normal;text-indent:0;text-align:start;text-decoration:none;line-height:normal;letter-spacing:normal;word-spacing:normal;text-transform:none;direction:ltr;block-progression:tb;writing-mode:lr-tb;text-anchor:start;baseline-shift:baseline;color:#000;fill:#f7d117;fill-opacity:1;stroke:none;stroke-width:2;marker:none;visibility:visible;display:inline;overflow:visible;enable-background:accumulate;font-family:Sans;-inkscape-font-specification:Sans"/>
  <path d="m24.90625 60.21875-.53125 1.6875L47.5 69.1875l.53125-1.71875-23.125-7.25z" style="font-size:medium;font-style:normal;font-variant:normal;font-weight:400;font-stretch:normal;text-indent:0;text-align:start;text-decoration:none;line-height:normal;letter-spacing:normal;word-spacing:normal;text-transform:none;direction:ltr;block-progression:tb;writing-mode:lr-tb;text-anchor:start;baseline-shift:baseline;color:#000;fill:#f7d117;fill-opacity:1;stroke:none;stroke-width:1.79999995;marker:none;visibility:visible;display:inline;overflow:visible;enable-background:accumulate;font-family:Sans;-inkscape-font-specification:Sans"/>
  <path d="M61.1875 71.21875c.036258-4.571001-5.200051-5.535466-5.5625.03125v1l5.5625-.03125zM24.503634 50.001938l.151889 1.10126c-1.270087 3.190118.910159 3.094211-.101318 5.074601-.680849 1.333048 9.354-6.79321 8.430505-5.234996-1.872968 3.160259-4.690914 8.232992-3.61423 7.924409 3.623266-1.038445 9.866898-4.606998 11.834763-5.49414.745178-.335937.928451 6.265578 1.926274 5.203247 2.553024-2.718075 4.764615-6.888149 5.66121-6.494524 2.07412.910585 4.584621 4.078923 5.148654 2.990848.824473-1.59049 1.087666-4.204177 1.469234-3.960596 2.91712 1.862199 4.003961 2.960716 4.573507 2.994246 1.251344.07367-1.094068-3.467741-.359122-3.762543v-1c-10.60255-11.344948.0041.04015-10.548842-11.261356-.294913-.315832-.496048-.43641-.9487-.256082-.919234.366207-2.948115 2.044932-9.419461 6.35702-.932657.621463-.715232.501723-3.037328-1.454565-.07849-.06612-.232588-.115426-.345052-.03697-9.436863 6.583144-6.404627 4.166577-10.821983 7.310141z" style="font-size:medium;font-style:normal;font-variant:normal;font-weight:400;font-stretch:normal;text-indent:0;text-align:start;text-decoration:none;line-height:normal;letter-spacing:normal;word-spacing:normal;text-transform:none;direction:ltr;block-progression:tb;writing-mode:lr-tb;text-anchor:start;baseline-shift:baseline;color:#000;fill:#f7d117;fill-opacity:1;stroke:none;stroke-width:1px;marker:none;visibility:visible;display:inline;overflow:visible;enable-background:accumulate;font-family:Sans;-inkscape-font-specification:Sans"/>
  <path d="M60.4375 58.59375c-.588977.117889-1.134143-.06101-1.830005.206929-.805943.31032-.8189-1.250913-2.673266 1.598261-.743278 1.142021-2.426619 1.508088-3.652979 2.50731-2.951146 2.404556-5.802624 5.749091-7.5625 9.90625l5.220038-.213244c5.964215-7.636311 9.655919-8.986843 20.374051-2.429957.752843.606007.897886-4.116975 2.110964-3.295731.07792.05275.689713.397518 1.58171.909692.331066.190093 1.673258 2.879952 2.068552 3.109797.315322.183344-.325576-2.099395.01578-1.898044 2.11856 1.249647 4.611754 2.783817 5.905976 3.829525 1.341983 1.084298-.589671-2.833748-.929081-6.646378-.426005-4.785354 11.163898 6.833037 10.66982 8.8094 2.386873-3.622951 2.990662-5.177571 3.015323-6.497275.02041-1.092182-1.178625-2.1758-.446292-3.833097 3.258893-7.374997-18.281603-8.746385-33.868091-6.063438z" style="font-size:medium;font-style:normal;font-variant:normal;font-weight:400;font-stretch:normal;text-indent:0;text-align:start;text-decoration:none;line-height:normal;letter-spacing:normal;word-spacing:normal;text-transform:none;direction:ltr;block-progression:tb;writing-mode:lr-tb;text-anchor:start;baseline-shift:baseline;color:#000;fill:#f7d117;fill-opacity:1;stroke:none;stroke-width:1px;marker:none;visibility:visible;display:inline;overflow:visible;enable-background:accumulate;font-family:Sans;-inkscape-font-specification:Sans"/>
</svg>
