<?xml version="1.0" encoding="UTF-8"?>
<svg width="600" height="400" enable-background="new 0 0 431.962 215.981" overflow="visible" version="1.0" viewBox="0 0 600 400" xml:space="preserve" xmlns="http://www.w3.org/2000/svg">
<rect width="600" height="400" fill="#DB2028" style="fill:#76232f;stroke-width:1.6039"/>
<rect y="180" width="600" height="40" fill="#FFD81F" style="fill:#f2a900;stroke-width:1.3289"/>










<g transform="matrix(1.6483 0 0 1.6762 173.57 -25.994)"><path d="m108.2 183.8c17.512-14.127 16.499-32.27 16.499-32.27v-75.841l-95.985-2e-6v75.841s-1.0127 18.143 16.499 32.27c0 0 11.738 10.158 31.493 10.158 19.755 0 31.493-10.158 31.493-10.158z" style="fill:#d22730;paint-order:fill markers stroke;stroke-linecap:round;stroke-width:.35278;stroke:#000000"/><path d="m116.19 134.1c.0167.98556-.33433 1.4028-1.6206 3.2737-1.2862 1.8709.60152 4.193.60152 4.193s.23405.0503-1.2526.0837c-1.1526.0668-1.1693-.53476-2.4221-.85214-1.5869-.3341-2.0547 2.1213-2.0547 2.1213 0 1e-5.43397-.21687 1.3694-.23358.93544-.0167.61813.26735 2.205.96894 1.5869.70158 2.0547-.36794 2.0547-.36794v2.8401c-.53455.3675-1.4532.25048-2.2717-.35088-.81852-.60137-1.2026-.73514-2.0211-.65164s-1.7539 1.7038-1.7539 1.7038c1.0023-.11692 1.052-.13336 2.3549.38447 1.303.51784 1.8832.9862 2.5724.8015.36404-.0975 1.1193-.66818 1.1193-.66818v2.9264c-5.588.90492-10.323 7.4807-10.323 7.4807l-.73691.86455 14.067 1.9751s6.0133-2.9736 6.2017-3.7233.4465-6.1655.4465-6.1655-2.1899-.54428-7.6507-.53847v-2.6691c.20045.41761 1.7205.7019 3.0401-.75137 1.3196-1.4533 3.0401-.68523 3.0401-.68523-.85193-2.088-2.7558-2.3883-4.1088-1.1188s-2.0717.89659-2.0717.89659v-3.3192c.93544.78511 2.4387.30109 3.6582-.40049 1.2194-.70159 2.1048-.48472 2.1048-.48472-.88533-1.1359-1.2526-1.3862-2.5389-1.4196s-2.99 1.4864-3.5579.75138c-.56795-.73499-.0169-1.6369.53432-3.9755.55126-2.3386-.90197-2.8062-.98547-2.8898z" style="fill:#d0d3d4;paint-order:fill markers stroke;stroke-linecap:round;stroke-width:.35278;stroke:#000000"/><path d="m38.336 135.15c-.0334.60135.00011.73491-.88522 2.9399-.88533 2.205.0998 3.2658.14159 3.5331.0418.26727-.0749.39274-.0749.39274-1.019.60136-1.8208-.46773-3.5414-.71829-1.7206-.25057-3.099 2.1229-3.099 2.1229s.99824-.27204 1.3467-.39016 1.4409-.0353 1.9193.1478c.47838.18308 1.3289 1.1756 1.6242 1.2346.2953.0591.623.0177.71159-.0532.0886-.0709.13664-.26025.33744-.25424.2008.006.49248-.1385.49248-.1385v2.5926l-.55966.0837c-1.0023-.0334-1.1193-.35095-1.587-.6015-.46772-.25058-.26752-.43406-1.6206-.38396s-2.8226 2.6556-2.8226 2.6556c1.47.0835 2.121-.60133 3.0231-.56793.90204.0334 1.3699.65165 1.3699.65165s.73482.88526 1.3028.41754c.56794-.46773.95239-.48473.95239-.48473v2.9492c-5.3027-.66127-8.6636 1.7146-8.6636 1.7146l.709 5.6224 17.576 5.0555 1.8428-5.1025s-1.8902-4.6303-8.7411-6.7092c-.32885-.0998-.65047-.18359-.96841-.25993v-2.7285s.33073-.5904.74414-.555 1.4059.90942 2.1146.89762c.70871-.0118 1.7123-.86211 2.3384-1.6299.62602-.76776 1.9611.0946 1.9611.0946-.56697-2.0907-1.335-1.9727-1.9374-1.9963s-1.9844.76747-3.4019 1.2754c-1.4174.50789-1.7952-.38965-1.7952-.38965v-2.5161s.79154-1.7478 2.0082-.76739c1.2166.98038 2.2796.6024 3.5434 0s1.4883.22428 1.4883.22428c-.28348-1.2993-1.0043-2.4334-2.1146-2.5869-1.1103-.15356-1.7126.42551-3.13 1.1224-1.4174.69691-1.6356.0382-1.6356.0382-.11693-2.5391.16703-1.3864.61805-3.7083.45102-2.3219-1.587-3.2241-1.587-3.2241z" style="fill:#d0d3d4;paint-order:fill markers stroke;stroke-linecap:round;stroke-width:.35278;stroke:#000000"/><path d="m29.601 157.3c.47247.18899 6.6618 4.9137 18.048.61421 11.387-4.2995 18.521 1.3229 25.088 2.5041 6.5673 1.1812 7.843.14174 10.536-.56697 2.6931-.7087 8.1737-.89769 8.1737-.89769s7.4178-2.9766 13.843-1.0867c6.4256 1.8899 11.812 3.26 18.993-.99219 0 0-.22451 6.661-5.5515 15.273 0 0-10.706.77825-11.475-1.2597 0 0-.25056-.30068-.13363-1.3698 0 0-1.5201-.11693-1.637.55125-.11693.66817-.0334.71828-.0334.71828s-4.864-2.1009-15.353.59215c-10.489 2.6931-15.757 2.1025-19.678.68508-3.9215-1.4174-8.1215-2.2915-10.134-2.2915-1.6655 0-1.2461-1.4824-.8032-2.1852 0 0-1.4174-.34255-2.1498.64964 0 0-.33073.70871-.11812 1.2048 0 0-6.5437.66146-11.268 2.3151-4.7247 1.6537-11.434-.0472-11.434-.0472l-3.7798-7.6068-1.3229-5.4807z" style="fill:#d0d3d4;paint-order:fill markers stroke;stroke-linecap:round;stroke-width:.35278;stroke:#000000"/><path d="m114.22 166.84s.85045 1.3229 1.2993 1.4174m6.1037-1.9172s-5.962 2.2716-6.0801-1.0121c0 0-1.4883.35435-1.3229 1.5119 0 0-4.2522-.23623-7.7958-1.7481-3.5435-1.5119-7.5595-.63783-8.6226-.23623-1.0631.4016-3.9924 1.1103-3.9924 1.1103l-4.3231.11812s-8.2446 3.7561-14.694 1.6536c0 0-.96047 1.6928-.86025 1.8098.10024.11693 1.4366.80181 1.4366.80181s3.6523 1.4044 9.7708-.55632c6.1185-1.9608 12.615-1.7481 12.615-1.7481l1.4174-.23623s2.0552-1.7009 5.646-.68508c3.5908 1.0158 9.3435 4.394 15.722 1.8899m-43.851-3.1743s.25377 1.119 2.0491 1.5442m-38.695-2.6694s-.003 1.4092 1.6506 1.76m81.1-3.3074s-6.4935 3.1539-14.053.36631c-7.5595-2.7876-11.623-1.4174-11.953-1.0394-.33074.37797-9.5912 1.3702-9.5912 1.3702s-2.9766 2.3151-7.0398 1.9844c0 0-1.7961-.0254-1.8796-1.629 0 0-1.8208.53454-1.5869 1.6203 0 0-2.3212-.36925-2.581-.60548-.25987-.23624-3.5199-.77958-3.6144-.82683-.0945-.0472-2.1497-.42522-3.1892-1.1103-1.0394-.68508-8.3391-1.6536-8.3391-1.6536s-5.5515-.8032-13.891 2.8584c0 0-3.3545.96856-3.3545-1.9135 0 0-1.819 1.0158-1.6773 2.1261 0 0-6.7091.62602-8.8352-.8977l-.41341-.0591m19.803-3.9984s.46639.97462 1.3523 1.4117m-22.166-.91052s9.2208 4.6772 20.814-.50114c0 0-.25413-1.4704.92705-1.5413 1.1812-.0709.8032-.0473.8032-.0473s-.44402.73661.0905.87025c.53454.13363 4.1427-.53454 6.4813.15034l7.6005 1.8041s2.1752.69525 3.2146.69525c1.0394 0 3.638.66146 3.638.66146s5.8586 1.8899 12.568-.18899l8.6462-1.3702s3.3073-1.6536 7.3233-1.0867c0 0 .47247-1.0867 2.1261-1.0867 0 0-.14174 1.3229 1.4174 2.0789s11.198 2.9766 18.19-.37798m-21.734-.61421s.23623 1.2284.47247 1.3938" style="fill:none;paint-order:fill markers stroke;stroke-linecap:round;stroke-width:.35278;stroke:#000000"/><circle cx="83.982" cy="86.095" r="8.032" style="fill:#ffc72c;paint-order:fill markers stroke;stroke-linecap:round;stroke-width:.35278;stroke:#000000"/><path d="m82.411 91.033c-.0709.16536-.67326.95676-.36615 1.1694s1.3465.38979 1.3465.38979l.43703-1.0749z" style="fill:#ebebec;paint-order:fill markers stroke;stroke-linecap:round;stroke-width:.35278;stroke:#000000"/><path d="m79.104 88.918c.0118.14174-.3071 1.1457.21261 1.3938.51973.24805 1.6064-.04725 1.6064-.04725s-.98036.35435-.54334 1.1103c.43704.75595.99219 1.004.99219 1.004s.93313-.11812.98039-.81501c.0472-.69689-2.1025-3.6498-2.1025-3.6498z" style="fill:#d0d3d4;paint-order:fill markers stroke;stroke-linecap:round;stroke-width:.35278;stroke:#000000"/><path d="m85.542 91.238s1.3364.81852 1.8041.85192c.46772.03341.41761-.35079.31737-.53454-.10022-.18375-.16704-.31738-.16704-.31738s.83522.28398.95215-.05011c.11693-.33409-.25057-1.2194-.25057-1.2194l-1.1025-.85192z" style="fill:#d0d3d4;paint-order:fill markers stroke;stroke-linecap:round;stroke-width:.35278;stroke:#000000"/><path d="m89.869 85.108c.0835.18375.53453 1.2194.4343 1.8375-.10023.61806-.21716.55124-.31737.7684-.10023.21716-.10023.28397-.10023.3842s.11693.13364-.0501.23386c-.16705.10023-.0591.21486-.10634.30344-.0472.08859-.13584.19489-.23623.29529-.10041.1004-.10631.06497-.10041.27167.006.2067.009.51605-.16673.53276-.02511.04176.14197.33409-.12529.41761-.26728.08352-.70994.12528-.81852.08352-.10857-.04176-1.019-.81016-1.019-.81016l.14199-1.8041.17539-1.8709s.58465-1.2779.65147-1.2528c.0668.02506 1.637.60971 1.637.60971z" style="fill:#d0d3d4;paint-order:fill markers stroke;stroke-linecap:round;stroke-width:.35278;stroke:#000000"/><path d="m90.313 110.69s.30711-1.63.11813-2.2915c-.18899-.66145-.16537-.75595-.18899-1.1339-.0236-.37798-.189-.0236-.21262-.51972-.0236-.49609-.0945-.73233-.0945-.73233s.96872.145 1.0355-.17238c.0314-.14612.0501-.33409.0501-.33409s.21141-.2376.23386-.25056c.11693-.46773-.0167-1.2361-.0167-1.2361l.0334-.10023s2.1716.36749 3.6583-.20046c1.4867-.56794 1.4867-.20045 1.754-.0334.26726.16705.3842.26727.68487.30068.30067.0334 1.7039-.23386 1.9544-1.2528.25057-1.019-4.3932-2.0045-4.3932-2.0045s-.4009 0-.68488.50112c0 0-1.3196.0835-1.6203-.0167-.30067-.10022-1.9043-.7684-2.4221-.81851 0 0 .15034-.15034.3508-.3842.20045-.23386.25056-.31738.20045-.53454-.0501-.21716-.25057-.46772-.26727-.83522-.0167-.3675-.0334-.60136-.0668-.66817-.0501-.12528-.1044-.25056-.1044-.25056s.17122-.22968.20462-1.47c.01669-1.4867.13363-1.47-.0668-1.6871-.20045-.21716-.93544-.93544-2.1382-1.1526-1.2027-.21716-2.1883-.35079-2.1883-.35079l-.58468-1.8208-1.6036-.06682-.4009.86863s-.0167.48443-.0668.63476c-.0501.15034-.10021.23386-.10021.23386s-.0668-.63476-.80181-.66817c-.73499-.03341-1.1359.23386-1.6203.18375-.48443-.05011-1.019-.21716-1.019-.21716s-1.353-.43431-2.3219-.16704c0 0-.55127.28398-.6682.51784 0 0-.4176-.7517-1.6203-.55124 0 0-.21716-.31738-.30068-.85192-.0835-.53454-.16704-2.7395-.91874-4.0926 0 0 1.2194-.7851 1.2695-1.0858.0501-.30068.01669-2.2217.01669-2.2217s-.45103-.31738-.68489.10023c-.0596.20795-.21822.37738-.21822.37738s-.11588.21563-.14927.25736v-2.3887s-.0501-.51784-.33409-.71829c-.28396-.20045-.4343-.11693-.66816.11693 0 0-.20046-.84357-.71829-.62641 0 0-.12528.15034-.12528.41761v1.8291s-.52619-.13364-.68488.12528c-.1587.25892-.12528.58465-.12528.58465s-.65983-.2088-.78511.24221c-.12529.45102-.0919.88533-.0167 1.0357s.16704.24221.18374.58465c.0167.34244.16705.92709.56795 1.161.40091.23386.32574.1754.32574.1754s-.0896 3.8624.005 4.4412c.0945.57878.25986.99219.25986.99219l5.1263 14.162z" style="fill:#d0d3d4;paint-order:fill markers stroke;stroke-linecap:round;stroke-width:.35278;stroke:#000000"/><path d="m90.68 138.95s1.3742-.94507 3.1144-.80917c1.7402.1359 2.8623-2.8288 2.8623-2.8288l-4.1695-8.9651-6.2366.0473s-1.8426 5.6696-1.6536 6.0476c.18898.37797 6.083 6.5083 6.083 6.5083z" style="fill:#d0d3d4;paint-order:fill markers stroke;stroke-linecap:round;stroke-width:.35278;stroke:#000000"/><path d="m87.786 126.99c.0473.54334.0401.90472.4016 1.5119l.36153.60719 2.0045 2.5224 1.579-7.9487-2.5277-4.2995s-2.7167-.30711-2.7167-.11812.89779 7.7249.89779 7.7249z" style="fill:#ebebec;paint-order:fill markers stroke;stroke-linecap:round;stroke-width:.35278;stroke:#000000"/><path d="m56.532 180.16s-1.7954-.82682-4.0869.63784c-2.2915 1.4646 3.4963 1.1339 3.4963 1.1339z" style="fill:#ebebec;paint-order:fill markers stroke;stroke-linecap:round;stroke-width:.35278;stroke:#000000"/><path d="m66.371 101.55c.0354.0472.43703.76776.59058 1.004.15356.23624.31892.44885.25986.70871-.0591.25986-.31891.64965-.31891.64965l-.6024.0473z" style="fill:none;paint-order:fill markers stroke;stroke-linecap:round;stroke-width:.35278;stroke:#000000"/><path d="m70.575 93.543-3.9756 1.2027-1.0023 2.8063-.50114 6.3142-.13363 4.2763-.32763.91461s-2.7794-.6724-4.1992.43009c-1.4199 1.1025-11.075 3.8169-11.075 3.8169s-3.2908.71829-3.3576 5.0614c0 0-.0835.50113-.30068.83522-.21715.33408-.7684 1.3196 1.2027 3.1905 0 0 1.2862.14198 2.0713-.1587.78511-.30067.48443-.17539.48443-.17539s-.0418.96885 1.9711.9772c2.0129.008 6.807-1.7707 6.9573-1.8959.15034-.12528 1.2137-1.0256 1.2137-1.0256s4.3572.29057 4.6746.92533c0 0-.13885 2.3583 3.2393 4.6498 3.3782 2.2915 4.5357 2.9529 4.5357 2.9529l.56044 4.6248s-.30068 2.205.33409 3.675c0 0-1.0357-.63476-5.4122 4.5102l-3.0068 2.5057s-1.7038 1.3363-2.0379 2.2384c-.33409.90203-2.372 2.372-2.372 2.372l.33526.54377s-1.2874 1.2436-1.0702 2.4797c0 0-.90204.66818-.91874.83522-.01669.16704-.16704.35079-.16704.35079s-.20046.15034-.1921.55124c.008.40091.0418.98556.0418.98556s.008.25892.24221.3842c0 0-.12101 1.961-.12101 2.1736s.17717 1.2048.57878 1.5355c0 0 .14174.17718.14174.43703 0 .25986-.17355 1.9175-.007 3.4209.16705 1.5034 1.6036 12.762 1.6036 12.762s.45388 1.7886-.86696 2.6808l-2.2735 1.2781s-.70158.35079-1.0357.98555c-.33409.63476-4.3097 1.8041-4.3097 1.8041s-1.1359.30067-.70158.90204c.43431.60135 1.9336.5504 2.1716.48442.16177-.0449.93545-.23386.93545-.23386s.25056-.16704.33408 0c0 0 .0269.36615.51116.40159.48429.0354 2.6222-.41342 3.8625-.77958 1.2402-.36617 2.7757 0 3.2482.0473.47247.0472 1.9253.15355 2.4923.0354.56697-.11813 1.4647-.75595 1.4292-1.4292-.0354-.67327-.55516-2.1734-.72052-2.6695-.16537-.49609-.22442-1.6891-.22442-2.1261 0-.43704 1.3704-10.939 1.3704-10.939s-.000141-.12236.21701-.6736c.21716-.55125.34244-1.8709-.11693-2.8314-.45937-.9605-1.4867-2.6309-1.5702-3.3242-.0835-.69324-.18375-1.4282.008-1.6537.1921-.2255.60136-.50948.60136-.50948s1.6704-.77675 2.1883-1.1776c.51783-.40091 2.3553-1.5869 2.5224-1.6036.16705-.0167 1.1526-.33409 1.754-.7684 0 0 .72664 1.0149 2.0968.99131 1.3702-.0236 2.5513-.37797 2.7876-.63783.23623-.25986.25985-.37798.25985-.37798s.47246.8032 1.3702 1.1103c.89769.3071 1.3229.33073 1.3229.33073s-.37798 1.0394.33072 1.7009c0 0 1.9046 2.0275 2.0884 3.3304 0 0 .085.53199.085.68555 0 .15355-.0945.29529.83863 1.193.93313.8977 1.0512.8977 1.1221.93313.0709.0354.92133.0709 1.0985.0709.17717 0 0 .12993.53153.69691.53152.56695 2.2442 2.256 2.6576 2.5277.41341.27166 5.2594 5.068 5.2594 5.068l3.9422 4.1761.15328.41787s-.86226 3.5081-1.2639 6.65c0 0-.0504.14836-.18401.18177-.13364.0334-1.883.11349-2.6863 1.5782 0 0-.24805.66146.22441.74414.47248.0827 1.004.0354 1.1339-.0354 0 0-.10628.41337.36618.57874.33073.0827.73232.0473.82682-.0709 0 0 .15997.25381.52746.32898.3675.0752.7684-.1587.8018-.30068 0 0-.0585.0919.30069.14198.35914.0501.74334.0585.7851-.27561.008-.0251.0501-.20046.0501-.20046s.11693.25892.4176.14199c.30068-.11693.40926-.0919.66818-.45102.25892-.35914.63633-.34781.76625-.81437.12994-.46657.15355-.85636.17717-1.0099.0236-.15355.40963-1.3913 1.3785-2.3268.96885-.93544 1.6203-1.5201 1.9878-1.921.36749-.40089.46772-.68486.48442-1.1025s.0167-1.8375.0167-1.8375l-4.3598-5.195s-.45102-.93546-1.6036-1.9878c-1.1526-1.0524-1.607-1.9474-1.5361-2.5616.0709-.61422.16536-1.5592-.4016-2.386-.56696-.82681-2.2551-2.3689-3.9255-3.3211-1.6704-.95216-2.0045-.7183-2.3887-.93545-.3842-.21715-1.0357-1.019-1.0357-1.019s-.21714-.30068-.23386-1.3865c-.0167-1.0858.13365-2.7061.3508-3.1905 0 0 .3054.25545.64794.32632 0 0 .02479-2.1008.21174-5.6216.0688-1.9144-.40866-5.1784-.74275-5.8799 0 0 .23386.46772.42596.41761.1921-.0501.26727-.12528.25892-.46771-.008-.34245.23386-.81017.0501-1.5452-.18374-.73499-.2088-1.1693-.15034-1.353.0585-.18375-2.0244-3.7012-3.4109-5.0376 0 0-.0469-2.0534-.16383-2.7717 0 0 .78511-2.3887 1.0357-2.8564.25056 1.3029 2.3896 3.2574 2.3896 3.2574l.1168-11.83-3.1924-3.418s-5.7786-5.2311-7.8499-6.367c-2.0713-1.1359-2.205-6.3476-2.205-6.3476l-.80181-6.1472-1.2695-2.4722-2.6059-2.0713z" style="fill:#d0d3d4;paint-order:fill markers stroke;stroke-linecap:round;stroke-width:.35278;stroke:#000000"/><path d="m53.792 117.04s1.7009-.59059 3.3073 1.2757c1.6064 1.8663 2.5041 1.7954 2.5041 1.7954s2.7582.7758 4.6746.92533c1.9164.14954 5.7198-.193 8.3656-1.5868 2.6458-1.3938 4.0396-2.575 4.0396-2.575l7.4887.35435s.9858.0359 2.4064 1.4354c1.4206 1.3994 2.836 2.6474 2.836 2.6474s.7053 8.7116 1.0394 10.048c.33408 1.3364 3.3409 6.782 3.3409 6.782s2.0709 3.207 3.9608 4.4826c1.8899 1.2757 2.4332.92132 2.4332.92132s1.6773-.75595 1.5828-4.394c0 0 2.7167-.42523 4.1577-1.63 1.441-1.2048 2.4096-2.1497 2.4096-2.1497s-.11811-1.1339-.14174-2.2915c-.0236-1.1576-.23622-1.8426-.23622-1.8426s.87407-.56696 2.6222-.47247c1.7482.0945 3.1183-.35435 3.1183-.35435s2.7778-3.9623-.32921-8.5727c0 0-1.0023-.53454-1.9711-.63476 0 0-.66819-3.4411-6.1138-6.1472 0 0-2.1047.66817-2.8063 1.2027 0 0-1.2055-.16389-2.1032-1.5104-.89768-1.3465-1.3702-1.63-1.9844-1.6064-.6142.0236-1.2993.35435-2.3151 1.7954-1.0158 1.441-1.8899 1.4647-1.8899 1.4647s-.96162-4.62-3.6677-5.6222c-2.7061-1.0023-13.464-2.8063-13.464-2.8063l-11.025.735-1.4203.0514s-3.012-.67328-4.4294.68507c-1.4174 1.3584-5.587.41342-5.587.41342l-2.6931 5.5279z" style="fill:#d0d3d4;paint-order:fill markers stroke;stroke-linecap:round;stroke-width:.35278;stroke:#000000"/><path d="m68.178 103.69-1.8426 4.1814s-.75595.96856-.37798 1.441c.37798.47247.55823.16187 1.1095.76323.55125.60136.91874 1.1359.63477 1.7373-.28398.60135-.23387.50112-.23387.50112s.46773-.13363 1.186-.15033c.71828-.0167 1.353-.48443 1.1693-1.1025.0835-.0334.55124.20045.86863-.23386 0 0-.25057.70158.15033.88533.40091.18375.735.26727 1.4867.35079.7517.0835 1.0691-.13363 1.0357-.3842-.0334-.25056-.0501-.25056-.0501-.25056s.30068.36749.40091.10022c.10022-.26727.0501-.41761.10022-.48442.0501-.0668.25057-.10023.31738-.28398.0668-.18375.86863-2.7729.86863-2.7729l-1.019-3.4578-.65146-.56795-2.2718-1.3029z" style="fill:#d0d3d4;paint-order:fill markers stroke;stroke-linecap:round;stroke-width:.35278;stroke:#000000"/><path d="m48.24 115.27s1.3229-2.6458 4.3467-5.4807c0 0-.45331-.46093-.18604-1.1792s.30068-.71829.33408-1.1025c.0334-.38419.735-1.2862 1.1693-1.3698.43431-.0835.75169-.10023.75169-.10023l.2094.64455s1.0267-1.0956 1.7116-1.1791c.68488-.0835 2.0212.28398 2.2718.33409.25056.0501.60135.63477.23386.96885-.3675.33409-.71829.50113-.61806.51784.10022.0167.90203-.28398 1.1693.23386.26727.51783-.15033.98555-.41761 1.2027.41761.0334.71829-.48443.86863.3842.15034.86863-.71829 1.353-.71829 1.353s.88533-.68488.96886-.0501c.0835.63477-.26727 1.4533-.45102 1.637-.18375.18374-.63477.41761-.95215.36749 0 0-.96885 1.2862-1.8709 1.5535 0 0-1.47.0668-1.9377-.0334 0 0-.20046 1.7372-1.0691 2.3219 0 0 .55124 1.4867-.23386 2.2217-.78511.73499-1.1693.91874-1.1693.91874" style="fill:#d0d3d4;paint-order:fill markers stroke;stroke-linecap:round;stroke-width:.35278;stroke:#000000"/><path d="m65.931 95.197s-.90203.46772-.88533 1.6203c.01669 1.1526 0 1.8709 0 1.8709l1.5368-.3675-.21716-2.1549s-.0668-.7684-.43432-.96885z" style="fill:#d0d3d4;paint-order:fill markers stroke;stroke-linecap:round;stroke-width:.35278;stroke:#000000"/><path d="m65.931 95.197s.3926-1.483 1.2312-1.6365c.83864-.15355 1.2284.03543 1.2284.03543s.6024-1.0631 1.5592-1.0512c.95675.0118.18899 1.7009-.0236 1.9962-.21261.29529-.87407.67327-.94494.29529-.0709-.37798-.0354-.69689-.0354-.69689s-1.4883 2.1143-2.0198 2.1379c-.53153.02363-.60241-.12993-.60241-.12993z" style="fill:#d0d3d4;paint-order:fill markers stroke;stroke-linecap:round;stroke-width:.35278;stroke:#000000"/><path d="m66.583 98.321s-.57345-.03266-1.5368.3675c-.77732.9553-.74188.60095-.77732 1.0262-.0354.42523.0236.51972.33073.51972.30711 0 .6024-.16536.88588.0709.28348.23623.6024.28348.6024.28348s-.0118-.18898.0473-.41341c.0591-.22442.30711-.34254.33073-.42522" style="fill:#d0d3d4;paint-order:fill markers stroke;stroke-linecap:round;stroke-width:.35278;stroke:#000000"/><path d="m64.094 102.11c.4009.78511.7684.85192.7851 1.0023.01669.15034-.58465.46772-.85192.78511-.26727.31738-.3842.60135-.18375.68487.20045.0835.61806-.13363 1.3196-.0835.70159.0501 1.2082-.16854 1.2082-.16854s.12993-1.6655.1063-2.1261c-.0236-.46065-.38979-1.6182-.38979-1.6182s-.41527-.11705-.64496-.30289c-.22968-.18584-.40937-.0741-.88695-.0428 0 0-.29488.16597-.27818.71722 0 0-.58465.36749-.18374 1.1526z" style="fill:#d0d3d4;paint-order:fill markers stroke;stroke-linecap:round;stroke-width:.35278;stroke:#000000"/><path d="m63.832 104.62s-.4961.28349-.16537 1.4174c.0021.0462.10184.27172-.007.33854-.10858.0668-1.0799.77177-.65472 2.0238l.0951.19787s.70065-.006 1.5113.1683c0 0 .56007.17414.4849-.46063 0 0 .62541-1.134.69628-1.2993.0709-.16537.59058-1.6064.59058-1.6064l-.0118-1.0631s-.80316.23536-1.2416.13931c-.4385-.0961-.86573.0948-1.0225.11153-.2631.0167-.27537.0326-.27537.0326z" style="fill:#d0d3d4;paint-order:fill markers stroke;stroke-linecap:round;stroke-width:.35278;stroke:#000000"/><path d="m67.552 97.565s.16537-.11812.18899-.17718c.0236-.05906.27167-.18899.56696-.11812.2953.07087.70871.15355.96857.08268l.25986-.07087s.0118.16536.0709.24805c.0591.08268.22442.1063.21261.35435-.0118.24805-.0473.2008 0 .30711" style="fill:none;paint-order:fill markers stroke;stroke-linecap:round;stroke-width:.35278;stroke:#000000"/><path d="m74.12 96.549s.31892.89769-.42522.83863c-.74414-.05906-.93313-.12993-1.1339-.07087-.2008.05906-.37797.66146-.10631.87407.27168.21261.66147 0 .93313.08268.27168.08268.27691.29791.59691.36819 0 0-.0182.13972.14723.23421l.16537.09449" style="fill:none;paint-order:fill markers stroke;stroke-linecap:round;stroke-width:.35278;stroke:#000000"/><path d="m72.529 98.237s-.11076.52044-.27613.5795c-.16536.05906-.31891.2008-.3071.37798.0118.17718.12993.25986.33073.4016" style="fill:none;paint-order:fill markers stroke;stroke-linecap:round;stroke-width:.35278;stroke:#000000"/><circle cx="72.96" cy="98.634" r=".33826" style="fill:#d0d3d4;paint-order:fill markers stroke;stroke-linecap:round;stroke-width:.35278;stroke:#000000"/><path d="m67.151 99.131s.23386-.40926.62642-.593c.39255-.18375.3842-.31738.67652-.35914.29233-.04176.41761.03341.66818.28398.25056.25056.12528.32573.4009.4009.27562.07517.55124.05011.55124.05011" style="fill:none;paint-order:fill markers stroke;stroke-linecap:round;stroke-width:.35278;stroke:#000000"/><circle cx="68.529" cy="98.546" r=".33826" style="fill:#d0d3d4;paint-order:fill markers stroke;stroke-linecap:round;stroke-width:.35278;stroke:#000000"/><path d="m67.735 99.949.35914-.29232s.18375-.14199.35079-.11693c.16704.02506.53454.05011.53454.05011" style="fill:none;paint-order:fill markers stroke;stroke-linecap:round;stroke-width:.35278;stroke:#000000"/><path d="m73.678 99.619.22132-.16704s.22134-.05011.4218-.01252" style="fill:none;paint-order:fill markers stroke;stroke-linecap:round;stroke-width:.35278;stroke:#000000"/><path d="m69.606 102s-1.1025-.21716-1.1359.93544c0 0 .0919.21716-.10858.24222-.20045.0251-1.1025-.0334-1.1025-.0334s-.46772.48442-.53454.52618c-.0668.0418-.85192.28398-.88533.80181-.0334.51784.43432 1.0023.43432 1.0023l-.79346.65147s-.26727.16705-.21716.61806c.0501.45102.46772.80181.73499.80181 0 0 .23387.16705.51784.55125s.70158.15034.68488-.20046c0 0 .0835-.25056.3842-.26727.30068-.0167.16704-.20045.01669-.35079-.15034-.15033-.0334-.48442-.31739-.98555 0 0 .0334-.25057.28398-.26727 0 0-.20045-.3842-.0668-.93545 0 0 .66818-.55124.93545-.80181.26727-.25056.4343-.16704.61806-.11693 0 0-.0835-.45101.28397-.60135.3675-.15034.55125-.0668.55125-.0668s.33407.0334.451-.0668l.0668-.13363s.0668.31738.61807.35079l.30067-.0167s-.13363.51783.23386.56795c.3675.0501.56795-.0167.56795-.0167s.0668.55124.40091.56794c.33408.0167 1.0023-.0668 1.0023-.0668s.0501.3675-.0501.50113c-.10022.13364-.28397.50113-.16704.70158.11693.20046.43431.11693.41761.43432-.01669.31738-.35079.26727-.43431.56795-.0835.30067.36749.51783.4009.63476.0334.11693-.4009.26727-.55124.3675-.15034.10022-.38628.40922.0389.90532.42523.49609.8032.66145.85045 1.441 0 0-.0208.44328.0461.57691.0668.13363 1.4199-1.2862 1.47-1.5702.0835 0 .88529-.35079 1.0356-.80181.15034-.45101-.01669-.75169-.30068-1.019 0 0 .0418-.27562.29233-.43431.25057-.1587.27562-.26728.12528-.46773-.15034-.20045-.31738-.20045-.26727-.35914.0501-.15869.20046-.22551.46773-.15034.26726.0752.48442.11693.55124.0251.0668-.0919.45393-.83127-.60913-1.9416 0 0 .67595.42148.62583-.29681-.0501-.71828.33409-4.009.33409-4.009l-.66817-1.6203-.85193 1.019s-.01669.45102-.21715.58465c-.20045.13364-.25057-.15034-.25057.43431 0 .58465.0501 1.4199.0501 1.4199l-.40091.15034s-.35079.0668-.15034.43431c.20045.3675.3842.56795.3675.90204-.01669.33408-.0334.51783-.0334.51783l-.0501.13364s-.48443-.16705-.73499 0c-.25057.16704-.16705.46772-.13364.56795l-.4176-.70158s-.80181 0-.98555.0167c-.18375.0167-.53454-.7684-.63477-1.0524-.10023-.28397-.23386-.36749-.43431-.33408-.20045.0334-1.019-.25057-1.019-.25057z" style="fill:#d0d3d4;paint-order:fill markers stroke;stroke-linecap:round;stroke-width:.35278;stroke:#000000"/><path d="m70.408 103.3-.13904-1.4227" style="fill:none;paint-order:fill markers stroke;stroke-linecap:round;stroke-width:.35278;stroke:#000000"/><path d="m74.734 104.33s.29466.64815.61357.95525" style="fill:none;paint-order:fill markers stroke;stroke-linecap:round;stroke-width:.35278;stroke:#000000"/><path d="m75.553 109.25s.0431-1.0856-.86642-2.1959" style="fill:none;paint-order:fill markers stroke;stroke-linecap:round;stroke-width:.35278;stroke:#000000"/><path d="m71.438 92.332s-1.5237.15355-.99218 1.571 1.3938.35435 1.3938.35435-.2953.6024.77957.74414c1.0749.14174 1.5237-.07087 1.5237-.07087s-.78516.83286-.17717 1.6773c.42522.59059.80319.73233.80319.73233s-.0827.56696.28348.94494c0 .09449.16537.88588-.0118 1.6182 0 0 .36615-.79139 1.004-.72052.63783.07087.76776.2008.76776.2008s.38979.57878.86226.76776c.47247.18899 1.0685.52461 1.3525.65824.28398.13364.28398-.0668.28398-.0668s.10022-1.4366-.11693-1.6871c-.21716-.25057-.61807-.43431-.7517-1.1025-.13363-.66817-.16705-2.7061-.16705-2.7061s-1.3196.23386-1.4533.23386c-.13363 0-.95214-1.6704-1.186-1.8542-.23387-.18375-1.47-.03341-1.47-.03341s.20646-1.2532-2.7282-1.2613z" style="fill:#d0d3d4;paint-order:fill markers stroke;stroke-linecap:round;stroke-width:.35278;stroke:#000000"/><path d="m78.276 95.247-1.353 1.2027s-.86863.11693-1.1025.05011c-.23386-.06682-.68488-.43431-.98555-1.2361" style="fill:none;paint-order:fill markers stroke;stroke-linecap:round;stroke-width:.35278;stroke:#000000"/><path d="m76.923 96.45s-.13365.86677.0435 1.0912c.17718.22442 1.0513.99219.95676 1.7009-.0945.7087-.96687 1.7849-1.0337 1.8684-.0668.0835-.46772.69061-.0501.92447.60659.47009.72311.39112 2.1215.34506.24651-.008.3842-.16705.3842-.45102s-.0334-1.186-.0334-1.186.10023-1.4366-.11693-1.6871c-.21716-.25057-.61806-.43431-.75169-1.1025-.13364-.66817-.16705-2.7061-.16705-2.7061z" style="fill:#d0d3d4;paint-order:fill markers stroke;stroke-linecap:round;stroke-width:.35278;stroke:#000000"/><path d="m70.009 98.533s.11812.95675-.0354 1.2757c-.15356.31891-.17718.68508-.15356 1.0512 0 0-.20079.0827-.31891.35436 0 0-.27167.0354-.24804.33073.0236.29529.33073.48428.46065.48428.12993 0 .0827-.0118.14175.0236.0591.0354.0709.31892.4016.28348.33072-.0354.21261-.18899.37797-.25986.16537-.0709.37798-.0118.56697-.0118.18898 0 .24804-.29529.24804-.43703 0-.14175.059-.4961-.16537-.54335-.22442-.0473-.40159-.0236-.40159-.0236s.1063-.67327.0118-2.3978" style="fill:#d0d3d4;paint-order:fill markers stroke;stroke-linecap:round;stroke-width:.35278;stroke:#000000"/><path d="m63.69 106.31s.13584-.28939.37798-.28348c.24214.006.7028-.1004.70871-.3957v-.21851" style="fill:none;paint-order:fill markers stroke;stroke-linecap:round;stroke-width:.35278;stroke:#000000"/><path d="m70.224 104.47c.0334.11693.46772.41761.28398.73499-.18375.31738-.83522.78511-.86863 1.3196-.0334.53454-.25056.65147.0835.93544.33409.28397.73499.93544.80181 1.0691" style="fill:none;paint-order:fill markers stroke;stroke-linecap:round;stroke-width:.35278;stroke:#000000"/><path d="m67.201 110.18s-.30067-.58465.18375-1.0023c.48443-.41761.83522-.73499 1.019-.86863.18375-.13363.0334.0334.41761.23386.3842.20045.95214-.46772 1.0858-.56795.13364-.10022.20239-.0214.20239-.0214s-.0353.33881-.0855.58937c-.14198.36332.071.40508.15034.55125.13363.33408.0668.46772.0668.46772" style="fill:none;paint-order:fill markers stroke;stroke-linecap:round;stroke-width:.35278;stroke:#000000"/><path d="m87.609 122.5s.35435.25986.42522.86226c.0709.6024.2953 1.2048.3898 1.4174m-1.6537 3.1301s.19525.54749.35908 3.3192m-1.7529-5.9887c1.2372.41744.96775.21733 1.5023.34261.53454.12529.63478.53454.63478.53454.65147 1.5034.57966.7883.87494 1.0482.29531.25985.70871.28348.70871.28348s-.0118-.22441.0354-.5079c.0472-.28348.20085-.2008.24805-.54334.0473-.34254.41341-.28348.41341-.28348l.35435-.11812-.42991-.84765s.0668-.0501-.31739-.7684c-.38419-.71829-.86862-1.9043-.86862-1.9043s-.30068.21716-.81852.0334c-.51783-.18375-1.0691-.23386-1.0691-.23386s.30068-.18374.36749.90204c.0668 1.0858.15034.96885.21716 1.3364.0668.3675.01669 1.186.01669 1.186m-16.504-5.9969s2.8932 6.8366 3.8382 7.5453c.94494.7087 5.2444 3.26 5.2444 3.26s2.575-.4016 2.6695-.37798c.0945.0236 2.9529-.49609 4.6774 1.7009 0 0 .21261-3.201-3.26-4.2877l-.20688-1.66 1.6715-.64329s.63783.33073 1.3465.35435c.7087.0236 1.0158.85045 1.063 1.3938.0473.54334.31728.93561.37808 1.3841" style="fill:none;paint-order:fill markers stroke;stroke-linecap:round;stroke-width:.35278;stroke:#000000"/><path d="m81.526 116.62s-3.4963 2.2206-3.2128 8.6462c0 0-3.6616.85045-4.4648 1.3465-.8032.4961-1.7954 2.0316-1.7954 2.0316s-2.2915-.7087-4.583.4016c0 0-1.3465-2.3151-2.8584-2.3624-1.5119-.0473-1.5355.0945-1.5355.0945l.28349.94494s-2.1734.42522-2.9766 1.0394-.99219.92132-.8032 1.2993c.18899.37797.4016.37797.4016.37797s-.78988.5493-.4725 1.326c.31738.77676 1.0023.68488 1.0023.68488s-.87698.0334-.45937.76006c.41761.72663 1.0106.85192 1.1777.88532 0 0-.41761.27563 0 .74335.41761.46772 1.0774.70994 1.4032.56795.32573-.14199.32573-.23386.32573-.23386s.31853.29807 1.3698.32169c1.0512.0236 1.5355-.0472 1.8663-.25986.33073-.21261.90951-1.6891 3.2719-1.9017 2.3623-.21261 4.583.12993 6.6736-.11812 2.0907-.24804 4.9093-.79824 5.4939-1.8506.58465-1.0524.61807-1.3196.68488-1.4199.0668-.10023.50112-.91874 1.1025-1.637.60135-.71828 2.0379-3.0569 2.1883-3.6582.15035-.60135 1.2027-2.7896 1.2027-2.7896s.43079-1.484 1.1867-1.7911c.75594-.30711-1.6537-3.4254-1.6537-3.4254z" style="fill:#d0d3d4;paint-order:fill markers stroke;stroke-linecap:round;stroke-width:.35278;stroke:#000000"/><path d="m49.461 122.06s.5038-.2316 1.3897-.16073" style="fill:none;paint-order:fill markers stroke;stroke-linecap:round;stroke-width:.35278;stroke:#000000"/><path d="m62.355 132.68c.006.0414-.10631.14174.0945.31892.2008.17718.3012.11812.42522.43704.12402.31891.0886.3012.27758.41341m-1.1968-3.0898s.21049.17231.19868.46169c-.0118.28939.21261.26577.23033.42523.0177.15945-.0118.31301-.0118.31301m-1.1438 2.1326s.45937-.008.89368-.0752m-1.612-1.5702s.64312 0 1.1108-.15033m-1.6406-1.8606s.13721-.17733.82208-.27754c.68488-.10024.86862-.13365.86862-.45103s-.15034-.48443-.15034-.48443m10.531-.58237s-.50791.31892-.81502 1.0276" style="fill:none;paint-order:fill markers stroke;stroke-linecap:round;stroke-width:.35278;stroke:#000000"/><path d="m58.172 110.39c.02511.10023.1754.74334-.0501.90204-.22551.15869-.25891.12528-.25891.12528m.33429-2.7965s-.28938.0236-.28938.18899c0 .16536.065.34254-.0709.37797-.13584.0354-.28939.18899-.26577.34254m-.44885-2.7167s-.0827.64965-.11811.72052m1.9278 4.9188s.0501-.43431-.23386-.88533m-3.833-4.8846s-.71053.52476-.94439 1.1261" style="fill:none;paint-order:fill markers stroke;stroke-linecap:round;stroke-width:.35278;stroke:#000000"/><path d="m61.684 114.23s-.32077.0765-.33258.30681c-.0118.23033.0532.21852-.21852.28348-.27167.065-.42522.0532-.46657.20671-.0413.15355-.25395.24214-.25395.24214l-.5946.19481s.25056-.1921 1.4533.30903c1.2027.50113 1.8542 1.044 2.8314.68488.9772-.35914.60135-.34244 1.1192-.3675m-6.2892-3.6332s.0802.11298.29285.67995c.21261.56696.66146.54334 1.0749.63783.41341.0945.41341.27167.87407.42523.46066.15355 1.4056-.12993.99219-.47248-.41341-.34254-.61421 0-.6969-.25985-.0827-.25986-.12993-.37798-.12993-.37798" style="fill:none;paint-order:fill markers stroke;stroke-linecap:round;stroke-width:.35278;stroke:#000000"/><path d="m107.96 131.24s-.5906-2.764.35434-3.7561c.94494-.99218 1.2284-1.1576 1.5355-1.2048.30711-.0472.51974-.4016.92133-.4016s.59059-.0236.59059-.0236" style="fill:none;paint-order:fill markers stroke;stroke-linecap:round;stroke-width:.35278;stroke:#000000"/><path d="m101.77 139.15s-1.1103-3.6853-.16534-4.8192c.94493-1.1339 1.3229-1.3702 1.7009-1.3465m-.82609-16.727s-2.3158 1.2771-3.308 1.7732c-.99218.49609-2.9057 1.6064-2.9057 1.6064m6.5201 9.284s1.2284-2.5986 4.1341-3.0002c2.9057-.4016 4.2286-.75595 4.772.42523.54335 1.1812.11811 2.1734 1.063 3.1183l.94494.94494m-13.489-3.6853s-.44884 1.2048-1.5119 1.4883c.23623.16537 1.7718 1.1339 4.0869.70871 0 0-1.0394 1.9844-3.4018 1.7245m-5.7405-10.938 3.0947.77957s1.7245-.0709 3.9451.28349c2.2206.35435 6.6618.0472 6.6618.0472s2.0833-.25109 4.0544.38367m-17.213-4.8013s2.2442 3.4018 2.5513 4.0869m-3.8979 10.371v-2.008s0-.79138-.36615-.87407c-.36616-.0827-.82683 1.5592-.38979 2.823.43703 1.2639 1.9135 2.4923 3.8506 3.7207 1.9371 1.2284 2.4805 1.3938 2.4805 1.3938s-1.9607 4.772-.37796 6.8272m-.12994-11.835s-.3225-.48277-1.1159-.83356c-.79347-.35079-.83523-.65982-.86863-.84357m-4.9027-16.312s1.9377 5.9468 2.4388 9.3544c.50112 3.4077.90203 6.214 1.1025 7.6506.20044 1.4366.41474 3.4222.41474 3.89m-5.5634-12.501s-.51774-5.1222-.51774-6.705c0-1.5828-.16537-2.1734-.56697-2.8348-.4016-.66146-.75594-1.0867-.94494-1.5119-.18898-.42522-.28348-.92131-.28348-.92131l2.2915 1.063s.96856.63784 1.63 2.5277c.66147 1.8899 6.402 16.135 6.402 16.135s.41342 1.1812.48428 1.8426c.0473.27167 3.9806 1.4174 5.209 1.9608 1.2284.54334 2.1261 1.3465 2.1261 1.3465s1.0394.8032 1.5592 1.1576c.51971.35436.66145.77958.66145.77958" style="fill:none;paint-order:fill markers stroke;stroke-linecap:round;stroke-width:.35278;stroke:#000000"/><path d="m82.268 127.19s.30068.70158-.4009 1.186c-.70159.48442-.93545 1.3865-.43431 1.7206m-2.3405 1.0767s-.0816-.37513.41953-.35843c.50113.0167.56796.0167.83522.18375.26728.16705.0501.35079.43432.51784.38419.16704.51784.25056.51784.25056" style="fill:none;paint-order:fill markers stroke;stroke-linecap:round;stroke-width:.35278;stroke:#000000"/><path d="m63.559 174.99c0 .13363-.16705.70157.4009 1.8709.56795 1.1693.85192 1.8208.13364 1.9043-.71829.0835-.71829-.33409-.71829-.33409m1.1412-16.366s.54334-.0236.7087-.51972c.16537-.49609.11812-.51971.11812-.51971m-.85044 2.386s1.0394-.33073 1.063-.59059c.0236-.25985.0709-.42522.0709-.42522m-1.2659-4.7782s-.74209-.13546-.93107.10078c-.18899.23623-.44885 1.0867-.8032 1.9135-.35436.82682-.66146 2.5513-.21262 4.016l.44885 1.4646 2.5986-.21261s.63783-.8032.66146-1.0394m-7.2761-5.457s.8977.0709.92132-.8032c.0236-.87407.0945-1.7954-.0709-2.1379-.16537-.34254-.24805-.66146-.18899-.9095.0591-.24805.0354-.0591.12993-.31892.0945-.25986.0945-.35435.0945-.35435" style="fill:none;paint-order:fill markers stroke;stroke-linecap:round;stroke-width:.35278;stroke:#000000"/><path d="m81.88 105.96-.81453-.7265s-.26728-.11693-.56796-.0501c-.30067.0668-1.3698-.0835-1.5535 0-.18374.0835-.53453.21716-.53453.46773 0 .25056-.70159.96885-1.1192 1.4867-.4176.51784-.85191.56795-.95214 1.4366-.10023.86863-.16705 1.2695.0334 1.9711.20046.70158.31739.93544.3675 1.4366.0501.50113.26727 1.3196.23386 1.7206-.0334.4009.0407.92721.0407.92721l-1.4056 1.4292s-.17717.89769-.0354 1.1457c.14174.24805.18899.25986.31891.24805.12993-.0118.28349-.21262.28349-.21262.01169-.0354-.16544.18899.21254.30711.37798.11812.55515.14174.56696-.0709 0 0 .0354.27167.28349.29529.24804.0236.0472-.16536.23623-.31892.0118.0709-.11812.34254.10631.55516.22442.21261.44884.15355.73233.14174.28348-.0118.63116-.25433.63116-.25433l3.1738-5.4122z" style="fill:#d0d3d4;paint-order:fill markers stroke;stroke-linecap:round;stroke-width:.35278;stroke:#000000"/><path d="m80.33 106.72s.63881.23791.85597.50518m-4.1729 7.4044s.29339-.0419.51055-.25904c.21716-.21716.36749-.3675.43432-.3842m-1.7835 3.2536s.0713-.40555.17984-.54754m.59966.78377s.0021-.56661.0351-.67519m.48462.65157s.29214-.17549.30884-.37595c.0167-.20045 0-.27562 0-.27562" style="fill:none;paint-order:fill markers stroke;stroke-linecap:round;stroke-width:.35278;stroke:#000000"/><path d="m83.014 105.02s-.56696.42522-1.0158.89769c-.44884.47247-.80319 1.0394-.82681 1.4174-.0236.37798.0473.66146-.23625 1.0867-.28348.42523-.11811 1.2048-.23623 1.7245-.11812.51972-.0236 2.0316-.0236 2.0316s-.28348.59059-.25985 1.252c0 0-.47249.61421-.23626 1.5828 0 0-.4016.28348-.77957.94494-.37799.66146-.61421.8032-.61421.8032s-.0945.73233.0709 1.0158c.16536.28348.42522.47247.63783.44885.36026-.0354.36104.0792.38543-.8848 0 0-.0501.71829.26724.83522.41187.0697.50441-.0187.52619-.39255 0 0-.0752.33408.2255.4009.30068.0668.81622.0649.81622-.45487 0 0-.0709.4016.43704.33073.5079-.0709.64964-.38978.59058-1.0985 0 0-.0354.6024.0945.82682.12993.22443.66146-.0354.66146-.0354s.0827-.14175.0945-.42522c.0118-.28348.22442-.23624.23623-.30711.0118-.0709.0945-.63784.0236-.92132s-.17718-.3071-.30711-.62602c-.12992-.31892-.0709-.48428-.0709-.48428s-.11811-.18899-.29528-.21262c0 0 .54338.21262.63786-.0354.0945-.24804-.0354-.59059.0236-.68508.0591-.0945.47247-.54334.5079-.72051.0354-.17718.27167-.54335.46066-.86226.18899-.31892.0945-1.63.0945-1.63l.23751-.20925s.13364.20045.55125.0835c.4176-.11693.50112-.20045.91873-.21715.41762-.0167.91874-.10023.98556-.13364.0668-.0334.61807-.25056.61807-.25056s.23386.0167.20044-1.1025c-.0334-1.1192-.0835-2.1883-.86863-2.9066-.7851-.71828-1.1359-1.0357-1.353-1.1693-.21716-.13364-2.471.0586-2.471.0586z" style="fill:#d0d3d4;paint-order:fill markers stroke;stroke-linecap:round;stroke-width:.35278;stroke:#000000"/><path d="m87.29 108.66s.0591.2008.0354.57877c-.0236.37797.0945.44885.11811.70871.0236.25985 0 .48428 0 .48428m-1.2048-1.63c0 .0472.0118.3071-.18899.53152-.2008.22442-.29529.11812-.16537.42522.12994.30711.22442.70871.24805.75596l.0295.0561m-1.2579-2.513c-.0118.14174.0473.36617-.0827.63784-.12992.27167-.38978.15355-.15354.63783.23622.48429.30711.37798.28348.72052-.0236.34254.19023.58215.19023.58215m-3.4266 7.0955-.0354-.82682m-1.0063.88078-.0331-.46737" style="fill:none;paint-order:fill markers stroke;stroke-linecap:round;stroke-width:.35278;stroke:#000000"/><path d="m89.985 163.97s1.084 2.1867 2.0998 2.8954c1.0158.7087 2.2206 1.0867 2.8821 2.1261.66147 1.0394 1.3938 2.0789 1.3938 2.0789l7.1579 4.1105s0 .8977-.63781 1.63c-.63786.73233-.66148.73233-.66148.73233m-16.344-15.26s.23386-.90203.0334-1.3364c-.20046-.43431-.20046-.43431-.20046-.43431s-1.3196-1.3029-2.1047-1.7707" style="fill:none;paint-order:fill markers stroke;stroke-linecap:round;stroke-width:.35278;stroke:#000000"/><path d="m95.44 162.56s1.1812-.0236 1.6064.16536" style="fill:none;paint-order:fill markers stroke;stroke-linecap:round;stroke-width:.35278;stroke:#000000"/><path d="m95.251 163.96s1.6064-.49609 2.386.77958" style="fill:none;paint-order:fill markers stroke;stroke-linecap:round;stroke-width:.35278;stroke:#000000"/><path d="m95.534 164.93c.18899.0945.87408-.16537 1.4174.18898.54334.35436.75594.68509.75594.68509" style="fill:none;paint-order:fill markers stroke;stroke-linecap:round;stroke-width:.35278;stroke:#000000"/><path d="m96.834 166.06s1.0158.75595 1.3938 1.0394c.37797.28348.37797.30711.37797.30711" style="fill:none;paint-order:fill markers stroke;stroke-linecap:round;stroke-width:.35278;stroke:#000000"/><path d="m99.24 184.46s-.0674-.28477.0862-.73362c.15355-.44884.15355-.7087.15355-.7087m-1.3756 1.7764s-.0772-.2527.13539-.53618c.21261-.28348.25986-.9095.25986-.9095m-1.7245 1.4174s-.006-.3248.18899-.55513c.19489-.23032.38388-.95675.38388-.95675m-1.7659 1.004s.5762-1.126.65972-1.2345" style="fill:none;paint-order:fill markers stroke;stroke-linecap:round;stroke-width:.35278;stroke:#000000"/><path d="m31.854 166.37s6.6149 2.6727 16.604-.0668c9.9892-2.7395 15.168-1.9043 15.168-1.9043s5.7797 1.5368 8.1517 2.9734c2.372 1.4366 1.0357 5.312 1.0357 5.312l-2.3909-.62709c-3.9215-1.4174-8.1215-2.2915-10.134-2.2915-1.6655 0-1.2461-1.4824-.8032-2.1852 0 0-1.4174-.34254-2.1497.64965 0 0-.33074.7087-.11812 1.2048 0 0-6.5437.66146-11.268 2.3151-4.7247 1.6536-11.434-.0472-11.434-.0472" style="fill:#d0d3d4;paint-order:fill markers stroke;stroke-linecap:round;stroke-width:.35278;stroke:#000000"/><path d="m32.908 169.11c.51972.14174 8.6934 2.3151 15.639-.42522 6.9453-2.7403 12.662-1.8899 12.662-1.8899s7.4178 1.2757 11.198 3.3545" style="fill:none;paint-order:fill markers stroke;stroke-linecap:round;stroke-width:.35278;stroke:#000000"/><path d="m62.7 148.72c-1.3202-.0621-2.2969.22266-2.2969.22266a.17707.17707 0 10.0996.33984s3.7078-1.0805 6.3047 1.5488c.67863.68711 1.2006 1.0454 1.6289 1.1934.42831.14799.78118.0607 1.0039-.13867.44544-.39884.44141-1.1055.44141-1.1055v-.008s.003-.0958.0508-.19336c.0473-.0975.10954-.18421.31836-.19726.26076-.0163.37758-.0119.49219.0625s.25844.2565.48046.63476c.21579.36765.4265.86978.66602 1.3359.23952.46617.50412.90355.88281 1.1445.16656.106.32183.19564.46485.25782.14301.0622.27353.10542.41601.084.14248-.0214.27363-.14861.3125-.29687.0389-.14827.0283-.31916-.0156-.54493-.0899-.46261-.30922-.7773-.48633-1.0547-.17711-.27739-.31313-.51136-.31836-.86719-.003-.18208.0272-.30465.0625-.37695s.0685-.0965.10938-.10938c.0817-.0258.25718.0223.42382.17383.0632.0575.19631.24007.33789.47461.14159.23453.30161.52595.46289.82422.32257.59653.64369 1.2157.87696 1.5332l.006.01.01.01c.22167.2286.51018.35955.78516.3457.13749-.007.27838-.0576.37695-.16796.0986-.11035.14376-.26633.13281-.44141-.0205-.32779-.16051-.77566-.26367-1.2188-.10315-.44309-.15065-.88019-.0801-1.0566.0846-.21138.18333-.23125.29102-.23633.10769-.005.20508.0371.20508.0371l.006.004.008.002s.0138-.00084.0547.0469c.0409.0477.0948.13752.10547.32618.0257.45486.0948.83702.20117 1.1562.097.2911.12695.46093.12695.46093a.17641.17641 0 10.3457-.0625s-.0352-.1995-.13867-.50976c-.094-.28211-.15928-.63399-.18359-1.0644-.0144-.25404-.098-.4284-.18945-.53516-.089-.10382-.19323-.14606-.19922-.14844-.007-.003-.15848-.0739-.35938-.0644-.20532.01-.4735.13688-.60156.45703-.14203.35508-.0421.81003.0644 1.2676.10652.45755.23898.92098.25391 1.1602.007.10841-.0159.15747-.041.18555-.0251.0281-.0651.0474-.13281.0508-.1334.007-.3519-.0799-.50781-.23633-.19278-.26558-.52065-.8846-.8418-1.4785-.16206-.29971-.32522-.59368-.47265-.83789-.14744-.24421-.27068-.43499-.40235-.55469-.22314-.20285-.49899-.33299-.76758-.24805-.13429.0425-.25088.14708-.32031.28907-.0694.14199-.0989.31954-.0957.53906.007.44736.191.76567.37304 1.0508.18205.28511.36209.5438.4375.93164.0388.19946.0361.33281.0215.38867-.0146.0559-.001.0335-.0254.0371-.0244.004-.1084-.009-.22266-.0586-.11426-.0497-.25775-.12975-.41601-.23047-.27097-.17243-.52715-.56083-.75782-1.0098-.23066-.44893-.44055-.9508-.67578-1.3516-.22899-.39014-.38484-.61757-.59179-.75195-.20696-.13438-.43326-.13625-.70704-.11914-.32572.0204-.52888.21644-.61523.39453-.0864.17809-.084.34765-.084.34765v-.006s-.0533.61313-.32618.85743c-.13642.12214-.31017.18658-.65234.0684-.34217-.11823-.83448-.44345-1.4922-1.1094-1.3743-1.3914-3.0392-1.8012-4.3594-1.8633zm10.958-3.6807c.30516-.50485.51755-1.0136.65561-1.4206.06-.17742.10092-.3201.12882-.4266.0297-.1072.0404-.16842.0404-.16842s-.0332.0555-.087.14898c-.0604.10176-.1272.21225-.22896.37722-.21541.35003-.51964.82494-.81085 1.3069-.37239.61618-.86108 1.3304-1.4797 2.061-1.4154 1.6716-2.0254 2.9389-2.2158 3.388-.0264.0622.0226.15423.0594.20657.0411.033.037.0284.037.0284s-.006-.00011.0464.002c.0606-.0145.15795-.0426.18205-.0995.17788-.41951.76934-1.6551 2.1602-3.2977.63272-.74721 1.1318-1.4767 1.5124-2.1065zm2.7789.293c.19204-.45342.27707-.89834.30426-1.2549.0112-.15138.0112-.27078.008-.36047-.002-.0912-.0107-.14162-.0107-.14162s-.0143.0505-.0395.135c-.0275.0881-.0622.19135-.11465.33326-.14888.40537-.25688.64188-.47207 1.1513-.23274.55022-.58486 1.2046-1.1179 1.9075-1.2279 1.6192-1.8919 3.0545-2.1107 3.5693-.037.074.0215.18666.056.24139.03.0264.0268.0228.0268.0228s-.005.00012.0351.001c.0615-.0165.18089-.0536.20688-.12733.21052-.49536.86291-1.9061 2.0671-3.4941.55152-.72727.9183-1.4078 1.1617-1.9832zm3.158.11781c.36682-.8047.32343-1.6398.32343-1.6398s-.31294.75202-.64448 1.495l-.00026-.00011c-.23064.5113-.57229 1.1198-1.0775 1.7741-1.1578 1.4994-1.754 2.484-2.0355 3.4131-.10614.35041.0195.71662.0195.71662s.22573-.30927.31816-.61433c.26132-.86256.82926-1.8132 1.9771-3.2998.52289-.67717.87867-1.31 1.1199-1.8447zm6.6615 6.1195c-.68663-.002-1.4021.15878-2.0801.5918-2.5746 1.6444-3.9727 2.0137-3.9727 2.0137a.17641.17641 0 10.0898.33984s1.4705-.39362 4.0742-2.0566c1.2333-.7877 2.5975-.58662 3.6777-.17773 1.0802.40888 1.8457 1.0195 1.8457 1.0195a.17646.17646 0 10.22071-.27539s-.80409-.64371-1.9414-1.0742c-.56866-.21526-1.2274-.37905-1.9141-.38086zm-4.5087-13.288c-.57249.26143-1.0524.62418-1.4053.93376-.17392.15246-.31166.28803-.40796.3871-.0471.0485-.087.0911-.11235.11851-.029.0314-.045.0481-.045.0481s.0202-.0116.0564-.0341c.02-.0125.0926-.0579.13815-.0862.11755-.0729.27917-.17195.47619-.28732.41194-.24107.89345-.50718 1.4462-.75882.50483-.2302 1.0457-.39053 1.541-.38145a2.1633 2.1633 0 01.005 9e-5 42.158 42.158 0 01.005-.00018c1.9588-.0708 2.9099.0316 3.1988-.54622a1.1426 1.1426 0 000-1e-5c.22933-.45866.22494-1.2218-.21303-1.7419a1.4202 1.4202 0 00-.004-.005l-.004-.004c-.21791-.22341-.5621-.32365-.5621-.32365s.0916.34657.30957.56998l-.009-.01c.31805.37765.31598 1.0596.16733 1.3569-.089.17795-.93199.28032-2.8913.35129-.57313-.009-1.1562.17032-1.689.41327zm-2.2758.0299c-.2061.10256-.43934.15776-.66898.18488-.2626.0426-.51521-.13091-.64298-.30146-.17524-.23674-.21887-.43311-.21887-.43311s-.0266.20084.0995.50024c.0976.22999.35729.52164.7757.53403.26268.005.54642-.0393.81114-.16792.24657-.12106.45105-.31573.48427-.52459.008-.00093.0162-.002.0245-.003.12479-.0153.28687-.0409.44409-.0856.29441-.0374.56403-.33572.44559-.67816-.35515-.52356-.909-.69388-.91183-.69488-.002-.00029-.002-.00024-.002-.00024s-.00015-2e-4.00095.001c.0129.0114.43538.35734.65591.84048.091.0336-.12079.0972-.28574.19231-.12899.0367-.27685.0608-.39045.0748-.0568.007-.10519.0115-.13897.0143-.0338.003-.0127.002-.0515.004l-.28356.0151.13921.2475c.0191.034-.0224.15074-.28643.28037zm2.9776-1.7603c-.20661.021-.41967.0377-.61843.0593.0128.0156-.0236-.0109-.0915-.027-.0957-.0303-.18627-.0604-.26835-.0867-.24221-.0774-.4056-.12194-.4056-.12194s.12612.11293.33234.26505c.0687.0506.15007.10851.23828.16419.0213.0252.0777.0705.1948.086.2004.0216.42521.0348.65377.012.16566-.0167.29364.012.44168-.13566a.59245.59245 0 008e-5-8e-5 1.1387 1.1387 0 007e-5-6e-5c.0373-.0373.077-.0822.11153-.13726.11935-.23002.0437-.46876-.11771-.59893-.33959-.24414-.41923-.55784-.41923-.55784s-.15498.35836.21553.7785c.0479.0628.0645.16096.0226.19078-.0149.0238-.0372.0503-.0618.075.061-.061-.0811.0198-.22805.0346zm.85539-2.0085c-.15418-.12828-.33714-.15714-.47536-.15073-.0701.003-.12944.0146-.1738.026-.0533.0149-.0833.0275-.0833.0275s.0285.017.0698.0448c.0376.024.0825.0532.13685.0902.10684.075.20451.14908.29711.2309.0164.014.0318.0288.046.0445a.4594.4594 0 010 1e-5l.13505.14913c.17022.18798.47119.25756.47119.25756s-.0395-.30637-.20969-.49435l-.13505-.14914v1e-5c-.0251-.0277-.0515-.0531-.0788-.0763zm-3.9504 3.1709c.18833.13617.37675.18467.48575.27726.0592.016.10162.0364.13244.0585.004.003.004.001.003-.003-.0158-.0755-.0621-.0988-.0621-.0988s.002.0518.0641.0975c.003.003.005.003.004-.002-.007-.0373-.008-.0842.002-.1448-.0724-.19834-.24386-.35985-.43195-.47719l-.0987.14615.0987-.14615c-.33893-.22898-.75875-.28906-.80671-.29554-.003.00046-.002.00041-.002.00041s-.00015-.00038 9e-4.002c.0261.0336.29538.37193.61081.58508l.0987-.14616zm-5.8047.47255c-.0713-.1733-.13251-.33162-.1789-.4973-.12316-.51529-.42277-.74432-.42277-.74432s.11041.34464.14165.78824c.0102.19468.0546.39548.13381.5877.10514.25536.20852.45445.21698.50511.00038.002-.0352.22412-.11451.40497-.078.16143-.12086.30016-.20896.3835-.49822.45654-.43801.9365-.43801.9365s.1858-.38087.63109-.70052c.17347-.13066.27347-.31217.33894-.47775.0923-.21032.17352-.40012.13943-.60468a.57943.57943 0 000-1e-5.68861.68861 0 000-1e-5c-.0324-.19427-.1444-.35227-.23875-.58143z" style="color-rendering:auto;color:#000000;dominant-baseline:auto;enable-background:accumulate;fill:#000000;font-feature-settings:normal;font-variant-alternates:normal;font-variant-caps:normal;font-variant-ligatures:normal;font-variant-numeric:normal;font-variant-position:normal;image-rendering:auto;isolation:auto;mix-blend-mode:normal;paint-order:fill markers stroke;shape-padding:0;shape-rendering:auto;solid-color:#000000;text-decoration-color:#000000;text-decoration-line:none;text-decoration-style:solid;text-indent:0;text-orientation:mixed;text-transform:none;white-space:normal"/><path d="m58.932 112.45s-.96865 1.2861-1.8707 1.5534c0 0-.21444.004-.30592.008l3.93 14.556c.81651-.44169 2.1423-.73731 2.5053-.81339-1.9572-7.0669-2.5474-9.1972-4.2385-15.302-.006-.00079-.01371-2e-5-.02019-.001zm4.0261 22.717s-.000265.0921-.32608.23409c-.0282.0123-.0617.0182-.0946.0248l13.838 51.255s.24591.85439 1.3317.8878c1.0858.0334 2.0944-.8043 1.3258-3.2247-.0462-.33263-5.3744-22.775-13.705-48.875-.26325.0228-.58686.0289-1.0005.0196-1.0513-.0236-1.3694-.32194-1.3694-.32194zm-8.8367-40.157-1e-5-4.8e-5s2.087 7.5345 2.9058 10.49c-.16435-.0113-.32111-.0158-.45062 0-.68488.0835-1.7115 1.1792-1.7115 1.1792l-.20929-.6444s-.043.004-.0522.005l-2.7962-10.309s-2.2965-.1357-5.6874 2.5704l-1.3029-4.0926s2.5224.35079 6.3644-.91874l-1.2361-4.4601s-2.372.26727-3.8921 1.9878l-1.2361-3.558s2.656-.03341 4.5436-.7517l-2.1382-4.4267 3.5914-1.0691.51784 4.7774s2.9567-.31738 4.3598-1.9544c.0501.06682 1.1359 3.6583 1.1359 3.6583s-1.2528-.81851-4.5269.53454c0 .16704 1.2027 4.7106 1.2027 4.7106s4.2429-1.019 5.8966-2.8899c.10022.23386 1.1693 4.2262 1.1693 4.2262s-2.9564-.90252-6.4477.9352z" style="fill:#ffb81c;paint-order:fill markers stroke;stroke-linecap:round;stroke-width:.35278;stroke:#000000"/><path d="m55.776 100.25s-.72911 1.0206 0 2.1025l.73233 1.0867s1.0158-1.3229.23623-2.3151c-.77957-.99219-.96856-.87407-.96856-.87407zm15.686 57.263s-.59058.11812-.33073 1.1339c.25986 1.0158 1.0394 1.2993 1.5828 1.9135l.33073.59059s-.11811-.11812.10631-.68508c.22442-.56697.0354-1.76-.51971-2.2679-.53003-.58331-1.132-.79713-1.1694-.68509zm-6.1655-11.531c-.0501.0668-.41761.61806-.26727 1.6203.15034 1.0023 1.0691 2.7228 1.3698 2.8732.30068.15034.33408-.28398.35079-.85192.01669-.56795.16704-1.4533-.0334-2.3219-.20045-.86862-1.4199-1.3196-1.4199-1.3196zm.3842-10.574s-.81852.66817-.66818 1.353c.15034.68488.46773 1.4867.80181 1.7874.33409.30069.67653 1.019 1.0106.95215.33409-.0668.67653-.51783.65982-.90203-.01669-.3842-.43431-1.8208-1.019-2.4722-.58466-.65147-.51784-.73499-.78511-.71829zm-6.2903-15.716s-1.1576.0709-1.1812 1.3702c-.0236 1.2993-.0473 1.3229.0945 1.5828.14175.25986.61421.51972.70871.54334.0945.0236.56696.0945.80319-.51971.23624-.61421.59059-1.1103.59059-1.4883 0-.37797-.39659-1.2402-.50517-1.3321-.10858-.0919-.51064-.15619-.51064-.15619z" style="fill:#d0d3d4;paint-order:fill markers stroke;stroke-linecap:round;stroke-width:.35278;stroke:#000000"/><path d="m71.71 83.828.98039 1.2402m.59059-3.6144v2.197m-2.2915 1.4765s.18899-.02363.59058.25986c.40161.28348.96858.33073 1.0513.17718.0827-.15355.18898-.35435.12992-.48428 0 0 .8977.18899.81501-.35435-.0827-.54334.0118-.86226-.31891-1.0512-.33073-.18899-.6969-.44885-.6969-.44885m16.288 21.108c-.0118.17717.57877 1.4765.96856 1.6064.38979.12993.17717-.59059.17717-.92132m-10.959-.3662s.0334-.31738-.31737-.43431c-.35081-.11693-.45937-.0668-.45937-.40926 0-.34244-.01669-.55959.0167-.74334.0334-.18375.13364-.14199.25892-.23386.12528-.0919.0752-.3508.30903-.40091.23386-.0501.35079-.10858.593-.15869.24222-.0501.32574-.008.43432.14199.10857.15034.25891.10857.40926.16704.15033.0585.25056.20046.25056.20046m12.862.0835-.01669 1.1359m-1.2361-.0167-.0167-1.1025m-1.5368.7517.0501-.7851m-1.9062-7.1138s-.38226.11465-.39896.44874c-.0167.33409.0668 2.0379.0501 2.1716-.01669.13364-.95215 1.0524-.95215 1.0524s.66818-.25057.68488.16704c.0167.41761.0501 2.656.0835 2.8731.0334.21716.45102.71829.45102.71829l.58465.51783s.85192.20045 1.3531-.0167c0 0 .35082.28396.6682.21715m-6.4479-.10023-.33409.3675m-4.2822-.56189s-.23621.18899.18898.31892c.42523.12992.25986.0118 1.0512.25986.79139.24804 1.6182.85044 1.6182.85044m5.1263-.74414c-.0591-.0827-.31892-.85044-.0591-1.5592m-9.8066 2.9636-.39922.49876s1.4988-2.1256 2.6227-3.3088c.47247-.0473.87407-.33073 1.0158-.33073s.61421.37207 1.0926.35436c.47838-.0177.37798-.10041.69099.1063s.51972-.0354.86816.15356c.34845.18898.63194.46065.502.65555 0 0 .33809-.54196.9645-.58372.62642-.0418.43432-.25892.7517-.20045.31738.0585.48443-.26727.90203-.23387.41761.0334.82687-.15869.82687-.15869l1.0197 1.0173s-.0236.96856-.98038.63783c0 0 .14175.46066-.24804.47247-.38979.0118-.48428-.0945-.56697.0354-.0827.12993-.14174.96857-.14174.96857m-1.4045-7.6751s.48443.03341.56795-.01669m-5.7296.0334s.30068.03341.3842.01669" style="fill:none;paint-order:fill markers stroke;stroke-linecap:round;stroke-width:.35278;stroke:#000000"/><circle cx="98.842" cy="98.167" r="4.5121" style="fill:#d0d3d4;paint-order:fill markers stroke;stroke-linecap:round;stroke-width:.35278;stroke:#000000"/><path d="m97.075 87.867.73746 2.7523-2.1695-1.2526v3.7545l2.0762-1.1987-.004 1.443-.004 3.4178h-3.6952v2.2131h9.6674v-2.2131h-3.7549v-4.8814l2.0762 1.1987v-3.7545l-2.1695 1.2526.73746-2.7523z" style="fill:#ffb81c;paint-order:fill markers stroke;stroke-linecap:round;stroke-width:.35278;stroke:#000000"/><path d="m86.109 91.02s-1.5113 1.3901-3.2398.6022c-1.9074-.86943-2.5892-2.3386-2.8063-2.94 0 0-.7936.307-1.0062.25976-.21261-.04725-.67326-.63784-.54334-1.1221.12994-.48428.56696-.73233.85044-.62602.45911.13358-.70305-1.1822-.87407-1.4056l1.2166-2.5159-.0236-1.7127s.22442-.86226 1.2875-.4016c0 0 1.2048-1.5119 2.445-.62602l.23624.14174s.24805-1.0394.87407-.87407c.62602.16536.61421.59059.67327.69689.0354 0 .83863-.25986 1.0631-.15355.22442.1063 1.1221 1.0512 1.2284 1.1103 0 0 .93313 3.2955.93313 3.3427 0 .04725-.29529.21261-.30711.25986-.0118.04725 0 2.3742 0 2.3742s.75596-.05906.90951.03544c.15355.09449.25986.81501.0591 1.004-.2008.18899-.82683.5079-1.4056.31892 0 0-1.0858 1.7301-1.5703 2.2316z" style="fill:#d0d3d4;paint-order:fill markers stroke;stroke-linecap:round;stroke-width:.35278;stroke:#000000"/><path d="m82.268 81.683s-.90203 1.1359-.53454 1.6203c.3675.48443 1.6203-.23386 1.9878-1.019m-.0697-1.6107s-.0473 1.4292.33073 1.8781c.37796.44885 1.193.43704 1.5355.11812-.0118.14174-.55515.69689-.0118.87407.54334.17718 1.3465.11812 1.3229-.35435-.0236-.47247 0-.81501-.5079-1.252" style="fill:none;paint-order:fill markers stroke;stroke-linecap:round;stroke-width:.35278;stroke:#000000"/><path d="m87.49 81.453s-.4016 1.1694-.21262 1.4056c.18899.23623.37797.41341.33073.66146-.0472.24805-.46065.56696.0354 1.1457.4961.57878 1.0985.70871 1.3465.96856.24805.25986.43704.16536.4961.1063.0591-.05906-.0118-.38979.33072-.42522.34254-.03544.35436-.55515.22443-1.0512-.12993-.49609.0118-.82682-.59059-.79139l-.28345.03543s-.34254-.31892-.34254-.63784c0-.31892-.0118-.16536-.12993-.4016-.11812-.23624.0236-.25986-.14174-.46066-.16537-.2008-.22442-.35435-.37798-.35435-.15355 0-.36616-.34254-.68508-.2008zm-9.5203 5.4688s.0236.53153.43703.54334c.41341.0118 1.1457-.18899 1.2639-.33073.11812-.14174.30711-1.0985.17717-1.2639-.12993-.16536-.31891-.17718-.53153-.04725 0 0 1.382-1.8544 1.571-2.008 0 0-1.0749-.76776-.81501-1.1221.25986-.35435.82682-.08268.82682-.08268s.17716-1.004-.51972-1.0276c-.69686-.02362-.98037.04725-1.1103.42522 0 0-1.2639 1.1457-.30712 1.7245 0 0-.80319.62602-.9213 1.1812-.11813.55515-.0709 2.008-.0709 2.008z" style="fill:#d0d3d4;paint-order:fill markers stroke;stroke-linecap:round;stroke-width:.35278;stroke:#000000"/><path d="m83.38 90.135s.0118.21261.25985.29529c.24805.08268.73233.03544.73233.03544" style="fill:none;paint-order:fill markers stroke;stroke-linecap:round;stroke-width:.35278;stroke:#000000"/><path d="m82.754 89.663c.0945-.02363.6024-.03544.79139-.09449.18898-.05906.33072-.15355.51971-.04725.189.1063.8977.16536.8977.16536" style="fill:none;paint-order:fill markers stroke;stroke-linecap:round;stroke-width:.35278;stroke:#000000"/><path d="m80.64 85.54s.50791-.92132 1.6891-.73233c1.1812.18899 1.0985 2.2324 1.0867 2.3978-.0118.16536-.0827 1.3465-.0827 1.3465l1.004-.02363" style="fill:none;paint-order:fill markers stroke;stroke-linecap:round;stroke-width:.35278;stroke:#000000"/><path d="m80.888 86.651s.63783-.33073 1.2402.02363" style="fill:none;paint-order:fill markers stroke;stroke-linecap:round;stroke-width:.35278;stroke:#000000"/><path d="m81.171 87.277s.64965.16536.95675-.02363" style="fill:none;paint-order:fill markers stroke;stroke-linecap:round;stroke-width:.35278;stroke:#000000"/><path d="m86.675 86.698s-.68508-.57878-1.5119.27167c.12992.08268.23623.4016 1.4528.4961" style="fill:none;paint-order:fill markers stroke;stroke-linecap:round;stroke-width:.35278;stroke:#000000"/><path d="m86.097 86.745.0118.31892" style="fill:none;paint-order:fill markers stroke;stroke-linecap:round;stroke-width:.35278;stroke:#000000"/><path d="m81.632 86.721.0472.31892" style="fill:none;paint-order:fill markers stroke;stroke-linecap:round;stroke-width:.35278;stroke:#000000"/><path d="m84.856 85.918s.4016-.82682 1.0158-.85045c.6142-.02363.99219.18899 1.1457.36616" style="fill:none;paint-order:fill markers stroke;stroke-linecap:round;stroke-width:.35278;stroke:#000000"/><path d="m57.217 169.44s.70871 1.5355 1.5828 1.6773" style="fill:none;paint-order:fill markers stroke;stroke-linecap:round;stroke-width:.35278;stroke:#000000"/><path d="m105.45 170.78s.30956 1.1355.73478 1.3717" style="fill:none;paint-order:fill markers stroke;stroke-linecap:round;stroke-width:.35278;stroke:#000000"/><path d="m107.26 170.88s-.25056-.30068-.13363-1.3698c0 0-1.5201-.11693-1.637.55125-.11693.66817-.0334.71828-.0334.71828s-4.864-2.1009-15.353.59215c-10.489 2.6931-15.757 2.1025-19.678.68508-3.9215-1.4174-8.1215-2.2915-10.134-2.2915-1.6655 0-1.2461-1.4824-.8032-2.1852 0 0-1.4174-.34255-2.1497.64964 0 0-.33074.70871-.11812 1.2048 0 0-6.5437.66146-11.268 2.3151-4.7247 1.6537-11.434-.0472-11.434-.0472l3.2195 5.3245 2.0045 1.47s5.5955.38701 10.462-2.1643c4.8664-2.5513 11.812-1.7954 16.867.37796 5.0554 2.1734 8.6934 3.3073 16.773 1.7009 0 0 14.647-4.5357 19.182-3.2128 4.5357 1.3229 8.817 2.3705 11.699 2.3232l4.0106-5.3825s-10.706.77825-11.475-1.2597z" style="fill:#d0d3d4;paint-order:fill markers stroke;stroke-linecap:round;stroke-width:.35278;stroke:#000000"/><path d="m41.844 175.26s.73499.96884 1.9711 1.4366m43.431-1.7372s.36749.60135 1.0357.7684m-51.951-1.0023c.16705.0668 3.9756 1.0357 5.5124.53455 0 0-.43431-2.0379 1.47-2.2384 0 0-.63476 1.6704.26727 1.9711.90204.30068 2.2384.0668 3.5413-.30068 1.3029-.36749 8.5192-3.4745 13.831-2.3386 5.312 1.1359 9.2124 2.5885 11.66 3.3074 2.4437.71792 5.7463 1.2361 14.633-.70158 0 0-.83521-1.8709.70158-2.2384 0 0 .0668 1.7038 1.6704 1.637 1.6036-.0668 7.7842-3.1738 15.969-1.0691 8.1851 2.1047 11.827 1.0023 11.827 1.0023" style="fill:none;paint-order:fill markers stroke;stroke-linecap:round;stroke-width:.35278;stroke:#000000"/><path d="m108.2 183.8c17.512-14.127 16.499-32.27 16.499-32.27v-75.841l-95.985-2e-6v75.841s-1.0127 18.143 16.499 32.27c0 0 11.738 10.158 31.493 10.158 19.755 0 31.493-10.158 31.493-10.158z" style="fill:none;paint-order:fill markers stroke;stroke-linecap:round;stroke-width:1.0583;stroke:#000000"/><path d="m52.147 117.45c-.50852.0296-1.0956.0855-1.0956.0855s.52108.294 1.1138.26679c.0683-.004.13385-.0104.19646-.0229a1.0025 1.0025 0 001e-5-1e-5h3e-5c.48661-.10905.53216-.61106.53294-.61916-.00065-.003-.00059-.003-.00059-.003s.00077-.00024-.003.00081c-.0705.0498-.32202.23116-.59899.27508h-1e-5l3e-5-1e-5c-.0399.008-.0897.0137-.14547.0166zm.63856-1.3991c-.40814.0409-.79869.25736-.79869.25736s.42574.13458.83389.0937l.17231-.0173.0304-.016c.24097-.12698.3997-.41.3997-.41s-.32319-.0291-.56415.0979h-1e-5l.0646-.0195zm-1.0353 2.4922c-.44739.0353-1.0296.0791-1.0296.0791s.48948.30638 1.0535.27286c.0688-.005.13539-.014.19976-.0323a.71973.71973 0 000-1e-5h2e-5c.17979-.0489.28893-.2012.31878-.3316.0466-.0931-.008-.21048-.009-.2124l-.004-.004s.00067-.00036-.004.003c-.0142.0169-.0917.0712-.13337.11924-.0901.0514-.16567.0554-.2652.0865h-1e-5l1e-5-1e-5c-.0313.009-.0753.0161-.12673.0196zm-.89857 1.3595c-.12413.01-.26262-.004-.39467-.0299-.068-.0144-.12562-.0297-.17036-.0424-.054-.0143-.0842-.0254-.0842-.0254s.0127.0322.0421.084c.0251.0424.0624.0967.11557.15205.10597.11006.28238.22203.50937.214.0786-.004.16074-.0195.2429-.0498h1e-5c.17327-.0635.31811-.17869.41497-.28367.0622-.078.10262-.13584.11395-.159.00092-.007.00068-.006.00068-.006s.00099.00023-.006-.00086c-.0399.008-.0763.0148-.18439.0226-.12252.0156-.30817.0396-.46095.0962l-1e-5 1e-5c-.0477.0176-.0935.0262-.1387.0285zm1.6631 1.551c.29794-.55383.11921-1.1291.11921-1.1291s-.1973.54463-.42815.96058l-.00037-.00021c-.0322.059-.0671.10908-.10193.14638v1e-5c-.13287.11836-.24802.28664-.2873.45939-.0366.16085.0147.25153.0147.25153s.0404-.0937.13407-.16639c.0967-.0751.2689-.14521.39647-.30383l1e-5-1e-5a.84369.84369 0 001e-5 0c.0609-.0652.11079-.13948.15369-.21812zm1.2919-.31515c.0799-.51311-.20403-.95705-.20403-.95705s-.0758.51846-.14401.89948c-.004.0268-.0184.037.006.006h-1e-5c-.18906.23677-.29207.5189-.31117.58016l6e-5.003s-4e-4 1e-5.003 6e-5c.0218-.007.38433-.11309.58407-.36234v-1e-5c.0521-.065.0575-.11573.0663-.16895zm1.3479-.41958c.033-.15257.0405-.31001.0362-.44758-.007-.20821-.0526-.397-.0526-.397s-.089.12864-.18233.34958c-.0568.12323-.11341.26958-.14604.42036-.006.0272-.002.0114-.009.0428l.0507-.09c-.24805.23624-.37445.6002-.37445.6002s.36969-.1085.61774-.34473l.0387-.0355a16601 16601 0 00.0119-.0546c.007-.0319.004-.0161.009-.0436zm1.5754-.70959c.16992-.35311-.10319-.60485-.10319-.60485s-.1247.30753-.20675.44361l-.002-.00078c-.009.018-.0186.0292-.0264.036a.067484.067484 0 01-1e-5 1e-5l-1e-5 1e-5-.002.001c-.32844.29446-.54861.70872-.56702.74397-.00037.002-.00031.002-.00031.002s-.00026 3e-5.002-.00015c.0371-.0145.4733-.18871.80123-.48272l-.002.001 1e-5-1e-5-2e-5 2e-5c.047-.0411.0815-.0896.10707-.13873zm17.033-5.7229c-.21089-.21936-.4733-.36145-.67693-.46288-.13027-.0656-.24626-.11548-.33217-.15003-.0452-.0182-.0821-.0321-.10902-.0419-.0304-.0108-.0483-.0169-.0483-.0169s.0126.014.0341.038c.019.0209.0461.0502.0791.0854.0634.0676.14934.1572.25101.2591.16421.16474.37117.34647.54688.53264.0403.0423.0622.0811.0583.0711.0486.12153.0452.50521.0375.60163l.0825.007c.0685.0505.0909.035.0909.035s.0214.0217.0957-.0201l.0825.007c.009-.11209.0514-.47814-.0617-.76071-.0313-.0783-.0763-.12669-.13046-.18351zm.63421-1.218c-.20986-.1715-.4297-.12528-.55732-.0624-.0801.0347-.14421.0771-.18903.11099-.0516.0399-.085.0714-.085.0714s.044.001.10498.008c.0516.005.12459.0123.20047.0237.1281.0282.25781.0508.2789.10031.0111.0109.0207.0238.0284.0562.0942.39236.02.67492.24725.90209l-1e-5-2e-5c.10097.10097.30465.34055.3592.40553l.076-.0638c.0696-.009.0737-.0322.0737-.0322s.0241 1e-4.0445-.0671l.076-.0638c-.0563-.0671-.25233-.30054-.37995-.42817a1.8469 1.8469 0 00-1e-5-1e-5.027869.027869 0 010-1e-5c-.0401-.0401-.0474-.29206-.15365-.73493a.51176.51176 0 000-1e-5c-.0212-.0885-.0652-.16761-.12443-.22568zm.40932-.47784c-.10023-.059-.20855-.14383-.31218-.2231-.0579-.0454-.10023-.0792-.13972-.11053-.0426-.0325-.0705-.0557-.0705-.0557s-.00031.0346.005.0935c.005.0486.0159.11269.0376.18443.0389.13186.12053.29884.29242.41035.0565.0354.11946.0648.18916.0823a.58073.58073 0 001e-5 0 .29919.29919 0 010 1e-5c.19734.0493.5285.3459.67254.52979.0194.0287.11508.005.16875-.007.0228-.006.0367-.009.0367-.009s.009-.011.023-.0302c.0319-.0461.0803-.13602.0493-.17126-.17693-.22587-.49056-.56098-.86472-.6545l1e-5 1e-5c-.027-.007-.0565-.0196-.0875-.039zm.54517-.87945c-.22789-.1472-.52949-.0614-.52949-.0614s.15136.26815.36283.36469l-.002.003c.0457.0251.0945.0528.14605.0833.25803.15248.44601.74195.65345 1.1192a1.2621 1.2621 0 001e-5 1e-5c.2204.40073.3801.17525.39583.80472a3.5983 3.5983 0 010 1e-5c.0143.57255.0286.93723.0325 1.0314l.0927-.004c.0697.0367.0845.0204.0845.0204s.016.0148.0825-.0273l.0927-.004c-.004-.0925-.0181-.45529-.0323-1.0257v1e-5c-.0176-.70687-.29229-.69851-.43938-.96593-.16004-.29099-.30616-.97103-.78309-1.2529-.0548-.0324-.10678-.0619-.15563-.0888zm.95581-.008c-.1258-.18102-.2864-.33883-.41676-.45227-.0627-.0546-.11854-.099-.16023-.13081-.0464-.0344-.0763-.0552-.0763-.0552s.008.0355.0236.0913c.0145.0505.0356.11861.064.19689.0591.16299.14941.36935.27598.55147.0466.0671.0944.13557.14235.20412h-1e-5c.28034.4005.52771.78581.59285.88804l.0561-.0357c.10168-.002.10973-.0321.10973-.0321s.0311.006.0755-.0859l.0561-.0358c-.0667-.10474-.31599-.49308-.60135-.90077a20.089 20.089 0 00-1e-5 0c-.0477-.0682-.0953-.13638-.14166-.20314zm.15241-.71937c-.51362-.0164-.54373.46673-.54373.46673s.34435-.15555.51347-.1177l-.00011.001c.0192.001.1704-.1298.1704-.1298s.007-.208-.13992-.22166zm-.0471 1.5325c-.16849.0564-.28521.20573-.3272.33989-.0411.13124-.005.21076-.005.21076s.0546-.066.14139-.10777c.0881-.0424.21468-.063.32408-.12099l.00082.002c.0779-.0326.14729-.23033.14729-.23033s-.15135-.14963-.28248-.0955zm-3.2979 7.7769c-.42004-.0799-.67789-.12293-.96728-.25217-.20004-.0943-.30693-.18906-.30693-.18906s.0413.14431.2224.31298c.22428.21416.56379.39967.98799.47521.30581.0561.60776-.10459.60776-.10459s-.27795-.19333-.54394-.24237zm1.312-.91181c-.21694-.0394-.45109-.17326-.64422-.26672-.19587-.0948-.33649-.13827-.33649-.13827s.0889.11619.22863.27842c.13615.15812.35009.38247.6714.47.12062.0283.2553.0506.40616.065a3.6504 3.6504 0 00.0115.001l.59725-.0206-5e-5-.001c.0496-.002.0931-.17827.0931-.17827s-.0556-.17315-.10516-.17144l-5e-5-.001-.57439.0198c-.13159-.013-.24674-.0324-.3477-.0562zm-2.0514 1.7567c-.64821-.54512-1.4092-.95616-1.4092-.95616s.53546.6792 1.1837 1.2243l.0306.022c.13069.0688.26752.12841.40928.17318.38584.12185.60341.18337.73098.21485.12756.0315.0899.0948.26654.0162l-.0673-.15124c.004-.0141-.003-.0117-.003-.0117s-.004.004-.006-.008l-.0673-.15125c.16558-.0737.0755-.008-.0386-.0363-.11407-.0282-.32731-.0881-.70928-.20876-.11803-.0373-.23604-.0883-.35124-.14897zm6.3966-1.85c-.93863-.26211-1.9234-.35893-1.9234-.35893s.89246.42738 1.8311.68949l-.078-.04c.1185.11763.37233.24822.37233.24822s.087-.29009-.12406-.49884zm-.24194 1.3022c-.26203-.28671-.60981-.4098-.89379-.45348-.38974-.0721-.59936-.0737-.59936-.0737s.25367.14738.5391.27619c.24017.11259.50166.26958.69142.48649.10432.11594.35226.20588.35226.20588s.0709-.26201-.0896-.44142zm-.31029 1.1163c-.21651-.28213-.53351-.44544-.82939-.43278-.33758.0172-.47159.0887-.47159.0887s.23989.0435.45574.10583c.22048.0557.37039.23035.57171.46106.15217.18621.43722.33081.43722.33081s.023-.32378-.16369-.55359zm-.72595.92454c-.13939-.18294-.42147-.25283-.42147-.25283s.0204.31968.14408.47079c.029.0369.0603.0771.0941.12104v-1e-5c.21127.27467.30974.34488.39239.3753l.0538-.14607c.0167-.0122.0126-.0179.0126-.0179s.001-.009.002-.0211l.0538-.14607c.0392.0144-.0418-.009-.23461-.25932a15.749 15.749 0 000-1e-5c-.0346-.0449-.0667-.0862-.0963-.1239zm5.9712 2.6814c-.0236-.1117-.10652-.20792-.19127-.26046-.0652-.0358-.10769-.0454-.14102-.0456-.0113-5e-5-.0129.005-.0129.005s-.004.003-.001.0125c.005.0232.006.0651.003.1226-.003.0693-.0196.16606-4e-4.24395.009.0408.0176.0883.0242.14311.0479.39955.2242.65573.28214.73121l.0873-.067c.0616-.004.0646-.0254.0646-.0254s.0157.00059.0406-.0554l.0873-.067c-.0323-.042-.17394-.24362-.21171-.55841-.008-.066-.0183-.12545-.0304-.17901zm.58549-1.6177c-.0859-.14815-.25167-.24408-.3936-.26013-.12578-.0114-.17358.047-.17358.047s.0567.0265.10716.0934c.0587.0756.0842.19357.16075.30645.0346.0555.0717.12422.10998.2087.23878.5267.33809.86433.36038.94519l.0904-.0249c.0757.0181.0858.00079.0858.00079s.0198.0118.0736-.0447l.0904-.0249c-.0268-.0972-.13217-.45228-.37917-.99712-.0439-.0968-.088-.17927-.13201-.24983zm.76201-1.1131c-.1329-.23545-.3572-.35243-.54385-.39431-.25316-.0678-.37208-.0408-.37208-.0408s.15793.11862.28606.22697c.12612.10333.24533.23343.32045.37758.03.0548.0555.11891.0738.19615.12666.53482.19971 1.0126.21785 1.1375l.0599-.009c.0993.0412.11937.0166.11937.0166s.0274.0191.10993-.0499l.0599-.009c-.0191-.13127-.0932-.61709-.22369-1.1681-.0252-.10646-.0621-.2012-.10764-.2843zm.69546-1.5187c-.0899-.26707-.29966-.44819-.50243-.51321-.23044-.0797-.3155-.0319-.3155-.0319s.15357.0926.22805.18592c.12281.12255.17978.27431.25757.47755.0299.084.056.18533.0751.3075.12156.77941.14119.88333.15214.92925l.1554-.0371c.0197.002.0171-.00063.0171-.00063s.001.00043.0153-.007l.1554-.0371c.002.01-.0254-.12386-.14673-.90176-.022-.14129-.0531-.26422-.0913-.37154zm1.2708-.68827c-.28587-.48733-.78118-.74574-1.1486-.90184-.21752-.0944-.41058-.15655-.55012-.19624-.0738-.021-.1324-.0356-.17488-.0455-.0474-.011-.0726-.016-.0726-.016s.0224.012.0644.0361c.0382.0218.0891.0513.15481.0907.12306.0738.29222.17853.47993.30859.32003.22484.73462.52129.94039.89844.0623.10955.0983.21882.10486.33012l.0583.98258.16028-.01c.0189.004.016.002.016.002s-.003.002.0156-.004l.16028-.01c-.001-.0176-.008-.13962-.0583-.98257-.0103-.17391-.0668-.33658-.15033-.48354zm2.7605 13.27c-.0967-.35148-.29053-.63367-.48375-.82895-.21274-.22157-.3565-.30467-.3565-.30467s.10212.19163.2054.41257c.11685.24309.20733.49754.29473.8147.0492.17855.25157.35964.25157.35964s.14976-.23072.0885-.45329zm.42003-.0965c-.16816-.275-.28504-.46594-.32807-.70718-.0352-.15851-.0469-.36332-.0469-.36332s-.0772.077-.1231.35919c-.0524.2668.004.60002.19996.9.1444.22762.44097.29431.44097.29431s-.0264-.29845-.14289-.483zm-8.5297 13.567c-.1871-.10839-.33699-.22695-.45204-.37327-.0526-.0678-.0902-.12888-.11678-.17705-.0316-.0557-.0441-.0892-.0441-.0892s-.0106.0375-.0166.10598c-.005.0587-.004.13852.014.23204.0428.20862.17962.45775.43918.60706.17812.1023.39014-.0255.39014-.0255s-.10519-.21701-.21384-.28009zm-.92352.88857c-.23926-.14119-.49332-.55873-.49332-.55873s-.13228.49986.28519.84358c.0759.0554.16422.11026.26759.16452.54933.2884.7566.54541.79545.59789l.076-.0563c.0757-.0134.0792-.0296.0792-.0296s.0253.005.0524-.0678l.076-.0563c-.0699-.0945-.32133-.38864-.91499-.7003-.09-.0473-.16352-.0932-.22344-.13703zm.32476 1.7922c-.67665-.54547-1.2858-1.1816-1.2858-1.1816s.29995.85217 1.0658 1.4574c.17789.14198.45434.11283.45434.11283s-.0787-.26445-.2343-.38857zm-.6514.69349c-.36161-.36494-.6016-.54836-.82644-.86239-.18325-.25596-.24212-.47684-.24212-.47684s-.032.22744.0872.55707c.12823.35464.38436.70874.73646 1.0353l-.00019.00019c.26227.25357.64635.32704.64635.32704s-.16426-.35145-.40108-.58061zm-.21706 1.8355c-.42477-.43078-.783-.8944-1.0747-1.2931-.32551-.44521-.56207-.78049-.56207-.78049s.12774.35794.39364.88314c.22209.4433.5403.97818.99165 1.4379.23193.23596.58583.28485.58583.28485s-.13285-.32766-.33436-.53226zm9.3143-8.8216c-.51087-.41399-1.1442-.52221-1.6176-.54233-.25813-.012-.47583.002-.63107.0186-.0811.009-.14415.0177-.18968.0251-.0503.008-.0765.0136-.0765.0136s.0265.002.0769.006c.046.004.10802.0109.1886.0212.15351.0197.36332.0517.60607.10691.44731.10344 1.005.27543 1.419.6229.19174.1583.49854.31174.49854.31174s.002-.357-.27429-.58408zm-.51774 1.1511c-.36077-.16209-.7266-.0629-.94644-.0131-.23445.0531-.39968.0642-.39968.0642s.14872.0773.40628.11381c.24355.0346.58798.0291.77839.14881.0918.0473.1891.10969.29169.19221.65515.52696.76844.65948.7361.61685l.12429-.0943c.016-.008.0186-.009.0186-.009s.003.005.0139-.0161l.1243-.0943c-.0599-.0789-.13678-.14825-.79607-.67855-.11979-.0964-.2372-.17222-.35134-.23097zm.17121 1.1637c-.29001-.10935-.58896-.0783-.78787-.0537-.20673.0256-.34527.0436-.34527.0436s.57918.16266 1.0042.33852c.0574.0225.10897.0483.15222.0765a.60561.60561 0 010 1e-5.78412.78412 0 011e-5 0c.27085.17663.41059.50655.57466.70331l.0116-.01c.0667.0269.17831-.0563.17831-.0563s.0614-.10697.0695-.15033l.0116-.01c-.0667-.08-.26651-.5209-.65289-.77288-.0679-.0443-.14082-.0799-.21604-.10939zm.0237 1.2428c-.23005-.12261-.44807-.0761-.58431-.0378-.14306.0402-.2384.0711-.2384.0711s.0861.0576.23273.10833c.1468.0507.31689.0849.40347.15785.0301.0188.059.0419.0873.0719.17711.18819.53916.87413.63061 1.0596l.0154.00079c.14742.0161.16731-.0286.16731-.0286s.0499.0127.12505-.11523l.009-.0129c-.0949-.19252-.41005-.84775-.69012-1.1453a1.1406 1.1406 0 00-1e-5 0c-.0491-.0522-.10245-.0952-.15764-.12954zm.27555 1.7866c-.19494-.10432-.39507-.094-.53913-.0644-.0807.0159-.14835.0382-.19784.0575-.0559.0226-.0922.0409-.0922.0409s.0372.0129.091.0341c.0497.0187.10936.0411.18338.0695.12981.0517.27556.10646.38287.17055.0335.0187.059.0391.0768.0593.16133.18438.29398.5495.3236.64415l.0754-.0236c.0864.0211.10122-.002.10122-.002s.0285.0129.0846-.0564l.0754-.0236c-.0353-.11296-.15609-.49832-.39479-.77112a1.2101 1.2101 0 00-1e-5 0 .55349.55349 0 000-1e-5c-.0499-.0571-.10892-.10079-.17036-.13507zm.95001-7.2316c-.31432-.91438-.79546-1.7714-.79546-1.7714s.14752.97172.46185 1.8861c.0532.15469.27316.25204.27316.25204s.11363-.21204.0605-.36673zm-2.2367 11.237c-.21493-.13024-.45116-.16774-.63572-.16452-.0846.002-.15449.0114-.20683.0217-.0591.0125-.0921.0239-.0921.0239s.0304.0128.0823.0386c.048.023.10391.051.17632.0897.18522.10005.28524.16598.49304.29226.0658.0399.13183.0863.19645.14013.41743.34786.59221.5474.62825.59044l.0883-.074c.0569-.0127.0578-.026.0578-.026s.0164.003.036-.0526l.0883-.0739c-.0517-.0618-.2417-.27564-.67288-.63497-.0789-.0658-.15945-.12226-.23929-.17071zm.19027 1.1498c-.22338-.0643-.42728-.0137-.57105.037-.0899.0307-.16471.065-.21831.0923-.0675.0252-.0999.0545-.0999.0545s.0402.0154.11068.0208c.0558.0108.13873.0264.22441.0422.14682.0271.32753.0481.45005.0903.0316.01.0481.0215.0492.0226l-2e-5-1e-5c.1739.16367.35496.32587.40417.36981l.0786-.0881c.0516-.0153.0515-.0322.0515-.0322s.0166-.002.0262-.0548l.0786-.0881c-.048-.0428-.22772-.20392-.39732-.36354a13.834 13.834 0 01-1e-5 0 .39378.39378 0 00-1e-5-1e-5c-.057-.0536-.12189-.0827-.18689-.10276zm-.11803 1.3229c-.0896-.0314-.21684-.0663-.31567-.0896-.10581-.068-.21883-.0553-.21883-.0553s-.00047.12074.10592.20875c.0594.0951.15617.2084.30477.26648.0488.0183.0998.0329.15411.0403a.59375.59375 0 001e-5 0 9.4351 9.4351 0 011e-5 0c.0566.008.10091.0143.13517.0197l.005.0452.12393-.0146c.002.0145.0547.023.0547.023s.0495-.0206.0478-.0351l.12393-.0146-.0271-.23071a2.0282 2.0282 0 00-.0431-.0448c-.0999-.10061-.0618-.0411-.0769-.046-.0151-.005-.0292-.008-.0506-.0128-.0428-.009-.11334-.021-.24553-.039h2e-5c-.0209-.003-.048-.01-.078-.0211zm.16852 1.3435c-.0826-.0523-.10435-.0613-.20431-.12956-.0555-.0806-.1455-.11713-.1455-.11713s-.0664.0874-.024.20163c.004.10281.0446.23842.1685.33196.0861.0619.20901-.088.20901-.088s.009-.18977-.004-.19893zm.94693 1.8022c-.33059-.41692-.80147-.71742-.80147-.71742s.19663.52281.52509.93667c.0482.0608.0953.12028.13957.17649.26085.33107.30576.42178.28443.37532l.14958-.0687c.01-.002.0117-.002.0117-.002s.001.003.01-.007l.14957-.0687c-.0323-.0704-.0634-.11075-.32794-.44646-.0446-.0566-.0919-.11636-.14029-.17742zm-19.206-11.703c-.25449-.23233-.54458-.38976-.78088-.48996-.11195-.047-.20637-.0795-.27665-.1012-.0757-.0265-.12046-.0336-.12046-.0336s.0315.0323.0913.084c.0593.0553.11834.11085.20974.19813.1142.10833.47235.45073.63902.60304.12696.11599.38158.12996.38158.12996s.003-.25675-.14367-.39044zm.91527-.89976c-.25836-.42285-.71319-.44386-.71319-.44386s.19881.35307.4246.64239l-.001.00071c.0701.1018.29218.14085.29218.14085s.0886-.20972-.002-.3408zm1.158-.76794c-.29067-.38466-.75328-.52791-.75328-.52791s.23067.41614.47236.7392l-.00051.00038c.0351.0475.22853.0278.22853.0278s.11511-.15882.0534-.23981zm23.279-11.42c.45039-.67702.75392-1.4518.75392-1.4518s-.59725.57933-1.0476 1.2564c-.0762.11453-.006.32677-.006.32677s.22306-.0168.29925-.13138zm1.6091.02c.0834-.28112.14046-.57526.17602-.80749.0188-.12526.032-.23376.0406-.31152.0155-.0879.0145-.13902.0145-.13902s-.0333.0388-.0762.11737c-.0422.0665-.099.15946-.16092.27116-.11427.20722-.24609.47897-.3322.76918-.0273.0919-.0522.18012-.0734.26131-.12478.47832-.16062.84878-.16875.95103l.091.007c.0641.047.0831.0312.0831.0312s.0148.0161.0866-.0177l.091.007c.007-.0873.0408-.43886.15845-.88998.0198-.0761.0438-.16089.0702-.25003zm1.3432.286c.11624-.41781-.0486-.83645-.0486-.83645s-.18931.42175-.28974.73666c-.0231.0783-.0521.16637-.0885.26566a5.376 5.376 0 010 1e-5 2.1999 2.1999 0 00-1e-5 1e-5c-.24233.66091-.12667 1.3269-.088 1.5157l.0182-.004c.13431.0557.16457.0134.16457.0134s.0361.019.1447-.0767l.0182-.004c-.0321-.15669-.12855-.77211.0736-1.3235l-1e-5 2e-5c.0388-.10581.0702-.20108.0957-.28735zm-4.2841 1.1246c-.0555.15289-.10709.31628-.14204.46514-.02.0883-.0349.16728-.0448.22548-.0197.0679-.0181.11098-.0181.11098s.0381-.0205.0854-.0738c.0443-.0398.10294-.0956.16534-.16384.10003-.10995.21733-.2586.28543-.4424l.006-.022c.004-.0364-.0475-.0845-.0857-.11309-.0301-.0225-.056-.034-.056-.034s-.0276.005-.0649.0154c-.0453.0123-.12063.0316-.13744.0541zm.48029 1.0469c-.12834.37996-.18912.84128-.18912.84128s.37236-.28962.5219-.72833l.00064.00021c.032-.0935-.12173-.21534-.12173-.21534s-.1911.0387-.21233.10196zm8.456 1.1395c-.16566-.33873-.28663-.63395-.39075-.92033-.0487-.13337-.0836-.23794-.11035-.32206-.023-.0853-.0419-.13987-.0419-.13987s-.0129.0516-.0165.14644c-.007.0865-.0123.2051-.007.3496.0123.2976.0718.67667.24899 1.0409.0624.12801.13467.25589.21851.37982v-1e-5c.46424.68629.61736.92317.65054.97513l.1-.0638c.0567-.007.057-.0179.057-.0179s.0111.005.0403-.0443l.1-.0638c-.0363-.0568-.19048-.29524-.65566-.98291a2.4806 2.4806 0 010-1e-5c-.0734-.10852-.13765-.22198-.19364-.33678zm1.9272.51897c-.50203-.65018-1.0528-1.359-1.0528-1.359s.23057.86763.77329 1.5742c.0721.0986.26615.0321.26615.0321s.057-.19351.0134-.24737zm.97666-.3006c-.43049-.73868-1.0133-1.3886-1.0133-1.3886s.27814.82747.70863 1.5662l.006.01c.0181.0391.10619.0463.16777.0346.0561-.0193.0621-.0284.0621-.0284s-.002-.0109.0298-.0565c.0231-.0511.0625-.11463.0329-.147zm-4.5407-10.472c-.12739.25116-.31955.53137-.45397.74505-.0829.13133-.15327.24411-.20526.32834-.0265.043-.0492.08-.0643.1048-.0172.0288-.0274.0455-.0274.0455s.0166-.0106.0447-.0291c.0251-.0168.0593-.0403.10131-.0706.0803-.0579.18842-.14011.30788-.24377.19734-.16993.44803-.40629.61075-.71885.0738-.13581-.0797-.2901-.0797-.2901s-.2018.0618-.234.12871zm1.5387.0542c-.14615.26115-.35614.5134-.52499.71782-.0943.11354-.17485.20716-.23651.2781v1e-5c-.0326.0375-.0557.0638-.0753.0861-.0206.0238-.0327.0374-.0327.0374s.0162-.006.0462-.0193c.0259-.0114.061-.0274.10448-.0489.0842-.0416.19766-.10247.32503-.18531.22794-.147.51317-.36697.70047-.69141.0946-.16373-.0411-.35749-.0411-.35749s-.21249.088-.2655.18295zm8.2952 1.3474c-.10484-.20226-.26152-.39629-.36737-.52089-.0928-.0826-.14394-.15333-.14394-.15333s.01.0719.009.21408c.0254.17379.0809.40734.18855.62077.0523.10225.11194.21705.17996.3458.46811.88608.63729 1.1973.84445 1.4233v-1e-5c.14818.16165.27833.34123.31109.38746l.0995-.0705c.0501-.004.0535-.0185.0535-.0185s.0159.002.0353-.0444l.0996-.0705c-.0375-.0529-.17275-.24066-.3389-.4219a1.1334 1.1334 0 010-1e-5c-.16036-.17492-.32524-.46508-.79257-1.3496a146.44 146.44 0 010-1e-5c-.0673-.12747-.12627-.24089-.17779-.34163zm-.99775.99089c-.20364-.34622-.43345-.73192-.43345-.73192s-.13075.46892.13107.91054l-.00068 4e-4c.0434.0735.093.14655.14975.21687.27679.34269.38649.70098.4213.83404l.0408-.0107c.0697.0379.14287.0179.14287.0179s.0783-.015.11687-.0859l.0408-.0107c-.0411-.15707-.16486-.56615-.48815-.96641-.0447-.0554-.0848-.11426-.12045-.17463zm-.94556.7003c-.0522-.0833-.0764-.23529-.12104-.36195-.0461-.13075-.1021-.20363-.1021-.20363s-.0318.0824-.078.20249c-.0439.11402-.10428.29787-.0189.51162.0274.0591.0624.11859.1061.17684v-1e-5c.20802.27737.25488.39313.25732.39962l.13758-.0517c.0284.002.0302-.003.0302-.003s.007.004.0249-.018l.13758-.0517c-.0207-.055-.0847-.19299-.30529-.4871a6.4214 6.4214 0 000-1e-5c-.0288-.0384-.051-.0763-.0683-.11369zm-3.6454-10.188c-.27048-.43938-.77046-.51662-.77046-.51662s.29532.37359.46528.6936c.0747.12853.30311.20843.30311.20843s.0947-.22541.002-.38541zm1.189-.2092c-.40427-.65362-1.0741-.72504-1.0741-.72504s.45376.42205.77638.91429c.0787.12379.30939.20491.30939.20491s.0927-.22992-.0117-.39416zm1.196-.0824c-.22971-.34692-.50655-.6234-.76093-.8248-.258-.21019-.50689-.30221-.50689-.30221s.15194.1534.36972.43492c.21612.29522.35764.51547.60404.88696.11656.17591.37929.28174.37929.28174s.0441-.28148-.0852-.47661zm1.1372-.17704c-.24556-.42118-.53038-.78245-.80194-1.0699-.31284-.34456-.65098-.51482-.65098-.51482s.21071.22412.48644.64185c.24193.38962.38696.64982.66176 1.1206.11062.18967.3719.30884.3719.30884s.0512-.28366-.0672-.4866zm-11.835-.82194c-.19845-.35425-.45851-.64865-.67618-.86246-.10985-.10762-.20584-.19178-.27698-.25122-.075-.0687-.12328-.0994-.12328-.0994s.0241.0515.077.1376c.0442.0801.10572.19163.17826.3234.0445.0806.42981.7748.51337.9243.0904.16172.3332.26765.3332.26765s.0782-.25494-.0254-.43992zm.99212-.57385c-.42409-.70166-1.067-1.2079-1.067-1.2079s.36461.72745.76507 1.3904c.10181.16852.35412.26338.35412.26338s.0575-.2644-.0522-.44582zm.9109-.2867c-.18063-.35242-.41665-.67632-.6093-.92689-.12317-.1604-.23436-.29482-.31692-.39161-.0435-.051-.0791-.0916-.10469-.12039-.028-.0313-.0446-.0497-.0446-.0497s.009.023.0243.0622c.014.0356.0342.086.0596.14787.0484.11789.11597.27754.19879.46151.13684.30381.30035.62871.47888.97781.038.0768.24041.10403.24041.10403s.12924-.16005.0736-.2648zm-33.049 4.1902c-.46829-.02-.81496-.0508-1.1709-.11644-.1458-.0266-.25467-.0522-.34241-.0756-.0854-.0251-.13791-.0411-.13791-.0411s.0373.0367.11553.0889c.0737.0516.17599.11622.31191.18442.31164.1556.73047.29254 1.209.31231.29932.0125.56752-.18531.56752-.18531s-.29091-.15615-.55273-.16716zm.91074.9816c-.55405-.004-1.0173-.0269-1.4535-.0563-.20582-.0139-.36264-.0266-.48929-.0377-.0625-.005-.10682-.01-.14315-.013-.0384-.004-.0587-.006-.0587-.006s.0187.008.0544.0234c.0324.0135.0767.0314.13421.0531.1153.0437.27424.0994.47121.15647.40109.11624.92347.22805 1.4822.2324.29687.002.56334-.19835.56334-.19835s-.29399-.15251-.56073-.15442zm.67389 1.342c-.82925.015-1.7502-.035-1.7502-.035s.84052.39298 1.7543.38772c.32103-.004.61776-.20398.61776-.20398s-.32205-.15221-.62183-.14878zm1.5319 1.1804c-.78072.0655-1.6451.17105-1.6451.17105s.82434.25145 1.6745.1805c.16311-.0135.27992-.2139.27992-.2139s-.17563-.149-.30933-.13765z" style="fill:#000000;paint-order:fill markers stroke"/></g></svg>
