<svg xmlns="http://www.w3.org/2000/svg" viewBox="0 0 430.06 238.8"><defs><style>.cls-1{fill:#0d6263;}.cls-11,.cls-2{fill:gold;}.cls-2{stroke:#000;stroke-width:0.5px;}.cls-10,.cls-2,.cls-6,.cls-8,.cls-9{stroke-miterlimit:10;}.cls-3{fill:#f1bdc7;}.cls-4{fill:#81b082;}.cls-5{fill:#70caf2;}.cls-6{fill:#c7c5df;}.cls-6,.cls-9{stroke:#231f20;stroke-width:0.75px;}.cls-7{fill:#231f20;}.cls-10,.cls-8,.cls-9{fill:none;}.cls-8{stroke:#fff;stroke-width:3px;}.cls-10{stroke:#81b082;}</style></defs><g id="Шар_2" data-name="Шар 2"><g id="Шар_2-2" data-name="Шар 2"><rect class="cls-1" width="430.06" height="238.8"/></g><g id="Шар_1-2" data-name="Шар 1"><g id="Шар_2-3" data-name="Шар 2"><g id="Шар_3" data-name="Шар 3"><ellipse class="cls-1" cx="214.03" cy="119.4" rx="87.06" ry="111.53"/><path d="M148.07,106.45h2a4.49,4.49,0,0,1,.73.06c.2,0,.41.07.61.12a1,1,0,0,1,.43.23.51.51,0,0,1,.15.35l-.19,4.45c-.25.31-1.15.43-2.71.36l-2-.09-1.7-.08h-1a2.54,2.54,0,0,1-.39,0c.93.3,2.27.68,4,1.12s2.91.76,3.49.93c.18.07.26.37.24.91l-.14,3.45c0,.42-.14.67-.36.73l-4.12.77-1.31.22-1.55.3-1.28.25c2.08.16,3.67.27,4.76.31l1.72.07h1.74c.14,0,.21.12.2.22v.92c0,.39,0,1-.06,1.69s0,1.31,0,1.69-.08.52-.2.52l-14.48-.59a.38.38,0,0,1-.15,0,.31.31,0,0,1-.09-.14V125a.89.89,0,0,1,0-.23v-.22a.89.89,0,0,1,0-.23V123c.08-1.86.16-3.16.24-3.92s.13-1.33.15-1.74c.88-.12,2.18-.31,3.91-.58l3.92-.59-7.82-1.88a.61.61,0,0,0,0-.19c0-.7.06-1.72.1-3.09s.07-2.38.1-3.08l.05-1.44c0-.19.22-.27.56-.25Z"/><path d="M147.22,104.5c-3.14-.61-5.49-1-7-1.34h-.12l-.47,0a3.9,3.9,0,0,1-.7-.1c-.77-.15-1.2-.29-1.27-.44a.33.33,0,0,1,0-.14v-.14c.14-1.09.35-2.34.61-3.76l.24-1.31a1.14,1.14,0,0,1,.1-.19.91.91,0,0,0,.09-.17l1.63.26,2,.31,1.67.31,3.74.68a5.4,5.4,0,0,0,.58.09,2.44,2.44,0,0,0,.54,0,.86.86,0,0,0,.49-.18.83.83,0,0,0,0-1.17,1.37,1.37,0,0,0-.75-.39l-3.4-.66c-.43-.07-1.11-.2-2-.39l-2.16-.4-.69-.12h-.66l-.49-.2a.28.28,0,0,1-.22-.3q.33-1.84,1-5.53h.16l.07-.42c1.36.3,2.94.62,4.75,1l2.15.4,1.33.26,1.32.27a5.62,5.62,0,0,1,2.13.8,4.18,4.18,0,0,1,1.36,1.32,5.37,5.37,0,0,1,.67,1.73,7.93,7.93,0,0,1,.18,1.94,12.24,12.24,0,0,1-.22,2,14.22,14.22,0,0,1-.49,1.92,8.52,8.52,0,0,1-.83,1.72,5.66,5.66,0,0,1-1.24,1.43,4.36,4.36,0,0,1-1.75.83A5.92,5.92,0,0,1,147.22,104.5Z"/><path d="M154.86,90.43l-4.2-1.37q-2.29-.74-8.73-3l-.71-.27a.22.22,0,0,1-.22-.16l2.09-6.38c0-.06.3-.11.83-.15l2-.09,1.71-.07,3.83-.19-3.61-1.18L146.16,77l-1.94-.65c-.18,0-.1-.58.22-1.57.1-.31.25-.73.44-1.26s.3-.86.34-1l.23-.7c0-.1.07-.15.11-.13q2.59.78,7.4,2.36l6.44,2.08c.15.1.17.32,0,.68l-.08.24c-.1.32-.25.79-.44,1.42s-.34,1.11-.45,1.43l-.89,2.73a3.87,3.87,0,0,1-1.35.15l-3.94.15-2.84.2,1.63.54,1.63.54,1.24.39,1.23.38,1.17.38q.42.14.3.51l-1.39,4.26Z"/><path d="M160.47,74.94c-1.71-.82-3-1.43-3.73-1.86q-3.72-1.71-7.52-3.57c-.5-.2-.88-.36-1.11-.47l-.27-.12a5.18,5.18,0,0,1-.65-.26.42.42,0,0,1-.23-.29c.51-.94,1.23-2.41,2.14-4.4a10.23,10.23,0,0,0,.41-1l13.58,6.22Z"/><path d="M166.22,52.86a7.24,7.24,0,0,1,1.82,2,5.68,5.68,0,0,1,.77,2.26,6.92,6.92,0,0,1-.21,2.4A8.93,8.93,0,0,1,167.54,62a9.64,9.64,0,0,1-1.5,1.92,6.56,6.56,0,0,1-1.62,1.25,5.84,5.84,0,0,1-1.69.53,6.75,6.75,0,0,1-1.68,0,9.34,9.34,0,0,1-1.65-.36,10.44,10.44,0,0,1-1.52-.6,13.88,13.88,0,0,1-1.37-.74l-.74-.45a6.79,6.79,0,0,1-1.84-1.9,5.88,5.88,0,0,1-.85-2.13,7.31,7.31,0,0,1,0-2.19,9.77,9.77,0,0,1,.5-2.07,11.18,11.18,0,0,1,.87-1.77,9,9,0,0,1,1.77-2.17,5.4,5.4,0,0,1,1.89-1.15,5,5,0,0,1,2-.2,6.09,6.09,0,0,1,2,.56l.8.49c.17.1-.11.77-.85,2l-.84,1.21-.64,1a.2.2,0,0,1-.06.13l-.07.13a.43.43,0,0,1-.38.22,1.23,1.23,0,0,1-.53-.11l-.58-.23a1.1,1.1,0,0,0-.57,0,.76.76,0,0,0-.47.37,1.52,1.52,0,0,0-.22.58,1,1,0,0,0,.1.55,2.92,2.92,0,0,0,.29.48,2.42,2.42,0,0,0,.49.47l.55.41c.16.1.36.24.63.4l.57.37.35.24a4,4,0,0,0,.43.28c1.38.85,2.32.91,2.8.2a.71.71,0,0,0,.08-.62,1.37,1.37,0,0,0-.32-.56l-.46-.5a1.2,1.2,0,0,1-.29-.45L165.68,53a.38.38,0,0,1,.51-.16Z"/><path d="M171.47,55.37c-1.46-1.21-2.51-2.12-3.15-2.72-2.13-1.69-4.26-3.46-6.39-5.33l-1-.73-.23-.18c-.24-.16-.43-.3-.57-.41a.44.44,0,0,1-.15-.35c.73-.78,1.79-2,3.16-3.72a10.41,10.41,0,0,0,.68-.81l11.62,9.4Z"/><path d="M175.22,47.94l-8.75-9.63a.15.15,0,0,1,0-.13.4.4,0,0,1,.1-.18l.16-.19.21-.21.19-.17L173,32.12a5.18,5.18,0,0,1,1.57-1,4.54,4.54,0,0,1,1.74-.38,3.9,3.9,0,0,1,1.81.41,5.29,5.29,0,0,1,1.69,1.28,5.85,5.85,0,0,1,.91,1.3,4.21,4.21,0,0,1,.43,1.25,4.35,4.35,0,0,1,.06,1.14,4.79,4.79,0,0,1-.28,1.13,6.38,6.38,0,0,1-.53,1,8.39,8.39,0,0,1-.64.92c-.22.26-.45.53-.71.8l-1.44,1.34c.65.79,1.4,1.66,2.26,2.6l.73.81a.33.33,0,0,1,0,.45l0,0-4.11,3.73A4.4,4.4,0,0,1,175.22,47.94Zm-.52-8.76.52.11a4.68,4.68,0,0,0,.53-.56,4,4,0,0,0,.47-.61,2.23,2.23,0,0,0,.2-.68,1.72,1.72,0,0,0-.09-.71,2.1,2.1,0,0,0-.43-.7,1.79,1.79,0,0,0-.48-.39,1.83,1.83,0,0,0-.46-.18,1.24,1.24,0,0,0-.47,0,2.25,2.25,0,0,0-.44.14,3.35,3.35,0,0,0-.45.27l-.4.31-.38.35c-.13.22.52,1.11,1.92,2.65Z"/><path d="M184.22,41c-.38-1.49-.74-3-1.07-4.61s-.71-3.47-1.13-5.69-.73-3.75-.9-4.6v-.28l1.43-.81,1.47-.85,1.47-.86,1.43-.81.21-.11.22-.1a.54.54,0,0,1,.22-.05.32.32,0,0,1,.32.16l11,10.19a.29.29,0,0,1,0,.31,1.51,1.51,0,0,1-.43.32l-.78.45c-.23.12-.56.32-1,.58l-1,.58-.46.29-.51.3-.49.2a1.59,1.59,0,0,1-.47.14.42.42,0,0,1-.31-.07l-.32-.57a3,3,0,0,0-.75-.61.64.64,0,0,0-.65-.1l-2.92,1.71.58,2c0,.17-.27.42-.84.74l-.68.39c-.24.13-.6.35-1.07.64l-1.07.64-.24.13-.43.26-.45.26Zm3-8.5.46.27.56-.32a9.55,9.55,0,0,0,1.2-.79c.35-.26.49-.46.42-.58l-3.92-4.27c-.1.06-.13.33-.08.81a6.85,6.85,0,0,0,.36,1.55Z"/><path d="M195.61,20.49c-.26-1-.3-1.63-.12-1.81a1.28,1.28,0,0,0,.27-.05l.3-.07,1-.27,1-.27a16.5,16.5,0,0,1,2.2-.45c.57-.06.92,0,1,.17l2.36,9.8.21-.06,1-.3,1.12-.24,1.57-.36a3.63,3.63,0,0,1,.93-.16c.21,0,.33.06.37.21l.92,3.63c0,.25-1.4.72-4.13,1.41l-6.55,1.67a2,2,0,0,1-.5-1l-.68-2.69c-.2-.78-.49-1.95-.87-3.5s-.67-2.72-.87-3.51l-.27-1C195.79,21.18,195.68,20.78,195.61,20.49Z"/><path d="M230.13,27A7.13,7.13,0,0,1,229,29.42,5.72,5.72,0,0,1,227.15,31a6.93,6.93,0,0,1-2.3.72,8.92,8.92,0,0,1-2.63-.05,9.55,9.55,0,0,1-2.35-.66,6.35,6.35,0,0,1-1.7-1.05A5.68,5.68,0,0,1,217,28.6a6.89,6.89,0,0,1-.68-1.55,7.73,7.73,0,0,1-.3-1.65,11.22,11.22,0,0,1,0-1.64,11,11,0,0,1,.17-1.55l.13-.85a6.77,6.77,0,0,1,1.06-2.43,5.85,5.85,0,0,1,1.65-1.6,7.56,7.56,0,0,1,2-.86,9.64,9.64,0,0,1,2.07-.35,11.14,11.14,0,0,1,2,.13,9.38,9.38,0,0,1,2.69.8,5.26,5.26,0,0,1,1.78,1.36,5,5,0,0,1,.93,1.73,5.87,5.87,0,0,1,.23,2l-.14.92c0,.21-.76.2-2.17,0l-1.39-.24-1.17-.2h-.3a.45.45,0,0,1-.34-.27,1.22,1.22,0,0,1-.1-.53V21.2a1.05,1.05,0,0,0-.18-.54.72.72,0,0,0-.51-.3,1.67,1.67,0,0,0-.63,0,1,1,0,0,0-.47.3,2.43,2.43,0,0,0-.33.46,2,2,0,0,0-.25.62c-.07.27-.13.49-.17.67s-.08.42-.14.73-.09.53-.12.67a1.38,1.38,0,0,1-.09.42,1.55,1.55,0,0,0-.09.5c-.26,1.6,0,2.49.88,2.67a.78.78,0,0,0,.61-.16,1.43,1.43,0,0,0,.39-.52c.09-.19.18-.4.29-.62a1.31,1.31,0,0,1,.31-.43l5.24.83a.37.37,0,0,1,.25.46Z"/><path d="M232.22,25.42l.47-1a7.53,7.53,0,0,1,1.64-2,6.22,6.22,0,0,1,2-1.14,7.61,7.61,0,0,1,2.17-.38,8.38,8.38,0,0,1,2.23.24,10.18,10.18,0,0,1,2.14.79,9.09,9.09,0,0,1,1.16.69,11,11,0,0,1,1.17,1,5.89,5.89,0,0,1,1,1.28,4.64,4.64,0,0,1,.59,1.48,8,8,0,0,1,.15,2.84,8.72,8.72,0,0,1-.89,2.77,8.64,8.64,0,0,1-3.65,4.13l-.65.34a4.46,4.46,0,0,1-2,.44,7.85,7.85,0,0,1-2.21-.29,11,11,0,0,1-2-.76,11.22,11.22,0,0,1-2-1.26,7.61,7.61,0,0,1-1.32-1.4A6.23,6.23,0,0,1,231.14,30a8.65,8.65,0,0,1,.09-1.61,9.34,9.34,0,0,1,.38-1.56A10.85,10.85,0,0,1,232.22,25.42Zm8.68,0a1.34,1.34,0,0,0-.73-.15,1.7,1.7,0,0,0-.66.17,2.69,2.69,0,0,0-.63.48,4.53,4.53,0,0,0-.54.62,7.66,7.66,0,0,0-.5.76c-.18.31-.32.56-.41.73l-.35.69c-.13.27-.25.53-.35.78a4.78,4.78,0,0,0-.25.84,3.84,3.84,0,0,0-.09.83,1.74,1.74,0,0,0,.2.73,1.36,1.36,0,0,0,.54.55,2,2,0,0,0,.75.21,1.6,1.6,0,0,0,.65-.08,1.57,1.57,0,0,0,.61-.36,4.42,4.42,0,0,0,.53-.53,6.76,6.76,0,0,0,.49-.7c.18-.29.32-.55.44-.76l.42-.83c.12-.24.22-.47.31-.69s.18-.46.27-.74a2.8,2.8,0,0,0,.17-.76,4.09,4.09,0,0,0,0-.7,1.27,1.27,0,0,0-.26-.62,1.56,1.56,0,0,0-.63-.48Z"/><path d="M246.29,35.61l4.76-5.36.07-.09.31-.38.45-.54c.51-.59.86-.88,1-.87l.11.1.1.11c.86.68,1.83,1.5,2.91,2.45l1,.88a.57.57,0,0,1,.12.18.34.34,0,0,0,.1.16l-1,1.27-1.34,1.6c-.37.44-.74.86-1.11,1.27l-2.55,2.83c-.16.18-.29.33-.38.45a4.25,4.25,0,0,0-.27.46.75.75,0,0,0-.1.51.72.72,0,0,0,.26.44.75.75,0,0,0,.73.17,1.31,1.31,0,0,0,.72-.43l2.4-2.7c.28-.33.74-.85,1.37-1.54s1.11-1.24,1.45-1.65l.46-.53a2.56,2.56,0,0,0,.2-.26l.21-.26.31-.35a.29.29,0,0,1,.37,0q1.41,1.23,4.2,3.74l-.1.12.32.28c-1,1-2,2.2-3.25,3.59l-1.44,1.64c-.2.22-.5.56-.91,1l-.9,1a6,6,0,0,1-1.78,1.43,4.33,4.33,0,0,1-1.83.48,5.47,5.47,0,0,1-1.84-.31,8.8,8.8,0,0,1-1.75-.84A13.13,13.13,0,0,1,248,44.43a14.33,14.33,0,0,1-1.4-1.41,7.91,7.91,0,0,1-1.07-1.61,5.44,5.44,0,0,1-.59-1.8,4.35,4.35,0,0,1,.18-1.93A6.06,6.06,0,0,1,246.29,35.61Z"/><path d="M254.22,49.22l3.55-2.62q1.94-1.45,7.51-5.38l.65-.47c.11-.09.2-.12.25-.09l4,5.4a2.56,2.56,0,0,1-.37.76c-.28.45-.64,1-1.1,1.72s-.77,1.17-.93,1.43l-2.06,3.23,3-2.25c.26-.2.75-.55,1.46-1l1.64-1.2c.15-.11.53.25,1.15,1.09.2.26.46.63.78,1.09s.53.75.61.85l.44.6c.06.08.08.13,0,.16-1.43,1.11-3.5,2.66-6.21,4.67l-5.45,4c-.17.07-.36,0-.58-.35l-.15-.2-.9-1.19c-.41-.52-.71-.92-.91-1.19L258.89,56a4.32,4.32,0,0,1,.66-1.18l2.16-3.31c.93-1.44,1.46-2.25,1.56-2.42-.3.23-.77.56-1.38,1l-1.39,1-1,.78-1,.78-1,.74c-.24.17-.44.16-.59,0l-2.67-3.61Z"/><path d="M274.82,72.7a7,7,0,0,1-2.67.47,5.37,5.37,0,0,1-2.33-.56,6.81,6.81,0,0,1-1.93-1.44,9.35,9.35,0,0,1-1.5-2.19,8.84,8.84,0,0,1-.83-2.29,6.74,6.74,0,0,1-.15-2,5.61,5.61,0,0,1,.45-1.71,6.57,6.57,0,0,1,.85-1.45,7.51,7.51,0,0,1,1.18-1.21,10.55,10.55,0,0,1,1.31-1,13.89,13.89,0,0,1,1.36-.76l.77-.39a6.54,6.54,0,0,1,2.58-.56,5.66,5.66,0,0,1,2.26.41,7.35,7.35,0,0,1,1.88,1.13,8.93,8.93,0,0,1,1.48,1.53,10.66,10.66,0,0,1,1.05,1.67,9.56,9.56,0,0,1,.91,2.65,5.24,5.24,0,0,1-.06,2.23,5.13,5.13,0,0,1-.87,1.77A6.06,6.06,0,0,1,279,70.38l-.84.42c-.18.09-.6-.5-1.24-1.78-.15-.3-.36-.72-.62-1.27l-.51-1.07-.08-.12c0-.06-.06-.1-.07-.13a.43.43,0,0,1,0-.44,1.41,1.41,0,0,1,.38-.39c.17-.11.33-.24.49-.36a.94.94,0,0,0,.34-.47.68.68,0,0,0-.06-.59,1.41,1.41,0,0,0-.38-.49.8.8,0,0,0-.51-.21,2.71,2.71,0,0,0-.57,0,2.47,2.47,0,0,0-.66.17l-.63.25-.68.31-.61.29-.39.17-.47.22c-1.44.72-2,1.48-1.65,2.27a.74.74,0,0,0,.48.4,1.43,1.43,0,0,0,.65,0l.67-.12a1.19,1.19,0,0,1,.53,0L275,72.19a.38.38,0,0,1-.16.5Z"/><path d="M270,75.89c1.79-.63,3.1-1.08,4-1.32q3.84-1.44,7.84-2.8l1.12-.46.27-.1c.26-.12.48-.22.65-.28a.4.4,0,0,1,.37,0q.45,1.54,1.59,4.62a9.63,9.63,0,0,0,.42,1l-14,5.21Z"/><path d="M285.65,80q1.53-.42,1.8-.15a1.31,1.31,0,0,0,.06.27l.08.3a7.68,7.68,0,0,0,.28,1c.13.49.24.77.3,1a16.45,16.45,0,0,1,.48,2.19c.08.57,0,.91-.14,1l-9.75,2.54.06.21c.16.49.27.84.32,1l.27,1.12q.18.81.39,1.56a4.78,4.78,0,0,1,.18.93c0,.21-.06.33-.21.37l-3.61,1q-.37,0-1.5-4.11l-1.79-6.52a2,2,0,0,1,1-.51l2.67-.74,3.49-.94,3.49-.93,1-.3Z"/><path d="M284.55,99.12l1.07-.12a7.28,7.28,0,0,1,2.54.33,6.26,6.26,0,0,1,2,1,7,7,0,0,1,1.49,1.62,8.32,8.32,0,0,1,1,2,10.57,10.57,0,0,1,.49,2.23,7.61,7.61,0,0,1,0,1.35A9.59,9.59,0,0,1,293,109a6.73,6.73,0,0,1-.52,1.57,4.41,4.41,0,0,1-.94,1.29,7.77,7.77,0,0,1-2.31,1.66,9.14,9.14,0,0,1-2.81.75,8.62,8.62,0,0,1-5.44-.87l-.63-.36a4.31,4.31,0,0,1-1.47-1.47,8.32,8.32,0,0,1-1-2,10.61,10.61,0,0,1-.42-2.09,9.16,9.16,0,0,1,0-2.34,7,7,0,0,1,.48-1.9,5.72,5.72,0,0,1,.89-1.48,6,6,0,0,1,1.18-1.13,7.49,7.49,0,0,1,1.41-.79,9.09,9.09,0,0,1,1.52-.52A13.1,13.1,0,0,1,284.55,99.12Zm4.68,7.31a1.53,1.53,0,0,0-.26-.69,1.6,1.6,0,0,0-.5-.47,2.6,2.6,0,0,0-.75-.27,5.66,5.66,0,0,0-.81-.12,6.91,6.91,0,0,0-.91,0h-.84l-.76.08a4.58,4.58,0,0,0-.85.13,6,6,0,0,0-.83.24,3.15,3.15,0,0,0-.76.37,1.82,1.82,0,0,0-.51.56,1.32,1.32,0,0,0-.17.75,2.11,2.11,0,0,0,.22.74,1.92,1.92,0,0,0,.42.52,2.06,2.06,0,0,0,.63.31,4.64,4.64,0,0,0,.74.16,6.17,6.17,0,0,0,.86,0H285l.92-.09.75-.1a3.6,3.6,0,0,0,.77-.17,3.21,3.21,0,0,0,.73-.27,4.6,4.6,0,0,0,.58-.4,1.36,1.36,0,0,0,.38-.56,1.74,1.74,0,0,0,.07-.68Z"/><path d="M280.16,116.29l13-.15c.23,0,.34.51.35,1.52v.88c0,.52,0,1.28.06,2.3s.05,1.79.06,2.31v3.71a.52.52,0,0,1-.38.63.57.57,0,0,1-.26,0h-3.42c0-.38-.06-.77-.07-1.18s0-.93-.05-1.56a8.53,8.53,0,0,1,0-1.18v-1.35h-1.36c.12,1.48.18,2.73.2,3.75a5.66,5.66,0,0,1-.06.82c0,.24-.11.36-.2.36h-3.26a.75.75,0,0,1-.55,0,.8.8,0,0,1-.16-.52V126c-.1-1.32-.17-2.52-.2-3.61l-1.8.05h-3a.81.81,0,0,1-.38,0,.47.47,0,0,1-.14-.29c0-.63,0-1.55-.05-2.77s0-2.15-.05-2.78a1.19,1.19,0,0,1,.25-.13l.25-.09a1.41,1.41,0,0,1,.29,0h.89Z"/><path d="M174.56,206.12a7,7,0,0,1-2.34,1.3,5.44,5.44,0,0,1-2.37.25,7,7,0,0,1-2.28-.72,9,9,0,0,1-2.13-1.55,9.2,9.2,0,0,1-1.53-1.87,6.37,6.37,0,0,1-.8-1.81A5.71,5.71,0,0,1,163,200a6.18,6.18,0,0,1,.32-1.65,8.37,8.37,0,0,1,.7-1.52,12.18,12.18,0,0,1,.9-1.35c.31-.39.65-.77,1-1.16l.59-.62a6.63,6.63,0,0,1,2.24-1.37,5.58,5.58,0,0,1,2.25-.37,7.42,7.42,0,0,1,2.13.44,8.77,8.77,0,0,1,1.89.94,9.42,9.42,0,0,1,1.53,1.22,8.82,8.82,0,0,1,1.71,2.18,5,5,0,0,1,.46,4,5.84,5.84,0,0,1-1,1.79l-.64.67c-.15.15-.73-.27-1.76-1.25-.24-.23-.57-.56-1-1l-.76-.8-.11-.09-.11-.09a.42.42,0,0,1-.13-.42,1.21,1.21,0,0,1,.22-.49c.12-.16.23-.33.34-.5a1,1,0,0,0,.16-.55.67.67,0,0,0-.25-.53,1.38,1.38,0,0,0-.52-.34.86.86,0,0,0-.55,0,4.72,4.72,0,0,0-.53.18,2.63,2.63,0,0,0-.56.38c-.2.17-.38.32-.51.45l-.53.51-.48.47c-.05.06-.16.16-.31.3s-.27.25-.36.35c-1.12,1.16-1.38,2.05-.8,2.67a.81.81,0,0,0,.59.22,1.47,1.47,0,0,0,.61-.2l.59-.34a1.45,1.45,0,0,1,.49-.18l3.81,3.66a.37.37,0,0,1,0,.52Z"/><path d="M176.67,205.22l.56-.91a7.33,7.33,0,0,1,1.8-1.8,6.24,6.24,0,0,1,2.06-.95,7.2,7.2,0,0,1,2.17-.18,8.6,8.6,0,0,1,2.19.44,10.68,10.68,0,0,1,2,1,7,7,0,0,1,1.08.79,9.73,9.73,0,0,1,1.07,1.06,5.68,5.68,0,0,1,.91,1.36,4.45,4.45,0,0,1,.45,1.52,8.1,8.1,0,0,1-.1,2.82,8.93,8.93,0,0,1-1.13,2.66,8.63,8.63,0,0,1-4,3.74l-.67.27a4.4,4.4,0,0,1-2,.26,8.46,8.46,0,0,1-2.16-.49,11.28,11.28,0,0,1-1.91-.94,10.23,10.23,0,0,1-1.77-1.44,7.78,7.78,0,0,1-1.2-1.54,6.11,6.11,0,0,1-.62-1.6,6.25,6.25,0,0,1-.16-1.61,7.11,7.11,0,0,1,.24-1.58,9.93,9.93,0,0,1,.51-1.51A11.64,11.64,0,0,1,176.67,205.22Zm8.58.77a1.25,1.25,0,0,0-.7-.21,1.69,1.69,0,0,0-.67.11,2.18,2.18,0,0,0-.66.42,4.57,4.57,0,0,0-.6.56,7.46,7.46,0,0,0-.56.7c-.21.3-.37.52-.47.69l-.41.65c-.15.25-.29.5-.41.74a6.13,6.13,0,0,0-.33.8,3.22,3.22,0,0,0-.16.82,1.57,1.57,0,0,0,.13.74,1.38,1.38,0,0,0,.48.59,1.85,1.85,0,0,0,.72.27,1.54,1.54,0,0,0,1.29-.3,6.57,6.57,0,0,0,.57-.48,5.72,5.72,0,0,0,.55-.65c.2-.27.37-.51.5-.71L185,210c.14-.23.27-.45.37-.66s.22-.44.34-.7a2.76,2.76,0,0,0,.23-.74,4,4,0,0,0,0-.69,1.37,1.37,0,0,0-.2-.65,1.87,1.87,0,0,0-.53-.52Z"/><path d="M193.22,208.43c.34-1,.63-1.52.88-1.57a1.12,1.12,0,0,0,.25.11l.29.1,1,.3,1,.31a19.52,19.52,0,0,1,2.08.82c.51.25.77.48.77.7l-3.32,9.44.21.06a10.22,10.22,0,0,1,1,.32l1.06.4q.78.3,1.5.54a4.38,4.38,0,0,1,.86.37c.18.11.25.24.2.38l-1.19,3.53c-.16.19-1.56-.16-4.21-1.06L189.22,221a1.89,1.89,0,0,1,.12-1.1l.88-2.61,1.17-3.39q.78-2.24,1.17-3.39c.05-.14.14-.46.29-.95S193.15,208.72,193.22,208.43Z"/><path d="M202.77,217.75l.08-1.06a7.32,7.32,0,0,1,.79-2.42,5.91,5.91,0,0,1,1.4-1.78,7.11,7.11,0,0,1,1.85-1.16,7.93,7.93,0,0,1,2.14-.6,10.13,10.13,0,0,1,2.27-.07,9.37,9.37,0,0,1,2.76.67,6.09,6.09,0,0,1,1.43.8,4.27,4.27,0,0,1,1.09,1.15,8,8,0,0,1,1.19,2.55,9,9,0,0,1,.21,2.88,8.62,8.62,0,0,1-1.85,5.15l-.47.55a4.31,4.31,0,0,1-1.7,1.16,8.39,8.39,0,0,1-2.15.55,10.73,10.73,0,0,1-2.12,0,9.87,9.87,0,0,1-2.28-.43,7.23,7.23,0,0,1-1.76-.82,5.78,5.78,0,0,1-1.28-1.14,6.09,6.09,0,0,1-.88-1.36,7,7,0,0,1-.51-1.52,9.29,9.29,0,0,1-.23-1.57A11.16,11.16,0,0,1,202.77,217.75Zm8-3.22a1.36,1.36,0,0,0-.72.13,1.69,1.69,0,0,0-.55.4,2.22,2.22,0,0,0-.4.68,5.41,5.41,0,0,0-.27.77,6.54,6.54,0,0,0-.18.88,5.62,5.62,0,0,1-.11.83,6.14,6.14,0,0,1-.06.76c0,.28,0,.57,0,.85a8.33,8.33,0,0,0,.08.86,3.31,3.31,0,0,0,.23.8,1.67,1.67,0,0,0,.45.6,1.31,1.31,0,0,0,.7.31,2,2,0,0,0,.77-.09,1.76,1.76,0,0,0,.57-.31,1.91,1.91,0,0,0,.43-.55,5.28,5.28,0,0,0,.29-.69,5.87,5.87,0,0,0,.19-.83c.06-.33.1-.62.12-.86a5.6,5.6,0,0,1,.08-.91,2.38,2.38,0,0,0,0-.76v-.78a2.83,2.83,0,0,0-.14-.76,3,3,0,0,0-.28-.64,1.21,1.21,0,0,0-.47-.48,1.62,1.62,0,0,0-.74-.21Z"/><path d="M239.84,217.84l.15.51c.08.24.14.46.2.67s.13.44.2.7.11.48.15.72.05.42.06.61a1,1,0,0,1-.1.48.46.46,0,0,1-.29.24l-4.28,1.09c-.36-.15-.74-1-1.12-2.47-.14-.55-.3-1.21-.49-2s-.33-1.32-.41-1.64l-.17-.66-.1-.32a1.29,1.29,0,0,0-.1-.37c0,1,0,2.35.08,4.13s.11,3,.12,3.58c0,.19-.29.36-.8.49l-3.33.85c-.4.1-.67.06-.79-.14l-1.91-3.69c-.18-.38-.38-.78-.58-1.18l-.72-1.39L225,216.9c.44,2,.79,3.56,1.06,4.61l.43,1.66c.19.74.33,1.29.44,1.66,0,.15,0,.24-.15.26l-.88.23-1.63.42-1.62.43c-.34.09-.52.07-.55,0l-3.56-13.95a.2.2,0,0,1,0-.15.28.28,0,0,1,.11-.13l.16-.1.21-.07.21-.07a.79.79,0,0,1,.22,0h.17l1.11-.29c1.78-.45,3-.75,3.78-.89s1.31-.25,1.7-.35c.37.8.92,2,1.67,3.55l1.67,3.56-.44-8h.2l3-.79,3-.79,1.39-.35c.18,0,.31.12.4.46Q239.56,216.79,239.84,217.84Z"/><path d="M244,218l-6.8-11.14,7-4.61a9.84,9.84,0,0,1,1.29-.67,6.46,6.46,0,0,1,1.36-.41,3.94,3.94,0,0,1,1.37,0,3.12,3.12,0,0,1,1.27.54,3.86,3.86,0,0,1,1.1,1.21,3.31,3.31,0,0,1,.57,2,4.75,4.75,0,0,1-.67,2,3.17,3.17,0,0,1,3.94,1.51,4,4,0,0,1,.59,1.67,3.64,3.64,0,0,1-.16,1.57,5,5,0,0,1-.75,1.4,7.66,7.66,0,0,1-1.09,1.19,9,9,0,0,1-1.28.94l-1.2.71c-.54.31-1,.55-1.22.72q-2.29,1.4-4.17,2.64A3.2,3.2,0,0,1,244,218Zm-.36-11.27c.15.25.38.61.7,1.09s.55.85.7,1.1c.07.1.17.12.31.06l.37-.3.41-.34a2.82,2.82,0,0,0,.33-.36,1.11,1.11,0,0,0,.23-.46,1.51,1.51,0,0,0,0-.52,2.16,2.16,0,0,0-.26-.65c-.52-.84-1.35-.91-2.51-.2q-.31.27-.33.36A.25.25,0,0,0,243.59,206.74Zm4,6.21c.24.41.39.6.43.57l.27-.16c.22-.13.4-.25.55-.36a4.27,4.27,0,0,0,.44-.41,1.22,1.22,0,0,0,.3-.5,1.42,1.42,0,0,0,0-.58,1.91,1.91,0,0,0-.26-.7,1.87,1.87,0,0,0-.28-.35,1,1,0,0,0-.31-.22l-.31-.11a1,1,0,0,0-.34,0l-.33.06a2.09,2.09,0,0,0-.35.13l-.32.15-.32.17-.29.16.19.31a6.54,6.54,0,0,0,.29.67,7.85,7.85,0,0,0,.42.88Z"/><path d="M253.56,205l-.73-.77a7.49,7.49,0,0,1-1.29-2.2,6.54,6.54,0,0,1-.39-2.23,6.85,6.85,0,0,1,.38-2.15,8,8,0,0,1,1-2A10.12,10.12,0,0,1,254,194a7.37,7.37,0,0,1,1-.85,13.06,13.06,0,0,1,1.3-.77,6,6,0,0,1,1.55-.53,4.41,4.41,0,0,1,1.58-.05,7.76,7.76,0,0,1,2.7.82,9.33,9.33,0,0,1,2.29,1.76,8.54,8.54,0,0,1,2.6,4.8l.1.72a4.48,4.48,0,0,1-.27,2.05,8.32,8.32,0,0,1-1,2,11.24,11.24,0,0,1-1.39,1.61,10.45,10.45,0,0,1-1.84,1.41,7.68,7.68,0,0,1-1.79.77,6.12,6.12,0,0,1-1.7.19,6.21,6.21,0,0,1-1.6-.25,8,8,0,0,1-1.48-.63,9.77,9.77,0,0,1-1.32-.88A13.36,13.36,0,0,1,253.56,205Zm2.93-8.11a1.43,1.43,0,0,0-.39.63,1.94,1.94,0,0,0-.06.68,2.14,2.14,0,0,0,.24.74,5,5,0,0,0,.39.72q.25.38.54.72t.54.63l.53.56c.19.21.4.4.61.59a4.4,4.4,0,0,0,.69.51,3.27,3.27,0,0,0,.75.37,1.59,1.59,0,0,0,.75.06,1.2,1.2,0,0,0,.69-.32,1.74,1.74,0,0,0,.45-.62,1.43,1.43,0,0,0,.15-.64,1.63,1.63,0,0,0-.13-.69,4.12,4.12,0,0,0-.32-.67,4.88,4.88,0,0,0-.49-.7c-.21-.26-.4-.48-.56-.66s-.37-.41-.62-.67-.37-.37-.54-.53a6.61,6.61,0,0,0-.6-.5,2.51,2.51,0,0,0-.66-.41,3,3,0,0,0-.66-.22,1.27,1.27,0,0,0-.67,0,1.66,1.66,0,0,0-.63.42Z"/><path class="cls-2" d="M147.07,105.45h2a4.49,4.49,0,0,1,.73.06c.2,0,.41.07.61.12a1,1,0,0,1,.43.23.51.51,0,0,1,.15.35l-.19,4.45c-.25.31-1.15.43-2.71.36l-2-.09-1.7-.08h-1a2.54,2.54,0,0,1-.39,0c.93.3,2.27.68,4,1.12s2.91.76,3.49.93c.18.07.26.37.24.91l-.14,3.45c0,.42-.14.67-.36.73l-4.12.77-1.31.22-1.55.3-1.28.25c2.08.16,3.67.27,4.76.31l1.72.07h1.74c.14,0,.21.12.2.22v.92c0,.39,0,1-.06,1.69s0,1.31,0,1.69-.08.52-.2.52l-14.48-.59a.38.38,0,0,1-.15,0,.31.31,0,0,1-.09-.14V124a.89.89,0,0,1,0-.23v-.22a.89.89,0,0,1,0-.23V122c.08-1.86.16-3.16.24-3.92s.13-1.33.15-1.74c.88-.12,2.18-.31,3.91-.58l3.92-.59-7.82-1.88a.61.61,0,0,0,0-.19c0-.7.06-1.72.1-3.09s.07-2.38.1-3.08l.05-1.44c0-.19.22-.27.56-.25Z"/><path class="cls-2" d="M146.22,103.5c-3.14-.61-5.49-1-7-1.34h-.12l-.47,0a3.9,3.9,0,0,1-.7-.1c-.77-.15-1.2-.29-1.27-.44a.33.33,0,0,1,0-.14v-.14c.14-1.09.35-2.34.61-3.76l.24-1.31a1.14,1.14,0,0,1,.1-.19.91.91,0,0,0,.09-.17l1.63.26,2,.31,1.67.31,3.74.68a5.4,5.4,0,0,0,.58.09,2.44,2.44,0,0,0,.54,0,.86.86,0,0,0,.49-.18.83.83,0,0,0,0-1.17,1.37,1.37,0,0,0-.75-.39l-3.4-.66c-.43-.07-1.11-.2-2-.39l-2.16-.4-.69-.12h-.66l-.49-.2a.28.28,0,0,1-.22-.3q.33-1.84,1-5.53h.16l.07-.42c1.36.3,2.94.62,4.75,1l2.15.4,1.33.26,1.32.27a5.62,5.62,0,0,1,2.13.8,4.18,4.18,0,0,1,1.36,1.32,5.37,5.37,0,0,1,.67,1.73,7.93,7.93,0,0,1,.18,1.94,12.24,12.24,0,0,1-.22,2,14.22,14.22,0,0,1-.49,1.92,8.52,8.52,0,0,1-.83,1.72,5.66,5.66,0,0,1-1.24,1.43,4.36,4.36,0,0,1-1.75.83A5.92,5.92,0,0,1,146.22,103.5Z"/><path class="cls-2" d="M153.86,89.43l-4.2-1.37q-2.29-.74-8.73-3l-.71-.27a.22.22,0,0,1-.22-.16l2.09-6.38c0-.06.3-.11.83-.15l2-.09,1.71-.07,3.83-.19-3.61-1.18L145.16,76l-1.94-.65c-.18,0-.1-.58.22-1.57.1-.31.25-.73.44-1.26s.3-.86.34-1l.23-.7c0-.1.07-.15.11-.13q2.59.78,7.4,2.36l6.44,2.08c.15.1.17.32,0,.68l-.08.24c-.1.32-.25.79-.44,1.42s-.34,1.11-.45,1.43l-.89,2.73a3.87,3.87,0,0,1-1.35.15l-3.94.15-2.84.2,1.63.54,1.63.54,1.24.39,1.23.38,1.17.38q.42.14.3.51l-1.39,4.26Z"/><path class="cls-2" d="M159.47,73.94c-1.71-.82-3-1.43-3.73-1.86q-3.72-1.71-7.52-3.57c-.5-.2-.88-.36-1.11-.47l-.27-.12a5.18,5.18,0,0,1-.65-.26.42.42,0,0,1-.23-.29c.51-.94,1.23-2.41,2.14-4.4a10.23,10.23,0,0,0,.41-1l13.58,6.22Z"/><path class="cls-2" d="M165.22,51.86a7.24,7.24,0,0,1,1.82,2,5.68,5.68,0,0,1,.77,2.26,6.92,6.92,0,0,1-.21,2.4A8.93,8.93,0,0,1,166.54,61a9.64,9.64,0,0,1-1.5,1.92,6.56,6.56,0,0,1-1.62,1.25,5.84,5.84,0,0,1-1.69.53,6.75,6.75,0,0,1-1.68,0,9.34,9.34,0,0,1-1.65-.36,10.44,10.44,0,0,1-1.52-.6,13.88,13.88,0,0,1-1.37-.74l-.74-.45a6.79,6.79,0,0,1-1.84-1.9,5.88,5.88,0,0,1-.85-2.13,7.31,7.31,0,0,1,0-2.19,9.77,9.77,0,0,1,.5-2.07,11.18,11.18,0,0,1,.87-1.77,9,9,0,0,1,1.77-2.17,5.4,5.4,0,0,1,1.89-1.15,5,5,0,0,1,2-.2,6.09,6.09,0,0,1,2,.56l.8.49c.17.1-.11.77-.85,2l-.84,1.21-.64,1a.2.2,0,0,1-.06.13l-.07.13a.43.43,0,0,1-.38.22,1.23,1.23,0,0,1-.53-.11l-.58-.23a1.1,1.1,0,0,0-.57,0,.76.76,0,0,0-.47.37,1.52,1.52,0,0,0-.22.58,1,1,0,0,0,.1.55,2.92,2.92,0,0,0,.29.48,2.42,2.42,0,0,0,.49.47l.55.41c.16.1.36.24.63.4l.57.37.35.24a4,4,0,0,0,.43.28c1.38.85,2.32.91,2.8.2a.71.71,0,0,0,.08-.62,1.37,1.37,0,0,0-.32-.56l-.46-.5a1.2,1.2,0,0,1-.29-.45L164.68,52a.38.38,0,0,1,.51-.16Z"/><path class="cls-2" d="M170.47,54.37c-1.46-1.21-2.51-2.12-3.15-2.72-2.13-1.69-4.26-3.46-6.39-5.33l-1-.73-.23-.18c-.24-.16-.43-.3-.57-.41a.44.44,0,0,1-.15-.35c.73-.78,1.79-2,3.16-3.72a10.41,10.41,0,0,0,.68-.81l11.62,9.4Z"/><path class="cls-2" d="M174.22,46.94l-8.75-9.63a.15.15,0,0,1,0-.13.4.4,0,0,1,.1-.18l.16-.19.21-.21.19-.17L172,31.12a5.18,5.18,0,0,1,1.57-1,4.54,4.54,0,0,1,1.74-.38,3.9,3.9,0,0,1,1.81.41,5.29,5.29,0,0,1,1.69,1.28,5.85,5.85,0,0,1,.91,1.3,4.21,4.21,0,0,1,.43,1.25,4.35,4.35,0,0,1,.06,1.14,4.79,4.79,0,0,1-.28,1.13,6.38,6.38,0,0,1-.53,1,8.39,8.39,0,0,1-.64.92c-.22.26-.45.53-.71.8l-1.44,1.34c.65.79,1.4,1.66,2.26,2.6l.73.81a.33.33,0,0,1,0,.45l0,0-4.11,3.73A4.4,4.4,0,0,1,174.22,46.94Zm-.52-8.76.52.11a4.68,4.68,0,0,0,.53-.56,4,4,0,0,0,.47-.61,2.23,2.23,0,0,0,.2-.68,1.72,1.72,0,0,0-.09-.71,2.1,2.1,0,0,0-.43-.7,1.79,1.79,0,0,0-.48-.39,1.83,1.83,0,0,0-.46-.18,1.24,1.24,0,0,0-.47,0,2.25,2.25,0,0,0-.44.14,3.35,3.35,0,0,0-.45.27l-.4.31-.38.35c-.13.22.52,1.11,1.92,2.65Z"/><path class="cls-2" d="M183.22,40c-.38-1.49-.74-3-1.07-4.61s-.71-3.47-1.13-5.69-.73-3.75-.9-4.6v-.28l1.43-.81,1.47-.85,1.47-.86,1.43-.81.21-.11.22-.1a.54.54,0,0,1,.22-.05.32.32,0,0,1,.32.16l11,10.19a.29.29,0,0,1,0,.31,1.51,1.51,0,0,1-.43.32l-.78.45c-.23.12-.56.32-1,.58l-1,.58-.46.29-.51.3-.49.2a1.59,1.59,0,0,1-.47.14.42.42,0,0,1-.31-.07l-.32-.57a3,3,0,0,0-.75-.61.64.64,0,0,0-.65-.1l-2.92,1.71.58,2c0,.17-.27.42-.84.74l-.68.39c-.24.13-.6.35-1.07.64l-1.07.64-.24.13-.43.26-.45.26Zm3-8.5.46.27.56-.32a9.55,9.55,0,0,0,1.2-.79c.35-.26.49-.46.42-.58l-3.92-4.27c-.1.06-.13.33-.08.81a6.85,6.85,0,0,0,.36,1.55Z"/><path class="cls-2" d="M194.61,19.49c-.26-1-.3-1.63-.12-1.81a1.28,1.28,0,0,0,.27-.05l.3-.07,1-.27,1-.27a16.5,16.5,0,0,1,2.2-.45c.57-.06.92,0,1,.17l2.36,9.8.21-.06,1-.3,1.12-.24,1.57-.36a3.63,3.63,0,0,1,.93-.16c.21,0,.33.06.37.21l.92,3.63c0,.25-1.4.72-4.13,1.41l-6.55,1.67a2,2,0,0,1-.5-1l-.68-2.69c-.2-.78-.49-1.95-.87-3.5s-.67-2.72-.87-3.51l-.27-1C194.79,20.18,194.68,19.78,194.61,19.49Z"/><path class="cls-2" d="M229.13,26A7.13,7.13,0,0,1,228,28.42,5.72,5.72,0,0,1,226.15,30a6.93,6.93,0,0,1-2.3.72,8.92,8.92,0,0,1-2.63-.05,9.55,9.55,0,0,1-2.35-.66,6.35,6.35,0,0,1-1.7-1.05A5.68,5.68,0,0,1,216,27.6a6.89,6.89,0,0,1-.68-1.55,7.73,7.73,0,0,1-.3-1.65,11.22,11.22,0,0,1,0-1.64,11,11,0,0,1,.17-1.55l.13-.85a6.77,6.77,0,0,1,1.06-2.43,5.85,5.85,0,0,1,1.65-1.6,7.56,7.56,0,0,1,2-.86,9.64,9.64,0,0,1,2.07-.35,11.14,11.14,0,0,1,2,.13,9.38,9.38,0,0,1,2.69.8,5.26,5.26,0,0,1,1.78,1.36,5,5,0,0,1,.93,1.73,5.87,5.87,0,0,1,.23,2l-.14.92c0,.21-.76.2-2.17,0l-1.39-.24-1.17-.2h-.3a.45.45,0,0,1-.34-.27,1.22,1.22,0,0,1-.1-.53V20.2a1.05,1.05,0,0,0-.18-.54.72.72,0,0,0-.51-.3,1.67,1.67,0,0,0-.63,0,1,1,0,0,0-.47.3,2.43,2.43,0,0,0-.33.46,2,2,0,0,0-.25.62c-.07.27-.13.49-.17.67s-.08.42-.14.73-.09.53-.12.67a1.38,1.38,0,0,1-.09.42,1.55,1.55,0,0,0-.09.5c-.26,1.6,0,2.49.88,2.67a.78.78,0,0,0,.61-.16,1.43,1.43,0,0,0,.39-.52c.09-.19.18-.4.29-.62a1.31,1.31,0,0,1,.31-.43l5.24.83a.37.37,0,0,1,.25.46Z"/><path class="cls-2" d="M231.22,24.42l.47-1a7.53,7.53,0,0,1,1.64-2,6.22,6.22,0,0,1,2-1.14,7.61,7.61,0,0,1,2.17-.38,8.38,8.38,0,0,1,2.23.24,10.18,10.18,0,0,1,2.14.79,9.09,9.09,0,0,1,1.16.69,11,11,0,0,1,1.17,1,5.89,5.89,0,0,1,1,1.28,4.64,4.64,0,0,1,.59,1.48,8,8,0,0,1,.15,2.84,8.72,8.72,0,0,1-.89,2.77,8.64,8.64,0,0,1-3.65,4.13l-.65.34a4.46,4.46,0,0,1-2,.44,7.85,7.85,0,0,1-2.21-.29,11,11,0,0,1-2-.76,11.22,11.22,0,0,1-2-1.26,7.61,7.61,0,0,1-1.32-1.4A6.23,6.23,0,0,1,230.14,29a8.65,8.65,0,0,1,.09-1.61,9.34,9.34,0,0,1,.38-1.56A10.85,10.85,0,0,1,231.22,24.42Zm8.68,0a1.34,1.34,0,0,0-.73-.15,1.7,1.7,0,0,0-.66.17,2.69,2.69,0,0,0-.63.48,4.53,4.53,0,0,0-.54.62,7.66,7.66,0,0,0-.5.76c-.18.31-.32.56-.41.73l-.35.69c-.13.27-.25.53-.35.78a4.78,4.78,0,0,0-.25.84,3.84,3.84,0,0,0-.09.83,1.74,1.74,0,0,0,.2.73,1.36,1.36,0,0,0,.54.55,2,2,0,0,0,.75.21,1.6,1.6,0,0,0,.65-.08,1.57,1.57,0,0,0,.61-.36,4.42,4.42,0,0,0,.53-.53,6.76,6.76,0,0,0,.49-.7c.18-.29.32-.55.44-.76l.42-.83c.12-.24.22-.47.31-.69s.18-.46.27-.74a2.8,2.8,0,0,0,.17-.76,4.09,4.09,0,0,0,0-.7,1.27,1.27,0,0,0-.26-.62,1.56,1.56,0,0,0-.63-.48Z"/><path class="cls-2" d="M245.29,34.61l4.76-5.36.07-.09.31-.38.45-.54c.51-.59.86-.88,1-.87l.11.1.1.11c.86.68,1.83,1.5,2.91,2.45l1,.88a.57.57,0,0,1,.12.18.34.34,0,0,0,.1.16l-1,1.27-1.34,1.6c-.37.44-.74.86-1.11,1.27l-2.55,2.83c-.16.18-.29.33-.38.45a4.25,4.25,0,0,0-.27.46.75.75,0,0,0-.1.51.72.72,0,0,0,.26.44.75.75,0,0,0,.73.17,1.31,1.31,0,0,0,.72-.43l2.4-2.7c.28-.33.74-.85,1.37-1.54s1.11-1.24,1.45-1.65l.46-.53a2.56,2.56,0,0,0,.2-.26l.21-.26.31-.35a.29.29,0,0,1,.37,0q1.41,1.23,4.2,3.74l-.1.12.32.28c-1,1-2,2.2-3.25,3.59l-1.44,1.64c-.2.22-.5.56-.91,1l-.9,1a6,6,0,0,1-1.78,1.43,4.33,4.33,0,0,1-1.83.48,5.47,5.47,0,0,1-1.84-.31,8.8,8.8,0,0,1-1.75-.84A13.13,13.13,0,0,1,247,43.43a14.33,14.33,0,0,1-1.4-1.41,7.91,7.91,0,0,1-1.07-1.61,5.44,5.44,0,0,1-.59-1.8,4.35,4.35,0,0,1,.18-1.93A6.06,6.06,0,0,1,245.29,34.61Z"/><path class="cls-2" d="M253.22,48.22l3.55-2.62q1.94-1.45,7.51-5.38l.65-.47c.11-.09.2-.12.25-.09l4,5.4a2.56,2.56,0,0,1-.37.76c-.28.45-.64,1-1.1,1.72s-.77,1.17-.93,1.43l-2.06,3.23,3-2.25c.26-.2.75-.55,1.46-1l1.64-1.2c.15-.11.53.25,1.15,1.09.2.26.46.63.78,1.09s.53.75.61.85l.44.6c.06.08.08.13,0,.16-1.43,1.11-3.5,2.66-6.21,4.67l-5.45,4c-.17.07-.36,0-.58-.35l-.15-.2-.9-1.19c-.41-.52-.71-.92-.91-1.19L257.89,55a4.32,4.32,0,0,1,.66-1.18l2.16-3.31c.93-1.44,1.46-2.25,1.56-2.42-.3.23-.77.56-1.38,1l-1.39,1-1,.78-1,.78-1,.74c-.24.17-.44.16-.59,0l-2.67-3.61Z"/><path class="cls-2" d="M273.82,71.7a7,7,0,0,1-2.67.47,5.37,5.37,0,0,1-2.33-.56,6.81,6.81,0,0,1-1.93-1.44,9.35,9.35,0,0,1-1.5-2.19,8.84,8.84,0,0,1-.83-2.29,6.74,6.74,0,0,1-.15-2,5.61,5.61,0,0,1,.45-1.71,6.57,6.57,0,0,1,.85-1.45,7.51,7.51,0,0,1,1.18-1.21,10.55,10.55,0,0,1,1.31-1,13.89,13.89,0,0,1,1.36-.76l.77-.39a6.54,6.54,0,0,1,2.58-.56,5.66,5.66,0,0,1,2.26.41,7.35,7.35,0,0,1,1.88,1.13,8.93,8.93,0,0,1,1.48,1.53,10.66,10.66,0,0,1,1.05,1.67,9.56,9.56,0,0,1,.91,2.65,5.24,5.24,0,0,1-.06,2.23,5.13,5.13,0,0,1-.87,1.77A6.06,6.06,0,0,1,278,69.38l-.84.42c-.18.09-.6-.5-1.24-1.78-.15-.3-.36-.72-.62-1.27l-.51-1.07-.08-.12c0-.06-.06-.1-.07-.13a.43.43,0,0,1,0-.44,1.41,1.41,0,0,1,.38-.39c.17-.11.33-.24.49-.36a.94.94,0,0,0,.34-.47.68.68,0,0,0-.06-.59,1.41,1.41,0,0,0-.38-.49.8.8,0,0,0-.51-.21,2.71,2.71,0,0,0-.57,0,2.47,2.47,0,0,0-.66.17l-.63.25-.68.31-.61.29-.39.17-.47.22c-1.44.72-2,1.48-1.65,2.27a.74.74,0,0,0,.48.4,1.43,1.43,0,0,0,.65,0l.67-.12a1.19,1.19,0,0,1,.53,0L274,71.19a.38.38,0,0,1-.16.5Z"/><path class="cls-2" d="M269,74.89c1.79-.63,3.1-1.08,4-1.32q3.84-1.44,7.84-2.8l1.12-.46.27-.1c.26-.12.48-.22.65-.28a.4.4,0,0,1,.37,0q.45,1.54,1.59,4.62a9.63,9.63,0,0,0,.42,1l-14,5.21Z"/><path class="cls-2" d="M284.65,79q1.53-.42,1.8-.15a1.31,1.31,0,0,0,.06.27l.08.3a7.68,7.68,0,0,0,.28,1c.13.49.24.77.3,1a16.45,16.45,0,0,1,.48,2.19c.08.57,0,.91-.14,1l-9.75,2.54.06.21c.16.49.27.84.32,1l.27,1.12q.18.81.39,1.56a4.78,4.78,0,0,1,.18.93c0,.21-.06.33-.21.37l-3.61,1q-.37,0-1.5-4.11l-1.79-6.52a2,2,0,0,1,1-.51l2.67-.74,3.49-.94,3.49-.93,1-.3Z"/><path class="cls-2" d="M283.55,98.12l1.07-.12a7.28,7.28,0,0,1,2.54.33,6.26,6.26,0,0,1,2,1,7,7,0,0,1,1.49,1.62,8.32,8.32,0,0,1,1,2,10.57,10.57,0,0,1,.49,2.23,7.61,7.61,0,0,1,0,1.35A9.59,9.59,0,0,1,292,108a6.73,6.73,0,0,1-.52,1.57,4.41,4.41,0,0,1-.94,1.29,7.77,7.77,0,0,1-2.31,1.66,9.14,9.14,0,0,1-2.81.75,8.62,8.62,0,0,1-5.44-.87l-.63-.36a4.31,4.31,0,0,1-1.47-1.47,8.32,8.32,0,0,1-1-2,10.61,10.61,0,0,1-.42-2.09,9.16,9.16,0,0,1,0-2.34,7,7,0,0,1,.48-1.9,5.72,5.72,0,0,1,.89-1.48A6,6,0,0,1,279,99.66a7.49,7.49,0,0,1,1.41-.79,9.09,9.09,0,0,1,1.52-.52A13.1,13.1,0,0,1,283.55,98.12Zm4.68,7.31a1.53,1.53,0,0,0-.26-.69,1.6,1.6,0,0,0-.5-.47,2.6,2.6,0,0,0-.75-.27,5.66,5.66,0,0,0-.81-.12,6.91,6.91,0,0,0-.91,0h-.84l-.76.08a4.58,4.58,0,0,0-.85.13,6,6,0,0,0-.83.24,3.15,3.15,0,0,0-.76.37,1.82,1.82,0,0,0-.51.56,1.32,1.32,0,0,0-.17.75,2.11,2.11,0,0,0,.22.74,1.92,1.92,0,0,0,.42.52,2.06,2.06,0,0,0,.63.31,4.64,4.64,0,0,0,.74.16,6.17,6.17,0,0,0,.86,0H284l.92-.09.75-.1a3.6,3.6,0,0,0,.77-.17,3.21,3.21,0,0,0,.73-.27,4.6,4.6,0,0,0,.58-.4,1.36,1.36,0,0,0,.38-.56,1.74,1.74,0,0,0,.07-.68Z"/><path class="cls-2" d="M279.16,115.29l13-.15c.23,0,.34.51.35,1.52v.88c0,.52,0,1.28.06,2.3s.05,1.79.06,2.31v3.71a.52.52,0,0,1-.38.63.57.57,0,0,1-.26,0h-3.42c0-.38-.06-.77-.07-1.18s0-.93-.05-1.56a8.53,8.53,0,0,1,0-1.18v-1.35h-1.36c.12,1.48.18,2.73.2,3.75a5.66,5.66,0,0,1-.06.82c0,.24-.11.36-.2.36h-3.26a.75.75,0,0,1-.55,0,.8.8,0,0,1-.16-.52V125c-.1-1.32-.17-2.52-.2-3.61l-1.8.05h-3a.81.81,0,0,1-.38,0,.47.47,0,0,1-.14-.29c0-.63,0-1.55-.05-2.77s0-2.15-.05-2.78a1.19,1.19,0,0,1,.25-.13l.25-.09a1.41,1.41,0,0,1,.29,0h.89Z"/><path class="cls-2" d="M173.56,205.12a7,7,0,0,1-2.34,1.3,5.44,5.44,0,0,1-2.37.25,7,7,0,0,1-2.28-.72,9,9,0,0,1-2.13-1.55,9.2,9.2,0,0,1-1.53-1.87,6.37,6.37,0,0,1-.8-1.81A5.71,5.71,0,0,1,162,199a6.18,6.18,0,0,1,.32-1.65,8.37,8.37,0,0,1,.7-1.52,12.18,12.18,0,0,1,.9-1.35c.31-.39.65-.77,1-1.16l.59-.62a6.63,6.63,0,0,1,2.24-1.37,5.58,5.58,0,0,1,2.25-.37,7.42,7.42,0,0,1,2.13.44,8.77,8.77,0,0,1,1.89.94,9.42,9.42,0,0,1,1.53,1.22,8.82,8.82,0,0,1,1.71,2.18,5,5,0,0,1,.46,4,5.84,5.84,0,0,1-1,1.79l-.64.67c-.15.15-.73-.27-1.76-1.25-.24-.23-.57-.56-1-1l-.76-.8-.11-.09-.11-.09a.42.42,0,0,1-.13-.42,1.21,1.21,0,0,1,.22-.49c.12-.16.23-.33.34-.5a1,1,0,0,0,.16-.55.67.67,0,0,0-.25-.53,1.38,1.38,0,0,0-.52-.34.86.86,0,0,0-.55,0,4.72,4.72,0,0,0-.53.18,2.63,2.63,0,0,0-.56.38c-.2.17-.38.32-.51.45l-.53.51-.48.47c-.05.06-.16.16-.31.3s-.27.25-.36.35c-1.12,1.16-1.38,2.05-.8,2.67a.81.81,0,0,0,.59.22,1.47,1.47,0,0,0,.61-.2l.59-.34a1.45,1.45,0,0,1,.49-.18l3.81,3.66a.37.37,0,0,1,0,.52Z"/><path class="cls-2" d="M175.67,204.22l.56-.91a7.33,7.33,0,0,1,1.8-1.8,6.24,6.24,0,0,1,2.06-.95,7.2,7.2,0,0,1,2.17-.18,8.6,8.6,0,0,1,2.19.44,10.68,10.68,0,0,1,2,1,7,7,0,0,1,1.08.79,9.73,9.73,0,0,1,1.07,1.06,5.68,5.68,0,0,1,.91,1.36,4.45,4.45,0,0,1,.45,1.52,8.1,8.1,0,0,1-.1,2.82,8.93,8.93,0,0,1-1.13,2.66,8.63,8.63,0,0,1-4,3.74l-.67.27a4.4,4.4,0,0,1-2,.26,8.46,8.46,0,0,1-2.16-.49,11.28,11.28,0,0,1-1.91-.94,10.23,10.23,0,0,1-1.77-1.44,7.78,7.78,0,0,1-1.2-1.54,6.11,6.11,0,0,1-.62-1.6,6.25,6.25,0,0,1-.16-1.61,7.11,7.11,0,0,1,.24-1.58,9.93,9.93,0,0,1,.51-1.51A11.64,11.64,0,0,1,175.67,204.22Zm8.58.77a1.25,1.25,0,0,0-.7-.21,1.69,1.69,0,0,0-.67.11,2.18,2.18,0,0,0-.66.42,4.57,4.57,0,0,0-.6.56,7.46,7.46,0,0,0-.56.7c-.21.3-.37.52-.47.69l-.41.65c-.15.25-.29.5-.41.74a6.13,6.13,0,0,0-.33.8,3.22,3.22,0,0,0-.16.82,1.57,1.57,0,0,0,.13.74,1.38,1.38,0,0,0,.48.59,1.85,1.85,0,0,0,.72.27,1.54,1.54,0,0,0,1.29-.3,6.57,6.57,0,0,0,.57-.48,5.72,5.72,0,0,0,.55-.65c.2-.27.37-.51.5-.71L184,209c.14-.23.27-.45.37-.66s.22-.44.34-.7a2.76,2.76,0,0,0,.23-.74,4,4,0,0,0,0-.69,1.37,1.37,0,0,0-.2-.65,1.87,1.87,0,0,0-.53-.52Z"/><path class="cls-2" d="M192.22,207.43c.34-1,.63-1.52.88-1.57a1.12,1.12,0,0,0,.25.11l.29.1,1,.3,1,.31a19.52,19.52,0,0,1,2.08.82c.51.25.77.48.77.7l-3.32,9.44.21.06a10.22,10.22,0,0,1,1,.32l1.06.4q.78.3,1.5.54a4.38,4.38,0,0,1,.86.37c.18.11.25.24.2.38l-1.19,3.53c-.16.19-1.56-.16-4.21-1.06L188.22,220a1.89,1.89,0,0,1,.12-1.1l.88-2.61,1.17-3.39q.78-2.24,1.17-3.39c.05-.14.14-.46.29-.95S192.15,207.72,192.22,207.43Z"/><path class="cls-2" d="M201.77,216.75l.08-1.06a7.32,7.32,0,0,1,.79-2.42,5.91,5.91,0,0,1,1.4-1.78,7.11,7.11,0,0,1,1.85-1.16,7.93,7.93,0,0,1,2.14-.6,10.13,10.13,0,0,1,2.27-.07,9.37,9.37,0,0,1,2.76.67,6.09,6.09,0,0,1,1.43.8,4.27,4.27,0,0,1,1.09,1.15,8,8,0,0,1,1.19,2.55,9,9,0,0,1,.21,2.88,8.62,8.62,0,0,1-1.85,5.15l-.47.55a4.31,4.31,0,0,1-1.7,1.16,8.39,8.39,0,0,1-2.15.55,10.73,10.73,0,0,1-2.12,0,9.87,9.87,0,0,1-2.28-.43,7.23,7.23,0,0,1-1.76-.82,5.78,5.78,0,0,1-1.28-1.14,6.09,6.09,0,0,1-.88-1.36,7,7,0,0,1-.51-1.52,9.29,9.29,0,0,1-.23-1.57A11.16,11.16,0,0,1,201.77,216.75Zm8-3.22a1.36,1.36,0,0,0-.72.13,1.69,1.69,0,0,0-.55.4,2.22,2.22,0,0,0-.4.68,5.41,5.41,0,0,0-.27.77,6.54,6.54,0,0,0-.18.88,5.62,5.62,0,0,1-.11.83,6.14,6.14,0,0,1-.06.76c0,.28,0,.57,0,.85a8.33,8.33,0,0,0,.08.86,3.31,3.31,0,0,0,.23.8,1.67,1.67,0,0,0,.45.6,1.31,1.31,0,0,0,.7.31,2,2,0,0,0,.77-.09,1.76,1.76,0,0,0,.57-.31,1.91,1.91,0,0,0,.43-.55,5.28,5.28,0,0,0,.29-.69,5.87,5.87,0,0,0,.19-.83c.06-.33.1-.62.12-.86a5.6,5.6,0,0,1,.08-.91,2.38,2.38,0,0,0,0-.76v-.78a2.83,2.83,0,0,0-.14-.76,3,3,0,0,0-.28-.64,1.21,1.21,0,0,0-.47-.48,1.62,1.62,0,0,0-.74-.21Z"/><path class="cls-2" d="M238.84,216.84l.15.51c.08.24.14.46.2.67s.13.44.2.7.11.48.15.72.05.42.06.61a1,1,0,0,1-.1.48.46.46,0,0,1-.29.24l-4.28,1.09c-.36-.15-.74-1-1.12-2.47-.14-.55-.3-1.21-.49-2s-.33-1.32-.41-1.64l-.17-.66-.1-.32a1.29,1.29,0,0,0-.1-.37c0,1,0,2.35.08,4.13s.11,3,.12,3.58c0,.19-.29.36-.8.49l-3.33.85c-.4.1-.67.06-.79-.14l-1.91-3.69c-.18-.38-.38-.78-.58-1.18l-.72-1.39L224,215.9c.44,2,.79,3.56,1.06,4.61l.43,1.66c.19.74.33,1.29.44,1.66,0,.15,0,.24-.15.26l-.88.23-1.63.42-1.62.43c-.34.09-.52.07-.55,0l-3.56-13.95a.2.2,0,0,1,0-.15.28.28,0,0,1,.11-.13l.16-.1.21-.07.21-.07a.79.79,0,0,1,.22,0h.17l1.11-.29c1.78-.45,3-.75,3.78-.89s1.31-.25,1.7-.35c.37.8.92,2,1.67,3.55l1.67,3.56-.44-8h.2l3-.79,3-.79,1.39-.35c.18,0,.31.12.4.46Q238.56,215.79,238.84,216.84Z"/><path class="cls-2" d="M243,217l-6.8-11.14,7-4.61a9.84,9.84,0,0,1,1.29-.67,6.46,6.46,0,0,1,1.36-.41,3.94,3.94,0,0,1,1.37,0,3.12,3.12,0,0,1,1.27.54,3.86,3.86,0,0,1,1.1,1.21,3.31,3.31,0,0,1,.57,2,4.75,4.75,0,0,1-.67,2,3.17,3.17,0,0,1,3.94,1.51,4,4,0,0,1,.59,1.67,3.64,3.64,0,0,1-.16,1.57,5,5,0,0,1-.75,1.4,7.66,7.66,0,0,1-1.09,1.19,9,9,0,0,1-1.28.94l-1.2.71c-.54.31-1,.55-1.22.72q-2.29,1.4-4.17,2.64A3.2,3.2,0,0,1,243,217Zm-.36-11.27c.15.25.38.61.7,1.09s.55.85.7,1.1c.07.1.17.12.31.06l.37-.3.41-.34a2.82,2.82,0,0,0,.33-.36,1.11,1.11,0,0,0,.23-.46,1.51,1.51,0,0,0,0-.52,2.16,2.16,0,0,0-.26-.65c-.52-.84-1.35-.91-2.51-.2q-.31.27-.33.36A.25.25,0,0,0,242.59,205.74Zm4,6.21c.24.41.39.6.43.57l.27-.16c.22-.13.4-.25.55-.36a4.27,4.27,0,0,0,.44-.41,1.22,1.22,0,0,0,.3-.5,1.42,1.42,0,0,0,0-.58,1.91,1.91,0,0,0-.26-.7,1.87,1.87,0,0,0-.28-.35,1,1,0,0,0-.31-.22l-.31-.11a1,1,0,0,0-.34,0l-.33.06a2.09,2.09,0,0,0-.35.13l-.32.15-.32.17-.29.16.19.31a6.54,6.54,0,0,0,.29.67,7.85,7.85,0,0,0,.42.88Z"/><path class="cls-2" d="M252.56,204l-.73-.77a7.49,7.49,0,0,1-1.29-2.2,6.54,6.54,0,0,1-.39-2.23,6.85,6.85,0,0,1,.38-2.15,8,8,0,0,1,1-2A10.12,10.12,0,0,1,253,193a7.37,7.37,0,0,1,1-.85,13.06,13.06,0,0,1,1.3-.77,6,6,0,0,1,1.55-.53,4.41,4.41,0,0,1,1.58-.05,7.76,7.76,0,0,1,2.7.82,9.33,9.33,0,0,1,2.29,1.76,8.54,8.54,0,0,1,2.6,4.8l.1.72a4.48,4.48,0,0,1-.27,2.05,8.32,8.32,0,0,1-1,2,11.24,11.24,0,0,1-1.39,1.61,10.45,10.45,0,0,1-1.84,1.41,7.68,7.68,0,0,1-1.79.77,6.12,6.12,0,0,1-1.7.19,6.21,6.21,0,0,1-1.6-.25,8,8,0,0,1-1.48-.63,9.77,9.77,0,0,1-1.32-.88A13.36,13.36,0,0,1,252.56,204Zm2.93-8.11a1.43,1.43,0,0,0-.39.63,1.94,1.94,0,0,0-.06.68,2.14,2.14,0,0,0,.24.74,5,5,0,0,0,.39.72q.26.38.54.72t.54.63l.53.56c.19.21.4.4.61.59a4.4,4.4,0,0,0,.69.51,3.27,3.27,0,0,0,.75.37,1.59,1.59,0,0,0,.75.06,1.2,1.2,0,0,0,.69-.32,1.74,1.74,0,0,0,.45-.62,1.43,1.43,0,0,0,.15-.64,1.63,1.63,0,0,0-.13-.69,4.12,4.12,0,0,0-.32-.67,4.88,4.88,0,0,0-.49-.7c-.21-.26-.4-.48-.56-.66s-.37-.41-.62-.67-.37-.37-.54-.53a6.61,6.61,0,0,0-.6-.5,2.51,2.51,0,0,0-.66-.41,3,3,0,0,0-.66-.22,1.27,1.27,0,0,0-.67,0,1.66,1.66,0,0,0-.63.42Z"/><path class="cls-2" d="M214,233.43c-49.38,0-89.56-51.15-89.56-114S164.65,5.37,214,5.37s89.56,51.15,89.56,114S263.41,233.43,214,233.43Zm0-223.06c-46.63,0-84.56,48.91-84.56,109s37.93,109,84.56,109,84.56-48.91,84.56-109S260.66,10.37,214,10.37Z"/></g><g id="Шар_4" data-name="Шар 4"><ellipse class="cls-3" cx="214.03" cy="119.4" rx="58.84" ry="83.47"/><path class="cls-4" d="M163.09,151.46l85-7.53,22.66-1.46q-2.67,8.73-5.33,17.46-4.53,9.4-9.07,18.82l-34.13,9.37a92.59,92.59,0,0,1-27.62,4A91.08,91.08,0,0,1,179,190.66q-6.75-12-13.48-24l-4.58-14.54Z"/><path class="cls-5" d="M169.81,175.89a60.25,60.25,0,0,1,9.35-5.29,63.06,63.06,0,0,1,28.06-5.47,78.94,78.94,0,0,0,15.35-1.59C234.5,161.08,240.14,157,257,151c5.14-1.81,9.37-3.11,12-3.88-.64,2.59-1.29,5.17-1.94,7.76A116.08,116.08,0,0,1,240.75,174c-4.1,2.16-18.08,5.82-45.88,13.06-5,1.3-10.88,2.74-16.42-.18C173.3,184.12,170.9,178.94,169.81,175.89Z"/><path class="cls-4" d="M179.28,189.93a363,363,0,0,0,60.88-22.63c10.21-4.87,19.62-10,28.24-15.06Q261.18,167,254,181.73l-16.14,14.74-13.63,5.65a41.94,41.94,0,0,1-28.59-1.78Z"/><path class="cls-6" d="M216.56,141.12,222,135q3-3.42,6-6.81,2.11-5,4.22-9.93c1.47-3.18,5.48-10.66,13.9-14.44a24.78,24.78,0,0,1,5.64-1.76,10.33,10.33,0,0,0-4.11,4.82c-3.27,8.34,6.46,21.91,24.23,33.76l-2.59,3.3c-7.43.21-15.17.59-23.17,1.18-7.36.53-14.46,1.21-21.3,2a12.33,12.33,0,0,1-2.58-.83A12.8,12.8,0,0,1,216.56,141.12Z"/><path class="cls-7" d="M251.73,102.05a35.52,35.52,0,0,0-11.41,11.88c-2.26,3.88-6.91,11.85-3.76,18.35,2,4.05,6.06,5.69,12.12,8.12a52.43,52.43,0,0,0,16.62,3.66l-11.45.54-20.4,1.58-7.4.78-9.49-5.84,11.25-12.61,1.63-3.22c1.22-4,5.8-17.41,17.75-22A22.27,22.27,0,0,1,251.73,102.05Z"/><path class="cls-6" d="M180.85,149l14.24-13.29H206.5a96.72,96.72,0,0,1,30.12,14.82c-4,.27-11.26.75-20.59,1.29-14.78.88-22.92,1.23-32.82-2C182.22,149.45,181.37,149.12,180.85,149Z"/><path class="cls-7" d="M195.09,135.68A33.47,33.47,0,0,0,200,141.8a36.68,36.68,0,0,0,19.67,9.79l-10.52.59-3.83.16h-6.56l-2.71-.12-3.44-.33L189,151.3l-4.89-1.18L180.85,149Z"/><path class="cls-6" d="M158.38,150.75l14.24-13.29H184a97.39,97.39,0,0,1,30.08,14.82c-4,.27-11.26.75-20.59,1.3-14.78.87-22.92,1.22-32.83-2Z"/><path class="cls-7" d="M172.62,137.46a34.26,34.26,0,0,0,4.88,6.12,36.67,36.67,0,0,0,19.72,9.78l-10.52.6-3.88.16h-6.6l-2.71-.12-3.44-.33-3.54-.55-4.88-1.24-3.27-1.12Z"/><path class="cls-5" d="M163.09,83.22a123.22,123.22,0,0,0,17,4.57c3.37.65,18.76,3.48,40.7,1.43,8.94-.83,8.31-1.48,14.36-1.76a85,85,0,0,1,32.47,4.94l-4.06-13.69L251.73,57.8,234.47,42.12l-11.11-4.77-16.57-.42-18,8.85L175.44,58.52l-10,17.84Z"/><path class="cls-8" d="M162.09,83.22a127.09,127.09,0,0,0,17.39,4.57c3.45.65,19.18,3.48,41.62,1.43,9.13-.83,8.49-1.48,14.68-1.76A88.82,88.82,0,0,1,269,92.4"/><path class="cls-7" d="M201.31,189.54l6.35-2.42,3.78-1.37,1.41-9c.29-6,.46-12.26.47-18.76q0-11-.51-21.06l-.59-5.34-3.5-22.85v-20L205.78,90,201,93.41l-3.34,3.5-2.61,5.32-.85,4.63-.45-3.74.14-4.81,1-4.63,2.39-5.5L199.57,85l3.65-3.14-1.9.31L197,83.86,194.09,86l-2.18,2.83L189.8,93V90.28l.67-4.09,1.82-3.07,2.12-3L196.73,78l4.06-1.88,5.43-.85,1.71-.28-1.08-2.34-1.92-2-3.65-2.2-3.19-.76-4-.24,2.23-1.3,4.84-1.25,5-.65,3.67.61,2.63,1.83,2.29,2.71,2.55-3.13,1.92-1.81,2.47-1.38,2.7-.69-.81,1.23-2.88,2.1-1.38,2.43-.64,1.75-.37,3.27,2.09-.35,3.1.64,2.57,1.47,3.13,4.3,1.41,3.38.86,3.29L228,82.57l-3.78-1.79-3-.32-1.18.38-.62.5.21,2.06L220.77,86l1.39,2.15,1.56,1.62L224.6,92l-.3,3.94L224,99.34l-.56,2.35-1.77-4.26-1.4-2.8L218.35,93l-3.13-2.53-2.52-1.88-1.65-.89-.43.12.55.5-.15,5L210.7,107l3.52,18.38,2.3,6.94,1,45.82,1.15,7.77,10,.4-.25,16.39-14.41,2-13.41-3.3.4-1Z"/><g id="Шар_5" data-name="Шар 5"><path class="cls-9" d="M201,189.56h17.3l.18,13.35h10.06v-16.5l-9.88-.78-1.15-7.58-1-45.89L214,124.5a86.25,86.25,0,0,1-2.94-35.07L210.7,86l-2,2.75v20.06a222,222,0,0,1,3.59,22.78,225.32,225.32,0,0,1-.88,54L201,189.56v11.81a23.09,23.09,0,0,0,17.48,1.5"/><line class="cls-9" x1="218.32" y1="189.52" x2="228.56" y2="186.41"/><line class="cls-9" x1="218.68" y1="185.63" x2="220.58" y2="188.83"/><line class="cls-9" x1="211.44" y1="185.63" x2="207.38" y2="189.55"/><path class="cls-9" d="M203,82.12a20.9,20.9,0,0,0-3.53,3.18c-6.65,7.56-5.72,17.86-5.29,21.06A21.38,21.38,0,0,1,197,98.24a22.76,22.76,0,0,1,11.7-9.49"/><path class="cls-9" d="M204.22,81.69a16.11,16.11,0,0,0-6.12,1.65A17.34,17.34,0,0,0,189.86,93a16.54,16.54,0,0,1,9.88-16.59,15.87,15.87,0,0,1,7.77-1.06"/><path class="cls-9" d="M208.32,76.12a12.59,12.59,0,0,0-4-6,13.41,13.41,0,0,0-10.59-2.58,22.46,22.46,0,0,1,6.12-2.42c2.79-.68,7.73-1.87,11.77.82A10.54,10.54,0,0,1,215,69.82"/><path class="cls-9" d="M214.22,71.69a12.6,12.6,0,0,1,2.93-5.57A13.59,13.59,0,0,1,227,62,10.74,10.74,0,0,0,221.38,65a11.67,11.67,0,0,0-3.06,9.29"/><path class="cls-9" d="M216.68,73.93a8,8,0,0,1,4.7-1.06c4.94.51,9.43,6.46,10.54,14.9a10.77,10.77,0,0,0-5.36-6.08,10.6,10.6,0,0,0-7.18-.7,11.12,11.12,0,0,0,1.18,4.94A11.88,11.88,0,0,0,222.94,89c1.46,1.59,2.48,4.87.44,12.33a23.51,23.51,0,0,0-2.82-5.65,24.24,24.24,0,0,0-9.67-8.14"/></g><polyline class="cls-10" points="228.82 199.77 228.82 186.08 217.53 190.93 200.7 189.25 200.7 200.58"/><path class="cls-10" d="M219.09,185.12,229,186"/><line class="cls-10" x1="217.53" y1="190.93" x2="217.53" y2="202.72"/><path class="cls-2" d="M214,206.87c-33.44,0-60.65-38.58-60.65-86s27.21-86,60.65-86,60.65,38.58,60.65,86S247.47,206.87,214,206.87Zm0-168c-31.24,0-56.65,36.79-56.65,82s25.41,82,56.65,82,56.65-36.79,56.65-82S245.22,38.87,214,38.87Z"/></g><g id="Шар_7" data-name="Шар 7"><circle cx="151.19" cy="171.31" r="1.8"/><circle cx="144.7" cy="167.82" r="1.8"/><circle cx="154.58" cy="165.02" r="1.8"/><circle cx="148.09" cy="161.53" r="1.8"/><circle cx="278.09" cy="171.31" r="1.8"/><circle cx="284.58" cy="167.82" r="1.8"/><circle cx="274.7" cy="165.02" r="1.8"/><circle cx="281.19" cy="161.53" r="1.8"/><circle class="cls-2" cx="152.19" cy="170.31" r="1.8"/><circle class="cls-2" cx="145.7" cy="166.82" r="1.8"/><circle class="cls-2" cx="155.58" cy="164.02" r="1.8"/><circle class="cls-2" cx="149.09" cy="160.53" r="1.8"/><circle class="cls-2" cx="277.09" cy="170.31" r="1.8"/><circle class="cls-2" cx="283.58" cy="166.82" r="1.8"/><circle class="cls-2" cx="273.7" cy="164.02" r="1.8"/><circle class="cls-2" cx="280.19" cy="160.53" r="1.8"/></g></g><polygon class="cls-11" points="171.43 35.62 174.08 39.14 171.34 38.58 169.81 36.79 171.39 35.67 171.43 35.62"/></g></g></svg>