<svg xmlns="http://www.w3.org/2000/svg" xmlns:xlink="http://www.w3.org/1999/xlink" viewBox="0 0 1900 1000" xmlns:v="https://vecta.io/nano"><style><![CDATA[.T{fill:#fff}.U{stroke-miterlimit:10}.V{fill:#231f20}]]></style><defs><clipPath id="A"><path d="M1225 500c1.33 13.33 3.03 28.36-1 48-5.89 28.7-20.3 48.99-29 61-14.55 20.08-29.85 32.85-42 43-9.53 7.96-16.34 13.65-27 20-11.58 6.9-18.59 9.15-56 24l-25 10c-37.28 14.48-48.05 16.75-68 27-5.73 2.94-13.73 7.32-23 13.35-.16.1-.33.21-.5.33-.17-.12-.34-.23-.5-.33-9.27-6.03-17.27-10.41-23-13.35-19.95-10.25-30.72-12.52-68-27l-25-10c-37.41-14.85-44.42-17.1-56-24-10.66-6.35-17.47-12.04-27-20-12.15-10.15-27.45-22.92-42-43-8.7-12.01-23.11-32.3-29-61-4.03-19.64-2.33-34.67-1-48 .92-9.29 1.91-25.09 3.28-50.47L689 377c2.71-53.71 2.93-100.24 3-119v-20l-19-33 77-100 7 7c2.86 2.02 7.25 4.77 13 7 17.46 6.77 30.99 2.38 69-6 48.73-10.74 42.28-7 58-12 7.11-2.26 20.41-6.83 38.92-8.03 7.33-.47 13.43-.29 17.58-.03 4.15-.26 10.25-.44 17.58.03 18.51 1.2 31.81 5.77 38.92 8.03 15.72 5 9.27 1.26 58 12 38.01 8.38 51.54 12.77 69 6 5.75-2.23 10.14-4.98 13-7l7-7 77 100-19 33v20c.07 18.76.29 65.29 3 119l7 123z" fill="none" stroke-width="0"/></clipPath><path id="B" d="M857.75 560.25l25.5-25.5 160-156"/></defs><g class="T"><path d="M0 0h1900v1000H0z"/><g stroke="#58595b" stroke-width="3" class="U"><path d="M699 637v36.28l-37.5-28.72L699 637zm504.25 0v36.28l37.5-28.72-37.5-7.56zM627.5 574.5c6.67 10.63 16.9 24.47 32 38a177.6 177.6 0 0 0 36 25l-34 6.06-34 46.59A150.43 150.43 0 0 1 614 683c-26.41-15.76-43.4-36.95-54-54h67.75l-.25-54.5zm647.25 0c-6.67 10.63-16.9 24.47-32 38a177.6 177.6 0 0 1-36 25l34 6.06 34 46.59a150.43 150.43 0 0 0 13.5-7.15c26.41-15.76 43.4-36.95 54-54h-67.75l.25-54.5z"/><path d="M1299.25 722l-16 11c-17.74 12.46-30.33 22.19-34 25-6.59 5.04-37.34 28.56-70 46-31.5 16.82-57.85 24.29-78 30-24.01 6.8-47.67 10.87-95 19-17.79 3.06-92.46 3.06-110.25 0-47.33-8.13-70.99-12.2-95-19-20.15-5.71-46.5-13.18-78-30-32.66-17.44-63.41-40.96-70-46-3.67-2.81-16.26-12.54-34-25l-16-11 59.5-77.44 19.21 13.4c1.5 1.05 69.02 57.09 93.29 70.04 2.65 1.41 46.2 24.26 98 33 29.36 4.95 61.97 5.48 66 5.54l11.75.01c.17 0 .34-.01.5-.01a2.09 2.09 0 0 0 .25.01l11.75-.01c4.03-.06 36.64-.59 66-5.54 51.8-8.74 95.35-31.59 98-33 24.27-12.95 91.79-68.99 93.29-70.04l19.21-13.4 59.5 77.44z"/></g></g><g clip-path="url(#A)"><path d="M665.5 238H954v212H665.5z" fill="#084976"/><g class="T"><path d="M807.71 271.29l15.09-15.09a.71.71 0 0 1 .5-.21h4.94c.22 0 .43.1.56.28l16.09 21.4c.3.4.9.37 1.16-.06l10.26-16.79a.7.7 0 0 1 .6-.34h7.91c.39 0 .7.31.7.7v24.2c0 .39-.31.7-.7.7h-35.6c-.39 0-.7.31-.7.7v2c0 .39.31.7.7.7h35.6c.39 0 .7.31.7.7v20.33c0 .39-.31.7-.7.7h-8.19a.73.73 0 0 1-.57-.29l-9.93-13.6c-.29-.4-.9-.38-1.16.05l-8.25 13.5a.7.7 0 0 1-.6.34h-6.82c-.39 0-.7.31-.7.7v58.87c0 .39-.31.7-.7.7h-19.68c-.39 0-.7-.31-.7-.7v-99.01a.69.69 0 0 1 .21-.5zm.49 105.45h19.68c.39 0 .7.31.7.7v16.36c0 .39-.31.7-.7.7h-4.53c-.39 0-.7.31-.7.7v2.01a.69.69 0 0 0 .21.5l20.22 20.22c.27.27.27.72 0 .99l-23.09 23.09c-.27.27-.72.27-.99 0l-24.02-24.02c-.27-.27-.27-.7-.01-.98l18.34-19.3a.71.71 0 0 0 .19-.48v-2.02c0-.39-.31-.7-.7-.7h-4.6c-.39 0-.7-.31-.7-.7v-16.36c0-.39.31-.7.7-.7zm13.6 2.76h-7.6c-.39 0-.7.31-.7.7v7.6c0 .39.31.7.7.7h7.6c.39 0 .7-.31.7-.7v-7.6c0-.39-.31-.7-.7-.7zm14.38 38l-16.69-16.69c-.27-.27-.72-.27-.99 0l-16.69 16.69c-.27.27-.27.72 0 .99l16.69 16.69c.27.27.72.27.99 0l16.69-16.69c.27-.27.27-.72 0-.99zm117.32 32h296v138h-296z"/></g><g fill="none" stroke-width="4" stroke="#6d6e71" class="U"><use xlink:href="#B"/><path d="M897.75 530.25l25.5-25.5 160-156m-165.5 171.5l25.5-25.5 160-156m-215.5 221.5l25.5-25.5 160-156m-225.5 231.5l25.5-25.5 160-156m-145.5 151.5l25.5-25.5 160-156m-165.5 171.5l25.5-25.5 160-156m-215.5 221.5l25.5-25.5 160-156m-140.5 146.5l25.5-25.5 160-156m-145.5 151.5l25.5-25.5 160-156m-165.5 171.5l25.5-25.5 160-156m-215.5 221.5l25.5-25.5 160-156m-225.5 231.5l25.5-25.5 160-156m-145.5 151.5l25.5-25.5 160-156m-165.5 171.5l25.5-25.5 160-156m-215.5 221.5l25.5-25.5 160-156"/><path d="M920.25 577.75l25.5-25.5 160-156m40-30l-160 156-25.5 25.5L936 572l5 5 44.25-44.25m-5 5l25.5-25.5 160-156m-215.5 221.5l25.5-25.5 160-156m-225.5 231.5l25.5-25.5 160-156m-145.5 151.5l25.5-25.5 160-156m20-10l-160 156-30.99 30.99m-24.51 34.51l25.5-25.5 160-156m-140.5 146.5l25.5-25.5 160-156m40-30l-160 156-66.63 66.63m246.63-232.63l-160 156-68.48 68.48m12.98-2.98l25.5-25.5 160-156m-225.5 231.5l25.5-25.5 160-156 22.61-22.61m-168.11 174.11l25.5-25.5 160-156m-165.5 171.5l25.5-25.5 160-156m-215.5 221.5l25.5-25.5 160-156 19.34-19.34M982.25 675.25l25.5-25.5 160-156 51.13-51.12m-191.63 197.62l25.5-25.5 166.07-162.07m33.93-23.93l-160 156-66.63 66.63m61.13-51.13l25.5-25.5 160-156m-215.5 221.5l25.5-25.5 160-156m-225.5 231.5l25.5-25.5 160-156 22.61-22.61m-168.11 174.11l25.5-25.5 160-156m-165.5 171.5l25.5-25.5 160-156m-215.5 221.5l25.5-25.5 160-156 19.34-19.34m79.16-65.66l-160 156-66.63 66.63m61.13-51.13l25.5-25.5 160-156m-215.5 221.5l25.5-25.5 160-156m-225.5 231.5l25.5-25.5 160-156 22.61-22.61m-168.11 174.11l25.5-25.5 160-156"/></g><path d="M953.5 587.5h265v172h-265z" class="V"/><g stroke="#231f20" stroke-width="2" class="U"><path d="M1096.98 584.56c-.5.5-1 1.07-1.48 1.94-.7 1.28-.69 2.05-.85 4.84-2.64.05-6.28-.84-9.15-.84-1.33 0-2.67-.03-4 0l-.64.02-.36-1.02c-1.6-4.31-3.61-4.23-5-8-.42-1.14-1.65-4.99 0-9 1.14-2.76 3.1-4.31 4-5 .41-.32 8.07-6.02 15-2 .41.24.79.49 1.14.77.17 2.33-.79 5.52-.14 11.23.33 2.93.94 5.23 1.48 7.06z" fill="#e6e7e8"/><g class="T"><path d="M1152.5 568.5l-1-15v-10c-.74-9.44-4.14-16.32-5-18-1.39-2.72-4.2-8.09-10-13-4.7-3.98-9.24-5.87-12-7-2.97-1.21-6.98-2.14-15-4-5.7-1.32-8.58-1.98-10-2-3.91-.05-4.68.85-15 3-6.56 1.37-8.15 1.4-10 1-3.12-.67-5.43-2.25-8-4-5.19-3.54-5.02-5.18-8-6-4.44-1.22-8.85 1.34-10 2-3.55 2.06-2.95 3.55-6 5-2.77 1.31-3.62.25-11 1-5.57.56-7.07 1.36-8 2-1.63 1.12-2.48 2.42-4 5a194.99 194.99 0 0 0-6 11c-4.49 6.53-5 8-5 8-.26.76-.51 3.17-1 8-.36 3.54-.44 4.83-.73 6.04-.1.44-.21.74-.27.96-2.07 6.93-1.98 9.52-4 12-.51.63-2.8 3.43-5 3-3.76-.73-5-10.5-5-16 0-6.16 1.54-11.21 3-16 .58-1.91 1.39-4.64 3-8 2.27-4.72 3.51-5.75 6-10 4.04-6.92 6.51-10.88 6-16-.08-.77-1.05-3.84-3-10-1.38-4.34-1.83-5.5-3-6-2.66-1.14-7.41 1.75-8 5-.39 2.14 1.31 2.78 2 7 .36 2.22.2 3.91 0 6-.42 4.34-.62 6.51-2 8-2.5 2.72-7 4-7 4-2.71 2.87-7.65 8.89-10 18-1.59 6.18-1.41 11.52-1 15l1.95 7.86 1.05 4.14c.7 3.12 2.45 5.87 4.02 7.84 1.58 1.97 2.98 3.16 2.98 3.16s2.8 3.15 6 5c4.08 2.36 11.68.02 15-1 3.87-1.19 2.22-1.18 13-6 6.41-2.86 10.98-4.65 13.89-9.16.51-.8.48-.91 1.11-1.84 3.09-4.55 6.01-4.94 7.54-7.16-.14.39-.32.78-.54 1.16-1.15 2-2.48 2.01-3 4-.2.77-.51 1.94 0 3 1.19 2.48 5.22 1.06 8 4 .94 1 1.31 2.04 2 4 .57 1.62 1.28 3.64 1 6-.4 3.38-2.44 4.08-2 6 .47 2.03 2.85 1.67 5 4 3.41 3.68 2.46 9.99 2 13-.09.61-.24 1.45-2 7-3.08 9.71-3.8 10.88-3 12 1.26 1.75 3.96.22 14 0 6.35-.14 7.75.42 10-1 4.42-2.79 4.98-8.7 5-9 .16-2.04-.24-3.74-.64-4.98-.12-.39-.25-.73-.36-1.02-1.6-4.31-3.61-4.23-5-8-.42-1.14-1.65-4.99 0-9 1.14-2.76 3.1-4.31 4-5 .41-.32 8.07-6.02 15-2 .41.24.79.49 1.14.77 4.3 3.28 4.82 8.76 4.86 9.23.08.96.27 3.46-1 6-.78 1.57-1.66 2.22-2.52 3.06-.5.5-1 1.07-1.48 1.94-.7 1.28-.69 2.05-.85 4.84l-.15 2.16c-.56 7.75-1.39 9.97 0 11 .8.59 1.26.01 4 0 4.62-.01 5.88 1.64 9 1 .96-.2 2.83-.58 4-2 3.35-4.04-3.32-11.14 0-17 .89-1.57 1.21-.79 4-4 3.94-4.54 5.17-8.26 6-8 .54.17.36 1.84.21 5.01-.34 6.98.18 5.75-.21 11.99-.32 5.19-.48 7.79-1 10-.87 3.72-1.74 4.84-1 6 1.05 1.65 3.75.85 11 1 7.12.14 7.78.98 9 0 2.13-1.71 1.45-7.5 0-19-.37-2.95-.83-6.03 0-10 .31-1.48.87-2.99 2-6 2.41-6.43 3.38-6.92 4-7 1.23-.15 2.45 1.13 3 2 1.68 2.63.72 6.85 0 10-.27 1.21-.61 2.37 0 3 .64.65 2.13.52 3 0 1.85-1.09 1.59-5.08 1-13zm-131-36c-.41-.2.3-2.99 1-3 .42-.01 1 1 1 1s-1.6 2.2-2 2zm24 8a4.94 4.94 0 0 1-.45.82c.69-1.9.53-3.78.45-4.82h0s0-.04-.01-.06v-.03s0-.04-.01-.06c-.11-.52-.54-2.27-.79-3.22-.04-.16-.08-.28-.11-.38-.03-.08-.06-.16-.08-.25-.42-1.4-.69-2.5-.87-3.38-.72-1.6-1.73-3.22-3.13-4.62-3.25-3.24-7.1-3.73-7-4 .13-.35 6.54.01 9 4 .77 1.25.54 1.87 1.13 4.62.79 1.75 1.24 3.46 1.5 4.79.01.01.01.02.01.03.62 1.54 1.38 4.23.36 6.56z"/><path d="m1023.5,530.5s-1.6,2.2-2,2c-.41-.2.3-2.99,1-3,.42-.01,1,1,1,1Z"/></g></g><path d="M685.5 450.5h268v169h-268z" class="T"/><path d="M827.5 626.5c.19-.59.46-1.06 1-2 .68-1.19 1.2-1.86 2-3l2-3c2.15-3.58-3.07-11.59-4-13-4.26-6.43-7-8.13-11-13-6.33-7.7-4.9-14.15-9-15-1.67-.35-4.11.43-9 2-2.91.93-4.3 1.64-6 1-2.21-.84-2.48-3.02-4-3s-1.48 2.2-4 4c-1.08.77-.99.3-8 2-1.27.31-2.35.58-3 0-.87-.78-.09-2.32-1-3-.56-.41-1.51-.33-2.19-.2-.59.11-1.2.08-1.78-.07-4.15-1.07-7.04-.55-9.03.27-2.38.99-4.02 2.65-5 2-.86-.58-.72-2.62 0-4 .77-1.49 2.19-2.17 4-3 2.71-1.25 3.69-.89 5-2 1.19-1.01 1.72-2.45 1.96-3.76.03-.16.04-.33.05-.49.13-2.98 1.09-4.71 1.99-5.75 1.61-1.86 4.33-3.06 5.86-3.62a3.86 3.86 0 0 1 2.18-.15l12.96 2.77c1.45.3 3.61.74 4 0 .36-.67-.87-2.13-2-3-2.36-1.8-4.99-1.56-5-2-.02-.62 5.14-.04 8-3 2.26-2.34 2.02-5.76 2-6-.39-4.67-5.3-8.83-10-10-3.58-.89-6.55.09-8-2-.75-1.08-.84-2.63-.86-3.12-.05-2.22 1.02-3.78.86-3.88-.39-.23-4.52 9.24-9 9-1.67-.09-2.4-1.47-4-1-2.17.64-2.96 3.83-3 4-.39 1.67.2 2.1 0 4-.22 2.09-1.02 2.46-2 5-1.59 4.12-.8 6.62-2 7-.98.31-1.66-1.31-4-2-1.32-.39-2.55-.3-3.46-.12-.33.06-.64.18-.95.32-1.5.72-3.76 1.56-6.59 1.8-.81.07-1.77.15-3 0-3.97-.47-4.55-2.59-9-4-2.37-.75-4.57-.9-6-1-1.9-.13-2.84-.19-4 0-.92.15-1.64.39-2.23.61-1.45.53-3.06.17-4.13-.94l-.04-.04c-.41-.43-.72-.96-.9-1.52-.77-2.41-.83-4.02-.69-5.1.08-.64.3-1.68.16-3.2-.11-1.27-.36-1.55-.16-1.8.78-.99 5.01 3.1 10 3 3.39-.07 2.66-1.99 10-5 2.91-1.19 7.87-2.87 10-5l1.68-1.68c.24-.24.45-.51.62-.81.57-.99 1.48-2.98.7-4.51-1.23-2.41-6.18-2.8-9-1-1.78 1.14-2.19 2.82-4 3-1.07.11-1.36-.44-3-1-3.69-1.25-5.87.3-7-1-.45-.51-.49-1.19 0-4 .84-4.82 1.27-7.22 2-8 3.27-3.47 11.16.04 12-2 .55-1.35-2.73-3.3-2-5 .28-.65 1.52-1.1 4-2 0 0 .28-.1 2.11-.71.62-.21 1.19-.58 1.64-1.06 2.99-3.17 3.49-5.54 3.25-7.24-.28-1.9-1.57-3.42-1-4 .44-.44 1.48.16 4 1 3.29 1.1 5.25 1.76 6 1 .94-.95-1.09-3.1 0-5 .8-1.39 2.75-1.76 4-2 1.79-.34 2.76-.02 4 0 1.67.02 4.04-.5 7-3 1.78-1.82 3.1-2.1 4-2 1.3.14 1.71 1.09 3 1 1.27-.09 2.18-1.1 3-2 1.48-1.64 1.04-2.24 2-3 2.03-1.62 4.99.33 6-1 .81-1.07-.83-2.7 0-4 .55-.86 1.74-.89 5-1 6.64-.22 7.95-.33 8 0 .07.42-1.93 1.13-2 1-.09-.16 2.78-1.22 6-4 1.96-1.69 4.44-4.36 5-4l.02.01c.46.34.1 1.57-.02 1.99-.86 2.99-1.37 4.73-1 5 .54.4 3.89-1.62 5-5 .82-2.5-.17-3.97 1-5 1.53-1.35 4.66-.13 5 0 1.47.57 2.14 1.34 3 2 1.85 1.41 3.9 1.76 8 2 6.28.37 16.66.97 17-1 .07-.39-.24-1.02-2-2 2.39 2.79 3.96 3.23 5 3 1.67-.38 1.89-2.48 4-3 1.83-.45 3.52.68 4 1 2.88 1.92 2.99 5.57 3 6-1.54-1.69-1.95-2.04-2-2-.18.15 2.53 5.54 7 7 2.6.85 5.25.19 7.33-.7.45-.19.92-.3 1.41-.31h6.26c4.51.02 5.77.07 7 1 1.86 1.4 2.78 4.15 2 5-.63.69-2.04-.24-6-1-3.66-.7-5.51-1.03-7 0-1.61 1.11-2.15 3.35-2 5 .16 1.69 1.05 2.82 2 4 .75.92 1.52 1.63 5 4 3.22 2.19 3.75 2.39 6 4 3.06 2.18 2.62 2.2 4 3 1.68.98 5.31 3.1 9 2 3.06-.91 5.54-3.86 5-5-.74-1.58-6.92.95-8-1-.68-1.23.89-3.84 3-5 1.47-.81 3.17-.9 7 0a50.2 50.2 0 0 1 10.49 3.75c.33.16.65.37.92.63 1.56 1.46 1.76 2.21 1.58 2.62-.4.94-2.67.09-6 1-1.11.3-4.31 1.17-6 4-.3.5-1.18 2.02-1 4 .22 2.42 1.87 3.95 3 5 1.39 1.29 4.08 3.78 7 3 2.74-.73 4.64-4.04 4-5-.54-.81-3-.03-3 0 0 .05 5.69-.99 6 0 .22.71-2.7 1.29-4 4-1.24 2.58-.21 5.41 0 6 .72 1.97 1.95 3.11 4 5 2.79 2.57 3.48 2.24 5 4 1.38 1.6 1.92 3.4 3 7 1.42 4.73 2.1 7.13 1 9-.82 1.39-1.54.86-4 3-2.99 2.6-3.03 4.35-5 5-.76.25-1.88.36-3.48-.26-1.07-.41-2.27-.36-3.28.18a77.45 77.45 0 0 0-8.24 5.08c-1.66 1.17-2.53 1.9-4 2-2.62.18-3.39-1.89-8-4-2.68-1.23-4.74-1.6-7-2-3.38-.61-4.4-.28-5 0-2.08.97-3.63 3.51-3 5 .61 1.44 2.99 1.25 3 2 .01.88-3.23 1.82-6 2a16.38 16.38 0 0 1-2 0c5.64 1.3 7.03 1.81 7 2-.08.44-7.42-1.89-15 1-1.05.4-7.53 2.87-8 7-.18 1.54.59 2.37 0 4-.97 2.68-4.17 3.61-4 4 .22.51 5.28-1.99 6-1 .85 1.17-3.84 8.07-9 8-3.6-.05-6.59-3.47-7-3-.39.45 2.56 3.14 2 4-.79 1.21-7.39-3.19-10-1-.52.44-.7.99-1 4-.6 6.13-.52 10.53 0 15 .14 1.24.33 2.52 1 4 .95 2.08 2.22 3.16 3 4 4.26 4.55 3.68 12.05 4 12 .12-.02-.03-.97 0-3 .03-2.27.24-2.88 0-3-.71-.36-2.62 4.74-7 8-5.15 3.83-12.59 4.26-14 2-.6-.96-.37-2.85 0-4z" fill="#050405"/><path d="M714.5 619.5h239v145h-239z" fill="#4e9542"/><path d="M953.5 238.5h273v211h-273z" class="T"/><path d="M1199.5 446.5l-5-1c-7.05-1.35-12.58-2.08-19-3-4.7-.67-13.3-1.86-24-3-7.28-.78-21.05-2.23-38-3-25.42-1.15-47.69-.3-65 1-12.8.96-14.46 1.66-38 4l-.56.06c-3.13.31-2.91 4.94.24 4.94h189.31z" fill="#407035"/><path d="M1087.5 440.5c.16-1.15 7.83 1.23 14-3 .22-.15 5.64-3.99 6-10 .24-4.05-1.95-7.03-4-10-6.05-8.75-11.14-18.12-17-27-6.96-10.54-1.48-2.76-8-13-4.41-6.93-7.1-10.78-6-15 .53-2.04 1.88-3.91 1-5-.92-1.13-2.94.16-5-1-2.32-1.31-2.81-4.67-3-6-.62-4.32 1.29-6.99 0-8-.79-.62-1.58.33-4 0-2.35-.32-3.11-1.41-4-1-1.35.63-1.04 3.82-1 5 .19 5.41-3.64 9.77-10 17-7.39 8.4-9.5 6.67-16 15-1.75 2.24-4 5.45-5 5-.91-.41-.26-3.67 0-5 .91-4.56 2.52-6.79 5-12 2.99-6.27 2.11-6.1 4-9 2.51-3.86 3.51-3.31 7-8 2.76-3.71 4.23-6.86 5-10 .47-1.92 1.27-5.13 0-6s-3.55 1.37-7 3c-6.65 3.15-9.09-.02-15 2-8.95 3.06-10.21 12.65-16 12-1.94-.22-3.31-1.47-5-3-.92-.84-4.78-4.34-5-10-.02-.47-.21-7.75 4-10 3.57-1.91 6.5 1.83 13 0 2.14-.6 4.54-1.78 5-2 2.65-1.31 3.5-2.14 5-3 5.87-3.37 12.89-2 18-1 1.42.28 2.19.52 3 1 1.74 1.03 2.99 2.78 3.8 4.27.73 1.34 2.47 1.73 3.69.81l5.51-4.08c.68-.49 1.42-1.01 2-2 1.46-2.5 1.07-6.58-1-8-1.47-1.01-2.8 0-9 1-6.4 1.04-7.51.38-8 0-1.9-1.49-.58-3.71-2-7-2.52-5.81-10.37-7.45-13-8-1.72-.36-8.23-1.72-10 1-1.11 1.7.35 3.93-1 5-.83.66-1.67.05-5 0-3.02-.05-3.35.43-4 0-2.12-1.41-1.06-8.16 2-13 2.61-4.13 6.24-6.17 8-7 4.63-2.19 12.5-3.69 16 0 2.16 2.28.81 4.58 3 6 1.58 1.03 2.89.22 12-2 3.56-.87 4.62-1.05 5-2 .77-1.92-1.85-5.39-5-7-3.07-1.57-5.62-.83-6-2-.54-1.66 4.44-3.68 4-6-.34-1.83-3.85-2.71-5-3-3.82-.96-6.35.16-7-1-.46-.82.4-2.1 1-3 .39-.59 3.6-5.37 8-5 4.61.39 7.6 6.22 8 7 1.26 2.47 1.32 4.33 3 5 1.33.53 3.22.12 4-1 1-1.42-.61-2.79 0-5 .69-2.49 3.14-2.18 5-5 2.15-3.25.95-6.78 2-7 .84-.18 1.25 2.17 4 5 2.22 2.28 3.48 2.33 4 4 .45 1.44-.31 2.02-1 5-.39 1.69-1.21 5.38 0 9 .26.78 1.31 3.93 3 4 1.5.06 2.69-2.37 3-3 1.29-2.63.43-3.95 1-7 .28-1.52 1.52-3.68 4-8 1.95-3.4 2.95-5.12 4-6 2.34-1.96 6.74-3.93 9-2 1.29 1.1 1.85 3.44 1 5-1.32 2.42-4.96.96-8 3-2.46 1.65-3.01 6.12-4 15-1.17 10.42-1.75 15.63-1 18 .29.93 1.17 3.38 0 5-1.03 1.42-2.95 1.27-3 2-.05.85 2.48 2.33 5 2 2.36-.31 3-1.98 6-4 2.82-1.9 3.66-1.37 7-3 3.94-1.93 3.19-2.88 9-7 0 0 4.14-2.94 11-5 .93-.28 2.11-.6 3 0 1.11.75 1 2.42 1 7 0 6.14.19 5.65 0 7-.5 3.63-.91 6.64-3 8-3.03 1.97-6.12-1.78-10 0-3.35 1.54-2.26 4.88-6 7-1.22.69-4.15.79-10 1-1.7.06-3.47.04-7 0-5.08-.06-6.72-.19-7-1-.4-1.15 2.38-2.41 2-4-.32-1.33-2.63-1.92-4-2-2.06-.12-4.65.77-6 3-1.69 2.79-.51 6.18 1 8 1.98 2.37 5 2.64 8 3 5.71.68 11.33 2.05 17 3 10.46 1.76 8.63 5.72 29 15 0 0 4.91 2.24 12 8 3.29 2.68 5.25 4.74 5 7-.08.74-.41 1.61-3 4-4.14 3.82-7.52 6.95-10 6-1.78-.68-1.54-2.87-3-6-2.2-4.71-4.91-4.4-13-11-6.75-5.51-8.4-8.61-14-10-.33-.08-4.48-1.09-5 0-.56 1.16 3.53 3.75 10 10 5.94 5.74 6.68 7.59 7 9 .81 3.52.05 8.48-3 10-2.35 1.17-5.17-.15-7-1-3.39-1.58-3.63-3.11-8-7-4.63-4.13-6.46-4.28-9-8-2.53-3.7-2.11-5.58-2-6 .4-1.52 1.46-1.87 2-4 .46-1.82.14-3.36 0-4-.22-1-.78-3.52-3-5-1.72-1.15-3.53-1.07-5-1-1.6.07-4.38.2-6 2-2.4 2.68-.82 7.5 0 10 1.29 3.92 2.72 4.72 5 9 2.81 5.27 1.49 5.68 4 11 2.03 4.32 4.69 7.55 10 14 3.33 4.04 3.4 3.75 6 7 4.73 5.9 4.95 7.43 9 13 6.62 9.1 8.59 8.52 13 16 3.21 5.45 5 10 5 10 1.62 4.14 3.86 11.16 7 13 1.5.88 3.29 1.43 3.29 1.43.87.27 1.54.47 2.51.52.85.04 1.15-.08 1.21.05.18.42-2.65 2.99-6 3-1.3 0-1.66-.38-4-1-1.89-.5-3.26-.67-6-1-6.89-.84-10.34-1.26-14 0a17.48 17.48 0 0 0-3.7 1.8c-.21.13-.42.24-.65.31-2.02.59-5.04 1.19-8.65.9-4.58-.37-9.13-2.11-9-3z" class="V"/><path d="M639.5 60.5h601v137h-601z" fill="#8dd5ec"/><g class="U"><path d="M1008.71 143.21l4.38 18.96 18.1 7.14-16.68 10.02-1.2 19.42-14.69-12.77-18.83 4.86 7.6-17.91-10.44-16.42 19.38 1.7 12.38-15z" stroke-width="3" stroke="#939598" class="T"/><g stroke-width="4" fill="#fff200" stroke="#fff200"><path d="M839.5 149.5l120.03 31.48c1.17.31 2.4-.19 3.02-1.23h0c.96-1.6.06-3.66-1.76-4.05L839.5 149.5zm84-18l43.54 23.44c.42.23.93 0 1.24-.56h0c.48-.86.28-2.08-.39-2.38l-44.39-20.5zm30.17-16.89l35.66 34.26c.35.33.89.25 1.34-.21h0c.69-.7.82-1.93.26-2.4l-37.27-31.65z"/></g></g><path d="m1163.5,208.06h0c0-.81-1.05-1.19-1.6-.57-6.91,7.8-19.5,13.01-33.9,13.01-15.1,0-28.22-5.74-34.87-14.17-.53-.67-1.63-.3-1.63.53v.06c0,.58-.57.99-1.15.84l-32.34-8.38c-.9-.23-.9-1.45,0-1.69l22.11-5.73c.68-.18.9-.98.41-1.46l-16.36-15.72c-.66-.63-.02-1.69.88-1.46l22,5.56c.78.2,1.43-.61,1.03-1.28l-11.91-19.85c-.46-.77.44-1.64,1.25-1.19l25.72,14.08c.61.33,1.37-.09,1.37-.76v-25.13c0-.89,1.23-1.21,1.7-.44l12.77,20.84c.41.67,1.46.53,1.67-.21l6.48-22.81c.24-.86,1.52-.86,1.76,0l7.22,25.41.12.46.32-.39,15.29-18.69c.57-.7,1.75-.23,1.63.65l-3.1,21.98-.13.08s.08.03.12.05v-.12s21.68-11.86,21.68-11.86c.81-.44,1.71.42,1.25,1.19l-11.26,18.77-.31.11c.04.06.09.11.14.16l.17-.28,21.88-8.29c.87-.33,1.63.65,1.06,1.35l-14.67,17.93c-.4.49-.15,1.22.48,1.38l26.25,6.8c.9.23.9,1.45,0,1.69l-32.34,8.38c-.58.15-1.15-.27-1.15-.84Z" fill="#d93227"/><path d="M664.5 197.5h586v38h-586z" fill="#4579ab"/><g fill="none" stroke="#1a4071" stroke-width="9" class="U"><path d="M685.28 449.53H1222M692 238h523"/><path d="M953.64 238v508.68"/></g></g><path d="M1225 500c1.33 13.33 3.03 28.36-1 48-5.89 28.7-20.3 48.99-29 61-14.55 20.08-29.85 32.85-42 43-9.53 7.96-16.34 13.65-27 20-11.58 6.9-18.59 9.15-56 24l-25 10c-37.28 14.48-48.05 16.75-68 27-5.73 2.94-13.73 7.32-23 13.35-.16.1-.33.21-.5.33-.17-.12-.34-.23-.5-.33-9.27-6.03-17.27-10.41-23-13.35-19.95-10.25-30.72-12.52-68-27l-25-10c-37.41-14.85-44.42-17.1-56-24-10.66-6.35-17.47-12.04-27-20-12.15-10.15-27.45-22.92-42-43-8.7-12.01-23.11-32.3-29-61-4.03-19.64-2.33-34.67-1-48 .92-9.29 1.91-25.09 3.28-50.47L689 377c2.71-53.71 2.93-100.24 3-119v-20l-19-33 77-100 7 7c2.86 2.02 7.25 4.77 13 7 17.46 6.77 30.99 2.38 69-6 48.73-10.74 42.28-7 58-12 7.11-2.26 20.41-6.83 38.92-8.03 7.33-.47 13.43-.29 17.58-.03 4.15-.26 10.25-.44 17.58.03 18.51 1.2 31.81 5.77 38.92 8.03 15.72 5 9.27 1.26 58 12 38.01 8.38 51.54 12.77 69 6 5.75-2.23 10.14-4.98 13-7l7-7 77 100-19 33v20c.07 18.76.29 65.29 3 119l7 123z" fill="none" stroke="#1b3f71" stroke-width="11" class="U"/><g class="V"><path d="M681.66 675.92l-6.71-6.76 2.07-2.01a385.87 385.87 0 0 0 16.43 15.98l-1.95 2.13-6.92-6.5-16.23 16.88-3.1-3.01 16.41-16.71zm14.93 8.17l2.98 2.66-7.8 8.84c.02.02.05.04.07.06 1.14-.3 2.47-.27 3.8.11 1.29.35 2.63.99 3.79 1.98 2.27 1.95 4.96 6.19.86 11.25l-7.11 8.71-3.27-2.71 6.95-8.33c1.95-2.34 2.56-5.17-.37-7.68-2.01-1.72-4.61-1.94-6.41-1.03-.49.2-.86.54-1.3 1.04l-7.54 8.55-3.19-2.85 18.56-20.59zm9.21 32.42c-2.79 3.71-1.11 7.47 2.25 9.99 2.4 1.8 4.11 2.52 5.7 3l-.86 2.41c-1.51-.42-3.93-1.41-6.88-3.63-5.72-4.32-6.67-10.02-3.1-14.46 3.57-4.45 9.43-5.47 14.54-1.61 5.74 4.31 4.17 9.79 2.14 12.64-.41.57-.8.96-1.05 1.22a410.58 410.58 0 0 1-12.74-9.56zm11.09 5.32c1.33-1.74 2.43-5.12-1.19-7.85-3.25-2.46-6.62-1.06-8.35.62l9.54 7.23zm28.6 31.29c-1.61-.22-4.53-1.22-7.83-3.25-7.68-4.73-10.71-12.45-5.87-19.59 4.63-6.83 12.97-7.88 20.79-3.09 3.16 1.93 4.81 3.71 5.45 4.63l-2.21 1.92c-.95-1.28-2.5-2.75-4.62-4.05-5.96-3.65-12.02-2.95-15.83 2.82-3.54 5.37-2.08 11.33 4.5 15.37 2.12 1.3 4.51 2.23 6.26 2.49l-.64 2.75zm19.52-15.73c-.53 1.05-1.84 1.39-3.19.63-1.2-.68-1.58-1.98-1-3 .6-1.05 1.94-1.36 3.17-.67 1.26.71 1.61 1.98 1.03 3.04zm-15.77 18.9l9.36-16.41 3.43 1.94-9.2 16.51-3.6-2.03zm25.22-13.95l-2.5 4.82 5 2.56-1.17 2.34-5.04-2.57-4.7 9.04c-1.08 2.08-.99 3.62 1.03 4.66.95.49 1.71.74 2.22.86l-.99 2.39c-.83-.11-2.05-.51-3.46-1.23-1.71-.88-2.84-2.05-3.27-3.33-.56-1.44-.14-3.12.91-5.09l4.85-9.1-2.97-1.6 1.25-2.3 2.95 1.59 2.13-4 3.77.97zm8.09 10.12l-.47 12.14a67.95 67.95 0 0 1-.34 4.1c.03.01.06.03.08.04l2.94-2.99 8.5-8.33 3.77 1.66a516.87 516.87 0 0 1-10.89 9.92c-5.3 4.72-8.55 6.87-11.99 7.5-2.48.47-4.58.1-5.59-.22l.33-3.05a11.66 11.66 0 0 0 4 .08c1.34-.18 3.18-.77 4.77-1.97.32-.24.56-.43.64-.6.08-.18.11-.46.13-.93-.03-6.43.05-12.84.24-19.22l3.84 1.88zm42.3 36.09c-1.87-.04-5.53-.3-9.5-1.71-4.45-1.57-7.74-3.9-9.68-7.28-1.7-3-1.91-6.87-.39-10.68 3-7.27 10.66-10.31 19.82-7.09 3.18 1.11 5.46 2.57 6.48 3.48l-1.74 2.34c-1.29-1.09-2.98-2.19-5.77-3.17-6.71-2.36-12.48-.36-14.89 5.79-2.43 6.21.55 11.63 7.38 14.04 2.47.87 4.26 1.15 5.26 1.07l2.52-7.43-5.81-2.02.92-2.57 9.37 3.2-3.94 12.02zm27.35-.8c-1.72 6.78-8.01 8.3-13.21 6.81-5.82-1.67-9.14-6.66-7.31-12.35 1.93-6.03 7.48-8.15 13.11-6.54 5.84 1.66 8.84 6.48 7.42 12.08zm-16.66-4.47c-1.22 3.95.54 7.76 4.34 8.85 3.71 1.06 7.29-1.18 8.39-5.29.83-3.1.12-7.47-4.28-8.72-4.4-1.26-7.39 1.72-8.45 5.16zm24.85-3.07l1.66 11.3.64 5.11c.04 0 .09.02.13.03.83-1.41 1.79-2.8 2.86-4.32l6.31-9.51 3.94.8a537.15 537.15 0 0 1-12.22 16.75l-3.76-.85c-1.32-6.77-2.52-13.53-3.58-20.3l4 .98zm18.96 14.32c-.77 4.58 2.29 7.1 6.26 7.75 2.83.47 4.61.3 6.17-.02l.31 2.53c-1.48.33-3.98.59-7.46.01-6.76-1.13-10.03-5.7-8.92-11.28 1.11-5.6 5.65-9.26 11.7-8.24 6.78 1.12 7.83 6.7 7.34 10.15-.1.7-.27 1.22-.36 1.56a405.5 405.5 0 0 1-15.03-2.47zm11.77-.5c.38-2.16-.15-5.66-4.43-6.37-3.84-.65-6.11 2.17-6.85 4.46l11.28 1.91zm8.77-.48l.61-5.87 3.33.43-.33 3.7a.88.88 0 0 1 .17.02c1.28-2.4 3.76-3.71 6.31-3.44.43.05.73.12 1.07.23l-.34 3.22c-.38-.12-.77-.2-1.3-.26-2.7-.29-4.84 1.29-5.69 3.78-.15.45-.3.99-.37 1.57l-1.23 10-3.95-.5 1.72-12.89zm14.63.88l.31-5.11 3.39.31-.05 3.13h.09c1.21-1.7 3.78-3.24 7.25-3 2.9.21 7.33 2 7.03 8.47l-.56 11.27-4.01-.22.65-10.87c.18-3.04-.95-5.64-4.57-5.89-2.53-.18-4.63 1.25-5.46 3.1-.21.41-.35.99-.4 1.57l-.97 11.32-4.01-.36 1.31-13.72zm24.45 1.57v-5.12l3.35.1.1 3.05h.13c1.23-1.77 3.22-3.4 6.7-3.37 2.87.02 5.05 1.57 5.99 3.79h.09c.65-1.06 1.47-1.89 2.34-2.48 1.26-.88 2.64-1.37 4.64-1.42 2.78-.06 6.97 1.4 7.27 7.95l.48 11.11-3.92.15-.36-10.69c-.13-3.63-1.69-5.76-4.8-5.68-2.19.05-3.88 1.51-4.52 3.2-.17.47-.3 1.1-.29 1.72l.12 11.67-3.93.02v-11.32c0-3.01-1.5-5.18-4.43-5.21-2.41-.03-4.19 1.65-4.86 3.35-.23.5-.34 1.09-.35 1.67l-.27 11.39-3.93-.11.46-13.77zm39.28 4.33c.38 4.63 3.96 6.32 7.95 5.99 2.85-.24 4.53-.83 5.97-1.52l.92 2.38c-1.35.68-3.71 1.54-7.22 1.83-6.82.55-11.09-3.08-11.39-8.77-.29-5.7 3.2-10.35 9.29-10.84 6.83-.57 9.22 4.59 9.59 8.06.07.7.04 1.25.03 1.61a403.4 403.4 0 0 1-15.15 1.27zm11.27-3.36c-.16-2.19-1.53-5.45-5.85-5.1-3.88.31-5.37 3.6-5.54 6l11.38-.9zm8.28-3.37l-.76-5.06 3.38-.4.6 3.07c.03 0 .06 0 .09-.01.83-1.91 3.02-3.96 6.47-4.45 2.89-.4 7.61.43 8.66 6.82l1.81 11.13-3.98.62-1.64-10.77c-.46-3.01-2.11-5.32-5.71-4.81-2.52.35-4.27 2.18-4.69 4.17-.12.45-.14 1.04-.06 1.62l1.42 11.27-4 .48-1.59-13.69zm26.74-14.73l1.02 5.33 5.4-1.07.53 2.56-5.44 1.07 1.91 10.01c.44 2.3 1.45 3.46 3.64 3.03 1.03-.2 1.76-.47 2.23-.69l.7 2.49c-.71.42-1.88.86-3.42 1.16-1.85.36-3.43.14-4.54-.61-1.31-.79-2.01-2.37-2.4-4.56l-1.84-10.14-3.25.57-.44-2.58 3.23-.57-.81-4.46 3.48-1.56zm40.89 5.26c2.01 6.7-2.62 11.23-7.85 12.61-5.85 1.55-11.24-1.05-12.6-6.86-1.44-6.16 2.21-10.82 7.86-12.32 5.86-1.56 10.93 1.03 12.59 6.57zm-16.59 4.69c.99 4.02 4.45 6.39 8.26 5.38 3.72-.99 5.65-4.75 4.48-8.84-.88-3.08-3.74-6.47-8.15-5.29-4.42 1.17-5.45 5.26-4.59 8.75zm24.6 2.92l-4.82-15.55-2.88.88-.75-2.5 2.86-.87-.27-.86c-.78-2.54-.87-5.04.35-7.02.98-1.62 2.62-2.68 4.29-3.23 1.26-.42 2.45-.53 3.23-.51l.36 2.68c-.61-.04-1.41.02-2.44.36-3.08 1.01-3.08 3.71-2.2 6.46l.31.97 4.89-1.6.83 2.48-4.92 1.61 4.97 15.5-3.83 1.2zm41.4-27.9c-1.71-3.26-3.75-7.18-5.04-10.19-.04.02-.08.04-.12.05.33 3.23.52 6.73.57 10.67v13.87l-2.83 1.17-9.29-9.77c-2.7-2.92-5.04-5.66-6.94-8.28-.03.01-.05.02-.08.03 1.1 3.09 2.47 7.29 3.63 11.07l3.26 10.83-3.6 1.35-7.23-25.39 4.49-1.72 9.42 9.95c2.38 2.53 4.45 4.81 6.22 7.03.04-.02.08-.03.13-.05-.3-2.75-.4-5.84-.46-9.42l-.19-13.78 4.41-1.97 12.69 23.13-3.6 1.64-5.44-10.23zm28.45-11.9c3.37 6.13-.3 11.59-5.2 14.07-5.48 2.79-11.36 1.41-13.9-4-2.69-5.73-.03-11.08 5.26-13.78 5.49-2.8 11.05-1.37 13.84 3.7zm-15.5 8.21c1.8 3.72 5.72 5.3 9.3 3.48 3.49-1.78 4.64-5.89 2.63-9.64-1.51-2.83-5.04-5.53-9.18-3.41-4.14 2.1-4.32 6.34-2.75 9.58zm17.91-14.32l-2.66-4.37 3.04-1.72 1.75 2.6.08-.05c.05-2.1 1.35-4.87 4.43-6.71 2.58-1.53 7.37-2.67 10.82 2.81l5.97 9.57-3.53 2.18-5.67-9.3c-1.59-2.6-4.03-4.07-7.25-2.15-2.25 1.34-3.21 3.73-2.85 5.74.06.46.27 1.02.56 1.53l5.65 9.86-3.6 2.04-6.74-12.02zm22.07-12.41l-3.36-4.85 2.91-1.91 2.16 3.02.15-.1c-.56-2.67.55-5.33 2.75-6.84.37-.26.66-.4 1-.54l1.84 2.67a7.67 7.67 0 0 0-1.2.68c-2.33 1.6-2.99 4.23-2.03 6.69.18.44.41.95.73 1.44l5.56 8.4-3.45 2.26-7.06-10.91zm30.45-17.56c4.32 5.49 1.49 11.58-3.03 14.9-5.06 3.74-11.16 3.39-14.55-1.53-3.59-5.21-1.75-10.98 3.14-14.6 5.07-3.75 10.87-3.32 14.45 1.23zm-14.26 10.89c2.39 3.38 6.55 4.26 9.85 1.82 3.22-2.38 3.73-6.67 1.14-10.04-1.95-2.55-5.91-4.6-9.73-1.77-3.83 2.82-3.35 7.05-1.27 9.99zm13.5-22.15l10.14 5.42 4.52 2.54.11-.09c-.6-1.54-1.08-3.17-1.61-4.97l-3.53-10.94 3.21-2.8c1.96 6.67 3.8 13.4 5.51 20.2l-3.12 2.6a502.72 502.72 0 0 1-18.59-9.27l3.37-2.69zm15.48-20.38c.83.83.71 2.21-.48 3.3-1.06.96-2.44.94-3.22.06-.81-.9-.65-2.3.43-3.28 1.11-1.01 2.45-.97 3.27-.08zm12.84 21.04l-12.62-14.06 3.03-2.75 12.77 13.93-3.17 2.88zm17.79-16.98l-1.93-1.43-.1.1c.12 1.98-.75 4.74-3.18 7.11-3.46 3.37-7.09 3.06-8.96 1.07-3.12-3.35-1.2-8.5 5.12-14.8l-.28-.28c-1.11-1.1-3.47-2.69-6.78.59-1.51 1.49-2.72 3.41-3.29 5.14l-2.24-.99c.66-2.03 2.15-4.38 4.19-6.39 4.91-4.87 8.9-3.39 11.63-.75l5.07 4.92c1.18 1.14 2.39 2.19 3.52 2.87l-2.76 2.82zm-7.3-6.33c-3.3 3.23-6.59 7.32-4.06 9.98 1.54 1.61 3.61 1.08 5.18-.46 2.2-2.16 2.47-4.66 1.82-6.27-.15-.35-.35-.69-.6-.94l-2.33-2.31zm-488.69 82.08l-6.1-4.19 1.38-1.97c4.89 3.44 9.84 6.74 14.85 9.9l-1.29 2.04-6.22-4.02-10.76 16.3-2.78-1.85 10.9-16.2zM760.3 768l2.66 1.64-5.12 8.39c.02.01.04.03.06.04.86-.43 1.91-.62 3-.54 1.06.07 2.18.36 3.21.97 2.01 1.19 4.61 4.18 1.94 8.91l-4.63 8.15-2.87-1.65 4.54-7.83c1.27-2.2 1.43-4.58-1.15-6.11-1.78-1.06-3.85-.79-5.16.23-.36.24-.61.58-.9 1.05l-4.95 8.11-2.83-1.74L760.31 768zm10.92 24.59c-1.79 3.43-.06 6.19 2.84 7.71 2.08 1.08 3.5 1.41 4.79 1.55l-.43 2.08c-1.24-.11-3.24-.54-5.79-1.88-4.95-2.6-6.31-7.04-4-11.18 2.32-4.15 6.83-5.91 11.28-3.56 5 2.61 4.34 7.3 3.04 9.9-.26.52-.53.9-.7 1.14a374.35 374.35 0 0 1-11.05-5.77zm9.3 2.59c.86-1.61 1.37-4.51-1.78-6.17-2.83-1.49-5.33.17-6.51 1.79l8.29 4.37zm32.31 14.39l3.17-8.93c-.03-.01-.07-.03-.1-.04l-5.92 6.6-8.09 8.17-2.25-.96.52-11.17.93-8.92c-.02 0-.04-.02-.06-.03l-4.42 8.65-4.49 8.29-2.8-1.29 10.73-19.21 3.54 1.6-.53 11.36-.64 7.76c.03.01.07.03.1.04 1.44-1.79 3.18-3.67 5.24-5.81l7.95-8.21 3.6 1.43-6.53 21-2.92-1.14 2.97-9.19zm22.38 9.78c-1.77 5.55-6.9 6.56-10.99 5.13-4.57-1.6-6.97-5.85-5.21-10.5 1.87-4.93 6.46-6.5 10.9-4.95 4.62 1.61 6.76 5.73 5.29 10.33zM822.07 815c-1.19 3.24.02 6.46 3 7.5 2.91 1.02 5.92-.7 7.03-4.07.84-2.54.52-6.2-2.95-7.4-3.47-1.22-6.05 1.16-7.08 3.97zm17.98 2.24l1.13-4.11 2.63.81-.59 2.54c.02 0 .05.01.07.02 1.25-1.19 3.56-2.02 6.25-1.24 2.26.65 5.43 2.86 4.04 8.08l-2.45 9.08-3.11-.85 2.43-8.75c.68-2.45.25-4.75-2.56-5.56-1.97-.57-3.88.25-4.85 1.62-.24.3-.45.75-.59 1.22l-2.74 9.07-3.09-.95 3.42-10.97zm18.84 6l1.08-4.8 2.62.66-.64 3.03.14.03c1.27-1.87 3.38-2.72 5.39-2.26.34.08.57.17.83.29l-.61 2.63c-.29-.14-.6-.24-1.01-.33-2.13-.5-4 .62-4.93 2.6-.16.36-.34.79-.46 1.26l-2 8.16-3.09-.77 2.67-10.5zm25.7 8.45c-1.01 5.74-5.92 7.44-10.13 6.58-4.71-.95-7.62-4.83-6.51-9.68 1.18-5.14 5.48-7.32 10.06-6.4 4.75.96 7.41 4.75 6.57 9.5zm-13.5-2.51c-.74 3.37.87 6.39 3.95 7.01 3 .61 5.73-1.5 6.37-4.99.49-2.63-.31-6.21-3.89-6.93-3.58-.73-5.79 1.98-6.43 4.9zm19.62-4.29l1.91 9.27.77 4.2c.04 0 .07.01.11.02.59-1.23 1.28-2.44 2.06-3.77l4.55-8.29 3.19.43c-2.87 4.92-5.84 9.81-8.89 14.67l-3.03-.46-3.91-16.61 3.24.55zm19.36-1.78c-.07.97-.92 1.67-2.13 1.52-1.07-.13-1.73-1-1.61-1.96.12-1 1-1.68 2.09-1.55 1.12.13 1.75.99 1.64 1.99zm-5.81 19.64l1.91-15.64 3.05.36-1.78 15.65-3.18-.38zm18.19 1.78l-.11-2h-.11c-1.06 1.16-3.04 2.12-5.55 1.9-3.56-.32-5.14-2.75-4.9-5.02.41-3.79 4.28-5.45 10.88-4.91 0-.11.02-.22.02-.32.1-1.3-.11-3.65-3.57-3.95-1.57-.13-3.25.17-4.51.76l-.51-1.95c1.48-.7 3.54-1.06 5.66-.88 5.13.42 6.17 3.76 5.96 6.92l-.4 5.88c-.09 1.36-.11 2.7.04 3.79l-2.9-.2zm.13-8.05c-3.4-.32-7.32-.13-7.61 2.91-.18 1.85 1.11 2.85 2.74 2.99 2.28.2 3.82-.99 4.42-2.28.13-.28.23-.6.25-.9l.21-2.73zm32.57 8.37c-1.16.53-3.48 1.08-6.47 1.06-6.94-.04-12.01-4.17-11.7-11.35.29-6.87 5.36-11.3 12.48-11.27 2.88.01 4.7.57 5.49.96l-.7 2.32c-1.14-.51-2.77-.89-4.7-.9-5.43-.02-9.14 3.14-9.33 8.9-.17 5.36 3.17 8.94 9.11 8.97 1.92 0 3.87-.36 5.13-.92l.67 2.24zm6.7-19.61c.06.97-.67 1.78-1.88 1.81-1.07.03-1.85-.74-1.87-1.72-.02-1.01.75-1.8 1.85-1.83 1.13-.03 1.87.73 1.91 1.74zm-2.95 20.26l-.33-15.75 3.07-.08.46 15.75-3.2.08zm11.28-20.7l.24 4.52 4.39-.26.14 2.18-4.41.26.45 8.48c.1 1.95.77 3.03 2.55 2.92.83-.05 1.44-.19 1.83-.31l.28 2.13c-.6.27-1.57.49-2.81.56-1.49.09-2.71-.28-3.51-1.02-.95-.8-1.33-2.19-1.42-4.04l-.39-8.58-2.63.11-.08-2.18 2.61-.11-.17-3.77 2.93-.89zm9.5 3.91l4.51 8.96 1.4 3.11h.07l.8-3.38 2.46-9.53 3.23-.35-3.46 11.66c-1.72 5.6-3.06 8.5-5.12 10.38-1.48 1.37-3.03 1.97-3.83 2.16l-.99-2.34a8.71 8.71 0 0 0 2.72-1.61 8.74 8.74 0 0 0 2.43-3.4c.12-.3.21-.54.2-.7s-.11-.38-.28-.73c-2.57-4.64-5.07-9.3-7.48-13.98l3.34-.25zm41.72 9.62c-1.05.73-3.25 1.66-6.21 2.16-6.87 1.16-12.58-2.03-13.52-9.15-.9-6.82 3.33-12.05 10.38-13.26 2.84-.49 4.74-.25 5.59-.01l-.29 2.4c-1.22-.3-2.89-.4-4.8-.07-5.37.92-8.48 4.67-7.67 10.38.76 5.31 4.67 8.26 10.55 7.26 1.9-.32 3.76-1.02 4.91-1.8l1.05 2.09zm17.3-11.14c1.38 5.66-2.45 9.2-6.64 10.09-4.7 1.02-8.92-1.37-9.85-6.26-.98-5.18 2.07-8.91 6.64-9.9 4.74-1.03 8.71 1.38 9.85 6.06zm-13.39 3.12c.68 3.38 3.36 5.5 6.43 4.84 2.99-.65 4.65-3.68 3.84-7.13-.61-2.6-2.78-5.56-6.35-4.78-3.57.77-4.51 4.13-3.92 7.07zm16.57-6.82l-1.34-4.73 2.62-.67.88 2.97c.05-.01.09-.02.14-.04.22-2.24 1.68-4 3.68-4.55.34-.09.58-.13.87-.14l.72 2.6c-.32.02-.64.08-1.05.19-2.11.58-3.23 2.45-3.1 4.63.03.4.07.85.2 1.33l2.12 8.13-3.09.79-2.65-10.51zm11.44-2.83l-1.55-4.91 2.67-.77.9 2.55c.02 0 .05-.01.07-.02.68-2.2 2.27-3.86 4.93-4.69 3.92-1.22 7.87.84 9.4 5.38 1.81 5.37-1.01 9.27-5.03 10.51-2.25.7-4.48.41-5.94-.79-.02 0-.05.01-.07.02l2.42 8.21-3.12.9-4.68-16.4zm4.17 3.16c.12.41.3.76.47 1.08 1.11 1.74 3.36 2.5 5.56 1.82 3.26-1.01 4.37-3.98 3.25-7.41-.98-3-3.53-5.01-6.67-4.03-2.03.63-3.52 2.53-3.5 4.76 0 .37.01.81.13 1.18l.76 2.59zm30.9-12.29c2.15 5.42-1.19 9.46-5.26 10.95-4.55 1.67-9.09-.1-10.69-4.81-1.69-5 .85-9.12 5.28-10.75 4.59-1.69 8.89.13 10.67 4.61zm-12.94 4.99c1.14 3.26 4.11 4.98 7.08 3.89 2.9-1.07 4.14-4.3 2.86-7.61-.96-2.49-3.54-5.12-6.99-3.84-3.46 1.27-3.94 4.73-2.95 7.56zm15.61-9.1l-1.98-4.5 2.53-1.04 1.28 2.82c.04-.02.09-.04.13-.05-.08-2.26 1.14-4.21 3.06-5.04.33-.14.57-.21.85-.26l1.07 2.48c-.32.07-.63.17-1.02.33-2.04.87-2.9 2.89-2.47 5.04.08.39.19.84.38 1.29l3.22 7.76-2.98 1.22-4.07-10.04zm24.11 1.24l-1.08-1.68c-.03.02-.07.03-.1.05-.37 1.54-1.66 3.37-3.99 4.44-3.32 1.51-5.93.18-6.83-1.9-1.52-3.5 1.1-6.88 7.23-9.73-.05-.1-.09-.2-.14-.29-.56-1.18-1.91-3.12-5.13-1.63-1.46.67-2.81 1.78-3.63 2.93l-1.42-1.44c.96-1.35 2.62-2.7 4.59-3.61 4.77-2.21 7.35.16 8.73 3.01l2.56 5.31c.6 1.23 1.24 2.4 1.91 3.27l-2.69 1.29zm-3.87-7.06c-3.19 1.44-6.57 3.56-5.32 6.36.76 1.69 2.4 1.92 3.91 1.23 2.12-.97 2.91-2.78 2.8-4.21-.03-.31-.1-.64-.22-.9l-1.17-2.47z"/><path d="M1116.49 785.4l2.06 4.03 4-2.08 1.02 1.93-4.03 2.1 3.87 7.56c.89 1.74 1.96 2.44 3.57 1.6a8.79 8.79 0 0 0 1.59-1.05l1.13 1.83c-.46.5-1.27 1.11-2.4 1.7-1.36.7-2.65.89-3.7.54-1.21-.33-2.14-1.44-2.97-3.1l-3.85-7.68-2.42 1.2-.96-1.96 2.4-1.19-1.69-3.38 2.38-2.04zm10.15-5.29c.5.84.2 1.9-.9 2.5-.97.53-2.03.21-2.49-.65-.48-.89-.13-1.96.86-2.5 1.02-.56 2.05-.24 2.54.65zm6.53 19.42l-7.48-13.86 2.77-1.51 7.6 13.8-2.89 1.58zm17.56-19.51c3.12 4.92.49 9.58-3.31 11.83-4.25 2.54-9.1 1.67-11.54-2.67-2.58-4.6-.78-9.16 3.36-11.63 4.29-2.56 8.91-1.61 11.49 2.46zm-12.05 7.45c1.72 2.99 5 4.11 7.77 2.46 2.71-1.62 3.37-5.05 1.51-8.07-1.41-2.27-4.45-4.36-7.68-2.42-3.23 1.93-3.09 5.43-1.6 8.03zm13.63-12.59l-2.43-3.51 2.38-1.54 1.58 2.08c.02-.01.04-.03.06-.04-.08-1.74.81-4.07 3.22-5.7 2.02-1.36 5.87-2.46 8.98 1.94l5.41 7.7-2.75 1.91-5.16-7.47c-1.45-2.09-3.52-3.22-6.03-1.52-1.76 1.19-2.4 3.2-1.99 4.84.07.38.28.83.55 1.24l5.19 7.92-2.79 1.82-6.22-9.66z"/></g></svg>