<?xml version="1.0" encoding="UTF-8" standalone="no"?>
<!-- Created with Inkscape (http://www.inkscape.org/) -->

<svg
   xmlns:dc="http://purl.org/dc/elements/1.1/"
   xmlns:cc="http://creativecommons.org/ns#"
   xmlns:rdf="http://www.w3.org/1999/02/22-rdf-syntax-ns#"
   xmlns:svg="http://www.w3.org/2000/svg"
   xmlns="http://www.w3.org/2000/svg"
   version="1.1"
   width="600"
   height="400"
   viewBox="0 0 169.33333 112.88889"
   id="svg2"
   xml:space="preserve"
   style="fill-rule:evenodd"><metadata
   id="metadata15"><rdf:RDF><cc:Work
       rdf:about=""><dc:format>image/svg+xml</dc:format><dc:type
         rdf:resource="http://purl.org/dc/dcmitype/StillImage" /><dc:title></dc:title></cc:Work></rdf:RDF></metadata>
 <defs
   id="defs4"><style
     type="text/css"
     id="style6" /><style
     type="text/css"
     id="style6-0" /></defs>
 <rect
   width="169.33333"
   height="112.88889"
   x="0"
   y="-3.3636077e-006"
   id="rect2997"
   style="fill:#0068ac;fill-opacity:1;stroke:none" />
<path
   d="m 1e-5,-2.3616622e-7 169.3333,0 L 169.33331,112.88889 0,112.88889 0,-2.3616622e-7 z"
   id="path3003"
   style="fill:#0068ac" /><path
   d="m 229.47821,156.39136 a 136.21736,136.21736 0 1 1 -272.434722,0 136.21736,136.21736 0 1 1 272.434722,0 z"
   transform="matrix(0.32267024,0,0,0.32267024,54.57406,5.9815257)"
   id="path2999"
   style="fill:#ffffff;fill-opacity:1;stroke:none" /><g
   transform="matrix(0.81827101,0,0,0.81827101,56.68175,20.52618)"
   id="g3061"
   style="fill-rule:evenodd"><path
     d="M 2.304,34.211 34.2,66.107 66.096,34.211 34.2,2.315 2.304,34.211 z m 53.8065,44.2881 0,4.3065 -44.1,0 0,-4.3065 44.1,0 z m 0,-10.0959 0,9.3585 -44.1,3e-4 0,-9.0798 L 23.1504,57.5423 34.2,68.5916 45.2493,57.542 56.1105,68.4032 z m -44.1,-63.2451 4.9365,0 0,4.3788 3.9915,0 0,-4.3788 4.7745,0 0,3.5232 8.487,-8.487 8.208,8.208 0,-3.2442 4.7745,0 0,4.3788 3.9915,0 0,-4.3788 4.9365,0 0,16.9467 12.1062,12.1062 -12.1062,12.1062 0,21.0438 L 45.2493,56.4998 34.2,67.5491 23.1504,56.4995 12.0105,67.6394 l 0,-21.6012 L 0.18329996,34.211 12.0105,22.3838 l 0,-17.2257 z"
     id="path3097"
     style="fill:#0068ac" /><path
     d="m 37.9152,27.9215 c 1.1064,0 2.0037,0.5109 2.0037,1.1403 0,0.6297 -0.8973,1.1406 -2.0037,1.1406 -1.107,0 -2.0043,-0.5109 -2.0043,-1.1406 0,-0.6294 0.8973,-1.1403 2.0043,-1.1403 z m -3.4311,1.6095 c 0.6363,0 1.1526,0.3648 1.1526,0.8157 0,0.4515 -0.5163,0.8163 -1.1526,0.8163 -0.6363,0 -1.1526,-0.3648 -1.1526,-0.8163 0,-0.4509 0.5163,-0.8157 1.1526,-0.8157 z m 3.9837,1.4067 c 0.5667,0 1.026,0.3294 1.026,0.7347 0,0.4059 -0.4593,0.7353 -1.026,0.7353 -0.567,0 -1.0263,-0.3294 -1.0263,-0.7353 0,-0.4053 0.4593,-0.7347 1.0263,-0.7347 z m -26.1039,0.4488 c 1.1211,-8.7528 7.3851,-15.8985 15.663,-18.3132 -0.0549,0.123 -0.0945,0.2349 -0.1113,0.3195 -1.3641,1.0821 -2.7771,2.1108 -3.9129,3.3924 -1.6527,1.8642 -2.739,4.0362 -3.1887,6.4752 -0.2694,1.4613 -0.4125,2.9385 -0.9732,4.3176 -1.1298,2.7768 -3.5604,4.1454 -7.4769,3.8085 z m 24.0525,24.7296 c -0.729,0.0729 -1.4682,0.111 -2.2167,0.111 -12.1572,0 -22.0158,-9.8589 -22.0158,-22.0164 0,-0.3102 0.0087,-0.6189 0.0213,-0.9258 2.5818,1.6008 6.3168,2.079 10.9995,0.7269 -1.9257,-3.4641 -0.8427,-6.8349 2.2758,-7.8837 2.3667,-0.7959 4.8849,-0.5157 6.3084,1.9134 0.7881,1.3449 0.3156,3.7071 -1.7226,4.2264 1.2759,-2.8629 -1.2114,-3.9309 -3.0204,-3.1401 -1.8498,0.8088 -1.8597,3.7053 -0.3714,5.1162 0.8007,0.7587 1.7013,1.2087 2.6802,1.3722 1.5075,0.252 2.9286,-0.4359 4.6545,-0.8475 2.0007,-0.477 4.8876,-0.3243 6.6336,0.8607 4.1568,2.8221 2.1939,7.4907 0.8844,8.8716 0.0732,-0.8082 -0.0222,-1.7862 -0.2931,-2.721 -0.3672,-1.2681 -1.1706,-2.418 -2.2515,-2.9967 -1.9842,-1.0629 -4.5573,0.1062 -4.7169,2.4447 -0.1131,1.6629 0.7584,3.4071 1.7205,4.6995 0.6576,0.8835 1.4793,1.7475 2.3982,2.5665 -1.0797,-0.0261 -2.5467,-0.0933 -3.7095,-0.1209 -2.2761,0.0366 -2.6598,1.0572 -2.6628,2.0517 3.3114,0 6.6228,0 9.9342,0 -1.155,1.4433 -4.2237,3.0483 -7.5498,2.745 -1.3938,-0.1269 -3.9969,-0.9294 -6.225,-2.2401 -3.7131,-2.1846 -6.2547,-5.7087 -4.2501,-9.327 2.4258,-2.9766 6.4665,0.1365 3.4821,3.2826 4.9164,-1.8303 3.7563,-8.5662 -1.7409,-8.6169 -4.4052,0.2028 -7.3677,5.5218 -4.8873,11.0604 1.3347,2.9796 3.8508,4.9044 6.6621,6.45 2.9172,1.6041 5.9889,2.4066 8.979,2.3373 z M 34.1997,12.1949 c 12.1575,0 22.0164,9.8586 22.0164,22.0158 0,8.9655 -5.3628,16.6794 -13.0536,20.1129 2.3244,-1.2609 4.4559,-3.198 6.2454,-5.8593 1.1109,-1.6527 2.3943,-3.6459 3.1884,-5.8635 0.312,-0.8712 1.4181,-4.1907 0.1839,-4.7844 -1.884,-0.9063 -4.1151,3.5742 -4.5867,4.2993 0.3108,-2.5131 0.294,-5.067 -0.3072,-7.6938 -0.6372,-1.9119 -1.7742,-3.3528 -3.2274,-4.4946 -1.6866,-1.3257 -3.636,-2.1597 -5.6616,-2.8116 -1.4889,-0.4788 -3.1107,-0.9183 -4.4745,-1.3251 -2.1111,-0.6297 -4.4109,-1.56 -5.3769,-3.7494 -0.2724,-0.6171 -0.3789,-1.3293 -0.1911,-2.1492 0.1446,-0.6315 0.6312,-1.413 1.3842,-1.4556 0.3264,-0.0183 0.7611,-0.021 1.3635,0.5115 0.3099,0.2736 0.5085,0.4686 0.8955,0.2562 0.3918,-0.2154 0.7749,-0.7719 0.1896,-1.0116 -0.4068,-0.1665 -0.9441,-0.2775 -1.2429,-0.63 -0.2262,-0.2673 -0.1329,-0.6195 0.1023,-0.8613 0.3162,-0.3255 0.9264,-0.3633 1.287,0.0768 0.5031,0.5046 1.008,0.9384 1.7349,0.2952 0.3231,-0.2856 0.6549,-0.5484 0.6762,-0.8184 0.0432,-0.5457 -0.6498,-1.0431 -0.9768,-1.3716 -0.3783,-0.3795 -0.7482,-0.8079 -1.0881,-1.0455 -0.9492,-0.6627 -2.0718,-1.1214 -2.9382,-0.99 -0.0339,-0.1068 -0.0726,-0.2055 -0.117,-0.2946 1.2894,-0.2355 2.6175,-0.3582 3.9747,-0.3582 z"
     id="_148159808"
     style="fill:#0068ac" /><path
     d="m 49.388012,76.038895 -0.863589,0 0,-5.561495 0.863589,0 0,2.348954 1.01297,0 2.008588,-2.348954 1.136215,0 -2.377927,2.78086 2.377759,2.780635 -1.136267,0 -2.008646,-2.349008 -1.012692,0 0,2.349008 z m -5.831617,-5.561495 3.577653,0 0,0.86359 -2.714064,0 0,1.50266 2.714064,0 0,0.863589 -2.714064,0 0,1.468068 2.714064,0 0,0.863588 -3.577653,0 0,-5.561495 z m -5.766103,5.561495 -0.863588,0 0,-5.561495 0.863588,0 0,2.348954 1.012971,0 2.008589,-2.348954 1.136212,0 -2.377927,2.78086 2.377763,2.780635 -1.136269,0 -2.008645,-2.349008 -1.012694,0 0,2.349008 z m -2.643933,0 -7.257084,0 0,-5.561495 0.863589,0 0,4.697907 2.333158,0 0,-4.697907 0.863588,0 0,4.697907 2.33316,0 0,-4.697907 0.863589,0 0,5.561495 z m -9.240925,0 -0.863589,0 0,-4.231073 -3.630821,4.231073 -0.86359,0 0,-5.561495 0.86359,0 0,4.231075 3.630821,-4.231075 0.863589,0 0,5.561495 z m -11.039345,-0.863588 0,-1.485364 2.684033,0.01462 c 0.397258,0 0.742682,0.328183 0.742682,0.742681 0,0.414499 -0.345424,0.742683 -0.742682,0.742683 l -2.684033,-0.01462 z m 3.584217,-4.697907 0,0.86359 -3.584217,0 0,1.485364 2.684033,0.01462 c 0.880885,0 1.589031,0.72544 1.589031,1.606269 0,0.880886 -0.708146,1.606271 -1.589031,1.606271 l -3.547622,-0.01462 0,-5.561494 4.447806,0 z"
     id="path3151"
     style="fill:#ffffff;fill-rule:evenodd" /></g></svg>