<?xml version="1.0" encoding="utf-8"?>
<!-- Generator: Adobe Illustrator 26.0.3, SVG Export Plug-In . SVG Version: 6.00 Build 0)  -->
<svg version="1.1" id="Layer_1" xmlns="http://www.w3.org/2000/svg" xmlns:xlink="http://www.w3.org/1999/xlink" x="0px" y="0px"
	 viewBox="0 0 1500 1000" style="enable-background:new 0 0 1500 1000;" xml:space="preserve">
<style type="text/css">
	.st0{fill:#44B0F1;}
	.st1{fill:#F9DD16;}
	.st2{fill:#355935;}
	.st3{fill:#5D8C55;}
	.st4{fill:#132519;}
	.st5{fill:none;stroke:#132519;stroke-width:0.4137;stroke-miterlimit:1.4892;}
	.st6{fill:#FEE46E;}
	.st7{fill:#73A767;stroke:#93BE89;stroke-width:0.8395;stroke-miterlimit:1.4892;}
	.st8{fill:#5D8C55;stroke:#132519;stroke-width:0.8395;stroke-miterlimit:1.4892;}
	.st9{fill:#6B5A48;stroke:#000000;stroke-miterlimit:10;}
	.st10{clip-path:url(#SVGID_00000047759808628680332190000010992508385207095682_);}
	.st11{fill:none;stroke:#000000;stroke-width:5;stroke-miterlimit:10;}
	.st12{fill:#FFFFFF;stroke:#000000;stroke-width:0.5;stroke-miterlimit:10;}
	.st13{fill:#939393;stroke:#000000;stroke-miterlimit:10;}
	.st14{fill:#FFFFFF;stroke:#000000;stroke-miterlimit:10;}
	.st15{fill:none;stroke:#000000;stroke-miterlimit:10;}
	.st16{fill:#FFFFFF;}
	.st17{clip-path:url(#SVGID_00000002366315277410806570000017107577702866621368_);}
	.st18{fill:#3A7728;stroke:#000000;stroke-width:0.5;stroke-miterlimit:10;}
	.st19{fill:#CE1126;stroke:#000000;stroke-width:0.5;}
	.st20{fill:none;stroke:#000000;stroke-width:0.5;}
	.st21{fill:#FFFFFF;stroke:#000000;stroke-width:0.5;}
	.st22{clip-path:url(#SVGID_00000137127848080235163400000017396740798956257175_);fill:#0C1C8C;stroke:#000000;stroke-width:0.5;}
	.st23{stroke:#FFFFFF;stroke-width:0.5;stroke-miterlimit:10;}
	.st24{fill:none;stroke:#000000;stroke-width:0.5;stroke-miterlimit:10;}
	.st25{fill:#939393;stroke:#000000;stroke-width:0.6097;stroke-miterlimit:19.5089;}
	.st26{fill:none;stroke:#000000;stroke-width:0.6097;stroke-miterlimit:19.5089;}
	.st27{fill:#FFFFFF;stroke:#000000;stroke-width:0.6097;stroke-miterlimit:19.5089;}
	.st28{fill:#B39F6A;}
</style>
<rect class="st0" width="1500" height="1000"/>
<rect class="st1" width="1500" height="500"/>
<g>
	
		<g id="g12622-0-4-6-6-5_00000146465287844131720630000016836147395050115228_" transform="matrix(0.74211426,-0.39252694,0.39252694,0.74211426,262.65517,104.78766)">
		<path id="path13572-7-3-8-0-1-4_00000170240357105145616900000008142102422041002375_" class="st2" d="M269.9,666.9
			c38.4-4.1,52.4-38.8,57.8-72.5c2.8-17.5,0.3,11-1.4-9.4c-2.4,1.6-13.7,11.3-20.4,14.6c-11.2,5.5-17.5-12.7-25.1-11.4
			c-7.3,1.2-14.6,1-20-3.6c-4.7-4-10.5-19.9-0.1-24c7.1-2.8,12-6.3,14.8-11.1c2.7-4.7,3.4-10.5,2.3-17.9c-2.7-0.7-5.2-0.6-7.6,0
			c-2.4,0.7-4.7,2-6.9,3.8c5.2-11.6,5.9-20.8,3-28.1c-4.2-10.3-15.6-16.7-31.9-20.9c5.7,8.8,9.1,14.7,9.8,20.2
			c0.6,4.4-1.6,7.7-5.5,12.2c-2.8,3.1-3.4,6.2-3.6,9.5c-1-2.8-2.7-6.2-5.8-6.8c0,0-6.5,6-8.1,11.1c-2.2,6.6-2.7,13-1.6,19.8
			c1,6.3,4.5,14.9,8.2,19.9c0.8,1.1,6.2,7.5,8.2,11.2c1.2,2.2,0.7,4.1-3.1,2.8c-8.1-2.9-12.7-8.2-15.2-13.7
			c-4.1-8.6-3-15.6-3.9-22.9c-0.3-2.8-2.4-7-4.4-9.4s-3.9-3.1-3.9-3.1c-3.3,1.5-5.5,3.5-7,6.2c-1.4,2.5-2.3,5.5-3.1,9.4
			c-0.7-2.8-1.5-6.4-0.6-10.1c2.9-11.9,3.8-25-1.8-32.1c-8.7-10.9-22.6-14.5-42.6,1.7c8.2,1.4,11.2,3.3,13.5,6.9
			c5.7,12.5-0.4,26.5,4.4,39.2c-2-2-3.7-3.2-6.2-3.8c-2.3-0.6-5-0.9-8,0.2c-0.7,2.4-0.9,4.9-0.8,7.3c0.2,3.5,1.1,6.7,2.5,9.1
			c2.4,4.3,6.8,5.8,10.9,7.5c-4.4,1.1-5.7,4.7-8.7,4.9c0-0.2,0.7,5.2,7.3,10.5c8.2,6.5,18.8,1.4,28,2.1c6.1,0.5,10.4,5.6,18.1,8.1
			c4.7,1.5,10.9,3.1,15.1,2c12.1-3,8.3,2.8,0.6,5.6c-9.1,3.3-16.8-3.1-25.5-4.1c-6.5-0.8-11.3,4.5-11.3,4.5c1,2.6,2.8,4.7,6.2,6.1
			c-2.6-0.8-5.2-0.9-7.9-0.5s-1.6,0.7-8.7,1.9c-2.2,0.4-5.2-0.2-7.7-1.4c0.2,2.2,1.2,5.3,3.2,8.5c2.3,3.7,6,7.5,11,9.8
			c3.6,1.7,8.8,2.5,13.4,1.9c-2.2,1.5-3.9,3.1-5.5,5.1c-0.7,0.9-1.3,1.9-2,2.9c0,0,7.7,4.8,13.6,4.9c4.3,0.1,10.3-1.6,15.9-3.8
			c6.3-2.4,14-5.2,20.4-6.7c8-1.9,29.6-3.7,29.4-1.5c-0.1,0.8,0.1,1.1-0.4,1.8c-4.2,5.4-15.4,8.9-22.4,8.9h-13.6
			c0,0,6.3,9.3,12.2,11.8C251.9,664.1,264.3,666.9,269.9,666.9L269.9,666.9z"/>
		<path id="path12618-9-7-7-8-3_00000065074641461478336900000009655577785072490127_" class="st3" d="M212.6,650.1
			c-1.5-5.8-2.1-11.7,0.8-17.5l8.8,1.6c-0.6-8.4,0.6-16.8,15.9-25.2c0,0,2.2,5.7,3.8,8.2c1.9,2.9,5.6,4.5,6.8,7.7
			c0.5,1.2,0,3.8,0,3.8c2.7-2,5.6-3.6,10.4-2.7c3.3,4.2,5.4,8.4,5.2,12.6l-17,0.5l-26.3,8.2L212.6,650.1z"/>
		<path id="path13572-7-0-5-9-8-3-9-1_00000025402598278470939420000011954963497887816617_" class="st4" d="M226.1,606.1
			c-4.2,1-10.4-0.5-15.1-2c-7.6-2.5-12-7.6-18.1-8.1c-9.2-0.7-19.8,4.4-28-2.1c-6.6-5.2-7.3-10.6-7.3-10.5c3-0.1,4.3-3.8,8.7-4.9
			c-4.1-1.7-8.4-3.2-10.9-7.5c-1.3-2.4-2.3-5.6-2.5-9.1c-0.1-2.4,0.1-4.9,0.8-7.3c3-1.1,5.6-0.8,8-0.2c2.5,0.6,4.2,1.8,6.2,3.8
			c0,0,0.7-6.7,2.6-9.2c1.7-2.2,7.3-4.2,7.3-4.2s6.8,6.8,8.7,13c1.6,4.9,0.7,13.5,2.5,18.3c2.9,7.5,6.9,13.1,13.2,18
			c0,0,9.5,6.1,13.5,7.9c4.8,2.1,15.5,2.5,15.5,2.5L226.1,606.1L226.1,606.1z M232.7,586.4c-8.1-2.9-12.7-8.2-15.2-13.7
			c-4.1-8.6-3-15.6-3.9-22.9c-0.3-2.8-2.4-7-4.4-9.4s-3.9-3.1-3.9-3.1s3,9.6,2.8,14c-0.2,4.8-2.8,9.8-2.8,14.6
			c0,4.9,0.4,7.7,3.1,11.8c2.7,4.2,7.6,5.7,12.4,7C225.2,585.9,232.7,586.4,232.7,586.4z M242.7,513.3c-1,1.7-2.4,3.5-4.1,5.5
			c-2.8,3.1-3.4,6.2-3.6,9.5c-1-2.8-2.7-6.2-5.8-6.8c0,0-6.5,6-8.1,11.1c-2.2,6.6-2.7,13-1.6,19.8c1,6.3,4.5,14.9,8.2,19.9
			c0.8,1.1,6.2,7.5,8.2,11.2c0,0,0.6-7.9,1.8-11.5c2-5.8,3.6-9.5,8.2-13.5c2.9-2.5,7.3-4.6,11.3-6.8c3.4-1.8,8.2-4.2,9.9-7.6
			c0.9-1.8,1.4-5.4,1.4-5.4s-6,1.7-9.9,3.1c-1.8,0.6-6.8,3.4-6.8,3.4s1.1-9,1.1-13.8c0-3.6-1.3-7.2-3.4-10.1
			C247,517.8,242.7,513.3,242.7,513.3L242.7,513.3z M175,626.7c-2-3.1-3-6.2-3.2-8.5c2.6,1.2,5.5,1.8,7.7,1.4c7.2-1.2,6-1.5,8.7-1.9
			c2.8-0.4,5.3-0.3,7.9,0.5c-3.4-1.4-5.3-3.5-6.2-6.1c0,0,4.7-5.3,11.3-4.5c8.7,1,16.4,7.4,25.5,4.1
			C213.7,637.8,188.2,636,175,626.7L175,626.7z"/>
		<path id="path12620-91-9-6-8-2_00000060740390149942581950000017562033523986038666_" class="st3" d="M265.2,645.7l-12.6,4.9V661
			l17,6.8l15.1-4.4l7.4-3.6l10.6,0.1l10.4-11.4l6.9-21.6c-14.3,15.9-24.6,23.9-32.9,25.6c-7.4,1.4-13.2,1-16.9-0.6
			C266.7,650.6,265,648.3,265.2,645.7L265.2,645.7z"/>
		<path id="path12612-72-8-0-0-33_00000042727453546033693430000010109676921990232228_" class="st3" d="M282.1,634.3
			c0,0,12.4-3.9,15.5-5c4.9-1.6,11-4.5,14.2-8.5c3.2-4.1,4.9-14.9,4.9-14.9l0,0h0.4l-6.8-10.4l-21.3,3.2l-23.3-10.2l-10.2-8.5v-13.4
			l15.5-12.3c-25.4-5.9-25.3,25.4-16.8,34c2.8,2.8,6.8,5.3,9.9,5.6c0,0-11.4,3.1-11.9,4.3c-3.7,9.1,5.3,12.4,5.3,12.4
			s-4.2,0.9-1.4,1.4c1.3,0.2,5-2.2,5-2.2s-9.3,5.3-9.6,8c-0.3,2.1-0.3,6.1-0.3,6.1s16.8,4.5,22.1,3.2c2.6-0.6,0.4,3.3,0.4,3.3
			L282.1,634.3z"/>
		<path id="path12614-36-9-8-2-4_00000171689113478958432970000013033687242561815168_" class="st3" d="M244.2,506.9
			c4.2-0.6,7.5-0.3,10.1,0.7c4.6,1.8,7.6,5.5,9.4,10.2c1.2,3.3,1.8,7,1.9,10.9l2-8l-1.1-10.7l-7.3-12.3l-10.5-5l-13,2.3
			c0,0,5.7,3.9,7.3,6.8C244.1,503.8,244.2,506.9,244.2,506.9L244.2,506.9z"/>
		<path id="path12616-5-7-6-7-1_00000085239004018421576430000001982238753567967166_" class="st3" d="M165.6,535.6l0.2,9v2.7
			c0,0,5.8-4.7,7.8-7.8c6-9.7,1.2-12.1,0.7-20.1c-0.1-1.9,1.5-4,3.3-4.7c2.8-1.1,6.3,0.1,8.8,1.8c3,2.1,3.8,4.7,5.2,8.1
			c2.2,5.3,3.3,16.4,3.3,16.4l1.8-7.6l-0.6-9.4l-1.4-9.2l-9.6-9.2l-13.9-0.4l-6.7,7.4L165.6,535.6L165.6,535.6z"/>
		<path id="path13572-7-0-58-91-6-7-13_00000041994248561012779840000000249522915644133306_" class="st5" d="M269.9,666.9
			c42.7-2.9,69.9-29.6,57.8-72.5c-4.8-17.1,5.7,6.9,4.1-13.4c-2.4,1.6-20.4,11.3-27.1,14.7c-11.2,5.5-16.3-8.7-23.9-7.4
			c-7.3,1.2-14.6,1-20-3.6c-4.7-4-10.5-19.9-0.1-24c7.1-2.8,12-6.3,14.8-11.1c2.7-4.7,3.4-10.5,2.3-17.9c-2.7-0.7-5.2-0.6-7.6,0
			c-2.4,0.7-4.7,2-6.9,3.8c5.2-11.6,5.9-20.8,3-28.1c-4.2-10.3-15.6-16.7-31.9-20.9c5.7,8.8,9.1,14.7,9.8,20.2
			c0.6,4.4-1.6,7.7-5.5,12.2c-2.8,3.1-3.4,6.2-3.6,9.5c-1-2.8-2.7-6.2-5.8-6.8c0,0-6.5,6-8.1,11.1c-2.2,6.6-2.7,13-1.6,19.8
			c1,6.3,4.5,14.9,8.2,19.9c0.8,1.1,6.2,7.5,8.2,11.2c1.2,2.2,0.7,4.1-3.1,2.8c-8.1-2.9-12.7-8.2-15.2-13.7
			c-4.1-8.6-3-15.6-3.9-22.9c-0.3-2.8-2.4-7-4.4-9.4s-3.9-3.1-3.9-3.1c-3.3,1.5-5.5,3.5-7,6.2c-1.4,2.5-2.3,5.5-3.1,9.4
			c-0.7-2.8-1.5-6.4-0.6-10.1c2.9-11.9,3.8-25-1.8-32.1c-8.7-10.9-22.6-14.5-42.6,1.7c8.2,1.4,11.2,3.3,13.5,6.9
			c4.4,7.1,1.9,18.5,2.3,29.1c0.1,3.4,0.7,6.8,2.1,10.1c-2-2-3.7-3.2-6.2-3.8c-2.3-0.6-5-0.9-8,0.2c-0.7,2.4-0.9,4.9-0.8,7.3
			c0.2,3.5,1.1,6.7,2.5,9.1c2.4,4.3,6.8,5.8,10.9,7.5c-4.4,1.1-5.7,4.7-8.7,4.9c0-0.2,0.7,5.2,7.3,10.5c8.2,6.5,18.8,1.4,28,2.1
			c6.1,0.5,10.4,5.6,18.1,8.1c4.7,1.5,10.9,3.1,15.1,2c12.1-3,8.3,2.8,0.6,5.6c-9.1,3.3-16.8-3.1-25.5-4.1
			c-6.5-0.8-11.3,4.5-11.3,4.5c1,2.6,2.8,4.7,6.2,6.1c-2.6-0.8-5.2-0.9-7.9-0.5s-1.6,0.7-8.7,1.9c-2.2,0.4-5.2-0.2-7.7-1.4
			c0.2,2.2,1.2,5.3,3.2,8.5c2.3,3.7,6,7.5,11,9.8c3.6,1.7,8.8,2.5,13.4,1.9c-2.2,1.5-3.9,3.1-5.5,5.1c-0.7,0.9-1.3,1.9-2,2.9
			c0,0,7.7,4.8,13.6,4.9c4.3,0.1,10.3-1.6,15.9-3.8c6.3-2.4,14-5.2,20.4-6.7c8-1.9,29.6-3.7,29.4-1.5c-0.1,0.8,0.1,1.1-0.4,1.8
			c-4.2,5.4-15.4,8.9-22.4,8.9h-13.6c0,0,6.3,9.3,12.2,11.8C251.9,664.1,264.3,666.9,269.9,666.9L269.9,666.9z"/>
	</g>
	
		<g id="g12536-7-3-4-4-8_00000122688313413817283650000012927600026542082224_" transform="matrix(0.74211426,-0.39252694,0.39252694,0.74211426,262.65517,104.78766)">
		<g id="g12291-3-4-0-2-7_00000051342986558412634030000006653899006665823934_" transform="translate(-0.22431737,0)">
			<path id="path13624-5-0-3-5-4_00000049913160021531554980000012838277605382615952_" class="st6" d="M255.7,490.3
				c9,9.4,15.2,19.8,11.9,32.8c0,0-0.2-7.5-1.9-11.2c-1.8-3.9-5.1-8.4-8.9-10.5c-3.4-1.9-7.9-3.2-11.2-1.2
				c-5.3,3.2-10.6,6.6-16.4,8.4c-4.8,1.5-9.9,1.9-15.6,0.2c-2.1-0.6-4.3-1.6-6.5-2.8c0.3-2.4,1.4-4.5,3-6.5c1.8-2.2,4.2-4.2,6.7-6.1
				c-5.8,0.1-10.7-1.3-14.4-3.9c-6-4-9.2-11-8.9-19.9c3,1.3,5.6,1.8,7.9,1.9c4.9,0.1,8.7-1.7,13.3-1.6c3.2,0,6.7,0.8,11.4,3
				c-2.9-3.6-2.5-6.4-2.3-10c8.2,0.1,14.8,1.5,19.9,4.7C250.7,471.9,254.7,479.2,255.7,490.3L255.7,490.3z"/>
			<path id="path13624-7-5-9-5-4-3_00000011723534791979304910000011735879058682276789_" class="st7" d="M255.7,490.3
				c9,9.4,15.2,19.8,11.9,32.8c0,0-0.2-7.5-1.9-11.2c-1.8-3.9-5.1-8.4-8.9-10.5c-3.4-1.8-7.9-3.2-11.2-1.2
				c-5.3,3.2-10.6,6.6-16.4,8.4c-4.8,1.5-9.9,1.9-15.6,0.2c-2.1-0.6-4.3-1.6-6.5-2.8c0.3-2.4,1.4-4.5,3-6.5c1.8-2.2,4.2-4.2,6.7-6.1
				c-5.8,0.1-10.7-1.3-14.4-3.9c-6-4-9.2-11-8.9-19.9c3,1.3,5.6,1.8,7.9,1.9c4.9,0.1,8.7-1.7,13.3-1.6c3.2,0,6.7,0.8,11.4,3
				c-2.9-3.6-2.5-6.4-2.3-10c8.2,0.1,14.8,1.5,19.9,4.7C250.7,471.9,254.7,479.2,255.7,490.3L255.7,490.3z"/>
			<path id="path13624-7-9-4-7-7-9-27_00000068665611432623941430000017041032824721053577_" class="st3" d="M255.7,490.3
				c9,9.4,15.2,19.8,11.9,32.8c1.3-13-7-26.5-18.5-26.4c-10.1,0.1-15.6,8.6-26.8,10.5c-3.7,0.6-12.9-2-12.9-2s2-3.5,3.3-5
				c2.8-3.2,9.6-8.3,9.6-8.3c-14.8-0.7-24.2-4.2-26.2-18.8c3.3,0.4,4.9,1.8,7.3,1.7c3.8-0.1,7-1.8,10.5-2.1c4.5-0.4,9.5,0.9,16.7,4
				c0,0-3.9-4.8-4.6-7.7c-0.3-1.2,0.2-3.8,0.2-3.8s11.1,1.1,15.7,3.6c3.5,1.9,5.7,4.4,7.9,7.7C252.7,480.7,255.7,490.3,255.7,490.3
				L255.7,490.3z"/>
			<path id="path13624-7-3-3-3-7-0-7_00000108293515623933109870000004953921358893131177_" class="st8" d="M255.7,490.3
				c7.9,8.3,13.6,17.3,12.7,28.3c-3.8-19.9-11.9-24.3-21.3-23.4c-5.7,0.6-15.2,6.9-21.2,9.1s-8.5,0.5-13.6,0
				c3.2-3.7,5.6-7.1,13.9-12.9c-9.7-3.9-22,0.8-28-15.9c2.6,0,5,1,7.5,0.9c3.2-0.1,6.5-1.3,10.5-1c4.7,0.4,9.9,1.3,17.3,3.3
				c-2.5-4-4.8-7.9-5.7-11.9C245,468.9,248.1,476.4,255.7,490.3L255.7,490.3z"/>
			<path id="path12273-6-4-3-7-9_00000039115041161468314440000006820119339041226415_" class="st4" d="M201.1,477.8
				c7.4,5.9,16.7,6,26.4,6.2c9.7,0.2,19.6,0.5,28.3,6.5l-0.2-2c-10.6-5.7-18.6-5.6-27.6-5.6C212.3,482.8,206.1,480.5,201.1,477.8z"
				/>
			<path id="path12279-9-45-3-9-19_00000071540542131534533010000014764370246363341450_" class="st4" d="M229.6,468.9
				c6.7,4.5,15,12,21.3,18.3l3,0.9C246.7,481.1,238.5,473.8,229.6,468.9L229.6,468.9z"/>
			<path id="path12285-5-6-4-6-86_00000027565726665538407100000018098671900551483527_" class="st4" d="M246.1,486
				c-1.8,0.1-3.6,0.8-5.2,1.4c-3,1.3-5.1,3.9-7.7,6.1c-5.1,4.5-10.4,9.6-18.3,9.6c6.4,1.3,12.6-3.2,17.7-7.6c2.5-2.2,6-5.8,9-7.1
				s7.7-1.1,11.9,0l-4.7-1.9C246.6,485.9,247.9,485.8,246.1,486L246.1,486z"/>
		</g>
		<g id="g12384-4-8-6-7-5_00000106118196202596464310000009539869352679835284_">
			<path id="path13626-9-9-4-1-0_00000088835816427238886990000000112157951769491844_" class="st6" d="M196.2,534.7
				c11-45.7-58.9-59.5-65.7-11.1c3.2,0.3,6.1,0.5,10-2.4c0,0-4,5.7-4.7,8.5c-0.8,2.9-0.3,6.1-1.2,9c-0.8,2.8-3.6,6.2-3.6,6.2
				s11.9,1.2,16.8-0.9c4.3-1.8,8.8-9,8.8-9c2.1,2.2,1.3,3.2,7.4,7.1c0,0,5.8-3.2,7.1-7.1c0.7-2.3,0.9-5.3,0.2-7.6
				c-0.8-2.7-2.6-5.8-3.1-8.5c-0.5-2.7-0.1-6,1.7-8.1c2-2.3,5.7-3.1,8.8-3.1c3.2,0,6.6,1.2,9,3.3c2.3,2,4.8,5.9,5.9,8.8
				C195.6,524.8,196.2,534.7,196.2,534.7L196.2,534.7z"/>
			<path id="path13626-8-5-7-5-0-2_00000166634240579087061660000007435438166565634732_" class="st7" d="M196.2,534.7
				c11-45.7-58.9-59.5-65.7-11.1c3.2,0.3,6.1,0.5,10-2.4c0,0-4,5.7-4.7,8.5c-0.8,2.9-0.3,6.1-1.2,9c-0.8,2.8-3.6,6.2-3.6,6.2
				s11.9,1.2,16.8-0.9c4.3-1.8,8.8-9,8.8-9c2.1,2.2,1.3,3.2,7.4,7.1c0,0,5.8-3.2,7.1-7.1c0.7-2.3,0.9-5.3,0.2-7.6
				c-0.8-2.7-2.6-5.8-3.1-8.5c-0.5-2.7-0.1-6,1.7-8.1c2-2.3,5.7-3.1,8.8-3.1c3.2,0,6.6,1.2,9,3.3c2.3,2,4.8,5.9,5.9,8.8
				C195.6,524.8,196.2,534.7,196.2,534.7z"/>
			<path id="path13626-8-0-1-8-2-5-2_00000062154199149445005100000010442170482432284831_" class="st3" d="M196.2,534.7
				c6.6-27.3-15.8-43.3-36.3-41.3c-11,3.1-20.2,7.2-27.1,27.2c1.8,1.2,5.8,0.2,11.8-3.3c-2.5,3.8-4.7,8.5-5.8,12.1
				c-1,3.2-1.4,6.2-1.4,8.6c0,2.4-1.4,3.9-3.2,5.6c14.2,0.2,19.4-5.2,22.2-13.4c0,0,1.9,3.3,3.2,5.1c1.3,1.6,4.6,3.9,4.6,3.9
				s4.9-3.3,4.9-7.3c0-4.2-3.5-9.9-3.9-14.1c-0.3-3.3,0-7.2,2.2-9.6c2.3-2.6,4.2-3.3,7.7-3.5s7.4,0.6,10.4,2.4
				c3.2,1.9,6.5,5.1,8.2,8.4c1.6,3,2.3,6.4,2.7,9.8C196.8,528.4,196.2,534.7,196.2,534.7L196.2,534.7z"/>
			<path id="path13626-8-2-7-9-5-8-86_00000028284064780590336190000000432097709456218515_" class="st2" d="M197.3,525.2
				c0-19.5-16.1-31.2-32.5-31.9c-17.3,4.4-24.5,14.1-29.6,25.8c0,0,2.8-0.5,4.1-1c3.1-1,9-3.7,9-3.7s-5.3,11-6.9,15.9
				c-1,3.2-0.1,5.1-1.4,8.2c-0.5,1.3-2.2,3.7-2.2,3.7s5.2-1.4,7.1-2.4c2.5-1.3,3.7-2.6,5.5-4.7c2.2-2.6,5.9-8.8,5.9-8.8
				c1.1,4,3.6,6.9,7.9,10.4c0,0,2.4-3.5,2.4-5.9s-1.9-4.5-2.6-6.9c-1.1-4.1-2.3-8.4-1.6-12.6c0.5-2.9,1.9-6,4.3-7.7
				c3.3-2.3,7.4-2.7,11.4-2.2c4.2,0.6,9.4,2.5,11.6,6.1c0,0,4.4,5.9,5.9,9.6C196.6,519.8,197.3,525.2,197.3,525.2L197.3,525.2z"/>
			<path id="path12366-5-9-1-8-0_00000112621552124621143140000001261986911898982538_" class="st4" d="M174.1,496.4
				c-9.7,0.1-15.6,4.3-19.4,10.3c-3.8,6-5.6,14.5-7.7,23.2c-0.4,1.7-1.3,4.1-2.7,6s-3.1,4.2-3.1,4.2c1.1-0.4,2.9-2.1,3.5-2.8
				c1.5-1.9,3.4-5,3.8-6.9c2.1-8.7,3.6-17.2,7.4-23.1c3.8-5.9,9.9-9.2,19.5-9.3c4.2,0,8.8,2.6,12.6,4.6l-2.4-2.1
				C181.7,498.5,178.4,496.4,174.1,496.4L174.1,496.4z"/>
			<path id="path12372-41-0-1-2-4_00000045616518228643419150000004531670344504646537_" class="st4" d="M162.9,499.3
				c-6.6,11.8-9,23,0.5,34.9c-2.7-5.4-4.4-11-4.6-15.8c-0.2-4.8,1.6-10.8,3.9-15.6c0.9-1.9,2.4-2.7,3.1-4.5L162.9,499.3z"/>
			<path id="path12378-8-8-5-1-8_00000039113940630654641470000017559699206762250677_" class="st4" d="M151.3,502.1
				c-4.7,3.5-9.1,10-13.2,15c3.7-3.3,8.9-10.1,13.4-13.8c4.6-3.4,10-5.6,17.5-5.3l4.1-1.3C162.8,496.2,155.1,498.6,151.3,502.1
				L151.3,502.1z"/>
		</g>
		<g id="g12527-8-4-4-3-6_00000144301412099503847990000009449231160804395175_" transform="translate(1.0636373,-3.7819486)">
			<path id="path13628-3-5-8-4-5_00000153678365292520197530000001326578573686834576_" class="st6" d="M214.7,639
				c-0.4,2.6-0.3,5.1,0.1,7.4c2.6,14.3,21.1,22.2,38.2,23.9c9.9,1,17.9-0.1,25.5-3.1c-10.5-1-16.5-2.9-18.8-6.4
				c-2.4-3.6-2.1-7.2-1-10.4c1-3.2,2.7-6.1,3.1-8.5c0.6-3.5-1-7.2-5.2-10.9c-5,0.1-8.1,2.9-10.2,7.4c0.8-3.9,0.5-6.8-0.3-9
				c-2.3-6.3-9.1-8.1-9.9-15.6c-10.5,6.9-15.3,15.1-10.4,28.8C222.6,639,219.1,638.6,214.7,639L214.7,639z"/>
			<path id="path13628-4-6-6-5-9-06_00000103986022201784222620000001701813033507299765_" class="st7" d="M214.7,639
				c-0.4,2.6-0.3,5.1,0.1,7.4c2.6,14.3,21.1,22.2,38.2,23.9c9.9,1,17.9-0.1,25.5-3.1c-10.5-1-16.5-2.9-18.8-6.4
				c-2.4-3.6-2.1-7.2-1-10.4c1-3.2,2.7-6.1,3.1-8.5c0.6-3.5-1-7.2-5.2-10.9c-5,0.1-8.1,2.9-10.2,7.4c0.8-3.9,0.5-6.8-0.3-9
				c-2.3-6.3-9.1-8.1-9.9-15.6c-10.5,6.9-15.3,15.1-10.4,28.8C222.6,639,219.1,638.6,214.7,639L214.7,639z"/>
			<path id="path13628-4-3-5-6-1-7-0_00000118355873034574330600000004096070518752229289_" class="st3" d="M224.6,660.6
				c7.5,5.4,18.2,8.6,28.4,9.6c9.9,1,17.9-0.1,25.5-3.1c-14.4,1.8-20.7-1.5-23-7.2c-2.2-5.5,4.1-13.1,3.5-20.5
				c-0.2-2.5-1.1-4.9-3.4-7.2c-1.4,0.4-2.7,1.2-3.8,2.2c-2.4,2.1-5,5.8-7.2,8.1c0,0,0.3-7.9-1.2-11.6c-1.1-2.6-4.3-5.5-6.2-8.5
				s-2.2-5.3-2.2-5.3s-7,6.1-8.2,10.6c-1.4,5.6,1.3,18.1,1.3,18.1c-3.9-1.2-7.8-5-11.7-4.5C216,647.7,220,654.2,224.6,660.6
				L224.6,660.6z"/>
			<path id="path13628-4-9-2-9-3-0-9_00000122689526079770888960000007946098084317393814_" class="st2" d="M228.2,662.9
				c7.1,4,16.1,6.5,24.7,7.3c6.4,0.6,12,0.4,17.3-0.7c0,0-7.2-0.1-10.5-1.4c-2.5-1-4.9-2.8-6.3-5.1c-1.2-2.1-1.6-4.7-1.4-7.1
				c0.3-4.6,4-7.9,4.5-12.6c0.3-3.1-1.2-8.7-1.2-8.7c-4.9,2-8.6,8.4-12.3,14.7c0,0,0.1-12.5-1.8-17c-1.4-3.2-3.9-4.2-5.5-7.4
				c-0.7-1.3-1.8-4.8-1.8-4.8s-3.9,5.6-4.6,8.9c-1.5,6.8,1.4,20.4,1.4,20.4s-5.7-3.8-8.9-5.1c-1-0.4-3.1-0.8-3.1-0.8
				C218.4,648.2,223.4,655.6,228.2,662.9z"/>
			<path id="path12509-2-3-0-0-0_00000121240133592578151900000005432076095889252484_" class="st4" d="M235.3,652.1
				c2.7,7.4,8.8,14,17.5,18.2l4.5,0.4c-10.7-3.6-18.2-11-20.8-18.3s-3.3-15.6-2.6-24.3C231.4,636,234.2,649.1,235.3,652.1z"/>
			<path id="path12515-6-2-6-2-1_00000049202274298993387840000013646751012644631736_" class="st4" d="M253.7,638.3
				c-1,5.9-3.3,9.3-5.4,12.8c-2.1,3.5-3.8,7.2-3.4,13.6l1.5,0.8c-0.4-6.3,1-10.9,3-14.4C253.1,645,254,641.1,253.7,638.3z"/>
			<path id="path12521-78-00-5-7-3_00000170985321714614184590000013509536914289101247_" class="st4" d="M220.5,647.2
				c7.4,10.4,13.2,12.3,21.5,15.2l-1.3-1.6C229.8,657.2,226.1,652.7,220.5,647.2z"/>
		</g>
	</g>
	
		<g id="g12200-8-4-5-4-8_00000157306750670620633050000002775897887419383736_" transform="matrix(0.83275107,-0.10647414,0.10647414,0.83275109,190.37022,1.7164878)">
		<path id="path13572-8-2-5-1-9_00000085215948836650626160000003452971736112559291_" class="st6" d="M521.3,555
			c-3.6,9.4-2.8,19.5,1.5,23.7c5,5,12.7,4.9,20,3.6c7.6-1.3,15.2-6.2,25-13.9c7-5.4,15.6-6.8,23.7-14.1c-0.1,5.8-1.6,11.3-4.7,23.6
			c-3,12.1-8.9,27.9-19.2,39.1c-4.6,5.1-9.2,7.7-16.6,7.2c-1.1-1.3-0.4-4-0.3-5.1c0.2-1.4,0.3-2.4,1.2-3.7c-4.5,2.7-5,5.9-10.1,7.8
			c-3.2,1.2-10.1,2-14.8,1.3c-1.3-2.4-1.3-4.6-0.6-6.5c0.9-2.6,3.1-4.9,5-7.3c-1.9,0.3-3.7,0.5-5.6,0.3c-1.7-0.2-3.4-0.7-5.1-1.5
			c0.5-3.7,1.7-6.5,3.5-8.8c2-2.7,3.7-3.8,6.6-5.5c0,0-5.4-0.1-7.8-1.2c-8.1-3.7-17.1-11.7-17.5-18.1c-0.3-5.9,1.3-11.5,4.8-15.2
			C511.3,559.6,520,555.6,521.3,555L521.3,555z"/>
		<path id="path13572-3-3-78-6-4-3_00000013178621776021936740000017849099201731884695_" class="st7" d="M522,553.7
			c-3.6,9.4-3.5,20.7,0.8,25c5,5,12.7,4.9,20,3.6c7.6-1.3,15.2-6.2,25-13.9c7-5.4,18.3-7.7,26.4-15.1c-0.1,5.8-4.3,12.3-7.4,24.6
			c-3,12.1-8.9,27.9-19.2,39.1c-4.6,5.1-9.2,7.7-16.6,7.2c-1.1-1.3-0.4-4-0.3-5.1c0.2-1.4,0.3-2.4,1.2-3.7c-4.5,2.7-5,5.9-10.1,7.8
			c-3.2,1.2-10.1,2-14.8,1.3c-1.3-2.4-1.3-4.6-0.6-6.5c0.9-2.6,3.1-4.9,5-7.3c-1.9,0.3-3.7,0.5-5.6,0.3c-1.7-0.2-3.4-0.7-5.1-1.5
			c0.5-3.7,1.7-6.5,3.5-8.8c2-2.7,3.7-3.8,6.6-5.5c0,0-5.3-0.4-7.8-1.2c-7.7-2.3-15.4-9.7-16.9-16c-1.6-6.7,0.8-16.5,8.5-20.2
			C518.1,556.1,521.5,554.7,522,553.7L522,553.7z"/>
		<path id="path11422-8-9-0-8-4_00000151507801367956058950000001216009638208193425_" class="st3" d="M577.6,562.7
			c-5.9,7.2-19.1,18.8-31.6,21.6c-9.1,2-18.6,2-24.9-3.8c-3.4-3.1-5.6-12.5-3.9-20.6c-15,15.2-3.4,27.2,5.2,31.7
			c4,2.1,9.2,2.3,14.2,1.9c-5.9,4.3-11.6,8-13.6,14.7c4.5,1.5,8.2,1,12.7,0.6c-2.9,4.6-7.1,8-7.7,14.4c0,0,8.2-0.3,12-1.6
			c2.7-0.9,6.4-4.7,9.3-6.6c2.7-1.8,4.8-1.8,4.8-1.8c-0.7,3.1-1.6,6.2-1.3,9.3c5.1-0.6,8.8-2.5,11.6-5.3
			C575.7,605.6,571,578.8,577.6,562.7L577.6,562.7z"/>
		<path id="path11424-1-0-8-0-4_00000142160097840935909740000002291305877409115801_" class="st2" d="M514.5,565.9
			c0.4,11.1,5.9,17.7,11,19.8c7.1,2.9,14.3,2.8,21.2,1.1c13.3-3.4,25.6-14.7,32.9-20.3c-8.2,17.5-6.1,48.9-24.5,52.5l1.5-9.4
			c-8.8,1.3-11.3,6.6-16.9,9.6c-2.5,1.4-5.6,1.6-9.2,1.9c-0.8-1.4,5.1-9.2,8.1-14.2c-4.6,0.9-7.9,0.6-12.4-0.3
			c1.8-3.7,3.3-6.9,14.9-13.9C524.9,592.1,509.1,586.4,514.5,565.9L514.5,565.9z"/>
		<path id="path12198-5-1-9-5-6_00000049927483481316548310000004770484955348625318_" class="st4" d="M537.8,591.2
			c0,0,10.9,0.3,16.1-0.9c3.6-0.9,10.3-4.5,10.3-4.5l11.4-11.6c0,0-6.8,23.6-11.6,33.6c-2.1,4.4-6.7,10.1-6.7,10.1s3.8-6.6,5.8-11.2
			c1.6-3.6,4-8.3,4-8.3s-6.6,5.6-12.9,9.2c-3,1.7-7.9,1.4-11,2.9c-4,2.1-11,9.2-11,9.2s5.8-8,10.1-10.3c2.7-1.5,6.9-1.3,9.6-2.7
			c6.6-3.5,15-12,15-12s-12.6,5.2-19.9,6.8c-2.8,0.6-5.9-0.8-8.7-0.2c-3.2,0.6-8.7,3.8-8.7,3.8s4.8-4,8-4.9c2.8-0.8,6.3,0.3,9.2-0.2
			c7.1-1.5,19.5-9.6,19.5-9.6l4.7-8.5l-7,7.1c0,0-8.2,3-12.5,3.4C546.9,592.8,537.8,591.2,537.8,591.2L537.8,591.2z"/>
	</g>
</g>
<g>
	
		<g id="g12622-0-4-6-6-5_00000167367487886611512230000012701651256190577848_" transform="matrix(0.74211426,-0.39252694,0.39252694,0.74211426,262.65517,104.78766)">
		<path id="path13572-7-3-8-0-1-4_00000007425961604388426500000004840230926340412067_" class="st2" d="M340.9,707.6
			c3.1,4.6,12.4,13.3,17.1,16.3c5.4,3.5,16.6,3.4,16.6,3.4L367,716c-3.9-5.8-7.4-17-5.3-23.5c0.3-0.8,0.6-0.8,1.3-1.4
			c1.7-1.4,12.4,17.5,15.3,25.1c2.3,6.2,4.4,14.1,5.9,20.6c1.4,5.9,3.4,11.8,5.9,15.3c3.4,4.8,11.7,8.5,11.7,8.5
			c0.5-1.2,0.9-2.3,1.3-3.3c0.8-2.5,1.2-4.8,1.1-7.4c2,4.1,5.7,8,9.1,10c4.8,2.8,9.9,3.7,14.3,3.6c3.7-0.1,6.8-1,8.8-2.1
			c-2.4-1.4-4.6-3.6-5.5-5.6c-3.1-6.6-2.2-5.8-3.4-8.3c-1.2-2.5-2.7-4.6-4.9-6.3c3,2.1,5.8,2.4,8.5,1.7c0,0,1.7-6.9-2.6-11.9
			c-5.7-6.6-15.4-9.4-17.7-18.8c-2-7.9,0.7-14.3,5-2.6c1.5,4,6.3,8.3,10.2,11.3c6.4,4.9,13,5.6,16.8,10.4c5.8,7.2,7.5,18.8,17.5,22
			c8.1,2.5,12.9,0.1,12.8,0.2c-1.6-2.6,0.7-5.7-0.9-10c3.7,2.4,7.4,5.2,12.3,4.8c2.7-0.2,5.9-1.3,8.9-3.1c2-1.2,4-2.8,5.6-4.7
			c-0.7-3.1-2.5-5.1-4.3-6.7c-1.9-1.7-3.9-2.4-6.7-3c13.2-3.3,21.4-16.2,34.9-18.5c4.3-0.2,7.6,1.3,13.3,7.3
			c2.1-25.7-8.8-35.1-22.6-36.2c-9-0.7-19.3,7.5-27.5,16.5c-2.6,2.9-6,4.2-8.7,5.2c2.7-2.8,4.7-5.3,6-7.8c1.4-2.8,1.8-5.7,1.2-9.3
			c0,0-1.6-1.2-4.8-1.5c-3.1-0.3-7.8,0.4-10.2,1.7c-6.5,3.5-11.7,8.2-21.1,9.7c-6,1-12.9,0.2-19.9-4.9c-3.3-2.4-2-3.9,0.5-4.2
			c4.2-0.4,12.6,0.4,13.9,0.5c6.3,0.3,15.3-1.7,21.1-4.4c6.3-2.9,11.3-6.9,15.5-12.4c3.2-4.2,4.6-12.9,4.6-12.9
			c-2.2-2.3-6.1-1.8-8.9-1c2.6-2.1,4.8-4.3,5.8-8.4c1.5-5.8,3.1-9.5,7-11.5c5-2.5,11.7-3,22.2-3.2c-12.6-11.1-24.4-16.9-35.2-14.6
			c-7.7,1.6-14.9,7.4-21.5,18.3c0.3-2.8,0.1-5.4-0.8-7.8c-0.8-2.3-2.2-4.4-4.3-6.3c-6.8,3.2-11.2,7.1-13.5,12
			c-2.4,5-2.5,11-0.9,18.5c2.5,10.9-13.9,15-19.9,13.4c-6.8-1.9-11.1-7.7-14.2-14.5c-3.2-7-21.9-2-23.6-14.3
			c-1-7.5,0.6-22.2,0.6-25.1c-17.8,10.1,4.4-8-8.5,4.1C343.5,642.4,322.7,673.5,340.9,707.6L340.9,707.6z"/>
		<path id="path12618-9-7-7-8-3_00000147178442182682160360000010975455946258333369_" class="st3" d="M384.6,736.9l-8-26.4
			l-9.1-14.3c3.3-2.6,8-3.1,13.3-2.8c3.5,3.5,3.7,6.8,3.6,10.1c0,0,1.9-1.9,3.2-2.2c3.3-0.8,6.8,1.4,10.2,1.3c3,0,9-1.5,9-1.5
			c1.7,17.4-4.6,23-11.9,27.3l6.3,6.3c-3.2,5.7-8.4,8.5-14,10.5L384.6,736.9z"/>
		<path id="path13572-7-0-5-9-8-3-9-1_00000155865008448931898170000007226736991664190116_" class="st4" d="M415.8,709.6l-1.8-5.2
			c0,0,6.4,8.6,10.8,11.4c3.7,2.3,14.1,6.7,14.1,6.7c7.7,2.4,14.5,2.6,22.3,0.8c5-1.2,11.6-6.7,16.6-8.2c6.2-1.8,15.6-0.1,15.6-0.1
			s1.5,5.7,0.6,8.4c-1,3-6.1,7.3-6.1,7.3c2.8,0.5,4.8,1.3,6.7,3c1.8,1.6,3.5,3.6,4.3,6.7c-1.6,1.9-3.5,3.5-5.6,4.7
			c-3,1.8-6.2,2.9-8.9,3.1c-4.9,0.4-8.6-2.3-12.3-4.8c1.6,4.2-0.7,7.4,0.9,10c0.1-0.1-4.7,2.4-12.8-0.2c-10-3.2-11.8-14.7-17.5-22
			c-3.8-4.8-10.5-5.5-16.8-10.4C422.1,717.9,417.3,713.6,415.8,709.6L415.8,709.6z M436.6,701.9c3.8,3.2,7.8,6.4,12.8,6.3
			c4.9-0.1,7.5-1.3,11.5-4.1c4-2.7,6.7-7.7,10.5-10.6c3.5-2.6,13.1-5.6,13.1-5.6s-1.6-1.2-4.8-1.5c-3.1-0.3-7.8,0.4-10.2,1.7
			c-6.5,3.5-11.7,8.2-21.1,9.7c-6,1-12.9,0.2-19.9-4.9C428.4,693,433.1,699,436.6,701.9z M483.2,643.6c0,0-6.1-1-10.4-1.1
			c-3.6-0.1-7.3,0.9-10.3,2.9c-4,2.7-10.8,8.7-10.8,8.7s-0.6-5.7-1-7.5c-1-4-3-9.9-3-9.9s-2.7,2.5-3.6,4.2
			c-1.9,3.3-1.2,8.6-0.7,12.4c0.5,4.5,1.2,9.3,0.8,13.1c-0.8,6-2.9,9.5-6.6,14.4c-2.3,3.1-8.5,8-8.5,8c4.2-0.4,12.6,0.4,13.9,0.5
			c6.3,0.3,15.3-1.7,21.1-4.4c6.3-2.9,11.3-6.9,15.5-12.4c3.2-4.2,4.6-12.9,4.6-12.9c-2.2-2.3-6.1-1.8-8.9-1
			c2.6-2.1,4.8-4.3,5.8-8.4C481.6,647.5,482.3,645.4,483.2,643.6L483.2,643.6z M427.6,763.4c-15.2-5.7-31-25.8-16.8-51.2
			c2.4,9.4,12,12.2,17.7,18.8c4.3,5,2.6,11.9,2.6,11.9c-2.7,0.7-5.5,0.3-8.5-1.7c2.1,1.7,3.6,3.8,4.9,6.3c1.2,2.5,0.3,1.7,3.4,8.3
			c1,2,3.1,4.2,5.5,5.6C434.4,762.4,431.3,763.3,427.6,763.4L427.6,763.4z"/>
		<path id="path12620-91-9-6-8-2_00000142154631481160369380000007749611526606688187_" class="st3" d="M361.1,699.5
			c-2,1.7-4.9,1.5-8-0.5c-3.4-2.2-7-6.7-10-13.7c-3.4-7.8-2.5-20.9,2.6-41.6l-14,17.9l-3.5,15l6,8.7l1.2,8.1l4.9,14.9l15.2,10.2
			l8.6-5.9L361.1,699.5L361.1,699.5z"/>
		<path id="path12612-72-8-0-0-33_00000130627853022230596930000003376654021954865581_" class="st3" d="M368.9,684c0,0,2.1-4,3-1.5
			c1.9,5.1,15.1,16.4,15.1,16.4s3.4-2.3,4.9-3.7c2-1.8,1.2-12.4,1.2-12.4s0.1,4.4,1,5.4c2,2,0.4-2,0.4-2s7.8,5.5,13.2-2.7
			c0.8-1.1-3.1-12.2-3.1-12.2c2,2.3,6.3,4.3,10.2,5c11.9,2.2,37.7-15.3,18.6-33l-1.5,19.7l-11.1,7.5l-12.8-3.6l-21.6-13.5l-9.3-19.5
			l-12.4,0.2l0.2,0.4l0,0c0,0-8,7.4-9.6,12.4c-1.5,4.9-0.4,11.6,1,16.6c0.9,3.2,4.6,15.6,4.6,15.6L368.9,684z"/>
		<path id="path12614-36-9-8-2-4_00000011019269080345440870000017961490394960727480_" class="st3" d="M487.6,638.8
			c0,0,2.7-1.7,4.8-1.9c3.3-0.3,9.7,2.2,9.7,2.2l-5.4-12l-10-5.8l-14.3,0.9l-9.5,5.1l-5.4,6.2c3.2-2.1,6.7-3.7,10.1-4.6
			c4.9-1.2,9.6-0.8,13.7,2C483.6,632.4,485.8,635,487.6,638.8L487.6,638.8z"/>
		<path id="path12616-5-7-6-7-1_00000030483302037181587400000012287395931194742160_" class="st3" d="M508.2,719.9l19.8-12l2.3-9.7
			l-8.2-11.3l-13-2.8l-8.4,4l-8.1,4.8l-5.2,5.8c0,0,9.7-5.3,15.4-6.5c3.6-0.7,6.2-1.5,9.6-0.2c2.8,1,5.8,3.3,6.5,6.2
			c0.4,1.9-0.4,4.4-2,5.4c-6.9,4.1-11.6,1.5-16.2,11.9c-1.5,3.3-2,10.8-2,10.8l2.2-1.5L508.2,719.9L508.2,719.9z"/>
		<path id="path13572-7-0-58-91-6-7-13_00000091714679451321714300000001014440887834211466_" class="st5" d="M340.9,707.6
			c3.1,4.6,12.4,13.3,17.1,16.3c5.4,3.5,16.6,3.4,16.6,3.4L367,716c-3.9-5.8-7.4-17-5.3-23.5c0.3-0.8,0.6-0.8,1.3-1.4
			c1.7-1.4,12.4,17.5,15.3,25.1c2.3,6.2,4.4,14.1,5.9,20.6c1.4,5.9,3.4,11.8,5.9,15.3c3.4,4.8,11.7,8.5,11.7,8.5
			c0.5-1.2,0.9-2.3,1.3-3.3c0.8-2.5,1.2-4.8,1.1-7.4c2,4.1,5.7,8,9.1,10c4.8,2.8,9.9,3.7,14.3,3.6c3.7-0.1,6.8-1,8.8-2.1
			c-2.4-1.4-4.6-3.6-5.5-5.6c-3.1-6.6-2.2-5.8-3.4-8.3c-1.2-2.5-2.7-4.6-4.9-6.3c3,2.1,5.8,2.4,8.5,1.7c0,0,1.7-6.9-2.6-11.9
			c-5.7-6.6-15.4-9.4-17.7-18.8c-2-7.9,0.7-14.3,5-2.6c1.5,4,6.3,8.3,10.2,11.3c6.4,4.9,13,5.6,16.8,10.4c5.8,7.2,7.5,18.8,17.5,22
			c8.1,2.5,12.9,0.1,12.8,0.2c-1.6-2.6,0.7-5.7-0.9-10c3.7,2.4,7.4,5.2,12.3,4.8c2.7-0.2,5.9-1.3,8.9-3.1c2-1.2,4-2.8,5.6-4.7
			c-0.7-3.1-2.5-5.1-4.3-6.7c-1.9-1.7-3.9-2.4-6.7-3c3.5-0.7,6.7-2.2,9.6-4c9-5.7,17-14.1,25.4-14.5c4.3-0.2,7.6,1.3,13.3,7.3
			c2.1-25.7-8.8-35.1-22.6-36.2c-9-0.7-19.3,7.5-27.5,16.5c-2.6,2.9-6,4.2-8.7,5.2c2.7-2.8,4.7-5.3,6-7.8c1.4-2.8,1.8-5.7,1.2-9.3
			c0,0-1.6-1.2-4.8-1.5c-3.1-0.3-7.8,0.4-10.2,1.7c-6.5,3.5-11.7,8.2-21.1,9.7c-6,1-12.9,0.2-19.9-4.9c-3.3-2.4-2-3.9,0.5-4.2
			c4.2-0.4,12.6,0.4,13.9,0.5c6.3,0.3,15.3-1.7,21.1-4.4c6.3-2.9,11.3-6.9,15.5-12.4c3.2-4.2,4.6-12.9,4.6-12.9
			c-2.2-2.3-6.1-1.8-8.9-1c2.6-2.1,4.8-4.3,5.8-8.4c1.5-5.8,3.1-9.5,7-11.5c5-2.5,11.7-3,22.2-3.2c-12.6-11.1-24.4-16.9-35.2-14.6
			c-7.7,1.6-14.9,7.4-21.5,18.3c0.3-2.8,0.1-5.4-0.8-7.8c-0.8-2.3-2.2-4.4-4.3-6.3c-6.8,3.2-11.2,7.1-13.5,12
			c-2.4,5-2.5,11-0.9,18.5c2.5,10.9-13.9,15-19.9,13.4c-6.8-1.9-11.1-7.7-14.2-14.5c-3.2-7-17.8-3.2-19.6-15.6
			c-1-7.5-3.1-27.7-3.1-30.7c-17.8,10.1,8,5.3-8.8,10.9C326,633.2,319.3,670.7,340.9,707.6L340.9,707.6z"/>
	</g>
	
		<g id="g12536-7-3-4-4-8_00000062166669310329273050000001291629612335976586_" transform="matrix(0.74211426,-0.39252694,0.39252694,0.74211426,262.65517,104.78766)">
		<g id="g12291-3-4-0-2-7_00000092440404804969533620000011151794449062897027_" transform="translate(-0.22431737,0)">
			<path id="path13624-5-0-3-5-4_00000111176222238660801040000010608821785218760083_" class="st6" d="M495.2,620.1
				c9.8-5.4,18-6.2,25.3-3c5.4,2.4,10.3,7.1,15,13.8c-2.8,2.2-5,4.1-9.6,3.7c4.4,2.6,7.1,5.1,8.9,7.7c2.6,3.7,3.3,7.9,6.1,11.9
				c1.4,1.9,3.2,3.8,6,5.5c-7.2,5.3-14.8,6.5-21.4,3.9c-4.2-1.7-8.1-4.9-11.3-9.8c-0.2,3.2-0.5,6.3-1.3,9c-0.7,2.5-1.8,4.6-3.6,6.2
				c-2.3-1.1-4.3-2.4-6-3.8c-4.6-3.7-7.1-8.1-8.6-13c-1.7-5.8-2-12.1-2.3-18.3c-0.2-3.9-3.8-6.8-7.3-8.6c-3.8-2-9.4-2.2-13.6-1.4
				c-4,0.7-10.3,4.8-10.3,4.8C470.4,618.7,482.4,618,495.2,620.1L495.2,620.1z"/>
			<path id="path13624-7-5-9-5-4-3_00000021806752253415687390000005633400967000710791_" class="st7" d="M495.2,620.1
				c9.8-5.4,18-6.2,25.3-3c5.4,2.4,10.3,7.1,15,13.8c-2.8,2.2-5,4.1-9.6,3.7c4.4,2.6,7.1,5.1,8.9,7.7c2.6,3.7,3.3,7.9,6.1,11.9
				c1.4,1.9,3.2,3.8,6,5.5c-7.2,5.3-14.8,6.5-21.4,3.9c-4.2-1.7-8.1-4.9-11.3-9.8c-0.2,3.2-0.5,6.3-1.3,9c-0.7,2.5-1.8,4.6-3.6,6.2
				c-2.3-1.1-4.3-2.4-6-3.8c-4.6-3.7-7.1-8.1-8.6-13c-1.7-5.8-2-12.1-2.3-18.3c-0.2-3.9-3.8-6.8-7.3-8.6c-3.8-2-9.4-2.2-13.6-1.4
				c-4,0.7-10.3,4.8-10.3,4.8C470.4,618.7,482.4,618,495.2,620.1L495.2,620.1z"/>
			<path id="path13624-7-9-4-7-7-9-27_00000090255293386140224160000007324169273918918801_" class="st3" d="M495.2,620.1
				c0,0,9.7-2.9,14.7-2.9c4,0,7.3,0.4,10.9,2.2c4.6,2.4,11.8,10.9,11.8,10.9s-1.8,1.9-3,2.3c-2.8,1.1-8.9,0.5-8.9,0.5
				c6.6,4.2,10.4,7.6,12.7,11.5c1.7,3,2.1,6.7,4.1,9.9c1.3,2.1,3.4,2.5,5.5,5.1c-13.2,6.6-21.4,0.8-30.3-11c0,0-0.4,8.5-1.4,12.6
				c-0.5,1.9-2.3,5.6-2.3,5.6s-7.4-6.2-8.9-9.5c-4.7-10.3-0.8-19.6-6.4-28c-6.4-9.6-22.2-8.8-32.2-0.5
				C470.4,618.7,482.4,618,495.2,620.1L495.2,620.1z"/>
			<path id="path13624-7-3-3-3-7-0-7_00000029004303182439540030000007747581560978670475_" class="st8" d="M495.2,620.1
				c15.8-1.5,23.8-3.2,35.2,10c-3.8,1.4-8.4,1.8-13.1,1.9c5.7,5,9.4,8.8,12.4,12.4c2.5,3.1,3.4,6.5,5.1,9.2c1.3,2.1,3.6,3.5,5,5.7
				c-17.1,4.4-20.2-8.3-28.8-14.2c-0.1,10.1-1.6,14-2.8,18.7c-3.3-4-6.1-5-7.7-11.2c-1.5-6.3-1.7-17.7-4.4-22.7
				c-4.5-8.3-12.7-12.5-31.3-4.5C473.3,618.6,484,618.3,495.2,620.1L495.2,620.1z"/>
			<path id="path12273-6-4-3-7-9_00000101087575040946137400000008861352335361374891_" class="st4" d="M517,638.9
				c-5.1-7.4-9.5-14.1-20.2-19.6l-1.8,1c9.8,3.8,15.7,11.9,21.3,19.7s11,15.5,20,18.3C531.3,655.7,525.9,651.8,517,638.9z"/>
			<path id="path12279-9-45-3-9-19_00000147919383037595076770000010869134901355501497_" class="st4" d="M527.6,629.6
				c-9.1-4.6-19.7-7.3-29.5-9.2l2.4,1.9C509.3,624,520.1,626.6,527.6,629.6L527.6,629.6z"/>
			<path id="path12285-5-6-4-6-86_00000163751097980457305890000010607015933426829239_" class="st4" d="M504.3,625.6
				c-0.9-1.6-0.2-0.5-1.9-2l-4.3-2.8c3.2,2.9,6,6.7,6.7,9.8c0.6,3.1-0.4,8-0.8,11.4c-0.8,6.8-1,14.4,3.7,19
				c-4.5-6.5-3.2-13.8-2.4-20.5c0.4-3.4,1.4-6.6,0.7-9.8C505.7,629.1,505.2,627.2,504.3,625.6L504.3,625.6z"/>
		</g>
		<g id="g12384-4-8-6-7-5_00000090259082735223924710000017145636763586420650_">
			<path id="path13626-9-9-4-1-0_00000041995677043574838940000012504339558644408497_" class="st6" d="M491.7,694.1
				c0,0,8.6-5.1,13.8-6.3c3-0.7,7.6-0.8,10.6,0c3.1,0.8,6,2.9,7.8,5.6c1.8,2.5,3.2,6,2.4,9c-0.7,2.7-3.2,4.8-5.7,5.9
				c-2.6,1.1-6.1,1.4-8.8,2.3c-2.3,0.7-4.7,2.6-6.1,4.5c-2.5,3.3-1.9,9.9-1.9,9.9c6.6,2.8,7,1.6,10,2.1c0,0-3.4,7.8-2.5,12.3
				c1,5.3,8.7,14.5,8.7,14.5s1.3-4.2,3.1-6.4c1.9-2.3,4.8-3.8,6.8-6.1c1.9-2.3,4.4-8.7,4.4-8.7c-0.2,4.8,1.6,7,3.6,9.6
				C574.1,709.3,523.3,659.3,491.7,694.1L491.7,694.1z"/>
			<path id="path13626-8-5-7-5-0-2_00000150073292438714082340000014218377228145393824_" class="st7" d="M505.6,687.9
				c3-0.7,7.6-0.8,10.6,0c3.1,0.8,6,2.9,7.8,5.6c1.8,2.5,3.2,6,2.4,9c-0.7,2.7-3.2,4.8-5.7,5.9c-2.6,1.1-6.1,1.4-8.8,2.3
				c-2.3,0.7-4.7,2.6-6.1,4.5c-2.5,3.3-1.9,9.9-1.9,9.9c6.6,2.8,7,1.6,10,2.1c0,0-3.4,7.8-2.5,12.3c1,5.3,8.7,14.5,8.7,14.5
				s1.3-4.2,3.1-6.4c1.9-2.3,4.8-3.8,6.8-6.1c1.9-2.3,4.4-8.7,4.4-8.7c-0.2,4.8,1.6,7,3.6,9.6c36.1-32.8-14.6-82.9-46.2-48
				C491.7,694.1,500.3,689,505.6,687.9z"/>
			<path id="path13626-8-0-1-8-2-5-2_00000037655535162306116220000012252738861653756321_" class="st3" d="M491.7,694.1
				c0,0,4.8-4.1,7.6-5.5c3-1.6,6.3-2.9,9.7-3.3c3.7-0.4,8.2,0.4,11.6,2.1c3.1,1.5,6,4.3,7.8,7.3s2.2,5,1.4,8.3
				c-0.8,3.2-3.9,5.6-6.7,7.2c-3.7,2-10.4,2.3-13.9,4.7c-3.3,2.2-3.2,8.1-3.2,8.1s3.8,1.4,5.8,1.6c2.2,0.2,6-0.2,6-0.2
				c-5.2,6.9-6.7,14.2,1.5,25.9c0.4-2.4,0.9-4.4,2.8-5.8c2-1.4,4.2-3.4,6.3-6c2.4-3,5.1-7.4,6.8-11.6c0.5,6.9,1.9,10.8,3.9,11.6
				c12.7-16.9,10.9-26.8,7.3-37.7C536.4,682.8,510.6,673.3,491.7,694.1L491.7,694.1z"/>
			<path id="path13626-8-2-7-9-5-8-86_00000170257488736867985700000012043366880373005221_" class="st2" d="M498.9,687.8
				c0,0,4.8-2.4,7.4-3c3.9-0.9,11.3-0.5,11.3-0.5c4.2-0.3,8.7,3,11.6,6.1c2.7,3,4.7,6.6,4.6,10.6c-0.1,2.9-1.8,5.8-3.9,7.9
				c-3.1,3-7.3,4.4-11.3,5.8c-2.3,0.8-5.1,0.4-7.1,1.8c-2,1.3-3.5,5.3-3.5,5.3c5.3,1.5,9,2,13,0.6c0,0-3,6.6-4,9.8
				c-0.8,2.7-1.1,4.4-0.8,7.2c0.2,2.1,2,7.2,2,7.2s1.1-2.7,1.9-3.9c1.9-2.8,4-3.1,6-5.8c3.2-4.1,9.3-14.6,9.3-14.6s1.1,6.4,2,9.6
				c0.4,1.4,1.5,4,1.5,4c6.7-10.8,10.7-22.2,4.6-39C533.8,683.5,515.1,676.9,498.9,687.8L498.9,687.8z"/>
			<path id="path12366-5-9-1-8-0_00000153670787927910464930000004602789443434683047_" class="st4" d="M535.8,690.9
				c-2.4-3.6-6.1-5.1-9.8-7.1l-3.1-0.8c3.7,2,8.6,4.3,10.9,7.8c5.3,8,6.1,14.9,3.3,21.3c-2.8,6.4-9,12.4-15,19.1
				c-1.3,1.5-2.8,4.8-3.5,7.1c-0.3,0.9-0.7,3.4-0.4,4.5c0,0,1-2.7,1.8-4.9s2.3-4.3,3.5-5.7c6-6.6,12-12.9,14.8-19.4
				S541.2,698.9,535.8,690.9L535.8,690.9z"/>
			<path id="path12372-41-0-1-2-4_00000173131498750622861760000012557479199796880260_" class="st4" d="M538.9,698.8
				c-1.1,1.6-0.9,3.3-1.9,5.1c-2.7,4.6-6.6,9.4-10.7,12c-4.1,2.5-9.6,4.3-15.7,5.1c15.2,1.1,23-7.2,29.1-19.2L538.9,698.8z"/>
			<path id="path12378-8-8-5-1-8_00000065048687046268012590000003624540440359447441_" class="st4" d="M543.9,712.8
				c0.8-5.1-1.6-12.8-7.8-21l1.2,4.1c4.4,6.1,5.7,11.7,5.5,17.5c-0.6,5.8-3.3,13.9-3.9,18.8C540.8,725.9,543.7,718.7,543.9,712.8
				L543.9,712.8z"/>
		</g>
		<g id="g12527-8-4-4-3-6_00000024711379597888785490000016525528737957782147_" transform="translate(1.0636373,-3.7819486)">
			<path id="path13628-3-5-8-4-5_00000170958382007504991510000013127778402365641660_" class="st6" d="M396.5,738.3
				c-2.2-3.8-4.5-6.5-9.1-7.2c14.2-3.7,18.2-12.2,18-24.8c-6.6,3.6-11.9-1-18.4,0.6c-2.3,0.6-4.8,2-7.6,4.8
				c2.6-4.2,3.1-8.4,0.4-12.6c-5.5-1.4-9.4-0.6-12,1.8c-1.8,1.7-3.3,4.7-5.3,7.4c-2.1,2.7-4.8,4.9-9.2,5c-4.1,0.1-9.1-3.9-15.8-12
				c1.8,8,5.4,15.3,11.8,22.9c11,13.1,27.9,24.1,41.2,18.1C392.5,741.4,394.6,740.1,396.5,738.3L396.5,738.3z"/>
			<path id="path13628-4-6-6-5-9-06_00000107584882844214607210000011597984285924776080_" class="st7" d="M396.5,738.3
				c-2.2-3.8-4.5-6.5-9.1-7.2c14.2-3.7,18.2-12.2,18-24.8c-6.6,3.6-11.9-1-18.4,0.6c-2.3,0.6-4.8,2-7.6,4.8
				c2.6-4.2,3.1-8.4,0.4-12.6c-5.5-1.4-9.4-0.6-12,1.8c-1.8,1.7-3.3,4.7-5.3,7.4c-2.1,2.7-4.8,4.9-9.2,5c-4.1,0.1-9.1-3.9-15.8-12
				c1.8,8,5.4,15.3,11.8,22.9c11,13.1,27.9,24.1,41.2,18.1C392.5,741.4,394.6,740.1,396.5,738.3L396.5,738.3z"/>
			<path id="path13628-4-3-5-6-1-7-0_00000181081194244623168720000009092512421966520213_" class="st3" d="M373.1,742.3
				c7.9,0.2,15.5-0.1,20.5-4c-1.8-3.5-7.1-4.6-10.4-7.1c0,0,11.8-4.8,15.6-9.1c3.1-3.5,4.2-12.8,4.2-12.8s-2,1.1-5.6,1.2
				c-3.5,0.1-7.7-0.9-10.5-0.4c-3.9,0.8-10.3,5.5-10.3,5.5c0.7-3.2,2.2-7.4,2.6-10.5c0.2-1.5,0.2-3-0.3-4.4c-3.2-0.6-5.7,0-7.8,1.2
				c-6.4,3.7-9.2,13.1-15,14.4c-6,1.4-12.2-2-18.9-15c1.8,8,5.4,15.3,11.8,22.9C355.7,732.1,364.4,739.1,373.1,742.3L373.1,742.3z"
				/>
			<path id="path13628-4-9-2-9-3-0-9_00000088833213273216201020000011128091390293305008_" class="st2" d="M390.4,737.7
				c0,0-1.5-1.5-2.4-2.1c-2.8-1.9-9.2-4.5-9.2-4.5s12.9-5.3,17.6-10.3c2.3-2.5,4.8-8.8,4.8-8.8s-3.5,1-5,1.2
				c-3.5,0.4-5.7-1.1-9.2-0.4c-4.8,0.9-15.1,8.1-15.1,8.1c3.2-6.6,6.3-13.3,5.3-18.4c0,0-5.5,1.9-7.9,3.9c-3.6,3-4.2,7.9-7.9,10.8
				c-1.9,1.5-4.2,2.7-6.6,2.8c-2.7,0.1-5.5-0.8-7.7-2.4c-2.9-2-7.1-7.9-7.1-7.9c2.1,4.9,5,9.7,9.2,14.7c5.6,6.6,12.6,12.7,20,16.3
				C377.9,740.5,386.8,740.4,390.4,737.7z"/>
			<path id="path12509-2-3-0-0-0_00000111875983069307118290000016243693343628032896_" class="st4" d="M394.9,716.3
				c-6.8,5.5-14.1,9.6-21.6,11.5c-7.5,1.9-17.9-0.1-26.8-6.9l2.8,3.5c8.4,4.8,17.2,6.1,24.9,4.2
				C377.2,727.8,389.7,722.8,394.9,716.3z"/>
			<path id="path12515-6-2-6-2-1_00000101089364365845969190000009333558659969510786_" class="st4" d="M367,716.4
				c-1.8,3.7-4.8,7.4-10.2,10.6l1.5,0.8c5.5-3.3,7.6-6.8,9.3-10.5c1.8-3.7,3.2-7.5,7.6-11.7C372.7,706.9,370,709.9,367,716.4z"/>
			<path id="path12521-78-00-5-7-3_00000179648373850889820770000004477345921214083730_" class="st4" d="M363.8,729.1l-2.1-0.2
				c7.1,5.3,11.9,9,24.7,9.3C378.8,736.6,373,736,363.8,729.1z"/>
		</g>
	</g>
	
		<g id="g12200-8-4-5-4-8_00000170253371521495210000000003986909808160738708_" transform="matrix(0.83275107,-0.10647414,0.10647414,0.83275109,190.37022,1.7164878)">
		<path id="path13572-8-2-5-1-9_00000106869281965663173920000012810624296775798681_" class="st6" d="M699.4,580.5
			c1,1,8.5,7,9.2,8.3c2.4,4.4,2.6,10.3,0.8,15.9c-2,6.2-12.7,11.6-21.5,13.1c-2.6,0.5-7.9-0.9-7.9-0.9c2.3,2.4,3.7,3.9,5,7
			c1.1,2.6,1.6,5.6,1.1,9.4c-1.9,0.4-3.6,0.5-5.3,0.2c-1.9-0.3-3.6-0.9-5.4-1.7c1.3,2.8,2.8,5.6,3,8.4c0.2,2-0.4,4.1-2.3,6.1
			c-4.7-0.5-11.2-3-13.9-5c-4.4-3.1-4.1-6.4-7.8-10.1c0.5,1.5,0.3,2.4,0.2,3.9c-0.1,1.1-0.1,3.8-1.5,4.8c-7.3-1.4-11-5-14.2-11.1
			c-7.1-13.5-8.8-30.3-8.7-42.7c0.1-12.7,0-18.4,1.4-24c6,9.1,14,12.6,19.4,19.6c7.6,9.9,13.7,16.6,20.7,19.7
			c6.8,3,14.1,5.1,20.3,1.5C697.2,600,700.5,590.5,699.4,580.5L699.4,580.5z"/>
		<path id="path13572-3-3-78-6-4-3_00000169553753930445362430000010721431902813240215_" class="st7" d="M699.1,579.1
			c0.2,1.1,3.2,3.3,6.1,5.8c6.5,5.6,6.3,15.7,3.1,21.7c-3,5.7-12.3,11-20.4,11.2c-2.7,0.1-7.9-0.9-7.9-0.9c2.3,2.4,3.7,3.9,5,7
			c1.1,2.6,1.6,5.6,1.1,9.4c-1.9,0.4-3.6,0.5-5.3,0.2c-1.9-0.3-3.6-0.9-5.4-1.7c1.3,2.8,2.8,5.6,3,8.4c0.2,2-0.4,4.1-2.3,6.1
			c-4.7-0.5-11.2-3-13.9-5c-4.4-3.1-4.1-6.4-7.8-10.1c0.5,1.5,0.3,2.4,0.2,3.9c-0.1,1.1-0.1,3.8-1.5,4.8c-7.3-1.4-11-5-14.2-11.1
			c-7.1-13.5-8.8-30.3-8.7-42.7c0.1-12.7-2.4-20-1-25.6c6,9.1,16.4,14.2,21.8,21.2c7.6,9.9,13.7,16.6,20.7,19.7
			c6.8,3,14.1,5.1,20.3,1.5C697.2,600,700.2,589.1,699.1,579.1L699.1,579.1z"/>
		<path id="path11422-8-9-0-8-4_00000137104510793660999020000013647920580683425427_" class="st3" d="M642.9,573.8
			c2.4,17.2-9,42.1-0.7,56.1c2,3.4,5.1,6.1,9.9,8c1-2.9,0.9-6.1,1-9.3c0,0,2,0.5,4.2,3c2.3,2.6,5,7.1,7.3,8.7
			c3.4,2.2,11.2,4.6,11.2,4.6c1-6.3-2.3-10.7-3.9-15.8c4.2,1.5,7.7,3,12.4,2.6c-0.3-7.1-4.8-12-9.5-17.7c4.8,1.6,9.9,2.7,14.3,1.7
			c9.4-2.2,23.7-10.9,13-29.4c-0.4,8.3-4.9,16.7-9,18.9c-7.6,4.1-16.7,1.7-25-2.6C656.7,596.8,646.8,582.3,642.9,573.8L642.9,573.8z
			"/>
		<path id="path11424-1-0-8-0-4_00000121989303396667198890000006602521155162977696_" class="st2" d="M703.2,592.8
			c0,21.2-16.7,22.7-32.5,19.3c9.4,9.7,10.1,13.1,10.9,17.2c-4.6-0.3-7.9-0.9-12.1-2.9c1.6,5.6,5.3,14.6,4.2,15.8
			c-3.3-1.2-6.3-2.2-8.4-4.1c-4.6-4.3-5.7-10-13.9-13.5l-0.9,9.5c-17-8.2-7-38-10.5-57c5.6,7.2,14.7,21.3,26.7,27.9
			c6.2,3.4,13.2,5.3,20.8,4.3C693,608.5,700.1,603.4,703.2,592.8L703.2,592.8z"/>
		<path id="path12198-5-1-9-5-6_00000052827028327854779260000016104734687391222459_" class="st4" d="M674.3,611.5
			c0,0-9.2-0.8-13.5-2.4c-4.1-1.5-11.3-6.4-11.3-6.4l-4.9-8.7l2.4,9.4c0,0,9.9,11,16.4,14.2c2.6,1.3,6.3,1.1,8.8,2.6
			c2.9,1.7,6.5,6.8,6.5,6.8s-4.6-4.5-7.5-5.9c-2.6-1.2-6-0.7-8.5-2c-6.7-3.4-17.5-11.6-17.5-11.6s6,10.3,11.5,15.3
			c2.3,2.1,6.4,2.9,8.6,5.1c3.5,3.3,7.2,12.5,7.2,12.5s-4.9-8.7-8.3-11.7c-2.6-2.3-7.5-3.2-9.9-5.6c-5.1-5.1-10.2-12.2-10.2-12.2
			s1.1,5.2,1.8,9.1c0.8,4.9,2.8,12.3,2.8,12.3s-3-6.7-4-11.4c-2.2-10.8-2.8-35.4-2.8-35.4l8.1,14.1c0,0,5.5,5.2,8.8,6.9
			C663.7,609.1,674.3,611.5,674.3,611.5L674.3,611.5z"/>
	</g>
</g>
<g>
	<path class="st9" d="M988.6,692.8c-4.6-38.2-159-48-198.7-50.6c-13.1-0.8-28.2-2-48.7-1.7c-39.1,0.5-75.5,5.9-131.5,14.5
		c-47.5,7.3-86.2,16.4-89.4,35.3c-1.2,6.9,2.3,15.5,7.8,20.3c10.2,8.7,23.9,1.4,49.9,7.5c7.6,1.8,12.1,3.7,15.7,5
		c39.7,14.1,120.8,2.2,177.2,1.9c45.1-0.3,34.5,7.6,86.4,8.3c31.9,0.4,119.1,1.6,130.2-32.8C988.3,698.4,989,696,988.6,692.8z"/>
	<g>
		<g>
			<defs>
				<path id="SVGID_1_" d="M988.6,692.8c-4.6-38.2-159-48-198.7-50.6c-13.1-0.8-28.2-2-48.7-1.7c-39.1,0.5-75.5,5.9-131.5,14.5
					c-47.5,7.3-86.2,16.4-89.4,35.3c-1.2,6.9,2.3,15.5,7.8,20.3c10.2,8.7,23.9,1.4,49.9,7.5c7.6,1.8,12.1,3.7,15.7,5
					c39.7,14.1,120.8,2.2,177.2,1.9c45.1-0.3,34.5,7.6,86.4,8.3c31.9,0.4,119.1,1.6,130.2-32.8C988.3,698.4,989,696,988.6,692.8z"/>
			</defs>
			<clipPath id="SVGID_00000128481444717254102080000003624745601799387563_">
				<use xlink:href="#SVGID_1_"  style="overflow:visible;"/>
			</clipPath>
			<g style="clip-path:url(#SVGID_00000128481444717254102080000003624745601799387563_);">
				<line class="st11" x1="688.5" y1="638.8" x2="623.6" y2="738.6"/>
				<line class="st11" x1="625.7" y1="639.6" x2="560.7" y2="739.4"/>
				<line class="st11" x1="596.6" y1="649.4" x2="501.1" y2="735.6"/>
				<line class="st11" x1="732.9" y1="617.7" x2="692.3" y2="758.2"/>
				<line class="st11" x1="757.2" y1="621" x2="780" y2="756.3"/>
				<path class="st11" d="M793.5,627.2c-0.7,0.5,61.3,135.6,61.3,135.6"/>
				<path class="st11" d="M829.6,634.5c0.7,2.1,99.7,117,99.7,117"/>
				<line class="st11" x1="865.4" y1="636.4" x2="978.9" y2="730"/>
				<line class="st11" x1="916" y1="652.6" x2="1009.3" y2="725.2"/>
			</g>
		</g>
	</g>
	<g>
		<path class="st12" d="M645,710.8c0.3,0,27,0,27,0l0.2,20.7l-25.6,2.6l9.4-12.8L645,710.8z"/>
		<path class="st12" d="M672.2,710.8v20.7c4.2,4,13.8,8.7,25.7,10.8c2.8,0.5,6.9,1.1,12.1,0.2c10.5-1.8,13.5-8.1,21.4-11.6
			c2.6-1.1,6.8-2.5,31.2,2.2c27.7,5.4,30.9,8.8,40,7.1c6.9-1.3,16.4-5.5,26.5-19l-7.6-17.6c-6.3,10.3-13.7,12.8-16.5,13.6
			c-3,0.8-7.2,1.2-21.3-2.5c-13.9-3.7-15.6-5.6-21.6-6.9c-18.2-4-26,8.3-47.6,9.9C706.6,718.2,686.4,717.2,672.2,710.8"/>
		<g>
			<path d="M678.7,727.5c0.6,0.4,1.1,0.8,1.3,1.1c0.3,0.5,0.3,1,0.2,1.5c-0.2,0.5-0.6,0.9-1.1,1.1c-0.7,0.2-1.6,0.2-2.6-0.2
				l-3.7-1.3l0.1-0.2c0.3,0.1,0.6,0.2,0.7,0.1c0.1,0,0.3-0.1,0.3-0.2c0.1-0.1,0.2-0.3,0.3-0.7l1.7-4.7c0.1-0.4,0.2-0.7,0.2-0.8
				s-0.1-0.2-0.2-0.3c-0.1-0.1-0.3-0.2-0.7-0.3l0.1-0.2l3.5,1.2c0.8,0.3,1.4,0.6,1.7,0.8c0.3,0.3,0.5,0.6,0.6,1s0.1,0.7,0,1
				c-0.1,0.4-0.4,0.6-0.7,0.8C679.9,727.5,679.4,727.5,678.7,727.5z M676.7,727.1l-0.8,2.3l-0.1,0.3c-0.1,0.2-0.1,0.4,0,0.5
				s0.2,0.2,0.4,0.3c0.3,0.1,0.6,0.1,0.9,0.1c0.3,0,0.5-0.2,0.8-0.4c0.2-0.2,0.4-0.4,0.5-0.7s0.1-0.7,0.1-1
				c-0.1-0.3-0.2-0.6-0.5-0.8C677.6,727.4,677.2,727.3,676.7,727.1z M676.8,726.6c0.5,0.2,0.9,0.3,1.2,0.2c0.3,0,0.5-0.1,0.7-0.3
				s0.4-0.4,0.5-0.7s0.1-0.6,0.1-0.9c-0.1-0.3-0.2-0.5-0.4-0.7s-0.6-0.4-1.1-0.6L676.8,726.6z"/>
			<path d="M685.9,731.4l-2.7-0.6l-0.5,0.7c-0.2,0.2-0.3,0.4-0.3,0.6c0,0.2,0,0.4,0.2,0.5c0.1,0.1,0.3,0.2,0.7,0.3v0.2l-2.5-0.6
				v-0.2c0.3,0,0.5,0,0.7-0.2c0.2-0.1,0.5-0.5,0.9-1l4.1-5.4h0.1l1.3,6.8c0.1,0.6,0.3,1.1,0.4,1.3c0.1,0.1,0.3,0.3,0.5,0.3v0.2
				l-3.6-0.8v-0.2h0.1c0.3,0.1,0.5,0.1,0.6,0c0.1,0,0.2-0.1,0.2-0.2c0-0.1,0-0.1,0-0.2c0,0,0-0.2-0.1-0.5L685.9,731.4z M685.8,730.9
				l-0.5-2.9l-1.7,2.3L685.8,730.9z"/>
			<path d="M693.5,727.1l3.1,5.3l0.5-3.3c0.1-0.5,0-0.8-0.1-1c-0.2-0.2-0.4-0.4-0.9-0.4v-0.2l2.5,0.3v0.2c-0.3,0-0.6,0-0.7,0.1
				c-0.1,0.1-0.2,0.1-0.3,0.3c-0.1,0.1-0.1,0.4-0.2,0.8l-0.9,6.4h-0.2l-4.3-7.1l-0.7,4.9c-0.1,0.4,0,0.8,0.2,0.9
				c0.2,0.2,0.4,0.3,0.7,0.3h0.2v0.2l-2.7-0.4v-0.2c0.4,0.1,0.7,0,0.9-0.1s0.3-0.4,0.4-0.8l0.7-5.4l-0.1-0.2
				c-0.1-0.2-0.3-0.4-0.4-0.5c-0.1-0.1-0.3-0.1-0.5-0.2v-0.2L693.5,727.1z"/>
			<path d="M700.8,728.2V728l4.1,0.3v0.2h-0.3c-0.2,0-0.4,0-0.6,0.1c-0.1,0-0.2,0.1-0.2,0.3c0,0.1-0.1,0.3-0.1,0.7l-0.3,3.8
				c-0.1,0.7-0.2,1.3-0.3,1.6c-0.2,0.3-0.5,0.6-0.8,0.8c-0.4,0.2-0.9,0.3-1.4,0.2c-0.6,0-1.2-0.3-1.5-0.6c-0.4-0.4-0.5-0.8-0.5-1.2
				c0-0.3,0.1-0.5,0.3-0.6c0.2-0.2,0.4-0.2,0.6-0.2c0.2,0,0.4,0.1,0.6,0.3c0.1,0.2,0.2,0.3,0.2,0.6c0,0.1,0,0.2-0.1,0.3
				c0,0-0.1,0.1-0.2,0.3c-0.1,0.1-0.2,0.3-0.2,0.3c0,0.1,0,0.2,0.1,0.3s0.3,0.2,0.6,0.2c0.2,0,0.3,0,0.4-0.1
				c0.1-0.1,0.2-0.2,0.3-0.4s0.1-0.7,0.2-1.5l0.3-4.1c0-0.4,0-0.6,0-0.7c0-0.1-0.1-0.2-0.2-0.3c-0.1-0.1-0.3-0.1-0.5-0.1
				L700.8,728.2z"/>
			<path d="M705.4,728.4h4v0.2h-0.2c-0.3,0-0.5,0-0.6,0.1s-0.2,0.1-0.2,0.3c0,0.1-0.1,0.4-0.1,0.8v3.8c0,0.7,0,1.2,0.2,1.4
				c0.1,0.2,0.3,0.4,0.5,0.6c0.2,0.1,0.5,0.2,0.9,0.2s0.8-0.1,1.1-0.3s0.5-0.4,0.7-0.8c0.1-0.3,0.2-0.9,0.2-1.7v-3.2
				c0-0.3,0-0.6-0.1-0.7s-0.2-0.3-0.3-0.3c-0.2-0.1-0.4-0.1-0.7-0.1v-0.2h2.7v0.2h-0.2c-0.2,0-0.4,0-0.5,0.1s-0.3,0.2-0.3,0.4
				c0,0.1-0.1,0.3-0.1,0.7v2.9c0,0.9-0.1,1.6-0.2,2c-0.1,0.4-0.4,0.8-0.9,1.1s-1.1,0.5-1.9,0.5c-0.7,0-1.2-0.1-1.6-0.3
				c-0.5-0.2-0.8-0.6-1.1-0.9c-0.2-0.4-0.3-0.9-0.3-1.5v-3.8c0-0.4,0-0.7-0.1-0.8c0-0.1-0.1-0.2-0.3-0.3c-0.1-0.1-0.3-0.1-0.7-0.1
				L705.4,728.4z"/>
			<path d="M721.5,732.3l0.1,2.7l-6.8,1v-0.2h0.3c0.2,0,0.4-0.1,0.5-0.2c0.1-0.1,0.2-0.2,0.2-0.3s0-0.3,0-0.7l-0.8-5
				c-0.1-0.4-0.1-0.6-0.2-0.7c-0.1-0.1-0.2-0.2-0.3-0.2c-0.1-0.1-0.3-0.1-0.5,0h-0.3v-0.2l4.1-0.6v0.2l-0.3,0.1
				c-0.2,0-0.4,0.1-0.5,0.2c-0.1,0.1-0.2,0.2-0.2,0.3s0,0.3,0,0.7l0.7,4.9c0.1,0.4,0.1,0.6,0.2,0.7c0.1,0.1,0.2,0.2,0.3,0.2
				s0.3,0,0.7-0.1l0.6-0.1c0.4-0.1,0.7-0.2,1-0.4c0.2-0.2,0.4-0.4,0.6-0.8c0.2-0.3,0.3-0.8,0.4-1.5L721.5,732.3z"/>
			<path d="M728.6,722.5l0.9,2.5l-0.2,0.1c-0.4-0.6-0.9-1-1.4-1.2c-0.6-0.2-1.1-0.2-1.6,0s-0.8,0.4-1.1,0.8
				c-0.3,0.4-0.4,0.8-0.5,1.3c0,0.6,0.1,1.3,0.3,1.9c0.2,0.7,0.5,1.2,0.9,1.7s0.8,0.8,1.2,0.9c0.4,0.1,1,0.1,1.5-0.1
				c0.5-0.2,0.8-0.4,1.2-0.7c0.3-0.3,0.6-0.8,0.8-1.5l0.2,0.6c-0.3,0.6-0.6,1-0.9,1.4c-0.4,0.3-0.9,0.6-1.4,0.8
				c-0.8,0.3-1.5,0.4-2.2,0.3c-0.7-0.1-1.3-0.4-1.9-0.8c-0.5-0.5-0.9-1-1.2-1.7c-0.2-0.7-0.3-1.4-0.2-2.2s0.5-1.4,1-2s1.1-1,1.8-1.2
				c0.5-0.2,1.1-0.3,1.7-0.2c0.4,0,0.6,0,0.7,0c0.1,0,0.2-0.1,0.3-0.2c0.1-0.1,0.1-0.3,0-0.5L728.6,722.5z"/>
			<path d="M736.1,727.7l0.1,0.2l-3.7,1.5l-0.1-0.2l0.2-0.1c0.2-0.1,0.4-0.2,0.5-0.3s0.1-0.2,0.1-0.3s-0.1-0.3-0.2-0.7l-1.9-4.7
				c-0.1-0.4-0.3-0.6-0.3-0.7c-0.1-0.1-0.2-0.1-0.3-0.1s-0.3,0-0.5,0.1l-0.2,0.1l-0.1-0.2l3.7-1.5l0.1,0.2l-0.2,0.1
				c-0.2,0.1-0.4,0.2-0.5,0.3s-0.1,0.2-0.1,0.3s0.1,0.3,0.2,0.7l1.9,4.7c0.1,0.4,0.3,0.6,0.3,0.7c0.1,0.1,0.2,0.1,0.3,0.1
				s0.3,0,0.5-0.1L736.1,727.7z"/>
			<path d="M740.6,719.2l0.7,2l-0.2,0.1c-0.3-0.4-0.5-0.7-0.7-0.8s-0.5-0.2-0.7-0.3c-0.2,0-0.4,0-0.7,0.2l-0.5,0.2l2,5.6
				c0.1,0.4,0.2,0.6,0.3,0.7c0.1,0.1,0.2,0.1,0.3,0.2c0.1,0,0.3,0,0.5-0.1l0.2-0.1l0.1,0.2l-3.8,1.4l-0.1-0.2l0.2-0.1
				c0.2-0.1,0.4-0.2,0.5-0.3s0.1-0.2,0.1-0.3s-0.1-0.3-0.2-0.7l-2-5.6l-0.5,0.2c-0.5,0.2-0.8,0.4-1,0.7c-0.2,0.4-0.3,0.9-0.1,1.5
				l-0.2,0.1l-0.7-2L740.6,719.2z"/>
			<path d="M749.9,719v0.2c-0.2,0.1-0.4,0.2-0.5,0.3c-0.2,0.2-0.4,0.7-0.7,1.4l-1.2,3l0.3,1.9c0.1,0.4,0.1,0.6,0.2,0.7
				c0.1,0.1,0.1,0.2,0.3,0.2c0.1,0.1,0.3,0.1,0.5,0l0.4-0.1v0.2l-4.3,0.6v-0.2l0.4-0.1c0.2,0,0.4-0.1,0.5-0.2
				c0.1-0.1,0.2-0.2,0.2-0.3s0-0.3,0-0.7l-0.2-1.5l-2.3-3c-0.5-0.6-0.8-0.9-0.9-1c-0.2-0.1-0.4-0.1-0.6-0.1v-0.2l3.7-0.5v0.2h-0.2
				c-0.2,0-0.4,0.1-0.5,0.2c-0.1,0.1-0.1,0.2-0.1,0.2c0,0.1,0.2,0.5,0.6,1l1.8,2.3l1-2.5c0.3-0.6,0.4-1,0.3-1.2
				c0-0.1-0.1-0.2-0.2-0.2c-0.1-0.1-0.4-0.1-0.7-0.1v-0.2L749.9,719z"/>
			<path d="M762.8,719.6l-0.5,2.6h-0.2c0-0.7-0.2-1.3-0.6-1.8c-0.4-0.5-0.8-0.7-1.4-0.8c-0.5-0.1-0.9,0-1.4,0.2
				c-0.4,0.2-0.8,0.5-1.1,0.9c-0.3,0.5-0.6,1.1-0.7,1.8c-0.1,0.7-0.2,1.3-0.1,1.9c0.1,0.6,0.2,1.1,0.6,1.4c0.3,0.4,0.8,0.6,1.3,0.7
				c0.5,0.1,0.9,0.1,1.4-0.1c0.4-0.1,0.9-0.4,1.5-0.8l-0.1,0.7c-0.5,0.4-1,0.6-1.5,0.7c-0.5,0.1-1.1,0.1-1.7,0
				c-0.8-0.2-1.5-0.5-2.1-0.9s-1-1-1.2-1.7s-0.3-1.4-0.1-2c0.1-0.7,0.5-1.4,1-1.9c0.5-0.6,1.1-1,1.8-1.2s1.4-0.3,2.2-0.1
				c0.5,0.1,1.1,0.3,1.6,0.7c0.3,0.2,0.5,0.3,0.6,0.3s0.2,0,0.3-0.1s0.2-0.2,0.3-0.4L762.8,719.6z"/>
			<path d="M768.8,721.9c1.2,0.4,2,1.1,2.4,2.1s0.5,2,0.1,3.1c-0.3,0.9-0.9,1.6-1.7,2.1c-1.1,0.7-2.2,0.7-3.5,0.2s-2.1-1.3-2.5-2.5
				c-0.3-0.9-0.3-1.8,0.1-2.8c0.4-1.1,1.1-1.8,2.1-2.3C766.7,721.5,767.7,721.5,768.8,721.9z M768.7,722.3c-0.7-0.3-1.3-0.1-1.9,0.4
				c-0.5,0.4-0.9,1.2-1.3,2.2c-0.5,1.2-0.6,2.2-0.4,3c0.1,0.5,0.5,0.9,1,1.1c0.4,0.1,0.7,0.2,1,0.1c0.4-0.1,0.8-0.4,1.1-0.8
				c0.4-0.4,0.7-1.1,1-1.9c0.4-1,0.5-1.7,0.5-2.2s-0.1-1-0.3-1.3C769.3,722.7,769.1,722.4,768.7,722.3z"/>
			<path d="M773.3,723.8l3.8,1.1l-0.1,0.2l-0.2-0.1c-0.3-0.1-0.5-0.1-0.6-0.1s-0.2,0.1-0.3,0.2c-0.1,0.1-0.2,0.3-0.3,0.8l-1.1,3.6
				c-0.2,0.7-0.3,1.1-0.2,1.4c0,0.2,0.1,0.5,0.3,0.7s0.5,0.4,0.8,0.5c0.4,0.1,0.8,0.1,1.1,0s0.6-0.3,0.9-0.6
				c0.2-0.3,0.5-0.8,0.7-1.6l0.9-3c0.1-0.3,0.1-0.6,0.1-0.7c0-0.2-0.1-0.3-0.2-0.4c-0.1-0.1-0.4-0.2-0.7-0.3l0.1-0.2l2.6,0.8
				l-0.1,0.2h-0.2c-0.2-0.1-0.4-0.1-0.6,0c-0.2,0-0.3,0.1-0.4,0.3c-0.1,0.1-0.2,0.3-0.3,0.6l-0.8,2.8c-0.3,0.9-0.5,1.5-0.7,1.8
				s-0.6,0.6-1.2,0.8c-0.5,0.2-1.2,0.2-2-0.1c-0.6-0.2-1.1-0.4-1.4-0.7c-0.4-0.4-0.7-0.8-0.7-1.2c-0.1-0.4,0-0.9,0.1-1.6l1.1-3.6
				c0.1-0.4,0.2-0.7,0.2-0.8s-0.1-0.2-0.2-0.3c-0.1-0.1-0.3-0.2-0.6-0.3L773.3,723.8z"/>
			<path d="M784.1,726.8l2.6,5.6l0.8-3.2c0.1-0.4,0.1-0.8,0-1c-0.1-0.3-0.4-0.4-0.8-0.5l0.1-0.2l2.5,0.6l-0.1,0.2
				c-0.3,0-0.6,0-0.7,0c-0.1,0-0.2,0.1-0.3,0.3c-0.1,0.1-0.2,0.4-0.3,0.7l-1.5,6.3h-0.2l-3.5-7.5l-1.2,4.8c-0.1,0.4-0.1,0.7,0.1,0.9
				c0.2,0.2,0.4,0.3,0.6,0.4h0.2v0.2l-2.7-0.7l0.1-0.2c0.4,0.1,0.7,0.1,0.9,0s0.4-0.4,0.5-0.8l1.3-5.3l-0.1-0.2
				c-0.1-0.2-0.2-0.4-0.3-0.5s-0.3-0.2-0.5-0.2v-0.2L784.1,726.8z"/>
			<path d="M797.2,729.1l-0.4,2.7h-0.2c-0.1-0.7-0.3-1.3-0.7-1.7s-0.9-0.7-1.5-0.8c-0.5-0.1-0.9,0-1.4,0.2c-0.4,0.2-0.8,0.5-1,1
				c-0.3,0.5-0.5,1.2-0.6,1.9s-0.1,1.3,0,1.9c0.1,0.6,0.3,1,0.6,1.4c0.3,0.3,0.8,0.5,1.4,0.6c0.5,0.1,0.9,0,1.4-0.1
				c0.4-0.2,0.9-0.5,1.4-0.9l-0.1,0.7c-0.5,0.4-1,0.7-1.5,0.8s-1.1,0.2-1.7,0.1c-0.8-0.1-1.5-0.4-2.1-0.8c-0.6-0.4-1-1-1.3-1.6
				c-0.3-0.7-0.3-1.3-0.2-2s0.4-1.4,0.9-2s1.1-1,1.8-1.3s1.4-0.4,2.1-0.3c0.5,0.1,1.1,0.3,1.7,0.6c0.3,0.2,0.5,0.3,0.6,0.3
				s0.2,0,0.3-0.1s0.2-0.2,0.2-0.4L797.2,729.1z"/>
			<path d="M803.2,735.6l0.1,0.2l-3.9,1l-0.1-0.2l0.2-0.1c0.2-0.1,0.4-0.1,0.5-0.3c0.1-0.1,0.1-0.2,0.2-0.3c0-0.1,0-0.3-0.1-0.7
				l-1.3-4.9c-0.1-0.4-0.2-0.6-0.2-0.7c-0.1-0.1-0.2-0.1-0.3-0.2c-0.1,0-0.3,0-0.5,0l-0.2,0.1l-0.1-0.2l3.9-1l0.1,0.2l-0.2,0.1
				c-0.2,0.1-0.4,0.1-0.5,0.3c-0.1,0.1-0.1,0.2-0.2,0.3c0,0.1,0,0.3,0.1,0.7l1.3,4.9c0.1,0.4,0.2,0.6,0.2,0.7
				c0.1,0.1,0.2,0.1,0.3,0.2c0.1,0,0.3,0,0.5,0L803.2,735.6z"/>
			<path d="M810.1,728.4l1.3,2.4l-5.6,4l-0.1-0.2l0.2-0.1c0.2-0.1,0.3-0.3,0.4-0.4c0-0.1,0.1-0.2,0-0.4c0-0.1-0.1-0.3-0.4-0.6
				l-3-4.1c-0.2-0.3-0.4-0.5-0.5-0.6s-0.2-0.1-0.4-0.1c-0.1,0-0.3,0.1-0.5,0.2l-0.2,0.1l-0.1-0.2l3.4-2.4l0.1,0.2l-0.3,0.2
				c-0.2,0.1-0.3,0.3-0.4,0.4c0,0.1-0.1,0.2,0,0.4c0,0.1,0.1,0.3,0.4,0.6l2.9,4c0.2,0.3,0.4,0.5,0.5,0.6s0.2,0.1,0.4,0
				c0.1,0,0.3-0.1,0.6-0.4l0.5-0.4c0.3-0.2,0.6-0.5,0.7-0.8c0.1-0.3,0.2-0.6,0.2-1s-0.1-0.9-0.3-1.5L810.1,728.4z"/>
		</g>
		<polygon class="st12" points="829,721.3 822.1,703.1 854,700 843.6,709.4 855.4,721.3 		"/>
	</g>
	<g>
		<path class="st13" d="M682.2,457.3c1-5.3-28.9-8.7-36.3-26.9c-3.2-8-1.2-16.5,1.2-22.5c6.7,0,13.3,0,20,0
			c-4.9,12-3.4,18.8-1.2,22.7c7.7,13.7,31.9,7.4,40.4,22.1c3.2,5.6,4,13.9,0.8,20.2c-10.4,20.5-57.8,8.4-63.2,23.7
			c-1.6,4.5,1.7,9.3,7.8,18.5c8.3,12.4,18.5,19.4,24.6,23c0.5,13.5,1.1,27,1.6,40.6c-11.8-2.1-23.6-4.2-35.4-6.3
			c5.5-7,6.6-16.1,2.9-22.6c-2.3-4-7.7-5.6-30.9-5.2c-9.5,0.2-22.9,0.8-39.1,2.7c-12.9-12.7-25.7-25.4-38.6-38
			c2.4-13.4,8.3-33.5,23.9-51.9c7.9-9.4,17.1-20.2,32.7-24.2c14.7-3.8,32.3-0.8,45.5,7.4c13.4,8.3,18.1,19.3,31.7,20
			C675.8,460.8,681.8,459.5,682.2,457.3z"/>
		<path class="st13" d="M642.8,682.4c-14.1,2.8-30.6,4.2-36.7-4.3c-4.1-5.6-0.7-11.7-0.8-22.1c-0.3-25.9-22.4-52-33-49.5
			c-8.8,2-10.9,23.8-12.6,40.5c-3.1,31.9,10.1,48.3,3,53.7c-6.8,5.2-25.7-3.1-31.7-16.4c-3.5-7.8-1.5-14.9-0.6-21
			c3.8-24.3-8.5-37.3-15-61.7c-12.1-45.4,4.3-98,24.1-103.2c2.6-0.7,8.9-0.5,21.4,0c12.7,0.5,19,0.6,22,1.5
			c20.5,6.4,33.3,37.5,25.8,47.5c-2.7,3.6-8.3,4.5-8.9,9.2c-0.5,3.6,2.2,6.6,3.3,7.9c7.9,9.9,1.1,24.8,2.8,40.1
			c2.2,19.5,16.1,20,28.5,49.1C639.6,665.6,641.7,675.9,642.8,682.4z"/>
		<polygon points="550.3,552.8 563.9,561.6 563.9,594.3 585.4,556.6 599.9,556.7 600.4,560.3 585.2,562.4 570.8,607 567.5,610.2 
			562.9,623.2 561.5,631.2 554.9,597.1 555.3,569.8 547.9,561.2 		"/>
		<polygon points="581.8,508.1 618.9,499.6 622.1,484.4 600.4,469.4 599.1,431.1 604.6,431.1 606.3,462.4 628.3,480.2 628.3,500.4 
			597.8,509.8 604.4,518.7 609.2,529.2 611,539.7 609.6,546.3 605.8,550.2 598.9,538.5 595.5,520.5 582.9,518.5 		"/>
		<path class="st14" d="M628.2,456c-3.2-0.8-6.3,6-4.9,8.5c1.1,1.9,7.5,2.4,9.4-1.5C634.2,460,630.2,456.5,628.2,456z"/>
		<polygon points="623.5,460.2 601.4,443.8 603.2,439.1 618.9,448.7 620.5,444.2 638.6,455.4 633.8,460.9 630.6,457.8 627.9,455.9 
			625.1,457.4 		"/>
		<polygon points="628.3,466.2 628.3,480.2 640.2,480.7 642.8,477.1 636.9,467.5 638.6,462.1 638.6,455.4 633.1,457.5 632.9,463.6 
					"/>
		<path class="st12" d="M634.4,468.6c6.9,0.7,20.5,1.1,35.9-5.1c13.2-5.3,22-13.1,26.6-18c0.7,6.6-0.7,11.2-2,14.1
			c-6.1,13.1-28.2,15-49.3,17.2c-2.9,0.3-5.3,0.5-7,0.6C637.3,474.5,635.8,471.6,634.4,468.6z"/>
	</g>
	<g>
		<path class="st14" d="M934.5,646.7c-15.5,32.7-22,44-24.2,45.9c-0.2,0.2-1,0.8-1,1.6c-0.1,2.4,5.5,5.5,9.3,5.5
			c9.5-0.2,16.6-20.9,21.5-35.3c3.4-9.8,5.2-17.6,7.3-26.8c7.6-33.4,11.4-50.1,10.4-59.7c-0.9-8.5-2.8-27.6-16.4-43.3
			c-8.9-10.3-15.1-10.3-16.6-17.6c-2.6-12.8,15.6-19.2,25.3-43.9c1.6-4,13.5-32.8,2.5-34.4c-60.1-9-74.8,23.9-72.4,29.9
			c0.8,2.1,16.8-3.5,17.7-1.1c1.3,3.4-31.6,11.5-35.1,30.5c-2.1,11.4,7.3,21.2,2.6,25.7c-3.4,3.2-9.3-1.1-17.7,2.6
			c-5.2,2.3-8.5,6.4-9.9,8.7c-9.9,16.5,13.4,51.8,24.1,49.6c4.2-0.9,7.7-7.7,7-13c-0.5-4.1-3.2-5.4-6.5-10.3
			c-1.1-1.6-9.7-14.5-5-22.2c4.3-7.1,18.6-8.1,23.7-2.6c2.3,2.5,1.5,5,3.1,9.4c3.5,9.5,12.5,7.4,15.2,14.6c3,8,5.1,11.8-1.3,17.6
			c-0.1,0.1-6.3,5.4-6.9,6l15,37L934.5,646.7z"/>
		<path class="st14" d="M891,584.8c5.6,11.6,9.3,24.8,14.9,36.4c0.5,7.1,1,16.7-2.6,27.4c-10.3,31.3-41.6,49.3-43.6,47.3
			c-0.6-0.6,2.5-3.2,8.8-12.9c14.4-22.3,16.7-36,16.7-36c1.8-15.3-4.2-16.5-3.2-32.4C882.8,602.8,886.5,590.8,891,584.8z"/>
		<path class="st15" d="M948.7,475.4c-1.9,1-13.6,6.4-25,1c-6-2.9-14.7-10.1-12.8-16.8c2.2-7.6,16.5-10.2,18.6-7.3
			c1.8,2.6-5.3,9.8-3.9,11.2c1.1,1.1,6-2,11.3-5.7l-0.4-7.5c6.2-1.4,14.5-2.7,20.7-4.1c-0.1,4.2-1.5,9.5-2.9,15.4
			C953.2,467.1,950.4,471.8,948.7,475.4z"/>
		<path class="st15" d="M908,527.3c-7.7,2.4-15.7,4.6-23.9,6.5c-1.1,0.3-5.5-0.1-6.6,0.1"/>
		<path class="st15" d="M889,510.2c-0.6,1.4-4.6,10.6-14,13c-3.2,0.8-6,0.6-8,0.2"/>
		<path d="M900,448.2c2.9,9.2,4.9,7.2,5.6,6.2c1.1-1.6,3.7-7.5,0.6-8.9C904.7,444.8,901.4,446.9,900,448.2z"/>
	</g>
	<g>
		<polygon class="st16" points="684.2,618.3 679.3,605.4 676.5,589.7 676.2,571 675.7,494.6 838.5,495 836.7,589.8 835.9,601.5 
			833,613.4 829.9,621.3 687.7,625.7 		"/>
		<g>
			<g>
				<defs>
					<path id="SVGID_00000103227657665468384820000007908150767400334268_" d="M675.7,494.6l162.8,0.5l-1.8,96.1
						c-0.1,45.6-45,80.2-81.1,95.8c-37-15.1-76.4-53.2-79.3-101.6L675.7,494.6z"/>
				</defs>
				<clipPath id="SVGID_00000039843158083336065670000008439419398001825153_">
					<use xlink:href="#SVGID_00000103227657665468384820000007908150767400334268_"  style="overflow:visible;"/>
				</clipPath>
				<path style="clip-path:url(#SVGID_00000039843158083336065670000008439419398001825153_);" d="M834.7,623.7
					c0.4-1.9,0.8-4.2,1-7.8c-4.5-1.2-10.9-2.4-15.5-1.8c-9.1,0.3-17.3,6.5-29.5,7.6c-11.6-0.2-20-7.4-32.7-8.2
					c-16-0.5-25,7.5-38.9,7.7c-9.5,0.3-16.4-3.3-25.5-6.8c-8.1-2.8-15.4-2.7-22.6-0.9c0.6,3.9,1.3,7.1,2.2,10.1
					c-6.5,0-10.3,0.1-10.4,0.2c0,0-17.4,14.6,9.2,55.4c26.6,40.9,128.6,17,128.6,17l46.4-72.4C846.9,623.8,842.4,623.7,834.7,623.7z
					"/>
			</g>
		</g>
		<path class="st18" d="M682.7,507.3c1-0.4,9.3-3.8,17,0.8c1.2,0.7,5.8,3.4,7.2,8.8c2.1,7.9-3.9,17.8-12.4,19.4
			c-5.8,1.1-10.6-2.1-11.9-3.1c0.7,1.6,3.5,7,9.8,9.6c4.7,1.9,9,1.2,10.7,0.9c9.3-1.7,19.3-10.2,20-21.6c0.5-7.6-3.4-13.1-4.4-14.4
			c-6.5-8.7-16.9-8.9-18.1-8.9C690,498.8,683.6,506.3,682.7,507.3z"/>
		<path class="st18" d="M784.5,507.3c1-0.4,9.3-3.8,17,0.8c1.2,0.7,5.8,3.4,7.2,8.8c2.1,7.9-3.9,17.8-12.4,19.4
			c-5.8,1.1-10.6-2.1-11.9-3.1c0.7,1.6,3.5,7,9.8,9.6c4.7,1.9,9,1.2,10.7,0.9c9.3-1.7,19.3-10.2,20-21.6c0.5-7.6-3.4-13.1-4.4-14.4
			c-6.5-8.7-16.9-8.9-18.1-8.9C791.8,498.8,785.4,506.3,784.5,507.3z"/>
		<path id="path5107_00000003091356047223759220000016039600092967203001_" class="st19" d="M676.2,548.9l161.1,0.1l-0.7,38.8
			c-7.4-2-14.6-1.3-22,1c-7.4,2.5-10.5,4.6-21.5,4.4c-12.1-0.3-21.5-8.3-35.4-7.9c-13.5,0.2-18.9,7.9-34.4,7.9
			c-20.1-1.8-17.6-6.2-32.1-8.6c-6.7-0.4-8.5-0.8-14.5,0.9L676.2,548.9z"/>
		<path id="path4569_00000183208860986927044600000002222883518982519433_" class="st20" d="M675.7,494.6l162.8,0.5l-1.8,96.1
			c-0.1,45.6-45,80.2-81.1,95.8c-37-15.1-76.4-53.2-79.3-101.6L675.7,494.6z"/>
		<path id="path4573_00000061441084311042894420000016550310019882189444_" class="st19" d="M766.3,507.1c2.8-4.5-3.2-8-6.8-6.7
			c0.1-3.9-5.2-3.8-5.1,0c-4.7-0.9-8.3,2.7-6.8,6.7c1.8-1.9,4.5-2.4,5.1,0v10.1H739c-2.4-1.7,0.2-3.7,1.7-5
			c-5.8-3.8-9.5,1.8-8.6,6.7c-3.4-0.4-3.8,5,0,5c-1.3,4.9,3.3,9.3,8.6,6.7c-3.5-1.2-3.9-4.9-1.7-5h13.7v11.8
			c-0.8,1.9-3.5,1.3-5.1-1.7c-2,4.6,2,9.7,6.8,8.4c0.2,3.9,5.1,3.7,5.1,0c7.5,0.5,7.2-3.1,6.8-8.4c-1.9,3.5-4.1,3.3-5.1,1.7v-11.8
			h13.7c2.1,0.6,0.5,3.7-1.7,5c7.2,2.4,9.6-1.6,8.6-6.7c3.4,0,3.9-5.1,0-5c1-6-5.7-9.5-8.6-6.7c1.1,1.1,4.3,3.9,1.7,5h-13.7v-10.1
			C762,504.8,764.9,505.1,766.3,507.1z"/>
		<g>
			<polygon class="st21" points="692.7,557.4 695.9,556.5 722.5,556.5 722.5,561.2 710.1,561.2 710.1,567.2 692.7,567.2 
				692.7,566.3 			"/>
			<path class="st21" d="M682.7,562c0,3.6,2.3,6.5,5,6.5v-12.9C684.9,555.5,682.7,558.4,682.7,562z"/>
			<polygon class="st21" points="710.1,561.2 710.1,579.8 743.6,579.8 743.6,570.3 732.4,570.3 732.4,566.2 723.5,566.2 
				723.5,561.2 			"/>
			<circle class="st21" cx="714.7" cy="580.2" r="5.7"/>
			<circle class="st21" cx="714.7" cy="580.2" r="2.4"/>
			<circle class="st21" cx="743.6" cy="579.8" r="5.7"/>
			<circle class="st21" cx="743.6" cy="579.8" r="2.4"/>
			<polygon class="st21" points="722.5,561.2 722.5,556.5 723.8,553.8 728.1,553.8 728.1,566.2 723.5,566.2 723.5,561.2 			"/>
			<circle class="st21" cx="716.8" cy="560.7" r="2.5"/>
			<polygon class="st21" points="728.1,555 737.1,555 737.1,570.3 732.4,570.3 732.4,566.2 728.1,566.2 			"/>
			<polygon class="st21" points="737.1,555 739.1,553.3 741.3,553.3 742.2,555 742.2,570.3 737.1,570.3 			"/>
			<polygon class="st21" points="742.2,555 748.2,559.6 748.2,565.3 742.2,570 			"/>
			<circle class="st21" cx="749.6" cy="562.5" r="3.1"/>
			<polygon class="st21" points="687.7,555.5 687.7,568.4 689.9,568.4 692.7,567.2 692.7,557.4 690.7,555.5 			"/>
		</g>
		<g>
			<polygon class="st21" points="771.9,558.3 775.1,557.4 801.7,557.4 801.7,562.2 789.4,562.2 789.4,568.1 771.9,568.1 
				771.9,567.3 			"/>
			<path class="st21" d="M761.9,562.9c0,3.6,2.3,6.5,5,6.5v-12.9C764.2,556.5,761.9,559.3,761.9,562.9z"/>
			<polygon class="st21" points="789.4,562.2 789.4,580.8 822.8,580.8 822.8,571.3 811.7,571.3 811.7,567.1 802.8,567.1 
				802.8,562.2 			"/>
			<circle class="st21" cx="793.9" cy="581.2" r="5.7"/>
			<circle class="st21" cx="793.9" cy="581.2" r="2.4"/>
			<circle class="st21" cx="822.8" cy="580.8" r="5.7"/>
			<circle class="st21" cx="822.8" cy="580.8" r="2.4"/>
			<polygon class="st21" points="801.7,562.2 801.7,557.4 803,554.7 807.3,554.7 807.3,567.1 802.8,567.1 802.8,562.2 			"/>
			<circle class="st21" cx="796.1" cy="561.7" r="2.5"/>
			<polygon class="st21" points="807.3,555.9 816.4,555.9 816.4,571.3 811.7,571.3 811.7,567.1 807.3,567.1 			"/>
			<polygon class="st21" points="816.4,555.9 818.3,554.2 820.6,554.2 821.4,555.9 821.4,571.3 816.4,571.3 			"/>
			<polygon class="st21" points="821.4,555.9 827.4,560.6 827.4,566.3 821.4,571 			"/>
			<circle class="st21" cx="828.8" cy="563.4" r="3.1"/>
			<polygon class="st21" points="767,556.5 767,569.4 769.1,569.4 771.9,568.1 771.9,558.3 770,556.5 			"/>
		</g>
		<g>
			<g>
				<defs>
					<path id="SVGID_00000119817160100175517980000007838548040546534813_" d="M675.7,494.6l162.8,0.5l-1.8,96.1
						c-0.1,45.6-45,80.2-81.1,95.8c-37-15.1-76.4-53.2-79.3-101.6L675.7,494.6z"/>
				</defs>
				<clipPath id="SVGID_00000070118179994771120970000000611039935612570281_">
					<use xlink:href="#SVGID_00000119817160100175517980000007838548040546534813_"  style="overflow:visible;"/>
				</clipPath>
				
					<path id="path5109_00000137103468353635560180000008853117176789722029_" style="clip-path:url(#SVGID_00000070118179994771120970000000611039935612570281_);fill:#0C1C8C;stroke:#000000;stroke-width:0.5;" d="
					M678.3,606.3c5.3-1.2,11-2,17.7,1.1c9.6,3.7,19.3,7,29.9,6.7c13.6-1.1,26.9-8.1,34-7.6c10.9-0.2,22.2,9.1,35.8,8.3
					c13.6-0.7,20.1-7.5,29-7.3c3.9-0.2,8.6,0.2,12.8,1.4c0.9-4.1,1.9-6.1,2.4-13.4c-4.5-1.2-10.9-2.4-15.5-1.8
					c-9.1,0.3-17.3,6.5-29.5,7.6c-11.6-0.2-20-7.4-32.7-8.2c-16-0.5-25,7.5-38.9,7.7c-9.5,0.3-16.4-3.3-25.5-6.8
					c-8.1-2.8-15.4-2.7-22.6-0.9C675.8,598.4,676.9,602.2,678.3,606.3L678.3,606.3z"/>
			</g>
		</g>
		<path class="st16" d="M727.4,637.5c-1.4,1.7-2.8,3.4-4.2,5.2c-2.6-1-5.1-2-7.7-3.1c0.7-2.6,1.4-3.3,1.9-3.4c1-0.1,1.9,1.9,2.6,1.6
			c0.3-0.1,0.5-0.7,0.4-1.2c-0.4-1.6-4.5-1.1-4.7-2.2c-0.1-0.7,1.3-1.9,2.6-1.8c1.2,0.1,1.6,1.3,3.9,2.4c0.8,0.4,1.5,0.6,1.6,0.5
			c0.2-0.3-2.6-1.5-2.4-2.6c0.2-0.9,2.3-1.7,3.3-0.9c0.5,0.4,0.5,1,0.8,2.1C725.8,635,726.3,636.2,727.4,637.5z"/>
		<path class="st16" d="M737.6,627.9l-7.2,3.7c0,0,2,4.5,2.1,4.5s5.1-4.1,5.1-4.1L737.6,627.9L737.6,627.9z"/>
		<path class="st16" d="M727.2,639.2c-0.5,0.9-3.3,6.3-3.3,7.6c0,0.1,0,0.2,0.1,0.4c0.4,0.7,2.3,0.9,3.2,0.1
			c0.6-0.5,0.3-0.9,0.9-2.3c0.8-2,1.6-2.3,1.7-3.7c0-0.5,0.1-1.4-0.5-1.9C728.5,638.7,727.3,639.1,727.2,639.2z"/>
		<path class="st16" d="M722.3,648c1.6-0.7,3.1,0.9,7.4,1.9c0.2,0,0.4,0.1,0.6,0.2c1.6,0.8,1.1,3.1,2.1,5.3c1.3,2.8,4.2,4.1,4.3,4
			s-0.8-0.7-1.8-2.1c-0.5-0.7-1.4-1.9-2-3.7c-0.7-2-0.1-2.4-0.8-3.2c-1.2-1.5-3.3-0.8-3.8-1.8s1-2.5,2.3-3.9
			c2.3-2.4,5.3-5.6,8.7-5.2c1,0.1,2.5,0.6,2.8,0.1c0.1-0.2,0-0.6-0.1-0.8c-0.8-1.1-4.3-0.8-6.7,1c-1.6,1.1-2.3,2.6-3.1,2.4
			c-0.6-0.2-0.8-1-0.8-1.1c-0.2-0.9,0.2-2.1,2.1-4c6.8-6.6,14.6-7.8,14.6-7.8c0.8-0.1,5-0.7,10.1,0.4c1.7,0.4,3.6,0.8,5.5,2
			c3.2,1.9,4.5,4.5,6.3,7.4c5,8,11.1,13.7,11.5,13.5c0.2-0.1-0.4-1.3-1.1-2.2c-0.7-0.9-1.4-1.5-2.1-1.9c0.8-0.8,1.6-1.7,2.5-2.5
			c-0.3-0.3-0.6-0.6-0.9-0.9c-0.9,0.8-1.7,1.7-2.6,2.5c-0.7-0.9-1.4-1.8-2.1-2.7c0.9-1.2,1.7-2.4,2.6-3.5c-0.4-0.4-0.7-0.7-1.1-1.1
			c-0.9,1.1-1.7,2.2-2.6,3.3c-0.9-1.9-1.9-3.8-2.8-5.7c0.7-1.3,1.5-2.6,2.2-3.9c-0.4-0.3-0.7-0.6-1.1-0.9c-0.9,1-1.7,2-2.6,2.9
			c-1.4-1.5-2.9-3.1-4.3-4.6c0.7-1.1,1.3-2.2,2-3.3c-0.7-0.2-1.5-0.3-2.2-0.5c-0.2,0.9-0.4,1.8-0.6,2.7c-2.2-0.9-4.4-1.8-6.6-2.8
			c0.2-1.4,0.4-2.8,0.6-4.1c-0.6,0-1.3,0-1.9,0c0,1.3,0,2.6-0.1,4c-2.4,0-4.7,0-7.1,0c0-1.1,0-2.2,0-3.3c-0.6,0-1.2,0-1.8,0
			c-0.1,1.4-0.1,2.9-0.2,4.3c-2.7,0.8-5.4,1.6-8.1,2.4c0-1,0-2.1,0-3.1c-0.7,0-1.4,0-2,0c0.4-0.9,0.7-1.9,1.1-2.8
			c2.5,1.1,4,0.7,4.7,0.5c1.5-0.5,3-2,3.5-2.4c1-1,1.2-1.4,1.9-1.6c0.9-0.2,1.3,0.5,3.2,1.2c1.5,0.6,2.2,0.9,3.1,0.6
			c1.5-0.4,1.5-2,2.8-2.1c0.8-0.1,1,0.6,2.9,1.6c1.1,0.6,2.3,1.3,3.9,1.6c1.7,0.2,2.5-0.3,3.1,0.3s0,1.4,0.5,2.6
			c0.8,1.8,3.2,2.5,3.9,2.6c1.9,0.5,3.1,0.1,3.4,0.7c0.3,0.7-0.8,1.4-0.9,2.6c0,1.8,2.5,3.1,2.8,3.3c1.1,0.5,2,0.7,2.6,0.7
			c-0.6,2.2-0.2,3.4,0.3,4c1,1.3,3.3,1.5,3.9,2.9c0.1,0.1,0.2,0.5,0.1,1c-0.2,0.6-0.6,0.7-0.9,1.1c-0.8,1,1.1,3.7,1.8,4.6
			c1.6,2.3,2.4,3.4,3.7,3.5c1.2,0.1,2.2-0.7,3.4-1.7c1-0.8,3.5-2.9,4-6.4c0.1-0.7,0.4-3-0.7-5.4c-1.8-3.9-5.4-4.1-6-7.6
			c-0.1-0.5-0.3-1.8,0.4-2.6c1-1.1,3.3-1,4.6,0.1c1.5,1.1,0.9,2.5,2.6,5.3c0.9,1.3,1.8,2.8,3.1,2.9c1.3,0.1,2.5-1.2,4.5-3.6
			c2.7-3.2,3-4.6,4.7-5c1.5-0.4,3.4,0.2,3.4,0.8c0,0.3-0.5,0.6-0.6,0.7c-2.8,1.8-2,7.9-5.2,10.3c-1.8,1.4-2.8,0-4.6,1.5
			c-2.1,1.7-1.7,4.1-3.1,7.8c-0.3,0.7-1.9,4.8-4.9,7.2c-4.8,3.7-12.4,2.2-16.8,0.3c-4.3-1.8-4.6-3.7-11.9-7.2
			c-4.6-2.2-6.1-2.2-7.3-2c-2.2,0.5-3.5,2-7.4,2.8c-2.3,0.5-2.7,0.1-2.9-0.1c-0.4-0.7,1.6-1.8,2.1-4.5c0.2-1.2-0.1-1.6,0.4-2.4
			c0.7-1.2,2-1.6,2.7-1.9c2.4-0.8,4.7,0,7.6,0.9c0,0,6,1.9,9,5.3c0.2,0.2,0.3,0.4,0.3,0.4c1.2,1.3,1.8,2.4,2,2.8
			c1.4,2.1,4.7,2.8,4.8,2.7c0-0.1-3.2-0.9-4.3-3.5c-0.4-0.9-0.1-1.1-0.4-1.9c-0.6-1.5-1.9-2.1-4.5-3.5c-4.2-2.4-3.7-2.5-5.5-3.2
			s-3.3-1.3-5.2-1.3c-3.9,0.1-5.8,2.5-7.6,1.4c-0.8-0.5-0.5-1-1.5-2c-2-2.2-5.3-2.5-5.5-2.1c-0.1,0.2,1,0.6,2.9,2.1s2.8,2.3,3.2,3.3
			c1,2.4-0.4,6.2-2.6,8.2c-0.7,0.6-1.5,1.1-1.8,2.2c-0.3,1.3,0.5,2.2,0,2.8c-0.5,0.5-1.4-0.3-2.4,0.3c-0.7,0.4-1.1,1.3-1.1,2
			c-0.1,1.1,0.7,1.2,1,2.8c0.2,1.1,0,1.8,0.5,2.2c0.3,0.2,0.8,0.3,1.1,0.2c0.6-0.3,0.5-1.1,0.8-1.2c0.3,0,0.8,0.9,0.6,1.7
			c-0.2,0.7-0.8,1.3-1.5,1.4c-1.3,0.1-2.4-1.7-2.9-2.5c-1.4-2.2-1.2-3.8-2.2-4.1c-0.4-0.1-0.7,0.2-1.7,0.8c-2.6,1.8-4.2,2.8-5.3,2.4
			c-1.1-0.4-0.9-1.8-2.1-2c-0.8-0.1-1.7,0.3-2.1,0.5c-0.7,0.3-0.9,0.6-1.2,0.5c-0.7-0.1-1.3-1.6-0.9-2.7c0.3-1,1.4-1.8,2.5-1.8
			c1.9,0,2.8,2.6,4.1,2.2c0.4-0.1,0.8-0.6,0.8-1c0-1.1-2.7-2.2-5.1-2.4c-2.4-0.2-2.9,0.6-4.4,0c-1.7-0.7-2.7-2.5-3-4.2
			C720.1,651.2,720.7,648.7,722.3,648z"/>
		<path class="st23" d="M724.7,652.5c-0.1-0.3-1,0-1.5-0.5c-0.4-0.4-0.2-1-0.5-1c-0.2,0-0.7,0.6-0.7,1.4c0,0.6,0.3,1.4,1,1.6
			C724,654,724.9,652.9,724.7,652.5z"/>
		<path class="st23" d="M728.3,653.5c-0.3-0.3-1-0.1-1.2,0.3c-0.3,0.5,0,1.3,0.4,1.4c0.4,0.1,0.8-0.4,0.9-0.9
			C728.4,654.2,728.6,653.7,728.3,653.5z"/>
		<path d="M738.4,645.7c0.7,0.2,1.3,1.1,1.2,1.9c0,1.4-1.5,2-1.6,2c-0.9,0.4-2.3,0.2-2.6-0.4C735,648.2,737,645.4,738.4,645.7z"/>
		<path class="st24" d="M735.6,652.6c0.7,0.6,2,0,3.1-0.5c1.2-0.5,3.6-1.7,4-4.1c0.2-1.1-0.1-2.7-1.1-3.4c-1.5-1-3.9,0.3-5.1,1.8
			C734.7,648.4,734.4,651.8,735.6,652.6z"/>
		<path class="st16" d="M748.5,653c1.9,0.2,5.9,0.8,8.5,2.8c0.3,0.2,0.6,0.5,0.8,1c1,2.3-2.7,5.6-3.1,6l-8.9-3.5L748.5,653z"/>
		<path class="st16" d="M763.8,655.1L763.8,655.1L763.8,655.1L763.8,655.1L763.8,655.1h-2.7l0,0c-0.9,0-1.6,0.6-1.6,1.3
			s0.7,1.3,1.6,1.3h2.6c0.9,0,1.6-0.6,1.6-1.3C765.4,655.7,764.7,655.1,763.8,655.1z"/>
		<path class="st16" d="M760.8,658.4c-1.3,0.6-2.3,1.8-2,2.3c0.2,0.3,0.8,0.2,2.3,0.4c2.5,0.3,3.1,1,4.4,0.6
			c0.7-0.2,1.6-0.6,1.7-1.2c0-0.6-0.8-1.1-1.3-1.4C765.5,658.9,763,657.5,760.8,658.4z"/>
		<path class="st16" d="M759.5,662c-0.8,0.1-2.2,0.4-2.3,1s1.1,1.2,1.9,1.7c0.9,0.5,1.1,0.4,2.3,1c2.1,0.9,2.4,1.3,3.1,1.2
			c0.8-0.2,1.4-1.1,1.4-2c0-1.2-1.2-1.9-1.7-2.3C762.5,661.4,760.6,661.8,759.5,662z"/>
		<path class="st16" d="M771.5,663.6"/>
	</g>
	<g id="g2871_00000176761514212005586740000013354778618422580354_">
		<path id="path2875_00000127032316280560369410000002355630736565521550_" class="st25" d="M801.9,479.3c3.8,4.2,5,9.9,3,15.4h-5.6
			c2.4-7.1,0.9-13.8-9.1-14.7c-15-1.3-32.5,27.7-58.7,31.3c-7.7-9.1-7.3-26.6,2.5-34.8c-5-14.5-15.7-30.5-23-37.4
			c-4.8-0.8-10.4-1.2-14-1c3.8-8.3,14.8-17,23.6-20.5c1.4-2.1,3-4.1,4.4-5.9c0.9-11.4,54.9-6,66.4,1
			C791.3,425.4,796.3,467.8,801.9,479.3z"/>
		<g id="g2877_00000075879255278222511380000016282021116954396095_">
			<path id="path2879_00000025438787579307242230000015393220194506093750_" d="M736.4,487.1c-1.3-19.7-9.2-35.9-20.4-46.9
				c5.3,1.5,16.2,1.5,23.6-3.8c9.7-6.5,35.1-17.8,44.4-13c0.7,1.6,1.2,5.3,0.6,7.7c-2.2-5.9-26.7,3.2-33.6,6
				c-6.6,3.1-9.6,7.2-7.2,16.5c-3.8-3.2-2.5-6.3-6.5-8.7c1.6,3.8,2.9,10.8,3.4,16.4c-1.5-4-4.1-12.5-9.9-17.6
				c5,9.7,9.4,33.1,7.3,45.5c4,0,12.8-3.9,16.3-6.7c-3.1,4.4-12,7.5-17.8,8.7c-2.6,3.1-4.4,11.1-4.2,15.5
				C732,501.2,733.7,487.9,736.4,487.1z"/>
			<path id="path2881_00000148631339990979024540000017801582207507308433_" d="M801.9,479.3c-4.9-5.4-14-8.4-25.7-5.2
				c1.8-0.9,5.6-2.4,9-3c-0.4-3.1-3.2-16.4-3.7-19.6l3.2-1.3c1.6,8,3.7,17.1,5,20.8c1,0.3,3.4,0.7,5.5,1.8
				c-0.9-3.1-5.9-25.4-5.8-27.7l4.4-2.4C795.7,454.8,798.5,472.3,801.9,479.3z"/>
		</g>
		<g id="g2985_00000181809686818666613600000013017661758669418890_">
			<g>
				<path id="path2873_00000057125042166338678800000009244809989735771269_" class="st25" d="M799.2,494.7
					c2.4-7.1,0.9-13.8-9.1-14.7c-7.8-0.7-16.2,6.9-26.2,14.7H799.2z"/>
				<path id="path2883_00000031172543215186068980000008979607071510448575_" class="st25" d="M734,431.2
					c-4.4,0.6-14.3-0.3-19.3-1.9c0.3-1.3,0.8-2.7,1.5-4.2c-3.1,2.1-9,6.1-11.2,8.9C712.1,435.4,726.7,436.2,734,431.2z"/>
			</g>
		</g>
		<path id="path2885_00000101105757505481199620000012719218092426733199_" class="st26" d="M733.9,476.4c1.6,4.7,2.7,9.2,2.8,13.3"
			/>
		<path id="path2887_00000101804987214427954400000014482901987213460124_" class="st26" d="M720.5,417.6c-2.7,3.9-5,8.1-5.8,11.6
			c5,1.6,14.9,2.5,19.3,1.9"/>
		<path id="path2889_00000003809623863699989410000011518417613846575786_" class="st26" d="M710.8,439.1c1.9,0.3,3.7,0.7,5.2,1.1
			c5.3,1.5,16.2,1.5,23.6-3.8c7.4-5.3,27.4-21.8,50.2-23.6"/>
		<path id="path2891_00000074424594692461834030000001021198180782148242_" class="st26" d="M705,434c7.1,1.5,21.7,2.2,29.1-2.8
			c17.1-11.7,33.6-18.4,50.2-19.3"/>
	</g>
	<g id="g2947_00000124870857057382236710000004846635580588931483_">
		<g id="g2949_00000081621998236142470130000005860183935822290102_">
			<path id="path2951_00000057147953172311877480000017646819422549765000_" class="st27" d="M726.5,409.1c-4.4,5.3-8.8,4.4-9.7,1
				s2.4-5,1.2-8s1.9-4.3,3.4-3s6.2-3,8.3,1.5c2.1,4.4,3.7,7.5,2.5,9.3C730.9,411.8,727.4,410.9,726.5,409.1z"/>
			<path id="path2953_00000174597228573349414240000016560318013717910707_" class="st27" d="M745.5,401.2c-0.8-1.9,3.8-5.7,6.1-3
				c2.4,2.7,6.1-2.9,8.1,1.3c2.1,4.2,2.7,6.4,3.8,8.8c1,2.4-5.6,3.6-7.7,1.5c0.3,1.4-5.7,2.5-7.4-1.5
				C747.6,406.2,746.6,403.8,745.5,401.2z"/>
			<path id="path2955_00000031170508946255398570000004817177435588297887_" class="st27" d="M776.2,403.6c-1.1-2.1,4.3-5,7.1-1.3
				c0.7-1.5,6.1-1.8,6.4,2.7c0.4,4.5,0.5,7.2,0.7,8.9c0.1,1.8-3.2,3.4-5.7-1.1c-4.4,0.9-6.3-1.5-6.9-4.1
				C777.3,406.1,776.8,404.9,776.2,403.6z"/>
		</g>
		<g id="g2957_00000136371594882713464190000003061870748208623757_">
			<path id="path2959_00000147202328138965767990000016735307668490035890_" class="st27" d="M729.4,400.7c-0.7-1.5,3.8-4.4,6.8-2.2
				c3,2.2,7.2-1.9,9,2.1c3.6,8,3.8,8.6,2.7,10.2c-1.1,1.5-5.8,1-7-1.2c-0.2,1.5-4.3,1.2-6.4,0.1C732,408.3,730.3,403.3,729.4,400.7z
				"/>
			<path id="path2961_00000049908592100952220010000002563870156498229130_" class="st27" d="M760.4,401c-1-2.3,5.9-4.3,8.9-0.3
				c1.5-1.4,4.9-1.5,6.9,2.9c1.9,4.4,2.2,6.8,0.8,7.9c-1,0.8-4.6,1.4-5.8-0.6c-1.6,1-6.6,0.1-7.7-2.7
				C762.4,405.5,761.4,403,760.4,401z"/>
			<path id="path2963_00000134967484448131708160000001551942622453513151_" class="st27" d="M789.8,405.4c-0.1-2.1,3.6-3,5,0
				s5.9,0.3,6.3,5.3c0.1,1-0.5,4.6-1.9,6.4s-8.3,0-8.7-3.8C790,409.6,789.8,407.5,789.8,405.4z"/>
		</g>
		<g id="g2965_00000072963702805023076070000000962170887401116854_">
			<path id="path2967_00000170974688115606682780000005068610604571101078_" class="st26" d="M726.5,409.1c-1.6-2.2-3.8-5.8-6.6-1.9
				"/>
			<path id="path2969_00000073691960446282013000000016690254216792737924_" class="st26" d="M740.9,409.5c-1-1.3-2.2-3.3-2.7-4.9"
				/>
			<path id="path2971_00000138544876575967075690000010224772914491364506_" class="st26" d="M755.8,409.8c-1-0.7-2.6-2.2-3.4-3.8"
				/>
			<path id="path2973_00000054971498815982204240000007095661629430308507_" class="st26" d="M754.5,402.1c2.6,0.3,4.4,2.7,5.2,3.8
				c0.8,1.1,2.5,3.1,3.8,3.3"/>
			<path id="path2975_00000107581095387915307170000001528217707527502251_" class="st26" d="M771.3,410.9c-0.9-1.4-1.8-2.7-2-3.7"
				/>
			<path id="path2977_00000111911754335742196900000008406090626168592524_" class="st26" d="M769.3,400.7c0.9,1.3,1.5,2.3,2.1,3.5"
				/>
			<path id="path2979_00000048498151174159780090000011455115269808046486_" class="st26" d="M784.7,412.8c-1.2-2.2-3-4.4-4.6-5.1"
				/>
			<path id="path2981_00000142889277476754310790000018150179094515045011_" class="st26" d="M784.1,404.7c0.1,4.4,6,4.6,6.2,7.7"/>
			<path id="path2983_00000013912157110308503940000004920367019675105692_" class="st26" d="M794.8,405.4c0.6,1.1,0.8,2.2,0.9,4.1"
				/>
		</g>
	</g>
	<g>
		<path d="M704.1,369.8c-0.8-2.3-1.5-5.2-0.2-6.4c2.6-2.5,11.4,3.6,19.6,8.1c11.5,6.3,32.9,18,51.9,13.9c13.9-3,26.2-14.5,29.1-11.3
			c1,1.1,0.2,3.4,1.5,4c2.5,1.3,7.9-5.2,8.3-4.9c0.4,0.4-6.6,5.8-10.2,9.6c-16.6,17.4-48.5,20-75.9,10.1
			c-19.3-7-30.4-17.5-32.8-20.3c-6.4-7.8-8.8-15-8.7-15.1c0.2-0.1,4.7,10.9,12.9,12.3C701.5,370.2,703.1,370,704.1,369.8z"/>
		<path class="st28" d="M763.7,388.5c-3.5,2.4-49.1-28.3-48.6-68.6c0.2-12.8,5-25.2,6.2-28.5c4.5-11.6,10.4-20.1,14.8-25.6
			c3.1,4,8.9,10.3,18.2,14.6c4.1,1.9,8,3,11.2,3.6c0.8,5.9,1.2,14.5-2.1,23.7c-3.5,9.6-8.9,13.9-11.8,18.3
			c-15,23.2,12.7,58.6,13.7,59.5c0,0,0.2,0.1,0.3,0.4C765.9,386.8,763.9,388.4,763.7,388.5z"/>
		<path d="M762.5,272.3c0.7-10.2,1.5-15.3,2.5-15.3s2.2-0.2,3.6,11.3c0,38.8,0,83.4,0,122.2c-3.6,1.2-6.2,1.7-6.8,0.8
			c-0.2-0.3-0.1-0.8-0.1-0.8C762.2,388.6,762.4,344.7,762.5,272.3z"/>
		<path d="M741.3,307.2c-3-2.4-16.9,4.2-18.6,14.8c-0.9,5.4,1.7,9.9,3,12.1c5.7,9.8,18,15,20.5,12.5c1.7-1.7-0.3-7.1-3.2-10.6
			c-4-4.7-8.4-3.7-9.3-6.8c-1.1-3.9,5.7-6.7,7.7-15.9C742,310.9,742.6,308.3,741.3,307.2z"/>
	</g>
</g>
</svg>
