<?xml version="1.0" encoding="UTF-8"?>
<svg id="Layer_1" data-name="Layer 1" xmlns="http://www.w3.org/2000/svg" viewBox="0 0 2600 1700">
  <defs>
    <style>
      .cls-1 {
        fill: #079247;
      }

      .cls-1, .cls-2, .cls-3, .cls-4, .cls-5, .cls-6, .cls-7 {
        fill-rule: evenodd;
      }

      .cls-1, .cls-8, .cls-3, .cls-9, .cls-4, .cls-5, .cls-6, .cls-10 {
        stroke-width: 0px;
      }

      .cls-2 {
        fill: #1d439b;
      }

      .cls-2, .cls-7 {
        stroke: #1d439b;
        stroke-width: .75px;
      }

      .cls-8, .cls-6 {
        fill: #752c19;
      }

      .cls-3 {
        fill: #1f1a18;
      }

      .cls-9, .cls-4 {
        fill: #fff;
      }

      .cls-5, .cls-10, .cls-7 {
        fill: #c09f61;
      }
    </style>
  </defs>
  <rect class="cls-9" width="2600" height="1700"/>
  <g>
    <path id="path2224" class="cls-2" d="M1300,1565.36c-47.79-78.31-320.83-43.08-474.82-287.32-138.1-219.03-56.14-759.84-187.55-1143.4h1324.74c-131.41,383.56-49.45,924.37-187.55,1143.4-153.99,244.24-427.04,209.01-474.82,287.32h0Z"/>
    <path id="path2224_0" data-name="path2224 0" class="cls-7" d="M717.54,597.05c-12.17-159.53-31.66-321.57-79.91-462.41h1324.74c-48.25,140.84-67.74,302.88-79.91,462.41H717.54s0,0,0,0Z"/>
    <path id="path6119" class="cls-6" d="M1349.72,806.91l25.96,428.86c-1.79,53.16,80.13,76.25,155.5,17.98-29.62-44.17-45.86-79.61-30.36-116.81,15.88-38.13,141.52-160.33,169.21-165.4,31.55,35.15,181.71,347.66-76.42,319.1-87.4,153.95-246.6,129.14-295.08,168.31-48.71-48.2-198.43-31.47-287.3-166.25-208.63,20.61-150.64-184.83-80.16-321.68,43.8,15.12,280.95,164.31,134.52,279.21,77.45,86.1,166.12,34.78,169.24-17.59l16.32-427.12c-27.68-16.82-43.05-44.13-43.05-78.88,0-52.94,45.19-97.32,98.14-97.32s89.59,44.38,89.59,97.32c0,34.74-18.43,63.46-46.11,80.27h0ZM1302.43,668.17c30.57,0,56.91,24.78,56.91,55.35,0,9.55-1.04,42.48-11.55,48.07-6.26-21.72-22.1-36.69-49.33-36.87-27.23-.18-43.13,15.29-47.82,22.98-4.26-7.84-8.24-24.62-8.24-34.17,0-30.56,29.46-55.35,60.03-55.35h0Z"/>
    <path id="path6119_1" data-name="path6119 1" class="cls-4" d="M1340.99,798.28l25.96,428.86c-1.79,53.15,80.13,76.25,155.5,17.98-29.62-44.17-45.86-79.61-30.36-116.81,15.88-38.13,142.55-161.36,170.25-166.44,31.55,35.15,180.67,348.7-77.46,320.14-87.4,153.95-242.33,133.39-290.8,172.56-48.71-39.16-217.77-23.66-297.6-170.5-208.63,20.61-144.61-183.8-74.14-320.65,43.8,15.12,280.95,163.28,134.52,278.17,77.45,86.1,166.12,34.78,169.24-17.59l16.32-427.12c-27.68-16.82-43.05-44.14-43.05-78.88,0-52.94,39.82-92.76,92.78-92.76s94.34,39.82,94.34,92.76c0,34.74-17.81,63.46-45.49,80.28h0ZM1293.7,664.22c30.57,0,56.76,22.96,58.32,53.48.7,13.76,1.77,30.54-15.06,42.45-6.26-21.72-17.89-33.88-45.12-34.06-27.23-.18-45.23,15.29-49.93,22.98-4.26-7.84-8.24-24.62-8.24-34.17,0-30.56,29.46-50.67,60.03-50.67h0Z"/>
    <path id="path6119_2" data-name="path6119 2" class="cls-5" d="M1346.51,802.19l25.96,428.86c-1.79,53.15,86.36,80.92,161.74,22.66-32.74-44.17-53.66-79.61-36.6-121.49,15.58-38.26,141.52-160.33,169.21-165.4,31.55,35.15,181.71,347.66-76.42,319.1-87.4,153.95-246.6,129.14-295.08,168.31-48.71-48.2-198.43-31.47-287.3-166.25-208.63,20.61-150.64-184.83-80.16-321.68,43.8,15.12,280.95,164.31,134.52,279.21,77.45,86.1,166.12,34.77,169.24-17.6l16.32-427.12c-27.68-16.82-43.05-44.14-43.05-78.88,0-52.94,39.82-92.76,92.78-92.76s94.34,39.82,94.34,92.76c0,34.74-17.81,63.46-45.49,80.28h0ZM1299.22,663.45c30.57,0,54.82,24.86,56.91,55.35.7,10.25,1.07,34.05-13.65,41.75-6.26-21.72-20.69-28.97-47.93-29.15-27.23-.18-42.42,13.88-47.12,21.58-4.26-7.84-8.24-24.62-8.24-34.17,0-30.56,29.47-55.35,60.03-55.35h0Z"/>
    <path id="path16" class="cls-4" d="M1112.89,1281.85c75.89,28.59,134.1,17.68,140.33-67.04l9.36-254.12-10.91,1.56-7.8,258.8c-1.55,71.73-54.57,80.56-130.98,60.8h0Z"/>
    <path id="path3200" class="cls-6" d="M1301.65,966.2c-156.8,0-235.77-17.08-273.49-31.64l.46-55.54c28.96-18.5,119.68-32.73,273.03-32.73s245.98,17.35,274.94,35.85l.46,49.31c-37.71,14.56-118.6,34.76-275.4,34.76h0Z"/>
    <path id="path3200_3" data-name="path3200 3" class="cls-4" d="M1291.36,952.89c-156.8,0-235.77-15.52-273.49-30.08l.46-55.54c28.96-18.5,119.68-35.85,273.03-35.85s245.98,20.47,274.94,38.96l.46,49.31c-37.71,14.56-118.6,33.2-275.4,33.2h0Z"/>
    <path id="path3200_4" data-name="path3200 4" class="cls-5" d="M1298.44,959.93c-156.8,0-235.77-15.52-273.49-30.08l.46-55.54c28.96-18.5,119.68-32.73,273.03-32.73s245.98,17.35,274.94,35.85l.46,49.31c-37.72,14.56-118.6,33.2-275.4,33.2h0Z"/>
    <path id="rect21" class="cls-8" d="M1472.99,829.39h8.68c6.91,0,12.52,5.61,12.52,12.52v120.65c0,6.91-5.61,12.51-12.51,12.51h-8.68c-6.91,0-12.52-5.61-12.52-12.52v-120.65c0-6.91,5.61-12.51,12.51-12.51Z"/>
    <path id="rect23" class="cls-8" d="M1128.93,829.39h8.68c6.91,0,12.52,5.61,12.52,12.52v120.65c0,6.91-5.61,12.51-12.51,12.51h-8.68c-6.91,0-12.51-5.61-12.51-12.51v-120.65c0-6.91,5.61-12.51,12.51-12.51Z"/>
    <g>
      <path id="rect27" class="cls-9" d="M1457.76,820.77h8.68c6.91,0,12.52,5.61,12.52,12.52v120.65c0,6.91-5.61,12.52-12.52,12.52h-8.68c-6.91,0-12.52-5.61-12.52-12.52v-120.65c0-6.91,5.61-12.51,12.51-12.51Z"/>
      <path id="rect29" class="cls-9" d="M1113.7,820.77h8.68c6.91,0,12.52,5.61,12.52,12.52v120.65c0,6.91-5.61,12.51-12.51,12.51h-8.68c-6.91,0-12.52-5.61-12.52-12.52v-120.65c0-6.91,5.61-12.51,12.51-12.51Z"/>
      <path id="path85" class="cls-4" d="M941.37,1088.53c2.33,76.65,21.35,149.66,61.12,205.52l9.27-1.12c-24.82-32.87-60.06-107.99-70.39-204.41h0Z"/>
      <path id="path87" class="cls-4" d="M1633.57,1047.19c-2.33,76.65-49.11,160.84-106.03,212.03l-1.41-16.29c33.01-30.76,86.77-92.19,107.43-195.74h0Z"/>
      <path id="path89" class="cls-4" d="M1365.49,1224.17l-14.03-254.12c1.3,88.09,4.41,174.36,14.03,254.12Z"/>
      <path id="polygon91" class="cls-4" d="M1282.85,1444.59l7.8-117.53,1.86,125.27-9.66-7.74Z"/>
      <path id="polygon93" class="cls-4" d="M1257.9,837.53l3.12-77.95,6.24-6.24-1.56,84.19h-7.8Z"/>
      <path id="polygon95" class="cls-4" d="M1247.84,806.98l.8-56.76-3.98-6.22-2.41,59.37,5.58,3.61Z"/>
    </g>
    <path id="rect97" class="cls-10" d="M1466.39,824.68h8.68c6.91,0,12.52,5.61,12.52,12.52v120.65c0,6.91-5.61,12.51-12.51,12.51h-8.68c-6.91,0-12.52-5.61-12.52-12.52v-120.65c0-6.91,5.61-12.51,12.51-12.51Z"/>
    <path id="rect99" class="cls-10" d="M1122.33,824.68h8.68c6.91,0,12.52,5.61,12.52,12.52v120.65c0,6.91-5.61,12.51-12.51,12.51h-8.68c-6.91,0-12.52-5.61-12.52-12.52v-120.65c0-6.91,5.61-12.51,12.51-12.51Z"/>
    <g>
      <path id="path101" class="cls-6" d="M950.72,1062.03c27.55,86.27,68.61,156.94,116.95,193.32l-6.88-20.53c91.69-93.45,5.63-154.17-61.72-214.88,161.12,147.07,72.77,174.09,57.69,212.03-35.34-33.25-70.69-95.1-106.03-169.93h0Z"/>
      <path id="path103" class="cls-6" d="M1075.47,1274.06c-50.82-40.39-85.38-103.53-115.39-173.05,28.07,84.71,66.53,142.39,115.39,173.05Z"/>
      <path id="path105" class="cls-6" d="M1328.07,962.25l7.8,258.8c2.71,38.86,20.13,61.46,43.66,79.51-25.99-32.74-39.5-51.45-38.98-79.51l-6.22-258.7-6.25-.1h0Z"/>
      <path id="path107" class="cls-6" d="M1340.81,1000.47l7.8,207.83c2.71,38.86,20.13,61.46,43.66,79.51-25.99-32.74-39.5-51.45-38.98-79.51l-6.22-207.73-6.25-.1h0Z"/>
      <path id="path109" class="cls-6" d="M1625.88,1164.92c-67.57,252.56-250.52,232.3-319.65,271.27v-12.47c56.65-33.26,230.25-5.72,319.65-258.8Z"/>
      <path id="path111" class="cls-6" d="M1646.16,1058.91c-1.04,94.58-21.75,177.44-56.06,226.29l4.6,6,10.91-15.59c121.11,6.65,174.62-72.61,71.73-272.83,125.78,279.07-27.55,258.8-67.05,266.59,26.51-53.78,42.62-119.26,35.86-210.47h0Z"/>
      <path id="path113" class="cls-6" d="M1176.36,919.3c20.92-.94,42.98-1.35,65.57-.62-17.65,5.88-74.81,3.32-65.57.62Z"/>
      <path id="path115" class="cls-6" d="M1209.75,852.99c50.29-4.24,101.44-2.42,151.74,0-51.12,6.15-187.26-.76-151.74,0h0Z"/>
      <path id="path117" class="cls-6" d="M1348.34,653.56c47.16,35.03,37.02,110.01-1.98,133.5,53.56-29.64,45.98-111.61,1.98-133.5Z"/>
      <path id="path119" class="cls-6" d="M1234.85,752.17c-12.09-38.79-.2-70.59,34.91-95.61-40.8,26.72-49.82,59.06-34.91,95.61Z"/>
      <path id="path121" class="cls-6" d="M1474.48,840.62c.11-2.5.42-6.87-2.18-9.69,3.54,1.56,6.67,3.54,6.87,8.44v115.67c-1.25,4.28-3.23,5.63-5.31,6.56,1.28-2.19,1.13-5.63.62-7.81v-113.17h0Z"/>
      <path id="path123" class="cls-6" d="M1131.05,839.99c.11-2.5-.2-6.25-2.81-9.06,3.54,1.56,6.67,3.54,6.87,8.44v115.67c-1.25,4.28-3.22,5.63-5.31,6.56,1.28-2.19,1.75-4.38,1.25-6.56v-115.04h0Z"/>
      <path id="polygon125" class="cls-6" d="M1304.94,1447.9l-6.24-113.04-3.72,119.88,9.96-6.84Z"/>
      <path id="path127" class="cls-6" d="M1209.75,903.96c50.29-4.24,101.44-2.42,151.74,0-51.12,6.15-187.26-.76-151.74,0h0Z"/>
      <path id="path129" class="cls-6" d="M1215.99,936.56c50.29-4.24,101.44-2.42,151.74,0-51.12,6.15-187.26-.76-151.74,0Z"/>
      <path id="path131" class="cls-6" d="M1333.01,886.85c20.92-.94,42.98-1.35,65.57-.62-17.65,5.88-74.81,3.32-65.57.62Z"/>
      <path id="path133" class="cls-6" d="M1394.55,896.84c15.63-.94,32.12-1.35,48.99-.62-13.19,5.88-55.9,3.32-48.99.62Z"/>
      <path id="path135" class="cls-6" d="M1380.19,851.28c15.63-.94,32.12-1.35,48.99-.62-13.19,5.88-55.9,3.32-48.99.62Z"/>
      <path id="path137" class="cls-6" d="M1144.91,858.15c15.63-.94,32.12-1.35,48.99-.62-13.19,5.88-55.9,3.32-48.99.62Z"/>
      <path id="path139" class="cls-6" d="M1326.52,866.88c15.63-.94,32.12-1.35,48.99-.62-13.19,5.88-55.9,3.32-48.99.62Z"/>
      <path id="path141" class="cls-6" d="M1332.76,920.55c15.63-.94,32.12-1.35,48.99-.62-13.19,5.88-55.9,3.32-48.99.62Z"/>
      <path id="path143" class="cls-6" d="M1490.66,906.82c15.63-.94,32.12-1.35,48.99-.62-13.19,5.88-55.9,3.32-48.99.62Z"/>
      <path id="path145" class="cls-6" d="M1151.22,878.37c40.62-4.24,81.94-2.42,122.56,0-41.29,6.15-151.25-.76-122.56,0Z"/>
      <path id="path147" class="cls-6" d="M1273.33,919.92c12.69-.94,26.07-1.35,39.77,0-11.33,4.01-45.38,2.7-39.77,0Z"/>
      <path id="path149" class="cls-6" d="M1059.27,904.32c12.69-.94,26.07-1.35,39.77,0-11.33,4.01-45.38,2.7-39.77,0Z"/>
      <path id="path151" class="cls-6" d="M1073.98,877.49c7.2-.94,14.79-1.35,22.56,0-6.43,4.01-25.74,2.7-22.56,0Z"/>
      <path id="path153" class="cls-6" d="M1392.28,865.64c7.2-.94,14.79-1.35,22.56,0-6.43,4.01-25.74,2.7-22.56,0Z"/>
      <path id="path155" class="cls-6" d="M1395.4,913.06c7.2-.94,14.79-1.35,22.56,0-6.43,4.01-25.74,2.7-22.56,0Z"/>
      <path id="path157" class="cls-6" d="M1508.99,879.99c7.2-.94,14.79-1.35,22.56,0-6.43,4.01-25.74,2.7-22.56,0Z"/>
      <path id="path159" class="cls-6" d="M1490.89,922.42c7.2-.94,14.79-1.35,22.56,0-6.43,4.01-25.74,2.7-22.56,0Z"/>
      <path id="path161" class="cls-6" d="M1524.59,914.93c7.2-.94,14.79-1.35,22.56,0-6.43,4.01-25.73,2.7-22.56,0Z"/>
      <path id="path163" class="cls-6" d="M1316.58,733.65c2.15,31.52,6.75,48.61,6.45,94.55h4.3c.78-41.9-3.36-70.7-10.75-94.55h0Z"/>
      <path id="path165" class="cls-6" d="M1343.08,774.17c.67,8.84,1.78,10.02,3.38,27.94h2.4c-1.12-11.37-3.99-20.67-5.78-27.94h0Z"/>
      <path id="path167" class="cls-6" d="M1330.09,758.52c3.49,30.54,5.86,25.28,6.75,73.37h3.68c-1.61-41.5-4.06-52.79-10.44-73.37Z"/>
      <path id="path25" class="cls-6" d="M1560.07,919.02c-129.37,35.35-382.23,37.42-525.77,0,140.77,47.4,431.03,39.27,525.77,0Z"/>
    </g>
    <g>
      <g id="_96315328" data-name=" 96315328">
        <path id="path4131" class="cls-3" d="M1335.37,574.89l-32.77,2.06c-9.38-17.53-15.02-45.75-13.89-82.69-11.62,13.8-30.4,28.37-49.07,35.12l3.32-15.24c-14.82,5.06-29.65,5.72-44.48,1.97l15.91-17.21c-15.71,1.49-31.42-5.83-47.13-21.98l11.95-8.59c-11.71-7.74-21.21-16.14-25.87-29.17l8.61.57c-9.49-12.37-15.68-30.48-19.89-46.38l19.22,5.96c-10.92-17.26-13.34-34.51-11.92-51.77l13.26,4.65c-1.97-15.92-.42-29.86,4.66-45.78l15.91,9.96c0-15.25,1.56-28.74,8.62-40.46l17.27,7.25c3.12-15.7,9.76-30.52,19.93-44.46l10.6,13.93c7.09-15.7,15.73-33.16,24.59-47.1l9.94,9.96c8.4-22.97,26.06-38.02,33.14-57.02,7.08,19.01,17.83,22.81,19.62,47.11l11.92-3.35c8.86,13.94,8.9,22.81,16,38.51l17.88-13.27c10.17,13.94,6.23,19.5,9.35,35.21l19.26-5.93c7.06,11.73,4.65,21.91,4.66,37.16l21.86-3.35c5.08,15.92,13.91,37.13,11.94,53.05l13.92-7.95c1.43,17.26,4.29,33.86-6.63,51.11l14.59-3.32c-4.21,15.9-8.41,40.62-17.91,52.99l15.23-2.56c-4.66,13.03-14.82,32.67-26.53,40.41l14.59,9.92c-6.45,2.92-12.24,10.24-25.3,8.75l2.03,21.18c-14.83,3.75-34.28,5.08-49.11.02l3.32,15.24c-51.73-1.46-50.02-16.03-72.88-23.22,1.13,36.93,15.85,55.17,30.27,68.73h0Z"/>
        <path id="path4131_5" data-name="path4131 5" class="cls-4" d="M1324.18,562.15l-32.77,2.06c-9.38-17.53-15.02-45.75-13.89-82.69-11.62,13.8-30.4,28.37-49.07,35.12l3.32-15.24c-14.82,5.06-29.65,5.72-44.48,1.97l15.91-17.21c-15.71,1.49-31.42-5.83-47.13-21.97l11.95-8.59c-11.71-7.74-21.21-16.14-25.87-29.17l8.61.57c-9.49-12.37-15.68-30.48-19.89-46.38l19.21,5.96c-10.92-17.26-13.34-34.51-11.92-51.77l13.26,4.65c-1.97-15.92-.42-29.86,4.66-45.78l15.91,9.96c0-15.25,1.56-28.74,8.62-40.46l17.27,7.25c3.12-15.7,9.76-30.52,19.93-44.46l10.6,13.93c7.09-15.7,15.73-33.16,24.59-47.1l9.94,9.96c8.4-22.98,26.06-38.02,33.14-57.02,7.08,19.01,17.83,22.81,19.62,47.11l11.92-3.35c8.86,13.94,8.9,22.81,16,38.51l17.88-13.27c10.17,13.94,6.23,19.51,9.35,35.21l19.26-5.93c7.06,11.73,4.65,21.91,4.66,37.16l21.86-3.35c5.08,15.92,13.91,37.13,11.94,53.05l13.92-7.95c1.43,17.26,4.29,33.85-6.63,51.11l14.59-3.32c-4.21,15.9-8.41,40.62-17.91,52.99l15.23-2.56c-4.66,13.03-14.82,32.67-26.53,40.41l14.59,9.92c-6.45,2.92-12.24,10.24-25.3,8.75l2.03,21.18c-14.83,3.75-34.28,5.08-49.11.02l3.32,15.24c-51.73-1.46-50.02-16.03-72.88-23.22,1.13,36.93,15.85,55.17,30.27,68.73h0Z"/>
        <path id="path4131_6" data-name="path4131 6" class="cls-1" d="M1330.69,570.22l-32.77,2.06c-9.38-17.53-15.02-45.75-13.89-82.69-11.62,13.8-30.4,28.37-49.07,35.12l3.32-15.24c-14.82,5.06-29.65,5.72-44.48,1.97l15.91-17.21c-15.71,1.49-31.42-5.83-47.13-21.98l11.95-8.59c-11.71-7.74-21.21-16.14-25.87-29.17l8.61.57c-9.49-12.37-15.68-30.48-19.89-46.38l19.22,5.96c-10.92-17.26-13.34-34.51-11.92-51.77l13.26,4.65c-1.97-15.92-.42-29.86,4.66-45.78l15.91,9.96c0-15.25,1.56-28.74,8.62-40.46l17.27,7.25c3.12-15.7,9.76-30.52,19.93-44.46l10.6,13.93c7.09-15.7,15.73-33.16,24.59-47.1l9.94,9.96c8.4-22.97,26.06-38.02,33.14-57.02,7.08,19.01,17.83,22.81,19.62,47.11l11.92-3.35c8.86,13.94,8.9,22.81,16,38.51l17.88-13.27c10.17,13.94,6.23,19.5,9.35,35.21l19.26-5.93c7.06,11.73,4.65,21.91,4.66,37.16l21.86-3.35c5.08,15.92,13.91,37.13,11.94,53.05l13.92-7.95c1.43,17.26,4.29,33.86-6.63,51.11l14.59-3.32c-4.21,15.9-8.41,40.62-17.91,52.99l15.23-2.56c-4.66,13.03-14.82,32.67-26.53,40.41l14.59,9.92c-6.45,2.92-12.24,10.24-25.3,8.75l2.03,21.18c-14.83,3.75-34.28,5.08-49.11.02l3.32,15.24c-51.73-1.46-50.02-16.03-72.88-23.22,1.13,36.93,15.85,55.17,30.27,68.73h0Z"/>
        <path id="_81300160" data-name=" 81300160" class="cls-4" d="M1296.69,181.59c2.2,135.09-21.38,329.02-3.31,383.46l-15.21-15.87c-1.76-108.65,12.34-245.06,18.51-367.59h0Z"/>
        <path id="_81301024" data-name=" 81301024" class="cls-3" d="M1328.43,571.66l5.95-11.24c-52.22-30.09-15.44-199.71-33.06-368.91,5.57,274.55-24.87,315.91,27.11,380.15h0Z"/>
        <path id="_81301312" data-name=" 81301312" class="cls-3" d="M1324.47,220.6c1.98,27.55-10.58,29.97-19.84,44.96l-.66-9.92c6.83-11.68,17.63-3.53,20.5-35.04h0Z"/>
        <path id="_80494784" data-name=" 80494784" class="cls-3" d="M1353.56,241.81c1.98,31.51-39.67,59.72-48.93,74.71l-.66-9.92c6.83-11.68,44.08-31.96,49.59-64.79h0Z"/>
        <path id="_96327640" data-name=" 96327640" class="cls-3" d="M1387.28,287.67c1.98,31.51-73.4,77.57-82.65,92.56l-.66-9.92c9.48-16.97,77.81-49.81,83.31-82.64h0Z"/>
        <path id="_81301816" data-name=" 81301816" class="cls-3" d="M1408.44,348.49c.66,48.04-97.2,67.66-106.46,82.64l-.66-9.92c7.49-12.34,94.34-22.7,107.12-72.72h0Z"/>
        <path id="_81298720" data-name=" 81298720" class="cls-3" d="M1434.89,401.38c-13.89,63.25-121.01,47.82-132.91,60.16l-.66-9.92c12.78-9.7,105.58,10.36,133.57-50.25h0Z"/>
        <path id="_80495672" data-name=" 80495672" class="cls-3" d="M1401.17,487.33c-41,16.31-77.36-7.05-97.2-1.32l-.66-9.92c27.27.16,43.71,21.89,97.86,11.24h0Z"/>
        <path id="_96328360" data-name=" 96328360" class="cls-4" d="M1273.1,219.28c-1.98,27.55,10.58,29.97,19.84,44.96l.66-9.92c-6.83-11.68-17.63-3.53-20.5-35.04h0Z"/>
        <path id="_96320920" data-name=" 96320920" class="cls-4" d="M1250.47,243.14c.01,30.19,33.74,56.85,39.67,74.05l.66-9.92c-4.68-15.99-33.44-34.05-40.34-64.13h0Z"/>
        <path id="_80338712" data-name=" 80338712" class="cls-4" d="M1222.7,270.24c-4.95,35.15,43.76,79.88,53.56,93.22l.66-9.92c-7.16-8.55-50.14-44.8-54.22-83.3h0Z"/>
        <path id="_81301168" data-name=" 81301168" class="cls-4" d="M1181.35,326.5c-.66,43.02,85.3,64.94,94.56,87.27l.66-9.92c-4.21-17.81-80.41-30.7-95.22-77.35h0Z"/>
        <path id="_96327136" data-name=" 96327136" class="cls-4" d="M1166.43,411.67c33.72,27.77,59.51,23.8,105.14,33.72v5.95c-54.55-9.81-79.02-12.23-105.14-39.67h0Z"/>
        <path id="_96321184" data-name=" 96321184" class="cls-4" d="M1179.65,459.93c33.72,26.45,56.87,19.17,89.27,19.17v5.95c-38.68-.55-63.15,2.31-89.27-25.12Z"/>
      </g>
      <g id="_96319456" data-name=" 96319456">
        <path id="path4131_7" data-name="path4131 7" class="cls-3" d="M940.33,574.89l-32.77,2.06c-9.38-17.53-15.02-45.75-13.89-82.69-11.62,13.8-30.4,28.37-49.07,35.12l3.32-15.24c-14.82,5.06-29.65,5.72-44.48,1.97l15.91-17.21c-15.71,1.49-31.41-5.83-47.12-21.98l11.95-8.59c-11.71-7.74-21.21-16.14-25.87-29.17l8.61.57c-9.5-12.37-15.68-30.48-19.89-46.38l19.21,5.96c-10.92-17.26-13.34-34.51-11.92-51.77l13.26,4.65c-1.97-15.92-.42-29.86,4.66-45.78l15.91,9.96c0-15.25,1.56-28.74,8.62-40.46l17.27,7.25c3.12-15.7,9.76-30.52,19.93-44.46l10.6,13.93c7.09-15.7,15.73-33.16,24.59-47.1l9.94,9.96c8.4-22.97,26.06-38.02,33.14-57.02,7.08,19.01,17.83,22.81,19.62,47.11l11.92-3.35c8.86,13.94,8.9,22.81,16,38.51l17.88-13.27c10.17,13.94,6.23,19.5,9.35,35.21l19.26-5.93c7.06,11.73,4.65,21.91,4.66,37.16l21.86-3.35c5.08,15.92,13.91,37.13,11.94,53.05l13.92-7.95c1.43,17.26,4.29,33.86-6.63,51.11l14.59-3.32c-4.21,15.9-8.41,40.62-17.91,52.99l15.23-2.56c-4.66,13.03-14.82,32.67-26.53,40.41l14.59,9.92c-6.45,2.92-12.24,10.24-25.3,8.75l2.03,21.18c-14.83,3.75-34.28,5.08-49.11.02l3.32,15.24c-51.73-1.46-50.02-16.03-72.88-23.22,1.13,36.93,15.85,55.17,30.27,68.73h0Z"/>
        <path id="path4131_8" data-name="path4131 8" class="cls-4" d="M929.15,562.15l-32.77,2.06c-9.38-17.53-15.02-45.75-13.89-82.69-11.62,13.8-30.4,28.37-49.07,35.12l3.32-15.24c-14.82,5.06-29.65,5.72-44.48,1.97l15.91-17.21c-15.71,1.49-31.42-5.83-47.13-21.97l11.95-8.59c-11.71-7.74-21.21-16.14-25.87-29.17l8.61.57c-9.49-12.37-15.68-30.48-19.89-46.38l19.22,5.96c-10.92-17.26-13.34-34.51-11.92-51.77l13.26,4.65c-1.97-15.92-.42-29.86,4.66-45.78l15.91,9.96c0-15.25,1.56-28.74,8.62-40.46l17.27,7.25c3.12-15.7,9.76-30.52,19.93-44.46l10.6,13.93c7.09-15.7,15.73-33.16,24.59-47.1l9.94,9.96c8.4-22.98,26.06-38.02,33.14-57.02,7.08,19.01,17.83,22.81,19.62,47.11l11.92-3.35c8.86,13.94,8.9,22.81,16,38.51l17.88-13.27c10.17,13.94,6.23,19.51,9.35,35.21l19.26-5.93c7.06,11.73,4.65,21.91,4.66,37.16l21.86-3.35c5.08,15.92,13.91,37.13,11.94,53.05l13.92-7.95c1.43,17.26,4.29,33.85-6.63,51.11l14.59-3.32c-4.21,15.9-8.41,40.62-17.91,52.99l15.23-2.56c-4.66,13.03-14.82,32.67-26.53,40.41l14.59,9.92c-6.45,2.92-12.24,10.24-25.3,8.75l2.03,21.18c-14.83,3.75-34.28,5.08-49.11.02l3.32,15.24c-51.73-1.46-50.02-16.03-72.88-23.22,1.13,36.93,15.85,55.17,30.27,68.73h0Z"/>
        <path id="path4131_9" data-name="path4131 9" class="cls-1" d="M935.65,570.22l-32.77,2.06c-9.38-17.53-15.02-45.75-13.89-82.69-11.62,13.8-30.4,28.37-49.07,35.12l3.32-15.24c-14.82,5.06-29.65,5.72-44.48,1.97l15.91-17.21c-15.71,1.49-31.41-5.83-47.12-21.98l11.95-8.59c-11.71-7.74-21.21-16.14-25.87-29.17l8.61.57c-9.5-12.37-15.68-30.48-19.89-46.38l19.21,5.96c-10.92-17.26-13.34-34.51-11.92-51.77l13.26,4.65c-1.97-15.92-.42-29.86,4.66-45.78l15.91,9.96c0-15.25,1.56-28.74,8.62-40.46l17.27,7.25c3.12-15.7,9.76-30.52,19.93-44.46l10.6,13.93c7.09-15.7,15.73-33.16,24.59-47.1l9.94,9.96c8.4-22.97,26.06-38.02,33.14-57.02,7.08,19.01,17.83,22.81,19.62,47.11l11.92-3.35c8.86,13.94,8.9,22.81,16,38.51l17.88-13.27c10.17,13.94,6.23,19.5,9.35,35.21l19.26-5.93c7.06,11.73,4.65,21.91,4.66,37.16l21.86-3.35c5.08,15.92,13.91,37.13,11.94,53.05l13.92-7.95c1.43,17.26,4.29,33.86-6.63,51.11l14.59-3.32c-4.21,15.9-8.41,40.62-17.91,52.99l15.23-2.56c-4.66,13.03-14.82,32.67-26.53,40.41l14.59,9.92c-6.45,2.92-12.24,10.24-25.3,8.75l2.03,21.18c-14.83,3.75-34.28,5.08-49.11.02l3.32,15.24c-51.73-1.46-50.02-16.03-72.88-23.22,1.13,36.93,15.85,55.17,30.27,68.73h0Z"/>
        <path id="_81301240" data-name=" 81301240" class="cls-4" d="M901.66,181.59c2.2,135.09-21.38,329.02-3.31,383.46l-15.21-15.87c-1.76-108.65,12.34-245.06,18.51-367.59h0Z"/>
        <path id="_81300016" data-name=" 81300016" class="cls-3" d="M933.4,571.66l5.95-11.24c-52.22-30.09-15.44-199.71-33.06-368.91,5.57,274.55-24.87,315.91,27.11,380.15h0Z"/>
        <path id="_81300832" data-name=" 81300832" class="cls-3" d="M929.43,220.6c1.98,27.55-10.58,29.97-19.84,44.96l-.66-9.92c6.83-11.68,17.63-3.53,20.5-35.04h0Z"/>
        <path id="_96319168" data-name=" 96319168" class="cls-3" d="M958.52,241.81c1.98,31.51-39.67,59.72-48.93,74.71l-.66-9.92c6.83-11.68,44.08-31.96,49.59-64.79h0Z"/>
        <path id="_96328048" data-name=" 96328048" class="cls-3" d="M992.25,287.67c1.98,31.51-73.4,77.57-82.65,92.56l-.66-9.92c9.48-16.97,77.81-49.81,83.31-82.64h0Z"/>
        <path id="_96327280" data-name=" 96327280" class="cls-3" d="M1013.41,348.49c.66,48.04-97.2,67.66-106.46,82.64l-.66-9.92c7.49-12.34,94.34-22.7,107.12-72.72h0Z"/>
        <path id="_96327952" data-name=" 96327952" class="cls-3" d="M1039.86,401.38c-13.89,63.25-121.01,47.82-132.91,60.16l-.66-9.92c12.78-9.7,105.58,10.36,133.57-50.25h0Z"/>
        <path id="_81301072" data-name=" 81301072" class="cls-3" d="M1006.14,487.33c-41,16.31-77.36-7.05-97.2-1.32l-.66-9.92c27.27.16,43.71,21.89,97.86,11.24h0Z"/>
        <path id="_81301456" data-name=" 81301456" class="cls-4" d="M878.06,219.28c-1.98,27.55,10.58,29.97,19.84,44.96l.66-9.92c-6.83-11.68-17.63-3.53-20.5-35.04h0Z"/>
        <path id="_96318832" data-name=" 96318832" class="cls-4" d="M855.44,243.14c.01,30.19,33.74,56.85,39.67,74.05l.66-9.92c-4.68-15.99-33.44-34.05-40.34-64.13h0Z"/>
        <path id="_80494736" data-name=" 80494736" class="cls-4" d="M827.66,270.24c-4.95,35.15,43.76,79.88,53.56,93.22l.66-9.92c-7.16-8.55-50.14-44.8-54.22-83.3h0Z"/>
        <path id="_80492720" data-name=" 80492720" class="cls-4" d="M786.31,326.5c-.66,43.02,85.3,64.94,94.56,87.27l.66-9.92c-4.21-17.81-80.41-30.7-95.22-77.35h0Z"/>
        <path id="_96324664" data-name=" 96324664" class="cls-4" d="M771.4,411.67c33.72,27.77,59.51,23.8,105.14,33.72v5.95c-54.55-9.81-79.02-12.23-105.14-39.67h0Z"/>
        <path id="_78727800" data-name=" 78727800" class="cls-4" d="M784.62,459.93c33.72,26.45,56.87,19.17,89.27,19.17v5.95c-38.68-.55-63.15,2.31-89.27-25.12Z"/>
      </g>
      <g id="_80335712" data-name=" 80335712">
        <path id="path4131_10" data-name="path4131 10" class="cls-3" d="M1730.4,574.89l-32.77,2.06c-9.38-17.53-15.02-45.75-13.89-82.69-11.62,13.8-30.4,28.37-49.07,35.12l3.32-15.24c-14.82,5.06-29.65,5.72-44.48,1.97l15.91-17.21c-15.71,1.49-31.42-5.83-47.13-21.98l11.95-8.59c-11.71-7.74-21.21-16.14-25.87-29.17l8.61.57c-9.49-12.37-15.68-30.48-19.89-46.38l19.22,5.96c-10.92-17.26-13.34-34.51-11.92-51.77l13.26,4.65c-1.97-15.92-.42-29.86,4.66-45.78l15.91,9.96c0-15.25,1.56-28.74,8.62-40.46l17.27,7.25c3.12-15.7,9.76-30.52,19.93-44.46l10.6,13.93c7.09-15.7,15.73-33.16,24.59-47.1l9.94,9.96c8.4-22.97,26.06-38.02,33.14-57.02,7.08,19.01,17.83,22.81,19.62,47.11l11.92-3.35c8.86,13.94,8.9,22.81,16,38.51l17.88-13.27c10.17,13.94,6.23,19.5,9.35,35.21l19.26-5.93c7.06,11.73,4.65,21.91,4.66,37.16l21.86-3.35c5.08,15.92,13.91,37.13,11.94,53.05l13.92-7.95c1.43,17.26,4.29,33.86-6.63,51.11l14.59-3.32c-4.21,15.9-8.41,40.62-17.91,52.99l15.23-2.56c-4.66,13.03-14.82,32.67-26.53,40.41l14.59,9.92c-6.45,2.92-12.24,10.24-25.3,8.75l2.03,21.18c-14.83,3.75-34.28,5.08-49.11.02l3.32,15.24c-51.73-1.46-50.02-16.03-72.88-23.22,1.13,36.93,15.85,55.17,30.27,68.73h0Z"/>
        <path id="path4131_11" data-name="path4131 11" class="cls-4" d="M1719.21,562.15l-32.77,2.06c-9.38-17.53-15.02-45.75-13.89-82.69-11.62,13.8-30.4,28.37-49.07,35.12l3.32-15.24c-14.82,5.06-29.65,5.72-44.48,1.97l15.91-17.21c-15.71,1.49-31.41-5.83-47.12-21.97l11.95-8.59c-11.71-7.74-21.21-16.14-25.87-29.17l8.61.57c-9.49-12.37-15.68-30.48-19.89-46.38l19.21,5.96c-10.92-17.26-13.34-34.51-11.92-51.77l13.26,4.65c-1.97-15.92-.42-29.86,4.66-45.78l15.91,9.96c0-15.25,1.56-28.74,8.62-40.46l17.27,7.25c3.12-15.7,9.76-30.52,19.93-44.46l10.6,13.93c7.09-15.7,15.73-33.16,24.59-47.1l9.94,9.96c8.4-22.98,26.06-38.02,33.14-57.02,7.08,19.01,17.83,22.81,19.62,47.11l11.92-3.35c8.86,13.94,8.9,22.81,16,38.51l17.88-13.27c10.17,13.94,6.23,19.51,9.35,35.21l19.26-5.93c7.06,11.73,4.65,21.91,4.66,37.16l21.86-3.35c5.08,15.92,13.91,37.13,11.94,53.05l13.92-7.95c1.43,17.26,4.29,33.85-6.63,51.11l14.59-3.32c-4.21,15.9-8.41,40.62-17.91,52.99l15.23-2.56c-4.66,13.03-14.82,32.67-26.53,40.41l14.59,9.92c-6.45,2.92-12.24,10.24-25.3,8.75l2.03,21.18c-14.83,3.75-34.28,5.08-49.11.02l3.32,15.24c-51.73-1.46-50.02-16.03-72.88-23.22,1.13,36.93,15.85,55.17,30.27,68.73h0Z"/>
        <path id="path4131_12" data-name="path4131 12" class="cls-1" d="M1725.72,570.22l-32.77,2.06c-9.38-17.53-15.02-45.75-13.89-82.69-11.62,13.8-30.4,28.37-49.07,35.12l3.32-15.24c-14.82,5.06-29.65,5.72-44.48,1.97l15.91-17.21c-15.71,1.49-31.42-5.83-47.13-21.98l11.95-8.59c-11.71-7.74-21.21-16.14-25.87-29.17l8.61.57c-9.49-12.37-15.68-30.48-19.89-46.38l19.22,5.96c-10.92-17.26-13.34-34.51-11.92-51.77l13.26,4.65c-1.97-15.92-.42-29.86,4.66-45.78l15.91,9.96c0-15.25,1.56-28.74,8.62-40.46l17.27,7.25c3.12-15.7,9.76-30.52,19.93-44.46l10.6,13.93c7.09-15.7,15.73-33.16,24.59-47.1l9.94,9.96c8.4-22.97,26.06-38.02,33.14-57.02,7.08,19.01,17.83,22.81,19.62,47.11l11.92-3.35c8.86,13.94,8.9,22.81,16,38.51l17.88-13.27c10.17,13.94,6.23,19.5,9.35,35.21l19.26-5.93c7.06,11.73,4.65,21.91,4.66,37.16l21.86-3.35c5.08,15.92,13.91,37.13,11.94,53.05l13.92-7.95c1.43,17.26,4.29,33.86-6.63,51.11l14.59-3.32c-4.21,15.9-8.41,40.62-17.91,52.99l15.23-2.56c-4.66,13.03-14.82,32.67-26.53,40.41l14.59,9.92c-6.45,2.92-12.24,10.24-25.3,8.75l2.03,21.18c-14.83,3.75-34.28,5.08-49.11.02l3.32,15.24c-51.73-1.46-50.02-16.03-72.88-23.22,1.13,36.93,15.85,55.17,30.27,68.73h0Z"/>
        <path id="_96321904" data-name=" 96321904" class="cls-4" d="M1691.73,181.59c2.2,135.09-21.38,329.02-3.31,383.46l-15.21-15.87c-1.76-108.65,12.34-245.06,18.51-367.59h0Z"/>
        <path id="_96324400" data-name=" 96324400" class="cls-3" d="M1723.46,571.66l5.95-11.24c-52.22-30.09-15.44-199.71-33.06-368.91,5.57,274.55-24.87,315.91,27.11,380.15h0Z"/>
        <path id="_96323272" data-name=" 96323272" class="cls-3" d="M1719.5,220.6c1.98,27.55-10.58,29.97-19.84,44.96l-.66-9.92c6.83-11.68,17.63-3.53,20.5-35.04h0Z"/>
        <path id="_96325384" data-name=" 96325384" class="cls-3" d="M1748.59,241.81c1.98,31.51-39.67,59.72-48.93,74.71l-.66-9.92c6.83-11.68,44.08-31.96,49.59-64.79h0Z"/>
        <path id="_96325696" data-name=" 96325696" class="cls-3" d="M1782.31,287.67c1.98,31.51-73.4,77.57-82.65,92.56l-.66-9.92c9.48-16.97,77.81-49.81,83.31-82.64h0Z"/>
        <path id="_96326848" data-name=" 96326848" class="cls-3" d="M1803.47,348.49c.66,48.04-97.2,67.66-106.46,82.64l-.66-9.92c7.49-12.34,94.34-22.7,107.12-72.72h0Z"/>
        <path id="_96323920" data-name=" 96323920" class="cls-3" d="M1829.92,401.38c-13.89,63.25-121,47.82-132.91,60.16l-.66-9.92c12.78-9.7,105.58,10.36,133.57-50.25h0Z"/>
        <path id="_96320848" data-name=" 96320848" class="cls-3" d="M1796.2,487.33c-41,16.31-77.36-7.05-97.2-1.32l-.66-9.92c27.27.16,43.71,21.89,97.86,11.24h0Z"/>
        <path id="_96320344" data-name=" 96320344" class="cls-4" d="M1668.13,219.28c-1.98,27.55,10.58,29.97,19.84,44.96l.66-9.92c-6.83-11.68-17.63-3.53-20.5-35.04h0Z"/>
        <path id="_96326296" data-name=" 96326296" class="cls-4" d="M1645.5,243.14c.01,30.19,33.74,56.85,39.67,74.05l.66-9.92c-4.68-15.99-33.44-34.05-40.34-64.13h0Z"/>
        <path id="_96324544" data-name=" 96324544" class="cls-4" d="M1617.73,270.24c-4.95,35.15,43.76,79.88,53.56,93.22l.66-9.92c-7.16-8.55-50.14-44.8-54.22-83.3h0Z"/>
        <path id="_96322576" data-name=" 96322576" class="cls-4" d="M1576.38,326.5c-.66,43.02,85.3,64.94,94.56,87.27l.66-9.92c-4.21-17.81-80.41-30.7-95.22-77.35h0Z"/>
        <path id="_96328576" data-name=" 96328576" class="cls-4" d="M1561.46,411.67c33.72,27.77,59.51,23.8,105.14,33.72v5.95c-54.55-9.81-79.02-12.23-105.14-39.67h0Z"/>
        <path id="_81301528" data-name=" 81301528" class="cls-4" d="M1574.69,459.93c33.72,26.45,56.87,19.17,89.27,19.17v5.95c-38.68-.55-63.15,2.31-89.27-25.12Z"/>
      </g>
    </g>
  </g>
</svg>