<?xml version="1.0" encoding="UTF-8"?>
<svg style="enable-background:new 0 0 1499.4 899.6" version="1.1" viewBox="0 0 1499.4 899.6" xml:space="preserve" xmlns="http://www.w3.org/2000/svg">
<style type="text/css">
	.st0{fill:#FFFFFF;}
	.st1{fill:#C8C9C7;stroke:#231F20;stroke-width:2;stroke-linecap:round;stroke-miterlimit:10;}
	.st2{fill:#26136A;}
	.st3{fill:#FFFFFF;stroke:#231F20;stroke-width:2;stroke-linecap:round;stroke-miterlimit:10;}
	.st4{fill:#BEBDBE;stroke:#9F9BA0;stroke-width:3;stroke-miterlimit:10;}
	.st5{fill:#CE142C;}
	.st6{fill:#C8C9C7;}
	.st7{fill-rule:evenodd;clip-rule:evenodd;fill:#EFBD31;stroke:#000000;stroke-width:0.75;}
	.st8{fill-rule:evenodd;clip-rule:evenodd;}
	.st9{fill-rule:evenodd;clip-rule:evenodd;fill:#0000FF;stroke:#650000;stroke-width:1.075;}
	.st10{fill-rule:evenodd;clip-rule:evenodd;fill:#FFCD00;stroke:#650000;stroke-width:1.2008;}
	.st11{fill:none;stroke:#650000;stroke-width:1.2996;}
	.st12{fill:none;stroke:url(#path940_00000029728382442688520040000013056647045039831481_);stroke-width:1.2827;}
	.st13{fill:none;stroke:#650000;stroke-width:1.1928;}
	.st14{fill:none;stroke:#650000;stroke-width:1.2008;}
	.st15{fill:none;stroke:#650000;stroke-width:1.0925;}
	
		.st16{fill:none;stroke:url(#path946_00000138536851507284336160000008044708986734695352_);stroke-width:1.2218;stroke-opacity:0.2611;}
	.st17{fill:none;stroke:#650000;stroke-width:1.4801;stroke-opacity:8.920001e-02;}
	.st18{fill:none;stroke:#650000;stroke-width:1.4956;}
	.st19{fill:none;stroke:#650000;stroke-width:1.1431;}
	.st20{fill:none;stroke:#650000;stroke-width:1.2008;stroke-linecap:round;}
	.st21{fill:none;stroke:#650000;stroke-width:1.097;}
	.st22{fill:none;stroke:#650000;stroke-width:1.2103;}
	.st23{fill-rule:evenodd;clip-rule:evenodd;fill:#0000FF;stroke:#650000;stroke-width:1.2644;}
	.st24{fill:none;stroke:#650000;stroke-width:1.3607;}
	.st25{fill:none;stroke:#650000;stroke-width:1.1053;}
	.st26{fill:none;stroke:#650000;stroke-width:1.2008;stroke-opacity:0.3;}
	.st27{fill:none;stroke:#650000;stroke-width:2.5972;stroke-linecap:round;stroke-opacity:0.1019;}
	.st28{fill:none;stroke:#650000;stroke-width:1.2008;stroke-opacity:0.2994;}
	.st29{fill:none;stroke:#650000;stroke-width:1.4801;stroke-opacity:9.549997e-02;}
	.st30{fill:none;stroke:#650000;stroke-width:2.3321;stroke-linecap:round;}
	.st31{fill:none;stroke:#650000;stroke-width:1.8917;stroke-linecap:round;}
	.st32{fill:none;stroke:#660000;stroke-width:1.4382;}
	.st33{fill:none;stroke:#660000;stroke-width:1.2615;}
	.st34{fill:#390000;fill-opacity:0.5987;}
	.st35{fill:#390000;fill-opacity:0.1;}
	
		.st36{fill:none;stroke:url(#path1016_00000023995553932114439610000011423466812330100380_);stroke-width:1.6882;stroke-opacity:0.2611;}
	
		.st37{fill:none;stroke:url(#path1017_00000049921787005754619970000009226951621467426214_);stroke-width:1.6882;stroke-opacity:0.2611;}
	.st38{fill:none;stroke:#770000;stroke-width:3.0719;stroke-opacity:0.1019;}
	.st39{fill:none;stroke:#770000;stroke-width:2.3143;stroke-opacity:0.1019;}
	.st40{fill:none;stroke:#770000;stroke-width:2.5466;stroke-opacity:0.1019;}
	.st41{fill:none;stroke:#650000;stroke-width:1.1841;}
	.st42{fill:none;stroke:#650000;stroke-width:1.3072;}
	.st43{fill:none;stroke:#770000;stroke-width:2.4826;stroke-opacity:0.1019;}
	.st44{fill:none;stroke:#770000;stroke-width:3.8095;stroke-opacity:0.1019;}
	.st45{fill:none;stroke:#650000;stroke-width:1.1603;stroke-linecap:round;}
	.st46{fill:none;stroke:#650000;stroke-width:0.9462;stroke-linecap:round;}
	.st47{fill:none;stroke:#650000;stroke-width:1.0468;stroke-linecap:round;}
	.st48{fill:none;stroke:#650000;stroke-width:1.2151;}
	.st49{fill:none;stroke:url(#path940_00000088130554295154269630000011682755265260838836_);stroke-width:1.2827;}
	
		.st50{fill:none;stroke:url(#path946_00000031915122598687609410000009103914818792195764_);stroke-width:1.2218;stroke-opacity:0.2611;}
	
		.st51{fill:none;stroke:url(#path1016_00000044148340286228983160000016605445795388893855_);stroke-width:1.6882;stroke-opacity:0.2611;}
	
		.st52{fill:none;stroke:url(#path1017_00000178164950913384176560000013052117938799141766_);stroke-width:1.6882;stroke-opacity:0.2611;}
	.st53{fill:none;stroke:url(#path940_00000091734313215012664400000014258130668473046944_);stroke-width:1.2827;}
	
		.st54{fill:none;stroke:url(#path946_00000055709151036496425080000016550738058325994125_);stroke-width:1.2218;stroke-opacity:0.2611;}
	
		.st55{fill:none;stroke:url(#path1016_00000044884993186369316560000000962568965398397103_);stroke-width:1.6882;stroke-opacity:0.2611;}
	
		.st56{fill:none;stroke:url(#path1017_00000006702477813842978820000010005409969859674534_);stroke-width:1.6882;stroke-opacity:0.2611;}
</style>
<rect class="st0" width="1500" height="900"/>
<circle class="st1" cx="749.5" cy="450.4" r="296.2"/>
<circle class="st2" cx="750" cy="450" r="279.8"/>
<circle class="st1" cx="750" cy="450" r="205.4"/>
<ellipse class="st3" cx="750" cy="450" rx="195.8" ry="194.3"/>
<path class="st4" d="m626.5 526.3c0 1-.1 4.9 0 11.8.1 6.5.9 12.3 2.4 16.4 0 0 4 11.5 13.3 22.7 13.4 16.2 51.7 40.1 106.3 61.3 27.4-7 79.9-25.1 112.9-71.8 5.1-7.2 9.3-14.5 12.7-21.5.1-67.9.1-135.8.2-203.7 4.8-8 9.7-16 14.5-23.9h-277.5c5.3 9.8 10.7 19.6 16 29.5-.5 111.6-.5 169.2-.8 179.2z"/>
<path class="st5" d="m639.1 523.7c0 1-.1 4.7 0 11.1.1 6.1.8 11.6 2.1 15.5 0 0 3.6 10.9 11.9 21.5 12 15.4 46.2 38 95 58.1 24.5-6.7 71.4-23.7 100.9-68 4.6-6.8 8.3-13.7 11.3-20.4 0-64.3.1-128.7.1-193 4.3-7.6 8.7-15.1 13-22.7h-248c4.8 9.3 9.5 18.6 14.3 27.9-.3 106-.3 160.6-.6 170z"/>
<g>
	<path class="st6" d="m518.3 441.4.2-6.3c2.5 0 4.6-.4 6.4-1.3s3.2-2.4 4.5-4.5 2-4.6 2.4-7.5c.3-2.5.2-4.8-.3-6.8s-1.4-3.6-2.6-4.7-2.6-1.7-4.1-1.9c-1.6-.2-3 .1-4.3.9s-2.4 2.1-3.5 4.1c-.7 1.3-1.8 4.1-3.5 8.6-1.6 4.4-3.1 7.5-4.2 9.2-1.5 2.2-3.3 3.8-5.3 4.8-2 .9-4.1 1.3-6.4 1-2.5-.3-4.8-1.3-6.8-3s-3.4-4-4.2-6.8c-.8-2.9-1-6-.6-9.3.4-3.7 1.4-6.9 2.9-9.5s3.5-4.6 6-5.9c2.5-1.2 5.2-1.7 8.1-1.5l-.3 6.4c-3.2 0-5.7.8-7.5 2.6s-3 4.6-3.4 8.4c-.5 4-.1 7 1.2 9 1.2 2 2.9 3.1 5 3.4 1.8.2 3.3-.3 4.6-1.4s2.9-4.3 4.7-9.5 3.3-8.8 4.5-10.6c1.7-2.7 3.6-4.7 5.8-5.8s4.7-1.5 7.3-1.2 5.1 1.4 7.2 3.2c2.2 1.8 3.7 4.2 4.7 7.2s1.2 6.3.8 9.8c-.5 4.5-1.6 8.2-3.3 11.1s-3.9 5-6.8 6.5c-2.8 1.1-5.9 1.6-9.2 1.3z"/>
	<path class="st6" d="m547.7 376.7-41.3-15.8-5.9 15.4-5.5-2.1 14.2-37.1 5.5 2.1-5.9 15.5 41.3 15.8-2.4 6.2z"/>
	<path class="st6" d="m577 321.4-37.3-33.5 12.6-14.1c2.2-2.5 4-4.3 5.4-5.4 1.9-1.6 3.9-2.6 5.9-3 2-.5 4.1-.4 6.3.2s4.3 1.8 6.1 3.4c3.2 2.8 5 6.3 5.3 10.3.4 4-1.8 8.6-6.5 13.9l-8.6 9.6 15.2 13.6-4.4 5zm-15.1-22.5 8.7-9.6c2.9-3.2 4.3-6 4.3-8.4s-1.1-4.6-3.2-6.5c-1.6-1.4-3.2-2.2-5.1-2.4-1.8-.2-3.5.2-5 1.1-1 .6-2.5 2.1-4.5 4.3l-8.6 9.5 13.4 12z"/>
	<path class="st6" d="m616 282.7-30.4-39.8 5.3-4 30.4 39.8-5.3 4z"/>
	<path class="st6" d="m636.7 267.4-22.6-44.7 32.4-16.3 2.7 5.3-26.4 13.3 6.9 13.7 24.8-12.5 2.6 5.2-24.8 12.5 7.7 15.2 27.5-13.8 2.7 5.3-33.5 16.8z"/>
	<path class="st6" d="m685 245.2-10.6-49 21.7-4.7c4.4-.9 7.8-1.2 10.2-.8 2.5.4 4.6 1.5 6.5 3.5 1.8 1.9 3.1 4.2 3.6 6.9.8 3.5.3 6.6-1.5 9.5-1.7 2.9-4.9 5.1-9.4 6.8 1.9.5 3.4 1 4.4 1.6 2.3 1.3 4.5 3.1 6.8 5.3l11.4 11.5-8.2 1.8-8.7-8.8c-2.5-2.5-4.6-4.4-6.1-5.7-1.6-1.3-2.9-2.1-4-2.6-1.1-.4-2.2-.6-3.2-.7-.8 0-2 .2-3.7.5l-7.5 1.6 4.7 21.7-6.4 1.6zm.6-28.7 13.9-3c3-.6 5.2-1.5 6.7-2.4 1.5-1 2.6-2.2 3.2-3.8.6-1.5.7-3.1.3-4.7-.5-2.3-1.8-4-3.8-5.2-2-1.1-4.8-1.3-8.5-.5l-15.5 3.4 3.7 16.2z"/>
	<path class="st6" d="m741.2 235.4 2.2-50.1 22.2 1c4.5.2 7.8.8 10.1 1.8s4.1 2.7 5.4 5 1.9 4.9 1.8 7.6c-.2 3.6-1.4 6.5-3.8 8.8s-6 3.7-10.9 4.2c1.7.9 3 1.8 3.9 2.7 1.9 1.9 3.6 4.2 5.2 6.9l8.1 14-8.3-.4-6.2-10.7c-1.8-3.1-3.3-5.5-4.5-7.1s-2.3-2.8-3.2-3.5c-1-.7-2-1.2-3-1.5-.7-.2-2-.3-3.7-.4l-7.7-.3-1 22.2-6.6-.2zm7.8-27.7 14.2.6c3 .1 5.4-.1 7.1-.6 1.7-.6 3.1-1.5 4-2.8s1.5-2.8 1.5-4.4c.1-2.4-.7-4.4-2.3-6-1.7-1.6-4.3-2.5-8-2.6l-15.8-.7-.7 16.5z"/>
	<path class="st6" d="m798 240.3 14.5-48 34.7 10.5-1.7 5.7-28.3-8.6-4.4 14.7 26.5 8-1.7 5.6-26.5-8-4.9 16.3 29.4 8.9-1.7 5.7-35.9-10.8z"/>
	<path class="st6" d="m872.1 271.3 30.9-39.4 14.9 11.7c2.6 2.1 4.5 3.7 5.7 5.1 1.7 1.8 2.8 3.7 3.4 5.7s.7 4 .2 6.3-1.5 4.4-3 6.3c-2.6 3.4-5.9 5.4-9.9 6s-8.7-1.2-14.3-5.6l-10.1-7.9-12.6 16-5.2-4.2zm21.4-16.6 10.2 8c3.4 2.6 6.3 3.9 8.7 3.8s4.5-1.4 6.3-3.6c1.3-1.6 2-3.4 2.1-5.2s-.4-3.5-1.5-4.9c-.7-.9-2.2-2.3-4.6-4.2l-10.1-7.9-11.1 14z"/>
	<path class="st6" d="m931.1 289.2c6.7-5 13.2-7.1 19.7-6.3 6.4.8 11.8 4 16 9.6 2.8 3.7 4.4 7.7 4.8 12s-.3 8.4-2.3 12.3-5 7.4-9 10.4c-4.1 3-8.3 4.9-12.8 5.7-4.4.8-8.6.2-12.5-1.5-3.9-1.8-7.2-4.4-9.8-7.9-2.8-3.8-4.4-7.8-4.8-12.2-.4-4.3.4-8.5 2.4-12.3 2-3.9 4.7-7.2 8.3-9.8zm4 5.5c-4.8 3.6-7.7 7.8-8.5 12.4-.8 4.7.2 9 3.1 12.9 3 4 6.8 6.2 11.6 6.7 4.7.5 9.7-1.2 14.9-5.1 3.3-2.4 5.7-5.1 7.3-8s2.3-6 2.1-9.1-1.4-6-3.3-8.7c-2.8-3.8-6.5-6-11.1-6.8-4.8-.6-10.1 1.2-16.1 5.7z"/>
	<path class="st6" d="m946.9 355.6 46.9-17.8 7.9 20.8c1.6 4.2 2.4 7.5 2.3 10 0 2.5-.8 4.8-2.5 6.9-1.6 2.1-3.7 3.7-6.3 4.6-3.3 1.3-6.5 1.2-9.6 0-3.1-1.3-5.8-4.1-8.1-8.3-.2 1.9-.5 3.5-.9 4.6-1 2.4-2.4 4.9-4.3 7.5l-9.7 13-3-7.8 7.4-9.9c2.1-2.9 3.7-5.2 4.8-6.9s1.7-3.2 1.9-4.3c.2-1.2.3-2.3.2-3.3-.1-.8-.5-1.9-1.1-3.5l-2.7-7.2-20.8 7.9-2.4-6.3zm28.5-3.7 5.1 13.3c1.1 2.8 2.2 4.9 3.4 6.3s2.6 2.2 4.2 2.6c1.6.3 3.2.2 4.7-.3 2.2-.8 3.7-2.3 4.5-4.5.8-2.1.6-5-.7-8.4l-5.6-14.8-15.6 5.8z"/>
	<path class="st6" d="m965.7 421.1 43.9-5-1.9-16.4 5.9-.7 4.5 39.5-5.9.7-1.9-16.5-43.9 5-.7-6.6z"/>
</g>
<g>
	<path class="st6" d="m525.5 554.9 5.5-1.6 7 23.5-17.4 5.1c-3.5-2.9-6.4-6.1-8.8-9.6s-4.1-7.2-5.3-11.3c-1.6-5.5-2.1-10.7-1.4-15.8.7-5 2.5-9.3 5.6-12.6 3.1-3.4 6.9-5.7 11.5-7.1 4.6-1.3 9.1-1.5 13.8-.4 4.6 1.1 8.5 3.5 11.7 7.2s5.6 8.3 7.2 13.8c1.2 4 1.7 7.8 1.6 11.4s-.9 6.6-2.3 9-3.6 4.6-6.4 6.5l-3.5-6.2c2.1-1.5 3.7-3.1 4.7-4.8 1-1.6 1.6-3.7 1.7-6.3.1-2.5-.2-5.2-1-8-1-3.4-2.3-6.1-3.9-8.3s-3.3-3.8-5.1-4.9-3.7-1.8-5.7-2.1c-3.3-.6-6.7-.3-10 .7-4.2 1.2-7.4 3.1-9.7 5.6s-3.7 5.6-4.1 9.3-.1 7.3 1 11c.9 3.2 2.4 6.1 4.3 8.9s3.7 4.7 5.3 5.9l8.7-2.6-5-16.3z"/>
	<path class="st6" d="m595 611 5.1 5.7-20.9 18.8c-3.6 3.3-7 5.4-10 6.3s-6.4.8-10-.6c-3.6-1.3-7.3-4.1-11.1-8.3-3.6-4-6-7.9-7.2-11.5-1.1-3.6-1.1-7 .1-10.1s3.8-6.4 7.6-9.8l20.9-18.8 5.1 5.7-20.9 18.8c-3.1 2.8-5.2 5.3-6 7.3-.9 2-.9 4.3-.2 6.7s2.2 4.9 4.4 7.3c3.8 4.2 7.3 6.5 10.5 6.8s7.1-1.5 11.6-5.6l21-18.7z"/>
	<path class="st6" d="m591.4 670.3 23.8-42.6 36.6 20.5-2.8 5-29.9-16.7-7.3 13 28 15.7-2.8 5-28-15.7-8.1 14.5 31 17.4-2.8 5-37.7-21.1z"/>
	<path class="st6" d="m657.9 702.5 11.3-47.5 25 5.9c5 1.2 8.7 2.5 11.2 4 2.4 1.5 4.1 3.5 5.2 6s1.3 5.1.6 7.7c-.8 3.4-2.8 5.9-5.9 7.6s-7.5 2.2-13 1.5c1.8 1.3 3.1 2.4 3.9 3.4 1.8 2.2 3.3 4.8 4.7 7.8l6.7 15.2-9.4-2.2-5.1-11.6c-1.5-3.4-2.8-6-3.8-7.8s-2.1-3.2-3-4.1-2-1.6-3.1-2.1c-.8-.4-2.2-.8-4.1-1.2l-8.7-2.1-5 21.1-7.5-1.6zm13.8-24.7 16 3.8c3.4.8 6.1 1.1 8.2 1s3.8-.7 5.1-1.8 2.1-2.4 2.5-3.9c.5-2.2 0-4.3-1.6-6.2s-4.5-3.4-8.7-4.4l-17.8-4.2-3.7 15.7z"/>
	<path class="st6" d="m734.3 716.3-1.2-48.8 7.9-.2 31.4 37.5-1-38.3 7.4-.2 1.2 48.8-7.9.2-31.4-37.5 1 38.3-7.4.2z"/>
	<path class="st6" d="m812.1 710.1-13.5-46.9 40.3-11.6 1.6 5.5-32.9 9.5 4.1 14.4 30.8-8.9 1.6 5.5-30.8 8.9 4.6 16 34.2-9.8 1.6 5.5-41.6 11.9z"/>
	<path class="st6" d="m871.1 673.7 5.9-4.3c1.6 1.9 3.3 3.2 5.2 3.9s4.2.7 7 .2c2.7-.6 5.5-1.7 8.3-3.4 2.5-1.5 4.5-3.2 6-5s2.4-3.5 2.7-5.2 0-3.1-.8-4.4-2-2.2-3.5-2.6-3.5-.3-6 .3c-1.6.4-4.9 1.5-10 3.4s-8.8 3-11.1 3.3c-3 .4-5.5.2-7.7-.6-2.1-.8-3.7-2.2-4.9-4.1-1.3-2.1-1.8-4.5-1.5-7.2s1.5-5.4 3.6-8 4.9-5 8.2-7c3.7-2.3 7.2-3.8 10.6-4.5s6.5-.6 9.1.4 4.8 2.7 6.5 5l-6 4.3c-2-2.4-4.3-3.7-7.1-3.8s-6 1-9.8 3.3c-3.9 2.4-6.4 4.8-7.5 7.2-1.1 2.3-1 4.4 0 6.1.9 1.5 2.3 2.3 4.2 2.5 1.8.2 5.7-.9 11.7-3.1 5.9-2.3 10.1-3.6 12.5-4.1 3.6-.7 6.5-.6 9 .3s4.3 2.4 5.7 4.6 1.9 4.8 1.6 7.6c-.3 2.9-1.5 5.7-3.7 8.6-2.1 2.8-5 5.3-8.5 7.5-4.5 2.8-8.5 4.5-12.2 5.3s-7.1.6-10.1-.6c-3.1-1.2-5.6-3.1-7.4-5.9z"/>
	<path class="st6" d="m943 641.6-37.6-31.1 26.7-32.3 4.4 3.7-21.8 26.4 11.5 9.5 20.4-24.7 4.4 3.6-20.4 24.7 12.8 10.6 22.7-27.4 4.4 3.7-27.5 33.3z"/>
	<path class="st6" d="m991.5 561.8-19.8-5.7-33.2 13.7 2.6-9 17.3-6.9c3.2-1.3 6.4-2.4 9.6-3.4-2-2.4-4.1-5.2-6.5-8.5l-10.7-14.8 2.5-8.6 20.6 30 19.8 5.7-2.2 7.5z"/>
</g>
<circle class="st6" cx="514.9" cy="493.2" r="13"/>
<circle class="st6" cx="993.6" cy="493.2" r="13"/>
<g>
	<path class="st7" d="m747.1 314.8s-.2-11.2 12.5-9c0 0-7.4 2.6-12.5 9z"/>
	<path class="st7" d="m748.3 276.2s-5.1 11.7-.6 18.5c8.5-10.7.6-18.5.6-18.5z"/>
	<path class="st7" d="m740.3 279s7.9 2.3 9 11-1.1 11-1.1 11-9.3-4.2-7.9-22z"/>
	<path class="st7" d="m751.9 301.2s2.9-2.9 6.7-1.5 6 1.7 10.3-1.5c0 0-1.9.4-4.3-.8s-5.7-3.3-12.7 3.8z"/>
	<path class="st7" d="m746.9 313.9s-2.9-.6-4-2.3-4.3-2-4.3-2 6.7-2.9 8.9 1.3c.1-.1.3 1.6-.6 3z"/>
	<path class="st7" d="m749.7 298.7s-5-13.2 5.9-22.5c0 0 7.2 14.1-5.9 22.5z"/>
	<path class="st7" d="m747.1 313.4s-.9-7.2 4.4-11.2 13.3-4.9 12.5-16c0 0-1.6 2.8-5.8 4.7s-12.1 7.2-11.1 22.5z"/>
	<path class="st7" d="m747.6 305.3s-.9-11.1-9.5-13.2c-1.8-.4-4-.1-6.2.6 0 0 1.5 6.8 15.7 12.6z"/>
	<path class="st7" d="m728.6 303.6s5-5.3 11.5-2.6c6.5 2.8 7 4.8 7 6.6-4 .6-9.9-1-14.2-2.9-2.3-1.1-4.3-1.1-4.3-1.1z"/>
	<path class="st8" d="m753.9 281s2.3 6.5-1.1 11.2-3.2 7.2-3.2 7.2c-.7-3 1.4-6.5 2.8-8.5 1.8-2.3 1.5-9.9 1.5-9.9zm-6.5 26.1s2.6-7.6 7.3-10.4 6.3-5.3 6.3-5.3 0 2.6-5.4 5.6c-5.5 3.1-8.2 10-8.2 10.1zm-3.6-21.8s3.7 8.8 4.1 15.3l.1.1c1.3-7.7-4.2-15.4-4.2-15.4m3 21.9c-6.1-5.6-12.2-3.8-12.2-3.8s-.1.6.6.4c1.3-.3 8.1.3 11.3 4 0 0 .4.1.3-.6zm.7-2.4c-.7-3.3-3.7-5.5-6.7-7.3-.7-.4-1.6-.6-1.8-.4s0 .4.1.5c0 0 5.8 2.7 7.5 7 0 0 .2.6.9.2z"/>
</g>
<g transform="matrix(.50728 0 0 .6197 -64.283 10.41)">
	<g transform="matrix(1.0802 0 0 1.1552 132.87 -68.637)">
		<path class="st9" d="m1366.9 632.8c-1.4 1.5 2.4 8.1 8.1 7.9-3.7-4.1-3.3-8.8-3.3-8.8l-4.8.9z"/>
		<path class="st9" d="m1352.7 625.7c-2.1.2-7.1 8.9.9 12 .3-5.4 4-8.6 4-8.6l-4.1-2.4-.8-1z"/>
		<path class="st9" d="m1351.7 620.5c-2-1.4-10.7 2.7-10.3 9 5.3-4.2 11.7-3.8 11.7-3.8l-1.4-5.2z"/>
		<path class="st9" d="m1361.8 615.4c-.1-2-7.7-4.2-11.7-.3 5.7.4 9 4.1 9 4.1l2.7-3.8z"/>
	</g>
	<g transform="matrix(1.0802 0 0 1.1552 132.87 -68.637)">
		<path class="st9" d="m1514.2 633.6c-.1 1.8.5 2.4 1.8 3.4s2.8 4 2.8 4 4.1-7.9 3.1-8.9c-1.1-1-7.5 1.5-7.7 1.5z"/>
		<path class="st9" d="m1492.3 630.4c-2.1-.3-6 6.2-2.7 10.7 1.6-5.2 6.1-7.4 6.1-7.4l-3.4-3.3z"/>
		<path class="st9" d="m1482.2 628.4c-1.6-1.2-8.5 2.4-8.3 7.8 4.3-3.6 9.3-3.3 9.3-3.3l-1-4.5z"/>
		<path class="st9" d="m1487.5 620c-1.1-1.7-8.9-.3-10.4 4.9 5.3-2.2 9.9-.4 9.9-.4l.5-4.5z"/>
	</g>
	<g transform="matrix(1.0802 0 0 1.1552 133.55 -68.637)">
		<path class="st9" d="m1227.9 616.4c.7-1.8-5.1-6.9-10.4-4.9 5 2.7 6.3 7.3 6.3 7.3l4.1-2.4z"/>
		<path class="st9" d="m1205.5 627.8c-1.9-1.7-10.1 3.1-9.6 10.2 5-4.7 11-4.3 11-4.3l-1.4-5.9z"/>
		<path class="st9" d="m1206.2 617.8c-.8-2.3-10.4-2-13.7 4.4 6.8-1.8 11.8 1.4 11.8 1.4l1.9-5.8z"/>
		<path class="st9" d="m1216 636.8c-.5 1.7 0 2.5 1 3.7s1.8 4.4 1.8 4.4 5.8-6.9 5-8.2c-.8-1.2-7.6.1-7.8.1z"/>
	</g>
	<g transform="matrix(1.0802 0 0 1.1552 132.87 -68.637)">
		<path class="st9" d="m1192.9 557.2c0-2.5-9.2-5.1-14.4 0 7 .3 10.7 4.9 10.7 4.9l3.7-4.9z"/>
		<path class="st9" d="m1183.4 567c-1.9-1.7-10.1 3.1-9.6 10.2 5-4.7 11-4.3 11-4.3l-1.4-5.9z"/>
		<path class="st9" d="m1216.6 556.4c.9-2.3-6.8-7.7-13.6-4.6 6.5 2.6 8.4 8 8.4 8l5.2-3.4z"/>
		<path class="st9" d="m1227.5 564.8c1.5-1.3-1.3-8.3-7.1-8.8 3.2 4.5 2.2 9.2 2.2 9.2l4.9-.4z"/>
	</g>
	<path class="st10" d="m1491.8 593.3c-6.2-5.3-.1-14.9 5.5-10.8-2.9-3.9 1.9-7.1 4-5.1-1-3.2 3.6-5.3 5.8-2.4-.8-3.6 6-5.7 7.7-1.8.1-3.5 6.8-6.3 8.2-1.1 1.3-4 8.7-4.5 9.3 1.1 2.2-3.3 7.7-3 8 1.7 2.4-2.2 8.6 1.1 7.5 5.1 3.8-.6 8.5 5 3.8 9.2 8.3-3.2 10.2 7.2 5.2 12 2.6 1.2 2.8.1 5.1 1s6.5 2.3 10.3 2.9c3.4 0 16.1-.3 18.6-.6 2.6-.3 6.1-1.3 10.3-2.3 4.4-1 10.8-1.1 16.6-2.1 4.6-.4 134.2 1.5 137.9 1.2s9.2-2.9 8.9-6.1-4.6-5.5-8.9-5.8-26.4-.3-30.4.3-9.7 2-12.6 4.1c-1.4.6-3.7 3.1-5.6 4.7-1.8 1.1-6.9 1.3-6.9-.2 0-.9-.4.2-1.7.5-1.6.7-9 .9-8.6 0 .6-1.1 0-1.4-2-.3-1.4.9-11.6 1.2-13.4.3 1.1-1.4 1.1-1.3-1.9-.2-1.9.6-9.9 1.1-10.5-.1-.1-.9-1-.5-2.1-.2-9.1 1.7-9.9-.3-8.5-1.1 1.4-.9 3.6-5.8 1.3-5.5s-16.6 2.3-21.5 2.9-40.1 0-45-.3-10.3-3.6-10.6-8.4c-.5-7.6 8-9.6 13.2-10.7 5.2-1.2 18.1-2.9 23.2-2.9 5.2 0 19.9 1.3 23.9.2 4-1.2 16.2-4.4 19.6-4.6 5.1-.3 19.6.9 26.6 7-3.6 1.2-5.3 1.9-1.2.8 3.7-.6 19.7-3 23.4-3.6 12.9-.4 9.5 1 3.2 2.2-2.1 4.9-21.1 11.7-27.1 12.6s-18.8.2-21.7-.1c-2.9-.2-16.4-.7-21.4-3-8-3.9-22.7-6.5-29.2-6.5-6 .1-23.3 1.4-23.2 5.8-.1 7.7 16.1 8.1 22.9 7.8 6.9-.3 24.1-.9 29-2.3s15.4-1.8 21.1-1.8 14.1.9 16.7.6 8.6-.4 11.5-1.8 9.1-3 15.4-3 53.1-1.3 59.4-1c9.1 0 15.6 7.2 15.7 13.4.1 2.9-1.9 7.2-3.5 7.8 2.8.2 9.9.8 12.3 1.1 4.4.6 11.5 4.2 12.3 7.4-3.3-1.5-8.7-3.7-13.6-4-.9 0-103.1-.1-111.1-.1 21.8 1.9 38.5 14.1 42.7 21.2 3.7 4.3 12.9 2.6 16.3 2s7.5-3.2 10.3-5.2c2.9-2 7.3-2.5 9.4-2 4.5-.3 5.2 3.2 3.5 4.9s.3 1 4.9 1 8.6 1.2 11.3 3.9c-2.6 1.7-3.9.3-.2.6s8.2 5.3 5.4 6.7c-2.4.9-3.2.6 0 .8 4.7.3 6 2.5 6.6 6.5-4 .5-2-.4 0 1.1 2 1.4 4.9 7.9-2.3 8.1-2.6-.9-2.5-1-2 .9.5 2-.9 6.9-4.9 6.9-5.6.8-10.6-1.4-11.2-4.1-.6-2.6-.5 5-8.4 6.2-7.4 1.2-11.4-1.9-12-3.3s-.3-.3-3.2-.6-6.5-.3-8-3.8c0-2 .6-4.7 5.7-5.1 2.3-.3 2.9-2.5 1.2-2.8s-.3-4.6 3.4-3.5c3.7 1.2 12.3 1.4 14.3 2.9 2 1.4 2.6-1.2-.6-3.5s-22.4-6.9-27.5-5.2c-12 4.4-32.1 3.8-35.5 3.2s-13.4 1-18.1-9.6c-3.8-10.8-18.2-16.1-24.8-16.7-32.5-2.2-30.8-.5-9.7.2-.2 2-.9 6.1 2.5 6.7 5.7-.6 17.7-2.4 20.5-.7 2.9 1.7 5.7 3.2 5.2 7.2-.6 4.1.3 2.9-2.3 4.6s-1.4 5.2 2.6 6.4 5.7 2.6 8.3 4.3-1.1 5.2-3.4 4.1c-2.3-1.2-2.3-1.2-2.6 1.2-.3 2.3-3.1 6.7-8 7-1-.3-.7-1.5-.6-2.4.3-2-1 2.5-2.5 3.8-1 .9-9.1 2.5-11.4 1.6 1-1.8.4-1.1-1.6-.2-2 .6-12.5 1.6-7.8-2 1.2-1.3-1.7 1.7-3.3 2.2-1.3.6-7.6 1-7.6-.8-2 1.3-6.7 1.3-7.5.3-1.4-1.2-1.6.9-4.1 1.2-2.6.3-8.2-.3-8.5-2.6s.6-.9-2.6-.6c-7.7 3.7-11.5-1.4-11.5-3.2 0-1.7-.3-3.8.6-4.9.9-1.2-5.3-1.5-3.4-3.8 2.1-2.8 4.4-4.8 8.6-4.3 2 .3 1.7-.6.9-1.7-.9-1.2 2.3-1.7 6-.6 3.7 1.2 6.3 4.1 7.5 6.7 1.1 2.6 10 .6 13.8.9 3.7.3 4-4.3 1.7-5.8-2.3-1.4-8.6-6.7-11.2-8.4s-.9-7.8 1.4-9.3c13.3-6.6 6-8.7 1.1-8.1s-17.4 4.2-21.4 7.4-35.2 18.8-38.1 20.5-7 2.2-8.8.1c-1.7-2-2.9-.6-2.6 2.3 2.3 10.9-11.2 14.4-13.5 14.3-1.6-.1-4-.8-5.7-1.8-1.7 6.1-9.1 6.7-15.8 6.1-.1-.7 1.2-2.1.5-1.6-2.2 2.1-9 1.9-14.8 1.6-.4-1.3 2-2.8.9-2-2 2.7-5.3 2.2-10.8 1.9-.1-.6 2.5-2.5 1.3-1.3-2.4 1.9-7.4 1.3-11.2 1.4-.5-.4 2-3.4-.2-1.4-2.1 1.7-6.7 2-11 1.5-.8-1.4.9-1.4 1.4-2.3 1.1-1.4-.6 0-2 0s-3.4.3-4.3-1.2c-.9-1.4-.4 1.4-1.2 2.2-.8.7-1.8 2.3-4.6 2.9-2.9.6-10.3 1.2-11.5-1.4-1.5-1.2-2.3-3.8-1.1-5.2 1.1-1.4-5.5 2.8-8.3 3.2-8.4 1.2-9.5-8.4-5.7-9.3 3.7-.9 3.2-2.3 1.1-3.5-2-1.2-3.2-5.8-.6-7.2s8.6-2.2 12.3-.6c2.2 1.1 6.9 4.9 6 2-.6-1.8 1-4 2.8-5 1.6-1.1 6.5-1.3 7.8 1 3 5.3 5.2 7.6 8.9 7.5 7.9-1.6 18.7-3.4 21.8-3.4 4-.7 25.5-2.2 25.5-3.7-12.8 3.2-18-1-19.5-.7-1.4.3-5-.9-5-1.7 0-1.7 3.2-1.5-1.4-1-2.7-.2-5.2-.3-7.5-2.3-.4-1.1 3-4.7 4.3-7.8-3-.6-9.5 3.3-11.7 6.7-1.5-1.3-2.1-.1-7.5.8-2.5.8-6.7.5-8.9-.4-2.3-.9-11.3-5.8-6.9-6.5-1.1-.4-2.5-.6-3.3-.8-3.2-1-6.1-2.9-5.2-3.4-.8-.9.9-.9-.3-1-1.7-.3-6-2.5-4.9-3.4-1.1-.5-3.7-1.3-4.8-1.7-2-.9-4-3.9-4.3-5.3-1.8.1-5.8-2.4-4-3.2-3-1.6-5.6-4.3-3.6-5.2-1.8-1-3-2.9-1.8-2.2-1.8-1.6-1.3-3.4.2-3.4 1.4 0 .9-4.6-1.7-4.6s-6.7 1.5-9.7 0c-2.5-1.4-4.6-7.5-2.3-10.1s6.9-5.5 9.2-5.2 1.1.9.6-1.7c-.6-2.6 3.2-4.6 5.7-5.2 3-1 8.9-.3 10.6.9s2.3 1.2 2.3-.9c0-1.4 2.2-2.2 4.2-2.5 3.3-.6 5.8.1 7 1.1 1.8 1.9 2.9 4.1.6 5.8s-.3.3 3.4-.3c2.4-.6 6.7.2 7.5 2.1 1 2 1.7 5.5-.9 7.2s-6.3 6.1-4.3 7.5 8.3 7.8 9.7 8.7 3.2 2.9 5.4 2.6c2.3-.3 4.9-.6 6.9-.9 8-1.2 11.6-1.8 1.3-1.5 2.3-2.4 7.1-3.1 9.2-3.5-1.1-1.5 5.7-5.8 5.7-6.4z"/>
	<path class="st11" d="m1491.8 616.8c-5.5-.6-19.4 8.2-14.9 19.1"/>
	
		<linearGradient id="e" x1="2126.9" x2="2127.1" y1="-480.4" y2="-453.82" gradientTransform="matrix(.7254 0 0 -.5407 -31.644 368.74)" gradientUnits="userSpaceOnUse">
		<stop style="stop-color:#4A0000" offset="0"/>
		<stop style="stop-color:#FFCF00" offset="1"/>
	</linearGradient>
	
		<path d="m1492.6 607c-7.4 34.2 38.1 21 38.4 9.4" style="fill:none;stroke-width:1.2827;stroke:url(#e)"/>
	<path class="st13" d="m1528.4 621.4c.6 4.5 1 17.1-5.4 20.3s-14.3 3.6-20.6 2"/>
	<path class="st14" d="m1514.3 628.4c-.6 4.4-6.7 15.4-18.5 13.9"/>
	<path class="st14" d="m1418.6 581c6.2.4 9.3 4 10.6 7.1s2.2 4.9 2.2 4.9"/>
	<path class="st14" d="m1423.9 606.4c2.7.9 7.5 0 7.5 0"/>
	<path class="st15" d="m1426.4 611.3c5.9 1.3 11.7-.9 11.7-.9"/>
	
		<linearGradient id="b" x1="2307.3" x2="2324.5" y1="-287.52" y2="-271.38" gradientTransform="matrix(.6401 0 0 -.6129 -35.42 446.99)" gradientUnits="userSpaceOnUse">
		<stop style="stop-color:#4A0000" offset="0"/>
		<stop style="stop-color:#FFCF00" offset="1"/>
	</linearGradient>
	
		<path d="m1439.5 621.8c16 0 22.8-16.5 22.8-16.5" style="fill:none;stroke-opacity:.2611;stroke-width:1.2218;stroke:url(#b)"/>
	<path class="st17" d="m1472.1 614.1c-4.4 8.5-4 8.5-9.7 10.3l-5.7 1.8"/>
	<path class="st14" d="m1454 630.6c6.2-1.3 10.2-4 10.2-4"/>
	<path class="st14" d="m1447.3 579c-3.5 3.1-3.1 8.9-3.1 8.9"/>
	<path class="st14" d="m1520.3 579.2c.9 5.8-2.7 8.9-4.9 8.9s-4.7 2.2-3.3 5.7"/>
	<path class="st14" d="m1529.5 578.3c-4 4-4.9 8.5-3.5 12.1 1.3 3.6.1 4.6.1 4.6"/>
	<path class="st18" d="m1482.3 611.4c-7.1 1.4-10 10.8-6.2 15.9"/>
	<path class="st14" d="m1547.3 598h-4.9s-3.1 4.9-8.4 3.6-.4 0-.4 0"/>
	<path class="st14" d="m1521.2 593.9c7.6.1 6 4.5.4 4.1.4 5.4-8.4 4.7-7.6.6-5.3.1-7.5-5.3.2-4.6"/>
	<path class="st14" d="m1700.4 598c1.6-3.5 8.7-6.6 8.7-6.6"/>
	<path class="st14" d="m1690 597.8c3.1-4.1 8.7-6.6 8.7-6.6"/>
	<path class="st14" d="m1674.8 598.2c4.7-2.1 6.1-2.9 7.6-4 1.7-1.2 5-3.5 5-3.5"/>
	<path class="st19" d="m1661.5 598.1c3.5-1.3 6.2-2.1 8.5-3.4 2.9-1.5 4.9-3.5 4.9-3.5"/>
	<path class="st14" d="m1664.4 587.1c-11-2.7-16-8.2-16-8.2"/>
	<path class="st14" d="m1682.7 575.5c-7.3 2.2-22.1 1.3-22.8 1.3"/>
	<path class="st14" d="m1550.6 645.8c2.2-5.7 6.3-6.9 11.4-8.8 5.3-1.6 13.4-6.3 8.4-2.9-5 3.5-12.2 5.7-14.7 6.9-2.5 1.3-4.1 4.1-2.8 5.4"/>
	<path class="st20" d="m1540.2 624.4c4.7 5.7 1.8 13.6-4.1 15.8"/>
	<path class="st14" d="m1555.8 604.8c7.6 2.3 7.9 7.7 9 10.9-2.7-.9-4.6-.5-6.6-1.1"/>
	<path class="st21" d="m1552.8 608c5.2 5.1 7.1 8.3 7.4 10.1.5 3.1.5 10.8-11.7 10.7 1.1-2.3 2.6-8.3.6-10.8"/>
	<path class="st14" d="m1549.9 623.5c0 5-4.8 7.1-7 7.7"/>
	<path class="st22" d="m1517 602.6c-.3 4.4-8.6 5.4-11.4 1.6-2.2-2.5-3.5-3.8-5.1-4.1s-1.4-4-1.7-4.5c-.2-.7-1.2-2.6-1.7-3.3"/>
	<path class="st23" d="m1505.2 603.9c3.8 4.9 12.9 1.9 15.3 3.9 2.4 1.9-2.3 8.7-3.8 12.6-3.4 3.4-11 3.1-13.8.6 1.5-4.7 1.6-14.6 1.9-14.9l.4-2.2z"/>
	<path class="st14" d="m1436.5 575.5c.6 2.8-.3 3.5-1.2 6s.3 6.9.3 6.9"/>
	<path class="st14" d="m1434.9 654.5c3.1-.6 9.7 0 9.7 0"/>
	<path class="st14" d="m1446.5 662c1.9-2.5 6.2-4.7 6.2-4.7"/>
	<path class="st14" d="m1481.5 665.3c1.6-1.6 1.6-6.6 1.6-6.6"/>
	<path class="st14" d="m1492.9 665.3c2.5-2.1 2.6-6.5 2.6-6.5"/>
	<path class="st14" d="m1502 665.2c2.5-3.5 2.1-7.5 2.1-7.5"/>
	<path class="st14" d="m1516.1 665.5c1.6-1.9 1.6-6.3 1.6-6.3"/>
	<path class="st14" d="m1617.2 655.5c-5.6-.9-9 4.7-9 4.7"/>
	<path class="st14" d="m1624.6 654.6c-.6 4.1-5 7.9-5 7.9"/>
	<path class="st14" d="m1633.4 654.3c-.3 3.5-5.3 8.2-5.3 8.2"/>
	<path class="st14" d="m1644.4 652.9c-.8 4.6-5.3 8.1-5.3 8.1"/>
	<path class="st14" d="m1652.5 651.3c.3 4.1-2.5 10.4-4.4 11.7"/>
	<path class="st14" d="m1662.2 653c.9 2.2 0 5.4 0 5.4"/>
	<path class="st14" d="m1601.2 644.4c3.7.6 5.9 3.8 5.9 3.8"/>
	<path class="st14" d="m1594.8 652.3c2-5 10.4-2.5 11.5-1.2"/>
	<path class="st14" d="m1754.9 629.5c-3.1-.3-7.8.9-7.8.9"/>
	<path class="st14" d="m1769.4 633.8c-4.4 1.3-9.4 1.6-9.4 1.6"/>
	<path class="st14" d="m1775 641.1c-3.7-.3-6.5-.3-6.5-.3"/>
	<path class="st14" d="m1782.2 647.9c-3.7-.3-9.7 0-9.7 0"/>
	<path class="st14" d="m1779.4 656.8c-1.2-2.5-5-3.1-5-3.1"/>
	<path class="st14" d="m1742.6 662.7c.9-3.8 7.1-6.8 10.6-6.8h3.4"/>
	<path class="st14" d="m1737.5 654.3c3.7-.9 9.7-1.3 9.7-1.3"/>
	<path class="st14" d="m1494.9 639.4c3.7-2.2 6.7-6.7 6.7-6.7"/>
	<path class="st14" d="m1540.5 584.4c-3.7 2.8-4.1 3.1-4.1 3.1"/>
	<path class="st14" d="m1544.2 589.7c-5 .3-5.3.2-5.3.2"/>
	<path class="st24" d="m1526.5 587.6c3.7-1 12.3-.2 12.2 2.1 0 2.8-3.4 3-12.2.3l.1-2.1v-.3h-.1z"/>
	<path class="st25" d="m1514.8 587.9c.5-3.3-8.5-6.6-10.7-4.8-2.7 3.1 4.9 5.8 6.9 5.8 1.9 0 .8.2.8.2"/>
	<path class="st26" d="m1541.4 613c2.8 4 3.7 10.8.5 14.1"/>
	<path class="st14" d="m1539.2 600.4c-3.4 6.9-.6 13.1-.6 13.1"/>
	<path class="st14" d="m1499 602.1c-2.8 1.7-5.1 1.1-5.1 1.1"/>
	<path class="st26" d="m1531.3 622.1c2.8 1.1 6.8 8 6.2 10.3l-.6 2.3"/>
	<path class="st26" d="m1530.1 625c1.7 3.4 4 8.6 3.4 10.3l-.6 1.7"/>
	<path class="st26" d="m1519.9 628.4c1.1 3.4.6 9.1-1.1 10.3l-1.7 1.1"/>
	<path class="st26" d="m1517.1 629c-1.7 4-3.4 9.7-3.4 9.7"/>
	<path class="st27" d="m1492.2 604.4c-3.4 3.4-7.9 6.9-7.9 6.9"/>
	<path class="st28" d="m1490 618.1c-2.8 1.7-6.8 5.7-6.8 5.7"/>
	<path class="st28" d="m1493.4 623.8c-4.5-2.3-9.6 1.7-9.6 1.7"/>
	<path class="st29" d="m1465.2 629.9c-1.1 2.3-9.6 4-9.6 4"/>
	<path class="st30" d="m1534.7 588.4-.6 2.6"/>
	<path class="st31" d="m1511.4 583.7c-.7 1.9-1.8 3.9-1.8 3.9"/>
	<path class="st14" d="m1484.9 603.9c-10.4 4-12.2 7.5-10.6 16"/>
	<path class="st32" d="m1555.6 592.4c-3 1-2.5 6.1-2.5 6.1"/>
	<path class="st33" d="m1492.2 585.2c3.2 1.6 1.9 6.6 1.9 6.6"/>
	<path class="st34" d="m1471.3 664.4c-.2 4.9-6.6 3.6-9.3 3.6l2.3-3.2c.3 0 1.1.3 2-.2l5-.2z"/>
	<path class="st35" d="m1526.9 622.2c.7 2.4.7 3.9.4 6.5-.8 4.1-1.1 4.2-3.4 7.6-.8.9-.4-.1-2.5 3.1l-7.5-3.8c.4 1.2 0-.9.4-1.3 1.2-1.6 1.1-1.9 1.5-3.9.2-1.8 2.1-4.9 3.2-1.9l7.9-6.3z"/>
	<path class="st35" d="m1500.4 637.6c1.7.4 5.9-.7 7.7-1 2.9-.7.2-1.1 2.6-2.7.7-.6 1.3-2.5 1.8-3.2l-3.2-.2c-.4 2-3 .4-3.2.6-1.2.8-1 .3-2.5.6-1.3.2-2.7-.1-.6.4l-2.6 5.5z"/>
	<path class="st35" d="m1665.2 625.4c-1 3.9-2.3 6-4.7 9.1-4.3 4.6-8.4 7.1-14.1 9.1-1.8.4-3.6.6-5.4.8l-.8-13.2c.8 0 1.6-.1 2.4-.3 2.8-.9 4.6-2.1 6.7-4.4 1.7-2.3 2.4-5.6 1.5-.4l14.4-.7z"/>
	
		<linearGradient id="l" x1="2351" x2="2366.1" y1="-272.97" y2="-258.73" gradientTransform="matrix(.6305 0 0 -.6221 -35.842 457.03)" gradientUnits="userSpaceOnUse">
		<stop style="stop-color:#4A0000" offset="0"/>
		<stop style="stop-color:#FFCF00" offset="1"/>
	</linearGradient>
	
		<path d="m1445.8 625.7c12.2-2.1 19.1-14 19.1-14" style="fill:none;stroke-opacity:.2611;stroke-width:1.6882;stroke:url(#l)"/>
	
		<linearGradient id="h" x1="1873.9" x2="1887.5" y1="-605.66" y2="-592.83" gradientTransform="matrix(.7801 0 0 -.5028 -29.226 311.72)" gradientUnits="userSpaceOnUse">
		<stop style="stop-color:#4A0000" offset="0"/>
		<stop style="stop-color:#FFCF00" offset="1"/>
	</linearGradient>
	
		<path d="m1431.5 615.1c12.4.5 21.6-9.7 21.6-9.7" style="fill:none;stroke-opacity:.2611;stroke-width:1.6882;stroke:url(#h)"/>
	<path class="st38" d="m1727.7 641.4.6-1.2c-1.3 2.7-1 1.5 3.7-1.2h9.1c3.8 0 5.7.6 9.1 1.2 2.1.8 4 2.1 6.1 3.1"/>
	<path class="st35" d="m1489.3 632.1c-.4 1.4 4.4 3.2 7.2 3.3 2.9-1.3 3-1.8 5.1-4.1.5-.7-.1-.2.3-1l-6.3-4.4c-.8.3-1.3.7-1.5 1-1 1.1-.9 1.7-2.4 2.4-1.4.4-1.5.2-.5.6l-1.1 1.3-.8.9z"/>
	<path class="st35" d="m1544.2 631.9c1.8-1.4 2.5-2.6 3.5-4.7 1.3-3.6 1.6-6.5 1.3-10.3-.2-1.2-.5-2.3-.9-3.4l-6.8 2.3c.2.5.3 1 .4 1.5.2 1.9 0 3.2-.7 4.9-.8 1.5-2.3 2.6.1 1l3.1 8.7z"/>
	<path class="st35" d="m1548.9 608.7c2.2.2 3.5.8 5.5 2.1 3 2.3 4.8 4.7 6.5 8.2.4 1.1.7 2.3 1 3.4l-7.1 2c-.1-.5-.2-1-.4-1.5-.8-1.7-1.7-2.8-3.1-3.9-1.4-.8-3.3-1-.4-.9l-2-9.4z"/>
	<path class="st35" d="m1537.9 638.6c1.9-2.3 3.4-.9 4-3.7.3-4.6-.5-8.2-2.5-12.5-.8-1.3-1.7-2.5-2.7-3.7l-8.7 5.1c.4.5.8 1 1.2 1.6 1 2.1 1.3 3.7 1.1 6-.4 2 .1 2.6 2.1 3.3l5.5 3.9z"/>
	<path class="st38" d="m1770.9 649.8c3.8 0 5.7.6 9.1 1.2 2.1.8 4 2.1 6.1 3.1"/>
	<path class="st38" d="m1753 632.1c3.7-.7 5.7-.5 9.2-.6 2.2.4 4.4 1.3 6.6 1.8"/>
	<path class="st39" d="m1693.9 639.5c-2.5.1-3.7-.4-6-.9-1.4-.7-2.7-1.8-4-2.5"/>
	<path class="st40" d="m1717.7 606.1c-12.2-.3-21.4-.4-29.5-.6-7.9-.1-21-.4-29.6-.6"/>
	<path class="st39" d="m1619.3 613.5c2.3-1 3.6-1 5.8-1.5 1.5.1 3.1.6 4.7.8"/>
	<path class="st35" d="m1430.9 601.5c-1 1.6-1.8 2.2-3.1 3.2-2.1 1.2-3.2 1.1-5.2 1-.6-.2-.6-3.6-1.1-3.9l1.1-2.4c.2.1.5.2.7.3 1 .1 1.7-.1 2.8-.7.9-.7 1.8-2.1.5.1l4.3 2.4z"/>
	<g transform="matrix(1.0802 0 0 1.0554 107.22 -80.507)">
		<path class="st41" d="m1293.6 647.1c-.3 5.9-4.6 9.1-4.6 9.1"/>
		<path class="st42" d="m1289.2 644.4c-2.2 6.5.6 11.7.6 11.7"/>
	</g>
	<g transform="matrix(-1.0703 -.14124 -.1458 1.0368 388.25 -57.396)">
		<path class="st41" d="m-1127.1 487.8c-.3 5.9-4.6 9.1-4.6 9.1"/>
		<path class="st42" d="m-1131.5 485c-2.2 6.5.7 11.7.7 11.7"/>
	</g>
	<path class="st35" d="m1495 661c-.3 5-9.1 3.7-12.9 3.7l1.1-1.3c.5 0 3.7-1.6 5-2.2l6.8-.2z"/>
	<path class="st35" d="m1503.5 658.8c-.3 7.1-7.8 5.2-11 5.2l.9-1.9c.4 0 3.2-2.3 4.3-3l5.8-.3z"/>
	<path class="st35" d="m1517.3 659.1c-.4 10.5-10.7 7.7-15.1 7.8l1.2-2.8c.5 0 4.4-3.4 5.9-4.5l8-.5z"/>
	<path class="st35" d="m1530.9 658.9c-.4 10.5-10.7 7.7-15.1 7.8l1.2-2.8c.5 0 4.4-3.4 5.9-4.5l8-.5z"/>
	<path class="st35" d="m1481.6 658.9c-.3 10.5-9.1 7.7-12.9 7.8l1.1-2.8c.5 0 3.7-3.4 5-4.5l6.8-.5z"/>
	<path class="st34" d="m1488.3 630.2c-1.2 2.7-3.2 4.7-2.9 6.4l-1.9-.6c1.5.4-1.7-4.3-2.4-3.4l1.8-.9.4-.5.9-.3 4.1-.7z"/>
	<path class="st14" d="m1556.9 601.3c.9.3 3.3 0 7.7 1.4-1.8 1.9-6.5 3.1-8.3 2.5"/>
	<path class="st43" d="m1665.2 646.1c-2.8.5-4.3.3-6.9.3-1.7-.4-3.4-1.2-5.1-1.7"/>
	<path class="st44" d="m1638 653.2c5.2 1 8.2 1 13.3 1.3 3.4-.3 6.9-1 10.3-1.3"/>
	<path class="st20" d="m1567.8 642.9c-5.4 1.3-7.9 1.4-9.6.2"/>
	<path class="st45" d="m1573.7 639.7c-4.7 1.3-7.4 1.8-9.7.7"/>
	<path class="st46" d="m1581.7 635.6c-3.1 1.3-4.9 1.8-6.5.7"/>
	<path class="st47" d="m1587.2 632.5c-3.8 1.3-6 1.8-7.9.7"/>
	<path class="st14" d="m1436.1 575.5c.6 2.8-.3 3.5-1.2 6s.3 6.9.3 6.9"/>
	<path class="st14" d="m1447.9 579c-3.5 3.1-3.1 8.9-3.1 8.9"/>
	<path class="st48" d="m1419 580.4c6.3.4 9.5 4 10.9 7.1s2.3 4.9 2.3 4.9"/>
	<path class="st14" d="m1531.4 601.1c.3 6-14.7 10.4-14.3 1.3"/>
</g>
<g transform="translate(0,59.5)">
	
		<g transform="matrix(.50728 0 0 .6197 -64.283 10.41)">
		
			<g transform="matrix(1.0802 0 0 1.1552 132.87 -68.637)">
			<path class="st9" d="m1366.9 733c-1.4 1.5 2.4 8.1 8.1 7.9-3.7-4.1-3.3-8.8-3.3-8.8l-4.8.9z"/>
			<path class="st9" d="m1352.7 725.8c-2.1.2-7.1 8.9.9 12 .3-5.4 4-8.6 4-8.6l-4.1-2.4-.8-1z"/>
			<path class="st9" d="m1351.7 720.6c-2-1.4-10.7 2.7-10.3 9 5.3-4.2 11.7-3.8 11.7-3.8l-1.4-5.2z"/>
			<path class="st9" d="m1361.8 715.6c-.1-2-7.7-4.2-11.7-.3 5.7.4 9 4.1 9 4.1l2.7-3.8z"/>
		</g>
		
			<g transform="matrix(1.0802 0 0 1.1552 132.87 -68.637)">
			<path class="st9" d="m1514.2 733.8c-.1 1.8.5 2.4 1.8 3.4s2.8 4 2.8 4 4.1-7.9 3.1-8.9c-1.1-1.1-7.5 1.5-7.7 1.5z"/>
			<path class="st9" d="m1492.3 730.6c-2.1-.3-6 6.2-2.7 10.7 1.6-5.2 6.1-7.4 6.1-7.4l-3.4-3.3z"/>
			<path class="st9" d="m1482.2 728.6c-1.6-1.2-8.5 2.4-8.3 7.8 4.3-3.6 9.3-3.3 9.3-3.3l-1-4.5z"/>
			<path class="st9" d="m1487.5 720.2c-1.1-1.7-8.9-.3-10.4 4.9 5.3-2.2 9.9-.4 9.9-.4l.5-4.5z"/>
		</g>
		
			<g transform="matrix(1.0802 0 0 1.1552 133.55 -68.637)">
			<path class="st9" d="m1227.9 716.6c.7-1.8-5.1-6.9-10.4-4.9 5 2.7 6.3 7.3 6.3 7.3l4.1-2.4z"/>
			<path class="st9" d="m1205.5 728c-1.9-1.7-10.1 3.1-9.6 10.2 5-4.7 11-4.3 11-4.3l-1.4-5.9z"/>
			<path class="st9" d="m1206.2 718c-.8-2.3-10.4-2-13.7 4.4 6.8-1.8 11.8 1.4 11.8 1.4l1.9-5.8z"/>
			<path class="st9" d="m1216 736.9c-.5 1.7 0 2.5 1 3.7s1.8 4.4 1.8 4.4 5.8-6.9 5-8.2c-.8-1.1-7.6.1-7.8.1z"/>
		</g>
		
			<g transform="matrix(1.0802 0 0 1.1552 132.87 -68.637)">
			<path class="st9" d="m1192.9 657.4c0-2.5-9.2-5.1-14.4 0 7 .3 10.7 4.9 10.7 4.9l3.7-4.9z"/>
			<path class="st9" d="m1183.4 667.2c-1.9-1.7-10.1 3.1-9.6 10.2 5-4.7 11-4.3 11-4.3l-1.4-5.9z"/>
			<path class="st9" d="m1216.6 656.5c.9-2.3-6.8-7.7-13.6-4.6 6.5 2.6 8.4 8 8.4 8l5.2-3.4z"/>
			<path class="st9" d="m1227.5 665c1.5-1.3-1.3-8.3-7.1-8.8 3.2 4.5 2.2 9.2 2.2 9.2l4.9-.4z"/>
		</g>
		<path class="st10" d="m1491.8 709c-6.2-5.3-.1-14.9 5.5-10.8-2.9-3.9 1.9-7.1 4-5.1-1-3.2 3.6-5.3 5.8-2.4-.8-3.6 6-5.7 7.7-1.8.1-3.5 6.8-6.3 8.2-1.1 1.3-4 8.7-4.5 9.3 1.1 2.2-3.3 7.7-3 8 1.7 2.4-2.2 8.6 1.1 7.5 5.1 3.8-.6 8.5 5 3.8 9.2 8.3-3.2 10.2 7.2 5.2 12 2.6 1.2 2.8.1 5.1 1s6.5 2.3 10.3 2.9c3.4 0 16.1-.3 18.6-.6 2.6-.3 6.1-1.3 10.3-2.3 4.4-1 10.8-1.1 16.6-2.1 4.6-.4 134.2 1.5 137.9 1.2s9.2-2.9 8.9-6.1-4.6-5.5-8.9-5.8-26.4-.3-30.4.3-9.7 2-12.6 4.1c-1.4.6-3.7 3.1-5.6 4.7-1.8 1.1-6.9 1.3-6.9-.2 0-.9-.4.2-1.7.5-1.6.7-9 .9-8.6 0 .6-1.1 0-1.4-2-.3-1.4.9-11.6 1.2-13.4.3 1.1-1.4 1.1-1.3-1.9-.2-1.9.6-9.9 1.1-10.5-.1-.1-.9-1-.5-2.1-.2-9.1 1.7-9.9-.3-8.5-1.1 1.4-.9 3.6-5.8 1.3-5.5s-16.6 2.3-21.5 2.9-40.1 0-45-.3-10.3-3.6-10.6-8.4c-.5-7.6 8-9.6 13.2-10.7 5.2-1.2 18.1-2.9 23.2-2.9 5.2 0 19.9 1.3 23.9.2 4-1.2 16.2-4.4 19.6-4.6 5.1-.3 19.6.9 26.6 7-3.6 1.2-5.3 1.9-1.2.8 3.7-.6 19.7-3 23.4-3.6 12.9-.4 9.5 1 3.2 2.2-2.1 4.9-21.1 11.7-27.1 12.6s-18.8.2-21.7-.1c-2.9-.2-16.4-.7-21.4-3-8-3.9-22.7-6.5-29.2-6.5-6 .1-23.3 1.4-23.2 5.8-.1 7.7 16.1 8.1 22.9 7.8 6.9-.3 24.1-.9 29-2.3s15.4-1.8 21.1-1.8 14.1.9 16.7.6 8.6-.4 11.5-1.8 9.1-3 15.4-3 53.1-1.3 59.4-1c9.1 0 15.6 7.2 15.7 13.4.1 2.9-1.9 7.2-3.5 7.8 2.8.2 9.9.8 12.3 1.1 4.4.6 11.5 4.2 12.3 7.4-3.3-1.5-8.7-3.7-13.6-4-.9 0-103.1-.1-111.1-.1 21.8 1.9 38.5 14.1 42.7 21.2 3.7 4.3 12.9 2.6 16.3 2s7.5-3.2 10.3-5.2c2.9-2 7.3-2.5 9.4-2 4.5-.3 5.2 3.2 3.5 4.9s.3 1 4.9 1 8.6 1.2 11.3 3.9c-2.6 1.7-3.9.3-.2.6s8.2 5.3 5.4 6.7c-2.4.9-3.2.6 0 .8 4.7.3 6 2.5 6.6 6.5-4 .5-2-.4 0 1.1 2 1.4 4.9 7.9-2.3 8.1-2.6-.9-2.5-1-2 .9.5 2-.9 6.9-4.9 6.9-5.6.8-10.6-1.4-11.2-4.1-.6-2.6-.5 5-8.4 6.2-7.4 1.2-11.4-1.9-12-3.3s-.3-.3-3.2-.6-6.5-.3-8-3.8c0-2 .6-4.7 5.7-5.1 2.3-.3 2.9-2.5 1.2-2.8s-.3-4.6 3.4-3.5c3.7 1.2 12.3 1.4 14.3 2.9 2 1.4 2.6-1.2-.6-3.5s-22.4-6.9-27.5-5.2c-12 4.4-32.1 3.8-35.5 3.2s-13.4 1-18.1-9.6c-3.8-10.8-18.2-16.1-24.8-16.7-32.5-2.2-30.8-.5-9.7.2-.2 2-.9 6.1 2.5 6.7 5.7-.6 17.7-2.4 20.5-.7 2.9 1.7 5.7 3.2 5.2 7.2-.6 4.1.3 2.9-2.3 4.6s-1.4 5.2 2.6 6.4 5.7 2.6 8.3 4.3-1.1 5.2-3.4 4.1c-2.3-1.2-2.3-1.2-2.6 1.2-.3 2.3-3.1 6.7-8 7-1-.3-.7-1.5-.6-2.4.3-2-1 2.5-2.5 3.8-1 .9-9.1 2.5-11.4 1.6 1-1.8.4-1.1-1.6-.2-2 .6-12.5 1.6-7.8-2 1.2-1.3-1.7 1.7-3.3 2.2-1.3.6-7.6 1-7.6-.8-2 1.3-6.7 1.3-7.5.3-1.4-1.2-1.6.9-4.1 1.2-2.6.3-8.2-.3-8.5-2.6s.6-.9-2.6-.6c-7.7 3.7-11.5-1.4-11.5-3.2 0-1.7-.3-3.8.6-4.9.9-1.2-5.3-1.5-3.4-3.8 2.1-2.8 4.4-4.8 8.6-4.3 2 .3 1.7-.6.9-1.7-.9-1.2 2.3-1.7 6-.6 3.7 1.2 6.3 4.1 7.5 6.7 1.1 2.6 10 .6 13.8.9 3.7.3 4-4.3 1.7-5.8-2.3-1.4-8.6-6.7-11.2-8.4s-.9-7.8 1.4-9.3c13.3-6.6 6-8.7 1.1-8.1s-17.4 4.2-21.4 7.4-35.2 18.8-38.1 20.5-7 2.2-8.8.1c-1.7-2-2.9-.6-2.6 2.3 2.3 10.9-11.2 14.4-13.5 14.3-1.6-.1-4-.8-5.7-1.8-1.7 6.1-9.1 6.7-15.8 6.1-.1-.7 1.2-2.1.5-1.6-2.2 2.1-9 1.9-14.8 1.6-.4-1.3 2-2.8.9-2-2 2.7-5.3 2.2-10.8 1.9-.1-.6 2.5-2.5 1.3-1.3-2.4 1.9-7.4 1.3-11.2 1.4-.5-.4 2-3.4-.2-1.4-2.1 1.7-6.7 2-11 1.5-.8-1.4.9-1.4 1.4-2.3 1.1-1.4-.6 0-2 0s-3.4.3-4.3-1.2c-.9-1.4-.4 1.4-1.2 2.2-.8.7-1.8 2.3-4.6 2.9-2.9.6-10.3 1.2-11.5-1.4-1.5-1.2-2.3-3.8-1.1-5.2 1.1-1.4-5.5 2.8-8.3 3.2-8.4 1.2-9.5-8.4-5.7-9.3 3.7-.9 3.2-2.3 1.1-3.5-2-1.2-3.2-5.8-.6-7.2s8.6-2.2 12.3-.6c2.2 1.1 6.9 4.9 6 2-.6-1.8 1-4 2.8-5 1.6-1.1 6.5-1.3 7.8 1 3 5.3 5.2 7.6 8.9 7.5 7.9-1.6 18.7-3.4 21.8-3.4 4-.7 25.5-2.2 25.5-3.7-12.8 3.2-18-1-19.5-.7-1.4.3-5-.9-5-1.7 0-1.7 3.2-1.5-1.4-1-2.7-.2-5.2-.3-7.5-2.3-.4-1.1 3-4.7 4.3-7.8-3-.6-9.5 3.3-11.7 6.7-1.5-1.3-2.1-.1-7.5.8-2.5.8-6.7.5-8.9-.4-2.3-.9-11.3-5.8-6.9-6.5-1.1-.4-2.5-.6-3.3-.8-3.2-1-6.1-2.9-5.2-3.4-.8-.9.9-.9-.3-1-1.7-.3-6-2.5-4.9-3.4-1.1-.5-3.7-1.3-4.8-1.7-2-.9-4-3.9-4.3-5.3-1.8.1-5.8-2.4-4-3.2-3-1.6-5.6-4.3-3.6-5.2-1.8-1-3-2.9-1.8-2.2-1.8-1.6-1.3-3.4.2-3.4 1.4 0 .9-4.6-1.7-4.6s-6.7 1.5-9.7 0c-2.5-1.4-4.6-7.5-2.3-10.1s6.9-5.5 9.2-5.2 1.1.9.6-1.7c-.6-2.6 3.2-4.6 5.7-5.2 3-1 8.9-.3 10.6.9s2.3 1.2 2.3-.9c0-1.4 2.2-2.2 4.2-2.5 3.3-.6 5.8.1 7 1.1 1.8 1.9 2.9 4.1.6 5.8s-.3.3 3.4-.3c2.4-.6 6.7.2 7.5 2.1 1 2 1.7 5.5-.9 7.2s-6.3 6.1-4.3 7.5 8.3 7.8 9.7 8.7 3.2 2.9 5.4 2.6c2.3-.3 4.9-.6 6.9-.9 8-1.2 11.6-1.8 1.3-1.5 2.3-2.4 7.1-3.1 9.2-3.5-1.1-1.5 5.7-5.8 5.7-6.4z"/>
		<path class="st11" d="m1491.8 732.5c-5.5-.6-19.4 8.2-14.9 19.1"/>
		
			<linearGradient id="d" x1="2126.9" x2="2127.1" y1="-516.85" y2="-490.26" gradientTransform="matrix(.7254 0 0 -.5407 -31.644 464.75)" gradientUnits="userSpaceOnUse">
			<stop style="stop-color:#4A0000" offset="0"/>
			<stop style="stop-color:#FFCF00" offset="1"/>
		</linearGradient>
		
			<path d="m1492.6 722.7c-7.4 34.2 38.1 21 38.4 9.4" style="fill:none;stroke-width:1.2827;stroke:url(#d)"/>
		<path class="st13" d="m1528.4 737.1c.6 4.5 1 17.1-5.4 20.3s-14.3 3.6-20.6 2"/>
		<path class="st14" d="m1514.3 744.1c-.6 4.4-6.7 15.4-18.5 13.9"/>
		<path class="st14" d="m1418.6 696.7c6.2.4 9.3 4 10.6 7.1s2.2 4.9 2.2 4.9"/>
		<path class="st14" d="m1423.9 722.2c2.7.9 7.5 0 7.5 0"/>
		<path class="st15" d="m1426.4 727c5.9 1.3 11.7-.9 11.7-.9"/>
		
			<linearGradient id="a" x1="2307.3" x2="2324.5" y1="-319.67" y2="-303.53" gradientTransform="matrix(.6401 0 0 -.6129 -35.42 543)" gradientUnits="userSpaceOnUse">
			<stop style="stop-color:#4A0000" offset="0"/>
			<stop style="stop-color:#FFCF00" offset="1"/>
		</linearGradient>
		
			<path d="m1439.5 737.5c16 0 22.8-16.5 22.8-16.5" style="fill:none;stroke-opacity:.2611;stroke-width:1.2218;stroke:url(#a)"/>
		<path class="st17" d="m1472.1 729.8c-4.4 8.5-4 8.5-9.7 10.3l-5.7 1.8"/>
		<path class="st14" d="m1454 746.3c6.2-1.3 10.2-4 10.2-4"/>
		<path class="st14" d="m1447.3 694.7c-3.5 3.1-3.1 8.9-3.1 8.9"/>
		<path class="st14" d="m1520.3 694.9c.9 5.8-2.7 8.9-4.9 8.9s-4.7 2.2-3.3 5.7"/>
		<path class="st14" d="m1529.5 694c-4 4-4.9 8.5-3.5 12.1 1.3 3.6.1 4.6.1 4.6"/>
		<path class="st18" d="m1482.3 727.1c-7.1 1.4-10 10.8-6.2 15.9"/>
		<path class="st14" d="m1547.3 713.7h-4.9s-3.1 4.9-8.4 3.6-.4 0-.4 0"/>
		<path class="st14" d="m1521.2 709.6c7.6.1 6 4.5.4 4.1.4 5.4-8.4 4.7-7.6.6-5.3.1-7.5-5.3.2-4.6"/>
		<path class="st14" d="m1700.4 713.7c1.6-3.5 8.7-6.6 8.7-6.6"/>
		<path class="st14" d="m1690 713.5c3.1-4.1 8.7-6.6 8.7-6.6"/>
		<path class="st14" d="m1674.8 713.9c4.7-2.1 6.1-2.9 7.6-4 1.7-1.2 5-3.5 5-3.5"/>
		<path class="st19" d="m1661.5 713.8c3.5-1.3 6.2-2.1 8.5-3.4 2.9-1.5 4.9-3.5 4.9-3.5"/>
		<path class="st14" d="m1664.4 702.8c-11-2.7-16-8.2-16-8.2"/>
		<path class="st14" d="m1682.7 691.3c-7.3 2.2-22.1 1.3-22.8 1.3"/>
		<path class="st14" d="m1550.6 761.5c2.2-5.7 6.3-6.9 11.4-8.8 5.3-1.6 13.4-6.3 8.4-2.9-5 3.5-12.2 5.7-14.7 6.9-2.5 1.3-4.1 4.1-2.8 5.4"/>
		<path class="st20" d="m1540.2 740.1c4.7 5.7 1.8 13.6-4.1 15.8"/>
		<path class="st14" d="m1555.8 720.6c7.6 2.3 7.9 7.7 9 10.9-2.7-.9-4.6-.5-6.6-1.1"/>
		<path class="st21" d="m1552.8 723.7c5.2 5.1 7.1 8.3 7.4 10.1.5 3.1.5 10.8-11.7 10.7 1.1-2.3 2.6-8.3.6-10.8"/>
		<path class="st14" d="m1549.9 739.2c0 5-4.8 7.1-7 7.7"/>
		<path class="st22" d="m1517 718.4c-.3 4.4-8.6 5.4-11.4 1.6-2.2-2.5-3.5-3.8-5.1-4.1s-1.4-4-1.7-4.5c-.2-.7-1.2-2.6-1.7-3.3"/>
		<path class="st23" d="m1505.2 719.6c3.8 4.9 12.9 1.9 15.3 3.9 2.4 1.9-2.3 8.7-3.8 12.6-3.4 3.4-11 3.1-13.8.6 1.5-4.7 1.6-14.6 1.9-14.9l.4-2.2z"/>
		<path class="st14" d="m1436.5 691.2c.6 2.8-.3 3.5-1.2 6s.3 6.9.3 6.9"/>
		<path class="st14" d="m1434.9 770.2c3.1-.6 9.7 0 9.7 0"/>
		<path class="st14" d="m1446.5 777.7c1.9-2.5 6.2-4.7 6.2-4.7"/>
		<path class="st14" d="m1481.5 781c1.6-1.6 1.6-6.6 1.6-6.6"/>
		<path class="st14" d="m1492.9 781c2.5-2.1 2.6-6.5 2.6-6.5"/>
		<path class="st14" d="m1502 780.9c2.5-3.5 2.1-7.5 2.1-7.5"/>
		<path class="st14" d="m1516.1 781.3c1.6-1.9 1.6-6.3 1.6-6.3"/>
		<path class="st14" d="m1617.2 771.3c-5.6-.9-9 4.7-9 4.7"/>
		<path class="st14" d="m1624.6 770.3c-.6 4.1-5 7.9-5 7.9"/>
		<path class="st14" d="m1633.4 770c-.3 3.5-5.3 8.2-5.3 8.2"/>
		<path class="st14" d="m1644.4 768.6c-.8 4.6-5.3 8.1-5.3 8.1"/>
		<path class="st14" d="m1652.5 767c.3 4.1-2.5 10.4-4.4 11.7"/>
		<path class="st14" d="m1662.2 768.7c.9 2.2 0 5.4 0 5.4"/>
		<path class="st14" d="m1601.2 760.2c3.7.6 5.9 3.8 5.9 3.8"/>
		<path class="st14" d="m1594.8 768.1c2-5 10.4-2.5 11.5-1.2"/>
		<path class="st14" d="m1754.9 745.2c-3.1-.3-7.8.9-7.8.9"/>
		<path class="st14" d="m1769.4 749.6c-4.4 1.3-9.4 1.6-9.4 1.6"/>
		<path class="st14" d="m1775 756.8c-3.7-.3-6.5-.3-6.5-.3"/>
		<path class="st14" d="m1782.2 763.7c-3.7-.3-9.7 0-9.7 0"/>
		<path class="st14" d="m1779.4 772.5c-1.2-2.5-5-3.1-5-3.1"/>
		<path class="st14" d="m1742.6 778.4c.9-3.8 7.1-6.8 10.6-6.8h3.4"/>
		<path class="st14" d="m1737.5 770c3.7-.9 9.7-1.3 9.7-1.3"/>
		<path class="st14" d="m1494.9 755.2c3.7-2.2 6.7-6.7 6.7-6.7"/>
		<path class="st14" d="m1540.5 700.1c-3.7 2.8-4.1 3.1-4.1 3.1"/>
		<path class="st14" d="m1544.2 705.4c-5 .3-5.3.2-5.3.2"/>
		<path class="st24" d="m1526.5 703.3c3.7-1 12.3-.2 12.2 2.1 0 2.8-3.4 3-12.2.3l.1-2.1v-.3h-.1z"/>
		<path class="st25" d="m1514.8 703.6c.5-3.3-8.5-6.6-10.7-4.8-2.7 3.1 4.9 5.8 6.9 5.8 1.9 0 .8.2.8.2"/>
		<path class="st26" d="m1541.4 728.7c2.8 4 3.7 10.8.5 14.1"/>
		<path class="st14" d="m1539.2 716.1c-3.4 6.9-.6 13.1-.6 13.1"/>
		<path class="st14" d="m1499 717.9c-2.8 1.7-5.1 1.1-5.1 1.1"/>
		<path class="st26" d="m1531.3 737.8c2.8 1.1 6.8 8 6.2 10.3l-.6 2.3"/>
		<path class="st26" d="m1530.1 740.7c1.7 3.4 4 8.6 3.4 10.3l-.6 1.7"/>
		<path class="st26" d="m1519.9 744.1c1.1 3.4.6 9.1-1.1 10.3l-1.7 1.1"/>
		<path class="st26" d="m1517.1 744.7c-1.7 4-3.4 9.7-3.4 9.7"/>
		<path class="st27" d="m1492.2 720.1c-3.4 3.4-7.9 6.9-7.9 6.9"/>
		<path class="st28" d="m1490 733.8c-2.8 1.7-6.8 5.7-6.8 5.7"/>
		<path class="st28" d="m1493.4 739.6c-4.5-2.3-9.6 1.7-9.6 1.7"/>
		<path class="st29" d="m1465.2 745.7c-1.1 2.3-9.6 4-9.6 4"/>
		<path class="st30" d="m1534.7 704.1-.6 2.6"/>
		<path class="st31" d="m1511.4 699.4c-.7 1.9-1.8 3.9-1.8 3.9"/>
		<path class="st14" d="m1484.9 719.6c-10.4 4-12.2 7.5-10.6 16"/>
		<path class="st32" d="m1555.6 708.1c-3 1-2.5 6.1-2.5 6.1"/>
		<path class="st33" d="m1492.2 700.9c3.2 1.6 1.9 6.6 1.9 6.6"/>
		<path class="st34" d="m1471.3 780.1c-.2 4.9-6.6 3.6-9.3 3.6l2.3-3.2c.3 0 1.1.3 2-.2l5-.2z"/>
		<path class="st35" d="m1526.9 737.9c.7 2.4.7 3.9.4 6.5-.8 4.1-1.1 4.2-3.4 7.6-.8.9-.4-.1-2.5 3.1l-7.5-3.8c.4 1.2 0-.9.4-1.3 1.2-1.6 1.1-1.9 1.5-3.9.2-1.8 2.1-4.9 3.2-1.9l7.9-6.3z"/>
		<path class="st35" d="m1500.4 753.3c1.7.4 5.9-.7 7.7-1 2.9-.7.2-1.1 2.6-2.7.7-.6 1.3-2.5 1.8-3.2l-3.2-.2c-.4 2-3 .4-3.2.6-1.2.8-1 .3-2.5.6-1.3.2-2.7-.1-.6.4l-2.6 5.5z"/>
		<path class="st35" d="m1665.2 741.1c-1 3.9-2.3 6-4.7 9.1-4.3 4.6-8.4 7.1-14.1 9.1-1.8.4-3.6.6-5.4.8l-.8-13.2c.8 0 1.6-.1 2.4-.3 2.8-.9 4.6-2.1 6.7-4.4 1.7-2.3 2.4-5.6 1.5-.4l14.4-.7z"/>
		
			<linearGradient id="k" x1="2351" x2="2366.1" y1="-304.65" y2="-290.41" gradientTransform="matrix(.6305 0 0 -.6221 -35.842 553.05)" gradientUnits="userSpaceOnUse">
			<stop style="stop-color:#4A0000" offset="0"/>
			<stop style="stop-color:#FFCF00" offset="1"/>
		</linearGradient>
		
			<path d="m1445.8 741.4c12.2-2.1 19.1-14 19.1-14" style="fill:none;stroke-opacity:.2611;stroke-width:1.6882;stroke:url(#k)"/>
		
			<linearGradient id="g" x1="1873.9" x2="1887.5" y1="-644.85" y2="-632.02" gradientTransform="matrix(.7801 0 0 -.5028 -29.226 407.74)" gradientUnits="userSpaceOnUse">
			<stop style="stop-color:#4A0000" offset="0"/>
			<stop style="stop-color:#FFCF00" offset="1"/>
		</linearGradient>
		
			<path d="m1431.5 730.8c12.4.5 21.6-9.7 21.6-9.7" style="fill:none;stroke-opacity:.2611;stroke-width:1.6882;stroke:url(#g)"/>
		<path class="st38" d="m1727.7 757.1.6-1.2c-1.3 2.7-1 1.5 3.7-1.2h9.1c3.8 0 5.7.6 9.1 1.2 2.1.8 4 2.1 6.1 3.1"/>
		<path class="st35" d="m1489.3 747.8c-.4 1.4 4.4 3.2 7.2 3.3 2.9-1.3 3-1.8 5.1-4.1.5-.7-.1-.2.3-1l-6.3-4.4c-.8.3-1.3.7-1.5 1-1 1.1-.9 1.7-2.4 2.4-1.4.4-1.5.2-.5.6l-1.1 1.3-.8.9z"/>
		<path class="st35" d="m1544.2 747.6c1.8-1.4 2.5-2.6 3.5-4.7 1.3-3.6 1.6-6.5 1.3-10.3-.2-1.2-.5-2.3-.9-3.4l-6.8 2.3c.2.5.3 1 .4 1.5.2 1.9 0 3.2-.7 4.9-.8 1.5-2.3 2.6.1 1l3.1 8.7z"/>
		<path class="st35" d="m1548.9 724.4c2.2.2 3.5.8 5.5 2.1 3 2.3 4.8 4.7 6.5 8.2.4 1.1.7 2.3 1 3.4l-7.1 2c-.1-.5-.2-1-.4-1.5-.8-1.7-1.7-2.8-3.1-3.9-1.4-.8-3.3-1-.4-.9l-2-9.4z"/>
		<path class="st35" d="m1537.9 754.4c1.9-2.3 3.4-.9 4-3.7.3-4.6-.5-8.2-2.5-12.5-.8-1.3-1.7-2.5-2.7-3.7l-8.7 5.1c.4.5.8 1 1.2 1.6 1 2.1 1.3 3.7 1.1 6-.4 2 .1 2.6 2.1 3.3l5.5 3.9z"/>
		<path class="st38" d="m1770.9 765.5c3.8 0 5.7.6 9.1 1.2 2.1.8 4 2.1 6.1 3.1"/>
		<path class="st38" d="m1753 747.8c3.7-.7 5.7-.5 9.2-.6 2.2.4 4.4 1.3 6.6 1.8"/>
		<path class="st39" d="m1693.9 755.2c-2.5.1-3.7-.4-6-.9-1.4-.7-2.7-1.8-4-2.5"/>
		<path class="st40" d="m1717.7 721.8c-12.2-.3-21.4-.4-29.5-.6-7.9-.1-21-.4-29.6-.6"/>
		<path class="st39" d="m1619.3 729.2c2.3-1 3.6-1 5.8-1.5 1.5.1 3.1.6 4.7.8"/>
		<path class="st35" d="m1430.9 717.2c-1 1.6-1.8 2.2-3.1 3.2-2.1 1.2-3.2 1.1-5.2 1-.6-.2-.6-3.6-1.1-3.9l1.1-2.4c.2.1.5.2.7.3 1 .1 1.7-.1 2.8-.7.9-.7 1.8-2.1.5.1l4.3 2.4z"/>
		
			<g transform="matrix(1.0802 0 0 1.0554 107.22 -80.507)">
			<path class="st41" d="m1293.6 756.8c-.3 5.9-4.6 9.1-4.6 9.1"/>
			<path class="st42" d="m1289.2 754c-2.2 6.5.6 11.7.6 11.7"/>
		</g>
		
			<g transform="matrix(-1.0703 -.14124 -.1458 1.0368 388.25 -57.396)">
			<path class="st41" d="m-1142 597.3c-.3 5.9-4.6 9.1-4.6 9.1"/>
			<path class="st42" d="m-1146.4 594.5c-2.2 6.5.7 11.7.7 11.7"/>
		</g>
		<path class="st35" d="m1495 776.8c-.3 5-9.1 3.7-12.9 3.7l1.1-1.3c.5 0 3.7-1.6 5-2.2l6.8-.2z"/>
		<path class="st35" d="m1503.5 774.5c-.3 7.1-7.8 5.2-11 5.2l.9-1.9c.4 0 3.2-2.3 4.3-3l5.8-.3z"/>
		<path class="st35" d="m1517.3 774.8c-.4 10.5-10.7 7.7-15.1 7.8l1.2-2.8c.5 0 4.4-3.4 5.9-4.5l8-.5z"/>
		<path class="st35" d="m1530.9 774.7c-.4 10.5-10.7 7.7-15.1 7.8l1.2-2.8c.5 0 4.4-3.4 5.9-4.5l8-.5z"/>
		<path class="st35" d="m1481.6 774.7c-.3 10.5-9.1 7.7-12.9 7.8l1.1-2.8c.5 0 3.7-3.4 5-4.5l6.8-.5z"/>
		<path class="st34" d="m1488.3 745.9c-1.2 2.7-3.2 4.7-2.9 6.4l-1.9-.6c1.5.4-1.7-4.3-2.4-3.4l1.8-.9.4-.5.9-.3 4.1-.7z"/>
		<path class="st14" d="m1556.9 717c.9.3 3.3 0 7.7 1.4-1.8 1.9-6.5 3.1-8.3 2.5"/>
		<path class="st43" d="m1665.2 761.8c-2.8.5-4.3.3-6.9.3-1.7-.4-3.4-1.2-5.1-1.7"/>
		<path class="st44" d="m1638 768.9c5.2 1 8.2 1 13.3 1.3 3.4-.3 6.9-1 10.3-1.3"/>
		<path class="st20" d="m1567.8 758.7c-5.4 1.3-7.9 1.4-9.6.2"/>
		<path class="st45" d="m1573.7 755.4c-4.7 1.3-7.4 1.8-9.7.7"/>
		<path class="st46" d="m1581.7 751.3c-3.1 1.3-4.9 1.8-6.5.7"/>
		<path class="st47" d="m1587.2 748.2c-3.8 1.3-6 1.8-7.9.7"/>
		<path class="st14" d="m1436.1 691.2c.6 2.8-.3 3.5-1.2 6s.3 6.9.3 6.9"/>
		<path class="st14" d="m1447.9 694.7c-3.5 3.1-3.1 8.9-3.1 8.9"/>
		<path class="st48" d="m1419 696.1c6.3.4 9.5 4 10.9 7.1s2.3 4.9 2.3 4.9"/>
		<path class="st14" d="m1531.4 716.8c.3 6-14.7 10.4-14.3 1.3"/>
	</g>
</g>
<g transform="translate(-1.2941 -78.722)">
	
		<g transform="matrix(.50728 0 0 .6197 -64.283 10.41)">
		
			<g transform="matrix(1.0802 0 0 1.1552 132.87 -68.637)">
			<path class="st9" d="m1366.9 833.2c-1.4 1.5 2.4 8.1 8.1 7.9-3.7-4.1-3.3-8.8-3.3-8.8z"/>
			<path class="st9" d="m1352.7 826c-2.1.2-7.1 8.9.9 12 .3-5.4 4-8.6 4-8.6l-4.1-2.4z"/>
			<path class="st9" d="m1351.7 820.8c-2-1.4-10.7 2.7-10.3 9 5.3-4.2 11.7-3.8 11.7-3.8z"/>
			<path class="st9" d="m1361.8 815.8c-.1-2-7.7-4.2-11.7-.3 5.7.4 9 4.1 9 4.1z"/>
		</g>
		
			<g transform="matrix(1.0802 0 0 1.1552 132.87 -68.637)">
			<path class="st9" d="m1514.2 834c-.1 1.8.5 2.4 1.8 3.4s2.8 4 2.8 4 4.1-7.9 3.1-8.9c-1.1-1.1-7.5 1.4-7.7 1.5z"/>
			<path class="st9" d="m1492.3 830.7c-2.1-.3-6 6.2-2.7 10.7 1.6-5.2 6.1-7.4 6.1-7.4z"/>
			<path class="st9" d="m1482.2 828.8c-1.6-1.2-8.5 2.4-8.3 7.8 4.3-3.6 9.3-3.3 9.3-3.3z"/>
			<path class="st9" d="m1487.5 820.4c-1.1-1.7-8.9-.3-10.4 4.9 5.3-2.2 9.9-.4 9.9-.4z"/>
		</g>
		
			<g transform="matrix(1.0802 0 0 1.1552 133.55 -68.637)">
			<path class="st9" d="m1227.9 816.7c.7-1.8-5.1-6.9-10.4-4.9 5 2.7 6.3 7.3 6.3 7.3z"/>
			<path class="st9" d="m1205.5 828.2c-1.9-1.7-10.1 3.1-9.6 10.2 5-4.7 11-4.3 11-4.3z"/>
			<path class="st9" d="m1206.2 818.1c-.8-2.3-10.4-2-13.7 4.4 6.8-1.8 11.8 1.4 11.8 1.4z"/>
			<path class="st9" d="m1216 837.1c-.5 1.7 0 2.5 1 3.7s1.8 4.4 1.8 4.4 5.8-6.9 5-8.2c-.8-1.1-7.6.1-7.8.1z"/>
		</g>
		
			<g transform="matrix(1.0802 0 0 1.1552 132.87 -68.637)">
			<path class="st9" d="m1192.9 757.6c0-2.5-9.2-5.1-14.4 0 7 .3 10.7 4.9 10.7 4.9z"/>
			<path class="st9" d="m1183.4 767.4c-1.9-1.7-10.1 3.1-9.6 10.2 5-4.7 11-4.3 11-4.3z"/>
			<path class="st9" d="m1216.6 756.7c.9-2.3-6.8-7.7-13.6-4.6 6.5 2.6 8.4 8 8.4 8z"/>
			<path class="st9" d="m1227.5 765.2c1.5-1.3-1.3-8.3-7.1-8.8 3.2 4.5 2.2 9.2 2.2 9.2z"/>
		</g>
		<path class="st10" d="m1491.8 824.8c-6.2-5.3-.1-14.9 5.5-10.8-2.9-3.9 1.9-7.1 4-5.1-1-3.2 3.6-5.3 5.8-2.4-.8-3.6 6-5.7 7.7-1.8.1-3.5 6.8-6.3 8.2-1.1 1.3-4 8.7-4.5 9.3 1.1 2.2-3.3 7.7-3 8 1.7 2.4-2.2 8.6 1.1 7.5 5.1 3.8-.6 8.5 5 3.8 9.2 8.3-3.2 10.2 7.2 5.2 12 2.6 1.2 2.8.1 5.1 1s6.5 2.3 10.3 2.9c3.4 0 16.1-.3 18.6-.6 2.6-.3 6.1-1.3 10.3-2.3 4.4-1 10.8-1.1 16.6-2.1 4.6-.4 134.2 1.5 137.9 1.2s9.2-2.9 8.9-6.1-4.6-5.5-8.9-5.8-26.4-.3-30.4.3-9.7 2-12.6 4.1c-1.4.6-3.7 3.1-5.6 4.7-1.8 1.1-6.9 1.3-6.9-.2 0-.9-.4.2-1.7.5-1.6.7-9 .9-8.6 0 .6-1.1 0-1.4-2-.3-1.4.9-11.6 1.2-13.4.3 1.1-1.4 1.1-1.3-1.9-.2-1.9.6-9.9 1.1-10.5-.1-.1-.9-1-.5-2.1-.2-9.1 1.7-9.9-.3-8.5-1.1 1.4-.9 3.6-5.8 1.3-5.5s-16.6 2.3-21.5 2.9-40.1 0-45-.3-10.3-3.6-10.6-8.4c-.5-7.6 8-9.6 13.2-10.7 5.2-1.2 18.1-2.9 23.2-2.9 5.2 0 19.9 1.3 23.9.2 4-1.2 16.2-4.4 19.6-4.6 5.1-.3 19.6.9 26.6 7-3.6 1.2-5.3 1.9-1.2.8 3.7-.6 19.7-3 23.4-3.6 12.9-.4 9.5 1 3.2 2.2-2.1 4.9-21.1 11.7-27.1 12.6s-18.8.2-21.7-.1c-2.9-.2-16.4-.7-21.4-3-8-3.9-22.7-6.5-29.2-6.5-6 .1-23.3 1.4-23.2 5.8-.1 7.7 16.1 8.1 22.9 7.8 6.9-.3 24.1-.9 29-2.3s15.4-1.8 21.1-1.8 14.1.9 16.7.6 8.6-.4 11.5-1.8 9.1-3 15.4-3 53.1-1.3 59.4-1c9.1 0 15.6 7.2 15.7 13.4.1 2.9-1.9 7.2-3.5 7.8 2.8.2 9.9.8 12.3 1.1 4.4.6 11.5 4.2 12.3 7.4-3.3-1.5-8.7-3.7-13.6-4-.9 0-103.1-.1-111.1-.1 21.8 1.9 38.5 14.1 42.7 21.2 3.7 4.3 12.9 2.6 16.3 2s7.5-3.2 10.3-5.2c2.9-2 7.3-2.5 9.4-2 4.5-.3 5.2 3.2 3.5 4.9s.3 1 4.9 1 8.6 1.2 11.3 3.9c-2.6 1.7-3.9.3-.2.6s8.2 5.3 5.4 6.7c-2.4.9-3.2.6 0 .8 4.7.3 6 2.5 6.6 6.5-4 .5-2-.4 0 1.1 2 1.4 4.9 7.9-2.3 8.1-2.6-.9-2.5-1-2 .9.5 2-.9 6.9-4.9 6.9-5.6.8-10.6-1.4-11.2-4.1-.6-2.6-.5 5-8.4 6.2-7.4 1.2-11.4-1.9-12-3.3s-.3-.3-3.2-.6-6.5-.3-8-3.8c0-2 .6-4.7 5.7-5.1 2.3-.3 2.9-2.5 1.2-2.8s-.3-4.6 3.4-3.5c3.7 1.2 12.3 1.4 14.3 2.9 2 1.4 2.6-1.2-.6-3.5s-22.4-6.9-27.5-5.2c-12 4.4-32.1 3.8-35.5 3.2s-13.4 1-18.1-9.6c-3.8-10.8-18.2-16.1-24.8-16.7-32.5-2.2-30.8-.5-9.7.2-.2 2-.9 6.1 2.5 6.7 5.7-.6 17.7-2.4 20.5-.7 2.9 1.7 5.7 3.2 5.2 7.2-.6 4.1.3 2.9-2.3 4.6s-1.4 5.2 2.6 6.4 5.7 2.6 8.3 4.3-1.1 5.2-3.4 4.1c-2.3-1.2-2.3-1.2-2.6 1.2-.3 2.3-3.1 6.7-8 7-1-.3-.7-1.5-.6-2.4.3-2-1 2.5-2.5 3.8-1 .9-9.1 2.5-11.4 1.6 1-1.8.4-1.1-1.6-.2-2 .6-12.5 1.6-7.8-2 1.2-1.3-1.7 1.7-3.3 2.2-1.3.6-7.6 1-7.6-.8-2 1.3-6.7 1.3-7.5.3-1.4-1.2-1.6.9-4.1 1.2-2.6.3-8.2-.3-8.5-2.6s.6-.9-2.6-.6c-7.7 3.7-11.5-1.4-11.5-3.2 0-1.7-.3-3.8.6-4.9.9-1.2-5.3-1.5-3.4-3.8 2.1-2.8 4.4-4.8 8.6-4.3 2 .3 1.7-.6.9-1.7-.9-1.2 2.3-1.7 6-.6 3.7 1.2 6.3 4.1 7.5 6.7 1.1 2.6 10 .6 13.8.9 3.7.3 4-4.3 1.7-5.8-2.3-1.4-8.6-6.7-11.2-8.4s-.9-7.8 1.4-9.3c13.3-6.6 6-8.7 1.1-8.1s-17.4 4.2-21.4 7.4-35.2 18.8-38.1 20.5-7 2.2-8.8.1c-1.7-2-2.9-.6-2.6 2.3 2.3 10.9-11.2 14.4-13.5 14.3-1.6-.1-4-.8-5.7-1.8-1.7 6.1-9.1 6.7-15.8 6.1-.1-.7 1.2-2.1.5-1.6-2.2 2.1-9 1.9-14.8 1.6-.4-1.3 2-2.8.9-2-2 2.7-5.3 2.2-10.8 1.9-.1-.6 2.5-2.5 1.3-1.3-2.4 1.9-7.4 1.3-11.2 1.4-.5-.4 2-3.4-.2-1.4-2.1 1.7-6.7 2-11 1.5-.8-1.4.9-1.4 1.4-2.3 1.1-1.4-.6 0-2 0s-3.4.3-4.3-1.2c-.9-1.4-.4 1.4-1.2 2.2-.8.7-1.8 2.3-4.6 2.9-2.9.6-10.3 1.2-11.5-1.4-1.5-1.2-2.3-3.8-1.1-5.2 1.1-1.4-5.5 2.8-8.3 3.2-8.4 1.2-9.5-8.4-5.7-9.3 3.7-.9 3.2-2.3 1.1-3.5-2-1.2-3.2-5.8-.6-7.2s8.6-2.2 12.3-.6c2.2 1.1 6.9 4.9 6 2-.6-1.8 1-4 2.8-5 1.6-1.1 6.5-1.3 7.8 1 3 5.3 5.2 7.6 8.9 7.5 7.9-1.6 18.7-3.4 21.8-3.4 4-.7 25.5-2.2 25.5-3.7-12.8 3.2-18-1-19.5-.7-1.4.3-5-.9-5-1.7 0-1.7 3.2-1.5-1.4-1-2.7-.2-5.2-.3-7.5-2.3-.4-1.1 3-4.7 4.3-7.8-3-.6-9.5 3.3-11.7 6.7-1.5-1.3-2.1-.1-7.5.8-2.5.8-6.7.5-8.9-.4-2.3-.9-11.3-5.8-6.9-6.5-1.1-.4-2.5-.6-3.3-.8-3.2-1-6.1-2.9-5.2-3.4-.8-.9.9-.9-.3-1-1.7-.3-6-2.5-4.9-3.4-1.1-.5-3.7-1.3-4.8-1.7-2-.9-4-3.9-4.3-5.3-1.8.1-5.8-2.4-4-3.2-3-1.6-5.6-4.3-3.6-5.2-1.8-1-3-2.9-1.8-2.2-1.8-1.6-1.3-3.4.2-3.4 1.4 0 .9-4.6-1.7-4.6s-6.7 1.5-9.7 0c-2.5-1.4-4.6-7.5-2.3-10.1s6.9-5.5 9.2-5.2 1.1.9.6-1.7c-.6-2.6 3.2-4.6 5.7-5.2 3-1 8.9-.3 10.6.9s2.3 1.2 2.3-.9c0-1.4 2.2-2.2 4.2-2.5 3.3-.6 5.8.1 7 1.1 1.8 1.9 2.9 4.1.6 5.8s-.3.3 3.4-.3c2.4-.6 6.7.2 7.5 2.1 1 2 1.7 5.5-.9 7.2s-6.3 6.1-4.3 7.5 8.3 7.8 9.7 8.7 3.2 2.9 5.4 2.6c2.3-.3 4.9-.6 6.9-.9 8-1.2 11.6-1.8 1.3-1.5 2.3-2.4 7.1-3.1 9.2-3.5-1.1-1.6 5.7-5.9 5.7-6.4z"/>
		<path class="st11" d="m1491.8 848.2c-5.5-.6-19.4 8.2-14.9 19.1"/>
		
			<linearGradient id="f" x1="2126.9" x2="2127.1" y1="-553.29" y2="-526.71" gradientTransform="matrix(.7254 0 0 -.5407 -31.644 560.77)" gradientUnits="userSpaceOnUse">
			<stop style="stop-color:#4A0000" offset="0"/>
			<stop style="stop-color:#FFCF00" offset="1"/>
		</linearGradient>
		
			<path d="m1492.6 838.5c-7.4 34.2 38.1 21 38.4 9.4" style="fill:none;stroke-width:1.2827;stroke:url(#f)"/>
		<path class="st13" d="m1528.4 852.8c.6 4.5 1 17.1-5.4 20.3s-14.3 3.6-20.6 2"/>
		<path class="st14" d="m1514.3 859.8c-.6 4.4-6.7 15.4-18.5 13.9"/>
		<path class="st14" d="m1418.6 812.4c6.2.4 9.3 4 10.6 7.1s2.2 4.9 2.2 4.9"/>
		<path class="st14" d="m1423.9 837.9c2.7.9 7.5 0 7.5 0"/>
		<path class="st15" d="m1426.4 842.7c5.9 1.3 11.7-.9 11.7-.9"/>
		
			<linearGradient id="c" x1="2307.3" x2="2324.5" y1="-351.83" y2="-335.68" gradientTransform="matrix(.6401 0 0 -.6129 -35.42 639.02)" gradientUnits="userSpaceOnUse">
			<stop style="stop-color:#4A0000" offset="0"/>
			<stop style="stop-color:#FFCF00" offset="1"/>
		</linearGradient>
		
			<path d="m1439.5 853.2c16 0 22.8-16.5 22.8-16.5" style="fill:none;stroke-opacity:.2611;stroke-width:1.2218;stroke:url(#c)"/>
		<path class="st17" d="m1472.1 845.5c-4.4 8.5-4 8.5-9.7 10.3l-5.7 1.8"/>
		<path class="st14" d="m1454 862c6.2-1.3 10.2-4 10.2-4"/>
		<path class="st14" d="m1447.3 810.5c-3.5 3.1-3.1 8.9-3.1 8.9"/>
		<path class="st14" d="m1520.3 810.7c.9 5.8-2.7 8.9-4.9 8.9s-4.7 2.2-3.3 5.7"/>
		<path class="st14" d="m1529.5 809.8c-4 4-4.9 8.5-3.5 12.1 1.3 3.6.1 4.6.1 4.6"/>
		<path class="st18" d="m1482.3 842.8c-7.1 1.4-10 10.8-6.2 15.9"/>
		<path class="st14" d="m1547.3 829.4h-4.9s-3.1 4.9-8.4 3.6-.4 0-.4 0"/>
		<path class="st14" d="m1521.2 825.3c7.6.1 6 4.5.4 4.1.4 5.4-8.4 4.7-7.6.6-5.3.1-7.5-5.3.2-4.6"/>
		<path class="st14" d="m1700.4 829.4c1.6-3.5 8.7-6.6 8.7-6.6"/>
		<path class="st14" d="m1690 829.2c3.1-4.1 8.7-6.6 8.7-6.6"/>
		<path class="st14" d="m1674.8 829.6c4.7-2.1 6.1-2.9 7.6-4 1.7-1.2 5-3.5 5-3.5"/>
		<path class="st19" d="m1661.5 829.5c3.5-1.3 6.2-2.1 8.5-3.4 2.9-1.5 4.9-3.5 4.9-3.5"/>
		<path class="st14" d="m1664.4 818.6c-11-2.7-16-8.2-16-8.2"/>
		<path class="st14" d="m1682.7 807c-7.3 2.2-22.1 1.3-22.8 1.3"/>
		<path class="st14" d="m1550.6 877.2c2.2-5.7 6.3-6.9 11.4-8.8 5.3-1.6 13.4-6.3 8.4-2.9-5 3.5-12.2 5.7-14.7 6.9-2.5 1.3-4.1 4.1-2.8 5.4"/>
		<path class="st20" d="m1540.2 855.8c4.7 5.7 1.8 13.6-4.1 15.8"/>
		<path class="st14" d="m1555.8 836.3c7.6 2.3 7.9 7.7 9 10.9-2.7-.9-4.6-.5-6.6-1.1"/>
		<path class="st21" d="m1552.8 839.4c5.2 5.1 7.1 8.3 7.4 10.1.5 3.1.5 10.8-11.7 10.7 1.1-2.3 2.6-8.3.6-10.8"/>
		<path class="st14" d="m1549.9 854.9c0 5-4.8 7.1-7 7.7"/>
		<path class="st22" d="m1517 834.1c-.3 4.4-8.6 5.4-11.4 1.6-2.2-2.5-3.5-3.8-5.1-4.1s-1.4-4-1.7-4.5c-.2-.7-1.2-2.6-1.7-3.3"/>
		<path class="st23" d="m1505.2 835.4c3.8 4.9 12.9 1.9 15.3 3.9 2.4 1.9-2.3 8.7-3.8 12.6-3.4 3.4-11 3.1-13.8.6 1.5-4.7 1.6-14.6 1.9-14.9l.4-2.2z"/>
		<path class="st14" d="m1436.5 806.9c.6 2.8-.3 3.5-1.2 6s.3 6.9.3 6.9"/>
		<path class="st14" d="m1434.9 886c3.1-.6 9.7 0 9.7 0"/>
		<path class="st14" d="m1446.5 893.4c1.9-2.5 6.2-4.7 6.2-4.7"/>
		<path class="st14" d="m1481.5 896.7c1.6-1.6 1.6-6.6 1.6-6.6"/>
		<path class="st14" d="m1492.9 896.7c2.5-2.1 2.6-6.5 2.6-6.5"/>
		<path class="st14" d="m1502 896.6c2.5-3.5 2.1-7.5 2.1-7.5"/>
		<path class="st14" d="m1516.1 897c1.6-1.9 1.6-6.3 1.6-6.3"/>
		<path class="st14" d="m1617.2 887c-5.6-.9-9 4.7-9 4.7"/>
		<path class="st14" d="m1624.6 886.1c-.6 4.1-5 7.9-5 7.9"/>
		<path class="st14" d="m1633.4 885.7c-.3 3.5-5.3 8.2-5.3 8.2"/>
		<path class="st14" d="m1644.4 884.3c-.8 4.6-5.3 8.1-5.3 8.1"/>
		<path class="st14" d="m1652.5 882.7c.3 4.1-2.5 10.4-4.4 11.7"/>
		<path class="st14" d="m1662.2 884.5c.9 2.2 0 5.4 0 5.4"/>
		<path class="st14" d="m1601.2 875.9c3.7.6 5.9 3.8 5.9 3.8"/>
		<path class="st14" d="m1594.8 883.8c2-5 10.4-2.5 11.5-1.2"/>
		<path class="st14" d="m1754.9 860.9c-3.1-.3-7.8.9-7.8.9"/>
		<path class="st14" d="m1769.4 865.3c-4.4 1.3-9.4 1.6-9.4 1.6"/>
		<path class="st14" d="m1775 872.5c-3.7-.3-6.5-.3-6.5-.3"/>
		<path class="st14" d="m1782.2 879.4c-3.7-.3-9.7 0-9.7 0"/>
		<path class="st14" d="m1779.4 888.2c-1.2-2.5-5-3.1-5-3.1"/>
		<path class="st14" d="m1742.6 894.1c.9-3.8 7.1-6.8 10.6-6.8h3.4"/>
		<path class="st14" d="m1737.5 885.8c3.7-.9 9.7-1.3 9.7-1.3"/>
		<path class="st14" d="m1494.9 870.9c3.7-2.2 6.7-6.7 6.7-6.7"/>
		<path class="st14" d="m1540.5 815.8c-3.7 2.8-4.1 3.1-4.1 3.1"/>
		<path class="st14" d="m1544.2 821.2c-5 .3-5.3.2-5.3.2"/>
		<path class="st24" d="m1526.5 819c3.7-1 12.3-.2 12.2 2.1 0 2.8-3.4 3-12.2.3l.1-2.1v-.3z"/>
		<path class="st25" d="m1514.8 819.3c.5-3.3-8.5-6.6-10.7-4.8-2.7 3.1 4.9 5.8 6.9 5.8 1.9 0 .8.2.8.2"/>
		<path class="st26" d="m1541.4 844.4c2.8 4 3.7 10.8.5 14.1"/>
		<path class="st14" d="m1539.2 831.9c-3.4 6.9-.6 13.1-.6 13.1"/>
		<path class="st14" d="m1499 833.6c-2.8 1.7-5.1 1.1-5.1 1.1"/>
		<path class="st26" d="m1531.3 853.6c2.8 1.1 6.8 8 6.2 10.3l-.6 2.3"/>
		<path class="st26" d="m1530.1 856.4c1.7 3.4 4 8.6 3.4 10.3l-.6 1.7"/>
		<path class="st26" d="m1519.9 859.8c1.1 3.4.6 9.1-1.1 10.3l-1.7 1.1"/>
		<path class="st26" d="m1517.1 860.4c-1.7 4-3.4 9.7-3.4 9.7"/>
		<path class="st27" d="m1492.2 835.9c-3.4 3.4-7.9 6.9-7.9 6.9"/>
		<path class="st28" d="m1490 849.6c-2.8 1.7-6.8 5.7-6.8 5.7"/>
		<path class="st28" d="m1493.4 855.3c-4.5-2.3-9.6 1.7-9.6 1.7"/>
		<path class="st29" d="m1465.2 861.4c-1.1 2.3-9.6 4-9.6 4"/>
		<path class="st30" d="m1534.7 819.8-.6 2.6"/>
		<path class="st31" d="m1511.4 815.2c-.7 1.9-1.8 3.9-1.8 3.9"/>
		<path class="st14" d="m1484.9 835.3c-10.4 4-12.2 7.5-10.6 16"/>
		<path class="st32" d="m1555.6 823.8c-3 1-2.5 6.1-2.5 6.1"/>
		<path class="st33" d="m1492.2 816.6c3.2 1.6 1.9 6.6 1.9 6.6"/>
		<path class="st34" d="m1471.3 895.8c-.2 4.9-6.6 3.6-9.3 3.6l2.3-3.2c.3 0 1.1.3 2-.2z"/>
		<path class="st35" d="m1526.9 853.6c.7 2.4.7 3.9.4 6.5-.8 4.1-1.1 4.2-3.4 7.6-.8.9-.4-.1-2.5 3.1l-7.5-3.8c.4 1.2 0-.9.4-1.3 1.2-1.6 1.1-1.9 1.5-3.9.2-1.8 2.1-4.9 3.2-1.9z"/>
		<path class="st35" d="m1500.4 869c1.7.4 5.9-.7 7.7-1 2.9-.7.2-1.1 2.6-2.7.7-.6 1.3-2.5 1.8-3.2l-3.2-.2c-.4 2-3 .4-3.2.6-1.2.8-1 .3-2.5.6-1.3.2-2.7-.1-.6.4z"/>
		<path class="st35" d="m1665.2 856.8c-1 3.9-2.3 6-4.7 9.1-4.3 4.6-8.4 7.1-14.1 9.1-1.8.4-3.6.6-5.4.8l-.8-13.2c.8 0 1.6-.1 2.4-.3 2.8-.9 4.6-2.1 6.7-4.4 1.7-2.3 2.4-5.6 1.5-.4z"/>
		
			<linearGradient id="j" x1="2351" x2="2366.1" y1="-336.32" y2="-322.08" gradientTransform="matrix(.6305 0 0 -.6221 -35.842 649.06)" gradientUnits="userSpaceOnUse">
			<stop style="stop-color:#4A0000" offset="0"/>
			<stop style="stop-color:#FFCF00" offset="1"/>
		</linearGradient>
		
			<path d="m1445.8 857.1c12.2-2.1 19.1-14 19.1-14" style="fill:none;stroke-opacity:.2611;stroke-width:1.6882;stroke:url(#j)"/>
		
			<linearGradient id="i" x1="1873.9" x2="1887.5" y1="-684.04" y2="-671.21" gradientTransform="matrix(.7801 0 0 -.5028 -29.226 503.75)" gradientUnits="userSpaceOnUse">
			<stop style="stop-color:#4A0000" offset="0"/>
			<stop style="stop-color:#FFCF00" offset="1"/>
		</linearGradient>
		
			<path d="m1431.5 846.5c12.4.5 21.6-9.7 21.6-9.7" style="fill:none;stroke-opacity:.2611;stroke-width:1.6882;stroke:url(#i)"/>
		<path class="st38" d="m1727.7 872.9.6-1.2c-1.3 2.7-1 1.5 3.7-1.2h9.1c3.8 0 5.7.6 9.1 1.2 2.1.8 4 2.1 6.1 3.1"/>
		<path class="st35" d="m1489.3 863.5c-.4 1.4 4.4 3.2 7.2 3.3 2.9-1.3 3-1.8 5.1-4.1.5-.7-.1-.2.3-1l-6.3-4.4c-.8.3-1.3.7-1.5 1-1 1.1-.9 1.7-2.4 2.4-1.4.4-1.5.2-.5.6l-1.1 1.3z"/>
		<path class="st35" d="m1544.2 863.3c1.8-1.4 2.5-2.6 3.5-4.7 1.3-3.6 1.6-6.5 1.3-10.3-.2-1.2-.5-2.3-.9-3.4l-6.8 2.3c.2.5.3 1 .4 1.5.2 1.9 0 3.2-.7 4.9-.8 1.5-2.3 2.6.1 1z"/>
		<path class="st35" d="m1548.9 840.1c2.2.2 3.5.8 5.5 2.1 3 2.3 4.8 4.7 6.5 8.2.4 1.1.7 2.3 1 3.4l-7.1 2c-.1-.5-.2-1-.4-1.5-.8-1.7-1.7-2.8-3.1-3.9-1.4-.8-3.3-1-.4-.9z"/>
		<path class="st35" d="m1537.9 870.1c1.9-2.3 3.4-.9 4-3.7.3-4.6-.5-8.2-2.5-12.5-.8-1.3-1.7-2.5-2.7-3.7l-8.7 5.1c.4.5.8 1 1.2 1.6 1 2.1 1.3 3.7 1.1 6-.4 2 .1 2.6 2.1 3.3z"/>
		<path class="st38" d="m1770.9 881.3c3.8 0 5.7.6 9.1 1.2 2.1.8 4 2.1 6.1 3.1"/>
		<path class="st38" d="m1753 863.5c3.7-.7 5.7-.5 9.2-.6 2.2.4 4.4 1.3 6.6 1.8"/>
		<path class="st39" d="m1693.9 871c-2.5.1-3.7-.4-6-.9-1.4-.7-2.7-1.8-4-2.5"/>
		<path class="st40" d="m1717.7 837.6c-12.2-.3-21.4-.4-29.5-.6-7.9-.1-21-.4-29.6-.6"/>
		<path class="st39" d="m1619.3 845c2.3-1 3.6-1 5.8-1.5 1.5.1 3.1.6 4.7.8"/>
		<path class="st35" d="m1430.9 832.9c-1 1.6-1.8 2.2-3.1 3.2-2.1 1.2-3.2 1.1-5.2 1-.6-.2-.6-3.6-1.1-3.9l1.1-2.4c.2.1.5.2.7.3 1 .1 1.7-.1 2.8-.7.9-.7 1.8-2.1.5.1z"/>
		
			<g transform="matrix(1.0802 0 0 1.0554 107.22 -80.507)">
			<path class="st41" d="m1293.6 866.4c-.3 5.9-4.6 9.1-4.6 9.1"/>
			<path class="st42" d="m1289.2 863.6c-2.2 6.5.6 11.7.6 11.7"/>
		</g>
		
			<g transform="matrix(-1.0703 -.14124 -.1458 1.0368 388.25 -57.396)">
			<path class="st41" d="m-1157 706.9c-.3 5.9-4.6 9.1-4.6 9.1"/>
			<path class="st42" d="m-1161.3 704.1c-2.2 6.5.7 11.7.7 11.7"/>
		</g>
		<path class="st35" d="m1495 892.5c-.3 5-9.1 3.7-12.9 3.7l1.1-1.3c.5 0 3.7-1.6 5-2.2z"/>
		<path class="st35" d="m1503.5 890.2c-.3 7.1-7.8 5.2-11 5.2l.9-1.9c.4 0 3.2-2.3 4.3-3z"/>
		<path class="st35" d="m1517.3 890.5c-.4 10.5-10.7 7.7-15.1 7.8l1.2-2.8c.5 0 4.4-3.4 5.9-4.5z"/>
		<path class="st35" d="m1530.9 890.4c-.4 10.5-10.7 7.7-15.1 7.8l1.2-2.8c.5 0 4.4-3.4 5.9-4.5z"/>
		<path class="st35" d="m1481.6 890.4c-.3 10.5-9.1 7.7-12.9 7.8l1.1-2.8c.5 0 3.7-3.4 5-4.5z"/>
		<path class="st34" d="m1488.3 861.6c-1.2 2.7-3.2 4.7-2.9 6.4l-1.9-.6c1.5.4-1.7-4.3-2.4-3.4l1.8-.9.4-.5.9-.3 4.1-.7z"/>
		<path class="st14" d="m1556.9 832.7c.9.3 3.3 0 7.7 1.4-1.8 1.9-6.5 3.1-8.3 2.5"/>
		<path class="st43" d="m1665.2 877.5c-2.8.5-4.3.3-6.9.3-1.7-.4-3.4-1.2-5.1-1.7"/>
		<path class="st44" d="m1638 884.6c5.2 1 8.2 1 13.3 1.3 3.4-.3 6.9-1 10.3-1.3"/>
		<path class="st20" d="m1567.8 874.4c-5.4 1.3-7.9 1.4-9.6.2"/>
		<path class="st45" d="m1573.7 871.1c-4.7 1.3-7.4 1.8-9.7.7"/>
		<path class="st46" d="m1581.7 867.1c-3.1 1.3-4.9 1.8-6.5.7"/>
		<path class="st47" d="m1587.2 864c-3.8 1.3-6 1.8-7.9.7"/>
		<path class="st14" d="m1436.1 806.9c.6 2.8-.3 3.5-1.2 6s.3 6.9.3 6.9"/>
		<path class="st14" d="m1447.9 810.5c-3.5 3.1-3.1 8.9-3.1 8.9"/>
		<path class="st48" d="m1419 811.8c6.3.4 9.5 4 10.9 7.1s2.3 4.9 2.3 4.9"/>
		<path class="st14" d="m1531.4 832.5c.3 6-14.7 10.4-14.3 1.3"/>
	</g>
</g>
</svg>
