<?xml version="1.0" encoding="utf-8"?>
<!-- Generator: Adobe Illustrator 27.9.0, SVG Export Plug-In . SVG Version: 6.00 Build 0)  -->
<svg version="1.1" id="Layer_1" xmlns="http://www.w3.org/2000/svg" xmlns:xlink="http://www.w3.org/1999/xlink" x="0px" y="0px"
	 viewBox="0 0 768 512" style="enable-background:new 0 0 768 512;" xml:space="preserve">
<style type="text/css">
	.st0{fill:#FEDD00;}
	.st1{fill:none;stroke:#000000;stroke-width:3;stroke-miterlimit:10;}
	.st2{fill:#FFFFE8;}
	.st3{fill:none;stroke:#FFFFE8;stroke-width:7.1055;stroke-miterlimit:10;}
	.st4{fill:#FFFFFF;}
	.st5{fill:#FFFFFF;stroke:#FFFFE8;stroke-width:7.1055;stroke-miterlimit:10;}
	.st6{fill:#2E008B;}
	.st7{fill:#FEDD00;stroke:#000000;stroke-width:3;stroke-miterlimit:10;}
</style>
<rect width="768" height="512"/>
<rect class="st0" width="381.8" height="253.8"/>
<g>
	<path d="M215.8,107.6c-3.4-3.8-9.9-9.6-12.3-19.7c-0.8-3.5-0.9-6.5-0.9-8.5h-16.8h-16.8c0.1,2,0,5-0.9,8.5
		c-2.4,10.2-9,15.9-12.3,19.7c-15.7,17.7-12,50.3-5.8,62.1c0.6,1.1,3.6,6.7,8.1,13.8c3.1,4.9,4.5,6.7,5.4,8.2
		c9.2,14.8-2.4,32.4,5.7,42.1c2.3,2.8,6.8,5.6,16.6,5.4c9.8,0.2,14.3-2.7,16.6-5.4c8.1-9.7-3.5-27.3,5.7-42.1
		c0.9-1.5,2.3-3.4,5.4-8.2c4.4-7.1,7.5-12.7,8.1-13.8C227.9,157.9,231.5,125.3,215.8,107.6z"/>
	<path d="M120.1,25.1c6.9,5.5,5.6,11.1,12.7,23.4c7.7,13.5,17.1,20.6,19.2,22.1c6.6,4.8,12.9,7.4,17.1,8.8c-0.5,4.6-1,9.1-1.5,13.7
		c-32.8-16.1-42.2-29.5-44.2-39.2c-0.5-2.5-1.7-10.1-6.4-18.9c-3.8-7.1-8.5-12.2-11.9-15.4C109.2,19.9,115,21,120.1,25.1z"/>
	<path class="st1" d="M127,92.8c2.2,0,4.8,0.2,7.6,0.6c2.7,0.4,5.1,1,7.1,1.6"/>
	<path d="M251.6,25.1c-6.9,5.5-5.6,11.1-12.7,23.4c-7.7,13.5-17.1,20.6-19.2,22.1c-6.6,4.8-12.9,7.4-17.1,8.8
		c0.5,4.6,1,9.1,1.5,13.7c32.8-16.1,42.2-29.5,44.2-39.2c0.5-2.5,1.7-10.1,6.4-18.9c3.8-7.1,8.5-12.2,11.9-15.4
		C262.6,19.9,256.7,21,251.6,25.1z"/>
	<path class="st2" d="M233.4,82.2c-7.7,1.4-13.4,4.7-16.8,7c-1.8-0.4-4.5-0.8-7.4,0c0.1-2.8,0.2-4.3-0.7-5.9
		c-0.7-1.2-2.2-2.9-5.8-3.9c-0.1,2.6,0,7.1,1.9,12.1l0,0c-2.6,2.1-4.6,5.1-6.9,8.6c-2.6,3.9-6.5,9.7-11.8,17
		c-5.3-7.4-9.2-13.1-11.8-17c-2.3-3.5-4.3-6.5-6.9-8.6l0,0c2-5,2.1-9.5,1.9-12.1c-3.6,1-5.1,2.7-5.8,3.9c-0.9,1.6-0.8,3.1-0.7,5.9
		c-2.9-0.8-5.6-0.4-7.4,0c-3.4-2.3-9.1-5.6-16.8-7c-14.3-2.6-25.7,3.1-29.4,5.1c5.5,3.7,14.1,8.8,25.4,12.8
		c13.5,4.7,19.6,3.8,26.5,6.7c8.7,3.7,19.2,13.7,25,41.3c5.8-27.6,16.3-37.5,25-41.3c6.9-2.9,13-2,26.5-6.7
		c11.3-3.9,19.9-9,25.4-12.8C259.1,85.3,247.7,79.6,233.4,82.2z"/>
	<path class="st2" d="M162.7,123.3c-2.9,1.1-2.6,9.4-1,15c1.8,6,6.6,13.9,11.7,13.5c0.4,0,1.5-0.1,2.4-0.9c3.6-3,0.9-12.5-2.8-18.4
		C170.8,128.6,165.6,122.1,162.7,123.3z"/>
	<path d="M169.1,129.1c-1.1-0.1-2.3,0.6-2.9,1.4c-1,1.3-0.6,3-0.2,4.7c0.4,1.8,1,4.5,3.4,6.1c1.5,1,4.1,1.9,5.2,0.9
		c1.1-1,0.2-3.3-0.7-6.1C172.9,133.2,171.5,129.3,169.1,129.1z"/>
	<path class="st2" d="M211.4,123.3c2.9,1.1,2.6,9.4,1,15c-1.8,6-6.6,13.9-11.7,13.5c-0.4,0-1.5-0.1-2.4-0.9
		c-3.6-3-0.9-12.5,2.8-18.4C203.3,128.6,208.5,122.1,211.4,123.3z"/>
	<path d="M205,129.1c1.1-0.1,2.3,0.6,2.9,1.4c1,1.3,0.6,3,0.2,4.7c-0.4,1.8-1,4.5-3.4,6.1c-1.5,1-4.1,1.9-5.2,0.9
		c-1.1-1-0.2-3.3,0.7-6.1C201.2,133.2,202.6,129.3,205,129.1z"/>
	<path class="st3" d="M173.7,221.6c1.1,0.1,2.6,0.4,4.5,1.1c3.3,1.2,3.6,2.1,6,2.6c2.9,0.6,5.6-0.2,6.8-0.6c2.3-0.8,2.9-1.8,5.1-2.1
		c1.7-0.2,3.1,0.1,4.1,0.5"/>
</g>
<rect x="386.2" y="258.3" class="st0" width="381.8" height="253.8"/>
<g>
	<path d="M602.1,365.9c-3.4-3.8-10-9.5-12.3-19.7c-0.8-3.5-0.9-6.5-0.8-8.5h-16.8h-16.8c0.1,2,0,5-0.8,8.5
		c-2.4,10.1-9,15.9-12.3,19.7c-15.7,17.7-12,50.3-5.8,62.1c0.5,1,3.7,6.7,8.1,13.8c3.1,4.9,4.5,6.7,5.4,8.2
		c9.2,14.8-2.4,32.4,5.7,42.1c2.3,2.8,6.8,5.6,16.6,5.4c9.8,0.2,14.3-2.7,16.6-5.4c8.1-9.7-3.5-27.3,5.7-42.1
		c0.9-1.5,2.3-3.4,5.4-8.2c4.4-7,7.5-12.7,8.1-13.8C614.1,416.2,617.8,383.6,602.1,365.9z"/>
	<path d="M506.4,283.3c7,5.5,5.6,11.1,12.7,23.4c7.7,13.5,17.1,20.6,19.2,22.1c6.5,4.8,12.9,7.4,17.2,8.8c-0.5,4.6-1,9.1-1.5,13.7
		c-32.8-16.1-42.2-29.5-44.2-39.2c-0.5-2.5-1.7-10.1-6.4-18.9c-3.9-7.1-8.5-12.2-11.9-15.4C495.4,278.2,501.3,279.3,506.4,283.3z"/>
	<path class="st1" d="M513.3,351.1c2.2,0,4.8,0.2,7.6,0.6c2.7,0.4,5,1,7.1,1.6"/>
	<path d="M637.9,283.3c-7,5.5-5.6,11.1-12.7,23.4c-7.7,13.5-17.1,20.6-19.2,22.1c-6.5,4.8-12.9,7.4-17.2,8.8c0.5,4.6,1,9.1,1.5,13.7
		c32.8-16.1,42.2-29.5,44.2-39.2c0.5-2.5,1.7-10.1,6.4-18.9c3.8-7.1,8.5-12.2,11.9-15.4C648.8,278.2,643,279.3,637.9,283.3z"/>
	<path class="st4" d="M619.7,340.5c-7.7,1.4-13.4,4.6-16.8,7c-1.8-0.4-4.5-0.8-7.5,0c0.1-2.8,0.2-4.3-0.7-5.9
		c-0.7-1.2-2.2-2.9-5.8-3.9c-0.1,2.6,0,7.1,1.9,12.1l0,0c-2.6,2-4.6,5.1-6.9,8.6c-2.6,3.9-6.5,9.7-11.8,17
		c-5.3-7.4-9.2-13.1-11.8-17c-2.3-3.5-4.3-6.5-6.9-8.6l0,0c2-5,2.1-9.5,1.9-12.1c-3.6,1-5.1,2.7-5.8,3.9c-0.9,1.6-0.8,3.1-0.7,5.9
		c-2.9-0.8-5.7-0.4-7.5,0c-3.4-2.4-9.1-5.6-16.8-7c-14.3-2.6-25.7,3-29.4,5.1c5.5,3.7,14.1,8.8,25.4,12.8
		c13.5,4.7,19.6,3.8,26.5,6.7c8.7,3.7,19.2,13.7,25,41.3c5.8-27.5,16.3-37.5,25-41.3c6.9-2.9,13-2,26.5-6.7
		c11.3-3.9,19.9-9,25.4-12.8C645.3,343.6,634,337.9,619.7,340.5z"/>
	<path class="st4" d="M548.9,381.5c-2.9,1.1-2.7,9.4-1,15c1.8,6,6.6,13.9,11.7,13.5c0.4,0,1.5-0.1,2.4-0.9c3.6-3,0.9-12.5-2.8-18.4
		C557,386.9,551.9,380.4,548.9,381.5z"/>
	<path d="M555.3,387.4c-1.2-0.1-2.3,0.6-2.9,1.4c-1,1.3-0.6,3-0.2,4.7c0.4,1.8,1,4.5,3.5,6.1c1.5,1,4.1,2,5.2,0.9
		c1.1-1,0.2-3.3-0.7-6C559.1,391.4,557.8,387.6,555.3,387.4z"/>
	<path class="st4" d="M597.7,381.5c2.9,1.1,2.7,9.4,1,15c-1.8,6-6.6,13.9-11.7,13.5c-0.4,0-1.5-0.1-2.4-0.9
		c-3.6-3-0.9-12.5,2.8-18.4C589.6,386.9,594.7,380.4,597.7,381.5z"/>
	<path d="M591.3,387.4c1.2-0.1,2.3,0.6,2.9,1.4c1,1.3,0.6,3,0.2,4.7c-0.4,1.8-1,4.5-3.5,6.1c-1.5,1-4.1,2-5.2,0.9
		c-1.1-1-0.2-3.3,0.7-6C587.5,391.4,588.8,387.6,591.3,387.4z"/>
	<path class="st5" d="M560,479.9c1.1,0.1,2.7,0.4,4.5,1.1c3.3,1.2,3.6,2.1,6,2.6c2.9,0.6,5.6-0.2,6.8-0.6c2.3-0.8,2.9-1.8,5.1-2.1
		c1.7-0.2,3.1,0.1,4.1,0.5"/>
</g>
<rect y="258.2" class="st6" width="381.8" height="253.8"/>
<path class="st7" d="M272.6,359.2c-5.8-8.3-15.9-10.1-19.4-10.8c0,0-11.8-2.1-23,3.3c-20.7,9.9-27.6,42.7-25.1,69.6
	c-3.4,0-6.5,0-9.1,0c-0.3-10.3,0.5-21.8,2.7-33.5c5.5-30.1,19.7-58.8,12.7-75.4c-1.1-2.6-2.6-5.2-2.6-5.2
	c-6-10.6-14.3-17.1-20.1-20.7c-5.8,3.6-14.1,10.1-20.1,20.7c0,0-1.4,2.6-2.6,5.2c-7,16.6,7.1,45.3,12.7,75.4
	c2.1,11.7,2.9,23.2,2.7,33.5c-2.5,0-5.8-0.1-9.2-0.1c2.5-26.9-4.4-59.8-25.1-69.7c-11.3-5.4-23-3.3-23-3.3
	c-3.5,0.6-13.6,2.4-19.4,10.8c-8.3,11.9-4.7,32.2,7.4,38.8c5,2.8,10.3,2.5,13.8,2c-1.7-7.7-0.1-14.7,4.2-17.2
	c6.9-4.1,17.6,5.6,18.6,6.6c8.4,7.9,11.6,20.1,11.2,32c-1.9,0-3.8,0.1-5.4,0.2c-6.7,0.3-12.6,1-14.3,4.2c-0.9,1.7-0.9,5.6,0,7.3
	c1.6,3.1,7.5,3.8,14.3,4.2c0.9,0,1.8,0.1,2.7,0.1c-0.1,0.1-0.1,0.3-0.1,0.4c-4.7,14.3-14.5,23-20.2,27.3c2.3,0.7,6.1,1.5,10.4,0.5
	c9.6-2.1,14.7-11.1,17.2-15.4c2-3.5,3.7-7.8,5-12.6c3.9,0,7.6,0,10.6,0c-1.6,9.4-4.3,16.5-7.8,19.8c-0.8,0.7-3.7,3.2-4,7
	c-0.4,4.8,3.9,8.9,8.2,12.9c2.5,2.4,6.6,5.7,12.4,8.6c5.8-2.9,9.9-6.3,12.4-8.6c4.2-4,8.6-8,8.2-12.9c-0.3-3.7-3.3-6.3-4-7
	c-3.5-3.2-6.2-10.3-7.8-19.8c3.1,0,6.7,0,10.5,0c1.3,4.8,3,9.1,5,12.6c2.5,4.3,7.6,13.3,17.2,15.4c4.4,1,8.2,0.2,10.4-0.5
	c-5.7-4.2-15.5-13-20.2-27.3c-0.1-0.2-0.1-0.3-0.1-0.5c0.6,0,1.2,0,1.8-0.1c6.7-0.3,12.6-1,14.3-4.2c0.9-1.7,0.9-5.6,0-7.3
	c-1.6-3.1-7.5-3.8-14.3-4.2c-1.4-0.1-3-0.1-4.6-0.2c-0.4-11.9,2.8-24.2,11.2-32.1c1-1,11.7-10.7,18.6-6.6c4.2,2.5,5.9,9.5,4.2,17.2
	c3.4,0.5,8.8,0.8,13.8-2C277.3,391.4,280.9,371.1,272.6,359.2z"/>
<rect x="386.2" class="st6" width="381.8" height="253.8"/>
<path class="st7" d="M658.9,100.9c-5.8-8.3-15.9-10.1-19.4-10.8c0,0-11.8-2.1-23,3.3c-20.7,9.9-27.5,42.7-25.1,69.7
	c-3.4,0-6.5,0-9.1,0.1c-0.3-10.3,0.5-21.8,2.7-33.5c5.5-30.1,19.7-58.8,12.7-75.4c-1.1-2.6-2.5-5.2-2.5-5.2
	c-6-10.6-14.3-17.1-20.1-20.7c-5.8,3.6-14.1,10.1-20.1,20.7c0,0-1.4,2.6-2.5,5.2c-7,16.6,7.1,45.3,12.7,75.4
	c2.2,11.7,2.9,23.2,2.7,33.5c-2.5,0-5.8-0.1-9.2-0.1c2.5-26.9-4.4-59.8-25.1-69.7c-11.3-5.4-23-3.3-23-3.3
	c-3.5,0.6-13.6,2.4-19.4,10.8c-8.3,11.9-4.7,32.2,7.4,38.8c5,2.8,10.4,2.5,13.8,2c-1.7-7.7-0.1-14.7,4.2-17.2
	c6.9-4.1,17.6,5.6,18.6,6.6c8.4,7.9,11.6,20.1,11.2,32c-1.9,0-3.8,0.1-5.5,0.2c-6.7,0.3-12.6,1-14.3,4.2c-0.9,1.7-0.9,5.6,0,7.3
	c1.6,3.1,7.5,3.8,14.3,4.2c0.9,0,1.8,0.1,2.7,0.1c0,0.1-0.1,0.3-0.1,0.4c-4.7,14.3-14.5,23-20.2,27.3c2.3,0.7,6.1,1.4,10.4,0.5
	c9.6-2.1,14.7-11.1,17.2-15.4c2-3.5,3.7-7.8,5-12.6c3.9,0,7.6,0,10.6,0c-1.6,9.4-4.3,16.5-7.8,19.8c-0.8,0.7-3.7,3.2-4,7
	c-0.4,4.8,3.9,8.9,8.2,12.9c2.5,2.4,6.6,5.7,12.4,8.6c5.8-2.9,9.9-6.3,12.4-8.6c4.2-4,8.5-8.1,8.2-12.9c-0.3-3.7-3.3-6.3-4-7
	c-3.5-3.2-6.2-10.3-7.8-19.8c3,0,6.7,0.1,10.5,0c1.3,4.8,3,9.1,5,12.6c2.5,4.3,7.6,13.3,17.2,15.4c4.3,1,8.2,0.2,10.4-0.5
	c-5.7-4.2-15.5-13-20.2-27.3c0-0.2-0.1-0.3-0.2-0.5c0.6,0,1.2-0.1,1.8-0.1c6.7-0.3,12.6-1,14.3-4.2c0.9-1.7,0.9-5.6,0-7.3
	c-1.6-3.1-7.5-3.8-14.3-4.2c-1.4-0.1-3-0.1-4.6-0.2c-0.4-11.9,2.8-24.2,11.2-32.1c1-1,11.7-10.7,18.6-6.6c4.2,2.5,5.9,9.5,4.2,17.2
	c3.4,0.5,8.8,0.8,13.8-2C663.5,133.1,667.2,112.8,658.9,100.9z"/>
</svg>
