<?xml version="1.0" encoding="UTF-8" ?>
<svg xmlns="http://www.w3.org/2000/svg" xmlns:xlink="http://www.w3.org/1999/xlink" width="1200" height="600">
  <defs>
    <linearGradient id="b" x1="447.38" x2="452.63" y1="69.38" y2="66.38" gradientUnits="userSpaceOnUse" xlink:href="#a"/>
    <linearGradient id="a">
      <stop offset="0" stop-opacity=".2"/>
      <stop offset="1" stop-opacity="0"/>
    </linearGradient>
    <linearGradient id="c" x1="478.25" x2="467.5" y1="77.25" y2="84.25" gradientUnits="userSpaceOnUse" xlink:href="#a"/>
    <linearGradient id="d" x1="41.88" x2="52.13" y1="55.38" y2="62" gradientUnits="userSpaceOnUse" xlink:href="#a"/>
    <linearGradient id="e" x1="71.88" x2="68.25" y1="53" y2="51.44" gradientUnits="userSpaceOnUse" xlink:href="#a"/>
    <linearGradient id="f" x1="237.88" x2="218.5" y1="184.94" y2="194.81" gradientUnits="userSpaceOnUse" xlink:href="#a"/>
    <linearGradient id="g" x1="216.13" x2="185.25" y1="179.38" y2="171.38" gradientUnits="userSpaceOnUse" xlink:href="#a"/>
    <linearGradient id="h" x1="90.5" x2="105.63" y1="186.09" y2="195.84" gradientUnits="userSpaceOnUse" xlink:href="#a"/>
    <linearGradient id="i" x1="74.13" x2="86.25" y1="211.63" y2="219" gradientUnits="userSpaceOnUse" xlink:href="#a"/>
    <linearGradient id="j" x1="138.75" x2="140.25" y1="283.75" y2="269.75" gradientUnits="userSpaceOnUse" xlink:href="#a"/>
    <linearGradient id="k" x1="167.25" x2="163.25" y1="249.19" y2="261.69" gradientUnits="userSpaceOnUse" xlink:href="#a"/>
    <linearGradient id="l" x1="340.63" x2="345" y1="253.88" y2="263.63" gradientUnits="userSpaceOnUse" xlink:href="#a"/>
    <linearGradient id="m" x1="368.13" x2="364.13" y1="281.56" y2="270.56" gradientUnits="userSpaceOnUse" xlink:href="#a"/>
    <linearGradient id="n" x1="378.38" x2="394.5" y1="264.13" y2="256.63" gradientUnits="userSpaceOnUse" xlink:href="#a"/>
    <linearGradient id="o" x1="437" x2="413.38" y1="220.13" y2="232.88" gradientUnits="userSpaceOnUse" xlink:href="#a"/>
    <linearGradient id="p" x1="423.13" x2="407.13" y1="196.13" y2="201.13" gradientUnits="userSpaceOnUse" xlink:href="#a"/>
    <linearGradient id="q" x1="61.25" x2="69.63" y1="36.5" y2="40.25" gradientUnits="userSpaceOnUse" xlink:href="#a"/>
    <linearGradient id="r" x1="287.13" x2="306.13" y1="185.25" y2="204" gradientUnits="userSpaceOnUse" xlink:href="#a"/>
    <linearGradient id="s" x1="306.88" x2="320.5" y1="180.81" y2="175.56" gradientUnits="userSpaceOnUse" xlink:href="#a"/>
    <linearGradient id="t" x1="444.31" x2="453.13" y1="53.03" y2="49.16" gradientUnits="userSpaceOnUse" xlink:href="#a"/>
    <linearGradient id="u" x1="131.75" x2="110.25" y1="266.63" y2="252.5" gradientUnits="userSpaceOnUse" xlink:href="#a"/>
  </defs>
  <path fill="#cd1226" d="M0 0h1200v600H0z"/>
  <path fill="#6cf" d="M0 0h600v300H0z"/>
  <path fill="#fff" d="M300 260l100 14L300 27 200 274z"/>
  <path d="M300 260l86.5 14L300 60l-86.5 214z"/>
  <path fill="#fcd116" d="M200 274h200L300 150z"/>
  <circle cx="900" cy="312.7" r="162.7" fill="#fff"/>
  <g transform="translate(261.82 65.19) scale(.70926)">
    <g transform="matrix(.47826 0 0 .47826 776.84 348.36)">
      <path fill="#fff" d="M69.5 62c3.55-8.5 9.82-22.08 8.75-27.75-2.04-10.81-18.28-10.88-22.75 1C49.45 51.33 38.88 61.22 30.25 75c-4.28 6.84-1.73 21.14 6.25 29.75 48.53 52.37 102.6 57.96 155.25 91L183 204.5c-28.24-16.89-88.36-43.38-98-17-3.81 10.43-9.2 26.4-17 37.75-3.85 5.6-4.55 12.82 1.5 19.75L97 276.5c3.5 4.02 8.74 7.6 16 6.5 16.3-2.48 31.77-1.8 47.5 0 5.42.62 11.36 1.9 16-3l17.5-18.5c47.97 20.08 90.36 23.4 125 3.5l11.38 14.88c5.87 7.67 16.39 8.82 23.62 6.12 18.66-6.96 31.58-6.86 46.13-5.38 8.03.82 13.86.43 20.37-1.62 5.58-1.76 16.33-20 24.5-30 4.2-5.14 1.34-10.44-1.5-14-10.87-13.63-14.45-26.47-17-40.5-1.44-7.94-9.67-14.18-21.5-12.5-25.41 3.6-46.65 12.52-67.5 23l-9.5-8.5c48.68-35.26 116.42-43.86 157.5-90.5 2.58-2.93 5.36-10.12 2-14.5-7.63-9.95-18.31-25.38-21-40-3.66-19.89-29.36-16.45-28.13-1.13.75 9.3 10.52 19.16 13.13 26.63-33.9 31.46-86.6 53.18-143 72.5-4.88 1.67-8.91 5.2-11 12-4.02 13.12-9.14 25.34-16 36.5-2.78 4.52-4.2 10.22-.5 15l8.5 11c-16.33 5.7-31.13 13.76-59 1.5L242 213c4.31-4.69 3.53-8.81 1-12.5-6.87-10.01-14.7-24.65-15.75-34.5-.99-9.37-2.34-13.29-10.25-17-49.56-26.15-101.52-34.63-147.5-87zm65 187l-11.75-16.5 21.5 6.75zm231.5-6c10.6-3.76 20.22-7.75 29.5-4.25L375.25 256z"/>
      <path fill="none" stroke="#000" stroke-linecap="round" stroke-linejoin="round" stroke-width="2" d="M451.5 77c5.76-5.16 10.7-14.37 10.63-20.5-.18-13.96-17.25-17.56-17.25-7.13 0 7.28 6.33 7.02 10.75 5.63l4.25 9M395.5 238.75c24.35-21.16 40.66-53.65 5.25-52.25m-25.5 69.5c6.2 9.4 15.5 21.07 30.88 18.75M319 265l47-22m-76.5-19l47.13-19.75M183 204.5l47.5 21m-86.25 13.75L194 261.5m134-65c-14.15-13.8-38.23-33.86-14.75-42.75m-177.88 94.38c-18.17 16.25-26.19 35.77-35.81 21m22.07-35.5c-29.25-26.5-44.88-50.13-15.88-51.88m86 14c33.98-34.7 38.93-36.8-1.25-52.87M69.5 62c-5.13-6.18-8.13-12.95-8.13-22.38 0-9.97 15.32-9.14 10 1.5-5.23.25-6.35 5.78-8.12 10.13M69.5 62c3.55-8.5 9.82-22.08 8.75-27.75-2.04-10.81-18.28-10.88-22.75 1C49.45 51.33 38.88 61.22 30.25 75c-4.28 6.84-1.73 21.14 6.25 29.75 48.53 52.37 102.6 57.96 155.25 91L183 204.5c-28.24-16.89-88.36-43.38-98-17-3.81 10.43-9.2 26.4-17 37.75-3.85 5.6-4.55 12.82 1.5 19.75L97 276.5c3.5 4.02 8.74 7.6 16 6.5 16.3-2.48 31.77-1.8 47.5 0 5.42.62 11.36 1.9 16-3l17.5-18.5c47.97 20.08 90.36 23.4 125 3.5l11.38 14.88c5.87 7.67 16.39 8.82 23.62 6.12 18.66-6.96 31.58-6.86 46.13-5.38 8.03.82 13.86.43 20.37-1.62 5.58-1.76 16.33-20 24.5-30 4.2-5.14 1.34-10.44-1.5-14-10.87-13.63-14.45-26.47-17-40.5-1.44-7.94-9.67-14.18-21.5-12.5-25.41 3.6-47.52 11.77-68.38 22.25L328 196.5c48.68-35.26 116.42-43.86 157.5-90.5 2.58-2.93 5.36-10.12 2-14.5-7.63-9.95-18.31-25.38-21-40-3.66-19.89-29.36-16.45-28.13-1.13.75 9.3 10.52 19.16 13.13 26.63-33.9 31.46-86.6 53.18-143 72.5-4.88 1.67-8.91 5.2-11 12-4.02 13.12-9.14 25.34-16 36.5-2.78 4.52-4.2 10.22-.5 15l8.5 11c-16.33 5.7-31.13 13.76-59 1.5L242 213c4.31-4.69 3.53-8.81 1-12.5-6.87-10.01-14.7-24.65-15.75-34.5-.99-9.37-2.34-13.29-10.25-17-49.56-26.15-101.52-34.63-147.5-87zm65.88 186.13l-13.75-14.5 22.62 5.62zM366 243c10.6-3.76 20.22-7.75 29.5-4.25L375.25 256z"/>
      <path fill="url(#b)" d="M439.69 52.76c1.6 3.97 5.96 8.1 9.94 6.49l6.75 11.63-4.88 6.75-9.65-17.08z"/>
      <path fill="url(#c)" d="M465.63 52.5c.98 7.92-2.22 16.96-6.63 20.63l24.25 35.37 5.88-8.38-.88-7.75-13.88-19.87z"/>
      <path fill="url(#d)" d="M57.13 33.94c-1.28 6.56-1.15 14.04 2.37 19.81l-29 40.38L28.25 79z"/>
      <path fill="url(#e)" d="M76.82 40.26c-1.58 3.9-3.99 5.36-6.57 5.61l-4.38 10.26 4.19 6.75z"/>
      <path fill="url(#f)" d="M211.38 183.13c6.45-6.3 14.96-15.6 13.38-25.25l5.87 19.19L244.75 205l-1.75 7.63-10.63 11.12z"/>
      <path fill="url(#g)" d="M190.75 143.25l22.25 10 5.88 7.13-4.63 13L191.87 196l-13.5-8.13z"/>
      <path fill="url(#h)" d="M98.88 208.13l-8.94-12.88 3.19-10.12c8.64-5.12 16.3-5.67 24.25-3.38z"/>
      <path fill="url(#i)" d="M86.2 187c-1.44 6.96 1.43 14.66 6.3 20.63l-20.62 40.12-7.38-12.57 4.7-11.68z"/>
      <path fill="url(#j)" d="M103.32 280.5c10.12 1.44 14.93-6.95 22.56-13.87l54.87 7.5-9 9.5-35.5-2.19-26 1.94z"/>
      <path fill="url(#k)" d="M143.88 238.88l50.5 22.5-7.88 8.62-55.25-16.88z"/>
      <path fill="url(#l)" d="M326 274l-7.13-9.25L366 243l6.12 8.5z"/>
      <path fill="url(#m)" d="M329.82 279.63L375 265c6.26 7.77 14.35 13.25 23.94 14.38l-27.25 1.44-19.55 6.27-13.7-.71z"/>
      <path fill="url(#n)" d="M407.13 274.75l-15-1.38-17.38-16.5L390.38 244z"/>
      <path fill="url(#o)" d="M425.56 194.94c2.08 11.92-6.74 24.39-14.69 36.31l20.88 36 16.07-23.5-13.94-23.63z"/>
      <path fill="url(#p)" d="M400.38 185.63l16.37 4 5.13 9.12-9.88 23.88z"/>
      <path fill="url(#q)" d="M62.88 51.88l-1.5-14.38 6.5-5.38L73 35.76z"/>
      <path fill="url(#r)" d="M300.44 157.06c-8.75 16.38 17.44 36.32 17.44 36.32L289.5 224l-9.8-13.15-.44-8.6z"/>
      <path fill="url(#s)" d="M314 153.75l15.25 42.63-16.24-14.9-9.57-13.66 1.31-8.57z"/>
      <path fill="url(#t)" d="M456.25 54.88l-3.75-12.13-7.94 3.31 2.63 9.25z"/>
      <path fill="url(#u)" d="M98.5 268.88l8.38 6.62 28.37-25.88-13.38-18.37z"/>
    </g>
    <g transform="matrix(.39474 0 0 .39474 -5.12 186.02)">
      <path d="M2083.97 96.76v368.07c0 16.8 21.11 28.96 48.19 40.5l160.81 69.45 160.78-69.45c27.08-11.54 48.22-23.7 48.22-40.5V96.76c-139.33 1.69-278.66.77-418 0z"/>
      <use width="100%" height="100%" transform="rotate(90 2292.97 311.59)" xlink:href="#v"/>
      <g id="v" fill="#fed100" stroke="#000" stroke-width="1.96" transform="translate(-118.1 -307.63)">
        <path d="M2301.3 637.09c1.7-.02 3.48.11 5.22.45 1.76.34 3.45.88 4.94 1.69 7.48.1 7.87-12.35 6.8-23.17-.47-4.54-1.16-8.76-1.71-11.68-.45-2.39-.8-3.9-.8-3.9-.54-1.66-1.45-2.22-2.59-2.13-1.07.1-2.37.77-3.7 1.58-1.26.77-2.55 1.64-3.77 2.27-1.68.86-31.7.37-65.62-.44l-12.41 35.53c36.56-.26 70.41-.18 73.64-.2z"/>
        <g transform="translate(41.98)">
          <path d="M2181.84 637.06c-5.62-2.72-6.07-12.9-1-22.76 5.06-9.87 13.71-15.67 19.34-12.96 5.61 2.73 6.05 12.93.99 22.78-5.07 9.85-13.71 15.65-19.33 12.94z"/>
          <path d="M2183.24 627.65c-.03-3.26.99-7.1 2.9-10.82 4.28-8.33 10.14-10.95 11.4-10.33.39.18 1.21 1.46 1.24 4.27.03 3.24-1 7.07-2.9 10.77-3 5.82-7.11 9.32-9.89 10.23-.8.26-1.32.24-1.52.16-.37-.2-1.2-1.5-1.23-4.28z"/>
        </g>
        <path d="M2316.96 598.83c-1.2.53-2.03 2.37-2.63 4.96-.7 3.13-1.04 7.33-1.16 11.64-.26 8.2.22 16.76.24 18.86a6.64 6.64 0 0 0 2.12 4.65 4.68 4.68 0 0 0 4.15 1.28 5.21 5.21 0 0 0 2.32-1.28c3.83-3.56 161.8-1.49 168.97-1.54 1.7-.01 3.49.13 5.2.43 1.79.32 3.48.8 4.96 1.55 7.47.1 7.83-13.13 6.78-23.02-.44-4.17-2.58-9.46-3.12-12.13-.45-2.2-.79-3.55-.79-3.55-.55-1.54-1.46-2.03-2.59-1.96-1.09.08-2.38.7-3.71 1.45-1.26.7-2.54 1.5-3.76 2.08-3.85 1.83-152.91-1.3-162.21-1.2-6.65.05-8.58-2.35-11.1-2.84-1.02-.2-2.12-.07-3.67.62z"/>
        <g>
          <path d="M2520.85 600.7c-1.7.01-3.48-.12-5.22-.46a17.06 17.06 0 0 1-4.94-1.68c-7.48-.11-7.87 12.34-6.8 23.16a144.49 144.49 0 0 0 2.5 15.58c.55 1.66 1.45 2.22 2.6 2.13 1.07-.1 2.37-.77 3.7-1.58 1.26-.76 2.54-1.63 3.76-2.27 1.7-.86 31.71-.37 65.62.45l12.42-35.54c-36.56.26-70.41.18-73.64.2z"/>
          <g transform="rotate(180 2390.08 618.9)">
            <path d="M2181.84 637.06c-5.62-2.72-6.07-12.9-1-22.76 5.06-9.87 13.71-15.67 19.34-12.96 5.61 2.73 6.05 12.93.99 22.78-5.07 9.85-13.71 15.65-19.33 12.94z"/>
            <path d="M2183.24 627.65c-.03-3.26.99-7.1 2.9-10.82 4.28-8.33 10.14-10.95 11.4-10.33.39.18 1.21 1.46 1.24 4.27.03 3.24-1 7.07-2.9 10.77-3 5.82-7.11 9.32-9.89 10.23-.8.26-1.32.24-1.52.16-.37-.2-1.2-1.5-1.23-4.28z"/>
          </g>
        </g>
      </g>
      <g transform="translate(-2303.18 -1115.15) scale(2.39684)">
        <g transform="matrix(.9453 0 0 .9453 1763 339.45)">
          <path fill="#fed100" d="M243.65 315.07c-6.73-4.75-14.16-3.68-20.9-5.5-2.43-5.98-4.77-11.95-10.79-17.92-5.68 6.05-8.87 12.1-12.17 18.14-6.43 1.02-12.86 1-19.29 3.68 3.19 5.59 4.66 11.17 12.4 16.76-.9 6.97-2.74 13.93-1.37 20.9 8.7-.6 13.96-3.96 19.74-6.89 6.53 2.6 7.52 5.2 19.75 7.8 3.08-7.11-.9-14.23-1.38-21.35 4.82-4.56 11.44-7.14 14.01-15.62z"/>
          <path d="M230.95 352.36c-12.18-2.59-13.34-5.22-19.66-7.77-5.71 2.91-11.02 6.27-19.74 6.86l-.3.02-.05-.28c-.35-1.8-.5-3.6-.5-5.38 0-5.18 1.19-10.32 1.85-15.43-7.68-5.6-9.2-11.26-12.33-16.75l-.19-.32.34-.15c6.46-2.67 12.87-2.68 19.2-3.67 3.28-6 6.49-12.03 12.15-18.06l.23-.25.24.24c6.02 5.97 8.39 11.96 10.8 17.87 6.6 1.75 14.04.72 20.85 5.52l-.19.27.19-.27.2.13-.08.23c-2.6 8.55-9.26 11.22-13.98 15.65.36 5.04 2.52 10.16 2.53 15.37 0 1.99-.32 3.99-1.19 5.99l-.1.24zm-19.55-8.43c6.57 2.63 7.49 5.16 19.42 7.74a14.2 14.2 0 0 0 1.03-5.48c0-5.08-2.18-10.24-2.53-15.48l-.01-.16.1-.1c4.86-4.57 11.29-7.1 13.86-15.24-6.56-4.53-13.83-3.51-20.6-5.33l-.16-.05-.06-.15c-2.41-5.89-4.69-11.72-10.48-17.56-5.5 5.93-8.64 11.86-11.9 17.83l-.07.14-.16.03c-6.35 1-12.63 1-18.87 3.51 3.09 5.53 4.6 10.9 12.12 16.33l.16.12-.02.2c-.67 5.2-1.87 10.39-1.87 15.53 0 1.66.12 3.31.43 4.97 8.46-.64 13.6-3.92 19.33-6.84l.14-.06z"/>
          <path d="M212.5 294.54c1.35 7.45.36 18.52-.1 27.45.86.76 2.31-1.25 3.41-.93 6.54-2.33 14.74-2.91 25.7-5.27-6.46 3.98-16.68 4.86-25.2 7.68-.31.43.17 2.62 0 3.29 4 5.55 7.92 13.33 13.04 22.86-5.47-4.96-9.63-14.53-14.61-21.81-.63-.12-1.1 2.97-3.37 1.65-5.12 7.41-14.93 15.92-18.43 20.42 5.31-9.84 14.64-16.75 18.7-22.37.08-1.14-1.14-2.32-1.48-3.16-8.45-2.1-20.56-6.01-26.97-9.33 11.04 1.52 20.43 7.26 27.1 9.1.39-7.23 1.29-18.87 2.2-29.58z"/>
        </g>
        <g transform="matrix(1.30302 0 0 1.30302 2834.82 -1350.34)">
          <g transform="translate(-.61)">
            <path fill="#fed100" d="M-677.75 1546.82c-.78.86-1.13 1.99-.39 3.61.6 1.3 2.48 2.02 3.46 2.2 2.31.44 4.37-1.43 6.6-1.43 2.21 0 4.27 1.87 6.58 1.43.99-.18 2.87-.9 3.46-2.2.74-1.62.36-2.72-.39-3.61-.75-.91-1.86-1.63-2.58-2.45-.72-.83-.1-2.42-.02-2.22-.1-.03 1.6-.18 2.2.74.59.92.97 2.18 1.64 3.16.65.96 1.6 1.64 3.36 1.38 1.42-.21 2.63-1.82 3.08-2.71 1.05-2.1-.16-4.6.45-6.73.62-2.13 2.98-3.6 3.21-5.94.1-1-.07-3-1.16-3.93-1.35-1.16-2.5-1.1-3.57-.63-1.09.47-2.09 1.33-3.07 1.8-1 .46-2.36-.59-2.06-.54-.17-.07.3-1.6 1.44-1.75 1.03-.13 2.28-.23 3.37-.55 1.07-.3 1.97-.98 2.27-2.68.23-1.37-.87-2.97-1.55-3.66-1.6-1.62-4.24-1.25-6-2.47-1.76-1.22-2.38-3.83-4.45-4.75-.88-.4-2.75-.85-3.93-.13-1.47.9-1.76 1.98-1.65 3.1.1 1.15.59 2.33.71 3.38.13 1.06-1.23 2-1.26 1.86a1.94 1.94 0 0 1-1.43-1.86c0-1.05.6-2.23.71-3.37.1-1.13-.18-2.22-1.65-3.11-1.17-.72-3.05-.27-3.93.13-2.07.92-2.69 3.53-4.45 4.75-1.76 1.22-4.4.85-6 2.47-.68.69-1.78 2.29-1.55 3.66.3 1.7 1.2 2.37 2.27 2.68 1.09.32 2.34.37 3.37.55 1.15.2 1.6 1.79 1.44 1.75.3-.05-1.06 1-2.06.54-.98-.47-1.98-1.33-3.07-1.8-1.06-.47-2.22-.53-3.57.63-1.1.94-1.26 2.94-1.16 3.93.23 2.34 2.59 3.8 3.2 5.94.62 2.13-.6 4.63.46 6.73.45.9 1.66 2.5 3.08 2.7 1.76.27 2.7-.4 3.36-1.37.67-.98 1.05-2.24 1.64-3.16.6-.92 2.27-.87 2.2-.74.43.77.5 1.52-.03 2.22-.73.95-1.79 1.56-2.58 2.45z"/>
            <path d="M-668.09 1551.38c-1.9-.02-3.76 1.48-5.88 1.49-.24 0-.49-.02-.74-.06-1.02-.2-2.93-.9-3.58-2.3a4.15 4.15 0 0 1-.43-1.74c0-.84.35-1.51.84-2.07.82-.9 1.87-1.53 2.57-2.44.24-.3.34-.62.34-.95 0-.33-.1-.68-.3-1.05a1.08 1.08 0 0 0-.2-.01c-.48-.01-1.39.18-1.73.73-.57.89-.95 2.16-1.64 3.17a3.15 3.15 0 0 1-2.78 1.5c-.23 0-.48-.01-.75-.05-1.53-.24-2.73-1.88-3.2-2.8a4.92 4.92 0 0 1-.48-2.28c0-1.03.18-2.07.18-3.05 0-.5-.04-.97-.17-1.43-.58-2.05-2.96-3.52-3.22-5.97a5.23 5.23 0 0 1-.02-.54c0-1.1.25-2.68 1.24-3.54.82-.7 1.6-1 2.33-.99.5 0 .98.13 1.43.33 1.11.5 2.12 1.35 3.07 1.8.16.07.32.1.5.1.6.02 1.3-.43 1.36-.52l.12.06-.01-.05-.12-.05.05.02h-.06c0-.22-.46-1.4-1.32-1.52-1.02-.17-2.27-.23-3.4-.55-1.1-.31-2.09-1.06-2.38-2.82a2.51 2.51 0 0 1-.04-.42c.01-1.36 1-2.74 1.63-3.4 1.7-1.67 4.36-1.3 6.03-2.48 1.69-1.14 2.31-3.79 4.47-4.77.57-.25 1.5-.52 2.44-.53.58 0 1.17.11 1.66.41 1.33.8 1.75 1.83 1.75 2.85 0 .14 0 .28-.02.42-.12 1.2-.72 2.38-.72 3.36 0 .86.66 1.56 1.3 1.7v-.02l.15-.09c.11-.08.26-.2.4-.35.27-.3.51-.7.51-1.1v-.12c-.12-1.01-.6-2.2-.72-3.38a3.92 3.92 0 0 1-.02-.42c0-1.02.42-2.04 1.75-2.85.5-.3 1.08-.4 1.66-.4.94 0 1.87.27 2.44.51 2.16.99 2.78 3.63 4.47 4.78 1.67 1.18 4.34.8 6.03 2.49.63.65 1.62 2.03 1.62 3.39 0 .14 0 .27-.03.41-.29 1.76-1.27 2.51-2.39 2.82-1.11.33-2.36.43-3.4.56-.85.08-1.33 1.22-1.31 1.48l-.1.04-.02.06.1-.06v.01c0 .02.04.04.07.07l.32.2c.27.14.63.26.97.26.18 0 .34-.03.5-.1.95-.45 1.96-1.31 3.08-1.8.44-.2.92-.33 1.42-.33.73 0 1.51.28 2.33.99.99.85 1.24 2.45 1.24 3.53 0 .2 0 .39-.02.55-.26 2.45-2.64 3.91-3.21 5.96-.14.46-.18.94-.18 1.44 0 .98.18 2.02.18 3.05 0 .77-.1 1.54-.47 2.27-.48.92-1.68 2.56-3.21 2.8-.27.04-.52.06-.75.06a3.16 3.16 0 0 1-2.78-1.5c-.68-1.02-1.07-2.29-1.64-3.17-.35-.57-1.3-.7-1.77-.69h-.04l.06.14-.27-.1-.07.2c-.06.2-.11.48-.11.76 0 .36.08.71.3.96.7.8 1.8 1.52 2.58 2.45.48.58.83 1.26.83 2.1 0 .5-.13 1.07-.42 1.7-.65 1.4-2.56 2.1-3.58 2.3-.25.05-.5.07-.74.07-2.11-.02-3.97-1.51-5.88-1.5zm5.88 1.15c.23 0 .45-.02.68-.07.96-.17 2.8-.9 3.33-2.1.27-.6.39-1.11.39-1.56 0-.74-.3-1.33-.75-1.87-.73-.89-1.83-1.6-2.58-2.45-.3-.34-.38-.78-.38-1.18 0-.5.12-.93.23-1.15.07-.07.03-.15.24-.2l.04.01h.26c.52 0 1.56.09 2.06.84.6.95.99 2.2 1.64 3.16.54.79 1.24 1.35 2.49 1.35.21 0 .45-.02.7-.05 1.3-.18 2.52-1.75 2.95-2.61a4.6 4.6 0 0 0 .43-2.12c0-1-.18-2.03-.18-3.05 0-.52.05-1.04.2-1.54.66-2.21 3-3.67 3.2-5.9l.02-.5c0-1.05-.27-2.57-1.12-3.29a3.21 3.21 0 0 0-2.1-.9c-.45 0-.88.12-1.3.3-1.05.46-2.05 1.31-3.07 1.8-.2.1-.43.13-.64.13-.63 0-1.22-.32-1.5-.53-.09-.1-.16-.09-.2-.28 0-.02 0-.04.02-.07a.4.4 0 0 1 0-.05c0-.44.49-1.64 1.61-1.81 1.04-.14 2.28-.24 3.35-.55 1.03-.3 1.85-.9 2.14-2.55.02-.11.03-.24.03-.36 0-1.19-.93-2.55-1.53-3.15-1.5-1.55-4.12-1.19-5.97-2.44-1.83-1.29-2.45-3.89-4.42-4.75a6.1 6.1 0 0 0-2.3-.49c-.54 0-1.06.1-1.48.36-1.25.77-1.58 1.62-1.59 2.56 0 .13 0 .25.02.38.1 1.11.59 2.3.72 3.38v.15c0 .54-.3 1-.6 1.34-.33.33-.58.54-.81.57l-.08-.02a2.1 2.1 0 0 1-1.55-2.02c0-1.12.62-2.3.72-3.4l.02-.38c-.01-.94-.34-1.8-1.6-2.56a2.86 2.86 0 0 0-1.47-.36c-.87 0-1.78.26-2.3.5-1.97.85-2.59 3.45-4.42 4.74-1.85 1.25-4.47.9-5.97 2.44-.6.6-1.54 1.96-1.53 3.15l.03.36c.3 1.66 1.11 2.24 2.14 2.55 1.07.3 2.31.37 3.36.55 1.13.22 1.59 1.47 1.6 1.85v.01c.02.03.02.05.02.07-.04.2-.11.18-.2.28a2.53 2.53 0 0 1-1.5.53c-.22 0-.43-.04-.64-.13-1.02-.48-2.02-1.34-3.07-1.8-.42-.18-.85-.3-1.3-.3-.63 0-1.32.24-2.1.9-.85.73-1.12 2.24-1.12 3.28 0 .2.01.36.03.51.2 2.23 2.53 3.69 3.2 5.9.14.5.19 1.02.19 1.54 0 1.02-.18 2.06-.18 3.04 0 .75.1 1.46.43 2.13.43.86 1.65 2.43 2.95 2.61.25.04.49.05.7.05 1.26 0 1.95-.56 2.5-1.35.64-.95 1.03-2.21 1.63-3.16.49-.73 1.48-.88 2.01-.89a1 1 0 0 1 .39.05c.02.02.08.04.11.13.22.4.36.81.36 1.23 0 .4-.13.8-.41 1.16-.76.98-1.82 1.6-2.6 2.46-.45.51-.74 1.1-.74 1.83 0 .46.11.99.39 1.6.54 1.2 2.38 1.93 3.33 2.1.23.04.46.06.68.06 1.95.02 3.8-1.48 5.88-1.5 2.08.02 3.94 1.52 5.88 1.5zm-17.07-23.63l.05-.08zm22.4 0l-.07-.09zm.06-.13h-.12z"/>
            <g>
              <g transform="translate(211.14 648.81)">
                <path d="M-871.83 901.32c.35 0 .9-.05 1.23-.2.52-.25.72-.73.88-1.18.15-.44-.04-1-.04-1-.47.08-.38.6-1.28 1.17-.4.26-1 .33-1.53.16a6.14 6.14 0 0 1-2.32-1.1c-.7-.58-1.42-1.23-2.34-1.66a5.03 5.03 0 0 0-2-.36c-.54 0-1.32.07-1.97.36-.93.43-1.65 1.08-2.36 1.67-.7.59-1.42.83-2.28 1.1-.54.16-1.64.1-1.96-.28l-.9-1.06s-.13.56.03 1c.15.45.28.93.8 1.18.65.3 1.63.2 2.25.01.98-.3 1.73-.9 2.45-1.5.71-.6 1.38-1.35 2.2-1.73a4.63 4.63 0 0 1 1.75-.31c.48 0 1.24.07 1.75.3.83.39 1.5 1.15 2.21 1.75.72.6 1.47 1.19 2.45 1.5.3.09.64.17.98.18z"/>
                <g transform="translate(0 .13)">
                  <path d="M-860.4 882.37c.11-.31.21-.81.15-1.15-.09-.52-.49-.83-.88-1.09-.38-.25-.97-.22-.97-.22-.06.44.47.5.77 1.44.14.43.04.98-.27 1.42-.5.7-.94 1.31-1.7 1.79s-1.58.94-2.25 1.66c-.46.5-.75 1.2-.9 1.68a4.3 4.3 0 0 0-.2 1.86c.15.94.57 1.76.94 2.54s.4 1.49.42 2.33c.01.52-.36 1.49-.8 1.67l-1.27.53s.5.27.97.24c.47-.02.96-.02 1.34-.41.49-.5.66-1.4.65-2a6.24 6.24 0 0 0-.76-2.59c-.38-.79-.92-1.58-1.05-2.42-.09-.52.04-1.2.18-1.63.13-.43.42-1.1.79-1.49.59-.64 1.5-1.04 2.28-1.53.77-.48 1.55-1 2.12-1.8.17-.25.34-.52.45-.83z"/>
                  <path d="M-874.5 865.34a2.7 2.7 0 0 0-1.04-.5c-.54-.07-.95.2-1.31.5-.36.27-.53.85-.53.85.4.2.62-.3 1.62-.28.45.01.94.28 1.25.7.5.7.95 1.31 1.16 2.19.21.87.4 1.8.87 2.65.33.6.9 1.1 1.3 1.4.42.3 1.06.67 1.71.77.94.16 1.85.02 2.7-.09.87-.1 1.55.1 2.34.34.5.15 1.3.82 1.34 1.3l.1 1.37s.41-.4.53-.84c.13-.46.3-.93.04-1.41-.33-.62-1.13-1.07-1.7-1.25a6.22 6.22 0 0 0-2.69-.1c-.87.11-1.8.37-2.63.23a4 4 0 0 1-1.49-.69c-.37-.26-.9-.74-1.16-1.21-.42-.77-.52-1.77-.73-2.65a6.95 6.95 0 0 0-1.04-2.58c-.17-.25-.38-.5-.64-.7z"/>
                </g>
                <g transform="matrix(-1 0 0 1 -852.67 .13)">
                  <path d="M45.35 882.37c.11-.31.21-.81.15-1.15-.1-.52-.5-.83-.88-1.09-.38-.25-.97-.22-.97-.22-.06.44.46.5.76 1.44.14.43.04.98-.27 1.42-.49.7-.93 1.31-1.7 1.79-.76.48-1.58.94-2.24 1.66-.47.5-.76 1.2-.9 1.68-.16.49-.3 1.2-.2 1.86.14.94.57 1.76.94 2.54s.4 1.49.42 2.33c0 .52-.37 1.49-.8 1.67l-1.28.53s.5.27.97.24c.47-.02.97-.02 1.35-.41.48-.5.65-1.4.64-2a6.24 6.24 0 0 0-.76-2.59c-.37-.79-.91-1.58-1.05-2.42-.08-.52.05-1.2.18-1.63.14-.43.42-1.1.79-1.49.6-.64 1.51-1.04 2.28-1.53a6.9 6.9 0 0 0 2.12-1.8c.18-.25.35-.52.45-.83z"/>
                  <path d="M31.24 865.34a2.7 2.7 0 0 0-1.04-.5c-.53-.07-.94.2-1.3.5-.37.27-.53.85-.53.85.4.2.62-.3 1.61-.28.46.01.94.28 1.26.7.5.7.95 1.31 1.16 2.19.21.87.4 1.8.87 2.65.32.6.9 1.1 1.3 1.4.42.3 1.05.67 1.7.77.95.16 1.85.02 2.71-.09.86-.1 1.54.1 2.34.34.5.15 1.3.82 1.34 1.3l.1 1.37s.4-.4.53-.84c.13-.46.3-.93.03-1.41-.32-.62-1.12-1.07-1.7-1.25a6.22 6.22 0 0 0-2.68-.1c-.87.11-1.8.37-2.63.23a4.02 4.02 0 0 1-1.49-.69 4.3 4.3 0 0 1-1.16-1.21c-.42-.77-.51-1.77-.73-2.65a6.95 6.95 0 0 0-1.04-2.58c-.18-.25-.39-.5-.65-.7z"/>
                </g>
              </g>
            </g>
          </g>
          <g transform="translate(0 .37)">
            <path fill="#fed100" d="M-656.53 1535.84c-2.6 1.83-5.46 1.42-8.05 2.13-.95 2.3-1.84 4.6-4.17 6.9-2.19-2.33-3.42-4.66-4.69-7-2.48-.39-4.95-.38-7.43-1.4 1.22-2.16 1.79-4.32 4.78-6.47-.35-2.69-1.06-5.37-.54-8.06 3.36.23 5.39 1.53 7.62 2.66 2.52-1 2.9-2.01 7.61-3.01 1.19 2.74-.35 5.49-.53 8.23 1.86 1.75 4.41 2.75 5.4 6.02z"/>
            <path d="M-668.87 1544.99c-2.18-2.33-3.42-4.65-4.68-6.96-2.43-.37-4.9-.38-7.4-1.41l-.17-.08.1-.17c1.2-2.1 1.79-4.3 4.74-6.45-.26-1.96-.7-3.93-.7-5.93 0-.7.05-1.39.19-2.08l.02-.15.16.01c3.36.23 5.41 1.52 7.6 2.64 2.41-.97 2.88-2 7.58-3l.13-.02.06.13c.34.78.46 1.55.46 2.33 0 2-.83 3.97-.97 5.9 1.8 1.7 4.38 2.73 5.39 6.04l-.17.05.17-.05.03.12-.1.07c-2.63 1.86-5.5 1.46-8.03 2.13-.93 2.27-1.84 4.58-4.16 6.88l-.13.13-.12-.13zm-4.54-7.28l.08.01.04.07c1.25 2.3 2.45 4.56 4.55 6.83 2.2-2.23 3.07-4.46 4-6.72l.03-.08.08-.02c2.61-.7 5.4-.32 7.9-2.03-.99-3.1-3.44-4.06-5.32-5.83l-.06-.05v-.08c.15-2.04.99-4.02.99-5.97 0-.69-.1-1.37-.38-2.06-4.56 1-4.9 1.96-7.45 2.97l-.07.03-.07-.03c-2.2-1.12-4.17-2.37-7.4-2.63-.1.62-.15 1.24-.15 1.87 0 1.98.46 3.97.72 5.98l.01.1-.08.06c-2.87 2.08-3.46 4.12-4.64 6.24 2.38.95 4.78.95 7.22 1.34z"/>
            <g transform="translate(-.61)">
              <path fill="#fed100" d="M-673.22 1524.47c-.41-.46-.6-1.06-.2-1.92.31-.7 1.3-1.07 1.83-1.17 1.23-.23 2.32.76 3.5.76 1.18 0 2.28-.99 3.5-.76.53.1 1.53.48 1.84 1.17.4.86.2 1.45-.2 1.92-.4.48-1 .87-1.37 1.3-.39.44-.05 1.29-.02 1.18-.05.01.86.1 1.17-.4.31-.48.52-1.15.87-1.67.35-.51.85-.87 1.79-.73.75.1 1.4.96 1.64 1.44.56 1.11-.09 2.44.24 3.57.33 1.14 1.58 1.91 1.7 3.16.05.53-.04 1.6-.61 2.09-.72.61-1.34.58-1.9.33-.58-.25-1.11-.7-1.64-.95-.52-.25-1.25.3-1.09.28-.09.04.16.85.76.93.56.07 1.22.12 1.8.3.57.15 1.04.51 1.2 1.42.13.73-.46 1.58-.82 1.94-.85.86-2.25.66-3.19 1.31s-1.27 2.04-2.36 2.53c-.47.2-1.47.45-2.1.07-.77-.48-.93-1.05-.87-1.65.05-.61.31-1.24.38-1.8s-.66-1.06-.67-.99c-.38.09-.76.49-.76 1 0 .55.32 1.18.38 1.79.05.6-.1 1.17-.88 1.65-.63.38-1.62.14-2.1-.07-1.09-.49-1.42-1.88-2.36-2.53-.93-.65-2.34-.45-3.19-1.3-.36-.37-.94-1.23-.82-1.95.16-.91.64-1.27 1.2-1.43.59-.17 1.25-.2 1.8-.3.61-.1.84-.94.76-.92.16.02-.56-.53-1.09-.28-.52.24-1.06.7-1.63.95-.57.25-1.18.28-1.9-.33-.58-.5-.67-1.56-.62-2.1.12-1.24 1.38-2.01 1.7-3.15.33-1.13-.31-2.46.25-3.57.24-.48.88-1.33 1.64-1.44.93-.14 1.43.22 1.78.73.36.52.56 1.19.87 1.68.32.49 1.2.46 1.17.4.23-.42.27-.82-.01-1.19-.39-.5-.95-.83-1.37-1.3z"/>
              <path d="M-666.94 1542.68c-.72-.43-.96-1-.95-1.55v-.22c.07-.64.33-1.27.39-1.8v-.06c.02-.34-.4-.72-.53-.79a.9.9 0 0 0-.64.86c-.01.51.31 1.14.38 1.79v.22c.01.56-.22 1.12-.95 1.55-.26.16-.58.22-.9.22-.5 0-1-.15-1.3-.28-1.17-.54-1.5-1.95-2.39-2.54-.87-.62-2.29-.42-3.2-1.32-.35-.36-.88-1.1-.88-1.84 0-.07 0-.15.02-.22.15-.95.69-1.37 1.29-1.53.6-.18 1.27-.2 1.8-.3.4-.05.65-.59.68-.74l-.01-.02v-.02l-.17-.1a1.18 1.18 0 0 0-.5-.14.56.56 0 0 0-.24.05c-.5.24-1.04.7-1.64.96-.24.1-.5.17-.78.17-.4 0-.82-.15-1.26-.53-.54-.47-.67-1.32-.67-1.9l.01-.3c.15-1.32 1.42-2.1 1.71-3.18.07-.23.1-.49.1-.75 0-.52-.1-1.07-.1-1.62 0-.41.05-.83.25-1.23.26-.49.9-1.37 1.74-1.5.14-.03.27-.03.4-.03a1.7 1.7 0 0 1 1.5.81c.38.55.58 1.22.88 1.68.17.28.64.38.88.38h.09c.1-.19.15-.36.15-.53a.76.76 0 0 0-.18-.47c-.36-.48-.92-.81-1.36-1.3l.1-.09.1-.08c.4.45.96.78 1.37 1.3.15.2.23.42.23.64 0 .24-.08.47-.21.7-.05.1-.1.06-.13.08a.7.7 0 0 1-.16.02c-.29 0-.82-.09-1.1-.5-.32-.5-.52-1.18-.86-1.67-.3-.42-.65-.7-1.3-.7-.11 0-.23 0-.36.02-.68.09-1.32.92-1.54 1.37-.18.35-.23.72-.23 1.1 0 .53.1 1.08.1 1.63a3 3 0 0 1-.1.82c-.37 1.2-1.61 1.97-1.7 3.14-.02.07-.02.16-.02.26 0 .55.15 1.35.58 1.71.41.35.76.47 1.1.47.22 0 .45-.05.67-.15.55-.24 1.08-.7 1.62-.95a.84.84 0 0 1 .36-.08c.35 0 .67.17.82.29.05.05.1.04.12.18v.04c-.02.23-.26.9-.89 1.03-.56.1-1.22.12-1.78.29-.54.16-.95.45-1.1 1.32a.98.98 0 0 0-.02.18c0 .62.49 1.34.8 1.65.78.8 2.16.62 3.17 1.3.98.7 1.31 2.07 2.34 2.51.27.12.75.26 1.2.26.29 0 .56-.05.77-.18.66-.4.82-.84.83-1.33l-.01-.2c-.05-.57-.38-1.2-.38-1.8 0-.57.4-1 .83-1.11.03-.02.05-.02.07-.02.16.02.27.13.46.31.16.19.33.44.33.74v.09c-.07.58-.33 1.2-.38 1.8l-.01.19c0 .49.17.92.82 1.33.21.13.49.18.77.18.45 0 .93-.13 1.2-.26 1.03-.44 1.36-1.81 2.35-2.51 1-.68 2.39-.5 3.17-1.3.3-.3.8-1.03.8-1.65a1 1 0 0 0-.02-.18c-.15-.87-.57-1.16-1.1-1.32-.57-.17-1.23-.22-1.78-.3-.63-.1-.88-.74-.9-1v-.02a.1.1 0 0 1 0-.04c.03-.14.07-.12.12-.18l.2-.12c.17-.09.39-.17.62-.17.12 0 .24.03.36.08.55.26 1.08.71 1.63.95.22.1.44.16.67.16.33 0 .68-.12 1.1-.47.43-.37.58-1.17.57-1.71v-.27c-.1-1.16-1.34-1.94-1.7-3.13-.09-.27-.11-.55-.11-.83 0-.54.1-1.1.1-1.62 0-.39-.06-.76-.23-1.1-.22-.46-.87-1.29-1.54-1.37a2.18 2.18 0 0 0-.37-.03c-.65 0-1 .28-1.29.7-.34.5-.54 1.17-.87 1.68-.28.42-.85.46-1.12.46h-.17c-.15-.04-.12-.1-.15-.13a1.7 1.7 0 0 1-.13-.63c0-.22.04-.46.21-.65.4-.46.99-.84 1.37-1.3.23-.28.39-.59.39-.97 0-.23-.06-.5-.2-.81-.27-.62-1.25-1.01-1.75-1.1a1.87 1.87 0 0 0-.35-.03c-1.02-.01-2 .78-3.12.8-1.13-.02-2.11-.82-3.13-.8-.12 0-.23 0-.35.03-.5.09-1.47.48-1.75 1.1a2 2 0 0 0-.2.83c0 .38.15.68.39.95l-.1.08-.1.1c-.26-.3-.45-.68-.45-1.13 0-.29.07-.6.23-.94.36-.77 1.38-1.14 1.93-1.25.13-.02.27-.03.4-.03 1.14 0 2.13.8 3.13.8.99 0 1.98-.8 3.12-.8.13 0 .27 0 .4.03.55.11 1.57.48 1.94 1.25.15.34.22.64.22.92 0 .46-.2.83-.45 1.14-.42.5-1.01.89-1.37 1.3-.11.13-.15.3-.15.48 0 .19.05.39.08.48l.19-.02-.02.04c.26-.01.7-.09.85-.35.3-.46.5-1.14.87-1.68.3-.46.77-.82 1.5-.82l.41.03c.84.14 1.48 1.02 1.74 1.51.2.4.25.81.25 1.23 0 .55-.1 1.1-.1 1.62 0 .26.03.51.1.75.29 1.07 1.56 1.85 1.7 3.18l.02.3c0 .57-.13 1.42-.67 1.9-.45.38-.87.53-1.27.53-.27 0-.53-.07-.77-.18-.6-.26-1.14-.72-1.64-.95a.56.56 0 0 0-.24-.05c-.18-.01-.37.06-.5.13l.15.03-.33.14c.03.18.28.68.67.71.54.08 1.2.13 1.8.3.61.17 1.15.58 1.3 1.53.02.08.02.15.02.23 0 .74-.53 1.48-.87 1.83-.92.9-2.34.7-3.21 1.33-.89.59-1.22 2-2.39 2.54-.3.13-.8.27-1.3.28-.33 0-.64-.06-.91-.23z"/>
              <g>
                <g transform="translate(211.14 648.81)">
                  <path d="M-875.3 873.9c.19 0 .48.02.66.1.27.14.38.39.46.63a.94.94 0 0 1-.02.53c-.25-.04-.2-.31-.68-.62a1 1 0 0 0-.81-.09c-.46.14-.86.27-1.24.59-.37.31-.75.65-1.24.88-.34.16-.77.2-1.06.2-.29 0-.7-.04-1.05-.2-.49-.22-.88-.57-1.25-.88a3.16 3.16 0 0 0-1.22-.59c-.28-.09-.87-.05-1.04.14l-.47.57s-.08-.3 0-.53c.1-.24.16-.5.44-.62.34-.17.86-.12 1.19-.01.52.16.92.47 1.3.8.38.3.74.71 1.18.91.27.13.66.17.92.17.25 0 .66-.04.93-.17.44-.2.8-.6 1.18-.92.38-.32.77-.63 1.3-.8.16-.05.34-.09.52-.1z"/>
                  <g transform="translate(0 .13)">
                    <path d="M-869.22 883.77c.06.16.11.43.08.6-.05.29-.26.45-.47.58-.2.14-.52.12-.52.12-.03-.23.25-.26.41-.76a.88.88 0 0 0-.14-.76c-.27-.37-.5-.7-.9-.95-.41-.25-.85-.5-1.2-.88-.25-.27-.4-.64-.48-.9a2.3 2.3 0 0 1-.1-.98c.07-.5.3-.94.5-1.35.2-.42.2-.8.22-1.24 0-.28-.2-.8-.43-.89l-.68-.28s.27-.14.52-.13c.25.02.51.01.72.22.25.27.34.75.34 1.07-.01.5-.2.95-.4 1.37-.2.42-.5.84-.57 1.29-.04.27.03.64.1.86.07.23.23.58.42.8.32.33.8.55 1.21.8.41.26.83.54 1.13.97.1.13.18.27.24.44z"/>
                    <path d="M-876.72 892.81c-.14.11-.37.25-.55.27-.28.04-.5-.1-.7-.26-.19-.15-.28-.45-.28-.45.22-.1.33.15.86.14.24 0 .5-.14.67-.37.27-.37.5-.7.62-1.16.1-.46.2-.96.46-1.41.17-.32.47-.58.7-.74.21-.16.55-.36.9-.41.5-.09.98-.01 1.43.05.46.05.82-.05 1.25-.19.26-.08.69-.43.7-.68l.06-.73s.22.2.29.45c.06.24.15.49.01.75-.17.32-.6.56-.9.66-.49.15-.96.1-1.43.05-.46-.06-.95-.2-1.4-.12-.27.04-.6.22-.79.36-.2.14-.48.4-.62.65-.22.4-.27.94-.38 1.4-.11.48-.24.96-.55 1.38-.1.13-.21.26-.35.36z"/>
                  </g>
                  <g transform="matrix(-1 0 0 1 -852.67 .13)">
                    <path d="M36.55 883.77c.06.16.1.43.08.6-.05.29-.27.45-.47.58-.2.14-.52.12-.52.12-.03-.23.25-.26.41-.76a.88.88 0 0 0-.14-.76c-.27-.37-.5-.7-.9-.95-.41-.25-.85-.5-1.2-.88-.25-.27-.4-.64-.48-.9a2.31 2.31 0 0 1-.1-.98c.07-.5.3-.94.5-1.35.2-.42.2-.8.22-1.24 0-.28-.2-.8-.43-.89l-.68-.28s.27-.14.52-.13c.25.02.51.01.71.22.26.27.35.75.35 1.07-.01.5-.2.95-.4 1.37-.2.42-.5.84-.57 1.29-.04.27.03.64.1.86.07.23.22.58.42.8.31.33.8.55 1.21.8.41.26.83.54 1.13.97.1.13.18.27.24.44z"/>
                    <path d="M29.05 892.81c-.14.11-.37.25-.55.27-.28.04-.5-.1-.7-.26-.19-.15-.27-.45-.27-.45.2-.1.32.15.85.14.24 0 .5-.14.67-.37.27-.37.5-.7.62-1.16.1-.46.2-.96.46-1.41.17-.32.47-.58.7-.74.21-.16.55-.36.9-.41.5-.09.98-.01 1.43.05.46.05.82-.05 1.25-.19.26-.08.69-.43.7-.68l.06-.73s.22.2.29.45c.06.24.15.49.01.75-.17.32-.6.56-.9.66-.49.15-.96.1-1.43.05-.46-.06-.95-.2-1.4-.12-.27.04-.6.22-.79.36-.2.14-.48.4-.62.65-.22.4-.27.94-.38 1.4-.12.48-.25.96-.55 1.38-.1.13-.21.26-.35.36z"/>
                  </g>
                </g>
              </g>
            </g>
          </g>
          <path fill="#fed100" d="M-672.96 1532.39a4.39 4.39 0 1 1 8.78 0 4.39 4.39 0 0 1-8.78 0z"/>
          <path d="M-673.12 1532.39a4.55 4.55 0 0 1 9.1 0 4.54 4.54 0 1 1-9.1 0zm.32 0a4.23 4.23 0 0 0 8.45 0 4.23 4.23 0 0 0-8.45 0z"/>
          <path fill="#fed100" stroke="#000" stroke-width=".31" d="M-668.58 1535.42c1.77 0 3.1-1.38 3.1-3.02a3.07 3.07 0 0 0-3.1-3.05c-1.75 0-3.1 1.4-3.1 3.05a3.04 3.04 0 0 0 3.1 3.02z"/>
        </g>
      </g>
      <g transform="translate(-2522.75 -1360.33) scale(2.39684)">
        <g transform="matrix(.9453 0 0 .9453 1763 339.45)">
          <path fill="#fed100" d="M243.65 315.07c-6.73-4.75-14.16-3.68-20.9-5.5-2.43-5.98-4.77-11.95-10.79-17.92-5.68 6.05-8.87 12.1-12.17 18.14-6.43 1.02-12.86 1-19.29 3.68 3.19 5.59 4.66 11.17 12.4 16.76-.9 6.97-2.74 13.93-1.37 20.9 8.7-.6 13.96-3.96 19.74-6.89 6.53 2.6 7.52 5.2 19.75 7.8 3.08-7.11-.9-14.23-1.38-21.35 4.82-4.56 11.44-7.14 14.01-15.62z"/>
          <path d="M230.95 352.36c-12.18-2.59-13.34-5.22-19.66-7.77-5.71 2.91-11.02 6.27-19.74 6.86l-.3.02-.05-.28c-.35-1.8-.5-3.6-.5-5.38 0-5.18 1.19-10.32 1.85-15.43-7.68-5.6-9.2-11.26-12.33-16.75l-.19-.32.34-.15c6.46-2.67 12.87-2.68 19.2-3.67 3.28-6 6.49-12.03 12.15-18.06l.23-.25.24.24c6.02 5.97 8.39 11.96 10.8 17.87 6.6 1.75 14.04.72 20.85 5.52l-.19.27.19-.27.2.13-.08.23c-2.6 8.55-9.26 11.22-13.98 15.65.36 5.04 2.52 10.16 2.53 15.37 0 1.99-.32 3.99-1.19 5.99l-.1.24zm-19.55-8.43c6.57 2.63 7.49 5.16 19.42 7.74a14.2 14.2 0 0 0 1.03-5.48c0-5.08-2.18-10.24-2.53-15.48l-.01-.16.1-.1c4.86-4.57 11.29-7.1 13.86-15.24-6.56-4.53-13.83-3.51-20.6-5.33l-.16-.05-.06-.15c-2.41-5.89-4.69-11.72-10.48-17.56-5.5 5.93-8.64 11.86-11.9 17.83l-.07.14-.16.03c-6.35 1-12.63 1-18.87 3.51 3.09 5.53 4.6 10.9 12.12 16.33l.16.12-.02.2c-.67 5.2-1.87 10.39-1.87 15.53 0 1.66.12 3.31.43 4.97 8.46-.64 13.6-3.92 19.33-6.84l.14-.06z"/>
          <path d="M212.5 294.54c1.35 7.45.36 18.52-.1 27.45.86.76 2.31-1.25 3.41-.93 6.54-2.33 14.74-2.91 25.7-5.27-6.46 3.98-16.68 4.86-25.2 7.68-.31.43.17 2.62 0 3.29 4 5.55 7.92 13.33 13.04 22.86-5.47-4.96-9.63-14.53-14.61-21.81-.63-.12-1.1 2.97-3.37 1.65-5.12 7.41-14.93 15.92-18.43 20.42 5.31-9.84 14.64-16.75 18.7-22.37.08-1.14-1.14-2.32-1.48-3.16-8.45-2.1-20.56-6.01-26.97-9.33 11.04 1.52 20.43 7.26 27.1 9.1.39-7.23 1.29-18.87 2.2-29.58z"/>
        </g>
        <g transform="matrix(1.30302 0 0 1.30302 2834.82 -1350.34)">
          <g transform="translate(-.61)">
            <path fill="#fed100" d="M-677.75 1546.82c-.78.86-1.13 1.99-.39 3.61.6 1.3 2.48 2.02 3.46 2.2 2.31.44 4.37-1.43 6.6-1.43 2.21 0 4.27 1.87 6.58 1.43.99-.18 2.87-.9 3.46-2.2.74-1.62.36-2.72-.39-3.61-.75-.91-1.86-1.63-2.58-2.45-.72-.83-.1-2.42-.02-2.22-.1-.03 1.6-.18 2.2.74.59.92.97 2.18 1.64 3.16.65.96 1.6 1.64 3.36 1.38 1.42-.21 2.63-1.82 3.08-2.71 1.05-2.1-.16-4.6.45-6.73.62-2.13 2.98-3.6 3.21-5.94.1-1-.07-3-1.16-3.93-1.35-1.16-2.5-1.1-3.57-.63-1.09.47-2.09 1.33-3.07 1.8-1 .46-2.36-.59-2.06-.54-.17-.07.3-1.6 1.44-1.75 1.03-.13 2.28-.23 3.37-.55 1.07-.3 1.97-.98 2.27-2.68.23-1.37-.87-2.97-1.55-3.66-1.6-1.62-4.24-1.25-6-2.47-1.76-1.22-2.38-3.83-4.45-4.75-.88-.4-2.75-.85-3.93-.13-1.47.9-1.76 1.98-1.65 3.1.1 1.15.59 2.33.71 3.38.13 1.06-1.23 2-1.26 1.86a1.94 1.94 0 0 1-1.43-1.86c0-1.05.6-2.23.71-3.37.1-1.13-.18-2.22-1.65-3.11-1.17-.72-3.05-.27-3.93.13-2.07.92-2.69 3.53-4.45 4.75-1.76 1.22-4.4.85-6 2.47-.68.69-1.78 2.29-1.55 3.66.3 1.7 1.2 2.37 2.27 2.68 1.09.32 2.34.37 3.37.55 1.15.2 1.6 1.79 1.44 1.75.3-.05-1.06 1-2.06.54-.98-.47-1.98-1.33-3.07-1.8-1.06-.47-2.22-.53-3.57.63-1.1.94-1.26 2.94-1.16 3.93.23 2.34 2.59 3.8 3.2 5.94.62 2.13-.6 4.63.46 6.73.45.9 1.66 2.5 3.08 2.7 1.76.27 2.7-.4 3.36-1.37.67-.98 1.05-2.24 1.64-3.16.6-.92 2.27-.87 2.2-.74.43.77.5 1.52-.03 2.22-.73.95-1.79 1.56-2.58 2.45z"/>
            <path d="M-668.09 1551.38c-1.9-.02-3.76 1.48-5.88 1.49-.24 0-.49-.02-.74-.06-1.02-.2-2.93-.9-3.58-2.3a4.15 4.15 0 0 1-.43-1.74c0-.84.35-1.51.84-2.07.82-.9 1.87-1.53 2.57-2.44.24-.3.34-.62.34-.95 0-.33-.1-.68-.3-1.05a1.08 1.08 0 0 0-.2-.01c-.48-.01-1.39.18-1.73.73-.57.89-.95 2.16-1.64 3.17a3.15 3.15 0 0 1-2.78 1.5c-.23 0-.48-.01-.75-.05-1.53-.24-2.73-1.88-3.2-2.8a4.92 4.92 0 0 1-.48-2.28c0-1.03.18-2.07.18-3.05 0-.5-.04-.97-.17-1.43-.58-2.05-2.96-3.52-3.22-5.97a5.23 5.23 0 0 1-.02-.54c0-1.1.25-2.68 1.24-3.54.82-.7 1.6-1 2.33-.99.5 0 .98.13 1.43.33 1.11.5 2.12 1.35 3.07 1.8.16.07.32.1.5.1.6.02 1.3-.43 1.36-.52l.12.06-.01-.05-.12-.05.05.02h-.06c0-.22-.46-1.4-1.32-1.52-1.02-.17-2.27-.23-3.4-.55-1.1-.31-2.09-1.06-2.38-2.82a2.51 2.51 0 0 1-.04-.42c.01-1.36 1-2.74 1.63-3.4 1.7-1.67 4.36-1.3 6.03-2.48 1.69-1.14 2.31-3.79 4.47-4.77.57-.25 1.5-.52 2.44-.53.58 0 1.17.11 1.66.41 1.33.8 1.75 1.83 1.75 2.85 0 .14 0 .28-.02.42-.12 1.2-.72 2.38-.72 3.36 0 .86.66 1.56 1.3 1.7v-.02l.15-.09c.11-.08.26-.2.4-.35.27-.3.51-.7.51-1.1v-.12c-.12-1.01-.6-2.2-.72-3.38a3.92 3.92 0 0 1-.02-.42c0-1.02.42-2.04 1.75-2.85.5-.3 1.08-.4 1.66-.4.94 0 1.87.27 2.44.51 2.16.99 2.78 3.63 4.47 4.78 1.67 1.18 4.34.8 6.03 2.49.63.65 1.62 2.03 1.62 3.39 0 .14 0 .27-.03.41-.29 1.76-1.27 2.51-2.39 2.82-1.11.33-2.36.43-3.4.56-.85.08-1.33 1.22-1.31 1.48l-.1.04-.02.06.1-.06v.01c0 .02.04.04.07.07l.32.2c.27.14.63.26.97.26.18 0 .34-.03.5-.1.95-.45 1.96-1.31 3.08-1.8.44-.2.92-.33 1.42-.33.73 0 1.51.28 2.33.99.99.85 1.24 2.45 1.24 3.53 0 .2 0 .39-.02.55-.26 2.45-2.64 3.91-3.21 5.96-.14.46-.18.94-.18 1.44 0 .98.18 2.02.18 3.05 0 .77-.1 1.54-.47 2.27-.48.92-1.68 2.56-3.21 2.8-.27.04-.52.06-.75.06a3.16 3.16 0 0 1-2.78-1.5c-.68-1.02-1.07-2.29-1.64-3.17-.35-.57-1.3-.7-1.77-.69h-.04l.06.14-.27-.1-.07.2c-.06.2-.11.48-.11.76 0 .36.08.71.3.96.7.8 1.8 1.52 2.58 2.45.48.58.83 1.26.83 2.1 0 .5-.13 1.07-.42 1.7-.65 1.4-2.56 2.1-3.58 2.3-.25.05-.5.07-.74.07-2.11-.02-3.97-1.51-5.88-1.5zm5.88 1.15c.23 0 .45-.02.68-.07.96-.17 2.8-.9 3.33-2.1.27-.6.39-1.11.39-1.56 0-.74-.3-1.33-.75-1.87-.73-.89-1.83-1.6-2.58-2.45-.3-.34-.38-.78-.38-1.18 0-.5.12-.93.23-1.15.07-.07.03-.15.24-.2l.04.01h.26c.52 0 1.56.09 2.06.84.6.95.99 2.2 1.64 3.16.54.79 1.24 1.35 2.49 1.35.21 0 .45-.02.7-.05 1.3-.18 2.52-1.75 2.95-2.61a4.6 4.6 0 0 0 .43-2.12c0-1-.18-2.03-.18-3.05 0-.52.05-1.04.2-1.54.66-2.21 3-3.67 3.2-5.9l.02-.5c0-1.05-.27-2.57-1.12-3.29a3.21 3.21 0 0 0-2.1-.9c-.45 0-.88.12-1.3.3-1.05.46-2.05 1.31-3.07 1.8-.2.1-.43.13-.64.13-.63 0-1.22-.32-1.5-.53-.09-.1-.16-.09-.2-.28 0-.02 0-.04.02-.07a.4.4 0 0 1 0-.05c0-.44.49-1.64 1.61-1.81 1.04-.14 2.28-.24 3.35-.55 1.03-.3 1.85-.9 2.14-2.55.02-.11.03-.24.03-.36 0-1.19-.93-2.55-1.53-3.15-1.5-1.55-4.12-1.19-5.97-2.44-1.83-1.29-2.45-3.89-4.42-4.75a6.1 6.1 0 0 0-2.3-.49c-.54 0-1.06.1-1.48.36-1.25.77-1.58 1.62-1.59 2.56 0 .13 0 .25.02.38.1 1.11.59 2.3.72 3.38v.15c0 .54-.3 1-.6 1.34-.33.33-.58.54-.81.57l-.08-.02a2.1 2.1 0 0 1-1.55-2.02c0-1.12.62-2.3.72-3.4l.02-.38c-.01-.94-.34-1.8-1.6-2.56a2.86 2.86 0 0 0-1.47-.36c-.87 0-1.78.26-2.3.5-1.97.85-2.59 3.45-4.42 4.74-1.85 1.25-4.47.9-5.97 2.44-.6.6-1.54 1.96-1.53 3.15l.03.36c.3 1.66 1.11 2.24 2.14 2.55 1.07.3 2.31.37 3.36.55 1.13.22 1.59 1.47 1.6 1.85v.01c.02.03.02.05.02.07-.04.2-.11.18-.2.28a2.53 2.53 0 0 1-1.5.53c-.22 0-.43-.04-.64-.13-1.02-.48-2.02-1.34-3.07-1.8-.42-.18-.85-.3-1.3-.3-.63 0-1.32.24-2.1.9-.85.73-1.12 2.24-1.12 3.28 0 .2.01.36.03.51.2 2.23 2.53 3.69 3.2 5.9.14.5.19 1.02.19 1.54 0 1.02-.18 2.06-.18 3.04 0 .75.1 1.46.43 2.13.43.86 1.65 2.43 2.95 2.61.25.04.49.05.7.05 1.26 0 1.95-.56 2.5-1.35.64-.95 1.03-2.21 1.63-3.16.49-.73 1.48-.88 2.01-.89a1 1 0 0 1 .39.05c.02.02.08.04.11.13.22.4.36.81.36 1.23 0 .4-.13.8-.41 1.16-.76.98-1.82 1.6-2.6 2.46-.45.51-.74 1.1-.74 1.83 0 .46.11.99.39 1.6.54 1.2 2.38 1.93 3.33 2.1.23.04.46.06.68.06 1.95.02 3.8-1.48 5.88-1.5 2.08.02 3.94 1.52 5.88 1.5zm-17.07-23.63l.05-.08zm22.4 0l-.07-.09zm.06-.13h-.12z"/>
            <g>
              <g transform="translate(211.14 648.81)">
                <path d="M-871.83 901.32c.35 0 .9-.05 1.23-.2.52-.25.72-.73.88-1.18.15-.44-.04-1-.04-1-.47.08-.38.6-1.28 1.17-.4.26-1 .33-1.53.16a6.14 6.14 0 0 1-2.32-1.1c-.7-.58-1.42-1.23-2.34-1.66a5.03 5.03 0 0 0-2-.36c-.54 0-1.32.07-1.97.36-.93.43-1.65 1.08-2.36 1.67-.7.59-1.42.83-2.28 1.1-.54.16-1.64.1-1.96-.28l-.9-1.06s-.13.56.03 1c.15.45.28.93.8 1.18.65.3 1.63.2 2.25.01.98-.3 1.73-.9 2.45-1.5.71-.6 1.38-1.35 2.2-1.73a4.63 4.63 0 0 1 1.75-.31c.48 0 1.24.07 1.75.3.83.39 1.5 1.15 2.21 1.75.72.6 1.47 1.19 2.45 1.5.3.09.64.17.98.18z"/>
                <g transform="translate(0 .13)">
                  <path d="M-860.4 882.37c.11-.31.21-.81.15-1.15-.09-.52-.49-.83-.88-1.09-.38-.25-.97-.22-.97-.22-.06.44.47.5.77 1.44.14.43.04.98-.27 1.42-.5.7-.94 1.31-1.7 1.79s-1.58.94-2.25 1.66c-.46.5-.75 1.2-.9 1.68a4.3 4.3 0 0 0-.2 1.86c.15.94.57 1.76.94 2.54s.4 1.49.42 2.33c.01.52-.36 1.49-.8 1.67l-1.27.53s.5.27.97.24c.47-.02.96-.02 1.34-.41.49-.5.66-1.4.65-2a6.24 6.24 0 0 0-.76-2.59c-.38-.79-.92-1.58-1.05-2.42-.09-.52.04-1.2.18-1.63.13-.43.42-1.1.79-1.49.59-.64 1.5-1.04 2.28-1.53.77-.48 1.55-1 2.12-1.8.17-.25.34-.52.45-.83z"/>
                  <path d="M-874.5 865.34a2.7 2.7 0 0 0-1.04-.5c-.54-.07-.95.2-1.31.5-.36.27-.53.85-.53.85.4.2.62-.3 1.62-.28.45.01.94.28 1.25.7.5.7.95 1.31 1.16 2.19.21.87.4 1.8.87 2.65.33.6.9 1.1 1.3 1.4.42.3 1.06.67 1.71.77.94.16 1.85.02 2.7-.09.87-.1 1.55.1 2.34.34.5.15 1.3.82 1.34 1.3l.1 1.37s.41-.4.53-.84c.13-.46.3-.93.04-1.41-.33-.62-1.13-1.07-1.7-1.25a6.22 6.22 0 0 0-2.69-.1c-.87.11-1.8.37-2.63.23a4 4 0 0 1-1.49-.69c-.37-.26-.9-.74-1.16-1.21-.42-.77-.52-1.77-.73-2.65a6.95 6.95 0 0 0-1.04-2.58c-.17-.25-.38-.5-.64-.7z"/>
                </g>
                <g transform="matrix(-1 0 0 1 -852.67 .13)">
                  <path d="M45.35 882.37c.11-.31.21-.81.15-1.15-.1-.52-.5-.83-.88-1.09-.38-.25-.97-.22-.97-.22-.06.44.46.5.76 1.44.14.43.04.98-.27 1.42-.49.7-.93 1.31-1.7 1.79-.76.48-1.58.94-2.24 1.66-.47.5-.76 1.2-.9 1.68-.16.49-.3 1.2-.2 1.86.14.94.57 1.76.94 2.54s.4 1.49.42 2.33c0 .52-.37 1.49-.8 1.67l-1.28.53s.5.27.97.24c.47-.02.97-.02 1.35-.41.48-.5.65-1.4.64-2a6.24 6.24 0 0 0-.76-2.59c-.37-.79-.91-1.58-1.05-2.42-.08-.52.05-1.2.18-1.63.14-.43.42-1.1.79-1.49.6-.64 1.51-1.04 2.28-1.53a6.9 6.9 0 0 0 2.12-1.8c.18-.25.35-.52.45-.83z"/>
                  <path d="M31.24 865.34a2.7 2.7 0 0 0-1.04-.5c-.53-.07-.94.2-1.3.5-.37.27-.53.85-.53.85.4.2.62-.3 1.61-.28.46.01.94.28 1.26.7.5.7.95 1.31 1.16 2.19.21.87.4 1.8.87 2.65.32.6.9 1.1 1.3 1.4.42.3 1.05.67 1.7.77.95.16 1.85.02 2.71-.09.86-.1 1.54.1 2.34.34.5.15 1.3.82 1.34 1.3l.1 1.37s.4-.4.53-.84c.13-.46.3-.93.03-1.41-.32-.62-1.12-1.07-1.7-1.25a6.22 6.22 0 0 0-2.68-.1c-.87.11-1.8.37-2.63.23a4.02 4.02 0 0 1-1.49-.69 4.3 4.3 0 0 1-1.16-1.21c-.42-.77-.51-1.77-.73-2.65a6.95 6.95 0 0 0-1.04-2.58c-.18-.25-.39-.5-.65-.7z"/>
                </g>
              </g>
            </g>
          </g>
          <g transform="translate(0 .37)">
            <path fill="#fed100" d="M-656.53 1535.84c-2.6 1.83-5.46 1.42-8.05 2.13-.95 2.3-1.84 4.6-4.17 6.9-2.19-2.33-3.42-4.66-4.69-7-2.48-.39-4.95-.38-7.43-1.4 1.22-2.16 1.79-4.32 4.78-6.47-.35-2.69-1.06-5.37-.54-8.06 3.36.23 5.39 1.53 7.62 2.66 2.52-1 2.9-2.01 7.61-3.01 1.19 2.74-.35 5.49-.53 8.23 1.86 1.75 4.41 2.75 5.4 6.02z"/>
            <path d="M-668.87 1544.99c-2.18-2.33-3.42-4.65-4.68-6.96-2.43-.37-4.9-.38-7.4-1.41l-.17-.08.1-.17c1.2-2.1 1.79-4.3 4.74-6.45-.26-1.96-.7-3.93-.7-5.93 0-.7.05-1.39.19-2.08l.02-.15.16.01c3.36.23 5.41 1.52 7.6 2.64 2.41-.97 2.88-2 7.58-3l.13-.02.06.13c.34.78.46 1.55.46 2.33 0 2-.83 3.97-.97 5.9 1.8 1.7 4.38 2.73 5.39 6.04l-.17.05.17-.05.03.12-.1.07c-2.63 1.86-5.5 1.46-8.03 2.13-.93 2.27-1.84 4.58-4.16 6.88l-.13.13-.12-.13zm-4.54-7.28l.08.01.04.07c1.25 2.3 2.45 4.56 4.55 6.83 2.2-2.23 3.07-4.46 4-6.72l.03-.08.08-.02c2.61-.7 5.4-.32 7.9-2.03-.99-3.1-3.44-4.06-5.32-5.83l-.06-.05v-.08c.15-2.04.99-4.02.99-5.97 0-.69-.1-1.37-.38-2.06-4.56 1-4.9 1.96-7.45 2.97l-.07.03-.07-.03c-2.2-1.12-4.17-2.37-7.4-2.63-.1.62-.15 1.24-.15 1.87 0 1.98.46 3.97.72 5.98l.01.1-.08.06c-2.87 2.08-3.46 4.12-4.64 6.24 2.38.95 4.78.95 7.22 1.34z"/>
            <g transform="translate(-.61)">
              <path fill="#fed100" d="M-673.22 1524.47c-.41-.46-.6-1.06-.2-1.92.31-.7 1.3-1.07 1.83-1.17 1.23-.23 2.32.76 3.5.76 1.18 0 2.28-.99 3.5-.76.53.1 1.53.48 1.84 1.17.4.86.2 1.45-.2 1.92-.4.48-1 .87-1.37 1.3-.39.44-.05 1.29-.02 1.18-.05.01.86.1 1.17-.4.31-.48.52-1.15.87-1.67.35-.51.85-.87 1.79-.73.75.1 1.4.96 1.64 1.44.56 1.11-.09 2.44.24 3.57.33 1.14 1.58 1.91 1.7 3.16.05.53-.04 1.6-.61 2.09-.72.61-1.34.58-1.9.33-.58-.25-1.11-.7-1.64-.95-.52-.25-1.25.3-1.09.28-.09.04.16.85.76.93.56.07 1.22.12 1.8.3.57.15 1.04.51 1.2 1.42.13.73-.46 1.58-.82 1.94-.85.86-2.25.66-3.19 1.31s-1.27 2.04-2.36 2.53c-.47.2-1.47.45-2.1.07-.77-.48-.93-1.05-.87-1.65.05-.61.31-1.24.38-1.8s-.66-1.06-.67-.99c-.38.09-.76.49-.76 1 0 .55.32 1.18.38 1.79.05.6-.1 1.17-.88 1.65-.63.38-1.62.14-2.1-.07-1.09-.49-1.42-1.88-2.36-2.53-.93-.65-2.34-.45-3.19-1.3-.36-.37-.94-1.23-.82-1.95.16-.91.64-1.27 1.2-1.43.59-.17 1.25-.2 1.8-.3.61-.1.84-.94.76-.92.16.02-.56-.53-1.09-.28-.52.24-1.06.7-1.63.95-.57.25-1.18.28-1.9-.33-.58-.5-.67-1.56-.62-2.1.12-1.24 1.38-2.01 1.7-3.15.33-1.13-.31-2.46.25-3.57.24-.48.88-1.33 1.64-1.44.93-.14 1.43.22 1.78.73.36.52.56 1.19.87 1.68.32.49 1.2.46 1.17.4.23-.42.27-.82-.01-1.19-.39-.5-.95-.83-1.37-1.3z"/>
              <path d="M-666.94 1542.68c-.72-.43-.96-1-.95-1.55v-.22c.07-.64.33-1.27.39-1.8v-.06c.02-.34-.4-.72-.53-.79a.9.9 0 0 0-.64.86c-.01.51.31 1.14.38 1.79v.22c.01.56-.22 1.12-.95 1.55-.26.16-.58.22-.9.22-.5 0-1-.15-1.3-.28-1.17-.54-1.5-1.95-2.39-2.54-.87-.62-2.29-.42-3.2-1.32-.35-.36-.88-1.1-.88-1.84 0-.07 0-.15.02-.22.15-.95.69-1.37 1.29-1.53.6-.18 1.27-.2 1.8-.3.4-.05.65-.59.68-.74l-.01-.02v-.02l-.17-.1a1.18 1.18 0 0 0-.5-.14.56.56 0 0 0-.24.05c-.5.24-1.04.7-1.64.96-.24.1-.5.17-.78.17-.4 0-.82-.15-1.26-.53-.54-.47-.67-1.32-.67-1.9l.01-.3c.15-1.32 1.42-2.1 1.71-3.18.07-.23.1-.49.1-.75 0-.52-.1-1.07-.1-1.62 0-.41.05-.83.25-1.23.26-.49.9-1.37 1.74-1.5.14-.03.27-.03.4-.03a1.7 1.7 0 0 1 1.5.81c.38.55.58 1.22.88 1.68.17.28.64.38.88.38h.09c.1-.19.15-.36.15-.53a.76.76 0 0 0-.18-.47c-.36-.48-.92-.81-1.36-1.3l.1-.09.1-.08c.4.45.96.78 1.37 1.3.15.2.23.42.23.64 0 .24-.08.47-.21.7-.05.1-.1.06-.13.08a.7.7 0 0 1-.16.02c-.29 0-.82-.09-1.1-.5-.32-.5-.52-1.18-.86-1.67-.3-.42-.65-.7-1.3-.7-.11 0-.23 0-.36.02-.68.09-1.32.92-1.54 1.37-.18.35-.23.72-.23 1.1 0 .53.1 1.08.1 1.63a3 3 0 0 1-.1.82c-.37 1.2-1.61 1.97-1.7 3.14-.02.07-.02.16-.02.26 0 .55.15 1.35.58 1.71.41.35.76.47 1.1.47.22 0 .45-.05.67-.15.55-.24 1.08-.7 1.62-.95a.84.84 0 0 1 .36-.08c.35 0 .67.17.82.29.05.05.1.04.12.18v.04c-.02.23-.26.9-.89 1.03-.56.1-1.22.12-1.78.29-.54.16-.95.45-1.1 1.32a.98.98 0 0 0-.02.18c0 .62.49 1.34.8 1.65.78.8 2.16.62 3.17 1.3.98.7 1.31 2.07 2.34 2.51.27.12.75.26 1.2.26.29 0 .56-.05.77-.18.66-.4.82-.84.83-1.33l-.01-.2c-.05-.57-.38-1.2-.38-1.8 0-.57.4-1 .83-1.11.03-.02.05-.02.07-.02.16.02.27.13.46.31.16.19.33.44.33.74v.09c-.07.58-.33 1.2-.38 1.8l-.01.19c0 .49.17.92.82 1.33.21.13.49.18.77.18.45 0 .93-.13 1.2-.26 1.03-.44 1.36-1.81 2.35-2.51 1-.68 2.39-.5 3.17-1.3.3-.3.8-1.03.8-1.65a1 1 0 0 0-.02-.18c-.15-.87-.57-1.16-1.1-1.32-.57-.17-1.23-.22-1.78-.3-.63-.1-.88-.74-.9-1v-.02a.1.1 0 0 1 0-.04c.03-.14.07-.12.12-.18l.2-.12c.17-.09.39-.17.62-.17.12 0 .24.03.36.08.55.26 1.08.71 1.63.95.22.1.44.16.67.16.33 0 .68-.12 1.1-.47.43-.37.58-1.17.57-1.71v-.27c-.1-1.16-1.34-1.94-1.7-3.13-.09-.27-.11-.55-.11-.83 0-.54.1-1.1.1-1.62 0-.39-.06-.76-.23-1.1-.22-.46-.87-1.29-1.54-1.37a2.18 2.18 0 0 0-.37-.03c-.65 0-1 .28-1.29.7-.34.5-.54 1.17-.87 1.68-.28.42-.85.46-1.12.46h-.17c-.15-.04-.12-.1-.15-.13a1.7 1.7 0 0 1-.13-.63c0-.22.04-.46.21-.65.4-.46.99-.84 1.37-1.3.23-.28.39-.59.39-.97 0-.23-.06-.5-.2-.81-.27-.62-1.25-1.01-1.75-1.1a1.87 1.87 0 0 0-.35-.03c-1.02-.01-2 .78-3.12.8-1.13-.02-2.11-.82-3.13-.8-.12 0-.23 0-.35.03-.5.09-1.47.48-1.75 1.1a2 2 0 0 0-.2.83c0 .38.15.68.39.95l-.1.08-.1.1c-.26-.3-.45-.68-.45-1.13 0-.29.07-.6.23-.94.36-.77 1.38-1.14 1.93-1.25.13-.02.27-.03.4-.03 1.14 0 2.13.8 3.13.8.99 0 1.98-.8 3.12-.8.13 0 .27 0 .4.03.55.11 1.57.48 1.94 1.25.15.34.22.64.22.92 0 .46-.2.83-.45 1.14-.42.5-1.01.89-1.37 1.3-.11.13-.15.3-.15.48 0 .19.05.39.08.48l.19-.02-.02.04c.26-.01.7-.09.85-.35.3-.46.5-1.14.87-1.68.3-.46.77-.82 1.5-.82l.41.03c.84.14 1.48 1.02 1.74 1.51.2.4.25.81.25 1.23 0 .55-.1 1.1-.1 1.62 0 .26.03.51.1.75.29 1.07 1.56 1.85 1.7 3.18l.02.3c0 .57-.13 1.42-.67 1.9-.45.38-.87.53-1.27.53-.27 0-.53-.07-.77-.18-.6-.26-1.14-.72-1.64-.95a.56.56 0 0 0-.24-.05c-.18-.01-.37.06-.5.13l.15.03-.33.14c.03.18.28.68.67.71.54.08 1.2.13 1.8.3.61.17 1.15.58 1.3 1.53.02.08.02.15.02.23 0 .74-.53 1.48-.87 1.83-.92.9-2.34.7-3.21 1.33-.89.59-1.22 2-2.39 2.54-.3.13-.8.27-1.3.28-.33 0-.64-.06-.91-.23z"/>
              <g>
                <g transform="translate(211.14 648.81)">
                  <path d="M-875.3 873.9c.19 0 .48.02.66.1.27.14.38.39.46.63a.94.94 0 0 1-.02.53c-.25-.04-.2-.31-.68-.62a1 1 0 0 0-.81-.09c-.46.14-.86.27-1.24.59-.37.31-.75.65-1.24.88-.34.16-.77.2-1.06.2-.29 0-.7-.04-1.05-.2-.49-.22-.88-.57-1.25-.88a3.16 3.16 0 0 0-1.22-.59c-.28-.09-.87-.05-1.04.14l-.47.57s-.08-.3 0-.53c.1-.24.16-.5.44-.62.34-.17.86-.12 1.19-.01.52.16.92.47 1.3.8.38.3.74.71 1.18.91.27.13.66.17.92.17.25 0 .66-.04.93-.17.44-.2.8-.6 1.18-.92.38-.32.77-.63 1.3-.8.16-.05.34-.09.52-.1z"/>
                  <g transform="translate(0 .13)">
                    <path d="M-869.22 883.77c.06.16.11.43.08.6-.05.29-.26.45-.47.58-.2.14-.52.12-.52.12-.03-.23.25-.26.41-.76a.88.88 0 0 0-.14-.76c-.27-.37-.5-.7-.9-.95-.41-.25-.85-.5-1.2-.88-.25-.27-.4-.64-.48-.9a2.3 2.3 0 0 1-.1-.98c.07-.5.3-.94.5-1.35.2-.42.2-.8.22-1.24 0-.28-.2-.8-.43-.89l-.68-.28s.27-.14.52-.13c.25.02.51.01.72.22.25.27.34.75.34 1.07-.01.5-.2.95-.4 1.37-.2.42-.5.84-.57 1.29-.04.27.03.64.1.86.07.23.23.58.42.8.32.33.8.55 1.21.8.41.26.83.54 1.13.97.1.13.18.27.24.44z"/>
                    <path d="M-876.72 892.81c-.14.11-.37.25-.55.27-.28.04-.5-.1-.7-.26-.19-.15-.28-.45-.28-.45.22-.1.33.15.86.14.24 0 .5-.14.67-.37.27-.37.5-.7.62-1.16.1-.46.2-.96.46-1.41.17-.32.47-.58.7-.74.21-.16.55-.36.9-.41.5-.09.98-.01 1.43.05.46.05.82-.05 1.25-.19.26-.08.69-.43.7-.68l.06-.73s.22.2.29.45c.06.24.15.49.01.75-.17.32-.6.56-.9.66-.49.15-.96.1-1.43.05-.46-.06-.95-.2-1.4-.12-.27.04-.6.22-.79.36-.2.14-.48.4-.62.65-.22.4-.27.94-.38 1.4-.11.48-.24.96-.55 1.38-.1.13-.21.26-.35.36z"/>
                  </g>
                  <g transform="matrix(-1 0 0 1 -852.67 .13)">
                    <path d="M36.55 883.77c.06.16.1.43.08.6-.05.29-.27.45-.47.58-.2.14-.52.12-.52.12-.03-.23.25-.26.41-.76a.88.88 0 0 0-.14-.76c-.27-.37-.5-.7-.9-.95-.41-.25-.85-.5-1.2-.88-.25-.27-.4-.64-.48-.9a2.31 2.31 0 0 1-.1-.98c.07-.5.3-.94.5-1.35.2-.42.2-.8.22-1.24 0-.28-.2-.8-.43-.89l-.68-.28s.27-.14.52-.13c.25.02.51.01.71.22.26.27.35.75.35 1.07-.01.5-.2.95-.4 1.37-.2.42-.5.84-.57 1.29-.04.27.03.64.1.86.07.23.22.58.42.8.31.33.8.55 1.21.8.41.26.83.54 1.13.97.1.13.18.27.24.44z"/>
                    <path d="M29.05 892.81c-.14.11-.37.25-.55.27-.28.04-.5-.1-.7-.26-.19-.15-.27-.45-.27-.45.2-.1.32.15.85.14.24 0 .5-.14.67-.37.27-.37.5-.7.62-1.16.1-.46.2-.96.46-1.41.17-.32.47-.58.7-.74.21-.16.55-.36.9-.41.5-.09.98-.01 1.43.05.46.05.82-.05 1.25-.19.26-.08.69-.43.7-.68l.06-.73s.22.2.29.45c.06.24.15.49.01.75-.17.32-.6.56-.9.66-.49.15-.96.1-1.43.05-.46-.06-.95-.2-1.4-.12-.27.04-.6.22-.79.36-.2.14-.48.4-.62.65-.22.4-.27.94-.38 1.4-.12.48-.25.96-.55 1.38-.1.13-.21.26-.35.36z"/>
                  </g>
                </g>
              </g>
            </g>
          </g>
          <path fill="#fed100" d="M-672.96 1532.39a4.39 4.39 0 1 1 8.78 0 4.39 4.39 0 0 1-8.78 0z"/>
          <path d="M-673.12 1532.39a4.55 4.55 0 0 1 9.1 0 4.54 4.54 0 1 1-9.1 0zm.32 0a4.23 4.23 0 0 0 8.45 0 4.23 4.23 0 0 0-8.45 0z"/>
          <path fill="#fed100" stroke="#000" stroke-width=".31" d="M-668.58 1535.42c1.77 0 3.1-1.38 3.1-3.02a3.07 3.07 0 0 0-3.1-3.05c-1.75 0-3.1 1.4-3.1 3.05a3.04 3.04 0 0 0 3.1 3.02z"/>
        </g>
      </g>
      <g transform="matrix(2.79647 0 0 2.79647 1645.33 -850.7)">
        <g fill="#fed100" transform="translate(-20.42 559.64)">
          <path d="M284-177.7c.32-2.3.14-6.62-1.45-8.58a4.24 4.24 0 0 0-2.89-1.4c-1.02.03-2.41.26-2.9.93a4.64 4.64 0 0 0-.61 2.65c.14.97 1.65 2.97 1.65 2.97s-5.4-.82-7.23-1.87c-1.8-1.05-3.76-3.02-4.33-4.68-.2-.57-.97-2.42 0-4.63.56-1.28 2.27-3 3.58-3.86 3.45-2.24 10.13-1.58 11.5-1.03 1.8.74 4 2.3 4.74 3.75a42.4 42.4 0 0 1 2.07 5.61c.6 2.42.77 3.33 1.03 5.77.18 1.68.67 3.19.2 4.84-.25.89-.56 2.92-1.25 4.26-.7 1.35-1.76 2-2.67 2.6-1.87 1.22-7.85 1.88-7.85 1.88s3.29-3.14 4.13-4.53c1-1.66 2.02-2.87 2.28-4.68z"/>
          <path d="M298.64-177.7c-.32-2.3-.15-6.62 1.45-8.58a4.24 4.24 0 0 1 2.89-1.4c1.01.03 2.4.26 2.9.93.43.62.71 1.96.6 2.65-.14.97-1.65 2.97-1.65 2.97s5.4-.82 7.23-1.87c1.81-1.05 3.76-3.02 4.34-4.68.2-.57.97-2.42 0-4.63-.57-1.28-2.27-3-3.59-3.86-3.44-2.24-10.12-1.58-11.49-1.03-1.8.74-4 2.3-4.75 3.75a41.85 41.85 0 0 0-2.06 5.61c-.6 2.42-.77 3.33-1.03 5.77-.18 1.68-.68 3.19-.21 4.84.26.89.57 2.92 1.25 4.26.7 1.35 1.76 2 2.67 2.6 1.87 1.22 7.85 1.88 7.85 1.88s-3.28-3.14-4.13-4.53c-1-1.66-2.02-2.87-2.27-4.68z"/>
        </g>
        <path fill="none" stroke="#000" stroke-width=".6" d="M284.58 378.4s3.08-.98 3.99-1.77a7.28 7.28 0 0 0 1.92-3.42c.23-.83-.31-2.57-.82-3.32a5.02 5.02 0 0 0-3.3-2.18 8.67 8.67 0 0 0-3.85 0 9.53 9.53 0 0 0-3.43 1.76 8.42 8.42 0 0 0-2.2 3.64c-.26.81-.85 3.3-.83 4.15.02.75.14 3.11.14 3.11"/>
        <path fill="none" stroke="#000" stroke-width=".6" d="M257.23 378.4s-3.07-.98-4-1.77a7.3 7.3 0 0 1-1.92-3.43c-.22-.82.33-2.57.83-3.32a5.02 5.02 0 0 1 3.3-2.18c1.1-.27 2.77-.3 3.85 0a9.56 9.56 0 0 1 3.44 1.77 8.44 8.44 0 0 1 2.19 3.63c.26.82.85 3.31.83 4.15l-.14 3.12"/>
        <g transform="translate(-20.42 559.64)">
          <path d="M277.3-168.67s.83-.78 1.75-1.73 1.95-2.08 2.34-2.73c1.02-1.68 2-2.86 2.24-4.6.09-.59.14-1.32.14-2.1 0-2.24-.43-4.96-1.53-6.3a3.95 3.95 0 0 0-2.52-1.28h-.02v-.08l-.03.08c-.97.02-2.26.29-2.58.8-.33.45-.6 1.5-.6 2.19 0 .1 0 .2.02.3.06.4.46 1.14.85 1.75.39.6.76 1.1.76 1.1l.4.53-.8-.12c-.02-.01-5.38-.8-7.37-1.92-1.88-1.1-3.85-3.08-4.47-4.83-.12-.35-.49-1.26-.49-2.44 0-.7.13-1.5.5-2.35.61-1.36 2.32-3.08 3.7-3.98 1.95-1.26 4.8-1.63 7.24-1.63 2.12 0 3.9.27 4.66.57 1.88.77 4.1 2.34 4.91 3.89a33.97 33.97 0 0 1 3.12 11.47c.13 1.14.4 2.23.4 3.37 0 .5-.05 1.01-.2 1.54-.25.86-.56 2.91-1.27 4.3-.72 1.42-1.86 2.12-2.77 2.71-2.07 1.32-8 1.92-8.03 1.94l-.91.1zm4.76-4.24c-.67 1.08-2.62 3.06-3.6 4.02.58-.07 1.4-.2 2.27-.35 1.7-.3 3.65-.8 4.47-1.34.93-.6 1.9-1.2 2.57-2.48.66-1.3.98-3.32 1.24-4.23.13-.48.19-.95.19-1.42 0-1.07-.27-2.15-.4-3.33a34.21 34.21 0 0 0-1.03-5.75 41.36 41.36 0 0 0-2.05-5.56c-.67-1.35-2.85-2.9-4.58-3.6-.52-.22-2.3-.52-4.31-.5-2.34-.01-5.04.36-6.77 1.5-1.25.8-2.95 2.52-3.47 3.73a5.26 5.26 0 0 0-.47 2.17c0 1.1.34 1.93.47 2.3.54 1.57 2.47 3.53 4.2 4.53.82.48 2.62.95 4.18 1.28.83.18 1.6.32 2.13.41a8.18 8.18 0 0 1-1.32-2.53 4.86 4.86 0 0 1 .66-2.81c.65-.85 2.14-1.04 3.17-1.09h.11c1.25.02 2.53.82 3.15 1.54 1.24 1.55 1.62 4.3 1.63 6.58 0 .81-.05 1.56-.14 2.17-.27 1.88-1.32 3.13-2.3 4.76z"/>
          <path d="M304.99-168.22c-.04-.02-5.97-.62-8.04-1.94-.9-.6-2.05-1.3-2.76-2.7-.72-1.4-1.03-3.45-1.28-4.31a5.42 5.42 0 0 1-.2-1.54c0-1.14.28-2.23.4-3.38.26-2.45.44-3.39 1.04-5.8.3-1.22 1.49-4.5 2.08-5.67.8-1.54 3.04-3.1 4.92-3.88.76-.3 2.53-.57 4.66-.57 2.43 0 5.28.36 7.24 1.63 1.37.9 3.08 2.62 3.7 3.98.37.85.5 1.65.5 2.35 0 1.18-.38 2.09-.5 2.44-.61 1.75-2.59 3.74-4.47 4.83-1.99 1.12-7.35 1.9-7.38 1.92l-.78.12.4-.53s.37-.5.75-1.1c.4-.6.8-1.35.85-1.76.02-.08.02-.18.02-.3 0-.68-.27-1.74-.6-2.19-.31-.5-1.61-.77-2.6-.79h-.03c-.8-.02-2.07.7-2.51 1.27-1.11 1.35-1.54 4.07-1.53 6.3 0 .79.05 1.52.13 2.1l-.36.04-.36.03c-.09-.61-.14-1.36-.14-2.17 0-2.29.38-5.03 1.63-6.59a4.67 4.67 0 0 1 3.14-1.53h.08c1.06.04 2.56.23 3.2 1.08.42.61.68 1.67.68 2.45 0 .13 0 .25-.02.36-.12.74-.85 1.87-1.31 2.54.53-.1 1.3-.24 2.12-.41 1.56-.33 3.36-.8 4.19-1.29 1.73-1 3.66-2.95 4.2-4.52.13-.37.46-1.2.46-2.3 0-.65-.11-1.4-.46-2.17-.52-1.21-2.22-2.93-3.48-3.74-1.73-1.13-4.42-1.5-6.76-1.5-2.02 0-3.8.28-4.31.5-1.73.7-3.9 2.26-4.59 3.6a41.78 41.78 0 0 0-2.04 5.57c-.6 2.41-.76 3.3-1.03 5.74-.13 1.2-.4 2.27-.4 3.34 0 .47.05.94.18 1.42.26.91.58 2.93 1.25 4.22.66 1.29 1.64 1.89 2.56 2.49.82.54 2.77 1.03 4.47 1.33.88.16 1.7.28 2.28.36-.98-.96-2.94-2.94-3.6-4.02-.99-1.63-2.04-2.88-2.3-4.76l.36-.03.36-.03c.24 1.74 1.22 2.92 2.24 4.6.4.64 1.42 1.78 2.35 2.73.92.95 1.73 1.73 1.73 1.73l.58.54z"/>
        </g>
        <g>
          <g transform="translate(-15.42 9.64)">
            <path fill="#fed100" d="M286.3 389.32s3.64-2.98 4.24-6.37c.54-3.04-1.88-6.6-2.06-8.04-.73-5.73.82-13.36.96-13.98.55-2.48 1.25-3.54 1.63-4.35a27.6 27.6 0 0 1 1.8-2.88c.44-.64 1.41-1.85 1.91-3.07a9.74 9.74 0 0 0 .04-6.52 6.85 6.85 0 0 0-2.72-3.33l-3.26-2c-1.57-.99-2.53-4.24-2.55-4.24-.02 0-.98 3.25-2.55 4.25l-3.2 2a6.88 6.88 0 0 0-2.73 3.32c-.32.98-.54 2-.53 3.2 0 .7.05 2.02.57 3.32.5 1.23 1.48 2.43 1.92 3.07a28.27 28.27 0 0 1 1.8 2.88c.37.8 1.07 1.87 1.62 4.35.15.62 1.7 8.25.97 13.98-.19 1.44-2.66 5-2.12 8.04.6 3.39 4.25 6.37 4.25 6.37z"/>
            <path d="M286.56 334.98v54.34h-.55v-54.34z"/>
          </g>
          <path d="M270.7 399.18c-.02-.02-3.7-3-4.35-6.54a5.12 5.12 0 0 1-.08-.96c0-2.92 2.07-6.01 2.19-7.16.14-1.07.2-2.21.2-3.36 0-4.94-1.04-10.05-1.16-10.53-.55-2.46-1.22-3.45-1.6-4.3a27.08 27.08 0 0 0-1.78-2.83c-.42-.63-1.42-1.85-1.94-3.13a9.34 9.34 0 0 1-.6-3.4v-.12a10 10 0 0 1 .55-3.19c.34-1 1.34-2.55 2.84-3.47 1.54-.94 2.73-1.7 3.2-2 1.32-.8 2.3-3.67 2.42-4.06l.05-.1c.03-.02-.01-.09.23-.13.25.04.2.12.23.12l.02.04.01.02.02.04.03.1.13.38c.12.32.3.75.5 1.2.43.93 1.06 1.96 1.76 2.4l3.26 1.99a7.1 7.1 0 0 1 2.83 3.47 10 10 0 0 1 .55 3.19v.1a9.37 9.37 0 0 1-.6 3.42c-.51 1.28-1.51 2.5-1.93 3.13a26.96 26.96 0 0 0-1.78 2.83c-.39.85-1.06 1.84-1.6 4.3-.12.48-1.16 5.6-1.16 10.53 0 1.15.06 2.29.2 3.36.12 1.15 2.13 4.23 2.13 7.14 0 .33-.02.66-.08.98-.64 3.53-4.33 6.52-4.34 6.54l-.18.14zm.17-.22l.18-.21zm-.45-52.92c-.45.96-1.08 2.06-1.95 2.62-.48.3-1.67 1.06-3.21 2a6.6 6.6 0 0 0-2.6 3.17c-.3.94-.52 1.9-.52 3.02v.1c0 .69.04 1.97.55 3.22.48 1.17 1.44 2.36 1.89 3.02a27.23 27.23 0 0 1 1.82 2.91c.36.78 1.09 1.9 1.64 4.4.12.53 1.16 5.65 1.17 10.66 0 1.16-.06 2.33-.2 3.43-.21 1.43-2.2 4.38-2.19 7.09 0 .3.02.58.07.87.29 1.6 1.32 3.17 2.3 4.32.7.84 1.37 1.46 1.68 1.73.3-.27.97-.89 1.69-1.73.97-1.15 2-2.72 2.28-4.32.06-.3.08-.59.08-.89 0-2.7-1.93-5.64-2.13-7.07-.15-1.1-.2-2.26-.2-3.43 0-5.02 1.04-10.13 1.16-10.65.56-2.51 1.29-3.63 1.65-4.41.29-.63 1.05-1.78 1.82-2.91.45-.67 1.41-1.85 1.89-3.03.5-1.24.54-2.52.55-3.21v-.1a9.5 9.5 0 0 0-.52-3.02 6.56 6.56 0 0 0-2.6-3.17l-3.27-2a6.16 6.16 0 0 1-1.93-2.55c-.19-.4-.35-.8-.47-1.12-.11.3-.26.67-.45 1.05z"/>
        </g>
        <g>
          <path fill="#fed100" d="M279.06 380.58l-1.76-2.43h-12.8l-1.76 2.43 1.76 2.42h12.8z"/>
          <path d="M264.36 383.27l-1.96-2.69 1.96-2.7h13.08l1.84 2.54-.22.16.22-.16.12.16-1.96 2.7zm-1.28-2.69l1.56 2.14h12.52l1.55-2.14-1.55-2.15h-12.52z"/>
        </g>
      </g>
      <g transform="matrix(2.79647 0 0 2.79647 1425.76 -605.52)">
        <g fill="#fed100" transform="translate(-20.42 559.64)">
          <path d="M284-177.7c.32-2.3.14-6.62-1.45-8.58a4.24 4.24 0 0 0-2.89-1.4c-1.02.03-2.41.26-2.9.93a4.64 4.64 0 0 0-.61 2.65c.14.97 1.65 2.97 1.65 2.97s-5.4-.82-7.23-1.87c-1.8-1.05-3.76-3.02-4.33-4.68-.2-.57-.97-2.42 0-4.63.56-1.28 2.27-3 3.58-3.86 3.45-2.24 10.13-1.58 11.5-1.03 1.8.74 4 2.3 4.74 3.75a42.4 42.4 0 0 1 2.07 5.61c.6 2.42.77 3.33 1.03 5.77.18 1.68.67 3.19.2 4.84-.25.89-.56 2.92-1.25 4.26-.7 1.35-1.76 2-2.67 2.6-1.87 1.22-7.85 1.88-7.85 1.88s3.29-3.14 4.13-4.53c1-1.66 2.02-2.87 2.28-4.68z"/>
          <path d="M298.64-177.7c-.32-2.3-.15-6.62 1.45-8.58a4.24 4.24 0 0 1 2.89-1.4c1.01.03 2.4.26 2.9.93.43.62.71 1.96.6 2.65-.14.97-1.65 2.97-1.65 2.97s5.4-.82 7.23-1.87c1.81-1.05 3.76-3.02 4.34-4.68.2-.57.97-2.42 0-4.63-.57-1.28-2.27-3-3.59-3.86-3.44-2.24-10.12-1.58-11.49-1.03-1.8.74-4 2.3-4.75 3.75a41.85 41.85 0 0 0-2.06 5.61c-.6 2.42-.77 3.33-1.03 5.77-.18 1.68-.68 3.19-.21 4.84.26.89.57 2.92 1.25 4.26.7 1.35 1.76 2 2.67 2.6 1.87 1.22 7.85 1.88 7.85 1.88s-3.28-3.14-4.13-4.53c-1-1.66-2.02-2.87-2.27-4.68z"/>
        </g>
        <path fill="none" stroke="#000" stroke-width=".6" d="M284.58 378.4s3.08-.98 3.99-1.77a7.28 7.28 0 0 0 1.92-3.42c.23-.83-.31-2.57-.82-3.32a5.02 5.02 0 0 0-3.3-2.18 8.67 8.67 0 0 0-3.85 0 9.53 9.53 0 0 0-3.43 1.76 8.42 8.42 0 0 0-2.2 3.64c-.26.81-.85 3.3-.83 4.15.02.75.14 3.11.14 3.11"/>
        <path fill="none" stroke="#000" stroke-width=".6" d="M257.23 378.4s-3.07-.98-4-1.77a7.3 7.3 0 0 1-1.92-3.43c-.22-.82.33-2.57.83-3.32a5.02 5.02 0 0 1 3.3-2.18c1.1-.27 2.77-.3 3.85 0a9.56 9.56 0 0 1 3.44 1.77 8.44 8.44 0 0 1 2.19 3.63c.26.82.85 3.31.83 4.15l-.14 3.12"/>
        <g transform="translate(-20.42 559.64)">
          <path d="M277.3-168.67s.83-.78 1.75-1.73 1.95-2.08 2.34-2.73c1.02-1.68 2-2.86 2.24-4.6.09-.59.14-1.32.14-2.1 0-2.24-.43-4.96-1.53-6.3a3.95 3.95 0 0 0-2.52-1.28h-.02v-.08l-.03.08c-.97.02-2.26.29-2.58.8-.33.45-.6 1.5-.6 2.19 0 .1 0 .2.02.3.06.4.46 1.14.85 1.75.39.6.76 1.1.76 1.1l.4.53-.8-.12c-.02-.01-5.38-.8-7.37-1.92-1.88-1.1-3.85-3.08-4.47-4.83-.12-.35-.49-1.26-.49-2.44 0-.7.13-1.5.5-2.35.61-1.36 2.32-3.08 3.7-3.98 1.95-1.26 4.8-1.63 7.24-1.63 2.12 0 3.9.27 4.66.57 1.88.77 4.1 2.34 4.91 3.89a33.97 33.97 0 0 1 3.12 11.47c.13 1.14.4 2.23.4 3.37 0 .5-.05 1.01-.2 1.54-.25.86-.56 2.91-1.27 4.3-.72 1.42-1.86 2.12-2.77 2.71-2.07 1.32-8 1.92-8.03 1.94l-.91.1zm4.76-4.24c-.67 1.08-2.62 3.06-3.6 4.02.58-.07 1.4-.2 2.27-.35 1.7-.3 3.65-.8 4.47-1.34.93-.6 1.9-1.2 2.57-2.48.66-1.3.98-3.32 1.24-4.23.13-.48.19-.95.19-1.42 0-1.07-.27-2.15-.4-3.33a34.21 34.21 0 0 0-1.03-5.75 41.36 41.36 0 0 0-2.05-5.56c-.67-1.35-2.85-2.9-4.58-3.6-.52-.22-2.3-.52-4.31-.5-2.34-.01-5.04.36-6.77 1.5-1.25.8-2.95 2.52-3.47 3.73a5.26 5.26 0 0 0-.47 2.17c0 1.1.34 1.93.47 2.3.54 1.57 2.47 3.53 4.2 4.53.82.48 2.62.95 4.18 1.28.83.18 1.6.32 2.13.41a8.18 8.18 0 0 1-1.32-2.53 4.86 4.86 0 0 1 .66-2.81c.65-.85 2.14-1.04 3.17-1.09h.11c1.25.02 2.53.82 3.15 1.54 1.24 1.55 1.62 4.3 1.63 6.58 0 .81-.05 1.56-.14 2.17-.27 1.88-1.32 3.13-2.3 4.76z"/>
          <path d="M304.99-168.22c-.04-.02-5.97-.62-8.04-1.94-.9-.6-2.05-1.3-2.76-2.7-.72-1.4-1.03-3.45-1.28-4.31a5.42 5.42 0 0 1-.2-1.54c0-1.14.28-2.23.4-3.38.26-2.45.44-3.39 1.04-5.8.3-1.22 1.49-4.5 2.08-5.67.8-1.54 3.04-3.1 4.92-3.88.76-.3 2.53-.57 4.66-.57 2.43 0 5.28.36 7.24 1.63 1.37.9 3.08 2.62 3.7 3.98.37.85.5 1.65.5 2.35 0 1.18-.38 2.09-.5 2.44-.61 1.75-2.59 3.74-4.47 4.83-1.99 1.12-7.35 1.9-7.38 1.92l-.78.12.4-.53s.37-.5.75-1.1c.4-.6.8-1.35.85-1.76.02-.08.02-.18.02-.3 0-.68-.27-1.74-.6-2.19-.31-.5-1.61-.77-2.6-.79h-.03c-.8-.02-2.07.7-2.51 1.27-1.11 1.35-1.54 4.07-1.53 6.3 0 .79.05 1.52.13 2.1l-.36.04-.36.03c-.09-.61-.14-1.36-.14-2.17 0-2.29.38-5.03 1.63-6.59a4.67 4.67 0 0 1 3.14-1.53h.08c1.06.04 2.56.23 3.2 1.08.42.61.68 1.67.68 2.45 0 .13 0 .25-.02.36-.12.74-.85 1.87-1.31 2.54.53-.1 1.3-.24 2.12-.41 1.56-.33 3.36-.8 4.19-1.29 1.73-1 3.66-2.95 4.2-4.52.13-.37.46-1.2.46-2.3 0-.65-.11-1.4-.46-2.17-.52-1.21-2.22-2.93-3.48-3.74-1.73-1.13-4.42-1.5-6.76-1.5-2.02 0-3.8.28-4.31.5-1.73.7-3.9 2.26-4.59 3.6a41.78 41.78 0 0 0-2.04 5.57c-.6 2.41-.76 3.3-1.03 5.74-.13 1.2-.4 2.27-.4 3.34 0 .47.05.94.18 1.42.26.91.58 2.93 1.25 4.22.66 1.29 1.64 1.89 2.56 2.49.82.54 2.77 1.03 4.47 1.33.88.16 1.7.28 2.28.36-.98-.96-2.94-2.94-3.6-4.02-.99-1.63-2.04-2.88-2.3-4.76l.36-.03.36-.03c.24 1.74 1.22 2.92 2.24 4.6.4.64 1.42 1.78 2.35 2.73.92.95 1.73 1.73 1.73 1.73l.58.54z"/>
        </g>
        <g>
          <g transform="translate(-15.42 9.64)">
            <path fill="#fed100" d="M286.3 389.32s3.64-2.98 4.24-6.37c.54-3.04-1.88-6.6-2.06-8.04-.73-5.73.82-13.36.96-13.98.55-2.48 1.25-3.54 1.63-4.35a27.6 27.6 0 0 1 1.8-2.88c.44-.64 1.41-1.85 1.91-3.07a9.74 9.74 0 0 0 .04-6.52 6.85 6.85 0 0 0-2.72-3.33l-3.26-2c-1.57-.99-2.53-4.24-2.55-4.24-.02 0-.98 3.25-2.55 4.25l-3.2 2a6.88 6.88 0 0 0-2.73 3.32c-.32.98-.54 2-.53 3.2 0 .7.05 2.02.57 3.32.5 1.23 1.48 2.43 1.92 3.07a28.27 28.27 0 0 1 1.8 2.88c.37.8 1.07 1.87 1.62 4.35.15.62 1.7 8.25.97 13.98-.19 1.44-2.66 5-2.12 8.04.6 3.39 4.25 6.37 4.25 6.37z"/>
            <path d="M286 334.98h.56v54.34h-.55z"/>
          </g>
          <path d="M270.7 399.18c-.02-.02-3.7-3-4.35-6.54a5.12 5.12 0 0 1-.08-.96c0-2.92 2.07-6.01 2.19-7.16.14-1.07.2-2.21.2-3.36 0-4.94-1.04-10.05-1.16-10.53-.55-2.46-1.22-3.45-1.6-4.3a27.08 27.08 0 0 0-1.78-2.83c-.42-.63-1.42-1.85-1.94-3.13a9.34 9.34 0 0 1-.6-3.4v-.12a10 10 0 0 1 .55-3.19c.34-1 1.34-2.55 2.84-3.47 1.54-.94 2.73-1.7 3.2-2 1.32-.8 2.3-3.67 2.42-4.06l.05-.1c.03-.02-.01-.09.23-.13.25.04.2.12.23.12l.02.04.01.02.02.04.03.1.13.38c.12.32.3.75.5 1.2.43.93 1.06 1.96 1.76 2.4l3.26 1.99a7.1 7.1 0 0 1 2.83 3.47 10 10 0 0 1 .55 3.19v.1a9.37 9.37 0 0 1-.6 3.42c-.51 1.28-1.51 2.5-1.93 3.13a26.96 26.96 0 0 0-1.78 2.83c-.39.85-1.06 1.84-1.6 4.3-.12.48-1.16 5.6-1.16 10.53 0 1.15.06 2.29.2 3.36.12 1.15 2.13 4.23 2.13 7.14 0 .33-.02.66-.08.98-.64 3.53-4.33 6.52-4.34 6.54l-.18.14zm.17-.22l.18-.21zm-.45-52.92c-.45.96-1.08 2.06-1.95 2.62-.48.3-1.67 1.06-3.21 2a6.6 6.6 0 0 0-2.6 3.17c-.3.94-.52 1.9-.52 3.02v.1c0 .69.04 1.97.55 3.22.48 1.17 1.44 2.36 1.89 3.02a27.23 27.23 0 0 1 1.82 2.91c.36.78 1.09 1.9 1.64 4.4.12.53 1.16 5.65 1.17 10.66 0 1.16-.06 2.33-.2 3.43-.21 1.43-2.2 4.38-2.19 7.09 0 .3.02.58.07.87.29 1.6 1.32 3.17 2.3 4.32.7.84 1.37 1.46 1.68 1.73.3-.27.97-.89 1.69-1.73.97-1.15 2-2.72 2.28-4.32.06-.3.08-.59.08-.89 0-2.7-1.93-5.64-2.13-7.07-.15-1.1-.2-2.26-.2-3.43 0-5.02 1.04-10.13 1.16-10.65.56-2.51 1.29-3.63 1.65-4.41.29-.63 1.05-1.78 1.82-2.91.45-.67 1.41-1.85 1.89-3.03.5-1.24.54-2.52.55-3.21v-.1a9.5 9.5 0 0 0-.52-3.02 6.56 6.56 0 0 0-2.6-3.17l-3.27-2a6.16 6.16 0 0 1-1.93-2.55c-.19-.4-.35-.8-.47-1.12-.11.3-.26.67-.45 1.05z"/>
        </g>
        <g>
          <path fill="#fed100" d="M279.06 380.58l-1.76-2.43h-12.8l-1.76 2.43 1.76 2.42h12.8z"/>
          <path d="M264.36 383.27l-1.96-2.69 1.96-2.7h13.08l1.84 2.54-.22.16.22-.16.12.16-1.96 2.7zm-1.28-2.69l1.56 2.14h12.52l1.55-2.14-1.55-2.15h-12.52z"/>
        </g>
      </g>
    </g>
    <path stroke-width=".5" d="M964.93 451.11l4.3-.41-2.68-5.36zm-2.9 4.56l-.08-.83 1.02-.1 3.14-11.28 1.32-.12 5.21 10.48 1.16-.11.08.83-4.26.4-.08-.83 1.3-.12-1.23-2.48-4.92.47-.74 2.67 1.29-.13.08.83zm-7.7 1.65l1.41-.4c1.47-.42 2.48-1.16 3.02-2.22.55-1.06.6-2.38.16-3.95-.45-1.56-1.18-2.65-2.2-3.25-1.02-.6-2.27-.7-3.74-.28l-1.41.4zm-2.74 1.65l-.23-.8 1.44-.41-2.77-9.7-1.44.41-.23-.81 4.5-1.28c1.95-.56 3.61-.5 4.98.2a5.55 5.55 0 0 1 2.82 3.68c.5 1.78.36 3.32-.45 4.63-.8 1.31-2.18 2.25-4.12 2.8zm-3.31.59l1.38-.57.32.78-4.26 1.72-.31-.77 1.38-.56-3.78-9.35-1.39.56-.31-.78 4.26-1.73.31.79-1.38.56zm-12.74 6.58l-.35-.75 1.36-.63-4.24-9.16-1.35.63-.36-.76 8.74-4.05 1.1 2.38-.88.4-.7-1.49-5.04 2.34 1.65 3.57 3.65-1.69-.62-1.33.88-.41 1.64 3.55-.88.4-.62-1.33-3.64 1.68 2.12 4.6 1.71-.8.35.76zm-10.67 5.01l-.34-.76 1.36-.62-4.18-9.18-1.37.62-.35-.76 8.62-3.93 1.09 2.38-.89.4-.68-1.5-4.92 2.25 1.64 3.58 3.5-1.6-.6-1.34.87-.4 1.62 3.55-.88.4-.6-1.33-3.51 1.6 2.04 4.48 5.03-2.3-.68-1.5.88-.4 1.09 2.38zm-10.06 3.68l-.27-.78 1.41-.5-3.3-9.53-1.4.5-.28-.8 4.34-1.5.27.8-1.41.48 3.25 9.4 5.08-1.75-.64-1.86.91-.32.96 2.78zm-9.79-2.54l4.27-.63-2.94-5.22zm-2.68 4.7l-.12-.83 1.02-.15 2.58-11.42 1.31-.2 5.73 10.22 1.14-.17.12.83-4.23.62-.12-.83 1.3-.19-1.35-2.42-4.9.72-.6 2.7 1.28-.19.12.83zm-15.38-2.53l.15-.82 1.47.27 1.82-9.92-1.56-.29.15-.82 3.37.61 2.56 8.98 5.56-7.5 3.17.59-.16.83-1.54-.29-1.81 9.92 1.48.27-.15.83-4.53-.83.15-.82 1.47.27 1.64-8.95-5.44 7.34-1.1-.2-2.49-8.79-1.64 8.94 1.48.27-.15.83zm-18.4-8.37l1.35.56c1.42.58 2.67.61 3.75.11 1.09-.5 1.94-1.5 2.56-3 .61-1.51.7-2.82.28-3.92-.43-1.1-1.36-1.95-2.78-2.53l-1.35-.55zm-3.19-.4l.32-.77 1.38.57 3.81-9.34-1.38-.56.32-.78 4.33 1.76c1.88.77 3.14 1.85 3.8 3.23a5.55 5.55 0 0 1-.06 4.64 5.58 5.58 0 0 1-3.21 3.37c-1.44.53-3.1.42-4.97-.34zm-6.97-14.86l-1.38-.59.33-.78 4.23 1.8-.33.78-1.38-.59-2.39 5.6c-.59 1.38-.77 2.44-.56 3.18.23.74.9 1.34 2 1.82 1.1.47 2 .53 2.68.17.69-.35 1.33-1.22 1.91-2.6l2.39-5.6-1.39-.59.33-.77 3.66 1.55-.33.78-1.38-.59-2.45 5.74c-.7 1.65-1.51 2.68-2.43 3.1-.93.4-2.15.29-3.67-.36-1.51-.64-2.45-1.45-2.8-2.41-.35-.96-.18-2.26.52-3.9zm-12.46 1.94l3.98 1.68.19-6zm-4.72 2.63l.32-.77.95.4 8.12-8.43 1.22.51-.39 11.7 1.07.45-.33.77-3.94-1.66.33-.77 1.2.5.1-2.76-4.56-1.92-1.9 2 1.18.5-.32.77zm-12.13-4.98l.32-.77 1.39.57 3.81-9.34-1.38-.56.32-.78 4.25 1.73-.32.78-1.39-.56-1.54 3.76 5.65 2.3 1.54-3.75-1.39-.57.32-.78 4.25 1.74-.32.78-1.38-.57-3.82 9.34 1.39.56-.32.78-4.25-1.74.32-.78 1.38.57 1.92-4.68-5.65-2.31-1.91 4.68 1.38.57-.31.77zm167.52-45.73l-1.87-2.24.76-.63c.65.73 1.33 1.1 2.04 1.12.7.01 1.48-.33 2.32-1.03a3.83 3.83 0 0 0 1.4-1.96 2.08 2.08 0 0 0-.51-1.88c-.4-.47-.83-.73-1.3-.78a5.08 5.08 0 0 0-2.18.57l-1.63.7c-1.18.5-2.14.7-2.88.59a3.3 3.3 0 0 1-2.04-1.28 3.03 3.03 0 0 1-.74-2.69 5.2 5.2 0 0 1 1.92-2.78c.46-.38 1-.75 1.64-1.1.62-.36 1.32-.7 2.1-1.03l1.75 2.1-.75.62c-.65-.63-1.3-.93-1.95-.92-.65.02-1.37.35-2.17 1.02a3.3 3.3 0 0 0-1.23 1.75c-.13.59.04 1.15.49 1.69.4.47.84.73 1.33.77.5.04 1.3-.18 2.4-.65l1.53-.66a5.42 5.42 0 0 1 2.76-.56c.73.09 1.39.49 1.97 1.19.8.95 1.1 1.93.89 2.92-.21 1-.92 2-2.13 3-.54.46-1.14.86-1.8 1.22-.64.36-1.35.67-2.12.93zm-3.64 2.04l1.36-.9.5.77-4.2 2.73-.5-.76 1.37-.9-6-9.22-1.37.9-.5-.78 4.2-2.73.5.77-1.36.9zm-16 9.94l-.42-.8 1.53-.8-5.05-9.77-1.54.8-.42-.83 2.92-1.5 11.49 5.45-4.23-8.17-1.53.79-.42-.82 4-2.07.42.82-1.53.79 5.59 10.8-.93.48-12.26-5.83 4.43 8.58 1.53-.8.42.81zm-3.6.44l1.5-.66.36.83-4.58 2.02-.37-.83 1.5-.66-4.44-10.07-1.5.66-.36-.84 4.59-2.02.37.84-1.5.66zm-10.54-1.44c.41-.05.8-.01 1.17.12.37.13.75.36 1.14.7l3.19 2.8 1.44-.6.35.84-2.79 1.16-3.42-2.99a4.2 4.2 0 0 0-1.57-1 2.2 2.2 0 0 0-1.35.18l-1.77.74 1.95 4.66 1.67-.7.35.84-4.79 2-.35-.83 1.5-.63-4.24-10.15-1.5.63-.36-.85 6-2.51a4.23 4.23 0 0 1 3.01-.3c.86.3 1.5.94 1.93 1.95.34.82.38 1.56.11 2.22a3.64 3.64 0 0 1-1.67 1.72zm-3.97 1.1l2.34-.98c.8-.33 1.31-.76 1.54-1.3.22-.54.16-1.2-.17-2-.33-.79-.77-1.3-1.3-1.51-.54-.22-1.2-.16-2 .18l-2.35.97zm-11.68 7.44l4.3-1.92-4.62-4.62zm-1.43 5.72l-.37-.84 1.03-.45-.66-12.75 1.32-.59 9.03 9.04 1.15-.52.37.84-4.26 1.9-.37-.84 1.3-.58-2.12-2.14-4.94 2.19.16 3.01 1.3-.57.36.83zm-2.5-2.6a5.02 5.02 0 0 1-.39 3.3 5.81 5.81 0 0 1-2.53 2.41c-.73.4-1.49.64-2.25.73-.77.1-1.53.02-2.28-.2a6.26 6.26 0 0 1-2.3-1.24 7.81 7.81 0 0 1-1.73-2.22 6.74 6.74 0 0 1-.78-5.06 5.96 5.96 0 0 1 3.13-3.79c.62-.33 1.32-.6 2.1-.82.78-.21 1.66-.37 2.64-.48l1.4 2.6-.85.46a3.86 3.86 0 0 0-2.26-1.48c-.8-.15-1.7.05-2.72.6a3.6 3.6 0 0 0-2.04 2.77c-.16 1.19.21 2.6 1.1 4.27.9 1.65 1.9 2.74 2.98 3.26a3.6 3.6 0 0 0 3.42-.2 3.9 3.9 0 0 0 1.76-1.73c.32-.7.4-1.5.2-2.44zm-93.91-1.64c1.27.6 2.44.6 3.49.02 1.06-.57 1.98-1.72 2.77-3.44.8-1.72 1.07-3.17.83-4.34-.25-1.18-1-2.07-2.28-2.66-1.28-.59-2.45-.6-3.5-.01-1.06.57-1.99 1.72-2.78 3.44-.8 1.72-1.07 3.17-.82 4.34.24 1.18 1 2.06 2.29 2.65zm-.39.84a6.56 6.56 0 0 1-2-1.4 5.6 5.6 0 0 1-1.22-1.96 6.26 6.26 0 0 1-.39-2.58c.06-.87.3-1.77.74-2.71.44-.95.97-1.72 1.59-2.33a6.24 6.24 0 0 1 2.22-1.39c.74-.27 1.5-.39 2.28-.34.77.04 1.56.25 2.36.62a5.9 5.9 0 0 1 3.33 3.55c.53 1.6.38 3.3-.46 5.1-.43.94-.96 1.71-1.6 2.33a6.16 6.16 0 0 1-4.5 1.73 6.56 6.56 0 0 1-2.35-.62zm-8.45-5.12l1.49.68-.38.83-4.56-2.1.38-.82 1.49.68 4.59-10-1.49-.68.38-.84 4.56 2.1-.38.83-1.49-.68zm-11.9-4.62l.4-.82 1.47.72 4.77-9.8-3.39-1.65-.88 1.8-.95-.47 1.33-2.72 10.25 5-1.33 2.72-.95-.47.88-1.8-3.4-1.65-4.77 9.8 1.48.72-.4.82zm-7.98-9.5l4.11 2.29.92-6.48zm-5.43 2.3l.44-.8.98.55 9.8-8.2 1.26.7-1.8 12.65 1.1.62-.44.8-4.07-2.28.44-.8 1.25.7.43-2.99-4.72-2.62-2.3 1.94 1.22.68-.44.8zm-6.1-4.1l.51-.75 1.36.92 6.1-9.03-3.13-2.11-1.12 1.66-.88-.6 1.7-2.5 9.44 6.37-1.69 2.5-.88-.58 1.12-1.66-3.12-2.11-6.1 9.03 1.36.92-.5.76zm-10.27-9.17l1.94-2.19.73.66c-.62.75-.9 1.48-.8 2.18.1.7.55 1.42 1.37 2.15a3.83 3.83 0 0 0 2.14 1.1c.67.05 1.27-.22 1.78-.8.41-.46.6-.92.58-1.39a5.08 5.08 0 0 0-.89-2.08l-.93-1.5a5.74 5.74 0 0 1-1.02-2.77c0-.75.32-1.48.96-2.2a3.03 3.03 0 0 1 2.55-1.14 5.2 5.2 0 0 1 3.03 1.49c.45.4.9.88 1.34 1.45.45.56.9 1.2 1.33 1.92l-1.81 2.05-.73-.65c.53-.74.73-1.43.62-2.07-.11-.64-.55-1.3-1.33-1.99a3.3 3.3 0 0 0-1.92-.95c-.6-.04-1.13.2-1.6.73-.4.46-.59.94-.55 1.44.03.5.37 1.25 1 2.27l.88 1.41c.64 1.03.96 1.92.97 2.65.01.74-.28 1.44-.89 2.13-.82.93-1.74 1.36-2.75 1.3-1.02-.05-2.11-.6-3.3-1.64-.52-.47-1.01-1-1.47-1.6-.45-.59-.86-1.24-1.23-1.96z" aria-label="HAUD MALEFIDA" font-family="DejaVu Serif" font-size="14.67" font-weight="400" letter-spacing="0" text-anchor="middle" word-spacing="0"/>
  </g>
  <circle cx="900" cy="312.7" r="120.87" fill="none" stroke="#000" stroke-linejoin="round"/>
  <path d="M1030.93 311.38l1.89.12-.19 2.98 19.5 1.25.2-2.98 1.88.12-.76 11.97-1.89-.12.2-2.99-19.26-1.23-.59 9.17 3.68.23-.13 2.11-5.82-.37zm-.99-13l1.89-.11.19 2.98 19.5-1.23-.18-2.98 1.88-.12.76 11.98-1.89.11-.19-2.99-19.5 1.23.18 3-1.88.11zm6.72-2.55q-3.72-.18-5.91-2.17-2.2-1.99-3.01-5.94-1.19-5.78 1.3-9.8 2.51-4.01 7.98-5.14 5.48-1.12 9.35 1.58 3.89 2.7 5.08 8.5.42 2.03.38 4.33-.04 2.3-.53 4.98l-5.61 1.15-.4-1.94q2.75-1.2 3.85-3.06 1.12-1.87.58-4.46-.68-3.34-3.48-4.45-2.78-1.12-7.88-.08-5.1 1.05-7.2 3.18-2.13 2.12-1.43 5.49.46 2.28 2.03 3.46 1.57 1.2 4.28 1.32zm-21.37-45.92l1.74-.73 1.16 2.75 18.02-7.58-1.16-2.75 1.74-.73 2.83 6.72-9.76 19.39 13.48-5.68-1.15-2.73 1.74-.73 3.16 7.51-1.74.74-1.16-2.75-19.76 8.3-1.59-3.77 10-19.71-13.8 5.8 1.15 2.74-1.74.73zm4.44-31.41l-1.68-2.45 1.56-1.07 6.8 9.89-1.56 1.07-1.7-2.46-9.61 6.61q-3.6 2.47-4.27 4.58-.66 2.1 1.21 4.82 1.83 2.66 4.03 2.77 2.22.12 5.79-2.33l9.62-6.61-1.68-2.45 1.55-1.07 4.6 6.7-1.55 1.07-1.7-2.46-9.88 6.8q-4.4 3.02-7.6 2.41-3.17-.62-6.26-5.12-3.07-4.46-2.5-7.68.58-3.22 4.97-6.24zm-27.75-.5q2.14 2.08 4.94 1.29 2.8-.8 6.4-4.5 3.61-3.72 4.32-6.54.72-2.82-1.43-4.9-2.12-2.06-4.95-1.26-2.8.8-6.4 4.49-3.56 3.67-4.3 6.51-.7 2.84 1.42 4.91zm-1.31 1.36q-4.23-4.1-4.38-8.75-.16-4.64 3.78-8.7 3.94-4.05 8.59-4.03 4.66.02 8.87 4.12 4.23 4.1 4.38 8.74.16 4.64-3.8 8.7-3.94 4.07-8.59 4.03-4.64-.02-8.85-4.11zm-5.97-15.21q-2.75 2.5-5.71 2.65-2.96.14-6.33-2.07-4.93-3.26-6-7.86-1.07-4.61 2-9.27 3.08-4.67 7.73-5.5 4.66-.83 9.6 2.42 1.73 1.14 3.33 2.8 1.6 1.65 3.15 3.88l-3.16 4.8-1.66-1.1q1.11-2.79.57-4.89-.54-2.1-2.74-3.56-2.85-1.88-5.61-.69-2.76 1.18-5.62 5.52-2.87 4.35-2.86 7.35 0 3 2.88 4.89 1.94 1.28 3.88 1 1.95-.26 3.96-2.08zm-55.29-18.85l.5-1.82 3.03.85 2.09-7.48-3.52-13.22-1.91-.53.5-1.82 10.78 3-.5 1.83-2.5-.7 2.66 9.97 7.42-7.16-2.24-.63.5-1.82 6.45 1.8-.51 1.82-1.91-.53-9.18 8.83-2.3 8.26 3.02.84-.5 1.82zm-21.3-3.08l.21-1.88 3.08.34 2.07-19.19-6.35-.69-.4 3.67-2.12-.23.62-5.8 23 2.5-.63 5.79-2.1-.23.4-3.66-6.4-.7-2.08 19.19 3.09.33-.2 1.88zm-17.3.08l-.04-1.89 2.98-.07-.47-19.54-2.98.07-.05-1.89 12-.29.05 1.9-3 .06.47 19.54 3-.07.04 1.9zm-2.29-6.81q-.32 3.7-2.4 5.82-2.07 2.12-6.05 2.77-5.83.96-9.75-1.69-3.9-2.67-4.8-8.17-.92-5.52 1.93-9.28 2.86-3.78 8.7-4.74 2.04-.34 4.34-.21 2.3.13 4.95.72l.93 5.66-1.95.32q-1.08-2.8-2.9-3.97-1.83-1.19-4.44-.76-3.36.55-4.59 3.3-1.22 2.74-.38 7.87.85 5.14 2.89 7.34t5.43 1.64q2.3-.38 3.53-1.9 1.26-1.52 1.5-4.22zm-56.82 24.2l-2.53-4.91 1.76-.91q1.6 2.13 3.7 2.5 2.1.39 4.75-.98 2.15-1.1 2.85-2.5.7-1.4-.1-2.99-.65-1.25-1.77-1.55-1.12-.3-3.82.33l-3.5.84q-3.45.79-5.4.05-1.95-.75-3.26-3.3-1.59-3.1-.43-5.85 1.17-2.78 4.87-4.69 1.82-.93 3.93-1.64 2.13-.7 4.56-1.18l2.36 4.58-1.76.91q-1.5-1.93-3.38-2.22-1.87-.3-4.39 1-2.05 1.06-2.74 2.32-.68 1.25.05 2.66.67 1.3 1.74 1.6 1.07.3 4.26-.43l3.5-.84q3.27-.76 5.34.1 2.1.86 3.48 3.54 1.61 3.14.3 5.9-1.34 2.73-5.55 4.9-2.03 1.04-4.2 1.73-2.18.68-4.62 1.04zm-18.38 14.76l-1.13-1.51 2.39-1.79-11.7-15.65-2.4 1.78-1.13-1.51 16.8-12.56 3.29 4.4-1.73 1.3-2-2.7-7.87 5.88 4.48 6 4.9-3.66-1.78-2.38 1.71-1.28 4.83 6.46-1.71 1.28-1.78-2.38-4.9 3.66 5.66 7.56 8.1-6.05-2.02-2.7 1.72-1.28 3.3 4.4zm-9.13 9.32l-1.32-1.35 2.13-2.09-13.7-13.94-2.14 2.1-1.32-1.35 8.56-8.42 1.32 1.35-2.14 2.1 13.7 13.95 2.14-2.1 1.33 1.34zm-14.99.08q1-.99 2.16-1.31 1.15-.32 2.65-.06l7.24 1.23 1.45-1.9 1.5 1.14-4.65 6.1-7.86-1.3q-2.39-.47-3.32-.22-.94.23-1.76 1.3l-.58.75 6.8 5.18 1.82-2.39 1.5 1.15-7.26 9.55-1.5-1.15 1.8-2.37-15.55-11.84-1.8 2.37-1.51-1.14 8.06-10.6q2.46-3.23 5.1-3.99 2.64-.78 5.02 1.04 1.94 1.47 2.12 3.6.17 2.09-1.43 4.86zm-4.66 4.6l1.24-1.63q1.33-1.74 1.1-3.4-.23-1.66-1.99-3-1.75-1.33-3.4-1.1-1.64.23-2.97 1.97l-1.24 1.63zm-3.64 30.28l-1.68-.86 1.41-2.76-17.18-8.79-2.91 5.7 3.28 1.67-.97 1.9-5.2-2.65 10.54-20.58 5.2 2.65-.97 1.88-3.28-1.68-2.93 5.73 17.17 8.79 1.42-2.77 1.68.86zm-9.2 22.72l-5.27-1.68.6-1.89q2.64.36 4.39-.85 1.74-1.22 2.65-4.06.73-2.31.23-3.8-.5-1.48-2.19-2.02-1.34-.43-2.34.16-1 .58-2.46 2.94l-1.88 3.07q-1.87 3-3.77 3.86-1.9.85-4.65-.02-3.3-1.05-4.44-3.82-1.15-2.8.11-6.76.62-1.95 1.62-3.94 1-2.01 2.37-4.07l4.91 1.56-.6 1.9q-2.43-.3-3.95.82-1.53 1.12-2.39 3.82-.7 2.2-.28 3.58.4 1.36 1.92 1.84 1.38.44 2.36-.1.96-.55 2.7-3.33l1.87-3.07q1.76-2.86 3.84-3.72 2.08-.88 4.96.03 3.36 1.07 4.38 3.95 1 2.88-.43 7.4-.69 2.17-1.74 4.2-1.06 2.02-2.52 4zm-2.77 25.6l-1.87-.26.26-1.88-20.02-11.66.51-3.7 22.45-5.75.3-2.2 1.88.26-1.5 10.82-1.88-.26.31-2.26-4.98 1.24-1.21 8.69 4.45 2.59.38-2.76 1.88.26zm-7.52-7.98l1-7.17-9.33 2.33zm1.04 7.71q3.64.79 5.48 3.11 1.83 2.32 1.98 6.35.22 5.9-2.9 9.46-3.13 3.54-8.7 3.75-5.6.2-8.97-3.1-3.4-3.3-3.61-9.2-.08-2.08.34-4.35.41-2.27 1.33-4.82l5.73-.21.08 1.98q-2.92.72-4.3 2.38-1.42 1.66-1.32 4.3.13 3.4 2.7 4.97 2.57 1.56 7.76 1.37 5.2-.2 7.64-1.95 2.44-1.74 2.3-5.18-.08-2.32-1.43-3.74-1.35-1.44-4-2.01z"/>
  <path d="M1012.88 392.03l6.33 12.95-1.28 1.67-6.2-12.63-4.67 6.1 1.67 1.27-.87 1.14-4-3.08 6.92-9.03zm-11.66 19.6q.07-.86.45-1.65.39-.8 1.07-1.51 1.64-1.73 3.58-1.76 1.95-.03 3.72 1.65 1.87 1.77 1.84 3.85-.04 2.07-1.99 4.12-2.19 2.31-4.71 2.19-2.53-.14-5.23-2.7-3.08-2.92-3.39-5.73-.32-2.81 2.15-5.41.64-.69 1.5-1.36.85-.67 1.92-1.34l2 1.89-.87.91q-.95-.54-1.85-.38-.9.14-1.68.97-1.28 1.35-.93 2.82.36 1.48 2.42 3.45zm7.62 4.03q.74-.77.4-1.73-.35-.96-1.98-2.51-1.63-1.55-2.6-1.84-.99-.3-1.73.48-.73.78-.38 1.74.34.95 1.98 2.5 1.63 1.55 2.6 1.85.98.3 1.71-.49zm-20.52.64q-.82.7-.57 1.69.25.98 1.71 2.69 1.46 1.7 2.4 2.11.94.4 1.75-.3.82-.7.58-1.69-.25-1-1.71-2.7-1.47-1.71-2.4-2.1-.95-.4-1.76.3zm7.15 4.78q-.17.87-.63 1.63-.45.75-1.2 1.38-1.8 1.55-3.74 1.38-1.94-.18-3.53-2.04-1.68-1.96-1.43-4.01t2.4-3.89q2.42-2.07 4.92-1.67 2.5.4 4.92 3.22 2.76 3.22 2.78 6.05.02 2.82-2.7 5.15-.72.61-1.64 1.2-.91.57-2.05 1.13l-1.79-2.09.96-.82q.89.64 1.8.6.9-.07 1.78-.82 1.4-1.2 1.2-2.7-.2-1.52-2.05-3.7zm-13.79 18.42l-.71-1.04 2.4-1.65-7.14-10.37-1.58 3.42-.88-1.28 1.88-4.16 2.7-1.86 8.27 12 2.41-1.65.72 1.04zm-29.26 13.25l1.35-.53q2.27-.89 2.75-2.75.49-1.87-.76-5.04-1.23-3.15-2.84-4.19-1.62-1.04-3.9-.15l-1.35.53zm-5.12 3.36l-.46-1.17 1.85-.72-4.75-12.14-1.86.73-.46-1.18 7.43-2.9q3.9-1.53 6.7-.48 2.8 1.05 4.17 4.55 1.37 3.52.03 6.2-1.33 2.68-5.22 4.2zm-16.7 4.4l-.31-1.22 1.93-.5-3.24-12.62-1.92.5-.32-1.23 13.55-3.46.9 3.55-1.39.36-.55-2.17-6.34 1.62 1.24 4.83 3.94-1-.49-1.93 1.38-.35 1.34 5.2-1.38.36-.5-1.92-3.94 1.01 1.56 6.1 6.53-1.67-.56-2.17 1.39-.36.9 3.56zm-13.87 2.07l-.17-1.25 2.05-.28-1.76-12.74-4.22.58.33 2.43-1.41.2-.53-3.85 15.27-2.1.53 3.84-1.4.2-.33-2.44-4.25.59 1.76 12.74 2.05-.28.17 1.25zm-20.37 1.02l-.04-1.26 1.27-.03 5.46-14.45 2.5-.07 6.25 14.13 1.47-.04.04 1.26-7.28.2-.03-1.26 1.52-.04-1.37-3.15-5.84.17-1.22 3.2 1.86-.04.03 1.26zm4.42-5.82l4.82-.13-2.56-5.88zm-11.01-2.27q.9.22 1.5.75.59.53.98 1.48l1.88 4.51 1.59.14-.11 1.26-5.1-.45-2.06-4.9q-.59-1.51-1.06-1.95-.46-.45-1.35-.53l-.64-.05-.5 5.67 2 .18-.11 1.25-7.97-.7.1-1.25 1.99.17 1.14-12.98-1.98-.17.1-1.26 8.85.78q2.7.23 4.06 1.45 1.38 1.21 1.2 3.2-.13 1.62-1.27 2.47-1.11.85-3.24.93zm-4.26-.99l1.36.12q1.45.13 2.3-.6.86-.71.99-2.17.13-1.47-.6-2.31-.7-.85-2.16-.98l-1.36-.12zm-17.59 4.52q1.94.43 3.25-1 1.3-1.44 2.04-4.8.73-3.38.15-5.23-.6-1.84-2.54-2.27-1.93-.42-3.25 1.03-1.3 1.44-2.04 4.8-.72 3.33-.14 5.2.6 1.85 2.53 2.27zm-.27 1.24q-3.83-.84-5.56-3.41-1.72-2.57-.91-6.26.8-3.68 3.44-5.3 2.64-1.63 6.47-.8 3.84.84 5.56 3.4 1.72 2.58.91 6.28-.8 3.68-3.45 5.3-2.63 1.62-6.46.79zm-24.16-7.6l.42-1.2 1.88.66 4.3-12.3-1.87-.65.42-1.2 8.35 2.94q2.45.85 3.49 2.53 1.03 1.67.35 3.62-.7 1.97-2.56 2.64-1.85.66-4.3-.2l-2.69-.94-1.7 4.89 2.36.83-.42 1.19zm8.21-5.29l1.1.39q1.28.45 2.33-.13 1.07-.59 1.57-2.01t.03-2.52q-.46-1.11-1.75-1.56l-1.1-.39zm-12.53-5.04q.77.53 1.13 1.24.36.7.38 1.73l.13 4.89 1.43.7-.56 1.13-4.59-2.25-.15-5.31q0-1.63-.29-2.2-.27-.6-1.07-.99l-.57-.28-2.51 5.11 1.8.89-.56 1.13-7.19-3.53.56-1.13 1.79.88 5.74-11.7-1.78-.88.55-1.13 7.97 3.91q2.43 1.2 3.26 2.83.85 1.62-.03 3.42-.71 1.46-2.08 1.84-1.34.39-3.36-.3zm-3.61-2.46l1.22.6q1.31.64 2.36.28 1.06-.36 1.71-1.68.65-1.32.28-2.37-.36-1.05-1.66-1.69l-1.23-.6zm-18.04-2.13q1.66 1.1 3.4.23 1.73-.87 3.63-3.75t2.02-4.81q.12-1.94-1.54-3.03-1.65-1.1-3.4-.22-1.74.88-3.63 3.74-1.89 2.85-2.01 4.8-.12 1.94 1.53 3.04zm-.7 1.05q-3.27-2.17-3.94-5.19-.68-3.02 1.4-6.16 2.08-3.15 5.12-3.71 3.06-.56 6.32 1.6 3.28 2.16 3.96 5.18.67 3.02-1.41 6.17t-5.13 3.7q-3.04.57-6.31-1.6zm-6.3-10.12q-2.04 1.43-4 1.28-1.98-.15-4.02-1.9-2.99-2.56-3.32-5.7-.32-3.13 2.1-5.96 2.43-2.83 5.57-3 3.15-.15 6.14 2.4 1.06.9 1.98 2.14.92 1.23 1.76 2.83l-2.49 2.9-1-.86q.96-1.75.77-3.18-.17-1.44-1.51-2.59-1.73-1.47-3.65-.92-1.93.55-4.18 3.18-2.26 2.64-2.5 4.62-.25 1.99 1.5 3.48 1.17 1 2.48.99 1.31-.02 2.79-1.05zm-28.22-21.38l.94-.85 1.33 1.48 9.66-8.75-1.33-1.47.93-.85 3.27 3.6-1.86 14.35 7.22-6.54-1.33-1.47.94-.84 3.65 4.03-.94.84-1.33-1.47-10.6 9.6-1.83-2.03 1.94-14.61-7.4 6.7 1.33 1.46-.94.85zm-6.39-8.9l1.02-.74 1.17 1.6 10.52-7.7-1.18-1.6 1.02-.74 4.73 6.45-1.02.75-1.18-1.62-10.52 7.7 1.18 1.61-1.01.75z"/>
</svg>
