<?xml version="1.0" encoding="utf-8"?>
<!-- Generator: Adobe Illustrator 27.1.1, SVG Export Plug-In . SVG Version: 6.00 Build 0)  -->
<svg version="1.1" id="Layer_1" xmlns="http://www.w3.org/2000/svg" xmlns:xlink="http://www.w3.org/1999/xlink" x="0px" y="0px"
	 viewBox="0 0 1280 768" style="enable-background:new 0 0 1280 768;" xml:space="preserve">
<style type="text/css">
	.st0{fill:#FFFFFF;}
	.st1{fill:#000C2E;}
</style>
<rect class="st0" width="1280" height="768"/>
<g>
	<g>
		<g>
			<path class="st1" d="M320,510.1l50.8-26.5l5.4,10.2l-22.6,11.8l33.4,8.9l7.2,13.7l-29.8-8.7L344,555.7l-7-13.2l16.5-26.3
				l-12.8-3.9l-15.4,8L320,510.1z"/>
			<path class="st1" d="M431,578.9l9.3,0l0,7.2l-9.8,0c-0.6,2.9-1.9,5.8-3.8,8.8c-1.9,3-4.3,5.8-7.2,8.3c-6.8,6-13.8,8.9-21.1,8.6
				c-7.3-0.3-13.6-3.5-19.1-9.7c-4.8-5.3-7.4-10.7-7.8-16l-9.5,0l-0.1-7.3l10.1,0c1.3-6.2,5-12,11.1-17.4c6.8-6,13.8-8.8,21-8.6
				c7.3,0.3,13.7,3.5,19.3,9.8C428,567.8,430.5,573.2,431,578.9z M418.4,586.1l-36.2,0c0,3.6,1.3,6.7,3.8,9.6
				c3.1,3.5,6.9,5.2,11.4,5.2c4.5,0,9.2-2.2,14.2-6.6C414.8,591.4,417.1,588.7,418.4,586.1z M420.2,578.9c-0.1-3.4-1.5-6.7-4.1-9.7
				c-3.2-3.5-6.9-5.3-11.3-5.3c-4.4,0-9,2.2-14,6.5c-3.1,2.7-5.4,5.5-6.8,8.4L420.2,578.9z"/>
			<path class="st1" d="M458,598l19,12.8c3.8,2.5,6.4,4.6,8.1,6.1c1.6,1.6,2.8,3.3,3.6,5.3c0.8,2,1.1,4.1,0.9,6.4
				c-0.1,2.3-0.9,4.5-2.3,6.5c-1.5,2.2-3.5,3.8-5.9,4.9c-2.5,1-5,1.3-7.7,0.9c2.3,2.8,3.6,5.7,3.7,8.8c0.2,3.1-0.7,6-2.5,8.7
				c-1.5,2.1-3.4,3.9-5.8,5.3c-2.4,1.4-4.9,2-7.4,2.1c-2.6,0-5.2-0.7-8-2.1c-1.7-0.9-5.6-3.4-11.8-7.5l-16.2-10.9L458,598z
				 M449.4,631.1l-8.6,12.6l8.9,6c3.5,2.3,5.7,3.7,6.8,4.2c1.6,0.7,3.2,0.9,4.8,0.5c1.6-0.4,2.9-1.4,4.1-3.1c1-1.4,1.4-2.9,1.4-4.3
				c0-1.5-0.5-2.8-1.5-4.2c-1-1.3-3.7-3.5-8-6.4L449.4,631.1z M462.2,612.3l-7.4,10.9l6.3,4.2c3.7,2.5,6.1,4,7.1,4.5
				c1.8,0.9,3.4,1.2,5,0.9c1.6-0.3,2.9-1.2,3.9-2.7c1-1.5,1.4-2.9,1.2-4.4c-0.2-1.5-1-2.8-2.5-4.1c-0.9-0.7-3.6-2.6-8.1-5.7
				L462.2,612.3z"/>
			<path class="st1" d="M498.1,688.3l19.9-53.6l39.9,14.7l-3.4,9.1l-29-10.7l-4.4,11.9l27,10l-3.4,9l-27-10l-5.4,14.6l30,11.1
				l-3.4,9L498.1,688.3z"/>
			<path class="st1" d="M575,711.9l5.8-56.8l11.2,1.1l19.4,40.3l3.9-37.9l10.7,1.1l-5.8,56.8l-11.6-1.2l-19.2-39.4l-3.8,37
				L575,711.9z"/>
			<path class="st1" d="M660.2,715.3l-9.5-56.3l11.4-1.9l3.7,22.2l22.4-3.7l-3.7-22.2l11.4-1.9l9.5,56.3l-11.4,1.9l-4.1-24.6
				l-22.4,3.7l4.1,24.6L660.2,715.3z"/>
			<path class="st1" d="M790.1,674.9l-11.5,5.2l-10-9.7l-20.9,9.5l1.1,13.8l-11.2,5.1l-3.5-61.2l11.1-5.1L790.1,674.9z M761.3,663.1
				l-16-16l1.8,22.5L761.3,663.1z"/>
			<path class="st1" d="M823.8,651.9l-51-33.1l10-7.6l37.3,24.9L805.5,594l9.8-7.4l18.4,57.8L823.8,651.9z"/>
			<path class="st1" d="M872.7,609.4L828.5,573l27.1-32.7l7.5,6.2l-19.7,23.8l9.8,8.1l18.3-22.1l7.5,6.1l-18.3,22.1l12,9.9
				l20.4-24.6l7.5,6.1L872.7,609.4z"/>
			<path class="st1" d="M920.3,545.3l-51.7-24.8l4.9-10.1l44.7-4.5l-34.5-16.6l4.7-9.6l51.7,24.8l-5,10.4l-43.7,4.6l33.7,16.2
				L920.3,545.3z"/>
			<path class="st1" d="M933.5,466.6l1.2-11.2c3.8,0.1,6.8-0.7,9-2.4c2.1-1.7,3.6-4.2,4.3-7.7c0.7-3.6,0.5-6.5-0.6-8.7
				c-1.2-2.2-2.8-3.4-4.9-3.9c-1.3-0.3-2.5-0.1-3.6,0.5c-1.1,0.6-2.2,1.8-3.3,3.6c-0.7,1.2-2.2,4.1-4.3,8.6
				c-2.7,5.8-5.5,9.6-8.2,11.6c-3.8,2.8-7.9,3.8-12.4,2.9c-2.9-0.6-5.4-1.9-7.5-4c-2.2-2.1-3.6-4.8-4.3-8.1
				c-0.7-3.3-0.6-7.1,0.3-11.4c1.4-7,4-12,7.9-14.9c3.8-2.9,8.3-4,13.5-3.1l-1.8,11.4c-3-0.1-5.3,0.5-6.9,1.9
				c-1.6,1.3-2.7,3.6-3.4,6.8c-0.7,3.3-0.5,6,0.5,8.1c0.6,1.4,1.7,2.2,3.1,2.5c1.3,0.3,2.6-0.1,3.8-1c1.5-1.2,3.4-4.4,5.9-9.6
				c2.4-5.2,4.6-9,6.5-11.4c1.9-2.4,4.3-4,7-5c2.7-1,5.9-1.1,9.4-0.4c3.2,0.6,6.1,2.1,8.5,4.5c2.5,2.3,4,5.3,4.7,8.8
				c0.7,3.5,0.6,7.7-0.4,12.6c-1.4,7.1-4.2,12.2-8.2,15.3C945.2,465.8,939.9,467.1,933.5,466.6z"/>
			<path class="st1" d="M960,333.8l-55.9,12.8l-2.6-11.2l24.8-5.7l-30.1-17l-3.5-15.1l26.6,16l29-29.9l3.4,14.5l-22.7,21.3l11.4,7
				l16.9-3.9L960,333.8z"/>
			<path class="st1" d="M908,258.5c-5,2.9-9.7,4.6-14,5.1c-3.2,0.3-6.3,0.1-9.5-0.7c-3.1-0.8-5.9-2-8.2-3.8
				c-3.1-2.3-5.8-5.5-8.2-9.5c-4.3-7.3-5.4-14.4-3.4-21.4c2-7,7-12.8,15.1-17.5c8-4.6,15.5-6.1,22.6-4.4c7.1,1.7,12.7,6.2,16.9,13.4
				c4.3,7.3,5.5,14.5,3.5,21.4C920.8,248.2,915.9,253.9,908,258.5z M901.7,248.4c5.6-3.3,9.1-7,10.5-11.3c1.4-4.3,0.9-8.4-1.4-12.3
				c-2.3-4-5.7-6.4-10-7.3c-4.4-0.9-9.4,0.3-15.2,3.7c-5.7,3.3-9.2,7-10.5,11.1c-1.3,4.1-0.8,8.2,1.6,12.3c2.4,4.1,5.8,6.6,10.1,7.5
				C891,253,896,251.7,901.7,248.4z"/>
			<path class="st1" d="M874.6,159.6l-39,41.9l-12.7-11.7l18.9-35.6l-34.1,21.6L795,164l39-41.9l7.9,7.3l-30.7,33l39-25.3l8.2,7.5
				L836,185.3l30.7-33L874.6,159.6z"/>
			<path class="st1" d="M792.5,94l-24.8,51.5l-15.6-7.5l7.5-39.6l-26.2,30.7l-15.7-7.5l24.8-51.5l9.7,4.6l-19.5,40.5l29.8-35.6
				l10.1,4.8l-9.3,45.4l19.5-40.5L792.5,94z"/>
			<path class="st1" d="M686.2,112.7l-11.5-1.5l4-30.7c0.6-4.9,0.9-8,0.8-9.5c-0.2-2.4-1.1-4.4-2.8-6c-1.7-1.6-4.1-2.7-7.3-3.1
				c-3.3-0.4-5.8-0.1-7.6,1c-1.8,1.1-3,2.6-3.6,4.5c-0.6,1.9-1.2,5.1-1.8,9.6l-4.1,31.3l-11.5-1.5l3.9-29.7
				c0.9-6.8,1.8-11.6,2.8-14.3c1-2.7,2.4-4.9,4.4-6.7c1.9-1.7,4.4-3,7.3-3.7c2.9-0.8,6.7-0.9,11.2-0.3c5.4,0.7,9.5,1.9,12.1,3.5
				c2.6,1.6,4.6,3.5,6,5.7c1.4,2.2,2.2,4.4,2.4,6.7c0.3,3.3,0.1,8.2-0.8,14.5L686.2,112.7z"/>
			<path class="st1" d="M597.1,51.5l10,56.2l-11.1,2l-29.8-33.5l6.7,37.6l-10.6,1.9l-10-56.2l11.4-2L593,90l-6.5-36.7L597.1,51.5z"
				/>
			<path class="st1" d="M505.3,74.5l24,51.9l-38.6,17.7l-4.1-8.8l28.1-12.9l-5.3-11.5l-26.2,12l-4-8.7l26.2-12l-6.5-14.1l-29.1,13.3
				l-4-8.7L505.3,74.5z"/>
		</g>
		<g>
			<g>
				<path class="st1" d="M463,487.6c8.8-1.1,18.6-1.5,29.1-0.2c31.4,3.9,37.1,18.2,64.6,19.4c32.2,1.4,38.2-17.6,69.8-17.6
					c31.7,0.1,37.6,19.1,69.8,17.6c27.5-1.2,33.2-15.5,64.6-19.4c10.5-1.3,20.3-1,29.1,0.2c3.9-5.9,7.5-12.1,10.7-18.5
					c-11.3-2.5-24.9-3.9-39.8-2c-31.4,3.9-37.1,18.2-64.6,19.4c-32.2,1.4-38.2-17.6-69.8-17.6v0c-31.7,0.1-37.6,19.1-69.8,17.6
					c-27.5-1.2-33.2-15.5-64.6-19.4c-14.9-1.8-28.5-0.4-39.8,2C455.6,475.5,459.1,481.7,463,487.6z"/>
				<path class="st1" d="M498.8,529.2c25.7,4.9,32.5,17.2,57.9,18.3c32.2,1.4,38.2-17.6,69.8-17.6c31.7,0.1,37.6,19.1,69.8,17.6
					c25.4-1.1,32.2-13.4,57.9-18.3c7.7-6.8,14.9-14.3,21.5-22.2c-4.8,0-9.7,0.2-14.8,0.8c-31.4,3.9-37.1,18.2-64.6,19.4
					c-32.2,1.4-38.2-17.6-69.8-17.6v0c-31.7,0.1-37.6,19.1-69.8,17.6c-27.5-1.2-33.2-15.5-64.6-19.4c-5.1-0.6-10.1-0.9-14.8-0.8
					C483.9,515,491.1,522.4,498.8,529.2z"/>
				<path class="st1" d="M629.5,560.5c-19.8,0.5-29.4,8.5-42.5,13.6c12.8,2.7,26,4.1,39.5,4.1c1,0,2,0,3,0c1,0,2,0,3,0
					c13.5,0,26.7-1.4,39.5-4.1C658.9,569,649.3,560.9,629.5,560.5z"/>
			</g>
			<g>
				<path class="st1" d="M556.6,437.3c-0.4-4.4-1.3-11.9-7.3-42.5c-1.7-8.8-3.3-16.5-4.5-27.6c-0.4-3.4-0.6-6.3-0.7-8.2h5.3v-7.8
					c-1.3-0.4-2.4-1-3.1-1.5c-5.5-4.1-4.3-12.9-4.2-13.7c2.2-1.7,4.4-3.5,6.6-5.2c0,0,1.4-13.9,1.3-13.9c-0.1,0-9.7,0-9.7,0
					l-1.1,9.9h-9.3l-1.4-9.9h-4.6h-4.6l-1.4,9.9h-9.3l-1.1-9.9c0,0-9.7,0-9.7,0c-0.1,0,1.3,13.9,1.3,13.9c2.2,1.7,4.4,3.5,6.6,5.2
					c0.1,0.8,1.3,9.6-4.2,13.7c-0.7,0.6-1.8,1.1-3.1,1.5v7.8h5.3c-0.1,1.9-0.4,4.7-0.7,8.2c-1.2,11.1-2.7,18.8-4.5,27.6
					c-6,30.5-6.9,38-7.3,42.5c-0.6,6.2-0.8,11.2-0.9,14.4c11.2,0,22.4,0,33.6,0s22.4,0,33.6,0C557.4,448.5,557.1,443.5,556.6,437.3z
					"/>
				<path class="st1" d="M654.6,275.4l-1.7,10.8H640l-1.2-10.8h-9.1h-9.1l-1.2,10.8h-13l-1.7-10.8h-14.2l0.9,17.3
					c1.3,0.6,3.1,1.7,4.6,3.5c2.3,3,2.6,6.3,2.6,10.5c0,4.5-0.3,10.7-1.6,18.2h32.8h32.8c-1.2-7.5-1.6-13.7-1.6-18.2
					c0-4.2,0.2-7.6,2.6-10.5c1.5-1.9,3.3-2.9,4.6-3.5l0.9-17.3H654.6z"/>
				<path class="st1" d="M523.9,281.9c-11.5,0-20.9,11.4-20.9,25.4h41.8C544.8,293.3,535.5,281.9,523.9,281.9z"/>
				<path class="st1" d="M660.8,259.1c-3.6-13.7-29-49.9-29-49.9c-1-1.5-1.9-2.7-2.2-3.2c-0.4,0.5-1.2,1.7-2.2,3.2
					c0,0-25.4,36.2-29,49.9c-0.7,2.6-0.7,5.2-0.7,5.2c0,0.3,0,0.5,0,0.6h31.9h31.9c0-0.1,0-0.3,0-0.6
					C661.5,264.2,661.5,261.7,660.8,259.1z"/>
				<ellipse class="st1" cx="629.6" cy="188.2" rx="10.8" ry="10.8"/>
				<polygon class="st1" points="572.1,217.4 556.2,221.2 551.2,205.1 546.2,221.2 530.3,217.4 541.2,229.9 530.3,242.5 
					546.2,238.7 551.2,254.7 556.2,238.7 572.1,242.5 561.1,229.9 				"/>
				<path class="st1" d="M769.8,437.3c-0.4-4.4-1.3-11.9-7.3-42.5c-1.7-8.8-3.3-16.5-4.5-27.6c-0.4-3.4-0.6-6.3-0.7-8.2h5.3v-7.8
					c-1.3-0.4-2.4-1-3.1-1.5c-5.5-4.1-4.3-12.9-4.2-13.7c2.2-1.7,4.4-3.5,6.6-5.2c0,0,1.4-13.9,1.3-13.9c-0.1,0-9.7,0-9.7,0
					l-1.1,9.9h-9.3l-1.4-9.9h-4.6h-4.6l-1.4,9.9h-9.3l-1.1-9.9c0,0-9.7,0-9.7,0c-0.1,0,1.3,13.9,1.3,13.9c2.2,1.7,4.4,3.5,6.6,5.2
					c0.1,0.8,1.3,9.6-4.2,13.7c-0.7,0.6-1.8,1.1-3.1,1.5v7.8h5.3c-0.1,1.9-0.4,4.7-0.7,8.2c-1.2,11.1-2.7,18.8-4.5,27.6
					c-6,30.5-6.9,38-7.3,42.5c-0.6,6.2-0.8,11.2-0.9,14.4c11.2,0,22.4,0,33.6,0s22.4,0,33.6,0C770.6,448.5,770.4,443.5,769.8,437.3z
					"/>
				<path class="st1" d="M737.2,281.9c-11.5,0-20.9,11.4-20.9,25.4h41.8C758.1,293.3,748.8,281.9,737.2,281.9z"/>
				<path class="st1" d="M667.6,358.9c0.1-3.6,0.5-5.1,1.4-6.4c0.5-0.8,1.2-1.6,1.2-1.6c1-1.1,2.1-1.7,2.8-2.1v-13.4h-43.3h-43.3
					v13.4c0.7,0.4,1.8,1,2.8,2.1c0,0,0.7,0.7,1.2,1.6c0.8,1.3,1.3,2.9,1.4,6.4c0,0.8-4.9,42.3-7.7,92.8h30.7
					c0.2-9.2,0.5-18.4,1.1-27.7c0.1-2,0.6-9.1,4.5-13.8c0.8-1,2.6-3.1,5.5-4c1.6-0.5,2.9-0.6,3.9-0.5c0.9,0,2.3,0,3.9,0.5
					c3,1,4.7,3,5.5,4c3.9,4.7,4.4,11.8,4.5,13.8c0.6,9.3,0.9,18.4,1.1,27.7h30.7C672.5,401.2,667.5,359.7,667.6,358.9z"/>
				<path class="st1" d="M701.6,209.2c-5.6,0-10.7,2.3-14.5,5.9c1.7-0.7,3.6-1,5.6-1c8.7,0,15.8,7.1,15.8,15.9
					c0,8.8-7.1,15.9-15.8,15.9c-1.9,0-3.7-0.3-5.4-1c3.7,3.6,8.7,5.7,14.3,5.7c11.4,0,20.7-9.3,20.7-20.7
					C722.2,218.5,713,209.2,701.6,209.2z"/>
			</g>
		</g>
	</g>
</g>
</svg>
