<svg xmlns="http://www.w3.org/2000/svg" version="1.0" width="312.5" height="312.5">
  <path style="fill:#003d8f;fill-opacity:1;fill-rule:nonzero;stroke:none" d="M0 0h312.5v312.5H0z"/>
  <path style="fill:#ffcd50;fill-rule:evenodd;stroke:#000;stroke-width:7.59000015" d="M390.16 617.4H234.21l-29.01-35.66s17.95-10.25 17.52-33.85c-.42-23.54-.6-46.55-.6-46.55s-5.44 10.28-19.95 10.28c-14.5 0-19.94-9.07-21.76-15.72-1.81-6.65-21.06.62-17.53-42.31 10.28 9.67 23.15 14.78 31.43 6.04 10.52-11.1 1.02-34.33-22.36-61.05-21.2-24.22-41.11-55.01-31.43-98.53 7.79-35.07 35.87-60.65 44.73-69.51-5.05-13.7-3.8-18.17-15.29-41.71-18.65-8.29-36.76-52.63-49.11-79.07 11.34 17.77 27.37 21.17 36.31 28.39 2.01-8.49 24.32-20.86 36.6-1.75 8.13 12.65-.32 36.25-22.25 31.93 14.94 9.33 19.57 11.04 29.98 7.88 12.93-3.93 14.93-13.54 15.54-26.24-10.27-.27-10.99-7.27-9.81-15.89 1.55-11.27 3.99-20.38 18.55-9.2 11.59 8.89 8.61 17.89 3.62 21.04 8.53 9.32 13.24 16.87 32.58 16.27 19.35-.61 33.9-7.82 36.31-30.79-11.45 7.39-24.01 14.61-41.47 3.22-14.39-9.4-10.01-31.97.42-40.642 10.08-8.379 23.35-6.097 35.25 3.017-3.02-7.858 6.33-40.731 18.48-46.149 13.32 8.007 18.74 34.207 17.49 46.149 6.42-4.74 19.42-11.887 32.45-4.554 21.23 11.949 14.12 34.609 5.45 42.179-6.8 5.94-25.53 9.24-40.86-2.88 2.23 23.07 16.65 27.55 32.7 30.76 9.83 1.96 25.65 1.88 36.32-12.89-6.35-3.31-7.56-10.33-.14-19.5 13.19-16.32 19.39-10.96 22.37 5.82 2.34 13.2-3.78 15.55-10.11 16.15 1.49 9.7 3.13 21.05 15.1 25.05 9.02 3.01 17.56 1.62 33.44-8.8-18.21 6.42-33.46-16.71-25.79-30.48 9.73-17.48 30.06-15.17 38.15.3 7.33-6.52 25.61-17.38 34.57-28.39-11.18 31.63-36.51 82.1-48.23 79.07-14.43 31.62-15.95 42.31-15.95 42.31s48.75 34.41 47.75 96.11c-.63 39.87-37.25 74.28-50.77 93.09-15.62 21.72-11.15 36.19-2.42 41.71 7.35 4.65 17.94-.42 27.2-8.46 1.4 10.09 4.23 20.55-1.21 29.01s-8.57 7.72-16.93 10.88c.71 6.19-1.59 11.32-7.85 15.11-9.78 5.93-20.93 4.41-32.65-6.64-.23 21.58-.97 31.71-.6 44.73.6 21.76 18.74 35.06 18.74 35.06l-29.02 35.66z" transform="translate(25.844354 16.362286) scale(.41867)"/>
  <path style="fill:#ffcd50;fill-rule:evenodd;stroke:#000;stroke-width:7.59000015" d="M222.12 504.97c.95-10.91 0-37.65-.65-59.76M401.04 502.25v-52.59M182.64 230.54c51.99-16.32 194.64-15.12 253.88.6" transform="translate(25.844354 16.362286) scale(.41867)"/>
  <path style="fill:#ffcd50;fill-rule:evenodd" d="M418.39 226.91c-1.82 68.91-13.55 214.67-17.98 219.45-28.58 30.81-57.88 50.45-57.88 50.45s-11.19 16.62-33.55 16.62c-25.39 0-34.33-15.94-34.33-15.94s-29.87-25.48-53.93-48.74c-12.98-12.56-17.52-145.07-20.55-223.05" transform="translate(25.844354 16.362286) scale(.41867)"/>
  <path style="fill-rule:evenodd" d="M270.2 428.13c22.5-1.23 53.57-.98 76.53 0-8.01-2.32-12.79-4.25-17.53-8.19-3.03-2.51-6.84-3.49-11.13-3.45-4.03.04-8.48 2.64-8.48 2.64s-3.49-2.64-8.62-2.64c-5.13 0-7.41 1.43-12.53 4.53-5.13 3.1-11.54 4.27-18.24 7.11zM279.16 438.88c10.79 1.14 44.57 1.81 60.24 0 .73 1.82-10.31 4.13-15.2 6.72-4.08 2.16-9.22 5.17-14.11 5.17-4.88 0-9.76-2.59-16.28-5.17-5.86-2.33-15.48-5.05-14.65-6.72zM342.63 296.57c2.73-2.6 3.47-4.93 7.97-7.81 4.88-3.12 8.58-4.23 15.8-4.32 5.98-.06 10.77 1.47 15.34 5.67 4.26 3.91 5.12 7.28 13.3 12.08-6.07 2.71-9.15 3.65-13.28 6.11-2.86 1.7-8.15 4.59-16.42 4.78-7.88.17-21.08-4.24-21.08-4.24s7.42 3.36 12.21-1.88c2.12-2.31 2.85-7.39.35-10.41-3.38-4.09-9.61-4.27-14.19.02zM233.12 263.27c15.34 4.73 25.08 1.29 34.1 4.08 10.54 3.25 16.74 6.86 22.88 15.74 5.25 7.58 7.07 25.87 3.21 36.87-.95-9.69-4.52-20.66-10.93-29.15-7.26-9.61-14.28-15.45-25.51-19.24-10.12-3.42-13.83.72-23.75-8.3z" transform="translate(25.844354 16.362286) scale(.41867)"/>
  <path style="fill-rule:evenodd" d="M399.61 262.91c-1.84 3.18-4.52 8.46-11.37 12.1-6.85 3.64-26.4.98-36.14 1.75-6.83.54-16.84 2.98-22.09 8.98-5.34 6.09-8.25 8.97-9.19 33.65-1.29 33.78 3.06 28.68 4.34 53.41.28 5.32-1.24 7.44 3.24 11.79 3.11 3.01 10.9 1.24 10.9 1.24s-7.13 8.43-15.68 7.12c-4.79-.73-7.49 7.29-13.32 7.14-5.83-.14-10.83-8.94-14.84-8.16-5.47 1.08-10.65-2.59-13.55-6.07 4.44 2.1 7.13 2.04 12.29-2.05 5.24-4.15 11.71 4.31 19.38-4.76 5.68-6.73 1.49-12.15.71-16.51-.95-5.31-2.13-29.39-1.98-52.51.08-11.43 1.35-22.3 9.77-31.17 6.78-7.15 19.53-13.62 36-13.91 17.77-.31 34.84.94 41.53-2.04zM423.69 279.09c-9.93.45-6.77 31.39-10.5 59.38-2.36 7.95-5.86 19.08-7.41 20.69-3.77 3.91-10.94 6.62-10.94 6.62l-14.5 35.38 18.88-28.22s1.96-.79 4.34-1.97c-4.66 68.85-6.62 71.36-8.87 75.03-5.61 9.13.53.01 2.44 6.67 1.47 3.7 1.89 6.56 2.25 6.67 4.87 1.6 7.58 15.82 21.62 22.22-11.41-8.26-12.68-19.34-14-22.31-1.15-2.57-1.29-8.41-.91-14.94.01-.02 0-.04 0-.06 6.36-35 32.3-79.64 32.94-109.09-1.83 16-2.85 22.59-25.09 53.5 8.88-34.45 21.91-86.61 9.75-109.57z" transform="translate(25.844354 16.362286) scale(.41867)"/>
  <path style="fill-rule:evenodd;stroke:#000;stroke-width:1.64999998px" d="M221.01 451s-4.87-.54-.3 8c8.74 16.3 39.85 41.03 55.67 46.66 7.06 6.73 22.07 31.95 43.06 29.06 17.24-2.37 18.82-9.81 27.46-16.2 18.16-7.68 32.85-20.46 53.13-41.92-1.31-13.05-3.74-30.59-3.74-30.59s-18.84 21.16-30.72 30.6c-6.2 4.93-25.01 17.96-25.01 17.96s-13.07 20.02-31 20.02c-17.94 0-30-20.02-30-20.02s-19.46-11.35-30.87-20.81c-11.41-9.45-27.03-22.1-27.68-22.76z" transform="translate(25.844354 16.362286) scale(.41867)"/>
  <path style="fill-rule:evenodd" d="M206.72 341.65s1.11 13.25 6.07 18.96c3.1 3.55 11.6 7.17 11.6 7.17l10.3 24.84-11.22-20.98s-9.74-4.44-13.25-7.54c-4.79-4.23-1.66-18.03-3.5-22.45z" transform="translate(25.844354 16.362286) scale(.41867)"/>
  <g style="fill-rule:evenodd">
    <path d="m153.98310447 94.99663406 2.03854076-2.03854075 2.03854075 2.03854075-2.03854075 2.0341849-2.03854076-2.0341849z"/>
    <path d="m155.4161812 93.54177806.61417574-5.80635646.59675231 5.81506817-1.21092805-.00871171zM155.4161812 96.37308466l.61417574 5.80635646.59675231-5.81506818-1.21092805.00871172z"/>
  </g>
  <g style="fill-rule:evenodd">
    <path d="m172.08181484 95.75209793 2.11039128-1.70895315 1.70895315 2.11039128-2.10996239 1.70487265-1.70938204-2.10631078z"/>
    <path d="m173.5675463 94.53031599 1.1470562-5.37882837-.01353603 5.50621992-1.13352016-.12739155zM173.28876983 97.18263851l.00364374 5.49977447 1.13159197-5.3887049-1.13523571-.11106957z"/>
  </g>
  <g style="fill-rule:evenodd">
    <path d="m187.672984 97.35130766 2.20626383-1.48815042 1.48815042 2.20626382-2.20549661 1.4842034-1.48891764-2.2023168z"/>
    <path d="m189.22780469 96.28541551 1.57922818-5.15320535-.48349 5.37438522-1.09573818-.22117987zM188.72911482 98.85098097l-.46616747 5.36956003 1.56497451-5.16416826-1.09880704-.20539177z"/>
  </g>
  <g style="fill-rule:evenodd">
    <path d="m201.0010333 100.30721687 2.28103383-1.26438903 1.26438904 2.28103384-2.27994768 1.26060118-1.2654752-2.27724599z"/>
    <path d="m202.61001138 99.39942297 1.98193606-4.8960489-.93108748 5.20557678-1.05084858-.30952788zM201.90400805 101.86152218l-.91376378 5.20234572 1.96895699-4.90796922-1.05519321-.2943765z"/>
  </g>
  <g style="fill-rule:evenodd">
    <path d="m139.90405735 95.75209793-2.11039128-1.70895315-1.70895315 2.11039128 2.1099624 1.70487265 1.70938203-2.10631078z"/>
    <path d="m138.41832589 94.53031599-1.14705619-5.37882837.01353602 5.50621992 1.13352017-.12739155zM138.69710237 97.18263851l-.00364374 5.49977447-1.13159198-5.3887049 1.13523572-.11106957z"/>
  </g>
  <g style="fill-rule:evenodd">
    <path d="m124.31205086 97.35130766-2.20626383-1.48815042-1.48815043 2.20626382 2.20549662 1.4842034 1.48891764-2.2023168z"/>
    <path d="m122.75723017 96.28541551-1.57922819-5.15320535.48349 5.37438522 1.09573819-.22117987zM123.25592003 98.85098097l.46616748 5.36956003-1.56497452-5.16416826 1.09880704-.20539177z"/>
  </g>
  <g style="fill-rule:evenodd">
    <path d="m110.98400155 100.30721687-2.28103383-1.26438903-1.26438903 2.28103384 2.27994767 1.26060118 1.2654752-2.27724599z"/>
    <path d="m109.37502347 99.39942297-1.98193606-4.8960489.93108748 5.20557678 1.05084858-.30952788zM110.0810268 101.86152218l.91376379 5.20234572-1.968957-4.90796922 1.05519322-.2943765z"/>
  </g>
  <path style="fill-rule:evenodd;stroke:#000;stroke-width:1.64999998px" d="M305.81 217.53c-22.16 0-79.82 5.86-105.59 9.13-.15.59-4.62 10.09.28 9.15 21.04-4.02 85.45-7.38 105.66-6.87 39.75 1.01 93.63 5.23 121.31 8.03 0 0 .71 14.1 1.17 11.2 1.01-6.38 14.06-10.06 14.06-10.06-.81-2.76-2.01-5.58-2.54-7.73-32.6-7.45-112.17-12.85-134.35-12.85z" transform="translate(25.844354 16.362286) scale(.41867)"/>
  <path style="fill-rule:evenodd" d="M226.2 296.22c2.74-2.6 3.47-4.93 7.98-7.81 4.88-3.12 8.23-3.88 15.44-3.96 5.98-.07 11.13 1.12 15.69 5.31 4.27 3.91 5.13 7.28 13.3 12.09-6.06 2.7-9.14 3.64-13.28 6.1-2.86 1.7-8.15 4.59-16.42 4.78-7.87.17-21.07-4.23-21.07-4.23s7.41 3.35 12.2-1.89c2.12-2.31 2.85-7.38.35-10.41-3.38-4.09-9.61-4.27-14.19.02zM193.29 233.19s18.6-6.4 41.71-8.62c-4.18 21.88-27.27 68.44-34.6 68.14-7.83-.31-21.86 52.83-23.09 72.74-1.97-19.67-32.45-98.58 15.98-132.26z" transform="translate(25.844354 16.362286) scale(.41867)"/>
  <path style="fill:#ffcd50;fill-rule:evenodd" d="M189.29 233.19s7.37-4.42 30.48-6.64c-.25 19.67-24.34 60.23-29.5 73.51-5.22 13.42-16.22 73.99-13.03 88.25 2.46-20.4-36.38-121.44 12.05-155.12z" transform="translate(25.844354 16.362286) scale(.41867)"/>
  <path style="fill-rule:evenodd" d="M432.33 234.84s-12.68-5.98-35.79-8.2c4.18 21.88 19.87 58.08 26.78 60.54 7.39 2.61 23.76 60 24.99 79.91 1.97-19.66 32.45-98.57-15.98-132.25z" transform="translate(25.844354 16.362286) scale(.41867)"/>
  <path style="fill:#ffcd50;fill-rule:evenodd" d="M440.14 237.8s-11.18-6.12-34.29-8.33c.25 19.67 24.34 58.96 29.5 72.23 5.22 13.43 16.23 74 13.03 88.26-2.46-20.41 43.78-114.26-8.24-152.16z" transform="translate(25.844354 16.362286) scale(.41867)"/>
  <path style="fill-rule:evenodd" d="M300.79 478.88c7.41-3.71 10.66-3.34 19.16.08-4.37-3.16-3.75-7.32-10.34-8.42-1.88 4.37-6.68 4.18-8.82 8.34zM209.99 274.34s-11.85 5.13-10.4 14.71c1.87 12.35 1.45 69.27 8.28 76.55 1.53 1.27 3.84 40.31 5.89 54.33 1.12 7.66.12 23.53 4.17 32.98 2.91 6.81 3.99 10.23 9.46 16.9 4.36-2.08 9.65-.17 10.93-5.48-17.7-18.32-16.49-24.9-16.56-30.3-.04-3.69-.84-9.58-1.61-18.97-1.72-21.11-3.97-47.59-3.97-47.59s-4.71-7.7-5.22-12.62c-2.34-22.24-5.29-80.29-.97-80.51z" transform="translate(25.844354 16.362286) scale(.41867)"/>
</svg>
