<svg xmlns="http://www.w3.org/2000/svg" xmlns:xlink="http://www.w3.org/1999/xlink" viewBox="0 0 2000 1000" xmlns:v="https://vecta.io/nano"><path d="M0 0h2000v1000H0z" fill="#fff"/><path d="M1499.89 653.21v84.24h-10.11v-71.38l-10.26 7.36v-12.22l10.26-8h10.11zm23.74 84.24l18.14-41.83-.05 2.09c-.86 1.82-2.13 3.13-3.82 3.94-1.68.81-3.63 1.22-5.85 1.22-5.19 0-9.37-2.25-12.54-6.75s-4.76-10.48-4.76-17.93v-.06c0-8.19 1.76-14.53 5.28-19.03s8.47-6.75 14.84-6.75 11.32 2.27 14.82 6.81 5.25 10.96 5.25 19.26v.06c0 3.44-.43 7.16-1.29 11.15a62.84 62.84 0 0 1-3.77 11.73l-15.36 36.09h-10.9zm11.25-45.37c3.17 0 5.63-1.25 7.36-3.77 1.73-2.51 2.6-6.04 2.6-10.6v-.06c0-4.44-.87-7.88-2.6-10.31s-4.19-3.65-7.36-3.65-5.67 1.22-7.41 3.65c-1.73 2.43-2.6 5.89-2.6 10.37v.06c0 4.56.87 8.08 2.6 10.57s4.2 3.74 7.41 3.74zm54.02 46.24c-6.87 0-12.02-2.15-15.44-6.46s-5.13-10.13-5.13-17.47v-38.3c0-7.45 1.73-13.31 5.2-17.55 3.47-4.25 8.59-6.37 15.36-6.37s11.94 2.12 15.39 6.34c3.45 4.23 5.18 10.09 5.18 17.58v38.3c0 7.45-1.73 13.31-5.18 17.55-3.45 4.25-8.58 6.37-15.39 6.37zm0-11.24c3.7 0 6.37-1.13 8-3.39 1.64-2.26 2.45-5.36 2.45-9.3v-38.3c0-3.98-.82-7.09-2.45-9.33-1.64-2.24-4.3-3.36-8-3.36s-6.37 1.12-8 3.36c-1.64 2.24-2.45 5.35-2.45 9.33v38.3c0 3.94.82 7.04 2.45 9.3 1.64 2.26 4.3 3.39 8 3.39zm56.55 11.24c-4.39 0-8.23-.96-11.5-2.9-3.27-1.93-5.82-4.65-7.63-8.17-1.82-3.51-2.73-7.63-2.73-12.34v-1.39c0-4.21.9-8.17 2.7-11.88s4.21-6.51 7.21-8.4c-2.51-1.62-4.54-3.97-6.1-7.04-1.55-3.07-2.33-6.31-2.33-9.71v-2.03c0-6.68 1.86-12.04 5.58-16.08s8.65-6.05 14.79-6.05 11.08 2.02 14.79 6.05c3.72 4.04 5.58 9.4 5.58 16.08v2.03c0 3.48-.79 6.74-2.35 9.79s-3.64 5.37-6.22 6.95c3.04 1.89 5.48 4.69 7.31 8.4s2.75 7.67 2.75 11.88v1.39c0 4.71-.91 8.83-2.73 12.34-1.82 3.52-4.36 6.24-7.63 8.17s-7.1 2.9-11.5 2.9zm0-11.36c3.54 0 6.38-1.19 8.55-3.56s3.25-5.49 3.25-9.36v-.81c0-3.9-1.08-7.04-3.25-9.42-2.16-2.38-5.01-3.56-8.55-3.56s-6.39 1.19-8.55 3.56c-2.16 2.38-3.25 5.53-3.25 9.47v.87c0 3.86 1.08 6.96 3.25 9.3 2.16 2.34 5.01 3.51 8.55 3.51zm0-38.07c3.07 0 5.55-1.14 7.43-3.42s2.82-5.29 2.82-9.04v-.81c0-3.59-.94-6.48-2.82-8.66s-4.36-3.27-7.43-3.27-5.55 1.09-7.43 3.27-2.83 5.09-2.83 8.72v.87c0 3.71.94 6.69 2.83 8.95 1.88 2.26 4.36 3.39 7.43 3.39z" fill="#bf311a"/><g fill="#231f20"><path d="M951.43 787.79c-.49-8.13-1.07-17.9-.97-25.16h-.29c-2.23 6.83-4.95 14.09-8.25 22.14l-11.54 28.28h-6.4l-10.57-27.76c-3.1-8.21-5.72-15.74-7.57-22.66h-.19c-.19 7.26-.68 17.04-1.26 25.77l-1.75 24.99h-8.05l4.56-58.28h10.77l11.15 28.19c2.72 7.18 4.95 13.58 6.6 19.63h.29c1.65-5.88 3.98-12.28 6.89-19.63l11.64-28.19h10.77l4.07 58.28h-8.25l-1.65-25.6zm51.9-32.69v34.5c0 13.06 6.5 18.59 15.23 18.59 9.7 0 15.91-5.71 15.91-18.59v-34.5h8.54v33.98c0 17.9-10.57 25.25-24.74 25.25-13.39 0-23.47-6.83-23.47-24.9V755.1h8.54zm74.88 58.28V755.1h9.21l20.95 29.49c4.85 6.83 8.63 12.97 11.74 18.94l.19-.09c-.78-7.78-.97-14.87-.97-23.95V755.1h7.95v58.28h-8.54l-20.76-29.57c-4.56-6.49-8.92-13.14-12.22-19.46l-.29.09c.48 7.35.68 14.35.68 24.04v24.9h-7.95zm92.82-58.28v58.28h-8.44V755.1h8.44zm81 56.38c-3.1 1.38-9.31 2.77-17.27 2.77-18.43 0-32.3-10.38-32.3-29.49s13.87-30.61 34.14-30.61c8.15 0 13.29 1.56 15.52 2.59l-2.04 6.14c-3.2-1.38-7.76-2.42-13.19-2.42-15.33 0-25.51 8.73-25.51 24.04 0 14.27 9.21 23.43 25.12 23.43 5.14 0 10.38-.95 13.77-2.42l1.75 5.97zm39.57-56.38v58.28h-8.44V755.1h8.44zm35.31.69c4.07-.61 9.41-1.12 16.2-1.12 8.34 0 14.45 1.73 18.33 4.84 3.59 2.77 5.72 7 5.72 12.19s-1.75 9.43-5.04 12.45c-4.46 4.24-11.74 6.4-19.98 6.4-2.52 0-4.85-.09-6.79-.52v23.35h-8.44v-57.59zm8.44 28.1c1.84.43 4.17.6 6.98.6 10.19 0 16.39-4.41 16.39-12.45s-6.11-11.42-15.42-11.42c-3.69 0-6.5.26-7.95.61v22.66zm74.3 11.16l-6.79 18.33h-8.73l22.21-58.28h10.19l22.31 58.28h-9.02l-6.98-18.33h-23.18zm21.44-5.88l-6.4-16.78c-1.46-3.8-2.43-7.26-3.4-10.64h-.19c-.97 3.46-2.04 7-3.3 10.55l-6.4 16.86h19.69zM1479 755.1h8.44v51.97h27.94v6.31H1479V755.1zm74.79 0v58.28h-8.44V755.1h8.44zm47.72 6.4h-19.88v-6.4h48.4v6.4h-19.98v51.88h-8.54V761.5zm70.91 51.88v-24.73l-20.66-33.55h9.6l9.21 16.08c2.52 4.41 4.46 7.96 6.5 12.02h.19c1.84-3.8 4.07-7.61 6.6-12.02l9.41-16.08h9.6l-21.92 33.46v24.82h-8.54zM900.87 660.65c5.21-.96 12.67-1.5 19.77-1.5 11.01 0 18.11 1.82 23.09 5.88 4.03 3.21 6.27 8.13 6.27 13.7 0 9.52-6.63 15.83-15.04 18.4v.32c6.16 1.93 9.83 7.06 11.72 14.55 2.6 10.06 4.5 17.01 6.16 19.79h-10.66c-1.3-2.03-3.08-8.24-5.33-17.23-2.37-9.95-6.63-13.7-15.98-14.02h-9.71v31.24h-10.3v-71.15zm10.3 32.85h10.54c11.01 0 18-5.46 18-13.7 0-9.31-7.46-13.38-18.35-13.48-4.97 0-8.52.43-10.18.86v26.32z"/><use xlink:href="#B"/><path d="M1104.38 700.13c-.59-10.06-1.3-22.15-1.18-31.13h-.36c-2.72 8.45-6.04 17.44-10.06 27.39l-14.09 34.99h-7.81l-12.91-34.35c-3.79-10.16-6.99-19.47-9.23-28.03h-.24c-.24 8.99-.83 21.08-1.54 31.88l-2.13 30.92H1035l5.56-72.11h13.14l13.62 34.88c3.31 8.88 6.04 16.8 8.05 24.29h.35c2.01-7.28 4.85-15.19 8.41-24.29l14.21-34.88h13.14l4.97 72.11h-10.06l-2.01-31.67z"/><use xlink:href="#B" x="165.98"/><path d="M1203.59 659.69h10.3v64.3h34.1v7.81h-44.4v-72.11zm55.88 0h10.3v64.3h34.1v7.81h-44.4v-72.11z"/><use xlink:href="#B" x="350.2"/><path d="M1398.11 659.69v30.17h38.6v-30.17h10.42v72.11h-10.42v-33.81h-38.6v33.81h-10.3v-72.11h10.3zM386 205c-4.77.42-9.16 4.19-10 9-1.09 6.25 4.33 11.3 9 13 5.19 1.89 12.67.81 15-4 2.43-4.99-2.19-10.95-3-12-1.24-1.6-5.05-6.52-11-6zm723 1c-6.48-1.98-9.73-2.98-10-4-.31-1.19.78-2.1 8-9 4.47-4.28 4.88-4.71 6-5 6.2-1.58 15.1 6.41 14 11-.33 1.37-2.22 2.58-6 5-4.34 2.78-6.35 2.96-7 3-1.25.07-2.13-.13-5-1zm-740 44c-1.44 4.95-2.2 6.26-3 10-.84 3.93-1.27 5.9-1 8 .95 7.5 9.89 13.09 17 15 4.07 1.1 7.72.73 15 0 11.62-1.17 17.43-1.75 20-6 3.31-5.47-.72-13.47-1-14-3.33-6.41-8.35-6.28-9-11-.4-2.87 1.74-5.91 6-12 3.4-4.85 5.15-7.3 7-7 1.18.19 2.05 1.44 5 10 3.16 9.16 3.21 10.7 5 12 3.31 2.39 7.54.31 14-1 4.87-.99 6.81-.69 23 0 105.25 4.47 122.37-4.02 143 1 1.69.41 10.37 2.61 13-1 1.83-2.51-1.15-5.26 0-11 .95-4.78 4.03-7.94 8-12 3.02-3.1 5.55-5.68 7-5 1.67.78 1.13 5.53 0 15-.98 8.2-1.82 11.12 0 13 2.16 2.23 6.42 1.32 8 1 4.35-.87 17.56-.91 44-1 20.02-.07 31.35 3.32 34-2 .62-1.25.39-2.24 0-5-2.94-20.75 1.73-24.64-3-35-2.19-4.8-4.22-6.2-4-10 .25-4.35 3.27-8.62 7-11 2.01-1.28 3.27-2.08 5-2 5.78.27 6.19 9.82 15 14 3.22 1.52 5.04 1.14 6 3 1.57 3.04-.96 8.6-5 11-3.67 2.18-5.74.05-8 2-2.92 2.52-.45 6.92-1 19-.27 6.06-.99 7.1 0 8 4.04 3.66 22.18-8.02 33-15 7.93-5.11 11.25-7.86 16-7s4.76 4.2 14 10c6.58 4.13 10.97 5.19 11 8 .03 2.35-3.03 3.3-4 8-.29 1.4-.6 2.91 0 4 1.72 3.12 9.83.86 18 0 16.99-1.78 30.98 2.87 45 0 1.49-.3 3.22-.74 5-2 4.43-3.13 3.61-7.46 7-13 3.75-6.13 10.63-10.43 13-9 1.59.96 1.08 4.47 1 5-.41 2.82-1.99 4.4-5 8-4.34 5.19-6.5 7.81-6 9 .47 1.12 3.99 1.43 11 2 4.1.33 4.53.24 5 0 2.84-1.41 2.09-5.04 5-13 1.91-5.21 3.65-7.55 6-9 .87-.54 2.76-1.71 4-1 1.54.88.46 3.76 1 10 .34 3.98 1.08 6.22 2 9 1.09 3.31 1.88 4.39 3 5 1.4.76 3.53.89 5 0 4.37-2.64-.88-12.01 4-19 2.77-3.96 8.39-6.57 11-5 4.07 2.45-2.68 15.22 3 21 1.97 2 4.26 1.99 15 2 9.33.01 18.68-.41 28 0 13.3.59 19.6 2.57 22-1 .88-1.31.8-2.72 0-8-1.14-7.57-1.71-11.35-3-17-2.8-12.3-4.2-18.45-2-25 2.38-7.07 8.63-13.98 13-13 .65.15 2.17.67 4 4 3.35 6.1 2.37 11.88 2 19-.8 15.21 1.58 28.22 3 36a154.5 154.5 0 0 0 1 5l111 2c1.12.43 4.21 1.45 6 0 2.39-1.94.89-7.01 0-10-1.06-3.56-1.59-5.34-3-6-4.33-2.01-9.54 10.33-18 10-10.43-.4-18.08-9.95-19-18-1.87-16.4 23.62-32.08 35-27 5.24 2.33 8.88 9.68 15 22 1.21 2.44 2.14 4.5 2.76 5.95v40.73l-139.76-.69c.48-4.12-2.45-7.67-6-8-3.23-.3-6.14 2.14-6.99 4.94-.47 1.57-.21 2.97 0 3.74L941 271.98c-4.91-4.1-9.38-5.5-10.96-4.04-1.34 1.24-.46 4.34 0 5.72L907 271.97c-3.74-2.76-7.17-3.32-8.31-2.06-.93 1.03-.21 3.15 0 3.74l-19.69-.69c-2.5-2.66-5.58-3.18-7-2-.19.16-.98.87-1 2.69H649.94l-7.94-2.69c-1.93-.12-4.87-.52-8-2-6.61-3.13-9.3-8.78-11-8-1.97.9 1.15 8.72-2 11-1.37 1-3.42.56-5 0H428c-5.98 18.33-19.76 31.69-36 34-2.04.29-21.14 2.71-31-10-7.19-9.27-5.18-21.06-4-28 2.71-15.92 12.83-27.56 14-27 .54.26-.35 3.31-2 9zm764-27c-2.08-3.85-8.3-5.14-12-2-3.17 2.68-3.76 7.98-1 11 3.14 3.44 9.23 2.43 12-1 1.69-2.1 2.4-5.41 1-8zm-388 31c.31.94 3.93.25 8 0 8.12-.51 8.87 1.25 21 2 7.95.49 14.81.85 16-2 .11-.27.41-1.13-1-4-1.34-2.73-4.62-9.39-11-11-3.01-.76-6.34.49-13 3-4.89 1.84-8.26 3.89-15 8-3.91 2.38-5.2 3.39-5 4zm-129 43l-5 5c-4.05 1.54-9.5-3.04-12-6-1.62-1.91-3.08-3.64-3-6 .17-5.14 7.52-9.49 11-8 1.56.67 1.58 2.19 5 5 1.56 1.28 2.34 1.92 3 2 4.03.48 5.67-9.38 11-10 1.43-.17 1.45.53 10 5 4.04 2.11 4.49 2.19 5 3 3.11 4.89-3.56 17.18-9 17-5.23-.18-7.92-11.83-12-11-.54.11-.65.34-4 4zm649-98c-2.7 1.47-1.38 5.17-4 7-2.72 1.9-8.47.94-11-3-2.55-3.97-.25-8.52 0-9 1.23-2.34 3.96-5.15 7-5 2.79.14 3.02 2.63 7 4 .81.28 4.66 1.6 8 0 4.07-1.95 3.79-6.5 7-7 1.26-.19 2.51.54 5 2 .91.54 3.3 2.02 6 5s4.06 4.48 4 6c-.15 3.97-7.61 8.51-13 7-3.43-.96-3.53-3.66-9-6-2.32-.99-4.95-2.11-7-1zm322 51c3.51-2.81 9.43 2.01 22 5 5.09 1.21 15.68 3.73 18 0 1.71-2.75-1.81-7.74-2-8-6.56-9.09-20.14-5.07-23-12-1.2-2.9.2-6 2-10 .6-1.33 4.87-10.8 11-11 3.85-.12 4.37 3.54 11 8 9.32 6.27 16 4.22 18 9 1.56 3.73-2.45 5.1-3 12-.85 10.72 8.14 16.25 5 24-.27.67-1.08 2.6-3 4-3.4 2.48-7.67 1.39-11 1-8.13-.95-8.5 2.52-21 4-10.37 1.23-16.45 1.95-21-2-6.22-5.4-5.27-15.78-5-18 .39-3.18.6-4.88 2-6zm-285-42c1.24 9.98 3.59 10.64 6 21 3.56 15.31.18 21.35 5 25 3.72 2.82 8.92 1.63 12 1 7.74-1.57-6.54 2.25 63 0l35-1h20c4.09.52 5.54 1.05 7 0 3.69-2.66 1.68-11.25-2-27-1.38-5.89-2.07-7.48-3-9-2.98-4.87-6.63-6.11-7-10-.05-.48-.14-2.04 2-6 2.92-5.41 6.4-11.86 11-12 4.4-.13 4.22 5.67 14 12 2.75 1.78 5.22 2.91 7 6 .3.51 2.78 4.96 1 8-.59 1-1.14 1-4 3-2.67 1.87-4.15 2.9-5 4-2.16 2.79-.74 6.57 0 11 1.38 8.29-1.52 7.35-1 19 .26 5.89 1.25 11.75-1 18-.54 1.51-1.06 2.43-2 3-2.39 1.45-5.16-.79-12-1-.52-.02-1.01-.01-2 0-7.91.09-11.86.13-22 1-10.8.93-19.57-.91-40-1-21.72-.09-52.15 1.81-63 1-2.78-.21-4.37-.6-10-1-5.17-.36-5.9-.18-7-1-2.84-2.13-1.08-5.74-4-12-1.02-2.18-2.79-5.99-5-6-3.05-.02-2.93 7.24-8 12-7.68 7.21-23.9 5.56-32-2-1.27-1.19-3.2-3.03-4-6-1.68-6.26 3.08-12.3 6-16 1.78-2.26 6.52-8.14 15-12 7.74-3.53 14.15-3.36 15-7 .5-2.13-1.48-3.13-1-6 .49-2.94 2.88-3.88 6-7 5.78-5.78 6.35-11.32 8-11 1.4.28 1.42 4.36 2 9zm-7 33c.71-4.43-2.66-9.17-5-9-1.46.11-1.29 2.04-4 4-2.88 2.09-4.91 1.24-6 3-1.06 1.72-.3 4.43 1 6 2.67 3.23 8.87 3.12 12 0 1.58-1.58 1.92-3.47 2-4zm208 51c7.16-.71 12.27-2.02 16-3 10.42-2.73 13.97-5.24 15-6 3.04-2.24 5.72-5.13 7-9 .38-1.17 1.5-4.54 0-6-1.19-1.16-3.21-.31-6 0-4.1.45-9.92-.27-13-3-5.08-4.51-2.62-14.47-2-17 1.41-5.7 4.23-9.25 8-14 5.48-6.89 9.91-12.47 15-12 4.9.45 7.64 6.53 10 10 10.13 14.92 7.77 35.18 0 49-2.01 3.58-9.17 16.32-24 21-9.85 3.11-18.5 1.21-24 0-10.1-2.22-19.48-7.18-19-9 .35-1.34 5.78.11 17-1zm37-44c-.61-1.27-1.54-1.94-3-3-1.67-1.21-3.21-2.33-5-2-1.22.23-2.03 1.03-3 2-.94.94-1.82 1.81-2 3-.35 2.31 2.18 4.34 3 5 1.65 1.33 6.26 4.22 9 2 1.9-1.54 2.04-4.85 1-7zM898 452c-.48-.71 2.35-3.42 4-5 8.98-8.61 18.33-12.71 19-13 16.82-7.39 40.07-23.46 38-32-.64-2.66-3.23-2.47-5-7-1.46-3.74-1.96-9.62 1-14 3.3-4.88 9.08-5.18 9-8-.07-2.41-4.32-3.4-4-5 .31-1.59 4.9-2.51 9-2 6.56.81 11.08 5.18 14 8 2.47 2.38 5.08 4.9 7 9 3.77 8.04 3.69 19.58-1 22-2.23 1.15-5.49.1-12-2-4.35-1.4-5.14-2.23-7-2-4.85.59-7.62 7.21-9 10-3.89 7.86-14.93 14.58-37 28-8.65 5.26-24.94 14.55-26 13zm99-37c-.96-.28-1.77 6.15-7 12-4.71 5.27-9.81 6.5-23 11-11.32 3.86-16.99 5.79-22 8-3.13 1.38-15.57 7.07-27 18-5.88 5.62-18.32 17.51-23 37-7.25 30.21 10 54.3 12 57 2.14 2.88 18.33 24.72 33 21 8-2.03 12.42-10.85 17-20 9.14-18.25 6.22-30.78 16-36 .69-.37 6.38-3.31 10-1 3.83 2.44 1.49 8.28 6 20 1.17 3.05 2.63 6.01 5 9 .8 1.01 2.38 2.86 5 5 3.93 3.21 12.02 9.81 22 9 4.79-.39 8.13-2.33 11-4 2.5-1.45 14.52-8.87 18-22 .88-3.33 1.01-6.25 3-7 1.6-.6 3.62.5 9 5 7.17 5.99 7.92 7.68 10 9 7.23 4.6 20.9-1.29 29-8 12.45-10.31 14.97-25.19 19-49 2.12-12.51 3.32-20.09 1-30-1.24-5.28-4.82-12.19-12-26-7.32-14.09-9.45-16.33-11-16-2.02.42-2.13 4.97-4 15-2.08 11.11-2.77 9.95-5 21-2.4 11.89-5.08 30.48-3 31 1.16.29 3.66-5.08 5-9 4.13-12.05 1-20.88 4-22 2.37-.88 6.16 3.94 7 5 3.55 4.51 4.33 9.19 5 13 3.92 22.33 5.32 22.19 4 26-3.04 8.79-11.63 12.87-14 14-1.49.71-14.4 6.6-26 0-9.82-5.59-12.3-16.51-14-24-.41-1.82-1.34-6.37-1-18 .76-25.56 6.26-37.45 1-41-2.58-1.74-6.76-.8-9 1-2.96 2.38-2.91 6.57-3 12-.37 22.24-2.28 20.1-1 28 1.55 9.52 3.68 8.64 6 20 2.04 9.96 3.27 15.97 1 23-4.42 13.73-18.3 19.34-20 20-4.52 1.75-14.57 5.64-22 1-9.01-5.62-10.67-21.57-19-35-.9-1.44-2.8-4.37-6-5-3.22-.64-6.1 1.37-7 2-2.68 1.87-3.61 4.09-7 11-3.47 7.08-1.93 3.59-4 8-7.2 15.36-6.65 16.63-10 21-2.5 3.26-5.52 7.1-11 9-1.37.48-7.03 2.26-13 0-4.6-1.75-6.03-4.63-13-14-10.72-14.41-11.91-13.72-13-18-2.31-9.02 1.67-17.21 4-22 4.87-10.02 12.38-15.63 17-19 3.91-2.85 3.46-1.84 16-9 13.81-7.89 13.19-8.45 19-11 10.19-4.47 11.86-2.63 19-7 3.01-1.84 9.12-5.68 13-13 3.96-7.47 4.07-15.69 3-16zm157 87c-1.72.2-7.6-22.19-8-47-.14-8.5.58-16.33 2-32 .52-5.68.47-4.19 4-32 2.5-19.7 3.31-26.61 6-27 .58-.08 1.83.05 9 11 3.83 5.85 5.75 8.78 8 13 10.41 19.56 14 38 14 38 1.45 7.44 1.07 9.62 0 47-.98 34.13-.75 35.06-2 40-6.16 24.29-21.4 39.52-26 44-15.5 15.11-31.76 20.85-41 24-21.49 7.32-39.56 6.61-52 6-19.12-.94-36.11-5.14-36-6 .06-.46 5.06.09 15 0 0 0 10.13-.1 20-1 18.85-1.73 37.93-12.46 46-17 13.79-7.76 22.66-15.29 40-30 7.49-6.36 11.29-9.6 14-13 12.61-15.81 14.12-33.67 15-44 .82-9.7 2.08-24.56-5-41-6.43-14.94-18.54-28.36-21-27-.96.53-.36 3.25 0 5 4.57 22.4 2.44 47.82 2 53-.77 9.16-2.02 11.93-3 26-.51 7.26-.41 9.93-1 10zm-24 153c-2.4-.79-.72-12.93 1-21 2.77-12.98 7.69-25.04 28-56 6.32-9.64 21.49-32.32 42-49 3.8-3.09 11.8-9.24 15-7 1.76 1.23 1.21 4.4 1 10-.46 12.19 3.94 16.51 1 20-1.79 2.13-3.74 1.3-8 3-7.02 2.8-10.6 8.57-13 12-10.97 15.69-24.16 20.84-42 46-16.92 23.86-21.93 43-25 42zm169-216c2.61-8.26-2.3-13.8 1-21 .81-1.78 2.21-3.18 5-6 3.19-3.22 13.45-13.57 19-11 .67.31 2.69 1.46 4 10 .98 6.39 2.53 16.42-2 28-2.34 5.99-5.61 10.62-17 22-20.25 20.23-21.75 17.4-32 29-13.79 15.61-17.82 28.34-29 30-1.68.25-6.86 1.02-10-2-1.6-1.53-2.09-4.04-3-9-.97-5.27-1.64-8.89 0-10 1.35-.92 3.36.49 5 1 6.72 2.1 14.82-8.46 31-26 7.77-8.42 12.85-14.61 23-27 2.58-3.15 4.05-4.99 5-8zm-32 23c2.35 1.01 5.37-.61 7-2 4.26-3.63 4.11-10 4-13-.34-9.1-4.3-15.19-8-22 0 0-7.9-14.53-13-31-5.54-17.89-4.78-30.01-10-31-2.86-.54-5.67 2.62-6 3-3.86 4.45-.65 9.81-2 18-1.14 6.92-4.21 7.78-8 16-3.33 7.22-3.71 12.5-5 24-3.09 27.51-3.82 22.94-5 38-2.61 33.21-3.91 49.82 2 68 6.98 21.49 19.99 35.5 14 43-1.82 2.28-3.52 1.61-12 6-8.97 4.65-11.01 7.43-17 11-15.15 9.02-27.93 6.55-28 9-.08 2.95 18.36 9.41 35 4 6.12-1.99 13.37-4.35 19-11 3.36-3.97 4.8-7.89 8-8 2.78-.1 4.32 2.77 9 8 1.16 1.3 7.05 7.88 13 12 3.67 2.54 12.32 8.54 19 6 4.78-1.82 5.9-7.01 10-19 8.18-23.92 9.77-20.95 13-34 3.96-15.97.19-14.82 4-34 1.09-5.49 4.54-21.39 15-38 7.57-12.02 11.67-13.08 14-13 6.69.24 10.5 10.41 15 9 2.38-.75 3.27-4.19 4-7 1.25-4.82.62-8.81-1-16-2.56-11.37-3.88-17.08-6-18-5.91-2.56-14.97 6.93-16 8-5.14 5.38-6.63 10.38-10 19-6.77 17.34-7.4 14.24-12 27-3.3 9.15-5.2 17.43-9 34-3.61 15.75-3.76 18.94-7 26-3.76 8.2-7.98 17.06-17 20-4.9 1.6-12.92 2.01-18-3-.49-.48-4.64-4.7-4-10 .64-5.29 5.45-6.72 10-12 4.73-5.49 5.82-11.99 8-25 2.22-13.27 1.99-25.89 1-26-.23-.03-.82 1.65-2 5-.57 1.62-1.37 3.88-2 6-2.25 7.53-3.5 16.77-6 24-1.58 4.57-6.05 17.49-13 18-5.57.41-10.3-7.32-15-15-3.89-6.35-8.51-14.08-11-27-1.51-7.8-1.99-16.21 3-47 4.37-27.01 10-53 10-53s5.78 6.47 9 13c3.32 6.72.77 7.1 4 15 3.5 8.55 6.38 7.84 9 16 1.51 4.7 1.52 7.94 4 9zm122-46c1.18-.43 2.59 4.64 7 7 1.96 1.05 5.17 1.91 12 0 16.45-4.6 23.5-16.78 29-14 1.3.66 1.9 1.84 3 4 1.54 3.03 1.95 6.43 1 13-.66 4.61-1.79 8.47-4 16l-4 13c-4.32 6.07-10.29 5.18-22 11-5.85 2.91-9.68 5.77-14 9-10.11 7.56-20.01 14.96-25 28-.63 1.65-6.12 16.65 0 33 2.65 7.07 9.12 18.81 15 18 3.73-.51 4.55-5.71 11-20 11.87-26.32 18.03-28.56 21-29 .43-.06 4.96-.67 8 2 3.02 2.66 2.7 6.91 3 11 .12 1.69 1.55 18.68 11 25 5.78 3.86 14.38 3.6 20 0 1.18-.75 3.88-2.72 8-12 6.08-13.72 4.28-18.68 10-29 .91-1.64 7.42-13.17 12-12 2.32.59 3.46 4.27 4 6 .94 3.04.91 6.18 0 10-1.07 4.51-3.02 8.54-9 17-6.56 9.29-6.62 7.82-9 12-4.88 8.57-2.86 11.55-7 20-2.46 5.01-6.97 14.22-15 16-10.79 2.39-21.28-10.12-22-11-10.82-13.24-7.59-30.26-13-31-2.84-.39-5.9 3.99-8 7-3.01 4.31-3.97 8.17-5 12-1.89 7-4.62 16.94-9 26-3.62 7.48-5.44 11.26-9 12-7 1.46-14.72-10.1-18-15-9.58-14.34-11.16-29.16-12-37-.96-9.01-.39-15.72 0-20 .64-7.1 1.01-10.81 3-15 2.89-6.1 7.13-8.83 14-14 17.48-13.17 13.46-13.19 24-20 13.46-8.71 19.61-8.41 28-18 1.02-1.16 7.99-9.13 6-12-1.01-1.46-3.99-1.12-5-1-3.76.43-6.13 2.62-9 5-5.86 4.85-8.79 7.28-11 8-7.15 2.33-17.53-2.4-20-9-1.13-3.03.45-3.66 0-13-.26-5.35-.94-8.66 0-9zm227 164c-3.46-.97-2.59-6.25-8-12-3.03-3.22-4.62-2.97-5-5-.37-1.97 2.75-5.34 9-12 .87-.93 1.7-1.79 3-2 2.18-.35 3.38 1.51 7 4 5.27 3.63 7.82 3.2 9 6 .62 1.48.4 2.76 0 5-1.42 8-7.36 12.53-8 13-2.83 2.09-4.87 3.59-7 3zm-190 69c2.08 1.81 6.42-.11 15-4 2.6-1.18 10.16-4.72 22-13 8.8-6.16 10.66-8.43 12-11 2.4-4.62 3.91-11.71 1-14-2.1-1.66-5.78-.24-9 1-7.4 2.85-7.74 6.25-14 9-6.7 2.94-8.37-.05-14 3-5.5 2.98-8.04 8.08-10 12-.55 1.1-6.83 13.68-3 17z"/><path d="M1384 604c9.32 2.82 17.35-.9 26-4 21.15-7.58 21.65-2.73 36-9 3.37-1.47 10.26-4.76 29-21 22.42-19.43 33.63-29.14 41-41 14.27-22.94 16.52-46.69 21-46 .72.11 1.29.83 3 6 4.66 14.05 3.96 19.21 7 26 2.25 5.02 8.07 14.37 14 14 8.31-.51 13.21-19.91 15-27 3.27-12.95 2.89-27.14 2-55-.04-1.24-.48-14.4-2-31-1.21-13.26-1.82-19.89-3-22-.69-1.23-2.93-4.91-2-9 .45-2 1.49-3.32 2-4 6.11-8.12 7.12-18.24 9-18 1.72.22 1.93 8.86 2 12 .43 20.93.05 36.24 0 41-.12 10.76 2.59 24.17 8 51 .69 3.42 2.97 14.04 11 21 1.5 1.3 6.26 5.43 10 4 1.73-.66 2.6-2.26 3-3 6.79-12.39 8.88-11.12 15-25 2.79-6.31 4.18-9.47 5.46-14.21.76-2.82 1.12-4.82 1.54-4.79.97.06 1.1 10.86 1 18-.29 20.09-.43 30.14-5 40-2.86 6.17-8.2 17.69-18 19-10.76 1.44-19.79-10.38-21-12-8.65-11.63-7.34-26.07-9-26-1.22.05-1.84 7.82-2 10-1.9 25.09.1 29.38-2 39-1.22 5.57-4.8 21.97-17 26-7.06 2.33-16.1.22-21-5-1.27-1.36-2.57-3.25-7-19-3.19-11.36-3.46-13.71-5-14-3.15-.58-6.97 8.33-15 25l-14 28c-10.39 15.02-25.98 20.4-48 28-16.66 5.75-27.77 6.5-50 8-4.36.29-11.97.65-20-3-4.77-2.17-9.24-5.56-9-6 .22-.4 4.16 1.84 8 3z"/></g><path d="M364.06 813.06a2.95 2.95 0 0 0 2.27.86l80.6-3.92c81.66-3.23 160.86-4.09 237.41-3.01.43 0 .86-.08 1.25-.26 3.4-1.55 7.45-3.92 7.4-6.73-.07-4.49-10.45-4.27-17-12-4.73-5.59-1.47-8.26-5-34-1.17-8.54-2.3-13.89 0-21 1.74-5.38 5.35-11.45 8-11 3.85.65 1.2 14.26 9 19 3.38 2.05 8.51 2.32 11 0 3.54-3.3-.53-9.74 3-13 3.46-3.19 11-.37 12 0 6.25 2.33 6.64 6.15 12 7 .65.1 5.18.76 9-2 4.96-3.58 4.99-10.22 5-13 0-2.54.01-3.93-1-5-2.39-2.51-6.58.79-12-1-4.79-1.58-8.95-6.62-8-10 .36-1.28 1.52-2.55 3-3 3.41-1.03 5.69 3.15 13 6 3.19 1.24 5.89 2.29 8 1 2.54-1.56 3.22-5.91 2-9-1.53-3.89-5.89-5.31-8-6-7.1-2.32-11.67.75-14-2-1.46-1.72-1.61-5.22 0-7 4.39-4.86 19.31 5.95 24 1 1.9-2.01 1.73-6.19 0-8-2.2-2.3-5.88.3-9-2-3.59-2.65-2.24-8.7-4-9-1.53-.26-2.4 4.36-7 9-3.32 3.35-7.46 5.59-8 5-.38-.41.99-2.27 3-5 4.35-5.9 6.43-7.13 6-9-.11-.46-.32-.79-5-4-4.23-2.9-4.57-3-5-3-4.18 0-7.02 9.35-8 9-.92-.33 2.92-8.17 0-15-.01-.03-.02-.06-.04-.08-1.14-2.61-4.99-2.14-5.59.64-.49 2.26-1.34 4.74-2.78 7.25-1.75 3.04-3.27 6.01-6.59 7.2-2.01.72-4.81.84-7.38.72s-3.78-3.09-2.09-4.98c2.02-2.24 4.22-5.26 5.46-8.75 1.45-4.06 1.16-7.49 1.05-8.53-.37-3.32-2.09-10.28-6.05-11.47-7.01-2.11-17.96 14.82-19 14-.59-.46 4.06-5 4-11-.07-6.42-5.52-13.77-11-14-6.16-.25-10.91 8.56-16 18-4.77 8.86-7.68 18.12-8 18-.1-.03.2-.84.38-1.91.59-3.47-.18-8.64-3.38-11.09-2.44-1.86-5.4-1.47-9-1-3.26.43-8.87 1.16-13 6-4.05 4.74-4.06 10.36-4 12 0 .07.25 6.63-2 11-2.79 5.42-7.84 4.37-9 8-2.1 6.54 12.63 15.26 11 18-.96 1.61-7.1.35-12-2-8.22-3.94-9.51-9.26-14-9-1.11.07-2.64.49-9 8-7.46 8.81-11.19 13.22-10 16 .51 1.18 1.62 1.89 13 4 14.22 2.63 16.29 2.23 18 1 3.8-2.74 2.21-6.98 6-9 3.62-1.93 10.01-.72 13 4 2.12 3.35 2.45 8.35 0 11-4.1 4.43-12.97-.97-16 3-2.08 2.73-.41 8.59 3 11 4.62 3.25 12.13-.03 16-3 3.93-3.02 4.67-6.15 7-6 3.36.22 3.42 6.84 7 8 6.89 2.24 18.36-18.42 21-17 1.2.65-.88 5.08-2 12-1.85 11.4.17 21.69 2 31 2.2 11.17 4.41 14.9 2 18-2.83 3.64-9.59 3.24-15.45 2.11-.37-.07-.71-.21-1.02-.41-12.99-8.24-128.74-82.38-188.53-147.7-17.49-19.11-32.47-35.48-46-62-16.21-31.79-20.92-59.7-26-59-5.94.82-5.09 39.76-5 44 .97 45.38-.09 120.04-8.91 249.65-.06.86.26 1.7.86 2.31l2.1 2.1z" fill="#7bb242"/><path d="m555,392c-2.62,13.5,24.8,21.26,88,73,35.81,29.31,54.38,43.45,73,68,33.34,43.97,70,108,70,108,7.81,13.64,11.53,20.73,15,20,11.87-2.5-3.83-91.34-1-219,.74-33.45,2.56-60.9,4-79-21.54-.91-54.42-1.67-94.48,0-67.36,2.81-150.1,6.26-154.52,29Z" fill="#1a100c"/><path d="M365 686c5.55 1.44 18.84-40.66 32-70 42.88-95.6 125.97-148.45 163-172 96.1-61.13 186.13-69.37 184-80-1.58-7.91-51.59-3.97-79-2-69.71 5.02-170.71 10.08-300 9v18.09c.19 195.32 6.5 196.47 1 254.91-2.01 21.3-4.72 41.04-1 42z" fill="#dd563c"/><g fill="#b29a31"><rect x="502" y="760" width="45" height="45" rx="5.09"/><rect x="502" y="695" width="47" height="47" rx="5.09"/><rect x="499" y="629" width="51" height="51" rx="5.09"/><path d="M502.41 607.68l2.12-28.41c.24-3.23 3.39-5.41 6.5-4.5l38.31 11.17a5.08 5.08 0 0 1 3.66 4.88v17.24a4.99 4.99 0 0 1-.28 1.66h0c-.71 2.05-2.64 3.43-4.81 3.43h-40.43a5.09 5.09 0 0 1-5.07-5.47zm11.35-55l20.97-35.19c1.67-2.81 5.52-3.33 7.89-1.07l19.43 18.59a4.91 4.91 0 0 1 .87 1.1l9.38 15.97a5.09 5.09 0 0 1-.32 5.63l-10.37 13.83a5.08 5.08 0 0 1-6.43 1.45l-16.47-8.63a5.01 5.01 0 0 0-1.47-.5l-19.99-3.57c-3.5-.63-5.3-4.56-3.48-7.61zm40.03-43.43l15.54 15.1c.44.43.8.94 1.06 1.49l6.14 13.13c1.17 2.51 4.14 3.62 6.68 2.49l16.35-7.28c.29-.13.59-.23.9-.3l11.34-2.67c2.83-.67 4.52-3.56 3.73-6.35l-11.42-39.95c-.65-2.29-2.81-3.82-5.19-3.68l-23.07 1.35c-1.2.07-2.34.56-3.21 1.4l-18.82 17.94c-2.09 1.99-2.11 5.32-.04 7.33zm68.12 6.9L614.68 484c-.42-1.84.23-3.77 1.67-4.99l16.69-14.18a5.05 5.05 0 0 1 2.21-1.09l19.87-4.32a5.13 5.13 0 0 1 3.56.53l28.92 16.16c2.01 1.12 3.01 3.45 2.45 5.67l-9.63 38.53a5.08 5.08 0 0 1-6.86 3.47l-15.43-6.31c-.74-.3-1.55-.43-2.35-.36l-22.49 1.87-.58.08-4.84.97c-2.71.54-5.35-1.18-5.96-3.87zm73.58 9.63l2.41-8.45a4.38 4.38 0 0 1 .24-.66l13.66-30.95c.74-1.68 2.34-2.84 4.17-3.01l15.86-1.51a5.07 5.07 0 0 1 3.82 1.23l26.22 22.83c1.82 1.59 2.28 4.24 1.08 6.35l-20.19 35.54a5.09 5.09 0 0 1-7.33 1.66l-17.59-12.24c-.55-.38-1.17-.65-1.82-.79l-16.71-3.63c-2.87-.62-4.62-3.54-3.81-6.37zm55.53 35.81l6.39 8.2a5.07 5.07 0 0 0 6.18 1.47l14.8-6.98c.4-.19.82-.32 1.26-.4l20.17-3.67a5.09 5.09 0 0 0 3.64-7.28l-5.19-10.37c-.19-.38-.42-.73-.7-1.05l-17.27-20.03c-2.18-2.52-6.15-2.31-8.04.43l-15.57 22.58a5.33 5.33 0 0 0-.31.51l-5.85 11.08c-.94 1.77-.75 3.93.49 5.5zm13.25 44.37l-1.75-10.12a5.09 5.09 0 0 1 1.61-4.65l12.46-11.21c.76-.68 1.7-1.12 2.71-1.26l21.89-2.99c2.89-.39 5.51 1.71 5.76 4.61l2.05 24.32c.25 2.97-2.09 5.51-5.07 5.51h-34.66c-2.47 0-4.59-1.78-5.01-4.22z"/><rect x="762" y="633" width="47" height="47" rx="5.09"/><rect x="765" y="699" width="46" height="46" rx="5.09"/><rect x="766" y="760" width="39" height="39" rx="5.09"/></g><defs ><path id="B" d="m978.06,709.12l-8.29,22.68h-10.66l27.11-72.11h12.43l27.23,72.11h-11.01l-8.52-22.68h-28.3Zm26.17-7.28l-7.81-20.76c-1.78-4.71-2.96-8.99-4.14-13.16h-.24c-1.18,4.28-2.49,8.67-4.03,13.05l-7.81,20.86h24.03Z"/></defs></svg>