<?xml version="1.0" encoding="UTF-8"?>
<svg id="svg856" width="1322.8346" height="755.90552" version="1.1" viewBox="0 0 1322.8346 755.90552" xmlns="http://www.w3.org/2000/svg">
 <rect id="rect1034" transform="scale(1,-1)" y="-755.90552" width="1322.8346" height="755.90552" fill="#ffffff" fill-rule="evenodd" stroke-width="57.0665"/>
 <g id="Group_334" transform="matrix(9.8113482,0,0,9.8113482,-368.68106,-652.14559)" fill="#07783d" data-name="Group 334">
  <g id="Group_325" transform="translate(88.336,76.099)" data-name="Group 325">
   <path id="Path_378" transform="translate(-149.753,-76.099)" d="m161.668 93.549c-0.586-1.414-2.453-2.3-4.8-1.978-2.112 0.288-5.3 0.787-6.732-2.679-0.541-1.306-0.939-3.708 1.955-5.825-0.841-2.3 1.066-4.3 1.941-5.22a1.773 1.773 0 0 0 0.4-1.744 1.773 1.773 0 0 0 1.519 0.947h6e-3c1.267 0.03 4.028 0.094 5.064 2.318 3.543-0.55 4.96 1.429 5.5 2.736 1.436 3.467-1.168 5.365-2.866 6.655-1.878 1.43-2.573 3.375-1.987 4.79zm-1.629-3.932a8.311 8.311 0 0 1 2.362-2.567c1.9-1.406 2.933-2.292 2.169-4.138-0.87-2.1-3.142-1.51-4-1.287l-0.882 0.194-0.43-1.039c-0.554-1.337-1.4-1.567-3.345-1.612l-0.207-5e-3 -0.143 0.15c-1.346 1.41-1.779 2.168-1.225 3.505l0.43 1.039-0.76 0.487c-0.762 0.447-2.786 1.636-1.916 3.736 0.765 1.847 2.124 1.74 4.46 1.393a8.312 8.312 0 0 1 3.488 0.144z" fill="#07783d" data-name="Path 378"/>
  </g>
  <g id="Group_326" transform="translate(76.099,88.336)" data-name="Group 326">
   <path id="Path_379" transform="translate(-76.099,-149.753)" d="m93.549 161.668c-1.414-0.586-3.36 0.109-4.794 2-1.29 1.7-3.188 4.3-6.655 2.866-1.306-0.541-3.286-1.958-2.736-5.5-2.224-1.035-2.289-3.8-2.318-5.064v-6e-3a1.773 1.773 0 0 0-0.947-1.519 1.773 1.773 0 0 0 1.744-0.4c0.917-0.875 2.915-2.782 5.22-1.941 2.117-2.894 4.518-2.5 5.825-1.955 3.467 1.436 2.968 4.62 2.679 6.732-0.317 2.334 0.567 4.201 1.982 4.787zm-3.932-1.629a8.312 8.312 0 0 1-0.145-3.485c0.347-2.336 0.454-3.695-1.393-4.46-2.1-0.87-3.289 1.154-3.736 1.916l-0.487 0.76-1.039-0.43c-1.337-0.554-2.095-0.121-3.505 1.225l-0.15 0.143c0 0.066 0 0.135 5e-3 0.207 0.045 1.949 0.275 2.791 1.612 3.345l1.039 0.43-0.194 0.882c-0.223 0.855-0.814 3.127 1.287 4 1.847 0.765 2.732-0.271 4.138-2.169a8.311 8.311 0 0 1 2.568-2.363z" fill="#07783d" data-name="Path 379"/>
  </g>
  <g id="Group_327" transform="translate(76.099,104.451)" data-name="Group 327">
   <path id="Path_380" transform="translate(-76.099,-246.753)" d="m93.549 252.032c-1.414 0.586-2.3 2.453-1.978 4.8 0.288 2.112 0.787 5.3-2.679 6.732-1.306 0.541-3.708 0.938-5.825-1.955-2.3 0.841-4.3-1.066-5.22-1.941a1.773 1.773 0 0 0-1.744-0.4 1.772 1.772 0 0 0 0.947-1.519v-6e-3c0.03-1.267 0.094-4.028 2.318-5.064-0.55-3.543 1.429-4.96 2.736-5.5 3.467-1.436 5.365 1.168 6.655 2.866 1.43 1.878 3.375 2.573 4.79 1.987zm-3.932 1.629a8.311 8.311 0 0 1-2.567-2.362c-1.406-1.9-2.292-2.934-4.138-2.169-2.1 0.87-1.51 3.142-1.287 4l0.194 0.882-1.039 0.43c-1.337 0.554-1.567 1.4-1.612 3.345 0 0.072 0 0.141-5e-3 0.207l0.15 0.143c1.41 1.346 2.168 1.779 3.505 1.225l1.039-0.43 0.487 0.76c0.447 0.762 1.636 2.786 3.736 1.916 1.847-0.765 1.74-2.124 1.393-4.46a8.312 8.312 0 0 1 0.144-3.488z" fill="#07783d" data-name="Path 380"/>
  </g>
  <g id="Group_328" transform="translate(88.336,116.432)" data-name="Group 328">
   <path id="Path_381" transform="translate(-149.753,-318.868)" d="m161.668 318.868c-0.586 1.414 0.109 3.36 2 4.794 1.7 1.29 4.3 3.188 2.866 6.655-0.541 1.306-1.958 3.286-5.5 2.736-1.035 2.224-3.8 2.289-5.064 2.318h-6e-3a1.773 1.773 0 0 0-1.519 0.947 1.773 1.773 0 0 0-0.4-1.744c-0.875-0.917-2.782-2.915-1.941-5.22-2.894-2.117-2.5-4.518-1.955-5.825 1.436-3.467 4.62-2.968 6.732-2.679 2.334 0.317 4.201-0.567 4.787-1.982zm-1.628 3.932a8.312 8.312 0 0 1-3.485 0.145c-2.336-0.347-3.695-0.454-4.46 1.393-0.87 2.1 1.154 3.289 1.916 3.736l0.76 0.487-0.43 1.039c-0.554 1.337-0.121 2.095 1.225 3.5l0.143 0.15 0.207-5e-3c1.949-0.045 2.791-0.275 3.345-1.612l0.43-1.039 0.882 0.194c0.855 0.223 3.127 0.814 4-1.287 0.765-1.847-0.271-2.732-2.169-4.138a8.31 8.31 0 0 1-2.364-2.563z" fill="#07783d" data-name="Path 381"/>
  </g>
  <g id="Group_329" transform="translate(104.451,116.432)" data-name="Group 329">
   <path id="Path_382" transform="translate(-246.753,-318.868)" d="m252.032 318.868c0.586 1.414 2.453 2.3 4.8 1.978 2.112-0.288 5.3-0.787 6.732 2.679 0.541 1.306 0.938 3.708-1.955 5.825 0.841 2.3-1.066 4.3-1.941 5.22a1.773 1.773 0 0 0-0.4 1.744 1.773 1.773 0 0 0-1.519-0.947h-6e-3c-1.267-0.03-4.028-0.094-5.064-2.318-3.543 0.55-4.96-1.429-5.5-2.736-1.436-3.467 1.168-5.365 2.866-6.655 1.878-1.43 2.573-3.375 1.987-4.79zm1.629 3.932a8.311 8.311 0 0 1-2.362 2.566c-1.9 1.406-2.934 2.292-2.169 4.138 0.87 2.1 3.142 1.51 4 1.287l0.882-0.194 0.43 1.039c0.554 1.337 1.4 1.567 3.345 1.612l0.207 5e-3 0.143-0.15c1.346-1.41 1.779-2.168 1.225-3.5l-0.43-1.039 0.76-0.487c0.762-0.447 2.786-1.636 1.916-3.736-0.765-1.847-2.124-1.74-4.46-1.393a8.312 8.312 0 0 1-3.488-0.148z" fill="#07783d" data-name="Path 382"/>
  </g>
  <g id="Group_330" transform="translate(116.432,104.451)" data-name="Group 330">
   <path id="Path_383" transform="translate(-318.868,-246.753)" d="m318.868 252.032c1.414 0.586 3.36-0.109 4.794-2 1.29-1.7 3.188-4.3 6.655-2.866 1.306 0.541 3.286 1.958 2.736 5.5 2.224 1.035 2.289 3.8 2.318 5.064v6e-3a1.773 1.773 0 0 0 0.947 1.519 1.773 1.773 0 0 0-1.744 0.4c-0.917 0.875-2.915 2.782-5.22 1.941-2.117 2.894-4.518 2.5-5.825 1.955-3.467-1.436-2.968-4.62-2.679-6.732 0.317-2.334-0.567-4.201-1.982-4.787zm3.932 1.629a8.312 8.312 0 0 1 0.145 3.485c-0.347 2.336-0.454 3.695 1.393 4.46 2.1 0.87 3.289-1.154 3.736-1.916l0.487-0.76 1.039 0.43c1.337 0.554 2.095 0.121 3.5-1.225l0.15-0.143c0-0.066 0-0.135-5e-3 -0.207-0.045-1.949-0.275-2.791-1.612-3.345l-1.039-0.43 0.194-0.882c0.223-0.855 0.814-3.127-1.287-4-1.847-0.765-2.732 0.271-4.138 2.169a8.311 8.311 0 0 1-2.563 2.363z" fill="#07783d" data-name="Path 383"/>
  </g>
  <g id="Group_331" transform="translate(116.432,88.336)" data-name="Group 331">
   <path id="Path_384" transform="translate(-318.868,-149.753)" d="m318.868 161.668c1.414-0.586 2.3-2.453 1.978-4.8-0.288-2.112-0.787-5.3 2.679-6.732 1.306-0.541 3.708-0.939 5.825 1.955 2.3-0.841 4.3 1.066 5.22 1.941a1.773 1.773 0 0 0 1.744 0.4 1.773 1.773 0 0 0-0.947 1.519v6e-3c-0.03 1.267-0.094 4.028-2.318 5.064 0.55 3.543-1.429 4.96-2.736 5.5-3.467 1.436-5.365-1.168-6.655-2.866-1.43-1.878-3.375-2.573-4.79-1.987zm3.932-1.629a8.31 8.31 0 0 1 2.566 2.362c1.406 1.9 2.292 2.933 4.138 2.169 2.1-0.87 1.51-3.142 1.287-4l-0.194-0.882 1.039-0.43c1.337-0.554 1.567-1.4 1.612-3.345 0-0.072 0-0.141 5e-3 -0.207l-0.15-0.143c-1.41-1.346-2.168-1.779-3.5-1.225l-1.039 0.43-0.487-0.76c-0.447-0.762-1.636-2.786-3.736-1.916-1.847 0.765-1.74 2.124-1.393 4.46a8.312 8.312 0 0 1-0.148 3.488z" fill="#07783d" data-name="Path 384"/>
  </g>
  <g id="Group_332" transform="translate(104.451,76.099)" data-name="Group 332">
   <path id="Path_385" transform="translate(-246.753,-76.099)" d="m252.032 93.549c0.586-1.414-0.109-3.36-2-4.794-1.7-1.29-4.3-3.188-2.866-6.655 0.541-1.306 1.958-3.286 5.5-2.736 1.035-2.224 3.8-2.289 5.064-2.318h6e-3a1.772 1.772 0 0 0 1.519-0.947 1.773 1.773 0 0 0 0.4 1.744c0.875 0.917 2.782 2.915 1.941 5.22 2.894 2.117 2.5 4.518 1.955 5.825-1.436 3.467-4.62 2.968-6.732 2.679-2.334-0.317-4.201 0.567-4.787 1.982zm1.629-3.932a8.312 8.312 0 0 1 3.485-0.145c2.336 0.347 3.695 0.454 4.46-1.393 0.87-2.1-1.154-3.289-1.916-3.736l-0.76-0.487 0.43-1.039c0.554-1.337 0.121-2.095-1.225-3.505l-0.143-0.15-0.207 5e-3c-1.949 0.045-2.791 0.275-3.345 1.612l-0.43 1.039-0.882-0.194c-0.855-0.223-3.127-0.814-4 1.287-0.765 1.847 0.271 2.732 2.169 4.138a8.311 8.311 0 0 1 2.363 2.568z" fill="#07783d" data-name="Path 385"/>
  </g>
  <g id="Group_333" transform="translate(94.813,93.451)" data-name="Group 333">
   <path id="Path_386" transform="translate(-188.742,-200.527)" d="m195.4 209.314q-0.082 0.268-0.829 0.841a9.024 9.024 0 0 1-1.787 1.063 5.2 5.2 0 0 1-2.132 0.52 1.761 1.761 0 0 1-1.442-0.7 2.275 2.275 0 0 1-0.467-1.542 4.961 4.961 0 0 1 0.5-2.038q0.24-0.473 0.333-0.473c0.015 0 0.023 0.019 0.023 0.047a1.5 1.5 0 0 1-0.175 0.5 3.632 3.632 0 0 0-0.391 1.693 1.658 1.658 0 0 0 0.5 1.174 1.581 1.581 0 0 0 1.162 0.479 5.807 5.807 0 0 0 2.184-0.479 8.149 8.149 0 0 0 1.682-0.911q0.689-0.479 0.625-0.567-0.105-0.152-0.771-0.274a6.94 6.94 0 0 1-1.133-0.28q-0.584-0.239-0.584-0.683a3.62 3.62 0 0 1 0.993-2.336q0.718-0.847 1.267-0.847 0.45 0 0.45 0.654 0 0.5-0.28 0.5c-0.015 0-0.041-0.059-0.076-0.178s-0.132-0.178-0.292-0.178q-0.461 0-1.1 0.783a2.53 2.53 0 0 0-0.66 1.118 0.062 0.062 0 0 0 6e-3 0.029 1.537 1.537 0 0 0 0.963 0.49 12.113 12.113 0 0 1 1.256 0.31q0.292 0.123 0.292 0.6a2.424 2.424 0 0 1-0.117 0.685z" data-name="Path 386"/>
   <path id="Path_387" transform="translate(-189.477,-234.108)" d="m196.737 245.487a1.8 1.8 0 0 1-0.053 0.379q-0.064 0.275-0.134 0.274-0.047 0-0.088-0.1a0.918 0.918 0 0 0-0.882-0.42 2.589 2.589 0 0 0-1.536 0.707q-0.426 0.344-1.944 1.863a2.3 2.3 0 0 1-1.32 0.823 1.068 1.068 0 0 1-0.817-0.35 1.194 1.194 0 0 1-0.339-0.853 4.826 4.826 0 0 1 0.707-2.313q0.087-0.158 0.187-0.158c0.02 0 0.029 0.014 0.029 0.041a0.6 0.6 0 0 1-0.082 0.222 4.429 4.429 0 0 0-0.6 2.132q0.035 0.637 0.5 0.637a2.756 2.756 0 0 0 1.658-0.934q0.882-0.864 1.758-1.729a3.23 3.23 0 0 1 2.027-0.929 1.046 1.046 0 0 1 0.666 0.2 0.617 0.617 0 0 1 0.263 0.508z" data-name="Path 387"/>
   <path id="Path_388" transform="translate(-228.99,-211.157)" d="m249.1 217.256c-0.506 0-0.153 0.438-0.269 0.864-0.1 0.367-0.655 0.321-0.711-0.5a0.087 0.087 0 0 0-0.163-0.039c-0.79 1.321-1.573 1.441-2.141 6e-3a0.168 0.168 0 0 0-0.22-0.1c-0.824 0.342-1.133 1.72-1.287 1.96-0.754 0.321-1.824 1.075-1.412 2.209a3.573 3.573 0 0 0-1.725 0.9q-0.876 0.864-1.758 1.729a2.756 2.756 0 0 1-1.658 0.934q-0.467 0-0.5-0.637a4.429 4.429 0 0 1 0.6-2.132 0.6 0.6 0 0 0 0.082-0.222c0-0.027-0.01-0.041-0.029-0.041q-0.1 0-0.187 0.158a4.826 4.826 0 0 0-0.707 2.313 1.194 1.194 0 0 0 0.339 0.853 1.068 1.068 0 0 0 0.818 0.35 2.3 2.3 0 0 0 1.32-0.823q1.518-1.518 1.945-1.863a3.408 3.408 0 0 1 1.065-0.625 9.959 9.959 0 0 1 2.181 0.124 1.606 1.606 0 0 0 1.873-1.175c0.253-0.92-0.477-1.113-1.056-1.453-0.873-0.514-1.075-1.1 0.028-1.66 0.322 1.357 1.236 1.538 2.147 0.541a0.045 0.045 0 0 1 0.071 5e-3c0.664 0.957 2.138-0.245 1.354-1.676zm-5.507 4.366c-0.856 0 0.072-1.256 0.482-1.256 0.498 0 0.158 1.256-0.481 1.256zm1.212-0.872c0.549 0.086 1.337 0.491 1.337 0.706s-1.078 0.694-1.9 0.32a2.976 2.976 0 0 0 0.563-1.025z" data-name="Path 388"/>
   <path id="Path_389" transform="translate(-234.37,-239.565)" d="m252.687 251.9a0.527 0.527 0 0 0-0.638-0.56c-0.824 0.342-1.133 1.72-1.287 1.96-0.754 0.321-1.824 1.075-1.413 2.209a3.573 3.573 0 0 0-1.725 0.9q-0.876 0.864-1.758 1.728a2.757 2.757 0 0 1-1.658 0.934q-0.467 0-0.5-0.636a4.429 4.429 0 0 1 0.6-2.132 0.6 0.6 0 0 0 0.082-0.222c0-0.027-0.01-0.041-0.029-0.041q-0.1 0-0.187 0.158a4.825 4.825 0 0 0-0.707 2.312 1.193 1.193 0 0 0 0.339 0.853 1.067 1.067 0 0 0 0.817 0.35 2.3 2.3 0 0 0 1.32-0.823q1.518-1.518 1.944-1.863a3.407 3.407 0 0 1 1.065-0.625 9.945 9.945 0 0 1 2.181 0.123 1.606 1.606 0 0 0 1.867-1.174c0.253-0.92-0.477-1.113-1.056-1.453-0.788-0.464-1.03-0.988-0.258-1.5a0.806 0.806 0 0 1 0.657-0.106c0.252 0.073 0.344 0.123 0.344-0.392zm-2.641 3.573c-0.856 0 0.072-1.256 0.482-1.256 0.497-2e-3 0.157 1.254-0.482 1.254zm1.212-0.872c0.549 0.086 1.337 0.491 1.337 0.706s-1.078 0.694-1.9 0.32a2.977 2.977 0 0 0 0.562-1.027z" data-name="Path 389"/>
   <path id="Path_390" transform="translate(-230.229,-180.546)" d="m239.31 187.752q0 0.293-0.015 0.567a3.144 3.144 0 0 1-0.321 1.377c-0.066 0.1-0.112 0.156-0.139 0.155q-0.065 0 8e-3 -0.374a4.393 4.393 0 0 0 0.072-0.984q-0.1-1.68-0.244-5.05-5e-3 -0.615-0.038-1.776a2.954 2.954 0 0 0-0.134-0.354 2.412 2.412 0 0 1 0.237-0.727c9e-3 -0.027 0.022-0.04 0.038-0.039q0.058 0 0.146 0.262 0.154 0.4 0.3 0.793a2.733 2.733 0 0 1 0.23 0.759c0 0.031-0.015 0.046-0.038 0.044a0.17 0.17 0 0 1-0.073-0.04 2.747 2.747 0 0 1-0.29-0.3q-0.023 0.162 0.094 2.16 0.145 2.375 0.167 3.527z" data-name="Path 390"/>
   <path id="Path_391" transform="translate(-236.522,-219.756)" d="m246.856 234.774q0 0.293-0.015 0.567a3.143 3.143 0 0 1-0.321 1.377q-0.1 0.157-0.139 0.154-0.064 0 8e-3 -0.374a4.394 4.394 0 0 0 0.073-0.985q-0.1-1.68-0.244-5.05-5e-3 -0.615-0.038-1.776a3.012 3.012 0 0 0-0.134-0.354 2.424 2.424 0 0 1 0.237-0.727c9e-3 -0.027 0.022-0.04 0.038-0.039q0.058 0 0.146 0.262 0.155 0.4 0.3 0.793a2.733 2.733 0 0 1 0.23 0.759c0 0.031-0.015 0.046-0.038 0.044a0.168 0.168 0 0 1-0.073-0.04 2.732 2.732 0 0 1-0.29-0.3q-0.023 0.162 0.094 2.16 0.144 2.38 0.166 3.529z" data-name="Path 391"/>
   <path id="Path_392" transform="translate(-230.229,-208.385)" d="m239.353 220.258q-0.858 0-0.858-1.133a4.63 4.63 0 0 1 0.362-1.746q0.076-0.193 0.117-0.193c0.012 0 0.018 0.014 0.018 0.041a0.652 0.652 0 0 1-0.041 0.187 5.261 5.261 0 0 0-0.257 1.343 0.638 0.638 0 0 0 0.21 0.52 0.593 0.593 0 0 0 0.421 0.158 5.3 5.3 0 0 0 2.1-1 17.385 17.385 0 0 0 1.618-1.127 0.223 0.223 0 0 0 0.094-0.158q0-0.111-0.216-0.269a5.341 5.341 0 0 0-0.847-0.479 7.264 7.264 0 0 1-0.946-0.508 4.035 4.035 0 0 1-0.975-0.952 0.907 0.907 0 0 0-0.216-0.164q-0.093-0.052-0.093-0.245v-0.5a0.189 0.189 0 0 1 0.017-0.093q0.023-0.023 0.123 0.029l0.847 0.4c0.035 0.016 0.066 0.031 0.094 0.047q0.2 0.117 0.152 0.175-0.07 0.076-0.479 0.052a4.393 4.393 0 0 0 1.226 0.812 9.31 9.31 0 0 1 1.1 0.566 1.091 1.091 0 0 1 0.409 0.969 1.747 1.747 0 0 1-0.024 0.286 1.822 1.822 0 0 1-0.152 0.537 1.246 1.246 0 0 1-0.257 0.292 15.6 15.6 0 0 1-1.577 1.133 5.251 5.251 0 0 1-1.97 1.02z" data-name="Path 392"/>
   <path id="Path_393" transform="translate(-267.843,-197.232)" d="m284.718 201.319a1.123 1.123 0 0 1-0.1 0.346c-0.074 0.159-0.146 0.236-0.217 0.229a2.086 2.086 0 0 1-0.415-0.263q-0.39-0.279-0.381-0.379a5.236 5.236 0 0 1 0.354-0.7 2.8 2.8 0 0 0 0.528 0.451q0.243 0.181 0.231 0.316z" data-name="Path 393"/>
   <path id="Path_394" transform="translate(-207.327,-258.485)" d="m212.145 274.777a1.122 1.122 0 0 1-0.1 0.346c-0.074 0.159-0.146 0.236-0.217 0.229a2.089 2.089 0 0 1-0.415-0.263q-0.39-0.279-0.381-0.379a5.256 5.256 0 0 1 0.354-0.7 2.811 2.811 0 0 0 0.528 0.451q0.243 0.181 0.231 0.316z" data-name="Path 394"/>
   <path id="Path_395" transform="translate(-269.466,-191.78)" d="m286.663 194.681a1.119 1.119 0 0 1-0.305 0.678q-0.325-0.207-0.656-0.415-0.161-0.115-0.152-0.221 0 0.023 0.278-0.7a3.746 3.746 0 0 0 0.553 0.377q0.293 0.164 0.282 0.281z" data-name="Path 395"/>
   <path id="Path_396" transform="translate(-273.441,-197.265)" d="m291.4 201.126a1.3 1.3 0 0 1-0.106 0.316 1.173 1.173 0 0 1-0.236 0.376q-0.224-0.151-0.447-0.3-0.3-0.218-0.292-0.311a1.948 1.948 0 0 1 0.142-0.319q0.152-0.3 0.21-0.3 0.738 0.412 0.729 0.538z" data-name="Path 396"/>
   <path id="Path_397" transform="translate(-251.142,-246.41)" d="m264.69 260.3a1.122 1.122 0 0 1-0.1 0.346q-0.111 0.239-0.217 0.229a2.078 2.078 0 0 1-0.415-0.263q-0.39-0.279-0.381-0.379a5.243 5.243 0 0 1 0.354-0.7 2.8 2.8 0 0 0 0.528 0.451q0.241 0.177 0.231 0.316z" data-name="Path 397"/>
   <path id="Path_398" transform="translate(-256.741,-246.444)" d="m271.37 260.1a1.291 1.291 0 0 1-0.106 0.316 1.177 1.177 0 0 1-0.236 0.376q-0.224-0.151-0.447-0.3-0.3-0.217-0.292-0.311a1.949 1.949 0 0 1 0.142-0.319q0.152-0.3 0.211-0.3 0.739 0.412 0.728 0.538z" data-name="Path 398"/>
   <path id="Path_399" transform="translate(-193.634,-250.929)" d="m202.018 267.342a2.335 2.335 0 0 1 0.017 0.279 2.162 2.162 0 0 1-0.267 0.992 6.882 6.882 0 0 1-2.106 1.781 5.866 5.866 0 0 1-2.924 0.928 1.852 1.852 0 0 1-1.671-0.87 3.374 3.374 0 0 1-0.458-1.851 4.929 4.929 0 0 1 0.116-1.073 1.091 1.091 0 0 1 0.081-0.25c0.046-0.1 0.083-0.112 0.11-0.046a0.733 0.733 0 0 1-0.017 0.371 3.6 3.6 0 0 0-0.087 0.777q0 2.077 2.24 2.077a5.878 5.878 0 0 0 2.675-0.945 5.771 5.771 0 0 0 1.99-1.572 0.071 0.071 0 0 0 0.012-0.041 1.862 1.862 0 0 0-0.232-0.528 6.707 6.707 0 0 1-0.348-0.748q-0.116-0.3-0.284-0.806a0.478 0.478 0 0 1-0.076-0.07 4.819 4.819 0 0 0 0.174-0.754c8e-3 -0.027 0.021-0.041 0.041-0.041q6e-3 0 0.209 0.226a5.88 5.88 0 0 1 0.528 0.626c0 0.019-0.014 0.029-0.041 0.029a0.754 0.754 0 0 1-0.087-0.012 0.891 0.891 0 0 1-0.215-0.023q6e-3 0.023 0.3 0.644a3.428 3.428 0 0 1 0.32 0.9z" data-name="Path 399"/>
  </g>
 </g>
</svg>
