<?xml version="1.0" encoding="UTF-8" standalone="no"?>
<!-- Created with Inkscape (http://www.inkscape.org/) -->
<svg
   xmlns:svg="http://www.w3.org/2000/svg"
   xmlns="http://www.w3.org/2000/svg"
   xmlns:xlink="http://www.w3.org/1999/xlink"
   version="1.0"
   width="432"
   height="216"
   id="svg2">
  <defs
     id="defs4">
    <linearGradient
       x1="1558.3047"
       y1="2084.0537"
       x2="1418.0996"
       y2="2093.1335"
       id="linearGradient8414"
       xlink:href="#linearGradient8400"
       gradientUnits="userSpaceOnUse" />
    <linearGradient
       x1="1496.3047"
       y1="2081.0537"
       x2="1359.0996"
       y2="2085.6335"
       id="linearGradient8410"
       xlink:href="#linearGradient8400"
       gradientUnits="userSpaceOnUse" />
    <linearGradient
       x1="1440.3047"
       y1="2080.0537"
       x2="1329.0494"
       y2="2059.5476"
       id="linearGradient8406"
       xlink:href="#linearGradient8400"
       gradientUnits="userSpaceOnUse" />
    <linearGradient
       x1="363.22525"
       y1="2339.0579"
       x2="439.99301"
       y2="2263.8418"
       id="linearGradient6385"
       xlink:href="#linearGradient5284"
       gradientUnits="userSpaceOnUse"
       gradientTransform="matrix(0.7378859,-0.6749254,-0.6749254,-0.7378859,4235.1734,4239.8638)" />
    <linearGradient
       x1="338.86002"
       y1="2264.2937"
       x2="384.01645"
       y2="2223.7334"
       id="linearGradient6373"
       xlink:href="#linearGradient5284"
       gradientUnits="userSpaceOnUse"
       gradientTransform="matrix(0.7071068,0.7071068,-0.7071068,0.7071068,4300.236,373.50041)" />
    <linearGradient
       x1="367.68253"
       y1="2334.502"
       x2="438.17474"
       y2="2241.1108"
       id="linearGradient6368"
       xlink:href="#linearGradient5284"
       gradientUnits="userSpaceOnUse"
       gradientTransform="matrix(-0.7378859,-0.6749254,0.6749254,-0.7378859,1682.5824,4231.9607)" />
    <linearGradient
       x1="403.71829"
       y1="2346.8911"
       x2="463.75089"
       y2="2286.8586"
       id="linearGradient6362"
       xlink:href="#linearGradient5284"
       gradientUnits="userSpaceOnUse"
       gradientTransform="matrix(1,0,0,-1,1843.3792,4650.1926)" />
    <linearGradient
       x1="373.67651"
       y1="2330.8218"
       x2="517.44275"
       y2="2271.0283"
       id="linearGradient6356"
       xlink:href="#linearGradient5284"
       gradientUnits="userSpaceOnUse"
       gradientTransform="matrix(-1,0,0,1,2651.6603,5.8276271)" />
    <linearGradient
       x1="378.61002"
       y1="2334.0437"
       x2="458.24911"
       y2="2276.0007"
       id="linearGradient5382"
       xlink:href="#linearGradient5284"
       gradientUnits="userSpaceOnUse"
       gradientTransform="translate(806.99576,33.058817)" />
    <linearGradient
       x1="398.61002"
       y1="2328.0437"
       x2="450.78036"
       y2="2291.4431"
       id="linearGradient5373"
       xlink:href="#linearGradient5284"
       gradientUnits="userSpaceOnUse"
       gradientTransform="matrix(-1,0,0,-1,1609.3073,4662.6478)" />
    <linearGradient
       x1="403.86737"
       y1="2284.5837"
       x2="480.80219"
       y2="2283.1267"
       id="linearGradient5314"
       xlink:href="#linearGradient5284"
       gradientUnits="userSpaceOnUse"
       gradientTransform="translate(62.646686,2.1482508)" />
    <linearGradient
       x1="418.18051"
       y1="2277.5471"
       x2="458.01959"
       y2="2277.5471"
       id="linearGradient3287"
       xlink:href="#linearGradient3277"
       gradientUnits="userSpaceOnUse" />
    <linearGradient
       x1="481.18616"
       y1="2280.6833"
       x2="539.6983"
       y2="2280.6833"
       id="linearGradient3283"
       xlink:href="#linearGradient3277"
       gradientUnits="userSpaceOnUse" />
    <linearGradient
       x1="541.65082"
       y1="-286.51971"
       x2="547.16919"
       y2="-289.16278"
       id="linearGradient2466"
       xlink:href="#linearGradient24942"
       gradientUnits="userSpaceOnUse"
       gradientTransform="matrix(-13.65217,0,0,-13.651672,9447.0774,-1958.0434)" />
    <linearGradient
       x1="1718.4434"
       y1="1787.088"
       x2="1718.4434"
       y2="2872.7104"
       id="linearGradient4233"
       xlink:href="#linearGradient3248"
       gradientUnits="userSpaceOnUse" />
    <linearGradient
       x1="2125.3145"
       y1="349.43567"
       x2="2297.5193"
       y2="-38.172607"
       id="linearGradient4309"
       xlink:href="#linearGradient4303"
       gradientUnits="userSpaceOnUse" />
    <linearGradient
       x1="541.65082"
       y1="-286.51971"
       x2="547.16919"
       y2="-289.16278"
       id="linearGradient3330"
       xlink:href="#linearGradient24942"
       gradientUnits="userSpaceOnUse"
       gradientTransform="matrix(-13.651423,0,0,13.650925,8744.1948,5951.2815)" />
    <linearGradient
       x1="541.65082"
       y1="-286.51971"
       x2="547.16919"
       y2="-289.16278"
       id="linearGradient3325"
       xlink:href="#linearGradient24942"
       gradientUnits="userSpaceOnUse"
       gradientTransform="matrix(13.65217,0,0,13.651672,-5307.2512,5951.4875)" />
    <linearGradient
       x1="565.24695"
       y1="-316.19647"
       x2="576.49084"
       y2="-299.96817"
       id="linearGradient3303"
       xlink:href="#linearGradient24942"
       gradientUnits="userSpaceOnUse"
       gradientTransform="matrix(13.938771,0,0,13.938263,-6201.6228,4504.686)" />
    <linearGradient
       x1="541.65082"
       y1="-286.51971"
       x2="547.16919"
       y2="-289.16278"
       id="linearGradient4173"
       xlink:href="#linearGradient24942"
       gradientUnits="userSpaceOnUse"
       gradientTransform="matrix(-13.651423,0,0,13.650925,8744.1948,5951.2815)" />
    <linearGradient
       x1="541.65082"
       y1="-286.51971"
       x2="547.16919"
       y2="-289.16278"
       id="linearGradient4168"
       xlink:href="#linearGradient24942"
       gradientUnits="userSpaceOnUse"
       gradientTransform="matrix(13.65217,0,0,13.651672,-5307.2512,5951.4875)" />
    <linearGradient
       x1="565.24695"
       y1="-316.19647"
       x2="576.49084"
       y2="-299.96817"
       id="linearGradient4146"
       xlink:href="#linearGradient24942"
       gradientUnits="userSpaceOnUse"
       gradientTransform="matrix(13.938771,0,0,13.938263,-6201.6228,4504.686)" />
    <linearGradient
       x1="545.74048"
       y1="-281.18848"
       x2="538.84857"
       y2="-296.42383"
       id="linearGradient4141"
       xlink:href="#linearGradient24942"
       gradientUnits="userSpaceOnUse"
       gradientTransform="matrix(-23.079565,0.5873598,0.5873812,23.078724,14821.728,6666.7578)" />
    <linearGradient
       x1="545.74048"
       y1="-281.18848"
       x2="538.84857"
       y2="-296.42383"
       id="linearGradient4084"
       xlink:href="#linearGradient24942"
       gradientUnits="userSpaceOnUse"
       gradientTransform="matrix(-23.079565,0.5873812,0.5873812,23.079565,14821.728,7028.2807)" />
    <linearGradient
       x1="565.24695"
       y1="-316.19647"
       x2="576.49084"
       y2="-299.96817"
       id="linearGradient4082"
       xlink:href="#linearGradient24942"
       gradientUnits="userSpaceOnUse"
       gradientTransform="matrix(13.938771,0,0,13.938771,-6201.6228,4866.1301)" />
    <linearGradient
       x1="541.65082"
       y1="-286.51971"
       x2="547.16919"
       y2="-289.16278"
       id="linearGradient4080"
       xlink:href="#linearGradient24942"
       gradientUnits="userSpaceOnUse"
       gradientTransform="matrix(13.65217,0,0,13.65217,-5307.2512,6312.9843)" />
    <linearGradient
       x1="541.65082"
       y1="-286.51971"
       x2="547.16919"
       y2="-289.16278"
       id="linearGradient4078"
       xlink:href="#linearGradient24942"
       gradientUnits="userSpaceOnUse"
       gradientTransform="matrix(-13.651423,0,0,13.651423,8744.1948,6312.7783)" />
    <linearGradient
       x1="541.65082"
       y1="-286.51971"
       x2="547.16919"
       y2="-289.16278"
       id="linearGradient3989"
       xlink:href="#linearGradient24942"
       gradientUnits="userSpaceOnUse"
       gradientTransform="matrix(-13.651423,0,0,13.651423,8744.1948,6312.7783)" />
    <linearGradient
       x1="541.65082"
       y1="-286.51971"
       x2="547.16919"
       y2="-289.16278"
       id="linearGradient3984"
       xlink:href="#linearGradient24942"
       gradientUnits="userSpaceOnUse"
       gradientTransform="matrix(13.65217,0,0,13.65217,-5307.2512,6312.9843)" />
    <linearGradient
       x1="565.24695"
       y1="-316.19647"
       x2="576.49084"
       y2="-299.96817"
       id="linearGradient3962"
       xlink:href="#linearGradient24942"
       gradientUnits="userSpaceOnUse"
       gradientTransform="matrix(13.938771,0,0,13.938771,-6201.6228,4866.1301)" />
    <linearGradient
       x1="545.74048"
       y1="-281.18848"
       x2="538.84857"
       y2="-296.42383"
       id="linearGradient3957"
       xlink:href="#linearGradient24942"
       gradientUnits="userSpaceOnUse"
       gradientTransform="matrix(-23.079565,0.5873812,0.5873812,23.079565,14821.728,7028.2807)" />
    <linearGradient
       id="linearGradient24942">
      <stop
         style="stop-color:#ffffff;stop-opacity:0"
         offset="0"
         id="stop24944" />
      <stop
         style="stop-color:#ffffff;stop-opacity:0.16494845"
         offset="0.25"
         id="stop28872" />
      <stop
         style="stop-color:#ffffff;stop-opacity:1"
         offset="0.5"
         id="stop24950" />
      <stop
         style="stop-color:#ffffff;stop-opacity:0"
         offset="1"
         id="stop24946" />
    </linearGradient>
    <linearGradient
       id="linearGradient4303">
      <stop
         style="stop-color:#778683;stop-opacity:1"
         offset="0"
         id="stop4305" />
      <stop
         style="stop-color:#ffffff;stop-opacity:1"
         offset="1"
         id="stop4307" />
    </linearGradient>
    <linearGradient
       id="linearGradient3248">
      <stop
         style="stop-color:#3d642b;stop-opacity:1"
         offset="0"
         id="stop3250" />
      <stop
         style="stop-color:#3d6400;stop-opacity:1"
         offset="0.5"
         id="stop4235" />
      <stop
         style="stop-color:#dfff00;stop-opacity:1"
         offset="1"
         id="stop3252" />
    </linearGradient>
    <linearGradient
       id="linearGradient3277">
      <stop
         style="stop-color:#000000;stop-opacity:1"
         offset="0"
         id="stop3279" />
      <stop
         style="stop-color:#000000;stop-opacity:0"
         offset="1"
         id="stop3281" />
    </linearGradient>
    <linearGradient
       x1="417.3024"
       y1="2283.8767"
       x2="480.55219"
       y2="2283.1267"
       id="linearGradient5290"
       xlink:href="#linearGradient5284"
       gradientUnits="userSpaceOnUse" />
    <linearGradient
       id="linearGradient5284">
      <stop
         style="stop-color:#000000;stop-opacity:1"
         offset="0"
         id="stop5286" />
      <stop
         style="stop-color:#ddbc59;stop-opacity:0"
         offset="1"
         id="stop5288" />
    </linearGradient>
    <linearGradient
       id="linearGradient8400">
      <stop
         style="stop-color:#ae2525;stop-opacity:1"
         offset="0"
         id="stop8402" />
      <stop
         style="stop-color:#ffffff;stop-opacity:1"
         offset="1"
         id="stop8404" />
    </linearGradient>
    <linearGradient
       x1="565.24695"
       y1="-316.19647"
       x2="576.49084"
       y2="-299.96817"
       id="linearGradient2820"
       xlink:href="#linearGradient24942"
       gradientUnits="userSpaceOnUse"
       gradientTransform="matrix(13.938771,0,0,13.938263,-11584.558,3149.7276)" />
    <linearGradient
       x1="541.65082"
       y1="-286.51971"
       x2="547.16919"
       y2="-289.16278"
       id="linearGradient2843"
       xlink:href="#linearGradient24942"
       gradientUnits="userSpaceOnUse"
       gradientTransform="matrix(-13.65217,0,0,-13.651672,4064.1418,-3313.0018)" />
    <linearGradient
       x1="541.65082"
       y1="-286.51971"
       x2="547.16919"
       y2="-289.16278"
       id="linearGradient2846"
       xlink:href="#linearGradient24942"
       gradientUnits="userSpaceOnUse"
       gradientTransform="matrix(-13.651423,0,0,13.650925,3361.2592,4596.3231)" />
    <linearGradient
       x1="1718.4434"
       y1="1787.088"
       x2="1718.4434"
       y2="2872.7104"
       id="linearGradient2850"
       xlink:href="#linearGradient3248"
       gradientUnits="userSpaceOnUse"
       gradientTransform="translate(-5382.9356,-1354.9584)" />
  </defs>
  <g
     transform="translate(-115.43304,-104.36218)"
     id="layer1">
    <path
       d="M 331.40179,104.375 L 331.43304,125.875 L 331.46429,139.78125 L 331.46429,104.375 L 331.40179,104.375 z "
       style="color:#000000;fill:#5080b0;fill-opacity:1;fill-rule:nonzero;stroke:none;stroke-width:0.5;stroke-linecap:butt;stroke-linejoin:miter;marker:none;marker-start:none;marker-mid:none;marker-end:none;stroke-miterlimit:4;stroke-dashoffset:0;stroke-opacity:1;visibility:visible;display:inline;overflow:visible;enable-background:accumulate"
       id="path5828" />
    <path
       d="M 115.43304,104.36218 L 547.43304,104.36218 L 547.43304,177.36218 L 115.43304,177.36218 L 115.43304,104.36218 z "
       style="fill:#ffc618"
       id="rect4819" />
    <path
       d="M 115.43304,246.39158 L 547.43304,246.39158 L 547.43304,251.89158 L 115.43304,251.89158 L 115.43304,246.39158 z "
       style="fill:#ffc618"
       id="path5871" />
    <path
       d="M 115.43304,177.36218 L 547.43304,177.36218 L 547.43304,247.36218 L 115.43304,247.36218 L 115.43304,177.36218 z "
       style="fill:#ff0000"
       id="rect4814" />
    <path
       d="M 115.43304,251.3592 L 547.42411,251.3592 L 547.42411,320.36218 L 115.43304,320.36218 L 115.43304,251.3592 z M 322.1877,173.36628 L 312.1254,104.36218 L 273.46995,104.36218 L 303.43808,173.36628 L 322.1877,173.36628 z M 359.37443,173.36628 L 389.37381,104.36218 L 350.68711,104.36218 L 340.62482,173.36628 L 359.37443,173.36628 z M 399.15487,173.36628 L 468.15343,104.36218 L 429.49798,104.36218 L 379.46776,173.36628 L 399.15487,173.36628 z M 438.0603,173.36628 L 547.37054,104.36218 L 509.27758,104.36218 L 418.5607,173.36628 L 438.0603,173.36628 z M 547.40179,173.36628 L 547.43304,173.36628 L 547.43304,139.77053 L 457.09116,173.36628 L 547.40179,173.36628 z M 205.72134,173.36628 L 115.44197,139.77053 L 115.44197,173.36628 L 205.72134,173.36628 z M 244.25181,173.36628 L 153.53493,104.36218 L 115.44197,104.36218 L 224.75221,173.36628 L 244.25181,173.36628 z M 233.31453,104.36218 L 194.65908,104.36218 L 263.65766,173.36628 L 283.34475,173.36628 L 233.31453,104.36218 z "
       style="fill:#5080b0"
       id="rect4817" />
    <path
       d="M 317.59857,318.3403 C 310.32795,318.3403 315.49479,318.3403 315.34716,318.3403 C 315.0519,318.3403 314.97808,318.04506 314.97808,318.04506 C 315.34716,311.77114 313.72326,310.22112 313.42801,308.44967 C 313.13276,306.67822 313.68635,306.67822 313.68635,306.67822 L 316.47843,306.67822 C 315.45786,306.58595 315.7237,305.51092 315.7237,305.51092 L 315.90075,303.20912 C 315.015,304.02104 314.63511,303.43692 314.63511,303.43692 C 313.17369,302.07993 317.03604,296.86072 317.87112,295.81688 C 318.70623,294.77305 318.39307,294.04236 318.39307,294.04236 C 316.51409,291.85029 315.67898,288.40562 315.67898,288.40562 C 314.11317,279.11545 317.45359,277.54969 317.87112,265.85867 C 318.28868,254.16767 309.71577,259.48348 309.71577,259.48348 C 311.67181,256.22665 314.52979,253.09261 318.39307,252.7063 C 326.7441,251.87122 327.05725,269.09458 327.05725,269.09458 C 327.05725,269.09458 327.89237,273.26994 333.52931,275.98393 C 338.80954,278.52616 349.40223,284.73203 355.18651,291.55112 C 354.981,291.58932 348.12027,291.47324 348.12027,291.47324 C 348.12027,291.47324 351.33116,293.09706 350.99899,294.09351 C 350.66684,295.08995 349.52273,298.59595 349.53245,298.57303 C 349.54218,298.5501 349.98506,298.6239 349.39456,299.95249 C 349.39456,299.95249 347.88264,306.35968 347.88202,307.2992 C 348.09917,307.365 345.52998,312.86875 344.91536,315.77029 C 344.6968,316.80217 344.5736,317.52474 344.65105,317.6022 C 344.9463,317.89743 344.57723,318.3403 344.57723,318.3403 C 344.57723,318.3403 324.86918,318.3403 317.59857,318.3403 z "
       style="fill:#ffc618"
       id="path3063" />
    <path
       d="M 344.91536,315.77031 C 345.52998,312.86876 348.09917,307.36502 347.88139,307.03834 C 347.58613,306.59547 345.79515,306.60442 345.20465,306.67823 L 330.55271,306.67823 M 325.23008,298.32062 C 326.11316,297.8987 327.05648,297.60793 328.04303,297.52571 C 328.04303,297.52571 329.51932,297.67334 329.37168,297.08285 C 329.22406,296.49236 329.15024,296.49236 329.29787,295.82807 C 329.4455,295.16377 331.21702,292.80183 335.94108,291.69468 M 322.21179,294.57328 C 315.42096,286.52793 319.55451,276.04681 319.55451,276.04681 M 325.909,277.75846 C 328.41429,294.66867 355.18322,291.51293 355.18322,291.51293 C 349.40223,284.73203 338.80954,278.52617 333.52931,275.98394 C 327.89237,273.26995 327.05725,269.09459 327.05725,269.09459 C 327.05725,269.09459 326.7441,251.87123 318.39307,252.70631 C 314.52979,253.09262 311.67181,256.22665 309.71577,259.48349 C 309.71577,259.48349 318.28868,254.16768 317.87112,265.85868 C 317.45359,277.54969 314.11317,279.11545 315.67898,288.40564 C 315.67898,288.40564 316.51409,291.85029 318.39307,294.04236 C 318.39307,294.04236 318.70623,294.77306 317.87112,295.81689 C 317.03604,296.86074 313.17369,302.07994 314.63511,303.43692 C 314.63511,303.43692 315.015,304.02105 315.90075,303.20913 M 323.17136,289.1851 C 321.86119,292.08218 322.21179,294.57328 322.21179,294.57328 C 322.21179,294.57328 314.46139,302.69246 315.71622,305.49726 C 316.97105,308.30206 318.37349,305.34964 318.52113,304.90678 C 318.64135,304.54612 321.35605,300.17152 325.23008,298.32062 L 333.35761,298.32062 M 328.11686,302.9877 C 328.11686,304.25075 327.09174,305.27584 325.82865,305.27584 C 324.56554,305.27584 323.54042,304.25075 323.54042,302.9877 C 323.54042,301.72465 324.56554,300.69958 325.82865,300.69958 C 327.09174,300.69958 328.11686,301.72465 328.11686,302.9877 z M 339.18886,302.9877 C 339.18886,304.25075 338.16374,305.27584 336.90064,305.27584 C 335.63755,305.27584 334.61243,304.25075 334.61243,302.9877 C 334.61243,301.72465 335.63755,300.69958 336.90064,300.69958 C 338.16374,300.69958 339.18886,301.72465 339.18886,302.9877 z M 316.4656,306.67823 L 313.68635,306.67823 C 313.68635,306.67823 313.13276,306.67823 313.42801,308.44968 C 313.72326,310.22114 315.34716,311.77116 314.97808,318.04506 C 314.97808,318.04506 315.0519,318.34031 315.34716,318.34031 C 315.49479,318.34031 310.32795,318.34031 317.59857,318.34031 C 317.59857,318.34031 317.93063,317.01171 317.78299,315.16644 M 328.96572,306.67823 L 316.4656,306.67823 C 316.4656,306.67823 315.83927,307.19474 316.41341,308.91709 C 316.98755,310.63943 317.35291,310.22189 317.35291,311.57888 C 317.35291,311.57888 320.92006,310.51639 321.03078,306.86276 M 317.59857,318.34031 C 324.86918,318.34031 344.57723,318.34031 344.57723,318.34031 C 344.57723,318.34031 344.9463,317.89744 344.65105,317.60221 C 344.5736,317.52475 344.6968,316.80218 344.91536,315.77031 C 344.91536,315.77031 319.90669,315.59766 318.91502,315.64985 M 321.03078,306.86276 C 321.03078,306.86276 321.6951,309.07707 323.7133,310.29495 C 325.7315,309.07707 326.39581,306.86276 326.39581,306.86276 M 326.6775,306.86276 C 326.6775,306.86276 327.34182,309.07707 329.36001,310.29495 C 331.37821,309.07707 332.04254,306.86276 332.04254,306.86276 M 332.36113,306.86276 C 332.36113,306.86276 333.02545,309.07707 335.04365,310.29495 C 337.06183,309.07707 337.72617,306.86276 337.72617,306.86276 M 338.11856,306.86276 C 338.11856,306.86276 338.78288,309.07707 340.80108,310.29495 C 342.81928,309.07707 343.48359,306.86276 343.48359,306.86276 M 319.25618,315.61853 C 319.25618,315.61853 319.9205,313.40422 321.9387,312.18634 C 323.9569,313.40422 324.62121,315.61853 324.62121,315.61853 M 324.90291,315.61853 C 324.90291,315.61853 325.56722,313.40422 327.58543,312.18634 C 329.60363,313.40422 330.26794,315.61853 330.26794,315.61853 M 330.58653,315.61853 C 330.58653,315.61853 331.25086,313.40422 333.26904,312.18634 C 335.28724,313.40422 335.95156,315.61853 335.95156,315.61853 M 336.34398,315.61853 C 336.34398,315.61853 337.00829,313.40422 339.02649,312.18634 C 341.04468,313.40422 341.70901,315.61853 341.70901,315.61853 M 341.69958,315.61853 C 341.69958,315.61853 342.36389,313.40422 344.38209,312.18634 C 344.77888,312.42577 345.12333,312.70375 345.4207,312.99582 M 343.91291,306.86276 C 343.91291,306.86276 344.04429,308.74461 346.70393,309.94015 M 345.48245,298.5501 L 349.54218,298.5501 C 349.54218,298.5501 349.98506,298.62392 349.39456,299.95251 C 349.39456,299.95251 347.88264,306.35969 347.88264,307.56009 M 348.12027,291.47324 C 348.12027,291.47324 351.33116,293.09707 350.99899,294.09351 C 350.66684,295.08997 349.52273,298.59596 349.52273,298.59596"
       style="fill:none;stroke:#000000;stroke-width:0.5"
       id="path3065" />
    <path
       d="M 320.38493,256.26556 C 320.38493,256.96838 319.8145,257.53878 319.11164,257.53878 C 318.4088,257.53878 317.83835,256.96838 317.83835,256.26556 C 317.83835,255.56273 318.4088,254.99232 319.11164,254.99232 C 319.8145,254.99232 320.38493,255.56273 320.38493,256.26556 z M 317.61691,256.284 C 317.61691,256.284 317.76454,254.84469 319.4438,255.02923 L 319.46225,255.04768 C 319.46225,255.04768 319.60987,255.8596 318.92711,255.71197 C 318.24433,255.56435 317.61691,256.284 317.61691,256.284 z M 316.09654,288.77097 C 316.09654,288.77097 315.10486,279.48079 323.14271,272.01733 C 323.14271,272.01733 319.7501,273.47871 316.4097,276.19269 C 315.88741,280.09735 314.545,284.79453 316.09654,288.77097 z M 329.18715,297.08285 C 329.18715,297.08285 327.56325,294.64708 329.55623,293.57684 C 331.54919,292.50658 332.17659,292.69111 334.31718,292.17443 C 334.31718,292.17443 334.41335,292.39233 334.02009,292.68329 C 332.43724,293.85435 330.09092,295.1961 329.45186,296.88685 C 329.34181,297.17801 329.17458,296.77673 329.18715,297.08285 z M 353.78055,291.58932 C 353.78055,291.58932 332.01569,288.61439 327.16165,281.82942 L 327.16165,281.82942 C 327.16165,281.82942 328.72746,286.37013 335.09513,289.34508 C 335.09513,289.34508 336.97411,290.28453 334.83417,292.05906 C 334.83417,292.05906 338.4452,291.78595 342.92328,291.64995 C 346.32096,291.54676 350.58313,291.56682 353.78055,291.58932 z M 313.1215,307.14255 C 313.1215,307.14255 313.38246,305.05486 314.37414,303.22815 C 314.37414,303.22815 315.05267,303.5413 315.62679,303.64569 C 316.20092,303.75007 315.4702,303.90664 315.62679,304.7939 C 315.78337,305.68118 315.99215,306.62062 316.3575,306.62062 C 316.72287,306.62062 313.17369,306.41187 313.1215,307.14255 z M 318.15207,318.3403 C 318.15207,318.3403 324.39191,317.85573 334.2829,317.85573 C 344.17389,317.85573 344.05159,317.51355 344.42065,317.43973 C 344.78972,317.36592 344.72486,318.26649 344.72486,318.26649 L 318.15207,318.3403 z M 315.12572,316.79027 C 315.12572,316.79027 314.83046,317.74981 315.12572,318.11886 C 315.42096,318.48792 317.04487,318.11886 317.41393,318.19267 C 317.78299,318.26649 315.93766,317.67601 315.12572,316.79027 z M 327.00506,268.31169 C 327.00506,268.31169 326.37875,269.87746 324.55195,271.13007 C 324.55195,271.13007 326.6919,270.08623 327.94456,271.28664 C 327.94456,271.28664 326.95287,269.72089 327.00506,268.31169 z "
       style="fill:#000000"
       id="path3067" />
    <path
       d="M 197.61245,181.29075 C 197.61245,181.29075 187.2553,224.32647 244.93388,236.46932 C 244.93388,236.46932 247.43388,236.33539 249.93388,238.74611 C 252.43387,241.15682 254.79995,245.44254 257.0321,243.92468 C 259.26423,242.40682 257.43387,242.67468 257.0321,242.13897 C 256.63031,241.60325 251.22852,238.61218 250.51423,235.04075 C 249.79995,231.46932 239.75531,181.29075 197.61245,181.29075 z "
       style="fill:#ffc618"
       id="path4803" />
    <path
       d="M 197.61245,181.29075 C 197.61245,181.29075 187.2553,224.32647 244.93388,236.46932 C 244.93388,236.46932 247.43388,236.33539 249.93388,238.74611 C 252.43387,241.15682 254.79995,245.44254 257.0321,243.92468 C 259.26423,242.40682 257.43387,242.67468 257.0321,242.13897 C 256.63031,241.60325 251.22852,238.61218 250.51423,235.04075 C 249.79995,231.46932 239.75531,181.29075 197.61245,181.29075 z M 240.89487,229.26863 C 243.56185,231.65625 246.33807,234.06279 249.21958,236.46932 M 197.61245,182.18361 C 197.61245,182.18361 201.7867,188.1134 209.55171,197.20137 C 209.55171,197.20137 211.36244,192.18361 206.71959,185.21932 M 209.55171,197.20137 C 211.22544,199.16023 213.06597,201.26583 215.06749,203.4904 C 215.06749,203.4904 210.82674,204.50504 199.93388,197.8979 M 215.06749,203.4904 C 217.00488,205.64369 219.09309,207.90845 221.32685,210.25951 C 221.32685,210.25951 223.68388,202.8979 214.57674,188.79075 M 221.32685,210.25951 C 222.40242,211.39156 223.51172,212.54363 224.65419,213.71289 C 224.65419,213.71289 214.7553,214.86218 208.14816,210.75504 M 224.65419,213.71289 C 226.14245,215.23605 227.68695,216.7884 229.2864,218.36372 C 229.2864,218.36372 232.07674,211.46932 223.86245,195.21932 M 229.2864,218.36372 C 230.58124,219.63903 231.91209,220.92938 233.27824,222.2315 C 233.27824,222.2315 221.18387,224.86218 216.00531,220.75504 M 233.27824,222.2315 C 235.0981,223.96604 234.95489,223.87818 236.89844,225.64666 C 236.89844,225.64666 238.68388,219.50504 231.89817,204.86218 M 236.89844,225.64666 C 237.54853,226.2382 240.2312,228.67446 240.89487,229.26863 C 240.89487,229.26863 234.93388,231.11218 229.7553,228.61218"
       style="fill:none;stroke:#000000;stroke-width:0.5"
       id="path2854" />
    <use
       transform="matrix(-1,0,0,1,662.86608,0)"
       id="use5926"
       x="0"
       y="0"
       width="432"
       height="216"
       xlink:href="#path4803" />
    <use
       transform="matrix(-1,0,0,1,662.86608,0)"
       id="use5922"
       x="0"
       y="0"
       width="432"
       height="216"
       xlink:href="#path2854" />
  </g>
</svg>
